<svg width="199" height="553" viewBox="0 0 199 553" fill="none" xmlns="http://www.w3.org/2000/svg">
<g style="mix-blend-mode:multiply">
<path fill-rule="evenodd" clip-rule="evenodd" d="M111 521C159.603 521 199 528.167 199 537C199 545.833 159.603 553 111 553C62.3975 553 23 545.841 23 537C23 528.159 62.3975 521 111 521Z" fill="#E2E2F2"/>
</g>
<g clip-path="url(#clip0_1526_1342)">
<path d="M126.127 66.1956C119.608 54.684 117.43 42.8843 117.55 38.1451C117.574 37.7609 117.582 37.3766 117.59 36.9924C117.622 36.336 117.662 35.9757 117.662 35.9757H117.614C117.614 16.1066 101.902 0 82.523 0C63.1435 0 47.4317 16.1066 47.4317 35.9757C47.4317 36.9844 47.4798 37.977 47.5598 38.9697C47.5919 44.1491 45.1334 55.3005 38.9672 66.1956C31.2955 79.7486 30.4787 94.054 45.71 99.8178C45.71 99.8178 45.7901 99.8498 45.8942 99.8818C47.3276 100.41 48.8892 100.874 50.6109 101.251C51.0113 101.339 51.4037 101.403 51.7961 101.475C62.0704 103.892 87.504 107.503 111.608 101.771C112.561 101.627 113.514 101.459 114.491 101.243C117.19 100.658 119.512 99.8578 121.514 98.8972C121.53 98.8972 121.546 98.8892 121.562 98.8812C134.527 92.613 133.422 79.0521 126.135 66.1796L126.127 66.1956Z" fill="black"/>
<path d="M173.03 174.507C171.18 177.749 164.566 178.19 158.215 172.682C145.947 162.051 120.842 129.461 115.38 121.752C107.1 110.049 101.062 88.6746 109.462 88.4585C117.863 88.2423 178.98 164.068 173.03 174.507Z" fill="#69B75C"/>
<path d="M159.769 172.298C147.5 161.667 122.395 129.077 116.934 121.368C109.27 110.521 106.419 111.129 114.675 122.801C120.129 130.51 145.939 162.051 158.207 172.69C162.876 176.732 167.681 177.557 170.636 176.428C167.697 176.821 163.685 175.692 159.769 172.298Z" fill="#62A355"/>
<path d="M47.4878 202.309C50.8351 204.791 57.618 204.599 61.2616 196.337C67.3397 182.56 71.1756 155.598 72.6411 147.473C74.9794 134.48 74.9794 103.82 67.1876 106.678C62.7031 108.319 56.2085 136.53 51.1314 162.291C47.3837 181.319 40.4727 197.106 47.4958 202.301L47.4878 202.309Z" fill="#69B75C"/>
<path d="M70.0785 107.399C70.5509 116.765 66.1705 128.621 63.6 143.463C58.9072 170.609 54.1665 193.536 48.8571 192.615C47.3036 192.351 46.1664 190.198 45.4457 186.611C43.9642 194.016 43.8361 199.604 47.4797 202.309C50.8271 204.791 57.6099 204.599 61.2536 196.338C67.3317 182.56 71.1676 155.599 72.633 147.473C74.6351 136.354 74.9233 112.306 70.0705 107.399H70.0785Z" fill="#62A355"/>
<path d="M171.629 179.126C175.865 173.602 176.137 166.302 172.245 162.819C168.345 159.337 161.763 160.986 157.526 166.502C153.29 172.025 153.018 179.326 156.91 182.809C160.81 186.291 167.4 184.642 171.629 179.118V179.126Z" fill="url(#paint0_linear_1526_1342)"/>
<path d="M58.8432 191.102C57.3697 184.634 52.3967 180.239 47.744 181.304C43.0913 182.368 40.5127 188.468 41.9862 194.945C43.4597 201.413 48.4327 205.8 53.0854 204.743C57.7381 203.678 60.3167 197.578 58.8432 191.11V191.102Z" fill="url(#paint1_linear_1526_1342)"/>
<path d="M44.1343 201.066C48.146 209.012 60.846 257.059 64.2236 269.942C63.2935 271.515 63.5618 275.012 60.803 279.922C60.4857 280.915 59.9116 282.459 59.3726 283.997C58.4122 286.698 58.4096 289.815 59.4549 289.906C60.3162 289.973 60.2398 287.672 60.9032 285.703C61.4886 283.963 61.6315 283.371 62.0152 283.425C62.2906 283.449 61.9105 285.751 61.5895 288.326C61.1402 291.654 61.338 293.904 62.4345 293.96C63.5248 294.038 63.2708 291.781 63.9359 288.76C64.5088 286.112 64.631 284.951 65.7196 284.912C66.2582 284.884 66.0507 286.668 66.2704 289.422C66.5372 292.678 67.4429 294.671 68.4297 294.457C69.8734 294.116 68.7083 292.716 68.849 288.84C69.0267 283.905 68.0359 283.273 69.9438 280.596C71.7539 278.066 76.9373 287.481 77.3793 284.764C77.6954 282.669 69.1489 270.1 66.7431 269.087C64.5251 250.58 62.3798 195.04 55.6623 187.193C48.5092 178.839 39.4945 191.88 44.1343 201.066Z" fill="url(#paint2_linear_1526_1342)"/>
<path d="M100.974 410.446C100.453 401.769 92.1327 361.422 92.1327 361.422L99.2358 250.677L61.4698 220.473C35.4837 248.556 56.7931 311.885 64.0644 351.207C71.3438 390.529 102.535 511.049 106.171 530.966H110.335C104.617 509.52 101.494 419.124 100.982 410.446H100.974Z" fill="#1963A4"/>
<path d="M71.3438 409.63C71.56 411.175 117.366 473.016 135.688 519.006L138.972 517.541C138.972 517.541 126.824 436.264 95.2478 403.914C95.2478 403.914 130.483 321.924 126.199 273.596C126.199 273.596 91.0195 241.151 90.6352 242.32C90.2428 243.489 69.7822 398.327 71.3438 409.63Z" fill="#2071B7"/>
<path d="M126.551 282.506C126.551 279.44 126.455 276.454 126.207 273.596C126.207 273.596 91.0275 241.151 90.6432 242.32C90.6191 242.376 90.5551 242.84 90.4349 243.641L62.7031 221.466L61.3977 220.562C60.3807 221.666 59.4598 222.843 58.5869 224.052C62.5509 232.513 76.7812 253.655 126.551 282.506Z" fill="url(#paint3_linear_1526_1342)"/>
<path d="M126.255 274.157C126.647 249.997 99.5481 223.075 110.463 160.714L71.4799 156.423C71.4799 156.423 77.1576 189.109 69.9183 206.312C66.1465 215.278 60.6931 219.825 59.3877 222.163C66.2747 237.749 126.255 274.149 126.255 274.149V274.157Z" fill="#69B75C"/>
<path d="M72.7051 195.585C77.574 191.406 83.0115 189.061 88.7533 189.061C95.1757 189.061 101.967 193.167 108.277 199.94C107.42 188.604 108.805 175.188 111.424 160.218L70.1025 156.063C70.1025 156.063 75.2517 178.23 72.6971 195.593L72.7051 195.585Z" fill="#62A355"/>
<path d="M64.665 165.349C66.5389 168.591 114.747 171.049 117.086 169.295C119.424 167.542 114.163 90.7637 110.071 88.6183C105.979 86.4729 68.0765 104.173 66.3227 107.287C64.5689 110.401 62.8953 162.275 64.665 165.349Z" fill="#69B75C"/>
<path d="M87.7763 101.947L82.8994 103.708L84.4609 123.778L89.53 123.385L87.7763 101.947Z" fill="url(#paint4_linear_1526_1342)"/>
<path d="M98.5711 91.332C90.2588 94.4381 79.4719 99.4254 72.7051 103.092C81.546 106.494 89.2658 106.974 98.5711 91.332Z" fill="url(#paint5_linear_1526_1342)"/>
<path d="M94.2708 93.5337C85.502 86.9133 92.453 64.9229 92.453 64.9229L70.8152 68.8214C76.2767 79.5405 77.4619 96.9279 75.9003 101.411C83.8763 104.597 88.6492 101.147 94.2708 93.5337Z" fill="url(#paint6_linear_1526_1342)"/>
<path d="M111.776 534H94.2148L94.3349 532.599L97.5141 530.95L104.93 525.658L109.414 525.202L111.776 534Z" fill="#454545"/>
<path d="M144.77 519.462L134.928 534L133.831 533.119L135.016 525.202L134.856 516.941L138.651 514.475L144.77 519.462Z" fill="#454545"/>
<path d="M130.139 250.765C128.962 243.873 131.196 240.374 129.474 239.085C139.676 224.156 172.95 183.097 172.87 173.074C172.782 162.363 157.727 165.813 155.404 175.476C153.298 184.225 130.499 230.896 126.215 239.646C122.259 242.32 114.852 249.372 114.579 251.125C114.171 253.895 121.322 246.066 122.139 249.012C123.004 252.118 121.971 252.478 120.689 257.346C119.688 261.172 118.287 262.221 119.424 262.941C120.209 263.414 121.562 261.7 122.723 258.602C123.708 255.969 124.053 254.175 124.501 254.344C125.422 254.664 125.19 255.841 124.91 258.57C124.597 261.7 123.732 263.83 124.685 264.046C125.646 264.278 126.463 262.125 127.04 258.77C127.512 256.177 127.857 253.823 128.097 253.871C128.441 253.919 128.393 254.536 128.385 256.385C128.385 258.482 127.656 260.708 128.409 260.868C129.322 261.052 130.219 258.018 130.187 255.128C130.171 253.487 130.123 251.83 130.139 250.773V250.765Z" fill="url(#paint7_linear_1526_1342)"/>
<path d="M53.8942 45.742C53.8942 45.742 48.6329 41.6513 44.749 46.5105C40.4967 51.826 49.1534 67.3322 58.0824 60.4236L53.8942 45.742Z" fill="#FFC2B3"/>
<path d="M54.8392 57.7179C54.6229 57.7179 54.4067 57.5979 54.3026 57.3897C51.3236 51.5939 47.5278 51.3217 47.3676 51.3137C47.0393 51.2977 46.7831 51.0175 46.7991 50.6813C46.8151 50.3531 47.0713 50.0809 47.4237 50.1129C47.6079 50.1129 52.0524 50.3851 55.3757 56.8454C55.5278 57.1416 55.4077 57.5018 55.1194 57.6539C55.0313 57.7019 54.9352 57.7179 54.8472 57.7179H54.8392Z" fill="#F48073"/>
<path d="M110.695 45.742C110.695 45.742 115.957 41.6513 119.841 46.5105C124.093 51.826 115.436 67.3322 106.507 60.4236L110.695 45.742Z" fill="#FFC2B3"/>
<path d="M109.75 57.718C109.654 57.718 109.566 57.694 109.478 57.654C109.182 57.5019 109.07 57.1417 109.222 56.8455C112.537 50.3852 116.982 50.121 117.174 50.113C117.47 50.097 117.782 50.3532 117.798 50.6894C117.814 51.0176 117.558 51.2978 117.23 51.3138C117.062 51.3218 113.266 51.602 110.295 57.3898C110.191 57.598 109.975 57.718 109.758 57.718H109.75Z" fill="#F48073"/>
<path d="M82.4109 65.9154C101.084 65.9154 116.221 51.1598 116.221 32.9577C116.221 14.7557 101.084 0 82.4109 0C63.7381 0 48.6009 14.7557 48.6009 32.9577C48.6009 51.1598 63.7381 65.9154 82.4109 65.9154Z" fill="black"/>
<path d="M53.8382 29.2751C53.8382 29.2751 50.2746 82.9024 81.2497 82.9024C114.747 82.9024 111.232 29.2751 111.232 29.2751C111.232 29.2751 111.04 6.35596 82.2748 6.35596C55.9042 6.35596 53.8382 29.2751 53.8382 29.2751Z" fill="url(#paint8_linear_1526_1342)"/>
<path d="M101.326 10.5508C101.326 10.5508 90.0426 26.097 113.73 41.6353C113.73 41.6353 114.155 15.8263 101.326 10.5508Z" fill="black"/>
<path d="M82.0265 61.6805H79.7362C79.4079 61.6805 79.1356 61.4083 79.1356 61.0801C79.1356 60.7519 79.4079 60.4797 79.7362 60.4797H82.0265C82.2347 60.4797 82.4269 60.3916 82.563 60.2395C82.6992 60.0874 82.7632 59.8873 82.7472 59.6792L82.2107 54.5558C82.1787 54.2276 82.4189 53.9314 82.7472 53.8993C83.0756 53.8673 83.3719 54.1075 83.4039 54.4357L83.9404 59.5591C83.9965 60.1034 83.8203 60.6478 83.4519 61.0481C83.0836 61.4563 82.563 61.6885 82.0185 61.6885L82.0265 61.6805Z" fill="#F48073"/>
<path d="M72.1705 49.7115C72.479 48.3988 71.6645 47.0846 70.3513 46.7762C69.0382 46.4679 67.7235 47.282 67.415 48.5948C67.1066 49.9075 67.921 51.2217 69.2342 51.5301C70.5474 51.8384 71.862 51.0242 72.1705 49.7115Z" fill="#2B232A"/>
<path d="M96.6439 49.436C96.7995 48.0965 95.8393 46.8846 94.4994 46.7292C93.1594 46.5737 91.9471 47.5335 91.7916 48.873C91.6361 50.2125 92.5963 51.4244 93.9362 51.5798C95.2761 51.7353 96.4884 50.7754 96.6439 49.436Z" fill="#2B232A"/>
<path d="M61.2856 41.6354L76.6611 40.1544C76.6611 40.1544 75.1956 35.9036 68.565 36.592C61.7821 37.2965 61.2937 41.6274 61.2937 41.6274L61.2856 41.6354Z" fill="#2B232A"/>
<path d="M102.607 41.6354L87.2317 40.1544C87.2317 40.1544 88.6972 35.9036 95.3279 36.592C102.111 37.2965 102.599 41.6274 102.599 41.6274L102.607 41.6354Z" fill="#2B232A"/>
<path d="M81.57 67.5485C76.5089 67.5485 73.9704 65.0269 73.8503 64.8988C73.602 64.6506 73.61 64.2504 73.8583 64.0102C74.1065 63.77 74.5069 63.77 74.7472 64.0102C74.8753 64.1383 77.9184 67.1082 84.1486 66.0595C84.493 66.0035 84.8213 66.2357 84.8773 66.5799C84.9334 66.9241 84.7012 67.2523 84.3568 67.3084C83.3558 67.4765 82.4189 67.5485 81.562 67.5485H81.57Z" fill="#FF6058"/>
<path d="M51.1234 36.4078C51.1234 36.4078 97.7543 36.1677 105.226 13.0965C105.226 13.0965 93.6462 -2.43378 72.2326 3.94643C50.8271 10.3266 51.1234 36.4078 51.1234 36.4078Z" fill="black"/>
<path d="M66.8913 61.1685C59.6119 61.1685 53.686 55.2446 53.686 47.9678C53.686 40.691 59.6119 34.7671 66.8913 34.7671C74.1706 34.7671 80.0965 40.691 80.0965 47.9678C80.0965 55.2446 74.1706 61.1685 66.8913 61.1685ZM66.8913 36.0319C60.3086 36.0319 54.9513 41.3875 54.9513 47.9678C54.9513 54.5481 60.3086 59.9037 66.8913 59.9037C73.4739 59.9037 78.8313 54.5481 78.8313 47.9678C78.8313 41.3875 73.4739 36.0319 66.8913 36.0319Z" fill="#FFFFF9"/>
<path opacity="0.15" d="M70.4753 60.0158C77.1302 58.0351 80.9189 51.0363 78.9375 44.3836C76.9561 37.731 69.9549 33.9436 63.2999 35.9243C56.645 37.9051 52.8563 44.9038 54.8377 51.5565C56.8191 58.2091 63.8203 61.9965 70.4753 60.0158Z" fill="#FFFFF9"/>
<path opacity="0.15" d="M109.781 50.0682C110.942 43.2247 106.334 36.7357 99.4885 35.5745C92.6427 34.4134 86.1514 39.0198 84.9898 45.8632C83.8282 52.7067 88.4362 59.1957 95.2821 60.3569C102.128 61.5181 108.619 56.9116 109.781 50.0682Z" fill="#FFFFF9"/>
<path d="M97.3859 61.1685C90.1066 61.1685 84.1807 55.2446 84.1807 47.9678C84.1807 40.691 90.1066 34.7671 97.3859 34.7671C104.665 34.7671 110.591 40.691 110.591 47.9678C110.591 55.2446 104.665 61.1685 97.3859 61.1685ZM97.3859 36.0319C90.8033 36.0319 85.4459 41.3875 85.4459 47.9678C85.4459 54.5481 90.8033 59.9037 97.3859 59.9037C103.969 59.9037 109.326 54.5481 109.326 47.9678C109.326 41.3875 103.969 36.0319 97.3859 36.0319Z" fill="#FFFFF9"/>
<path d="M79.3278 51.354L78.6391 50.2973C78.7752 50.2092 82.0986 48.0878 85.478 50.2973L84.7893 51.354C82.1066 49.6008 79.4399 51.2819 79.3278 51.354Z" fill="#FFFFF9"/>
</g>
<defs>
<linearGradient id="paint0_linear_1526_1342" x1="154.163" y1="172.81" x2="175" y2="172.81" gradientUnits="userSpaceOnUse">
<stop stop-color="#C1210D"/>
<stop offset="0.52" stop-color="#C1210D"/>
<stop offset="1" stop-color="#9D1D06"/>
</linearGradient>
<linearGradient id="paint1_linear_1526_1342" x1="41.5698" y1="193.015" x2="59.2596" y2="193.015" gradientUnits="userSpaceOnUse">
<stop stop-color="#C1210D"/>
<stop offset="0.52" stop-color="#C1210D"/>
<stop offset="1" stop-color="#9D1D06"/>
</linearGradient>
<linearGradient id="paint2_linear_1526_1342" x1="87.4415" y1="247.473" x2="32.382" y2="232.629" gradientUnits="userSpaceOnUse">
<stop stop-color="#F7C3AF"/>
<stop offset="1" stop-color="#F79480"/>
</linearGradient>
<linearGradient id="paint3_linear_1526_1342" x1="58.5869" y1="251.534" x2="126.551" y2="251.534" gradientUnits="userSpaceOnUse">
<stop stop-color="#C1210D"/>
<stop offset="0.52" stop-color="#C1210D"/>
<stop offset="1" stop-color="#9D1D06"/>
</linearGradient>
<linearGradient id="paint4_linear_1526_1342" x1="82.8994" y1="112.858" x2="89.53" y2="112.858" gradientUnits="userSpaceOnUse">
<stop stop-color="#C1210D"/>
<stop offset="0.52" stop-color="#C1210D"/>
<stop offset="1" stop-color="#9D1D06"/>
</linearGradient>
<linearGradient id="paint5_linear_1526_1342" x1="72.7051" y1="98.1765" x2="98.5711" y2="98.1765" gradientUnits="userSpaceOnUse">
<stop stop-color="#C1210D"/>
<stop offset="0.52" stop-color="#C1210D"/>
<stop offset="1" stop-color="#9D1D06"/>
</linearGradient>
<linearGradient id="paint6_linear_1526_1342" x1="84.9654" y1="96.8159" x2="83.9491" y2="87.6578" gradientUnits="userSpaceOnUse">
<stop stop-color="#F7C3AF"/>
<stop offset="1" stop-color="#F79480"/>
</linearGradient>
<linearGradient id="paint7_linear_1526_1342" x1="114.555" y1="215.27" x2="172.87" y2="215.27" gradientUnits="userSpaceOnUse">
<stop stop-color="#F7C3AF"/>
<stop offset="1" stop-color="#F79480"/>
</linearGradient>
<linearGradient id="paint8_linear_1526_1342" x1="82.523" y1="51.8019" x2="82.523" y2="113.699" gradientUnits="userSpaceOnUse">
<stop stop-color="#F7C3AF"/>
<stop offset="1" stop-color="#F79480"/>
</linearGradient>
<clipPath id="clip0_1526_1342">
<rect width="175" height="534" fill="white"/>
</clipPath>
</defs>
</svg>
