<svg width="530" height="629" viewBox="0 0 530 629" fill="none" xmlns="http://www.w3.org/2000/svg">
<g clip-path="url(#clip0_205_8122)">
<path d="M130.645 626.9H499.009C509.145 626.9 517.251 618.5 517.118 608.147L510.436 83.3268C509.993 69.2717 503.272 61.2136 491.829 61.2136L123.488 62.8237C114.379 62.8237 106.709 69.6062 105.364 78.8388L112.061 608.147C112.193 618.507 120.509 626.9 130.645 626.9Z" fill="#C2D8F0"/>
<path d="M143.503 619.402H511.914C522.05 619.402 530.148 611.118 530 600.906L522.571 83.4825C522.104 69.6219 515.368 61.7427 503.933 61.7427H135.506C126.398 61.7427 118.735 68.4396 117.405 77.5478L124.888 600.906C125.036 611.118 133.367 619.402 143.503 619.402Z" fill="#FFFCF9"/>
<path d="M241.516 105.533H410.681C415.714 105.533 419.736 101.442 419.666 96.4019L419.121 58.4914C419.051 53.4511 414.913 49.3599 409.872 49.3599H240.707C235.674 49.3599 231.652 53.4511 231.722 58.4914L232.267 96.4019C232.337 101.442 236.475 105.533 241.516 105.533Z" fill="url(#paint0_linear_205_8122)"/>
<path d="M321.591 2.3335C303.871 2.3335 289.783 16.8086 290.04 34.6671L290.732 83.1325C290.794 87.4882 294.349 91.0195 298.674 91.0195H347.051C351.376 91.0195 354.829 87.4882 354.767 83.1325L354.075 34.6671C353.818 16.8086 339.319 2.3335 321.598 2.3335H321.591ZM324.018 46.622C315.508 47.7032 308.234 40.4773 309.184 31.8825C309.829 26.0256 314.458 21.3043 320.253 20.5654C328.763 19.4842 336.036 26.7101 335.087 35.3049C334.441 41.1618 329.813 45.8909 324.018 46.622Z" fill="#AA1B17"/>
<path d="M323.924 0C306.204 0 292.117 14.4751 292.374 32.3336L293.066 80.799C293.128 85.1547 296.683 88.686 301.008 88.686H349.384C353.709 88.686 357.163 85.1547 357.101 80.799L356.409 32.3336C356.152 14.4751 341.652 0 323.932 0L323.924 0ZM326.351 44.2885C317.841 45.3697 310.568 38.1438 311.517 29.549C312.163 23.6921 316.791 18.9708 322.586 18.2319C331.096 17.1507 338.37 24.3766 337.421 32.9714C336.775 38.8283 332.147 43.5574 326.351 44.2885Z" fill="url(#paint1_linear_205_8122)"/>
<path d="M383.199 450.368H178.749C172.611 450.368 167.438 445.343 167.236 439.175L161.705 275.524C161.682 274.878 162.188 274.342 162.833 274.318C163.479 274.287 164.016 274.8 164.039 275.446L169.57 439.097C169.733 444.029 173.856 448.042 178.749 448.042H383.199C383.844 448.042 384.365 448.563 384.365 449.209C384.365 449.855 383.844 450.376 383.199 450.376V450.368Z" fill="#707070"/>
<path d="M440.171 450.368H415.893C415.247 450.368 414.726 449.847 414.726 449.201C414.726 448.556 415.247 448.035 415.893 448.035H440.171C440.816 448.035 441.337 448.556 441.337 449.201C441.337 449.847 440.816 450.368 440.171 450.368Z" fill="#707070"/>
<path d="M486.929 450.368C486.306 450.368 485.785 449.87 485.762 449.24L479.376 260.395C479.352 259.75 479.858 259.213 480.504 259.19C481.149 259.143 481.686 259.672 481.709 260.318L488.096 449.162C488.119 449.808 487.613 450.345 486.968 450.368C486.952 450.368 486.944 450.368 486.929 450.368Z" fill="#707070"/>
<path d="M177.66 261.523C177.014 261.523 176.493 261.002 176.493 260.357C176.493 259.711 177.014 259.19 177.66 259.19L381.168 259.003C381.814 259.003 382.335 259.524 382.335 260.17C382.335 260.815 381.814 261.337 381.168 261.337L177.66 261.523Z" fill="#707070"/>
<path d="M300.37 133.861C299.725 133.861 299.203 133.34 299.203 132.694C299.203 132.049 299.725 131.528 300.37 131.528L503.879 131.341C504.524 131.341 505.046 131.862 505.046 132.508C505.046 133.153 504.524 133.674 503.879 133.674L300.37 133.861Z" fill="#707070"/>
<path d="M307.667 226.055C307.021 226.055 306.5 225.534 306.5 224.889C306.5 224.243 307.021 223.722 307.667 223.722L511.175 223.535C511.821 223.535 512.342 224.056 512.342 224.702C512.342 225.347 511.821 225.869 511.175 225.869L307.667 226.055Z" fill="#707070"/>
<path d="M310.778 489.733C310.133 489.733 309.611 489.212 309.611 488.566C309.611 487.921 310.133 487.4 310.778 487.4L514.287 487.213C514.932 487.213 515.454 487.734 515.454 488.38C515.454 489.025 514.932 489.546 514.287 489.546L310.778 489.733Z" fill="#707070"/>
<path d="M482.145 308.775H286.477C285.832 308.775 285.31 308.254 285.31 307.609C285.31 306.963 285.832 306.442 286.477 306.442H482.145C482.79 306.442 483.312 306.963 483.312 307.609C483.312 308.254 482.79 308.775 482.145 308.775Z" fill="#707070"/>
<path d="M163.954 308.775C163.323 308.775 162.802 308.27 162.787 307.64C162.771 306.994 163.277 306.457 163.922 306.442L257.703 304.108C258.334 304.108 258.886 304.598 258.901 305.244C258.917 305.89 258.411 306.426 257.766 306.442L163.985 308.775H163.954Z" fill="#707070"/>
<path d="M483.74 356.019H296.776C296.131 356.019 295.609 355.498 295.609 354.853C295.609 354.207 296.131 353.686 296.776 353.686H483.74C484.385 353.686 484.906 354.207 484.906 354.853C484.906 355.498 484.385 356.019 483.74 356.019Z" fill="#707070"/>
<path d="M165.548 356.02C164.91 356.02 164.389 355.506 164.381 354.868C164.381 354.223 164.887 353.694 165.533 353.686L244.596 352.722H244.612C245.25 352.722 245.771 353.235 245.779 353.873C245.779 354.518 245.273 355.047 244.627 355.055L165.564 356.02H165.548Z" fill="#707070"/>
<path d="M483.778 403.271H460.769C460.123 403.271 459.602 402.75 459.602 402.105C459.602 401.459 460.123 400.938 460.769 400.938H483.778C484.424 400.938 484.945 401.459 484.945 402.105C484.945 402.75 484.424 403.271 483.778 403.271Z" fill="#707070"/>
<path d="M384.661 403.271H167.151C166.505 403.271 165.984 402.75 165.984 402.105C165.984 401.459 166.505 400.938 167.151 400.938H384.669C385.315 400.938 385.836 401.459 385.836 402.105C385.836 402.75 385.315 403.271 384.669 403.271H384.661Z" fill="#707070"/>
<path d="M486.75 573.387L385.175 575.354C380.352 575.448 376.299 571.784 376.12 567.164C375.949 562.544 379.714 558.725 384.544 558.631L486.12 556.664C490.943 556.57 494.995 560.234 495.174 564.854C495.346 569.474 491.581 573.293 486.75 573.387Z" fill="#C2D8F0"/>
<path d="M278.201 517.159L179.791 517.757C175.707 517.781 172.277 514.444 172.129 510.29C171.989 506.145 175.186 502.761 179.27 502.738L277.679 502.139C281.763 502.116 285.194 505.452 285.342 509.606C285.482 513.752 282.284 517.135 278.201 517.159Z" fill="#C2D8F0"/>
<path d="M291.432 548.263L178.469 548.956C174.385 548.979 170.954 545.642 170.807 541.489C170.667 537.343 173.864 533.959 177.948 533.936L290.911 533.244C294.995 533.22 298.425 536.557 298.573 540.711C298.713 544.856 295.516 548.24 291.432 548.263Z" fill="#C2D8F0"/>
<path d="M265.342 579.383L179.317 579.912C175.233 579.936 171.802 576.599 171.655 572.445C171.515 568.3 174.712 564.916 178.795 564.893L264.821 564.364C268.905 564.341 272.335 567.677 272.483 571.831C272.623 575.977 269.426 579.36 265.342 579.383Z" fill="#C2D8F0"/>
<path d="M212.695 198.987H185.299C184.653 198.987 184.132 198.466 184.132 197.821C184.132 197.175 184.653 196.654 185.299 196.654H212.695C214.516 196.654 216.204 195.946 217.448 194.655C218.724 193.34 219.393 191.575 219.323 189.692L217.363 131.738C217.23 127.857 214.01 124.691 210.175 124.691H168.87C167.049 124.691 165.361 125.399 164.117 126.69C162.841 128.004 162.172 129.77 162.242 131.652L163.37 164.989C163.393 165.635 162.888 166.171 162.242 166.195C161.589 166.226 161.06 165.713 161.036 165.067L159.909 131.73C159.823 129.21 160.725 126.845 162.444 125.064C164.132 123.314 166.419 122.35 168.878 122.35H210.183C215.255 122.35 219.525 126.519 219.704 131.644L221.664 189.599C221.75 192.119 220.848 194.492 219.128 196.265C217.44 198.015 215.154 198.98 212.695 198.98V198.987Z" fill="#707070"/>
<path d="M96.4103 628.113C102.906 622.676 145.798 586.244 152.402 554.587C153.32 550.184 154.743 543.34 152.044 535.756C146.646 520.604 131.796 522.191 127.152 510.742C121.038 495.644 143.581 484.778 145.813 452.258C146.35 444.457 147.182 432.315 139.925 421.939C131.819 410.357 121.964 412.901 113.314 402.649C102.524 389.862 111.097 377.891 105.325 357.972C99.2418 336.994 78.6047 311.855 53.1758 311.653C31.0063 311.474 13.6051 330.328 6.13747 345.69C-4.90063 368.387 0.241143 394.793 11.4659 411.897C27.6069 436.484 55.4939 440.552 53.7359 450.905C52.1023 460.542 27.8558 457.415 20.5127 473.088C15.3864 484.032 20.326 500.241 29.7305 508.937C42.7678 520.993 58.5432 513.215 64.8751 523.023C71.5104 533.306 57.2519 546.638 55.8284 565.103C54.6615 580.34 62.0592 601.263 96.4181 628.105L96.4103 628.113Z" fill="#88E7D7"/>
<path d="M100.214 623.765C100.097 623.765 99.973 623.75 99.8563 623.711C99.2107 623.516 98.8529 622.832 99.0473 622.186C120.027 553.801 106.048 488.792 90.6307 446.3C73.9141 400.23 51.9779 369.997 51.7523 369.693C51.3556 369.149 51.4723 368.387 52.0168 367.99C52.5613 367.593 53.3236 367.71 53.7203 368.254C53.9381 368.558 76.0843 399.071 92.9254 445.468C102.812 472.722 108.973 500.054 111.229 526.71C114.053 560.047 110.739 592.412 101.389 622.902C101.225 623.431 100.743 623.765 100.222 623.765H100.214Z" fill="#0880AE"/>
<path d="M100.634 623.338C173.327 555.987 184.318 517.532 178.772 494.19C177.115 487.221 172.098 473.422 173.817 454.032C176.057 428.893 187.477 418.797 194.656 400.238C208.705 363.946 197.55 318.537 175.871 289.579C160.725 269.356 127.502 239.861 95.5469 248.332C82.0351 251.917 65.1085 263.25 64.6262 276.52C63.9416 295.506 99.514 300.367 105.185 328.757C108.281 344.251 98.6428 347.238 102.073 363.658C107.472 389.536 133.904 394.163 132.558 410.28C131.259 425.89 105.877 425.517 101.35 444.317C96.1847 465.753 124.344 481.193 117.257 500.934C113.041 512.694 102.19 509.637 95.8502 522.673C88.1415 538.533 99.9963 551.709 103.271 581.678C105.115 598.487 102.773 612.627 100.626 623.338H100.634Z" fill="#88E6D7"/>
<path d="M105.27 616.446C105.076 616.446 104.889 616.399 104.702 616.306C104.104 615.995 103.878 615.256 104.189 614.657C140.112 545.953 161.379 465.699 161.083 399.974C160.881 354.689 150.317 322.115 141.488 302.755C131.928 281.785 122.29 271.386 122.197 271.285C121.738 270.795 121.761 270.025 122.251 269.558C122.742 269.099 123.512 269.122 123.978 269.612C124.383 270.04 133.935 280.331 143.659 301.619C152.604 321.212 163.323 354.176 163.526 399.966C163.658 429.756 159.138 464.096 150.45 499.269C140.438 539.777 125.604 578.987 106.359 615.793C106.142 616.213 105.714 616.446 105.278 616.446H105.27Z" fill="#0880AE"/>
<path d="M155.98 331.285H207.305C250.461 331.285 285.497 366.318 285.497 409.471V629H85.3722V401.887C85.3722 362.919 117.009 331.285 155.98 331.285Z" fill="black"/>
<path d="M174.727 331.285H227.607C270.336 331.285 305.022 365.968 305.022 408.693V626.993C305.022 628.106 304.12 629.008 303.007 629.008H104.897V401.117C104.897 362.576 136.183 331.293 174.727 331.293V331.285Z" fill="#C2D8F0"/>
<path d="M281.39 579.749H134.674V596.456H281.39V579.749Z" fill="#707070"/>
<path d="M281.39 553.179H134.674V569.886H281.39V553.179Z" fill="#707070"/>
<path d="M265.124 494.065H151.227V510.773H265.124V494.065Z" fill="#707070"/>
<path d="M173.319 426.824H165.424V444.426H155.514V396.341H173.381C179.06 396.341 183.439 397.609 186.528 400.137C189.608 402.673 191.148 406.243 191.148 410.871C191.148 414.153 190.44 416.883 189.017 419.077C187.593 421.27 185.446 423.012 182.56 424.311L192.961 443.959V444.418H182.327L173.311 426.816L173.319 426.824ZM165.424 418.797H173.413C175.902 418.797 177.823 418.167 179.192 416.899C180.553 415.631 181.238 413.889 181.238 411.664C181.238 409.44 180.592 407.612 179.309 406.313C178.018 405.014 176.042 404.368 173.381 404.368H165.424V418.797Z" fill="#707070"/>
<path d="M211.661 444.426H201.751V396.341H211.661V444.426Z" fill="#707070"/>
<path d="M234.002 427.485V444.426H224.091V396.341H242.846C246.455 396.341 249.637 397.002 252.375 398.325C255.113 399.647 257.221 401.522 258.699 403.956C260.177 406.391 260.908 409.16 260.908 412.263C260.908 416.977 259.298 420.687 256.07 423.409C252.842 426.131 248.377 427.485 242.675 427.485H233.986H234.002ZM234.002 419.458H242.854C245.475 419.458 247.474 418.843 248.851 417.607C250.228 416.37 250.913 414.612 250.913 412.325C250.913 410.039 250.22 408.063 248.836 406.608C247.451 405.154 245.53 404.407 243.087 404.361H234.009V419.45L234.002 419.458Z" fill="#707070"/>
<g clip-path="url(#clip1_205_8122)">
<path d="M439.262 353.83C464.884 332.415 468.275 294.299 446.837 268.696C425.398 243.093 387.248 239.699 361.627 261.115C336.005 282.53 332.614 320.646 354.052 346.249C375.491 371.852 413.64 375.246 439.262 353.83Z" fill="#D79A00"/>
<path d="M451.932 338.687C470.007 311.806 462.846 275.371 435.938 257.308C409.03 239.245 372.564 246.394 354.49 273.276C336.415 300.157 343.576 336.592 370.484 354.655C397.392 372.718 433.858 365.569 451.932 338.687Z" fill="#FFB700"/>
<path d="M397.951 365.569C397.496 365.528 397.04 365.488 396.586 365.431C363.768 361.776 340.047 332.127 343.708 299.339C347.361 266.559 377.008 242.86 409.842 246.517C425.737 248.287 439.992 256.136 449.979 268.618C459.967 281.101 464.49 296.72 462.721 312.601C460.952 328.483 453.099 342.724 440.607 352.7C428.472 362.392 413.369 366.932 397.944 365.56L397.951 365.569ZM408.291 248.736C377.293 245.978 349.519 268.546 346.059 299.604C342.545 331.092 365.333 359.574 396.851 363.082C412.127 364.789 427.133 360.446 439.132 350.861C451.13 341.275 458.671 327.6 460.377 312.345C462.074 297.09 457.734 282.089 448.138 270.1C438.542 258.11 424.853 250.573 409.585 248.867C409.154 248.821 408.723 248.774 408.291 248.736Z" fill="#FFB700"/>
<path d="M452.204 311.029C454.996 283.994 435.323 259.813 408.264 257.02C381.205 254.227 357.006 273.878 354.215 300.913C351.423 327.948 371.096 352.129 398.155 354.922C425.214 357.715 449.413 338.063 452.204 311.029Z" fill="white"/>
<path d="M394.875 340.003L395.773 331.96C390.129 331.071 384.786 328.934 381.777 326.713L385.419 317.096C388.757 319.441 393.56 321.775 399.07 322.392C403.898 322.932 407.411 321.433 407.791 318.051C408.149 314.832 405.665 312.499 399.63 309.685C390.904 305.626 385.192 300.705 386.112 292.498C386.941 285.051 392.846 279.795 402.105 279.029L403.002 270.987L411.302 271.915L410.474 279.363C416.118 280.252 419.798 281.861 422.444 283.528L418.918 292.815C416.822 291.64 413.14 289.256 407.041 288.579C401.531 287.963 399.494 290.138 399.227 292.511C398.915 295.306 401.68 297.411 408.579 300.919C418.263 305.601 421.814 310.709 420.963 318.321C420.126 325.855 414.066 331.69 404.141 332.302L403.175 340.931L394.875 340.003Z" fill="#F2AC57"/>
</g>
<g clip-path="url(#clip2_205_8122)">
<path d="M315.394 257.893C344.704 256.112 367.024 230.858 365.247 201.486C363.47 172.114 338.268 149.747 308.958 151.528C279.647 153.309 257.327 178.564 259.104 207.935C260.882 237.307 286.083 259.674 315.394 257.893Z" fill="#FECE85"/>
<path d="M365.827 203.336C366.086 174.784 343.198 151.428 314.705 151.169C286.213 150.91 262.906 173.846 262.647 202.398C262.389 230.95 285.276 254.306 313.769 254.565C342.261 254.824 365.568 231.888 365.827 203.336Z" fill="#FFE177"/>
<path d="M314.134 255.743C302.421 255.743 291.111 251.858 281.736 244.511C270.636 235.808 263.583 223.3 261.874 209.281C260.165 195.263 264.01 181.423 272.686 170.3C281.371 159.169 293.853 152.102 307.842 150.397C336.722 146.863 363.077 167.529 366.604 196.461C368.313 210.48 364.468 224.319 355.791 235.442C347.107 246.566 334.625 253.633 320.636 255.346C318.461 255.61 316.293 255.743 314.134 255.743ZM314.274 152.335C312.239 152.335 310.188 152.46 308.122 152.709C294.754 154.343 282.823 161.1 274.52 171.732C266.224 182.365 262.55 195.597 264.181 208.993C267.552 236.649 292.734 256.404 320.348 253.026C333.716 251.391 345.647 244.635 353.951 234.003C362.246 223.37 365.92 210.137 364.289 196.742C361.174 171.156 339.371 152.335 314.274 152.335Z" fill="#FECE85"/>
<path d="M344.849 233.55C361.758 216.606 361.758 189.135 344.849 172.192C327.941 155.248 300.527 155.248 283.619 172.192C266.711 189.135 266.711 216.606 283.619 233.55C300.527 250.494 327.941 250.494 344.849 233.55Z" fill="white"/>
<path d="M314.002 233.754L313.14 226.67C308.13 227.06 303.135 226.305 300.106 225.012L301.271 216.022C304.603 217.353 309.178 218.381 314.018 217.789C318.259 217.268 320.954 215.275 320.597 212.294C320.255 209.46 317.653 207.966 311.92 206.775C303.632 205.063 297.752 202.004 296.875 194.772C296.075 188.211 300.059 182.505 307.827 179.968L306.965 172.884L314.251 171.989L315.051 178.551C320.061 178.162 323.533 178.8 326.135 179.687L325.001 188.374C322.966 187.79 319.338 186.498 313.986 187.152C309.155 187.744 307.842 190.024 308.099 192.11C308.402 194.57 311.19 195.815 317.8 197.427C327.028 199.474 331.098 203.132 331.922 209.842C332.73 216.474 328.737 222.708 320.364 225.246L321.288 232.851L314.002 233.746V233.754Z" fill="#FECE85"/>
</g>
</g>
<defs>
<linearGradient id="paint0_linear_205_8122" x1="325.694" y1="49.3599" x2="325.694" y2="105.533" gradientUnits="userSpaceOnUse">
<stop stop-color="#C21B17"/>
<stop offset="1" stop-color="#C21B17"/>
</linearGradient>
<linearGradient id="paint1_linear_205_8122" x1="337.5" y1="91" x2="337.5" y2="4" gradientUnits="userSpaceOnUse">
<stop stop-color="#AA1B17"/>
<stop offset="1" stop-color="#C21B17"/>
</linearGradient>
<clipPath id="clip0_205_8122">
<rect width="530" height="629" fill="white"/>
</clipPath>
<clipPath id="clip1_205_8122">
<rect width="123" height="122" fill="white" transform="translate(345.648 240.79) rotate(5.08436)"/>
</clipPath>
<clipPath id="clip2_205_8122">
<rect width="108" height="108" fill="white" transform="translate(259 150)"/>
</clipPath>
</defs>
</svg>
