<svg width="315" height="803" viewBox="0 0 315 803" fill="none" xmlns="http://www.w3.org/2000/svg">
<g clip-path="url(#clip0_2646_3073)">
<path d="M173.339 72.4181L167.857 38.5398L140.518 28.7475L112.551 22.1233L96.4646 26.7954L85.6057 46.0706L84.4453 64.2152V89.5919L90.0025 95.16L89.5554 101.336L98.4235 114.137L126.082 124.377C126.082 124.377 136.068 125.732 136.483 124.974C136.898 124.217 152.824 114.734 152.824 114.734L165.61 106.904L170.965 98.1681L173.339 89.5812L175.969 86.8718L178.045 79.3409L173.329 72.4181H173.339Z" fill="black"/>
<path d="M164.269 165.05C164.269 165.05 152.824 161.775 152.824 155.887V125.646C150.674 127.054 148.491 128.302 146.362 129.433C142.21 131.62 138.378 132.793 135.088 133.401C135.088 133.401 132.97 133.988 129.456 133.956C125.954 133.988 123.835 133.412 123.835 133.412C120.535 132.804 116.703 131.63 112.551 129.444C110.698 128.473 108.814 127.385 106.93 126.201V155.898C106.93 161.786 95.4958 165.061 95.4958 165.061C94.4419 165.253 93.6541 165.733 93.0685 166.415C90.8329 168.997 91.5568 174.618 93.0685 180.122C94.8464 186.619 97.6995 192.912 97.9976 193.734C99.0303 196.55 115.361 227.782 131.245 225.553C147.118 223.324 161.671 189.115 164.184 180.197C165.035 177.189 165.451 174.853 165.61 173.061C166.685 169.904 166.462 167.13 164.269 165.071V165.05Z" fill="url(#paint0_linear_2646_3073)"/>
<g style="mix-blend-mode:multiply" opacity="0.25">
<path d="M135.077 131.044C135.077 131.044 132.959 131.684 129.446 131.652C125.933 131.684 123.814 131.054 123.814 131.054C120.514 130.382 116.681 129.081 112.529 126.66C110.677 125.572 108.793 124.377 106.908 123.065V143.897C122.505 146.372 138.271 140.719 152.803 131.396V122.457C150.653 124.004 148.47 125.401 146.33 126.66C142.178 129.081 138.346 130.382 135.056 131.044H135.077Z" fill="#ECB699"/>
</g>
<mask id="mask0_2646_3073" style="mask-type:luminance" maskUnits="userSpaceOnUse" x="170" y="61" width="16" height="31">
<path d="M175.16 61.3137C172.711 61.9964 171.508 63.6392 170.954 64.3858C170.997 64.5885 171.018 64.8019 171.05 65.0152C172.583 74.5408 173.179 83.8211 173.307 91.2666C175.873 92.2586 179.705 91.4906 182.931 83.8104C186.955 74.1995 185.348 62.0391 179.226 61.1431C178.619 61.0577 178.055 61.0151 177.534 61.0151C176.639 61.0151 175.852 61.1324 175.17 61.3244" fill="white"/>
</mask>
<g mask="url(#mask0_2646_3073)">
<path d="M186.955 61.0049H170.954V92.2592H186.955V61.0049Z" fill="url(#paint1_linear_2646_3073)"/>
</g>
<mask id="mask1_2646_3073" style="mask-type:luminance" maskUnits="userSpaceOnUse" x="73" y="60" width="15" height="32">
<path d="M79.729 61.1004C73.6076 61.9964 72.0001 74.1568 76.0242 83.7677C79.2393 91.4266 83.0612 92.216 85.6269 91.2239C85.7547 84.0451 86.3083 75.1595 87.7242 65.9965C87.8093 65.4419 87.8945 64.8872 87.9797 64.3325C87.309 63.4151 85.6908 61.2391 82.1137 60.9937C81.8795 60.9831 81.6453 60.9617 81.3898 60.9617C80.8682 60.9617 80.3146 61.0044 79.7184 61.0897" fill="white"/>
</mask>
<g mask="url(#mask1_2646_3073)">
<path d="M87.9903 60.9724H72V92.216H87.9903V60.9724Z" fill="url(#paint2_linear_2646_3073)"/>
</g>
<mask id="mask2_2646_3073" style="mask-type:luminance" maskUnits="userSpaceOnUse" x="88" y="13" width="83" height="97">
<path d="M122.781 13.8884C121.834 14.0484 120.886 14.2404 119.928 14.4964C103.97 18.6672 95.2723 34.497 90.6306 51.9375C89.928 53.8149 89.1934 57.943 89.1934 57.943C88.7463 60.0337 88.363 62.1351 88.0117 64.2045C89.385 77.3676 91.6101 97.1655 92.845 100.526C93.1644 101.411 93.9415 102.339 94.9955 103.278C98.4235 105.56 103.193 108.483 106.259 109.315C111.497 110.723 112.572 106.755 113.509 103.214C114.446 99.6616 116.862 95.7041 122.909 95.1281C123.41 95.0854 123.889 95.0534 124.357 95.0214C124.464 95.0107 124.549 95.0001 124.645 94.9894C128.019 94.7334 136.078 94.4134 139.666 96.1521C143.137 97.6348 144.744 100.622 145.479 103.352C146.416 106.904 147.491 110.873 152.718 109.454C155.795 108.611 160.564 105.688 163.992 103.416C165.057 102.478 165.823 101.55 166.143 100.664C167.377 97.3148 169.592 77.6449 170.965 64.4925V64.4605C170.965 64.4605 170.965 64.4072 170.955 64.3752C170.603 62.2311 170.209 60.0764 169.741 57.9217C169.741 57.9217 169.017 53.8042 168.314 51.9162C164.301 36.8864 157.285 23.0834 145.213 16.8752C145.117 16.8218 145.032 16.7685 144.936 16.7152C144.755 16.6298 144.574 16.5338 144.382 16.4485C140.39 14.4751 136.547 13.7818 134.343 13.5471C132.725 13.3337 131.149 13.2484 129.669 13.2484C127.008 13.2484 124.634 13.5364 122.771 13.8671" fill="white"/>
</mask>
<g mask="url(#mask2_2646_3073)">
<path d="M170.976 13.2698H88.0117V110.883H170.976V13.2698Z" fill="url(#paint3_linear_2646_3073)"/>
</g>
<path d="M87.7242 65.9966C86.3083 75.1595 85.7547 84.0451 85.627 91.224C85.6057 91.7573 85.6057 92.28 85.6057 92.792C85.4247 111.385 99.8713 122.724 112.561 129.433C116.713 131.63 120.546 132.804 123.835 133.391C123.835 133.391 125.954 133.977 129.467 133.935C132.97 133.967 135.088 133.401 135.088 133.401C138.388 132.793 142.221 131.62 146.373 129.433C159.052 122.734 173.51 111.395 173.329 92.792C173.329 92.2907 173.318 91.7787 173.307 91.256C173.179 83.8104 172.583 74.5408 171.05 65.0046C171.018 64.8232 170.997 64.6525 170.965 64.4712C169.592 77.6236 167.377 97.3148 166.142 100.664C165.812 101.55 165.046 102.478 163.981 103.416C160.553 105.699 155.784 108.622 152.707 109.454C147.48 110.873 146.394 106.904 145.468 103.363C144.744 100.622 143.126 97.6455 139.655 96.1628C136.057 94.4241 128.009 94.7441 124.623 95.0001C124.527 95.0001 124.442 95.0107 124.336 95.0214C123.867 95.0534 123.388 95.0854 122.888 95.1281C116.852 95.7041 114.435 99.6722 113.487 103.214C112.551 106.755 111.475 110.734 106.238 109.315C103.172 108.483 98.4022 105.56 94.9741 103.278C93.9095 102.339 93.143 101.411 92.8237 100.526C91.5887 97.1655 89.3637 77.3676 87.9904 64.2045C87.9904 64.2472 87.9797 64.2899 87.9691 64.3325C87.8839 64.8872 87.7988 65.4419 87.7136 65.9966" fill="black"/>
<path d="M187.701 0.821369C186.37 1.25872 183.101 2.14407 175.788 3.90412C158.211 8.14958 143.041 -0.917347 116.734 0.0746814C95.5489 0.874704 90.556 13.1524 89.4062 17.9205C80.9001 24.4594 79.6119 36.9291 80.1761 46.988C80.5275 53.2709 81.6133 58.615 82.1137 60.9938C85.6908 61.2498 87.3089 63.4152 87.969 64.3325C88.331 62.1991 88.7249 60.0657 89.172 57.943C89.172 57.943 89.8959 53.8256 90.6092 51.9482C91.2799 49.4201 92.0464 46.9454 92.8981 44.5133C108.324 37.3984 109.091 28.5875 109.091 28.5875C133.001 44.556 155.305 46.2627 166.504 45.9747C167.154 47.9374 167.761 49.9321 168.304 51.9588C169.006 53.8362 169.73 57.9537 169.73 57.9537C170.188 60.1084 170.582 62.2631 170.944 64.4072C171.497 63.6498 172.7 62.0071 175.149 61.3244C175.66 58.9564 176.969 52.7268 177.236 45.516C177.236 45.2706 177.257 45.0146 177.267 44.7693C196.271 31.6383 188.648 4.00013 187.701 0.821369Z" fill="black"/>
<path d="M116.468 105.08C116.468 105.08 120.099 111.129 128.168 111.129C128.168 111.129 137.175 111.587 141.412 105.443L141.571 105.187C127.54 110.798 116.479 105.08 116.479 105.08" fill="white"/>
<path d="M134.545 90.968C134.13 90.968 133.757 90.6906 133.64 90.2746C133.502 89.7733 133.8 89.2612 134.3 89.1332C135.45 88.8239 138.133 87.5759 138.612 85.8691C138.942 84.6958 137.281 80.845 135.823 77.4529C134.918 75.3408 133.981 73.1648 133.236 71.0847C130.99 64.7805 134.162 59.2337 134.3 58.999C134.567 58.551 135.131 58.4017 135.578 58.6684C136.025 58.9244 136.174 59.5004 135.919 59.9484C135.887 60.0017 133.055 64.9939 135.003 70.466C135.727 72.4928 136.643 74.6368 137.537 76.7169C139.634 81.581 140.89 84.6531 140.401 86.3812C139.645 89.0799 136.089 90.584 134.779 90.936C134.694 90.9573 134.62 90.968 134.535 90.968" fill="#79463D"/>
<path d="M153.846 70.018C153.846 71.9274 152.303 73.4848 150.386 73.4848C148.47 73.4848 146.937 71.9274 146.937 70.018C146.937 68.1086 148.491 66.5619 150.386 66.5619C152.281 66.5619 153.846 68.1193 153.846 70.018Z" fill="#231F20"/>
<path d="M113.541 70.2314C113.541 72.1408 112.008 73.6981 110.081 73.6981C108.154 73.6981 106.631 72.1408 106.631 70.2314C106.631 68.322 108.186 66.7753 110.081 66.7753C111.976 66.7753 113.541 68.3326 113.541 70.2314Z" fill="#231F20"/>
</g>
<path d="M56.8712 393.84C73.1656 396.06 214.929 413.333 216.66 413.333C216.66 413.333 222.747 436.129 217.245 437.116C211.753 438.094 82.8318 430.063 59.1231 414.554C58.1034 408.159 57.3705 401.149 56.8606 393.84H56.8712Z" fill="#606060"/>
<path d="M218.137 436.001C218.137 436.001 79.815 426.908 59.1336 414.554C51.8787 369.1 56.6905 209.487 56.6905 208.924C56.6905 201.212 198.443 183.504 203.181 197.472C207.918 211.441 218.137 436.001 218.137 436.001Z" fill="#272727"/>
<path d="M183.317 715.416C183.434 716.499 184.273 732.252 182.712 735.62C181.15 738.987 185.24 746.678 186.684 746.678C188.129 746.678 215.8 747.166 215.8 747.166L217.489 738.626C217.489 738.626 216.395 731.413 216.756 723.712L217.117 716.021" fill="#6F8B91"/>
<path d="M47.7786 719.134C47.683 719.59 49.0639 736.82 45.856 740.676C42.6481 744.522 49.9774 757.715 51.4432 757.906C52.9091 758.086 67.7695 757.364 67.7695 757.364C67.7695 757.364 76.3841 753.051 76.3841 751.947V739.2L79.3158 722.065" fill="#6F8B91"/>
<path fill-rule="evenodd" clip-rule="evenodd" d="M182.68 709.52L184.528 691.536C189.064 691.781 195.246 691.611 201.417 691.43C207.578 691.271 213.728 691.09 218.254 691.335L218.583 714.099L182.691 709.52H182.68Z" fill="#C3705B"/>
<mask id="mask3_2646_3073" style="mask-type:luminance" maskUnits="userSpaceOnUse" x="144" y="459" width="72" height="259">
<path d="M205.73 588.53C199.484 616.658 202.607 644.776 196.361 676.028C196.361 682.274 174.49 682.274 180.736 694.776C183.859 707.268 199.484 710.391 215.109 713.514C203.776 713.514 190.806 715.172 178.559 717.264C177.698 717.03 176.838 716.754 176.381 715.883C175.308 713.822 176.2 712.112 175.691 710.041C173.672 701.947 170.337 694.213 168.892 685.864C167.14 675.741 172.111 668.91 172.791 658.84C173.449 649.014 168.956 640.325 169.838 630.744C170.974 618.22 173.587 602.52 177.379 590.325C180.619 579.915 180.46 575.985 174.012 566.934C166.577 556.482 166.842 536.033 159.046 525.878C156.39 522.426 151.844 518.697 146.915 514.757C143.049 496.592 144.993 477.27 144.993 459.902C188.745 484.897 221.355 538.519 205.741 588.53" fill="white"/>
</mask>
<g mask="url(#mask3_2646_3073)">
<path d="M232.487 459.912H136.835L170.73 721.099L221.355 717.275L232.487 459.912Z" fill="url(#paint4_linear_2646_3073)"/>
</g>
<mask id="mask4_2646_3073" style="mask-type:luminance" maskUnits="userSpaceOnUse" x="43" y="395" width="206" height="344">
<path d="M185.877 409.795C181.235 404.856 174.087 401.637 170.581 395.604C170.284 396.804 170.316 397.973 170.39 399.215L143.314 412.748L91.7967 406.226C88.9287 444.839 67.2382 482.602 70.0106 513.036C73.1335 578.662 54.3854 644.277 54.3854 709.903C54.3854 719.282 66.8877 719.282 73.1335 725.529C62.7876 725.529 53.3976 727.441 43.9014 728.598C44.1882 730.287 44.475 731.976 44.8361 733.633C57.4446 734.43 69.5114 737.33 82.258 736.533C81.61 726.304 88.9181 728.726 94.0273 723.192C98.4674 718.38 101.654 706.44 103.683 699.939C111.809 673.85 120.476 648.717 126.159 621.63C129.303 606.567 136.675 592.853 140.17 577.907C144.992 557.247 146.044 535.407 146.193 514.162C146.448 514.363 146.681 514.565 146.936 514.767C143.07 496.603 145.014 477.28 145.014 459.912C188.766 484.907 221.376 538.53 205.762 588.541C199.516 616.669 202.639 644.787 196.393 676.038C196.393 682.284 174.522 682.284 180.768 694.787C183.891 707.279 199.516 710.402 215.141 713.525C203.807 713.525 190.838 715.182 178.59 717.275C179.504 717.53 180.396 717.7 180.789 718.465C182.86 722.395 181.161 726.028 182.542 730.394C182.521 730.33 182.287 731.031 182.064 731.732C181.862 732.401 181.649 733.081 181.649 733.081C189.51 735.344 199.442 737.532 207.631 738.106C219.22 738.913 219.156 735.747 220.25 725.55C220.824 720.185 219.889 718.741 224.074 714.842C227.898 711.294 231.074 712.144 233.772 707.173C238.032 699.323 238.584 687.734 240.539 679.076C243.375 666.467 243.693 658.978 246.211 646.072C248.718 633.208 247.167 620.451 247.91 607.385C249.005 588.169 247.061 570.535 244.756 551.319C243.099 537.521 247.294 504.176 238.605 493.99C228.61 482.273 233.124 461.07 223.607 448.993C216.012 439.369 216.32 423.53 209.703 413.333C206.134 407.83 190.423 414.597 185.909 409.785" fill="white"/>
</mask>
<g mask="url(#mask4_2646_3073)">
<path d="M258.15 403.231L38.7178 400.31V742.036L247.018 757.959L258.15 403.231Z" fill="url(#paint5_linear_2646_3073)"/>
</g>
<mask id="mask5_2646_3073" style="mask-type:luminance" maskUnits="userSpaceOnUse" x="41" y="403" width="51" height="326">
<path d="M91.7861 406.226C88.9181 444.839 67.2277 482.602 70.0001 513.036C73.123 578.662 54.3749 644.277 54.3749 709.903C54.3749 719.283 66.8771 719.283 73.123 725.529C62.777 725.529 53.387 727.441 43.8908 728.598C40.8104 710.827 41.214 691.175 43.4872 672.862C44.5175 664.672 48.1397 657.406 49.5524 649.663C51.082 641.313 48.5433 630.553 48.5433 621.863C48.5433 608.723 50.2004 596.741 52.6435 583.92C54.258 575.401 57.6146 570.28 56.0319 561.666C53.6844 548.897 50.4341 536.31 50.4765 522.989C50.5084 509.105 54.6404 498.09 58.1564 485.279C61.8316 471.863 61.6192 456.067 63.2869 441.982C64.6996 430.053 68.513 415.054 66.909 403.082L91.7861 406.237V406.226Z" fill="white"/>
</mask>
<g mask="url(#mask5_2646_3073)">
<path d="M91.786 403.082H40.8103V728.609H91.786V403.082Z" fill="url(#paint6_linear_2646_3073)"/>
</g>
<path d="M172.992 762.474C173.152 757.12 174.256 750.789 177.273 743.852L179.653 736.236C179.653 736.236 182.52 736.002 183.466 738.626C183.753 739.412 184.443 740.273 185.41 741.112C187.524 742.599 191.316 744.83 195.979 745.18C201.099 745.563 207.355 743.682 209.756 742.758C209.543 740.942 209.108 737.33 208.938 735.758C208.693 733.623 221.079 729.565 224.892 730.765C228.578 731.913 230.692 745.52 231.478 748.569C231.478 748.59 231.489 748.632 231.499 748.664C231.51 748.728 231.531 748.813 231.552 748.866C231.637 749.27 231.701 749.642 231.754 749.96C231.998 750.035 232.243 750.109 232.498 750.162C233.135 750.332 233.772 750.534 234.431 750.693C234.962 750.821 235.504 750.906 236.046 751.012C236.704 751.139 237.352 751.277 238.011 751.394C238.552 751.479 239.083 751.543 239.615 751.628C240.273 751.724 240.942 751.83 241.601 751.915C242.143 751.979 242.663 752.032 243.194 752.085C243.842 752.138 244.49 752.223 245.117 752.276C246.264 752.372 247.39 752.478 248.473 752.563C258.203 753.338 269.335 755.144 274.37 764.726C275.05 766.022 275.645 767.339 276.134 768.677C276.218 768.9 276.272 769.134 276.346 769.346C276.739 770.462 277.111 771.588 277.408 772.714C277.546 773.234 277.621 773.776 277.737 774.318C277.918 775.157 278.12 775.996 278.247 776.846C278.375 777.621 278.439 778.397 278.534 779.172C278.566 779.47 278.609 779.756 278.64 780.043L281.317 780.999L280.839 788.86C280.839 788.86 274.168 793.385 263.451 794.107C252.733 794.809 236.067 794.341 221.78 790.283C218.445 789.338 215.099 788.562 211.923 787.893C210.308 787.638 208.747 787.426 208.014 787.362C206.261 787.224 205.56 787.362 205.284 788.977C205.008 790.581 204.519 791.356 204.519 791.356C204.519 791.356 195.618 791.994 187.98 791.356C180.343 790.719 176.211 789.253 176.211 789.253C176.211 789.253 172.483 775.029 172.982 762.474" fill="#565B57"/>
<path d="M37.1882 764.694C37.2626 756.897 39.5995 751.065 39.4826 746.476C39.3764 741.898 40.4174 739.295 42.2975 737.967C44.1882 736.64 47.2368 737.298 47.2368 737.298C47.0668 737.574 46.472 744.904 50.3916 749.854C51.2095 750.587 52.0911 750.959 53.0471 751.065C54.343 750.916 55.4052 749.843 56.2444 748.462C54.5873 739.816 56.7967 735.662 58.3369 733.453C60.0259 731.02 64.6784 730.266 72.1989 730.266C79.7193 730.266 86.6981 730.723 89.6511 734.876C92.0835 738.297 90.947 746.646 90.4796 749.737C90.5752 750.109 90.6602 750.481 90.7983 750.842C91.7011 753.051 93.1139 754.4 94.9834 755.898C99.4128 759.457 104.586 761.518 109.27 764.683C109.961 765.14 110.587 765.639 111.193 766.149C113.508 767.944 115.686 770.164 117.003 772.809C120.955 780.776 117.003 791.611 117.003 791.611L117.789 793.789L117.152 797.57C117.152 797.57 104.798 802.276 86.1776 802.011C67.557 801.734 57.8908 800.056 50.0729 795.584C50.0729 795.584 43.8696 793.438 42.5737 785.493C42.085 782.508 42.4356 779.746 43.0517 777.473C39.9181 776.846 38.5691 775.327 38.5691 775.327C38.5691 775.327 37.1245 772.522 37.1989 764.726" fill="#565B57"/>
<path d="M285.885 449.152C285.885 449.152 277.462 461.336 275.284 462.855C270.037 460.433 271.503 457.289 271.503 457.289L281.084 445.891C281.084 445.891 284.398 446.411 285.885 449.141V449.152Z" fill="#FECCB2"/>
<path d="M274.87 463.025C273.415 462.186 268.773 456.683 266.999 453.741C267.732 449.173 271.556 451.627 271.556 451.627L277.717 454.729C277.717 454.729 279.703 457.023 279.246 459.031C278.704 461.378 275.656 463.482 274.87 463.025Z" fill="url(#paint7_linear_2646_3073)"/>
<path d="M284.313 465.171C282.624 465.277 275.709 463.29 272.618 461.835C270.717 457.639 275.263 457.544 275.263 457.544L282.125 456.694C282.125 456.694 285.056 457.49 285.779 459.424C286.629 461.676 285.226 465.117 284.313 465.171Z" fill="url(#paint8_linear_2646_3073)"/>
<path d="M296.21 465.489C294.797 466.668 287.436 469.324 283.782 470.025C279.448 467.539 283.41 464.565 283.41 464.565L287.956 460.327C287.956 460.327 290.92 459.413 292.768 460.645C294.935 462.09 296.964 464.862 296.199 465.489H296.21Z" fill="#FECCB2"/>
<path d="M300.161 443.32C300.161 443.32 305.196 461.994 304.877 465.447C297.176 468.57 296.146 464.565 296.146 464.565L292.864 445.391C292.864 445.391 296.178 442.513 300.151 443.32H300.161Z" fill="url(#paint9_linear_2646_3073)"/>
<path d="M292.109 415.022C292.109 415.022 278.874 413.035 273.935 419.249C268.996 425.464 277.77 450.947 277.77 450.947C277.77 450.947 279.894 451.043 282.974 450.979L278.959 461.421C278.959 461.421 278.29 464.661 285.141 465.691C285.8 464.788 286.851 462.175 287.946 459.169L288.052 463.683C288.052 463.683 289.369 467.178 296.295 465.553C296.815 463.503 296.273 455.568 295.764 449.672C297.367 449.332 298.908 448.907 300.278 448.376C301.255 432.591 292.109 415.022 292.109 415.022Z" fill="url(#paint10_linear_2646_3073)"/>
<path d="M304.888 465.457C304.888 465.457 297.357 472.394 294.096 474.189C289.231 473.159 292.099 469.101 292.099 469.101L295.806 462.504C295.806 462.504 300.151 460.061 304.888 465.457Z" fill="url(#paint11_radial_2646_3073)"/>
<path d="M314.055 533.091C313.864 532.23 286.947 492.29 286.947 492.29L272.076 492.311L273 497.346L285.428 494.584L310.21 534.164L314.044 533.08L314.055 533.091Z" fill="black"/>
<path d="M306.205 470.567L276.877 446.475L264.28 447.856L267.562 451.659L276.909 448.716L301.574 474.274L306.205 470.567Z" fill="black"/>
<path opacity="0.5" d="M304.463 487.86L305.918 502.753C306.173 505.356 304.091 507.597 301.478 507.533L288.668 507.257C286.384 507.204 284.536 505.409 284.409 503.135L283.92 494.138C283.824 492.375 284.812 490.718 286.406 489.963L298.249 484.355C300.979 483.059 304.166 484.865 304.453 487.871L304.463 487.86Z" fill="#383838"/>
<path opacity="0.5" d="M308.096 518.156L309.71 525.485C310.093 527.238 308.935 528.948 307.172 529.246L293.087 531.593C291.568 531.848 290.081 530.945 289.603 529.479L287.68 523.594C287.117 521.884 288.116 520.057 289.858 519.6L304.251 515.808C305.971 515.351 307.724 516.424 308.107 518.156H308.096Z" fill="#383838"/>
<path d="M305.345 509.774L305.748 513.397L288.955 516.828C285.386 517.561 283.378 521.364 284.78 524.72L286.756 529.426C287.744 531.774 290.155 533.208 292.694 532.931L311.293 530.945L310.21 534.174L314.044 533.091L314.99 530.35L312.854 514.724L309.678 513.067L309.455 509.084L312.09 507.331L307.384 474.709L306.173 470.418L301.383 473.913L302.381 477.461L284.132 488.168C282.422 489.167 281.349 490.983 281.285 492.959L280.924 503.783C280.818 507.044 283.431 509.743 286.692 509.753H305.334L305.345 509.774ZM308.096 518.177L309.71 525.506C310.093 527.259 308.935 528.969 307.172 529.267L293.087 531.614C291.568 531.869 290.081 530.966 289.603 529.5L287.68 523.616C287.117 521.905 288.115 520.078 289.858 519.621L304.251 515.829C305.971 515.372 307.724 516.445 308.106 518.177H308.096ZM301.478 507.554L288.668 507.278C286.384 507.225 284.536 505.43 284.408 503.157L283.92 494.159C283.824 492.396 284.812 490.739 286.405 489.985L298.249 484.376C300.979 483.08 304.166 484.886 304.452 487.892L305.908 502.785C306.163 505.387 304.081 507.629 301.468 507.565L301.478 507.554Z" fill="black"/>
<path opacity="0.2" d="M288.721 520.163C295.126 523.308 304.293 526.654 308.946 528.279C308.489 528.768 307.883 529.129 307.172 529.246L293.087 531.593C291.568 531.848 290.081 530.945 289.603 529.479L287.68 523.594C287.255 522.298 287.722 520.949 288.721 520.163Z" fill="white"/>
<path opacity="0.2" d="M284.398 503.125L284.323 501.776C290.166 504.389 298.366 505.674 304.569 506.312C303.762 507.076 302.679 507.565 301.468 507.533L288.657 507.257C286.374 507.204 284.525 505.409 284.398 503.135V503.125Z" fill="white"/>
<path d="M297.899 471.31C297.899 471.31 294.33 462.695 291.557 462.61C287.829 462.557 286.703 462.738 286.703 462.738C286.703 462.738 289.762 471.395 290.877 472.734C294.213 476.728 297.888 471.321 297.888 471.321L297.899 471.31Z" fill="url(#paint12_linear_2646_3073)"/>
<path d="M294.106 419.175C294.106 419.175 301.765 433.632 303.433 445.498C305.1 457.363 306.513 466.923 306.513 466.923C306.513 466.923 299.301 468.517 297.654 466.881C296.656 462.642 295.551 456.747 295.551 456.747C295.551 456.747 298.801 452.041 297.75 446.751C296.698 441.461 285.885 445.179 282.103 432.74C278.322 420.312 294.106 419.175 294.106 419.175Z" fill="url(#paint13_linear_2646_3073)"/>
<path d="M155.381 192.533C167.586 147.642 222.258 154.207 232.392 177.534C237.065 188.295 229.131 228.214 260.445 288.624C273.16 313.152 256.377 337.86 236.407 343.383C216.437 348.907 193.27 335.257 183.041 304.94C175.712 283.239 143.622 235.756 155.381 192.533Z" fill="url(#paint14_linear_2646_3073)"/>
<path d="M269.336 303.411C275.9 322.871 297.654 417.975 297.654 417.975C297.654 417.975 284.78 430.329 268.348 423.286C263.324 403.358 216.034 367.21 204.286 358.202C196.393 338.168 192.686 330.881 188.384 317.294C184.082 303.708 190.88 274.804 216.724 268.144C231.808 264.256 257.779 269.143 269.336 303.4V303.411Z" fill="url(#paint15_linear_2646_3073)"/>
<path style="mix-blend-mode:multiply" d="M253.88 294.222C256.44 296.602 246.541 311.133 242.578 314.31C238.616 317.486 223.331 320.067 220.612 317.666C217.893 315.255 228.132 301.138 232.965 297.961C239.073 293.936 251.331 291.853 253.891 294.233L253.88 294.222Z" fill="url(#paint16_linear_2646_3073)"/>
<path style="mix-blend-mode:multiply" d="M223.65 293.532C225.7 295.433 217.776 307.065 214.61 309.604C211.445 312.142 199.208 314.214 197.031 312.291C194.853 310.369 203.043 299.066 206.909 296.527C211.795 293.309 221.6 291.641 223.65 293.542V293.532Z" fill="url(#paint17_linear_2646_3073)"/>
<path style="mix-blend-mode:multiply" d="M246.732 282.963C245.616 284.131 213.824 286.978 212.571 284.673C211.317 282.368 224.574 273.073 230.894 273.19C234.144 273.254 250.003 279.531 246.732 282.973V282.963Z" fill="url(#paint18_linear_2646_3073)"/>
<path d="M269.92 456.375C270.759 456.513 276.219 452.339 275.974 450.214C275.581 447.367 275.316 446.549 275.316 446.549C275.316 446.549 270.026 449.598 268.581 450.766C267.498 451.627 266.733 453.38 267.222 453.943C267.71 454.506 269.081 456.248 269.93 456.386L269.92 456.375Z" fill="url(#paint19_linear_2646_3073)"/>
<path d="M276.612 462.94C277.547 462.653 281.009 455.642 279.692 453.613C277.865 450.926 277.175 450.235 277.175 450.235C277.175 450.235 273.319 456.014 272.416 457.937C271.747 459.36 271.842 461.527 272.629 461.846C273.415 462.164 275.688 463.237 276.612 462.94Z" fill="url(#paint20_linear_2646_3073)"/>
<path d="M288.286 468.336C288.965 467.433 287.51 458.468 284.897 457.469C281.36 456.194 280.245 456.014 280.245 456.014C280.245 456.014 280.51 464.087 280.956 466.498C281.286 468.294 282.836 470.259 283.792 470.025C284.748 469.791 287.606 469.239 288.286 468.336Z" fill="url(#paint21_linear_2646_3073)"/>
<path d="M266.478 418.431C274.222 417.624 286.31 415.117 295.498 409.126C296.847 414.639 297.654 417.975 297.654 417.975C297.654 417.975 284.78 430.329 268.348 423.286C267.965 421.756 267.328 420.131 266.478 418.421V418.431Z" fill="#E23023"/>
<path d="M224.999 307.586C223.565 290.451 222.81 279.659 221.727 264.033C221.43 259.795 229.651 246.527 229.364 242.448C226.093 196.049 214.164 164.67 205.985 160.251C200.43 157.256 190.105 151.636 176.976 147.419C175.202 151.817 170.135 156.342 163.772 160.357C166.343 162.291 169.317 164.203 172.419 166.136C191.029 185.469 87.2929 181.677 73.0911 165.86C60.6419 173.455 49.3824 182.027 39.4295 190.462C25.1746 202.539 12.7466 241.46 33.9909 269.058C46.7588 285.629 66.431 296.559 69.2777 320.949C75.4174 373.541 62.3733 418.272 62.8832 421.608C63.3931 417.486 229.598 442.343 227.771 454.612C233.241 430.955 230.097 368.792 224.988 307.575L224.999 307.586Z" fill="url(#paint22_linear_2646_3073)"/>
<path d="M168.871 137.615C167.596 134.3 160.288 132.41 152.194 131.22C152.619 135.129 152.162 139.856 152.609 143.606C160.671 144.477 170.156 145.242 176.976 147.43C177.783 145.422 177.911 143.446 177.156 141.556C174.31 142.097 170.241 141.205 168.861 137.615H168.871Z" fill="#99170D"/>
<path d="M106.519 135.968C96.8105 138.549 79.3052 141.641 81.1853 144.402C83.6178 147.95 75.3962 148.025 72.4751 146.208C71.8378 149.129 89.1838 162.726 91.8712 165.871C98.0002 163.13 102.61 162.418 106.062 157.808C108.994 153.888 106.806 138.422 106.509 135.968H106.519Z" fill="#99170D"/>
<path d="M152.619 155.237C152.757 160.549 156.507 161.452 161.202 164.373C167.565 160.368 175.191 151.828 176.976 147.43C170.156 145.242 160.257 143.266 152.194 142.405C152.492 144.955 152.566 153.081 152.619 155.248V155.237Z" fill="#99170D"/>
<path d="M168.712 134.449C173.492 136.542 176.147 138.964 177.167 141.556C179.78 141.056 181.363 139.357 178.867 137.402C175.436 134.715 166.173 130.051 151.823 127.768C151.918 128.66 152.014 129.552 152.12 130.466C157.76 131.347 164.059 132.399 168.712 134.439V134.449Z" fill="#E23023"/>
<path d="M75.1412 142.31C78.5934 139.622 96.8104 136.51 106.806 133.992C106.859 133.228 106.901 132.42 106.944 131.57C96.5767 134.407 78.1366 138.326 72.3263 143.404C71.0092 144.551 71.3597 145.518 72.4644 146.208C72.7618 144.817 73.5903 143.51 75.1306 142.31H75.1412Z" fill="#E23023"/>
<path d="M168.712 134.449C164.049 132.41 157.76 131.347 152.12 130.476C152.152 130.721 152.173 130.976 152.205 131.22C160.299 132.41 167.607 134.3 168.882 137.615C170.252 141.205 174.331 142.097 177.178 141.556C176.158 138.964 173.502 136.542 168.722 134.449H168.712Z" fill="#E23023"/>
<path d="M81.1851 144.402C79.2944 141.651 96.8103 138.56 106.519 135.968C106.636 135.543 105.85 134.917 105.882 134.502C105.903 134.269 105.914 134.014 105.935 133.769C95.9393 136.287 78.604 139.622 75.1518 142.31C73.6115 143.51 72.783 144.817 72.4856 146.208C75.3961 148.025 83.6282 147.95 81.1958 144.402H81.1851Z" fill="#E23023"/>
<path d="M76.2883 155.524C76.2883 155.524 76.2139 155.588 76.1715 155.609C70.9135 159.412 70.393 162.864 73.091 165.871C75.8953 164.16 78.7845 162.514 81.7162 160.91C79.783 159.21 77.871 157.383 76.2883 155.524Z" fill="#D17869"/>
<path style="mix-blend-mode:multiply" d="M114.348 264.479C110.885 266.71 207.047 280.7 208.641 276.525C210.234 272.34 189.34 264.607 185.612 263.279C181.883 261.951 117.237 262.62 114.337 264.49L114.348 264.479Z" fill="url(#paint23_linear_2646_3073)"/>
<path style="mix-blend-mode:multiply" d="M207.525 285.204C208.354 283.069 160.575 308.287 161.234 310.687C161.882 313.088 173.8 309.721 175.914 309.094C178.027 308.467 206.835 286.988 207.525 285.204Z" fill="url(#paint24_linear_2646_3073)"/>
<path d="M221.621 351.233C221.621 351.233 243.279 393.851 230.66 423.392C229.545 423.7 225.19 424.061 225.19 424.061C225.19 424.061 231.053 384.939 213.038 352.381L221.631 351.233H221.621Z" fill="#E23023"/>
<path d="M198.018 153.134C198.018 153.134 218.498 187.062 226.624 269.068C216.182 266.338 212.432 265.701 212.432 265.701C212.432 265.701 209.48 231.167 204.296 203.708C199.123 176.259 182.064 147.398 182.064 147.398L198.008 153.134H198.018Z" fill="#272727"/>
<path d="M57.126 174.029C49.9879 177.343 28.2444 180.816 15.5403 196.984C26.6404 260.039 -16.3475 290.781 7.12751 362.94C49.8073 373.275 81.5994 347.813 78.3916 308.935C76.5964 287.19 64.2641 170.704 57.126 174.018V174.029Z" fill="url(#paint25_linear_2646_3073)"/>
<path style="mix-blend-mode:multiply" d="M72.4538 298.28C72.5069 298.96 24.7922 287.275 26.6405 283.228C28.4887 279.181 33.3218 278.703 37.1564 278.692C41.0016 278.682 72.2626 296.124 72.4538 298.28Z" fill="url(#paint26_linear_2646_3073)"/>
<path style="mix-blend-mode:multiply" d="M44.3157 267.114C44.4751 269.026 68.0244 288.061 71.1685 287.53C74.3127 286.999 67.0578 251.127 60.3446 252.359C53.6314 253.581 44.1458 265.202 44.3157 267.114Z" fill="url(#paint27_linear_2646_3073)"/>
<path d="M67.5145 162.418L40.7998 173.965C40.7998 173.965 72.9424 238.837 76.0866 282.75C93.7725 281.571 101.856 278.597 101.856 278.597C101.856 278.597 103.364 199.693 67.5251 162.418H67.5145Z" fill="#272727"/>
<path d="M96.7148 265.903L80.4098 268.293L82.7148 282.75L73.3779 396.082L83.5008 397.463L98.255 279.967L96.7148 265.903Z" fill="#5C5C5C"/>
<path d="M98.393 274.22L76.9788 277.577V280.137L99.8376 275.654L98.393 274.22Z" fill="#747474"/>
<path d="M30.6026 295.38C55.1716 286.022 96.9273 289.963 106.721 293.766C114.486 296.783 118.448 319.727 114.783 329.904C112.595 335.98 82.1944 376.749 69.5328 379.16C56.8712 381.571 7.13822 362.94 7.13822 362.94C7.13822 362.94 -5.07726 308.967 30.6132 295.37L30.6026 295.38Z" fill="url(#paint28_linear_2646_3073)"/>
<path d="M109.153 291.556C107.401 291.471 103.481 291.471 99.8803 292.162C96.3113 292.842 89.7468 303.889 94.0912 318.973C96.5981 327.662 104.129 332.272 107.804 331.677C111.48 331.083 114.762 327.949 116.939 325.102C122.091 309.306 117.481 291.939 109.164 291.546L109.153 291.556Z" fill="#E23023"/>
<path d="M109.238 292.746C105.733 292.682 102.185 298.896 102.408 307.84C102.716 320.375 113.678 324.252 115.261 324.263C119.712 324.305 112.744 292.81 109.238 292.746Z" fill="#571E23"/>
<path d="M151.111 327.354V269.897L117.407 275.569L130.44 325.4L151.111 327.354Z" fill="#707070"/>
<path d="M114.932 280.052L114.539 270.237L138.46 265.86L139.533 259.381L149.868 258.095L154.807 274.401L114.932 280.052Z" fill="url(#paint29_linear_2646_3073)"/>
<path d="M147.234 304.452L153.681 304.101C153.681 304.101 156.422 301.106 154.68 296.4C153.203 295.401 144.175 292.544 140.563 292.693C138.216 292.788 132.777 293.659 129.261 294.265C129.229 294.159 129.197 294.063 129.165 293.967C134.062 291.822 142.953 288.04 144.164 288.242C146.735 288.656 148.413 289.315 148.413 289.315C148.413 289.315 151.823 289.007 152.332 285.799C152.099 285.278 149.804 282.091 147.074 281.263C143.835 280.275 140.138 279.383 139.065 279.287C137.068 279.128 125.235 286.011 125.235 286.011C117.258 288.55 108.07 292.278 108.07 292.278C104.469 294.499 103.247 307.766 108.219 317.454C108.622 318.229 117.131 324.953 121.284 322.935C122.017 322.574 132.543 320.97 132.543 320.97C132.543 320.959 132.543 320.938 132.543 320.927L150.909 319.589C150.909 319.589 153.31 317.199 151.865 313.534C151.206 313.141 145.609 312.844 140.382 312.663L153.458 311.558C153.458 311.558 156.146 309.062 154.51 305.206C154.043 304.941 151.047 304.696 147.244 304.473L147.234 304.452Z" fill="url(#paint30_linear_2646_3073)"/>
<path d="M165.345 186.956C165.345 186.956 65.9318 147.685 81.302 138.889C64.3809 143.053 55.9894 164.033 62.9682 173.434C69.9576 182.824 129.633 201.275 165.345 186.956Z" fill="#E23023"/>
<path d="M138.269 177.152C138.269 177.152 180.98 151.35 166.524 133.557C176.795 133.313 189.457 143.659 192.654 153.474C192.654 174.719 165.334 186.956 165.334 186.956L138.258 177.152H138.269Z" fill="#E23023"/>
<path d="M157.42 162.418C150.442 169.153 142.475 174.485 139.49 176.397L165.345 186.967C165.345 186.967 173.725 183.206 181.203 176.238C176.53 172.414 164.261 165.924 157.42 162.418Z" fill="#E23023"/>
<path d="M156.613 179.627C156.613 179.627 161.106 175.431 163.847 177.545C171.484 191.099 180.12 222.85 180.12 222.85L161.457 220.959C161.457 220.959 156.9 183.238 156.624 179.627H156.613Z" fill="white"/>
<path d="M146.331 180.657C146.331 180.657 140.414 178.989 138.279 182.102C139.267 189.516 143.622 232.453 143.622 232.453L159.609 230.052L146.331 180.647V180.657Z" fill="white"/>
<path d="M222.279 250.968C224.637 260.687 230.66 351.648 230.66 351.648L228.929 361.229L213.038 247.802L222.29 250.968H222.279Z" fill="#5C5C5C"/>
<path d="M224.956 229.393L220.845 228.724L222.683 242.448L226.624 241.928L224.956 229.393Z" fill="#E6E478"/>
<path d="M224.489 255.939L211.689 252.444L211.976 253.506L224.489 257.692V255.939Z" fill="#747474"/>
<path d="M137.855 338.476C137.855 338.476 108.984 370.258 98.2551 399.152L110.471 401.871C110.471 401.871 128.199 368.527 147.584 343.245L137.855 338.476Z" fill="#E23023"/>
<path d="M218.137 421.618C214.886 420.545 211.232 419.451 207.27 418.378L207.929 415.946C211.933 417.029 215.63 418.134 218.923 419.228L218.126 421.618H218.137ZM192.622 414.788C188.012 413.758 183.03 412.716 177.836 411.718L178.314 409.243C183.54 410.252 188.533 411.293 193.175 412.334L192.622 414.798V414.788ZM162.965 409.009C158.164 408.181 153.14 407.373 148.041 406.587L148.423 404.102C153.533 404.888 158.578 405.706 163.39 406.534L162.965 409.02V409.009ZM133.074 404.399C124.014 403.146 118.108 402.466 118.055 402.455L118.341 399.948C118.405 399.948 124.332 400.639 133.425 401.892L133.085 404.388L133.074 404.399Z" fill="#E23023"/>
<path d="M71.4872 147.377C71.4872 147.377 65.0077 153.973 66.7179 158.966C69.4053 166.795 125.002 179.393 125.002 179.393C125.002 179.393 75.7042 159.975 73.4735 157.011C70.0001 152.38 71.4872 147.387 71.4872 147.387V147.377Z" fill="#99170D"/>
<path d="M173.938 141.545C173.938 141.545 175.935 152.337 158.621 168.324C180.205 151.541 179.801 146.877 173.938 141.545Z" fill="#99170D"/>
<defs>
<linearGradient id="paint0_linear_2646_3073" x1="128.943" y1="125.646" x2="128.943" y2="225.667" gradientUnits="userSpaceOnUse">
<stop stop-color="#8F452F"/>
<stop offset="1" stop-color="#A35D38"/>
</linearGradient>
<linearGradient id="paint1_linear_2646_3073" x1="178.955" y1="61.0049" x2="178.955" y2="92.2592" gradientUnits="userSpaceOnUse">
<stop stop-color="#8F452F"/>
<stop offset="1" stop-color="#A35D38"/>
</linearGradient>
<linearGradient id="paint2_linear_2646_3073" x1="79.9951" y1="60.9724" x2="79.9951" y2="92.216" gradientUnits="userSpaceOnUse">
<stop stop-color="#8F452F"/>
<stop offset="1" stop-color="#A35D38"/>
</linearGradient>
<linearGradient id="paint3_linear_2646_3073" x1="129.494" y1="13.2698" x2="129.494" y2="110.883" gradientUnits="userSpaceOnUse">
<stop stop-color="#8F452F"/>
<stop offset="1" stop-color="#A35D38"/>
</linearGradient>
<linearGradient id="paint4_linear_2646_3073" x1="226.007" y1="590.58" x2="138.52" y2="590.58" gradientUnits="userSpaceOnUse">
<stop stop-color="#546E77"/>
<stop offset="0.07" stop-color="#546E77"/>
<stop offset="0.37" stop-color="#47656E"/>
<stop offset="0.82" stop-color="#385B65"/>
<stop offset="1" stop-color="#385B65"/>
</linearGradient>
<linearGradient id="paint5_linear_2646_3073" x1="258.785" y1="580.037" x2="41.1609" y2="580.037" gradientUnits="userSpaceOnUse">
<stop stop-color="#546E77"/>
<stop offset="0.46" stop-color="#49666F"/>
<stop offset="0.96" stop-color="#385B65"/>
<stop offset="1" stop-color="#385B65"/>
</linearGradient>
<linearGradient id="paint6_linear_2646_3073" x1="95.3445" y1="567.864" x2="45.2185" y2="567.864" gradientUnits="userSpaceOnUse">
<stop stop-color="#546E77"/>
<stop offset="0.07" stop-color="#546E77"/>
<stop offset="0.44" stop-color="#47656E"/>
<stop offset="1" stop-color="#385B65"/>
</linearGradient>
<linearGradient id="paint7_linear_2646_3073" x1="273.157" y1="450.969" x2="273.157" y2="463.088" gradientUnits="userSpaceOnUse">
<stop stop-color="#8F452F"/>
<stop offset="1" stop-color="#A35D38"/>
</linearGradient>
<linearGradient id="paint8_linear_2646_3073" x1="279.097" y1="456.694" x2="279.097" y2="465.175" gradientUnits="userSpaceOnUse">
<stop stop-color="#8F452F"/>
<stop offset="1" stop-color="#A35D38"/>
</linearGradient>
<linearGradient id="paint9_linear_2646_3073" x1="298.878" y1="443.177" x2="298.878" y2="466.638" gradientUnits="userSpaceOnUse">
<stop stop-color="#8F452F"/>
<stop offset="1" stop-color="#A35D38"/>
</linearGradient>
<linearGradient id="paint10_linear_2646_3073" x1="286.389" y1="414.719" x2="286.389" y2="465.984" gradientUnits="userSpaceOnUse">
<stop stop-color="#8F452F"/>
<stop offset="1" stop-color="#A35D38"/>
</linearGradient>
<radialGradient id="paint11_radial_2646_3073" cx="0" cy="0" r="1" gradientUnits="userSpaceOnUse" gradientTransform="translate(353.71 456.904) rotate(164.129) scale(10.4318 10.5375)">
<stop stop-color="#642D1A"/>
<stop offset="1" stop-color="#805345"/>
</radialGradient>
<linearGradient id="paint12_linear_2646_3073" x1="292.301" y1="462.601" x2="292.301" y2="474.204" gradientUnits="userSpaceOnUse">
<stop stop-color="#8F452F"/>
<stop offset="1" stop-color="#A35D38"/>
</linearGradient>
<linearGradient id="paint13_linear_2646_3073" x1="294.016" y1="419.175" x2="294.016" y2="467.619" gradientUnits="userSpaceOnUse">
<stop stop-color="#8F452F"/>
<stop offset="1" stop-color="#A35D38"/>
</linearGradient>
<linearGradient id="paint14_linear_2646_3073" x1="152.821" y1="251.977" x2="264.874" y2="251.977" gradientUnits="userSpaceOnUse">
<stop stop-color="#C1210D"/>
<stop offset="0.52" stop-color="#C1210D"/>
<stop offset="1" stop-color="#9D1D06"/>
</linearGradient>
<linearGradient id="paint15_linear_2646_3073" x1="187.195" y1="346.251" x2="297.654" y2="346.251" gradientUnits="userSpaceOnUse">
<stop stop-color="#C1210D"/>
<stop offset="0.52" stop-color="#C1210D"/>
<stop offset="1" stop-color="#9D1D06"/>
</linearGradient>
<linearGradient id="paint16_linear_2646_3073" x1="240.548" y1="317.475" x2="232.57" y2="288.979" gradientUnits="userSpaceOnUse">
<stop stop-color="#FFFDFD"/>
<stop offset="1" stop-color="#E6CFD1"/>
</linearGradient>
<linearGradient id="paint17_linear_2646_3073" x1="213.002" y1="312.167" x2="206.621" y2="289.379" gradientUnits="userSpaceOnUse">
<stop stop-color="#FFFDFD"/>
<stop offset="1" stop-color="#E6CFD1"/>
</linearGradient>
<linearGradient id="paint18_linear_2646_3073" x1="241.78" y1="275.069" x2="220.624" y2="288.453" gradientUnits="userSpaceOnUse">
<stop stop-color="#FFFDFD"/>
<stop offset="1" stop-color="#E6CFD1"/>
</linearGradient>
<linearGradient id="paint19_linear_2646_3073" x1="271.527" y1="446.549" x2="271.527" y2="456.386" gradientUnits="userSpaceOnUse">
<stop stop-color="#8F452F"/>
<stop offset="1" stop-color="#A35D38"/>
</linearGradient>
<linearGradient id="paint20_linear_2646_3073" x1="275.979" y1="450.235" x2="275.979" y2="462.991" gradientUnits="userSpaceOnUse">
<stop stop-color="#8F452F"/>
<stop offset="1" stop-color="#A35D38"/>
</linearGradient>
<linearGradient id="paint21_linear_2646_3073" x1="284.348" y1="456.014" x2="284.348" y2="470.044" gradientUnits="userSpaceOnUse">
<stop stop-color="#8F452F"/>
<stop offset="1" stop-color="#A35D38"/>
</linearGradient>
<linearGradient id="paint22_linear_2646_3073" x1="132.681" y1="237.912" x2="124.672" y2="359.827" gradientUnits="userSpaceOnUse">
<stop stop-color="#C1210D"/>
<stop offset="0.52" stop-color="#C1210D"/>
<stop offset="1" stop-color="#9D1D06"/>
</linearGradient>
<linearGradient id="paint23_linear_2646_3073" x1="100.21" y1="277.768" x2="240.22" y2="261.4" gradientUnits="userSpaceOnUse">
<stop stop-color="#FFFDFD"/>
<stop offset="1" stop-color="#E6CFD1"/>
</linearGradient>
<linearGradient id="paint24_linear_2646_3073" x1="210.021" y1="287.902" x2="152.162" y2="316.114" gradientUnits="userSpaceOnUse">
<stop stop-color="#FFFDFD"/>
<stop offset="1" stop-color="#E6CFD1"/>
</linearGradient>
<linearGradient id="paint25_linear_2646_3073" x1="4.68066e-05" y1="269.61" x2="78.6146" y2="269.61" gradientUnits="userSpaceOnUse">
<stop stop-color="#C1210D"/>
<stop offset="0.52" stop-color="#C1210D"/>
<stop offset="1" stop-color="#9D1D06"/>
</linearGradient>
<linearGradient id="paint26_linear_2646_3073" x1="26.5874" y1="288.497" x2="72.4538" y2="288.497" gradientUnits="userSpaceOnUse">
<stop stop-color="#FFFDFD"/>
<stop offset="1" stop-color="#E6CFD1"/>
</linearGradient>
<linearGradient id="paint27_linear_2646_3073" x1="55.0653" y1="262.737" x2="66.8035" y2="287.222" gradientUnits="userSpaceOnUse">
<stop stop-color="#FFFDFD"/>
<stop offset="1" stop-color="#E6CFD1"/>
</linearGradient>
<linearGradient id="paint28_linear_2646_3073" x1="31.2703" y1="335.093" x2="88.1165" y2="332.665" gradientUnits="userSpaceOnUse">
<stop stop-color="#C1210D"/>
<stop offset="0.52" stop-color="#C1210D"/>
<stop offset="1" stop-color="#9D1D06"/>
</linearGradient>
<linearGradient id="paint29_linear_2646_3073" x1="133.489" y1="275.314" x2="141.477" y2="255.047" gradientUnits="userSpaceOnUse">
<stop stop-color="#3D3D3D"/>
<stop offset="1" stop-color="#262626"/>
</linearGradient>
<linearGradient id="paint30_linear_2646_3073" x1="130.088" y1="279.284" x2="130.088" y2="323.311" gradientUnits="userSpaceOnUse">
<stop stop-color="#8F452F"/>
<stop offset="1" stop-color="#A35D38"/>
</linearGradient>
<clipPath id="clip0_2646_3073">
<rect width="118" height="225.649" fill="white" transform="translate(72)"/>
</clipPath>
</defs>
</svg>
