<svg width="250" height="770" viewBox="0 0 250 770" fill="none" xmlns="http://www.w3.org/2000/svg">
<g clip-path="url(#clip0_2646_3075)">
<path d="M201.544 156.94C191.504 139.19 188.144 66.09 188.324 58.78C188.354 58.19 188.374 57.6 188.394 57.01C188.444 56 188.504 55.44 188.504 55.44H188.424C188.434 24.83 164.234 0 134.374 0C104.514 0 80.3042 24.83 80.3042 55.45C80.3042 57 80.3842 58.54 80.5042 60.06C80.5642 68.05 76.7742 140.15 67.2642 156.95C55.4442 177.83 54.1842 199.89 77.6542 208.77C77.6542 208.77 77.7742 208.81 77.9442 208.87C80.1542 209.69 82.5542 210.4 85.2042 210.98C85.8242 211.11 86.4242 211.21 87.0342 211.33C102.864 215.06 142.044 220.63 179.184 211.79C180.644 211.56 182.124 211.31 183.624 210.98C187.784 210.07 191.354 208.85 194.444 207.37C194.464 207.37 194.494 207.35 194.514 207.35H194.504C214.474 197.68 212.774 176.8 201.554 156.96L201.544 156.94Z" fill="black"/>
<path d="M163.344 16.26C163.344 16.26 145.964 40.21 182.454 64.17C182.454 64.17 183.104 24.39 163.344 16.26Z" fill="black"/>
<mask id="mask0_2646_3075" style="mask-type:luminance" maskUnits="userSpaceOnUse" x="167" y="67" width="17" height="30">
<path d="M169.784 71.8801C164.974 77.5601 168.174 91.2701 168.724 92.9701C169.534 95.4601 172.334 98.5201 177.014 93.9701C182.054 89.0501 187.184 71.5701 179.944 68.4501C178.934 68.0101 177.974 67.8301 177.064 67.8301C172.824 67.8301 169.874 71.7601 169.774 71.8801" fill="white"/>
</mask>
<g mask="url(#mask0_2646_3075)">
<path d="M187.194 67.8401H164.984V98.5301H187.194V67.8401Z" fill="url(#paint0_linear_2646_3075)"/>
</g>
<mask id="mask1_2646_3075" style="mask-type:luminance" maskUnits="userSpaceOnUse" x="80" y="67" width="17" height="30">
<path d="M84.1641 68.2499C76.9241 71.3699 82.0441 88.8499 87.0941 93.7699C91.7741 98.3199 94.5841 95.2699 95.3941 92.7799C95.9441 91.0799 99.1441 77.3699 94.3341 71.6899C94.2341 71.5699 91.2841 67.6399 87.0441 67.6399C86.1341 67.6399 85.1741 67.8199 84.1641 68.2599" fill="white"/>
</mask>
<g mask="url(#mask1_2646_3075)">
<path d="M99.1343 67.6399H76.9243V98.3299H99.1343V67.6399Z" fill="url(#paint1_linear_2646_3075)"/>
</g>
<mask id="mask2_2646_3075" style="mask-type:luminance" maskUnits="userSpaceOnUse" x="93" y="17" width="81" height="117">
<path d="M133.054 17.56C133.054 17.56 132.964 17.56 132.914 17.56C98.484 17.77 95.784 55.66 95.784 55.66C95.784 55.66 90.764 95.6 94.344 105.34C96.884 112.25 105.124 120.05 113.094 125.49C116.364 127.72 119.594 129.57 122.364 130.78C126.734 132.7 130.064 133.43 132.614 133.56C132.704 133.56 132.804 133.56 132.894 133.56C132.924 133.56 132.954 133.56 132.974 133.56H133.044C133.044 133.56 133.094 133.56 133.114 133.56C133.114 133.56 133.164 133.56 133.184 133.56C133.284 133.56 133.384 133.56 133.474 133.56C136.024 133.43 139.344 132.69 143.724 130.78C145.954 129.8 148.484 128.41 151.084 126.75C159.614 121.3 169.004 112.8 171.754 105.33C175.334 95.59 170.304 55.6501 170.304 55.6501C170.304 55.6501 167.604 17.76 133.174 17.55C133.124 17.55 133.074 17.55 133.034 17.55" fill="white"/>
</mask>
<g mask="url(#mask2_2646_3075)">
<path d="M175.354 17.5601H90.7642V133.59H175.354V17.5601Z" fill="url(#paint2_linear_2646_3075)"/>
</g>
<mask id="mask3_2646_3075" style="mask-type:luminance" maskUnits="userSpaceOnUse" x="92" y="125" width="80" height="62">
<path d="M111.814 150.88C110.014 156.45 103.254 159.82 92.374 164.56C92.404 166.65 93.494 184.16 122.964 186.62H133.974C169.424 186.62 171.634 167.67 171.764 164.52C160.944 159.8 154.224 156.43 152.434 150.88C150.924 146.22 150.964 133.78 151.114 126.77C148.504 128.43 145.984 129.82 143.754 130.8C139.374 132.72 136.054 133.45 133.504 133.58C133.414 133.58 133.314 133.58 133.214 133.58C133.194 133.58 133.164 133.58 133.144 133.58H133.074C133.074 133.58 133.024 133.58 133.004 133.58C133.004 133.58 132.954 133.58 132.924 133.58C132.834 133.58 132.734 133.58 132.644 133.58C130.084 133.45 126.764 132.71 122.394 130.8C119.624 129.59 116.394 127.74 113.124 125.51C113.294 132.18 113.434 145.94 111.834 150.89" fill="white"/>
</mask>
<g mask="url(#mask3_2646_3075)">
<path d="M171.764 125.5H92.374V186.61H171.764V125.5Z" fill="url(#paint3_linear_2646_3075)"/>
</g>
<g style="mix-blend-mode:multiply" opacity="0.2">
<mask id="mask4_2646_3075" style="mask-type:luminance" maskUnits="userSpaceOnUse" x="112" y="125" width="40" height="23">
<path d="M151.104 125.53H112.544V147.2H151.104V125.53Z" fill="white"/>
</mask>
<g mask="url(#mask4_2646_3075)">
<mask id="mask5_2646_3075" style="mask-type:luminance" maskUnits="userSpaceOnUse" x="112" y="125" width="40" height="23">
<path d="M151.104 125.53H112.544V147.2H151.104V125.53Z" fill="white"/>
</mask>
<g mask="url(#mask5_2646_3075)">
<path d="M151.104 126.79C148.504 128.45 145.974 129.84 143.744 130.82C139.374 132.73 136.044 133.47 133.494 133.6C133.404 133.6 133.304 133.6 133.204 133.61H133.124H133.054H132.974H132.894C132.794 133.61 132.704 133.61 132.604 133.6C130.054 133.47 126.724 132.73 122.354 130.82C119.584 129.61 116.354 127.76 113.084 125.53C113.224 130.92 113.334 140.95 112.524 147.2C125.764 144.81 139.054 140.41 151.024 133.73C151.024 131.18 151.044 128.76 151.084 126.78" fill="#ECB699"/>
</g>
</g>
</g>
<path d="M136.864 99.49C136.634 99.49 136.404 99.48 136.174 99.45C135.704 99.4 135.364 98.97 135.414 98.5C135.464 98.03 135.874 97.69 136.354 97.75C137.734 97.9 138.884 97.45 139.604 96.47C140.914 94.7 140.714 91.47 139.044 87.62C133.934 75.81 138.644 69.63 138.844 69.37C139.134 69 139.674 68.94 140.044 69.23C140.414 69.52 140.474 70.06 140.184 70.43C140.004 70.66 135.934 76.13 140.604 86.94C143.224 93 141.954 96.14 140.964 97.48C140.014 98.77 138.534 99.48 136.844 99.48" fill="#E1A187"/>
<path d="M157.444 77.1999C157.444 79.1699 155.844 80.7799 153.864 80.7799C151.884 80.7799 150.294 79.1699 150.294 77.1999C150.294 75.2299 151.894 73.6299 153.864 73.6299C155.834 73.6299 157.444 75.2399 157.444 77.1999Z" fill="#231F20"/>
<path d="M115.714 77.4101C115.714 79.3801 114.124 80.9901 112.134 80.9901C110.144 80.9901 108.564 79.3801 108.564 77.4101C108.564 75.4401 110.174 73.8401 112.134 73.8401C114.094 73.8401 115.714 75.4501 115.714 77.4101Z" fill="#231F20"/>
<path d="M109.254 98.31C97.5041 98.31 87.9541 88.75 87.9541 77.01C87.9541 65.27 97.5141 55.71 109.254 55.71C120.994 55.71 130.554 65.27 130.554 77.01C130.554 88.75 120.994 98.31 109.254 98.31ZM109.254 57.74C98.6241 57.74 89.9841 66.38 89.9841 77.01C89.9841 87.64 98.6241 96.28 109.254 96.28C119.884 96.28 128.524 87.64 128.524 77.01C128.524 66.38 119.884 57.74 109.254 57.74Z" fill="#FFFFF9"/>
<path opacity="0.15" d="M115.048 96.455C125.787 93.2574 131.902 81.9587 128.704 71.2188C125.506 60.4788 114.208 54.3646 103.468 57.5622C92.7279 60.7599 86.6137 72.0585 89.8113 82.7984C93.0089 93.5384 104.308 99.6526 115.048 96.455Z" fill="#FFFFF9"/>
<path opacity="0.15" d="M178.464 80.4045C180.338 69.3565 172.902 58.8807 161.854 57.0062C150.806 55.1316 140.33 62.5681 138.456 73.616C136.581 84.664 144.018 95.1398 155.066 97.0143C166.114 98.8889 176.589 91.4524 178.464 80.4045Z" fill="#FFFFF9"/>
<path d="M158.454 98.31C146.704 98.31 137.154 88.75 137.154 77.01C137.154 65.27 146.714 55.71 158.454 55.71C170.194 55.71 179.754 65.27 179.754 77.01C179.754 88.75 170.194 98.31 158.454 98.31ZM158.454 57.74C147.834 57.74 139.184 66.38 139.184 77.01C139.184 87.64 147.824 96.28 158.454 96.28C169.084 96.28 177.724 87.64 177.724 77.01C177.724 66.38 169.084 57.74 158.454 57.74Z" fill="#FFFFF9"/>
<path d="M129.324 82.4799L128.214 80.7699C128.444 80.6199 133.794 77.1999 139.254 80.7699L138.144 82.4699C133.824 79.6399 129.514 82.3499 129.334 82.4699L129.324 82.4799Z" fill="#FFFFF9"/>
<path d="M117 105C117 105 122.068 112.648 133.311 112.648C133.311 112.648 145.872 113.234 151.779 105.461L152 105.142C132.427 112.229 117 105 117 105Z" fill="white"/>
<path d="M85.994 56.11C85.994 56.11 157.834 55.74 169.344 20.18C169.344 20.18 151.504 -3.75004 118.514 6.07996C85.534 15.91 85.994 56.11 85.994 56.11Z" fill="black"/>
<path d="M109.264 98.0099C97.5139 98.0099 87.9639 88.4499 87.9639 76.7099C87.9639 64.9699 97.5239 55.4099 109.264 55.4099C121.004 55.4099 130.564 64.9699 130.564 76.7099C130.564 88.4499 121.004 98.0099 109.264 98.0099ZM109.264 57.4399C98.6339 57.4399 89.9939 66.0799 89.9939 76.7099C89.9939 87.3399 98.6339 95.9799 109.264 95.9799C119.894 95.9799 128.534 87.3399 128.534 76.7099C128.534 66.0799 119.894 57.4399 109.264 57.4399Z" fill="#FFFFF9"/>
<path opacity="0.15" d="M115.055 96.1557C125.795 92.958 131.91 81.6594 128.712 70.9195C125.514 60.1795 114.216 54.0653 103.476 57.2629C92.7357 60.4605 86.6215 71.7592 89.8191 82.4991C93.0168 93.2391 104.315 99.3533 115.055 96.1557Z" fill="#FFFFF9"/>
<path opacity="0.15" d="M178.471 80.1139C180.345 69.066 172.909 58.5902 161.861 56.7156C150.813 54.8411 140.337 62.2776 138.463 73.3255C136.588 84.3735 144.024 94.8492 155.072 96.7238C166.12 98.5984 176.596 91.1619 178.471 80.1139Z" fill="#FFFFF9"/>
<path d="M158.454 98.0099C146.704 98.0099 137.154 88.4499 137.154 76.7099C137.154 64.9699 146.714 55.4099 158.454 55.4099C170.194 55.4099 179.754 64.9699 179.754 76.7099C179.754 88.4499 170.194 98.0099 158.454 98.0099ZM158.454 57.4399C147.834 57.4399 139.184 66.0799 139.184 76.7099C139.184 87.3399 147.824 95.9799 158.454 95.9799C169.084 95.9799 177.724 87.3399 177.724 76.7099C177.724 66.0799 169.084 57.4399 158.454 57.4399Z" fill="#FFFFF9"/>
<path d="M129.334 82.1799L128.224 80.4699C128.454 80.3199 133.804 76.8999 139.264 80.4699L138.154 82.1699C133.834 79.3399 129.524 82.0499 129.344 82.1699L129.334 82.1799Z" fill="#FFFFF9"/>
<path d="M214.159 179.12C202.659 173.73 158.589 155.56 158.589 155.56L133.169 173.87L106.299 156.32L42.7095 184.1C42.7095 184.1 61.4295 215.08 67.4895 243.09C78.8295 295.51 79.7895 283.2 79.0595 323.26C118.229 351.1 189.149 327.04 187.829 325.6C178.009 264.58 183.459 270.82 214.159 179.11V179.12Z" fill="#E1EFFF"/>
<path d="M131.649 161.74L133.129 173.72L136.679 161.58L139.069 170.22L133.049 174.51L126.709 170.55L131.649 161.74Z" fill="#E6E6E6"/>
<path d="M131.649 161.74C131.649 161.74 126.949 177.97 118.959 175.42C110.969 172.87 102.259 161.59 102.259 161.59L111.299 147.49L131.649 161.74Z" fill="white"/>
<path d="M136.679 161.58C136.679 161.58 136.269 175.99 146.319 176.56C156.369 177.14 164.999 159.33 164.999 159.33L153.809 146L136.669 161.58H136.679Z" fill="white"/>
<path d="M134.12 379.45C134.73 379.43 135.49 379.33 136.33 379.2C137.12 333.68 141.78 294.54 139.39 273.71C136.94 252.33 139.36 199.52 135.22 171.95L132.06 173.73L131.81 173.57C135.98 201.4 133.38 253.07 135.8 274.12C138.14 294.5 133.48 333.98 132.7 379.4C133.2 379.45 133.68 379.47 134.12 379.45Z" fill="#B6C7DD"/>
<path d="M43.6993 183.42C43.6993 183.42 26.8593 197.29 5.06935 269.47C4.52935 283.71 7.12935 296.1 13.3493 308.18C20.5393 322.16 49.3593 336.42 52.3493 302.64C53.5493 289.05 44.9893 286.26 49.0793 275.77C59.1593 249.9 69.1093 244.78 68.4393 235.61C66.4193 207.91 63.1093 182.87 43.7093 183.41L43.6993 183.42Z" fill="#E1EFFF"/>
<path d="M52.6693 296.14C56.0793 311.38 45.3193 318.84 34.5293 321.26C23.7393 323.68 13.1293 315.83 11.5393 305.09C9.94926 294.35 18.6093 285.83 29.0093 282.71C47.0393 277.31 52.6593 296.14 52.6593 296.14H52.6693Z" fill="#CFDDF1"/>
<path d="M94.5791 579.06C94.5791 579.06 112.829 658.46 113.279 665.51C113.729 672.56 113.529 678.97 114.829 683.24C116.129 687.51 116.989 692.64 116.779 693.7C116.569 694.76 113.559 722.99 113.659 723.84C115.919 741.75 128.859 738.42 131.399 733.5C133.939 728.58 137.669 679.54 137.669 679.54L133.859 639.86L133.949 578.75L94.5791 579.06Z" fill="url(#paint4_linear_2646_3075)"/>
<path d="M113.469 723.84C113.469 723.84 111.119 733.67 111.549 735.59C111.979 737.51 121.809 748.41 123.519 749.05C125.229 749.69 135.489 737.08 135.699 735.59C135.909 734.1 133.559 722.98 133.559 722.98C133.559 722.98 126.719 743.28 113.479 723.83L113.469 723.84Z" fill="#342825"/>
<path d="M137.859 578.81C137.859 578.81 136.979 639.87 136.549 645.86C136.119 651.84 135.269 675.99 134.409 679.41C133.549 682.83 128.639 693.94 128.429 702.06C128.219 710.18 123.089 745.01 123.089 745.01C123.089 745.01 123.319 759.82 154.929 749.28C155.569 749.07 156.639 716.8 155.569 715.09C154.499 713.38 157.919 706.12 157.919 705.05C157.919 703.98 158.559 681.12 158.559 678.77C158.559 676.42 179.289 587.53 180.139 577.92L137.859 578.82V578.81Z" fill="url(#paint5_linear_2646_3075)"/>
<path d="M123.44 742.39C123.44 742.39 118.24 749.13 117.88 751.46C117.45 754.2 120.58 768.64 128.47 769.78C134.94 770.72 153.79 761.51 154.43 759.38C155.07 757.25 155.3 750.2 155.47 745.59C155.54 743.68 155.4 744.03 155.4 744.03C155.4 744.03 137.76 753.5 123.44 742.39Z" fill="#342825"/>
<path d="M244.979 582.05C244.559 589.98 217.849 586.23 208.659 586.65C199.479 587.07 203.449 591.86 198.639 595.21C193.839 598.55 179.219 592.71 174.009 597.29C169.589 601.19 165.759 603.57 155.809 603.2C154.019 603.13 152.019 602.97 149.789 602.72C137.439 601.31 118.969 599.15 105.109 599.53C102.569 599.59 100.199 599.75 98.0293 600.01C84.0393 601.68 69.4293 597.29 69.4293 597.29L69.2193 578.3C69.2193 578.3 21.8293 589.36 19.1193 570.58C16.4093 551.79 40.4093 471.89 42.4993 453.31C44.5793 434.73 56.8993 386.72 59.8193 371.9C60.6393 367.77 62.4593 362.27 64.6893 356.45C70.4193 341.39 77.8493 324.2 78.2993 321.94C78.9293 318.81 79.1293 305.42 79.1293 305.42C95.2093 303.75 135.809 306.78 144.569 306.37C153.339 305.95 184.789 304.32 184.789 304.32L187.819 325.53C187.819 325.53 192.159 331 192.779 332.89C193.409 334.77 204.679 367.53 208.429 381.73C212.189 395.92 226.389 461.05 230.349 500.5C234.319 539.95 245.379 574.14 244.959 582.07L244.979 582.05Z" fill="#C1210D"/>
<path d="M155.809 603.19C154.019 603.12 152.019 602.96 149.789 602.71C137.439 601.3 118.969 599.14 105.109 599.52L104.949 598.29C104.949 598.29 104.669 438.95 105.239 425.29C105.809 411.62 105.239 337.32 112.069 359.81C118.899 382.31 127.719 452.9 133.989 430.41C140.259 407.92 142.249 394.26 142.249 394.26C142.249 394.26 153.059 414.18 153.059 448.92C153.059 479.77 155.309 564.27 155.809 603.2V603.19Z" fill="url(#paint6_linear_2646_3075)"/>
<path d="M69.2296 578.3C69.2296 578.3 21.8396 589.36 19.1296 570.58C16.4196 551.79 40.4196 471.89 42.5096 453.31C44.5896 434.73 56.9096 386.72 59.8296 371.9C60.6496 367.77 62.4696 362.27 64.6996 356.45C66.8996 356.45 68.5596 357.6 69.0896 358.39C70.2295 360.1 69.2296 578.3 69.2296 578.3Z" fill="url(#paint7_linear_2646_3075)"/>
<path d="M27.4096 289.43C35.6596 284.8 47.9396 288.37 50.4996 301.8C53.0596 315.23 51.5496 328.38 57.4296 334.62C63.1996 333.55 72.5796 331.64 72.5796 331.64L81.5096 333.89C81.5096 333.89 79.3096 337.62 73.1396 337.21C66.9696 336.8 67.1896 340.07 71.1596 343.16L72.7096 344.02L63.6196 367.83C63.6196 367.83 49.9596 357.72 47.1796 354.16C44.3996 350.61 43.1396 346.5 39.1896 338.82C35.2496 331.14 1.20957 304.15 27.4096 289.43Z" fill="url(#paint8_linear_2646_3075)"/>
<path style="mix-blend-mode:multiply" d="M88.0396 263.86C88.0396 263.86 139.25 253.84 174.31 260.24C172.08 281.39 123.38 305.6 88.0396 263.86Z" fill="url(#paint9_radial_2646_3075)"/>
<path d="M153.739 224.12H177.799C177.799 224.12 175.629 249.28 165.759 246.93C155.889 244.58 153.739 224.12 153.739 224.12Z" fill="#CFDDF1"/>
<path d="M73.0192 341.17L62.6392 371.19L77.5392 342.37L73.0192 341.17Z" fill="#AD1409"/>
<path d="M228.159 440.46C228.159 440.46 207.179 454.13 206.549 450.39C206.189 448.22 212.279 442.61 216.949 438.37C219.939 433.85 218.769 427.82 218.769 427.82C218.769 427.82 210.599 440.5 209.449 437.52C208.429 434.87 211.159 427.61 216.899 420.59C218.419 418.74 218.679 418.58 219.809 416.08C220.879 413.72 221.149 412.21 221.149 412.21C221.149 412.21 221.369 411.18 221.399 410.63C222.059 370.28 216.479 358.08 215.719 346.03C214.749 330.64 213.189 316.37 215.719 312.27C215.719 312.27 238.789 317.21 242.679 327.9C246.259 337.72 236.119 397.81 233.209 413.99C233.299 414.5 233.319 415.09 233.299 415.76C233.409 426.3 228.159 440.47 228.159 440.47V440.46Z" fill="url(#paint10_linear_2646_3075)"/>
<path d="M213.819 179.16C213.819 179.16 234.379 184.72 246.599 276.96C249.189 303.57 249.159 301.4 246.599 337.07C246.219 342.39 211.489 335.75 211.659 330.08C212.699 294.89 212.919 289.86 211.519 285.04C196.149 232.22 182.529 221.56 213.819 179.16Z" fill="#E1EFFF"/>
<path d="M209.569 318.97L210.569 336.69L246.209 348.91L250.139 327.02L209.569 318.97Z" fill="#CFDDF1"/>
<path d="M236.099 410.41C235.539 413.49 233.769 415.74 232.159 415.44C230.549 415.14 229.679 412.41 230.239 409.34C230.799 406.27 232.569 404.01 234.189 404.31C235.809 404.61 236.669 407.34 236.109 410.41H236.099Z" fill="#303030"/>
<path d="M236.099 410.41C235.589 413.21 234.209 415.3 233.009 415.08C231.809 414.86 231.259 412.42 231.769 409.62C232.279 406.82 233.659 404.73 234.859 404.95C236.059 405.17 236.609 407.61 236.099 410.41Z" fill="#454545"/>
<path d="M231.389 406.95L221.419 406.18V409.46L230.509 410.85L231.389 406.95Z" fill="#EDEDED"/>
<path d="M233.909 413.15L233.359 409.73L234.489 407.72L234.819 407.91L233.759 409.8L234.289 413.09L233.909 413.15Z" fill="#7D7D7D"/>
</g>
<defs>
<linearGradient id="paint0_linear_2646_3075" x1="176.089" y1="69.673" x2="176.089" y2="107.141" gradientUnits="userSpaceOnUse">
<stop stop-color="#F3A391"/>
<stop offset="1" stop-color="#FED08E"/>
</linearGradient>
<linearGradient id="paint1_linear_2646_3075" x1="88.0293" y1="69.4728" x2="88.0293" y2="106.941" gradientUnits="userSpaceOnUse">
<stop stop-color="#F3A391"/>
<stop offset="1" stop-color="#FED08E"/>
</linearGradient>
<linearGradient id="paint2_linear_2646_3075" x1="133.059" y1="24.4897" x2="133.059" y2="166.145" gradientUnits="userSpaceOnUse">
<stop stop-color="#F3A391"/>
<stop offset="1" stop-color="#FED08E"/>
</linearGradient>
<linearGradient id="paint3_linear_2646_3075" x1="132.069" y1="129.15" x2="132.069" y2="203.756" gradientUnits="userSpaceOnUse">
<stop stop-color="#F3A391"/>
<stop offset="1" stop-color="#FED08E"/>
</linearGradient>
<linearGradient id="paint4_linear_2646_3075" x1="116.124" y1="588.225" x2="116.124" y2="781.917" gradientUnits="userSpaceOnUse">
<stop stop-color="#F3A391"/>
<stop offset="1" stop-color="#FED08E"/>
</linearGradient>
<linearGradient id="paint5_linear_2646_3075" x1="151.614" y1="588.38" x2="151.614" y2="802.208" gradientUnits="userSpaceOnUse">
<stop stop-color="#F3A391"/>
<stop offset="1" stop-color="#FED08E"/>
</linearGradient>
<linearGradient id="paint6_linear_2646_3075" x1="134.069" y1="185.79" x2="130.079" y2="552.86" gradientUnits="userSpaceOnUse">
<stop stop-color="#C1210D"/>
<stop offset="0.52" stop-color="#C1210D"/>
<stop offset="1" stop-color="#9D1D06"/>
</linearGradient>
<linearGradient id="paint7_linear_2646_3075" x1="14.8796" y1="191.16" x2="49.7896" y2="517.46" gradientUnits="userSpaceOnUse">
<stop stop-color="#C1210D"/>
<stop offset="0.52" stop-color="#C1210D"/>
<stop offset="1" stop-color="#9D1D06"/>
</linearGradient>
<linearGradient id="paint8_linear_2646_3075" x1="49.546" y1="292.302" x2="49.546" y2="390.367" gradientUnits="userSpaceOnUse">
<stop stop-color="#F3A391"/>
<stop offset="1" stop-color="#FED08E"/>
</linearGradient>
<radialGradient id="paint9_radial_2646_3075" cx="0" cy="0" r="1" gradientUnits="userSpaceOnUse" gradientTransform="translate(131.06 243.63) scale(43.16 43.16)">
<stop stop-color="#DBDBDB"/>
<stop offset="0.17" stop-color="#E3E3E3"/>
<stop offset="0.67" stop-color="#F7F7F7"/>
<stop offset="1" stop-color="white"/>
</radialGradient>
<linearGradient id="paint10_linear_2646_3075" x1="224.985" y1="320.558" x2="224.985" y2="489.973" gradientUnits="userSpaceOnUse">
<stop stop-color="#F3A391"/>
<stop offset="1" stop-color="#FED08E"/>
</linearGradient>
<clipPath id="clip0_2646_3075">
<rect width="250" height="770" fill="white"/>
</clipPath>
</defs>
</svg>
