<svg width="276" height="768" viewBox="0 0 276 768" fill="none" xmlns="http://www.w3.org/2000/svg">
<g clip-path="url(#clip0_2646_3085)">
<path d="M217.548 102.02C207.508 84.27 204.148 66.09 204.328 58.79C204.358 58.2 204.378 57.61 204.398 57.02C204.448 56.01 204.508 55.45 204.508 55.45H204.428C204.428 24.83 180.218 0 150.368 0C120.518 0 96.3081 24.83 96.3081 55.45C96.3081 57 96.3881 58.54 96.5081 60.06C96.5681 68.05 92.7781 85.23 83.2681 102.02C71.4481 122.9 70.1881 144.96 93.6581 153.84C93.6581 153.84 93.7781 153.88 93.9481 153.94C96.1581 154.76 98.5581 155.47 101.208 156.05C101.828 156.18 102.428 156.28 103.038 156.4C118.868 160.13 158.048 165.7 195.188 156.86C196.648 156.63 198.128 156.38 199.628 156.05C203.788 155.14 207.358 153.92 210.448 152.44C210.468 152.44 210.498 152.42 210.518 152.42H210.508C230.478 142.75 228.778 121.87 217.558 102.03L217.548 102.02Z" fill="black"/>
<path d="M150.094 105.53C178.862 105.53 202.184 82.7862 202.184 54.7302C202.184 26.6741 178.862 3.93018 150.094 3.93018C121.325 3.93018 98.0039 26.6741 98.0039 54.7302C98.0039 82.7862 121.325 105.53 150.094 105.53Z" fill="black"/>
<mask id="mask0_2646_3085" style="mask-type:luminance" maskUnits="userSpaceOnUse" x="183" y="65" width="17" height="29">
<path d="M185.784 69.4302C180.974 75.1102 184.174 88.8202 184.724 90.5202C185.534 93.0102 188.334 96.0702 193.014 91.5202C198.054 86.6002 203.184 69.1202 195.944 66.0002C194.934 65.5602 193.974 65.3802 193.064 65.3802C188.824 65.3802 185.874 69.3102 185.774 69.4302" fill="white"/>
</mask>
<g mask="url(#mask0_2646_3085)">
<path d="M203.193 65.3802H180.983V96.0702H203.193V65.3802Z" fill="url(#paint0_linear_2646_3085)"/>
</g>
<mask id="mask1_2646_3085" style="mask-type:luminance" maskUnits="userSpaceOnUse" x="96" y="65" width="17" height="29">
<path d="M100.164 65.7998C92.9241 68.9198 98.0441 86.3998 103.094 91.3198C107.774 95.8698 110.584 92.8198 111.394 90.3298C111.944 88.6298 115.144 74.9198 110.334 69.2398C110.234 69.1198 107.284 65.1898 103.044 65.1898C102.134 65.1898 101.174 65.3698 100.164 65.8098" fill="white"/>
</mask>
<g mask="url(#mask1_2646_3085)">
<path d="M115.134 65.1898H92.9238V95.8798H115.134V65.1898Z" fill="url(#paint1_linear_2646_3085)"/>
</g>
<mask id="mask2_2646_3085" style="mask-type:luminance" maskUnits="userSpaceOnUse" x="109" y="15" width="81" height="117">
<path d="M149.054 15.11C149.054 15.11 148.964 15.11 148.914 15.11C114.484 15.32 111.784 53.21 111.784 53.21C111.784 53.21 106.764 93.15 110.344 102.89C112.884 109.8 121.124 117.6 129.094 123.04C132.364 125.27 135.594 127.12 138.364 128.33C142.734 130.25 146.064 130.98 148.614 131.11C148.704 131.11 148.804 131.11 148.894 131.11C148.924 131.11 148.954 131.11 148.974 131.11H149.044C149.044 131.11 149.094 131.11 149.114 131.11C149.114 131.11 149.164 131.11 149.184 131.11C149.284 131.11 149.384 131.11 149.474 131.11C152.024 130.98 155.344 130.24 159.724 128.33C161.954 127.35 164.484 125.96 167.084 124.3C175.614 118.85 185.004 110.35 187.754 102.88C191.334 93.14 186.304 53.2 186.304 53.2C186.304 53.2 183.604 15.31 149.174 15.1C149.124 15.1 149.074 15.1 149.034 15.1" fill="white"/>
</mask>
<g mask="url(#mask2_2646_3085)">
<path d="M191.355 15.11H106.765V131.14H191.355V15.11Z" fill="url(#paint2_linear_2646_3085)"/>
</g>
<mask id="mask3_2646_3085" style="mask-type:luminance" maskUnits="userSpaceOnUse" x="108" y="123" width="80" height="62">
<path d="M127.814 148.43C126.014 154 119.254 157.37 108.374 162.11C108.404 164.2 109.494 181.71 138.964 184.17H149.974C185.424 184.17 187.634 165.22 187.764 162.07C176.944 157.35 170.224 153.98 168.434 148.43C166.924 143.77 166.964 131.33 167.114 124.32C164.504 125.98 161.984 127.37 159.754 128.35C155.374 130.27 152.054 131 149.504 131.13C149.414 131.13 149.314 131.13 149.214 131.13C149.194 131.13 149.164 131.13 149.144 131.13H149.074C149.074 131.13 149.024 131.13 149.004 131.13C149.004 131.13 148.954 131.13 148.924 131.13C148.834 131.13 148.734 131.13 148.644 131.13C146.084 131 142.764 130.26 138.394 128.35C135.624 127.14 132.394 125.29 129.124 123.06C129.294 129.73 129.434 143.49 127.834 148.44" fill="white"/>
</mask>
<g mask="url(#mask3_2646_3085)">
<path d="M187.764 123.05H108.374V184.16H187.764V123.05Z" fill="url(#paint3_linear_2646_3085)"/>
</g>
<g style="mix-blend-mode:multiply" opacity="0.2">
<mask id="mask4_2646_3085" style="mask-type:luminance" maskUnits="userSpaceOnUse" x="128" y="123" width="40" height="22">
<path d="M167.104 123.07H128.544V144.74H167.104V123.07Z" fill="white"/>
</mask>
<g mask="url(#mask4_2646_3085)">
<mask id="mask5_2646_3085" style="mask-type:luminance" maskUnits="userSpaceOnUse" x="128" y="123" width="40" height="22">
<path d="M167.104 123.07H128.544V144.74H167.104V123.07Z" fill="white"/>
</mask>
<g mask="url(#mask5_2646_3085)">
<path d="M167.104 124.33C164.504 125.99 161.974 127.38 159.744 128.36C155.374 130.27 152.044 131.01 149.494 131.14C149.404 131.14 149.304 131.14 149.204 131.15H149.124H149.054H148.974H148.894C148.794 131.15 148.704 131.15 148.604 131.14C146.054 131.01 142.724 130.27 138.354 128.36C135.584 127.15 132.354 125.3 129.084 123.07C129.224 128.46 129.334 138.49 128.524 144.74C141.764 142.35 155.054 137.95 167.024 131.27C167.024 128.72 167.044 126.3 167.084 124.32" fill="url(#paint4_linear_2646_3085)"/>
</g>
</g>
</g>
<path d="M152.864 97.03C152.634 97.03 152.404 97.02 152.174 96.99C151.704 96.94 151.364 96.51 151.414 96.04C151.464 95.57 151.874 95.23 152.354 95.29C153.734 95.44 154.884 94.99 155.604 94.01C156.914 92.24 156.714 89.01 155.044 85.16C149.934 73.35 154.644 67.17 154.844 66.91C155.134 66.54 155.674 66.48 156.044 66.77C156.414 67.06 156.474 67.6 156.184 67.97C156.004 68.2 151.934 73.67 156.604 84.48C159.224 90.54 157.954 93.68 156.964 95.02C156.014 96.31 154.534 97.02 152.844 97.02" fill="#79463D"/>
<path d="M173.444 74.7403C173.444 76.7103 171.844 78.3203 169.864 78.3203C167.884 78.3203 166.294 76.7103 166.294 74.7403C166.294 72.7703 167.894 71.1703 169.864 71.1703C171.834 71.1703 173.444 72.7803 173.444 74.7403Z" fill="#231F20"/>
<path d="M131.714 74.96C131.714 76.93 130.124 78.54 128.134 78.54C126.144 78.54 124.564 76.93 124.564 74.96C124.564 72.99 126.174 71.39 128.134 71.39C130.094 71.39 131.714 73 131.714 74.96Z" fill="#231F20"/>
<path d="M132.986 103.93C132.986 103.93 138.055 111.578 149.298 111.578C149.298 111.578 161.858 112.164 167.765 104.391L167.986 104.072C148.413 111.159 132.986 103.93 132.986 103.93Z" fill="white"/>
<path d="M169.14 19.9302C169.14 19.9302 151.76 43.8802 188.25 67.8402C188.25 67.8402 188.9 28.0602 169.14 19.9302Z" fill="black"/>
<path d="M101.998 65.3299C101.998 65.3299 173.838 64.9599 185.348 29.3999C185.348 29.3999 167.508 5.46993 134.518 15.2999C101.538 25.1399 101.998 65.3299 101.998 65.3299Z" fill="black"/>
<path d="M66.9995 376.13C60.5495 396.82 47.7295 439.45 45.4195 444.42C42.6995 450.29 30.0695 448.85 27.2395 447.51C24.4095 446.16 17.5995 447.11 15.2295 446.88C12.8395 446.64 10.6895 443.49 13.5295 443.06C16.3595 442.64 28.2895 442.44 27.9495 440.99C27.5895 439.54 18.1395 436.31 18.1395 436.31C18.1395 436.31 11.1595 435.94 5.6195 436.84C0.0894985 437.72 -1.2705 434.72 1.1495 434.32C3.5695 433.94 15.3095 431.11 17.8595 431.85C20.4195 432.58 32.0095 432.7 32.0095 432.7C32.0095 432.7 37.7695 411.31 41.6495 388.5C45.5195 365.69 52.3195 327 56.3095 300.52C57.0595 295.55 58.1895 286.94 59.6195 278.35C63.7495 253.28 64.1095 214.09 76.8995 191.61C82.6795 181.46 90.0595 175.18 92.4195 170.93C92.4195 170.93 107.789 198.79 105.829 210.47C104.499 218.47 94.9295 255.2 88.1595 284.51C85.0495 297.95 82.6295 309.84 81.6895 316.67C78.7595 338.05 73.5995 354.9 66.9795 376.13H66.9995Z" fill="url(#paint5_linear_2646_3085)"/>
<path d="M199.63 589.42C196.95 551.57 172.47 525.02 172.47 525.02C172.47 525.02 207.34 415.86 204.7 380.75C203.08 358.76 184.89 339.59 171.54 328.33C170.33 327.32 169.19 326.4 168.1 325.52C165.82 323.7 163.78 322.14 162.09 320.93C159.15 318.8 157.31 317.66 157.31 317.66L142.19 320.6L128.74 323.21L88.5699 331.53C88.6599 333.66 87.0799 337.33 87.1299 339.61C87.2199 345.03 86.1899 348.5 85.9799 354.62C85.7999 359.73 82.8499 369.61 82.5199 375.11C78.2399 443.09 58.0699 546.89 58.2899 565.8C58.5799 588.84 111.41 689.19 111.41 689.19L128.49 683.77C128.49 683.77 120.82 611.82 103.51 589.3C86.1999 566.78 76.5199 556.78 76.5199 556.78C76.5199 556.78 135.87 472.77 142.07 443.14C145.42 459.12 152.31 508.57 156.87 558.82C162.63 622.4 166.81 657.21 166.81 657.21C166.87 661.33 190.64 661.77 190.64 661.77C190.64 661.77 202.29 627.26 199.64 589.41L199.63 589.42Z" fill="url(#paint6_linear_2646_3085)"/>
<path d="M131.591 757.81H125.111C124.631 757.81 124.231 757.43 124.211 756.95L123.331 736.08L104.041 755.02C102.641 756.4 100.761 757.2 98.8012 757.26L56.4212 758.54C55.0512 758.54 54.4712 756.79 55.5912 755.98C64.2712 749.7 88.8512 732.16 95.0512 725.03C100.761 718.46 104.951 702.1 104.951 702.1L125.921 690.67C125.921 690.67 131.231 697.98 134.741 704.5V704.55C135.911 706.74 136.831 708.83 137.351 710.57C139.161 716.84 133.421 751.54 132.491 757.08C132.421 757.51 132.041 757.82 131.601 757.82L131.591 757.81Z" fill="#1B434C"/>
<path d="M183.93 690.635C183.93 690.635 186.89 695.765 187.01 699.185C187.12 702.605 191.91 706.705 191.8 709.555C191.69 712.405 188.95 722.885 188.84 724.935C188.73 726.985 190.44 739.175 190.89 743.055C191.34 746.935 191.84 754.655 189.57 755.925C186.36 757.715 175.64 764.925 170.6 764.925C166.45 764.925 153.29 756.115 152.9 754.625C152.62 753.545 152.31 750.575 152.82 748.305C153.6 744.855 158.75 724.945 161.48 717.535C164.21 710.125 183.93 690.645 183.93 690.645V690.635Z" fill="#1B434C"/>
<path d="M100.001 673.45C103.801 686.6 109.371 693.9 103.551 703.36C94.4705 718.16 84.5405 733.59 80.3405 739.24C73.2705 748.78 84.3607 751.2 89.4907 748.94C95.7007 746.21 103.551 741.44 107.991 737.44C112.961 732.35 127.751 714.65 129.531 711.62C134.201 703.61 134.101 703.47 132.991 697.81C131.681 691.09 128.201 670.05 127.251 663L100.001 673.44V673.45Z" fill="url(#paint7_linear_2646_3085)"/>
<path d="M164.52 665.855C165.2 679.195 163.83 688.915 163.26 698.435C162.97 703.205 162.66 707.975 162.32 709.855C161.98 711.735 161 717.175 161 717.765C161 718.355 158.31 729.295 159.17 734.755C160.03 740.215 164.68 744.675 171.5 745.265C178.32 745.855 186.8 740.635 187.82 738.335C188.84 736.035 189.44 731.085 188.93 730.065C188.42 729.045 187.31 719.915 188.59 715.825C189.87 711.735 188.08 706.865 187.91 705.935C187.74 705.005 188.47 694.245 188.39 693.395C188.31 692.545 189.65 678.365 191.26 669.195C192.67 661.165 163.27 640.975 164.53 665.865L164.52 665.855Z" fill="url(#paint8_linear_2646_3085)"/>
<path opacity="0.6" d="M86.02 354.98C86.6 348.63 88.42 343.66 88.33 338.24C88.29 335.96 90.44 326.8 90.35 324.67L135.14 321.54L142.32 363.17L84 371.27C84.33 365.76 85.56 360.08 86.03 354.98H86.02Z" fill="url(#paint9_linear_2646_3085)"/>
<path d="M276.309 288.17C274.339 300.33 215.159 342.48 204.949 349.9C204.349 350.34 203.539 349.77 203.729 349.05L205.709 336.54L246.369 283.37L246.349 283.3C246.129 282.42 244.069 274.48 240.209 265.31C237.029 257.7 232.599 249.25 226.999 243.32L254.909 220.7C254.909 220.7 259.249 230.62 264.039 243.02C267.969 253.2 272.199 265.07 274.569 274.49C276.039 280.33 276.789 285.22 276.299 288.18L276.309 288.17Z" fill="url(#paint10_linear_2646_3085)"/>
<path d="M93.419 164.25C85.379 167.14 78.429 191.7 65.999 202.9C67.459 208.68 77.699 214.46 77.699 214.46C77.699 214.46 107.319 197.12 105.489 184.48C103.659 171.84 93.409 164.25 93.409 164.25H93.419Z" fill="url(#paint11_linear_2646_3085)"/>
<path d="M201.019 602.72C200.379 622.76 199.759 638.18 191.219 668.89C182.239 671.1 168.659 668.49 164.479 665.27C162.859 621.69 158.749 604.8 154.729 568.6C157.899 568.18 179.809 564.72 182.729 552.62C181.019 554.61 167.489 561.52 157.229 561.28C157.039 559.67 156.849 558.09 156.669 556.5C175.759 557.75 180.019 547.66 180.249 547.06C179.539 547.33 163.729 552.59 153.679 550.39C148.489 509.04 144.719 476.57 141.019 459.87C140.989 459.71 140.969 459.62 140.969 459.62C140.929 459.87 140.859 460.11 140.789 460.36C140.689 460.75 140.579 461.16 140.459 461.59C139.529 465.13 138.089 469.12 136.239 473.51C136.049 473.96 135.869 474.43 135.659 474.92C130.199 487.6 124.819 501.33 117.189 517.71C112.379 528.03 110.309 532.46 106.559 541.72C101.399 554.44 98.8092 560.85 98.8092 560.85C98.8092 560.85 100.079 561.45 111.789 590.46C118.519 607.13 122.899 636.24 128.009 667.3C123.859 670.51 111.449 676.51 101.369 676.87C82.7092 641.43 68.7792 611.15 59.5492 583.88L75.1392 561.92L58.3092 565.74C58.3092 564.56 58.3692 563.13 58.4892 561.48L75.9192 559.34L55.9492 553C59.4992 520.24 64.9092 475.27 80.4592 383.97C80.5792 383.24 80.5792 382.5 80.6192 381.76C81.0092 376.63 81.2692 371.65 81.4492 366.85C117.229 367.9 172.839 345.77 188.289 331.06C190.279 334.19 191.399 335.01 194.359 339.4C194.789 340.04 196.339 342.12 196.809 342.77C208.759 359.32 217.239 372.15 218.749 391.01C221.599 426.72 188.489 537.47 188.489 537.47C188.489 537.47 202.299 562.54 201.009 602.73L201.019 602.72Z" fill="#398DA5"/>
<g style="mix-blend-mode:multiply" opacity="0.5">
<path d="M181.429 514.75L179.969 520.69L182.289 521.18L183.749 515.24L181.429 514.75Z" fill="#0F8691"/>
<path d="M199.409 380.99C198.499 379.09 197.469 377.22 196.299 375.41L194.239 376.43C195.339 378.18 196.339 379.99 197.219 381.8L199.399 380.99H199.409Z" fill="#0F8691"/>
<path d="M193.079 475.53L190.739 475.1C190.309 477.08 189.869 479.08 189.409 481.04L191.749 481.49C192.199 479.53 192.619 477.53 193.069 475.53H193.079Z" fill="#0F8691"/>
<path d="M184.799 500.89L187.119 501.36L188.539 495.4L186.189 494.95L184.799 500.89Z" fill="#0F8691"/>
<path d="M204.669 401.05C204.519 398.94 204.249 396.88 203.889 394.9L201.529 395.2C201.889 397.14 202.129 399.14 202.279 401.16L204.659 401.05H204.669Z" fill="#0F8691"/>
<path d="M186.859 363.64C185.409 362.17 183.859 360.68 182.149 359.1L180.449 360.59C182.139 362.12 183.659 363.57 185.069 365.02L186.859 363.64Z" fill="#0F8691"/>
<path d="M197.729 441.23L200.07 441.61C200.45 439.57 200.83 437.56 201.16 435.58L198.789 435.24C198.459 437.2 198.109 439.2 197.729 441.22V441.23Z" fill="#0F8691"/>
<path d="M201.009 421.21L203.369 421.49C203.669 419.36 203.909 417.34 204.119 415.4L201.759 415.19C201.549 417.09 201.289 419.11 201.009 421.22V421.21Z" fill="#0F8691"/>
<path d="M193.759 461.18L196.099 461.58C196.529 459.58 196.929 457.58 197.329 455.6L194.989 455.2C194.589 457.18 194.189 459.18 193.759 461.18Z" fill="#0F8691"/>
<path d="M178.829 534.88L176.509 534.38L175.579 537.96L175.919 538.36C175.919 538.36 176.669 539.25 177.839 540.95L179.859 539.85C179.089 538.73 178.489 537.95 178.139 537.51L178.819 534.89L178.829 534.88Z" fill="#0F8691"/>
<path d="M193.219 582.55L195.579 582.32C195.259 580.08 194.869 577.85 194.439 575.66L192.079 576.02C192.509 578.17 192.899 580.36 193.219 582.56V582.55Z" fill="#0F8691"/>
<path d="M187.649 554.04L185.419 554.78C186.309 556.8 187.149 558.91 187.909 561.02L190.169 560.4C189.399 558.23 188.539 556.1 187.649 554.03V554.04Z" fill="#0F8691"/>
<path d="M194.419 600.52C194.419 601.86 194.409 603.22 194.359 604.57L196.749 604.66C196.799 603.3 196.809 601.91 196.809 600.55C196.819 599.72 196.809 598.87 196.799 598.04V597.95L194.419 598.04C194.429 598.87 194.439 599.7 194.429 600.53L194.419 600.52Z" fill="#0F8691"/>
<path d="M192.779 626.67L195.139 626.88C195.399 624.69 195.629 622.45 195.809 620.24L193.449 620.05C193.239 622.26 193.009 624.46 192.779 626.67Z" fill="#0F8691"/>
<path d="M189.649 648.62L192.019 648.96C192.369 646.81 192.749 644.6 193.099 642.36L190.729 642.04C190.379 644.28 190.029 646.47 189.649 648.62Z" fill="#0F8691"/>
</g>
<g style="mix-blend-mode:multiply" opacity="0.5">
<path d="M189.339 350.18C188.739 349.61 188.159 349.06 187.579 348.51C176.309 364.63 147.719 379.7 119.609 386.87L115.199 370.89L112.899 371.5L117.299 387.46C104.059 390.64 91.0394 392.01 80.0994 390.87C80.0594 391.66 79.9995 392.44 79.9395 393.23C82.7095 393.56 85.5995 393.71 88.5795 393.71C97.7695 393.71 107.839 392.34 117.989 389.94L128.679 428.7L129.969 428.08C130.339 427.9 139.069 423.54 138.199 407.66C137.539 395.67 135.009 388.22 133.849 385.35C157.489 377.28 179.379 364.25 189.339 350.2V350.18ZM135.819 407.74C136.409 418.54 132.299 423.33 130.149 425.07L120.299 389.36C124.069 388.41 127.849 387.31 131.589 386.09C132.629 388.67 135.179 396 135.819 407.74Z" fill="#0F8691"/>
</g>
<path d="M128.729 377.37C128.749 379.35 127.169 380.95 125.199 380.95C123.229 380.95 121.599 379.35 121.579 377.37C121.559 375.39 123.139 373.79 125.109 373.79C127.079 373.79 128.709 375.39 128.729 377.37Z" fill="#272727"/>
<path d="M152.28 376.43L141.72 359.1L149.43 355.49L157.41 374.23L152.28 376.43Z" fill="#272727"/>
<path d="M86.9893 392.45L92.3493 392.47L93.5693 370.4H87.9093L86.9893 392.45Z" fill="#272727"/>
<path d="M206.41 344.81C206.13 341.49 205.79 336.47 205.79 336.47C201.59 333.39 193.62 329.85 191.44 329.71C189.65 329.6 183.44 332.8 179.31 334.34C178.33 334.71 178.24 336.12 179.22 336.5C180.91 337.16 182.97 337.3 185.02 336.97C183.06 338.32 180.96 339.76 179.3 340.74C178.28 341.34 178.54 342.95 179.72 343.08C181.49 343.27 183.48 342.77 185.25 342.05C184.45 343.15 183.63 344.26 182.86 345.17C182.03 346.15 182.86 347.71 184.12 347.5C187.43 346.95 190.15 344.02 190.65 342.88C190.82 342.91 191.01 342.94 191.19 342.98C190.67 344.23 189.9 345.73 188.49 347.6C187.6 348.77 188.58 349.58 189.24 349.54C193.82 349.26 195.02 344.16 195.03 344.12C195.07 344.17 200.86 351.74 203.62 350.77C205.28 350.18 205.45 349.36 205.87 348.55C205.94 348.59 206.41 344.81 206.41 344.81Z" fill="url(#paint12_linear_2646_3085)"/>
<path style="mix-blend-mode:multiply" d="M140.969 459.62C140.929 459.87 140.859 460.11 140.789 460.36C140.019 463.42 138.409 467.99 136.239 473.5C136.049 473.95 135.869 474.42 135.659 474.91C130.199 487.59 126.819 497.69 117.189 517.7C112.249 527.96 106.809 536.7 102.059 546.96C81.0994 530.51 77.4394 461.26 84.5494 430.62C89.8994 407.52 103.749 398.13 112.849 394.38C113.359 397.19 114.119 400.34 115.189 403.84C119.299 417.39 127.459 430.11 136.169 434.17L140.959 459.63L140.969 459.62Z" fill="url(#paint13_radial_2646_3085)"/>
<path d="M229.13 174.94C226.1 171.76 219.74 168.05 212.74 164.14C208.69 161.87 183.54 158.12 175.97 154.26C176.54 155.57 160.38 170.03 135.13 168.68C117.2 167.72 122.95 157.16 126.59 151C121.51 153.51 115.83 155.38 111.32 156.74C107.17 157.99 93.1898 164.06 92.4298 164.59C90.2398 166.06 102.51 172.08 98.3698 182.67C94.2298 193.26 73.7198 219.31 70.2098 228.66C67.1098 236.93 85.7098 295.83 79.5098 349.31C125.59 361.38 193.7 320.63 193.7 320.63C193.7 320.63 182.86 295.17 185.43 275.42C188 255.67 202.48 232.53 202.48 232.53C202.48 232.53 217.12 237.64 221.86 243.12C243.08 242.37 258.03 218.06 258.03 218.06C258.03 218.06 237.56 183.7 229.13 174.92V174.94Z" fill="url(#paint14_linear_2646_3085)"/>
</g>
<defs>
<linearGradient id="paint0_linear_2646_3085" x1="192.088" y1="65.3802" x2="192.088" y2="96.0702" gradientUnits="userSpaceOnUse">
<stop stop-color="#8F452F"/>
<stop offset="1" stop-color="#A35D38"/>
</linearGradient>
<linearGradient id="paint1_linear_2646_3085" x1="104.029" y1="65.1898" x2="104.029" y2="95.8798" gradientUnits="userSpaceOnUse">
<stop stop-color="#8F452F"/>
<stop offset="1" stop-color="#A35D38"/>
</linearGradient>
<linearGradient id="paint2_linear_2646_3085" x1="149.06" y1="15.11" x2="149.06" y2="131.14" gradientUnits="userSpaceOnUse">
<stop stop-color="#8F452F"/>
<stop offset="1" stop-color="#A35D38"/>
</linearGradient>
<linearGradient id="paint3_linear_2646_3085" x1="148.069" y1="123.05" x2="148.069" y2="184.16" gradientUnits="userSpaceOnUse">
<stop stop-color="#8F452F"/>
<stop offset="1" stop-color="#A35D38"/>
</linearGradient>
<linearGradient id="paint4_linear_2646_3085" x1="147.814" y1="123.07" x2="147.814" y2="144.74" gradientUnits="userSpaceOnUse">
<stop stop-color="#8F452F"/>
<stop offset="1" stop-color="#A35D38"/>
</linearGradient>
<linearGradient id="paint5_linear_2646_3085" x1="53.0011" y1="170.93" x2="53.0011" y2="448.706" gradientUnits="userSpaceOnUse">
<stop stop-color="#8F452F"/>
<stop offset="1" stop-color="#A35D38"/>
</linearGradient>
<linearGradient id="paint6_linear_2646_3085" x1="131.565" y1="317.66" x2="131.565" y2="689.19" gradientUnits="userSpaceOnUse">
<stop stop-color="#8F452F"/>
<stop offset="1" stop-color="#A35D38"/>
</linearGradient>
<linearGradient id="paint7_linear_2646_3085" x1="105.838" y1="663" x2="105.838" y2="749.727" gradientUnits="userSpaceOnUse">
<stop stop-color="#8F452F"/>
<stop offset="1" stop-color="#A35D38"/>
</linearGradient>
<linearGradient id="paint8_linear_2646_3085" x1="175.154" y1="653.84" x2="175.154" y2="745.311" gradientUnits="userSpaceOnUse">
<stop stop-color="#8F452F"/>
<stop offset="1" stop-color="#A35D38"/>
</linearGradient>
<linearGradient id="paint9_linear_2646_3085" x1="113.16" y1="321.54" x2="113.16" y2="371.27" gradientUnits="userSpaceOnUse">
<stop stop-color="#8F452F"/>
<stop offset="1" stop-color="#A35D38"/>
</linearGradient>
<linearGradient id="paint10_linear_2646_3085" x1="240.075" y1="220.7" x2="240.075" y2="350.054" gradientUnits="userSpaceOnUse">
<stop stop-color="#8F452F"/>
<stop offset="1" stop-color="#A35D38"/>
</linearGradient>
<linearGradient id="paint11_linear_2646_3085" x1="98.969" y1="176.32" x2="78.869" y2="204.03" gradientUnits="userSpaceOnUse">
<stop stop-color="#C1210D"/>
<stop offset="0.52" stop-color="#C1210D"/>
<stop offset="1" stop-color="#9D1D06"/>
</linearGradient>
<linearGradient id="paint12_linear_2646_3085" x1="192.469" y1="329.707" x2="192.469" y2="350.856" gradientUnits="userSpaceOnUse">
<stop stop-color="#8F452F"/>
<stop offset="1" stop-color="#A35D38"/>
</linearGradient>
<radialGradient id="paint13_radial_2646_3085" cx="0" cy="0" r="1" gradientUnits="userSpaceOnUse" gradientTransform="translate(173.669 498.208) scale(99.27 93.3138)">
<stop stop-color="#0D7882"/>
<stop offset="0.05" stop-color="#197E88"/>
<stop offset="0.4" stop-color="#7AB4BA"/>
<stop offset="0.69" stop-color="#C1DCDF"/>
<stop offset="0.9" stop-color="#EEF5F6"/>
<stop offset="1" stop-color="white"/>
</radialGradient>
<linearGradient id="paint14_linear_2646_3085" x1="69.8498" y1="251.28" x2="258.02" y2="251.28" gradientUnits="userSpaceOnUse">
<stop stop-color="#C1210D"/>
<stop offset="0.52" stop-color="#C1210D"/>
<stop offset="1" stop-color="#9D1D06"/>
</linearGradient>
<clipPath id="clip0_2646_3085">
<rect width="276" height="768" fill="white"/>
</clipPath>
</defs>
</svg>
