<svg width="339" height="823" viewBox="0 0 339 823" fill="none" xmlns="http://www.w3.org/2000/svg">
<g clip-path="url(#clip0_2646_3067)">
<path d="M198.339 72.4181L192.857 38.5398L165.518 28.7475L137.551 22.1233L121.465 26.7954L110.606 46.0706L109.445 64.2152V89.5919L115.003 95.16L114.555 101.336L123.423 114.137L151.082 124.377C151.082 124.377 161.068 125.732 161.483 124.974C161.898 124.217 177.824 114.734 177.824 114.734L190.61 106.904L195.965 98.1681L198.339 89.5812L200.969 86.8718L203.045 79.3409L198.329 72.4181H198.339Z" fill="black"/>
<path d="M189.269 165.05C189.269 165.05 177.824 161.775 177.824 155.887V125.646C175.674 127.054 173.491 128.302 171.362 129.433C167.21 131.62 163.378 132.793 160.088 133.401C160.088 133.401 157.97 133.988 154.456 133.956C150.954 133.988 148.835 133.412 148.835 133.412C145.535 132.804 141.703 131.63 137.551 129.444C135.698 128.473 133.814 127.385 131.93 126.201V155.898C131.93 161.786 120.496 165.061 120.496 165.061C119.442 165.253 118.654 165.733 118.069 166.415C115.833 168.997 116.557 174.618 118.069 180.122C119.846 186.619 122.7 192.912 122.998 193.734C124.03 196.55 140.361 227.783 156.245 225.553C172.118 223.324 186.671 189.115 189.184 180.197C190.035 177.189 190.451 174.853 190.61 173.061C191.685 169.904 191.462 167.13 189.269 165.071V165.05Z" fill="url(#paint0_linear_2646_3067)"/>
<g style="mix-blend-mode:multiply" opacity="0.25">
<path d="M160.077 131.044C160.077 131.044 157.959 131.684 154.446 131.652C150.933 131.684 148.814 131.054 148.814 131.054C145.514 130.382 141.681 129.081 137.529 126.66C135.677 125.572 133.793 124.377 131.908 123.065V143.897C147.505 146.372 163.271 140.719 177.803 131.396V122.457C175.653 124.004 173.47 125.401 171.33 126.66C167.178 129.081 163.346 130.382 160.056 131.044H160.077Z" fill="#ECB699"/>
</g>
<mask id="mask0_2646_3067" style="mask-type:luminance" maskUnits="userSpaceOnUse" x="195" y="61" width="16" height="31">
<path d="M200.16 61.3138C197.711 61.9964 196.508 63.6392 195.954 64.3858C195.997 64.5885 196.018 64.8019 196.05 65.0152C197.583 74.5408 198.179 83.8211 198.307 91.2666C200.873 92.2586 204.705 91.4906 207.931 83.8104C211.955 74.1995 210.348 62.0391 204.226 61.1431C203.619 61.0577 203.055 61.0151 202.534 61.0151C201.639 61.0151 200.852 61.1324 200.17 61.3244" fill="white"/>
</mask>
<g mask="url(#mask0_2646_3067)">
<path d="M211.955 61.005H195.954V92.2592H211.955V61.005Z" fill="url(#paint1_linear_2646_3067)"/>
</g>
<mask id="mask1_2646_3067" style="mask-type:luminance" maskUnits="userSpaceOnUse" x="98" y="60" width="15" height="32">
<path d="M104.729 61.1004C98.6076 61.9964 97.0001 74.1568 101.024 83.7677C104.239 91.4266 108.061 92.216 110.627 91.2239C110.755 84.0451 111.308 75.1595 112.724 65.9966C112.809 65.4419 112.895 64.8872 112.98 64.3325C112.309 63.4151 110.691 61.2391 107.114 60.9937C106.88 60.9831 106.645 60.9617 106.39 60.9617C105.868 60.9617 105.315 61.0044 104.718 61.0897" fill="white"/>
</mask>
<g mask="url(#mask1_2646_3067)">
<path d="M112.99 60.9724H97V92.216H112.99V60.9724Z" fill="url(#paint2_linear_2646_3067)"/>
</g>
<mask id="mask2_2646_3067" style="mask-type:luminance" maskUnits="userSpaceOnUse" x="113" y="13" width="83" height="97">
<path d="M147.781 13.8884C146.834 14.0484 145.886 14.2404 144.928 14.4964C128.97 18.6672 120.272 34.497 115.631 51.9375C114.928 53.8149 114.193 57.943 114.193 57.943C113.746 60.0337 113.363 62.1351 113.012 64.2045C114.385 77.3675 116.61 97.1654 117.845 100.526C118.164 101.411 118.942 102.339 119.995 103.278C123.423 105.56 128.193 108.483 131.259 109.315C136.497 110.723 137.572 106.755 138.509 103.214C139.446 99.6615 141.862 95.7041 147.909 95.1281C148.41 95.0854 148.889 95.0534 149.357 95.0214C149.464 95.0107 149.549 95 149.645 94.9894C153.019 94.7334 161.078 94.4134 164.666 96.1521C168.137 97.6348 169.744 100.622 170.479 103.352C171.416 106.904 172.491 110.873 177.718 109.454C180.795 108.611 185.564 105.688 188.992 103.416C190.057 102.478 190.823 101.55 191.143 100.664C192.377 97.3148 194.592 77.6449 195.965 64.4925V64.4605C195.965 64.4605 195.965 64.4072 195.955 64.3752C195.603 62.2311 195.209 60.0764 194.741 57.9216C194.741 57.9216 194.017 53.8042 193.314 51.9161C189.301 36.8864 182.285 23.0833 170.213 16.8751C170.117 16.8218 170.032 16.7685 169.936 16.7151C169.755 16.6298 169.574 16.5338 169.382 16.4485C165.39 14.4751 161.547 13.7817 159.343 13.5471C157.725 13.3337 156.149 13.2484 154.669 13.2484C152.008 13.2484 149.634 13.5364 147.771 13.8671" fill="white"/>
</mask>
<g mask="url(#mask2_2646_3067)">
<path d="M195.976 13.2697H113.012V110.883H195.976V13.2697Z" fill="url(#paint3_linear_2646_3067)"/>
</g>
<path d="M112.724 65.9965C111.308 75.1595 110.755 84.0451 110.627 91.2239C110.606 91.7573 110.606 92.28 110.606 92.792C110.425 111.385 124.871 122.723 137.561 129.433C141.713 131.63 145.546 132.804 148.835 133.39C148.835 133.39 150.954 133.977 154.467 133.934C157.97 133.966 160.088 133.401 160.088 133.401C163.388 132.793 167.221 131.62 171.373 129.433C184.052 122.734 198.51 111.395 198.329 92.792C198.329 92.2906 198.318 91.7786 198.307 91.2559C198.179 83.8104 197.583 74.5408 196.05 65.0045C196.018 64.8232 195.997 64.6525 195.965 64.4712C194.592 77.6235 192.377 97.3148 191.142 100.664C190.812 101.55 190.046 102.478 188.981 103.416C185.553 105.699 180.784 108.622 177.707 109.454C172.48 110.873 171.394 106.904 170.468 103.363C169.744 100.622 168.126 97.6455 164.655 96.1627C161.057 94.424 153.009 94.744 149.623 95C149.527 95 149.442 95.0107 149.336 95.0214C148.867 95.0534 148.388 95.0854 147.888 95.128C141.852 95.7041 139.435 99.6722 138.487 103.214C137.551 106.755 136.475 110.734 131.238 109.315C128.172 108.483 123.402 105.56 119.974 103.278C118.91 102.339 118.143 101.411 117.824 100.526C116.589 97.1654 114.364 77.3675 112.99 64.2045C112.99 64.2472 112.98 64.2898 112.969 64.3325C112.884 64.8872 112.799 65.4419 112.714 65.9965" fill="black"/>
<path d="M212.701 0.821357C211.37 1.2587 208.101 2.14406 200.788 3.90411C183.211 8.14957 168.041 -0.91736 141.734 0.0746688C120.549 0.874692 115.556 13.1524 114.406 17.9205C105.9 24.4594 104.612 36.9291 105.176 46.988C105.527 53.2709 106.613 58.615 107.114 60.9937C110.691 61.2497 112.309 63.4151 112.969 64.3325C113.331 62.1991 113.725 60.0657 114.172 57.943C114.172 57.943 114.896 53.8255 115.609 51.9481C116.28 49.4201 117.046 46.9453 117.898 44.5133C133.324 37.3984 134.091 28.5875 134.091 28.5875C158.001 44.5559 180.305 46.2627 191.504 45.9746C192.154 47.9374 192.761 49.9321 193.304 51.9588C194.006 53.8362 194.73 57.9537 194.73 57.9537C195.188 60.1084 195.582 62.2631 195.944 64.4072C196.497 63.6498 197.7 62.0071 200.149 61.3244C200.66 58.9564 201.969 52.7268 202.236 45.516C202.236 45.2706 202.257 45.0146 202.267 44.7693C221.271 31.6382 213.648 4.00011 212.701 0.821357Z" fill="black"/>
<path d="M141.468 105.08C141.468 105.08 145.099 111.129 153.168 111.129C153.168 111.129 162.175 111.587 166.412 105.443L166.571 105.187C152.54 110.798 141.479 105.08 141.479 105.08" fill="white"/>
<path d="M159.545 90.9679C159.13 90.9679 158.757 90.6906 158.64 90.2746C158.502 89.7732 158.8 89.2612 159.3 89.1332C160.45 88.8239 163.133 87.5758 163.612 85.8691C163.942 84.6958 162.281 80.845 160.823 77.4529C159.918 75.3408 158.981 73.1648 158.236 71.0847C155.99 64.7805 159.162 59.2337 159.3 58.999C159.567 58.551 160.131 58.4017 160.578 58.6683C161.025 58.9244 161.174 59.5004 160.919 59.9484C160.887 60.0017 158.055 64.9939 160.003 70.466C160.727 72.4927 161.643 74.6368 162.537 76.7169C164.634 81.581 165.89 84.6531 165.401 86.3811C164.645 89.0799 161.089 90.5839 159.779 90.9359C159.694 90.9573 159.62 90.9679 159.535 90.9679" fill="#79463D"/>
<path d="M178.846 70.018C178.846 71.9274 177.303 73.4848 175.386 73.4848C173.47 73.4848 171.937 71.9274 171.937 70.018C171.937 68.1086 173.491 66.5619 175.386 66.5619C177.281 66.5619 178.846 68.1193 178.846 70.018Z" fill="#231F20"/>
<path d="M138.541 70.2313C138.541 72.1407 137.008 73.6981 135.081 73.6981C133.154 73.6981 131.631 72.1407 131.631 70.2313C131.631 68.3219 133.186 66.7752 135.081 66.7752C136.976 66.7752 138.541 68.3326 138.541 70.2313Z" fill="#231F20"/>
</g>
<g clip-path="url(#clip1_2646_3067)">
<mask id="mask3_2646_3067" style="mask-type:luminance" maskUnits="userSpaceOnUse" x="216" y="326" width="41" height="170">
<path d="M224.204 355.841C225.558 369.973 231.171 419.076 231.457 428.086C229.416 435.321 218.728 438.88 217.639 445.767C217.11 449.115 217.861 453.297 217.491 456.867C217.015 461.25 214.404 468.074 221.233 465.676C223.39 464.937 228.179 451.977 230.082 452.41C232.821 453.023 235.495 464.799 236.257 466.954C238.657 473.756 238.509 480.959 239.101 488.046C239.249 489.852 239.153 495.577 241.649 495.926C243.879 496.243 246.015 491.257 246.861 489.779C249.768 484.709 253.373 478.097 254.674 471.834C255.921 465.834 256.566 459.201 256.037 453.223C255.604 448.428 255.086 444.922 253.289 440.369C252.274 437.803 251.512 436.356 251.438 433.853C251.47 433.367 252.993 413.742 254.42 387.116C255.868 360.14 251.047 335.943 249.969 332.573C248.891 329.215 244.281 326.226 244.281 326.226" fill="white"/>
</mask>
<g mask="url(#mask3_2646_3067)">
<path d="M240.743 287.912L128.813 311.803L171.563 511.698L283.492 487.808L240.743 287.912Z" fill="url(#paint4_linear_2646_3067)"/>
</g>
<path d="M135.122 510.491C104.357 619.628 96.4385 774.457 96.4385 774.457L60.9685 774.964C60.9685 774.964 57.0251 667.4 57.8709 617.727C58.7166 568.054 78.3916 561.283 88.4987 495.809C98.5953 430.335 135.133 510.491 135.133 510.491H135.122Z" fill="url(#paint5_linear_2646_3067)"/>
<path d="M268.682 772.471C268.682 772.471 256.08 760.388 253.141 744.609C251.787 737.3 251.978 626.821 251.809 607.936C251.65 589.062 251.46 558.949 245.465 548.588C239.46 538.205 213.442 515.254 213.442 515.254L180.773 522.098C182.021 522.743 199.719 579.619 199.719 579.619L196.653 612.858C196.801 646.097 212.818 696.868 216.317 714.486C219.827 732.082 219.521 776.126 219.521 776.126L268.682 772.471Z" fill="url(#paint6_linear_2646_3067)"/>
<mask id="mask4_2646_3067" style="mask-type:luminance" maskUnits="userSpaceOnUse" x="207" y="746" width="123" height="47">
<path d="M263.184 747.006C265.626 748.39 268.999 755.752 270.638 759.966C279.043 762.68 309.047 772.461 318.445 773.633C323.784 774.32 327.22 774.52 329.335 774.552C307.313 806.872 261.397 784.977 227.862 791.166C221.202 792.856 214.932 792.032 208.885 789.909L209.192 789.392C205.174 781.755 209.657 769.947 211.644 764.983C213.896 759.364 213.854 747.746 216.867 747.027C219.891 746.299 220.99 749.045 220.99 749.045C220.99 749.045 220.039 760.505 225.98 764.001C231.488 767.243 244.736 764.74 250.571 762.025C246.512 754.389 247.262 751.094 250.001 749.351C252.696 747.629 257.803 745.823 261.323 746.373C262.011 746.478 262.645 746.689 263.184 746.996" fill="white"/>
</mask>
<g mask="url(#mask4_2646_3067)">
<path d="M211.993 738.631L203.786 790.576L323.828 809.506L332.035 757.561L211.993 738.631Z" fill="url(#paint7_linear_2646_3067)"/>
</g>
<mask id="mask5_2646_3067" style="mask-type:luminance" maskUnits="userSpaceOnUse" x="203" y="774" width="132" height="31">
<path d="M334.79 779.463C335.689 783.519 326.671 795.074 313.625 800.883C300.843 806.555 285.989 803.555 270.765 800.471C265.933 799.795 260.774 799.246 257.972 799.447C251.925 799.859 241.152 803.112 234.29 804.421C227.418 805.72 211.063 804.337 203.525 799.056L208.885 789.92C214.943 792.043 221.212 792.867 227.862 791.177C261.398 784.987 307.313 806.872 329.335 774.563C331.534 774.615 332.327 774.467 332.327 774.467C332.327 774.467 333.892 775.397 334.79 779.474" fill="white"/>
</mask>
<g mask="url(#mask5_2646_3067)">
<path d="M210.466 755.268L202.913 803.071L329.461 823.027L337.014 775.223L210.466 755.268Z" fill="url(#paint8_linear_2646_3067)"/>
</g>
<path d="M79.6709 390.422C79.6709 390.422 56.6022 562.678 55.7459 573.071C54.8895 583.464 103.131 598.557 119.454 590.223C138.104 580.696 147.926 458.885 156.479 459.212C161.194 459.392 178.522 567.6 183.755 584.541C188.988 601.483 245.338 580.189 250.233 569.258C258.12 551.64 227.958 443.094 232.884 408.356C237.811 373.607 79.6815 390.422 79.6815 390.422H79.6709Z" fill="url(#paint9_linear_2646_3067)"/>
<path d="M60.5561 579.778L57.8813 591.913C57.8813 591.913 118.196 600.976 118.207 599.941C118.207 598.905 119.444 590.223 119.444 590.223L60.5561 579.778Z" fill="url(#paint10_linear_2646_3067)"/>
<path d="M194.359 590.815L197.721 598.198L253.024 580.823L250.212 569.258L194.359 590.815Z" fill="url(#paint11_linear_2646_3067)"/>
<path d="M209.858 168.841C238.297 160.877 270.226 247.232 274.137 318.505C264.506 340.875 237.769 334.01 237.769 334.01L209.858 168.841Z" fill="url(#paint12_linear_2646_3067)"/>
<path d="M235.739 320.184C249.81 321.071 275.078 312.474 275.078 312.474C275.078 312.474 280.734 334.686 273.26 346.674C270.289 351.448 231.51 353.687 231.51 353.687L235.739 320.184Z" fill="#116C8C"/>
<path d="M60.0698 375.656C60.0698 375.656 82.5571 318.737 106.493 269.455C130.428 220.172 111.441 280.555 111.441 280.555C111.441 280.555 77.2815 356.211 73.9407 372.867C68.4008 374.948 60.0698 375.645 60.0698 375.645V375.656Z" fill="url(#paint13_linear_2646_3067)"/>
<path d="M243.816 378.296C241.881 398.079 233.053 402.24 233.053 402.24C233.053 402.24 233.117 411.091 231.615 418.897C216.085 431.909 88.9637 421.865 88.9637 421.865L88.8263 404.163C88.8263 404.163 78.2857 388.541 88.5408 367.724C91.5539 361.598 93.4992 350.708 94.5776 337.073C97.1572 304.235 92.59 285.794 87.8959 250.105L63.9814 185.793L108.618 161.944C108.618 161.944 141.275 172.897 168.594 172.464C179.79 172.284 183.099 157.275 193.872 159.092C227.048 163.127 239.132 214.247 242.093 232.34C247.558 265.79 244.017 277.471 240.951 312.875C235.411 376.881 245.74 358.514 243.805 378.296H243.816Z" fill="url(#paint14_linear_2646_3067)"/>
<path style="mix-blend-mode:multiply" d="M93.8165 345.1C96.3961 312.263 92.6112 285.784 87.9172 250.094L75.2727 205.459L112.836 212.177C173.69 256.738 136.909 334.158 93.8165 345.089V345.1Z" fill="url(#paint15_radial_2646_3067)"/>
<path style="mix-blend-mode:multiply" opacity="0.6" d="M78.2437 178.178C139.404 203.685 168.457 196.049 164.101 171.059C159.735 146.069 113.1 159.884 113.1 159.884L78.2437 178.167V178.178Z" fill="url(#paint16_radial_2646_3067)"/>
<path d="M195.807 362.812L199.857 393.009L195.712 396.125L190.278 366.974L195.807 362.812Z" fill="#116C8C"/>
<path d="M161.743 360.383L165.243 363.509C165.243 363.509 165.412 385.721 148.095 392.661C146.699 391.615 142.851 388.848 142.851 388.848C142.851 388.848 159.492 384.338 161.733 360.394L161.743 360.383Z" fill="#116C8C"/>
<path d="M114.147 449.928L97.2632 450.203L71.0651 450.615L61.7298 410.363L49.6562 377.737L74.5962 368.717C74.5962 368.717 133.685 371.484 136.507 377.737C139.33 383.979 114.137 449.928 114.137 449.928H114.147Z" fill="url(#paint17_linear_2646_3067)"/>
<path d="M49.6667 377.737C49.6667 377.737 44.4123 417.302 70.8324 419.383C97.2525 421.463 112.223 380.514 112.223 380.514L49.6667 377.737Z" fill="#3E3E45"/>
<path d="M114.147 449.928L97.2632 450.203L112.212 380.504L136.518 377.737C139.341 383.979 114.147 449.928 114.147 449.928Z" fill="url(#paint18_linear_2646_3067)"/>
<path d="M119.222 386.757L129.033 397.857C129.033 397.857 165.549 357.595 185.764 276.394C205.978 195.182 193.894 159.092 193.894 159.092L182.824 164.648C182.824 164.648 193.619 212.536 175.371 278.485C157.123 344.424 119.232 386.767 119.232 386.767L119.222 386.757Z" fill="#3E3E45"/>
<path d="M201.178 159.778C199.666 167.003 193.524 169.4 185.637 171.65C182.391 172.59 178.881 173.509 175.234 174.713L165.835 172.632C165.835 172.632 170.402 171.038 175.731 164.352C177.771 161.785 177.94 155.364 177.845 152.026C177.549 141.337 177.845 140.894 177.845 140.894C177.845 140.894 205.026 141.401 201.168 159.789L201.178 159.778Z" fill="#116C8C"/>
<path style="mix-blend-mode:multiply" d="M185.637 171.65C182.391 172.59 178.881 173.509 175.234 174.713L165.835 172.632C165.835 172.632 176.693 167.33 177.845 157.803C178.511 159.969 184.643 168.07 185.626 171.65H185.637Z" fill="url(#paint19_radial_2646_3067)"/>
<path d="M168.33 178.178L175.255 174.703C175.255 174.703 150.801 167.806 135.683 152.829C131.179 148.361 133.558 142.425 132.955 135.908C129.646 134.704 118.492 132.898 120.659 143.661C104.685 143.661 100.456 160.476 108.501 166.718C116.536 172.96 168.34 178.167 168.34 178.167L168.33 178.178Z" fill="#116C8C"/>
<path d="M170.857 221.894C170.857 221.894 172.062 217.194 168.626 205.016C165.19 192.838 160.2 172.126 160.2 172.126C160.136 170.583 158.847 169.337 157.314 169.337C155.781 169.337 154.586 170.583 154.649 172.126C153.37 179.265 161.342 196.313 163.625 205.713C165.909 215.113 166.004 221.894 166.004 221.894C166.004 221.894 164.312 227.46 164.873 228.506C165.433 229.551 173.267 229.9 173.51 227.291C173.753 224.682 170.867 221.894 170.867 221.894H170.857Z" fill="#116C8C"/>
<path d="M184.04 188.243C184.167 182.339 184.58 168.809 184.58 168.809C184.569 167.278 183.311 166.031 181.778 166.031C180.245 166.031 179.008 167.278 179.019 168.809C180.488 179.392 176.143 201.256 175.509 209.409C174.874 217.563 175.953 222.601 175.953 222.601C175.953 222.601 175.117 227.291 175.308 229.023C175.498 230.755 182.951 228.854 183.29 227.978C183.628 227.111 180.647 222.601 180.647 222.601C180.647 222.601 179.896 215.145 180.372 209.938C180.848 204.73 183.903 194.147 184.03 188.243H184.04Z" fill="#116C8C"/>
<path d="M42.1603 765.712C42.2766 765.405 42.3717 765.099 42.5303 764.782C46.3046 756.354 57.9975 753.924 73.8454 756.354C82.4406 757.674 86.2995 760.23 88.0439 762.289C89.4818 763.758 90.6976 765.585 91.4588 767.961C94.2816 770.253 99.2083 774.098 101.746 777.414C105.34 782.114 110.732 792.645 99.758 797.186C89.3972 801.475 50.2269 802.573 37.0539 798.327C31.958 797.377 27.93 796.204 25.6147 794.916C18.0661 790.744 32.106 772.577 42.1708 765.701" fill="url(#paint20_linear_2646_3067)"/>
<path d="M192.075 329.225C192.35 328.929 192.826 328.327 193.428 327.218C194.422 325.349 194.972 323.722 194.253 320.121C193.915 318.452 193.006 317.163 191.695 316.339C190.204 315.399 188.206 315.061 185.964 315.399C183.406 315.801 177.517 315.473 173.51 315.178L164.873 315.072C164.873 315.072 164.492 315.009 164.63 314.977C165.338 314.85 171.724 307.383 168.964 304.996C166.205 302.609 164.291 302.767 160.496 304.024C156.721 305.281 154.448 306.01 150.653 311.227C147.111 316.107 138.368 328.792 136.962 330.852C136.55 331.084 136.137 331.295 135.693 331.464C125.142 332.288 77.0383 317.47 52.9758 329.669C47.7108 313.519 50.0155 323.332 47.7108 313.519C47.7108 313.519 46.5161 310.763 25.8367 317.005C13.7526 320.649 5.17851 348.987 11.7968 356.465C11.7968 356.465 21.6395 363.34 26.6614 365.305C30.5308 366.815 59.5834 368.621 90.8562 363.467C114.284 359.602 132.987 356.201 140.905 354.743C143.58 355.873 146.033 357.447 148.507 358.228C152.672 359.517 162.684 360.689 166.448 360.246C167.082 360.172 167.875 360.045 168.71 359.918C171.787 359.781 175.318 359.295 177.549 358.133C180.995 356.338 183.607 352.187 183.945 351.923C184.283 351.638 185.668 350.508 188.629 346.589C191.599 342.66 192.794 337.622 193.354 333.83C193.746 331.19 192.699 329.838 192.033 329.246L192.075 329.225Z" fill="url(#paint21_linear_2646_3067)"/>
<path d="M63.9921 185.793C35.9227 206.801 -0.266147 327.197 -2 358.492C16.3535 373.586 61.8777 319.381 61.8777 319.381C61.8777 319.381 67.3858 304.51 80.7281 278.485C91.8289 256.833 99.885 229.731 81.5315 195.151C78.677 189.764 68.8342 182.17 63.9921 185.803V185.793Z" fill="url(#paint22_linear_2646_3067)"/>
<path d="M13.9324 326.437C-5.19285 342.692 -2.0846 357.246 1.12937 359.866C2.81036 361.228 4.68165 361.883 6.29921 362.189C16.1314 367.111 34.0409 368.727 34.0409 368.727C34.0409 368.727 53.7476 335.214 64.4256 326.014L62.1843 317.628C63.6749 317.702 31.2604 311.724 13.9324 326.437Z" fill="#116C8C"/>
</g>
<defs>
<linearGradient id="paint0_linear_2646_3067" x1="153.943" y1="125.646" x2="153.943" y2="225.667" gradientUnits="userSpaceOnUse">
<stop stop-color="#8F452F"/>
<stop offset="1" stop-color="#A35D38"/>
</linearGradient>
<linearGradient id="paint1_linear_2646_3067" x1="203.955" y1="61.005" x2="203.955" y2="92.2592" gradientUnits="userSpaceOnUse">
<stop stop-color="#8F452F"/>
<stop offset="1" stop-color="#A35D38"/>
</linearGradient>
<linearGradient id="paint2_linear_2646_3067" x1="104.995" y1="60.9724" x2="104.995" y2="92.216" gradientUnits="userSpaceOnUse">
<stop stop-color="#8F452F"/>
<stop offset="1" stop-color="#A35D38"/>
</linearGradient>
<linearGradient id="paint3_linear_2646_3067" x1="154.494" y1="13.2697" x2="154.494" y2="110.883" gradientUnits="userSpaceOnUse">
<stop stop-color="#8F452F"/>
<stop offset="1" stop-color="#A35D38"/>
</linearGradient>
<linearGradient id="paint4_linear_2646_3067" x1="151.519" y1="411.316" x2="261.222" y2="387.855" gradientUnits="userSpaceOnUse">
<stop stop-color="#FBDCCC"/>
<stop offset="0.35" stop-color="#F8C6AA"/>
<stop offset="0.91" stop-color="#F49E6D"/>
<stop offset="1" stop-color="#F49E6D"/>
</linearGradient>
<linearGradient id="paint5_linear_2646_3067" x1="98.5847" y1="541.078" x2="72.3629" y2="791.984" gradientUnits="userSpaceOnUse">
<stop stop-color="#FBDCCC"/>
<stop offset="0.35" stop-color="#F8C6AA"/>
<stop offset="0.91" stop-color="#F49E6D"/>
<stop offset="1" stop-color="#F49E6D"/>
</linearGradient>
<linearGradient id="paint6_linear_2646_3067" x1="157.567" y1="645.695" x2="293.685" y2="645.695" gradientUnits="userSpaceOnUse">
<stop stop-color="#FBDCCC"/>
<stop offset="0.35" stop-color="#F8C6AA"/>
<stop offset="0.91" stop-color="#F49E6D"/>
<stop offset="1" stop-color="#F49E6D"/>
</linearGradient>
<linearGradient id="paint7_linear_2646_3067" x1="324.717" y1="783.663" x2="206.881" y2="765.045" gradientUnits="userSpaceOnUse">
<stop stop-color="#C1210D"/>
<stop offset="0.52" stop-color="#C1210D"/>
<stop offset="0.87" stop-color="#931B03"/>
<stop offset="1" stop-color="#811900"/>
</linearGradient>
<linearGradient id="paint8_linear_2646_3067" x1="338.226" y1="798.898" x2="212.847" y2="779.089" gradientUnits="userSpaceOnUse">
<stop stop-color="#C1210D"/>
<stop offset="0.22" stop-color="#C1210D"/>
<stop offset="0.78" stop-color="#931B03"/>
<stop offset="1" stop-color="#811900"/>
</linearGradient>
<linearGradient id="paint9_linear_2646_3067" x1="153.862" y1="562.976" x2="162.265" y2="380.984" gradientUnits="userSpaceOnUse">
<stop stop-color="#C1210D"/>
<stop offset="0.52" stop-color="#C1210D"/>
<stop offset="1" stop-color="#9D1D06"/>
</linearGradient>
<linearGradient id="paint10_linear_2646_3067" x1="57.9048" y1="591.639" x2="119.372" y2="588.22" gradientUnits="userSpaceOnUse">
<stop stop-color="#333333"/>
<stop offset="1" stop-color="#2E2E2E"/>
</linearGradient>
<linearGradient id="paint11_linear_2646_3067" x1="194.086" y1="585.381" x2="253.125" y2="582.098" gradientUnits="userSpaceOnUse">
<stop stop-color="#333333"/>
<stop offset="1" stop-color="#2E2E2E"/>
</linearGradient>
<linearGradient id="paint12_linear_2646_3067" x1="209.858" y1="251.668" x2="274.137" y2="251.668" gradientUnits="userSpaceOnUse">
<stop stop-color="#0E93B8"/>
<stop offset="0.25" stop-color="#0E93B8"/>
<stop offset="0.58" stop-color="#1485B7"/>
<stop offset="0.92" stop-color="#1E72B7"/>
<stop offset="1" stop-color="#1E72B7"/>
</linearGradient>
<linearGradient id="paint13_linear_2646_3067" x1="58.2197" y1="312.875" x2="117.699" y2="312.875" gradientUnits="userSpaceOnUse">
<stop stop-color="#444147"/>
<stop offset="1" stop-color="#191921"/>
</linearGradient>
<linearGradient id="paint14_linear_2646_3067" x1="63.992" y1="292.258" x2="244.947" y2="292.258" gradientUnits="userSpaceOnUse">
<stop stop-color="#0E93B8"/>
<stop offset="0.25" stop-color="#0E93B8"/>
<stop offset="0.58" stop-color="#1485B7"/>
<stop offset="0.92" stop-color="#1E72B7"/>
<stop offset="1" stop-color="#1E72B7"/>
</linearGradient>
<radialGradient id="paint15_radial_2646_3067" cx="0" cy="0" r="1" gradientUnits="userSpaceOnUse" gradientTransform="translate(32.9307 250.538) scale(73.9848 73.9131)">
<stop stop-color="#7588B5"/>
<stop offset="1" stop-color="white"/>
</radialGradient>
<radialGradient id="paint16_radial_2646_3067" cx="0" cy="0" r="1" gradientUnits="userSpaceOnUse" gradientTransform="translate(103.924 156.557) scale(29.7927 29.7638)">
<stop stop-color="#7588B5"/>
<stop offset="1" stop-color="white"/>
</radialGradient>
<linearGradient id="paint17_linear_2646_3067" x1="92.4845" y1="454.713" x2="91.4927" y2="389.534" gradientUnits="userSpaceOnUse">
<stop stop-color="#444147"/>
<stop offset="1" stop-color="#191921"/>
</linearGradient>
<linearGradient id="paint18_linear_2646_3067" x1="94.8421" y1="413.964" x2="134.858" y2="413.964" gradientUnits="userSpaceOnUse">
<stop stop-color="#444147"/>
<stop offset="1" stop-color="#191921"/>
</linearGradient>
<radialGradient id="paint19_radial_2646_3067" cx="0" cy="0" r="1" gradientUnits="userSpaceOnUse" gradientTransform="translate(164.524 172.178) scale(19.2521 19.2335)">
<stop stop-color="#DBB63D"/>
<stop offset="1" stop-color="white"/>
</radialGradient>
<linearGradient id="paint20_linear_2646_3067" x1="23.4579" y1="778.238" x2="106.281" y2="778.238" gradientUnits="userSpaceOnUse">
<stop stop-color="#C1210D"/>
<stop offset="0.52" stop-color="#C1210D"/>
<stop offset="0.87" stop-color="#931B03"/>
<stop offset="1" stop-color="#811900"/>
</linearGradient>
<linearGradient id="paint21_linear_2646_3067" x1="-0.467085" y1="335.003" x2="194.655" y2="335.003" gradientUnits="userSpaceOnUse">
<stop stop-color="#FBDCCC"/>
<stop offset="0.35" stop-color="#F8C6AA"/>
<stop offset="0.91" stop-color="#F49E6D"/>
<stop offset="1" stop-color="#F49E6D"/>
</linearGradient>
<linearGradient id="paint22_linear_2646_3067" x1="-2" y1="273.003" x2="92.421" y2="273.003" gradientUnits="userSpaceOnUse">
<stop stop-color="#0E93B8"/>
<stop offset="0.25" stop-color="#0E93B8"/>
<stop offset="0.58" stop-color="#1485B7"/>
<stop offset="0.92" stop-color="#1E72B7"/>
<stop offset="1" stop-color="#1E72B7"/>
</linearGradient>
<clipPath id="clip0_2646_3067">
<rect width="118" height="225.649" fill="white" transform="translate(97)"/>
</clipPath>
<clipPath id="clip1_2646_3067">
<rect width="339" height="688" fill="white" transform="translate(0 135)"/>
</clipPath>
</defs>
</svg>
