<svg width="311" height="801" viewBox="0 0 311 801" fill="none" xmlns="http://www.w3.org/2000/svg">
<g clip-path="url(#clip0_2646_3043)">
<path d="M169.329 72.4181L163.846 38.5398L136.507 28.7475L108.54 22.1233L92.4541 26.7954L81.5952 46.0706L80.4348 64.2152V89.5919L85.992 95.16L85.5449 101.336L94.413 114.137L122.071 124.377C122.071 124.377 132.057 125.732 132.472 124.974C132.888 124.217 148.814 114.734 148.814 114.734L161.6 106.904L166.955 98.1681L169.329 89.5812L171.958 86.8718L174.034 79.3409L169.318 72.4181H169.329Z" fill="black"/>
<path d="M160.258 165.05C160.258 165.05 148.814 161.775 148.814 155.887V125.646C146.663 127.054 144.481 128.302 142.352 129.433C138.2 131.62 134.367 132.793 131.078 133.401C131.078 133.401 128.959 133.988 125.446 133.956C121.943 133.988 119.825 133.412 119.825 133.412C116.525 132.804 112.692 131.63 108.54 129.444C106.688 128.473 104.803 127.385 102.919 126.201V155.898C102.919 161.786 91.4853 165.061 91.4853 165.061C90.4314 165.253 89.6436 165.733 89.058 166.415C86.8224 168.997 87.5463 174.618 89.058 180.122C90.8359 186.619 93.689 192.912 93.9871 193.734C95.0198 196.55 111.351 227.782 127.235 225.553C143.108 223.324 157.661 189.115 160.173 180.197C161.025 177.189 161.44 174.853 161.6 173.061C162.675 169.904 162.451 167.13 160.258 165.071V165.05Z" fill="url(#paint0_linear_2646_3043)"/>
<g style="mix-blend-mode:multiply" opacity="0.25">
<path d="M131.067 131.044C131.067 131.044 128.949 131.684 125.435 131.652C121.922 131.684 119.804 131.055 119.804 131.055C116.503 130.383 112.671 129.081 108.519 126.66C106.667 125.572 104.782 124.377 102.898 123.065V143.898C118.494 146.372 134.261 140.719 148.793 131.396V122.457C146.642 124.004 144.46 125.401 142.32 126.66C138.168 129.081 134.335 130.383 131.046 131.044H131.067Z" fill="#ECB699"/>
</g>
<mask id="mask0_2646_3043" style="mask-type:luminance" maskUnits="userSpaceOnUse" x="166" y="61" width="16" height="31">
<path d="M171.149 61.3138C168.701 61.9965 167.498 63.6392 166.944 64.3859C166.987 64.5886 167.008 64.8019 167.04 65.0153C168.573 74.5409 169.169 83.8211 169.297 91.2667C171.863 92.2587 175.695 91.4907 178.921 83.8105C182.945 74.1995 181.337 62.0392 175.216 61.1431C174.609 61.0578 174.045 61.0151 173.523 61.0151C172.629 61.0151 171.841 61.1325 171.16 61.3245" fill="white"/>
</mask>
<g mask="url(#mask0_2646_3043)">
<path d="M182.945 61.0051H166.944V92.2594H182.945V61.0051Z" fill="url(#paint1_linear_2646_3043)"/>
</g>
<mask id="mask1_2646_3043" style="mask-type:luminance" maskUnits="userSpaceOnUse" x="69" y="60" width="15" height="32">
<path d="M75.7187 61.1006C69.5972 61.9966 67.9897 74.157 72.0139 83.7679C75.229 91.4268 79.0509 92.2161 81.6165 91.2241C81.7443 84.0452 82.2979 75.1596 83.7138 65.9967C83.799 65.442 83.8841 64.8874 83.9693 64.3327C83.2986 63.4153 81.6804 61.2393 78.1034 60.9939C77.8692 60.9832 77.6349 60.9619 77.3794 60.9619C76.8578 60.9619 76.3042 61.0046 75.708 61.0899" fill="white"/>
</mask>
<g mask="url(#mask1_2646_3043)">
<path d="M83.98 60.9727H67.9897V92.2162H83.98V60.9727Z" fill="url(#paint2_linear_2646_3043)"/>
</g>
<mask id="mask2_2646_3043" style="mask-type:luminance" maskUnits="userSpaceOnUse" x="84" y="13" width="83" height="97">
<path d="M118.771 13.8886C117.823 14.0486 116.876 14.2406 115.918 14.4966C99.9595 18.6674 91.2618 34.4971 86.6201 51.9376C85.9175 53.815 85.1829 57.9431 85.1829 57.9431C84.7358 60.0339 84.3525 62.1353 84.0012 64.2047C85.3746 77.3677 87.5996 97.1656 88.8345 100.526C89.1539 101.411 89.931 102.339 90.985 103.278C94.413 105.561 99.1824 108.483 102.248 109.315C107.486 110.723 108.561 106.755 109.498 103.214C110.435 99.6617 112.852 95.7042 118.899 95.1282C119.399 95.0855 119.878 95.0535 120.347 95.0215C120.453 95.0109 120.538 95.0002 120.634 94.9895C124.009 94.7335 132.068 94.4135 135.655 96.1522C139.126 97.6349 140.734 100.622 141.468 103.352C142.405 106.905 143.48 110.873 148.707 109.454C151.784 108.611 156.554 105.689 159.982 103.416C161.046 102.478 161.813 101.55 162.132 100.664C163.367 97.3149 165.581 77.645 166.955 64.4927V64.4607C166.955 64.4607 166.955 64.4073 166.944 64.3753C166.593 62.2313 166.199 60.0765 165.73 57.9218C165.73 57.9218 165.006 53.8044 164.304 51.9163C160.29 36.8865 153.275 23.0835 141.202 16.8753C141.106 16.822 141.021 16.7686 140.925 16.7153C140.744 16.63 140.563 16.534 140.372 16.4486C136.379 14.4752 132.536 13.7819 130.333 13.5472C128.714 13.3339 127.139 13.2485 125.659 13.2485C122.997 13.2485 120.623 13.5365 118.76 13.8672" fill="white"/>
</mask>
<g mask="url(#mask2_2646_3043)">
<path d="M166.965 13.2698H84.0012V110.883H166.965V13.2698Z" fill="url(#paint3_linear_2646_3043)"/>
</g>
<path d="M83.7137 65.9966C82.2978 75.1596 81.7442 84.0452 81.6165 91.224C81.5952 91.7574 81.5952 92.2801 81.5952 92.7921C81.4142 111.385 95.8608 122.724 108.551 129.433C112.703 131.631 116.535 132.804 119.825 133.391C119.825 133.391 121.943 133.977 125.457 133.935C128.959 133.967 131.078 133.401 131.078 133.401C134.378 132.793 138.21 131.62 142.362 129.433C155.042 122.734 169.499 111.395 169.318 92.7921C169.318 92.2907 169.307 91.7787 169.297 91.256C169.169 83.8105 168.573 74.5409 167.04 65.0046C167.008 64.8233 166.987 64.6526 166.955 64.4713C165.581 77.6236 163.367 97.3149 162.132 100.664C161.802 101.55 161.035 102.478 159.971 103.416C156.543 105.699 151.773 108.622 148.697 109.454C143.47 110.873 142.384 106.904 141.458 103.363C140.734 100.622 139.115 97.6455 135.645 96.1628C132.046 94.4241 123.998 94.7441 120.613 95.0001C120.517 95.0001 120.432 95.0108 120.325 95.0215C119.857 95.0535 119.378 95.0855 118.877 95.1281C112.841 95.7042 110.424 99.6723 109.477 103.214C108.54 106.755 107.465 110.734 102.227 109.315C99.161 108.483 94.3917 105.56 90.9636 103.278C89.8991 102.339 89.1325 101.411 88.8132 100.526C87.5782 97.1655 85.3532 77.3676 83.9799 64.2046C83.9799 64.2473 83.9692 64.2899 83.9586 64.3326C83.8734 64.8873 83.7883 65.442 83.7031 65.9966" fill="black"/>
<path d="M183.69 0.82143C182.359 1.25878 179.091 2.14413 171.777 3.90419C154.201 8.14964 139.03 -0.917286 112.724 0.0747424C91.5385 0.874765 86.5456 13.1524 85.3958 17.9206C76.8897 24.4594 75.6015 36.9291 76.1658 46.9881C76.5171 53.2709 77.603 58.6151 78.1033 60.9938C81.6804 61.2498 83.2986 63.4152 83.9586 64.3326C84.3206 62.1992 84.7145 60.0658 85.1616 57.9431C85.1616 57.9431 85.8855 53.8256 86.5988 51.9482C87.2695 49.4202 88.036 46.9454 88.8877 44.5133C104.314 37.3985 105.08 28.5876 105.08 28.5876C128.991 44.556 151.294 46.2627 162.494 45.9747C163.143 47.9374 163.75 49.9322 164.293 51.9589C164.996 53.8363 165.72 57.9537 165.72 57.9537C166.177 60.1085 166.571 62.2632 166.933 64.4072C167.487 63.6499 168.69 62.0072 171.139 61.3245C171.65 58.9564 172.959 52.7269 173.225 45.516C173.225 45.2707 173.246 45.0147 173.257 44.7694C192.26 31.6383 184.638 4.00019 183.69 0.82143Z" fill="black"/>
<path d="M112.458 105.08C112.458 105.08 116.088 111.128 124.158 111.128C124.158 111.128 133.164 111.587 137.401 105.443L137.561 105.187C123.53 110.798 112.469 105.08 112.469 105.08" fill="white"/>
<path d="M130.535 90.9681C130.12 90.9681 129.747 90.6907 129.63 90.2747C129.491 89.7734 129.79 89.2614 130.29 89.1334C131.44 88.824 134.122 87.576 134.602 85.8693C134.932 84.6959 133.271 80.8451 131.812 77.453C130.907 75.341 129.971 73.1649 129.225 71.0848C126.979 64.7807 130.152 59.2338 130.29 58.9992C130.556 58.5512 131.12 58.4018 131.567 58.6685C132.015 58.9245 132.164 59.5005 131.908 59.9485C131.876 60.0019 129.044 64.994 130.993 70.4662C131.716 72.4929 132.632 74.6369 133.526 76.717C135.624 81.5811 136.88 84.6532 136.39 86.3813C135.634 89.08 132.078 90.5841 130.769 90.9361C130.684 90.9574 130.609 90.9681 130.524 90.9681" fill="#B07267"/>
<path d="M149.836 70.0181C149.836 71.9275 148.292 73.4849 146.376 73.4849C144.46 73.4849 142.927 71.9275 142.927 70.0181C142.927 68.1087 144.481 66.562 146.376 66.562C148.271 66.562 149.836 68.1194 149.836 70.0181Z" fill="#231F20"/>
<path d="M109.53 70.2315C109.53 72.1409 107.997 73.6983 106.07 73.6983C104.143 73.6983 102.621 72.1409 102.621 70.2315C102.621 68.3221 104.175 66.7754 106.07 66.7754C107.965 66.7754 109.53 68.3328 109.53 70.2315Z" fill="#231F20"/>
</g>
<mask id="mask3_2646_3043" style="mask-type:luminance" maskUnits="userSpaceOnUse" x="190" y="745" width="45" height="29">
<path d="M195.475 745.285C196.446 745.391 197.438 745.496 198.44 745.496C203.873 745.496 209.243 746.309 214.666 746.351C217.145 746.372 219.614 746.351 222.072 746.024C222.779 745.929 223.444 745.728 224.172 745.792C224.066 747.998 226.176 750.995 227.337 752.821C228.645 754.847 231.515 759.713 234.469 759.976L234.627 773.876C231.209 773.676 227.78 773.676 224.341 773.686C220.057 773.697 215.774 773.718 211.533 773.306C206.532 772.821 201.795 771.459 197.195 769.654C193.587 768.251 191.825 767.1 191.287 763.628C190.369 757.581 191.318 751.132 191.783 745.085C192.036 745.063 192.289 745.063 192.542 745.063C193.523 745.063 194.505 745.169 195.475 745.275" fill="white"/>
</mask>
<g mask="url(#mask3_2646_3043)">
<path d="M223.557 725.902L177.9 752.271L201.432 793.045L247.089 766.676L223.557 725.902Z" fill="url(#paint4_linear_2646_3043)"/>
</g>
<mask id="mask4_2646_3043" style="mask-type:luminance" maskUnits="userSpaceOnUse" x="25" y="750" width="44" height="30">
<path d="M25.5952 779.966C25.6585 779.786 25.7113 779.607 25.7746 779.427H25.7324C25.6163 779.607 25.5741 779.776 25.6058 779.966M34.4469 750.541C33.4973 750.573 32.474 750.604 31.5139 750.235C30.6699 753.992 29.3933 757.771 28.3383 761.496C27.3466 765.011 26.3443 768.536 26.1438 772.177C26.0278 774.383 26.397 777.211 25.7746 779.427L66.6779 773.823C66.3719 773.222 66.4246 772.261 66.3191 771.586C66.0026 769.264 65.8971 766.9 65.8971 764.557C65.8971 760.673 66.699 755.934 68.5347 752.367C59.9046 751.871 51.2323 750.456 42.5495 750.362C39.838 750.34 37.1266 750.478 34.4363 750.541" fill="white"/>
</mask>
<g mask="url(#mask4_2646_3043)">
<path d="M57.7965 731.619L12.6974 757.666L36.3088 798.577L81.408 772.53L57.7965 731.619Z" fill="url(#paint5_linear_2646_3043)"/>
</g>
<path d="M215.099 758.647C198.503 758.974 197.501 758.963 188.132 759.048C186.191 759.069 125.506 455.999 125.506 455.999C126.097 454.183 124.715 445.022 125.379 439.524C161.335 530.827 197.796 661.898 215.099 758.636V758.647Z" fill="url(#paint6_linear_2646_3043)"/>
<path d="M124.314 462.088C101.251 538.584 65.6966 764.23 65.6966 766.013C65.6966 766.889 58.9234 766.742 50.6731 766.235C65.8654 680.62 93.5704 541.011 124.314 462.088Z" fill="url(#paint7_linear_2646_3043)"/>
<path d="M33.7717 565.032C42.2647 480.273 57.035 358.416 57.035 358.416C57.035 358.416 105.281 358.88 128.587 358.88C159.182 358.88 199.484 355.682 199.484 355.682C199.484 355.682 207.714 481.497 216.206 566.257C224.583 649.866 233.984 756.388 233.984 757.866C233.984 757.866 222.368 758.446 215.088 759.079C197.786 662.341 124.082 448.589 125.496 456.442C124.451 461.244 125.496 456.442 124.303 462.099C93.5599 541.022 65.8656 680.631 50.6627 766.245C37.7175 765.443 23.6541 759.48 23.6541 759.48C23.6541 759.48 25.2682 649.792 33.7612 565.032H33.7717Z" fill="url(#paint8_linear_2646_3043)"/>
<path style="mix-blend-mode:multiply" opacity="0.27" d="M140.086 376.073L135.233 423.914C135.233 423.914 117.984 422.416 132.554 380.168L140.086 376.073Z" fill="url(#paint9_linear_2646_3043)"/>
<path d="M54.7139 373.519L55.2308 385.381L202.428 386.954L201.183 372.917L54.7139 373.519Z" fill="#707070"/>
<path d="M100.344 373.36H104.669L105.091 385.941H100.249L100.344 373.36Z" fill="url(#paint10_linear_2646_3043)"/>
<path d="M182.393 372.938L181.253 384.052H185.579L186.476 372.864L182.393 372.938Z" fill="url(#paint11_linear_2646_3043)"/>
<path d="M159.953 371.197H144.328L144.475 383.756L160.617 382.996V381.086L147.25 381.371L146.258 373.804L160.575 373.118L159.953 371.197Z" fill="url(#paint12_linear_2646_3043)"/>
<path d="M155.332 376.316L142.334 376.073V377.265L155.332 378.743C155.332 378.743 156.935 377.624 155.332 376.316Z" fill="url(#paint13_linear_2646_3043)"/>
<path d="M236.484 755.871C236.484 755.871 261.71 769.749 272.186 773.296C282.662 776.842 304.607 781.116 309.186 784.81C313.775 788.504 308.859 793.971 302.307 795.881C295.755 797.802 258.26 797.654 243.036 795.438C227.801 793.222 222.726 788.061 222.726 788.061C222.726 788.061 219.129 787.026 216.998 787.47C214.866 787.913 216.502 792.641 214.698 793.96C212.904 795.29 189.156 792.778 186.043 790.71C182.931 788.641 186.043 765.908 188.501 759.997C190.96 754.087 197.174 762.657 214.212 763.1C231.24 763.544 221.26 762.657 236.473 755.86" fill="black"/>
<path d="M18.1151 766.731C18.2312 766.435 18.3261 766.14 18.4738 765.834C22.1348 757.654 33.4763 755.29 48.8269 757.654C57.1616 758.931 60.9069 761.412 62.5949 763.417C63.9876 764.842 65.1692 766.615 65.9077 768.926C68.6508 771.153 73.4195 774.889 75.8777 778.098C79.3593 782.657 84.5922 792.873 73.947 797.285C63.9032 801.443 25.9328 802.52 13.1671 798.393C8.21899 797.464 4.3154 796.325 2.07875 795.079C-5.24312 791.026 8.37724 773.401 18.1257 766.731" fill="black"/>
<path d="M203.884 174.543C211.797 180.622 221.017 180.875 224.721 185.002C228.424 189.118 244.318 247.153 247.99 257C251.661 266.847 264.901 307.437 264.49 323.5C264.078 339.563 265.961 347.45 245.336 355.598C224.721 363.746 208.864 338.416 204.538 308.959C200.212 279.503 196.066 168.538 203.873 174.543H203.884Z" fill="url(#paint14_linear_2646_3043)"/>
<path d="M171.895 168.664L138.631 155.852L82.5665 158.511L168.973 267.514C168.973 267.514 174.565 192.664 171.895 168.664Z" fill="#F7F7F7"/>
<path d="M164.69 159.229C158.349 183.767 130.254 169.414 130.254 169.414L82.324 150.321C82.324 150.321 31.5562 178.606 24.8357 184.126C18.1152 189.646 28.1168 221.53 41.7161 257.54C55.3153 293.54 67.8174 280.727 59.2084 321.92C50.6732 362.753 55.2732 374.711 55.2732 374.711L200.276 373.17C200.276 373.17 203.768 338.563 191.53 303.693C189.261 288.949 218.886 228.748 213.78 209.466C208.674 190.184 211.786 186.68 203.884 174.553L164.7 159.239L164.69 159.229Z" fill="#E1EFFF"/>
<path d="M138.62 155.841L157.231 175.071L153.433 196.116C153.433 196.116 165.513 227.039 171.326 262.553C182.498 330.796 188.301 394.289 188.301 394.838C188.301 395.672 171.621 417.181 171.621 417.181L152.114 396.242C152.114 396.242 162.295 332.115 158.94 262.29C157.262 227.408 148.326 197.287 148.273 197.287C148.105 197.287 123.987 176.823 123.987 176.823L138.631 155.852L138.62 155.841Z" fill="url(#paint15_linear_2646_3043)"/>
<path d="M104.891 245.741C104.891 245.741 97.5374 247.778 99.3099 262.268C101.082 276.759 108.52 279.165 108.52 279.165C108.52 279.165 118.258 272.084 115.483 260.084C112.709 248.084 104.902 245.751 104.902 245.751L104.891 245.741Z" fill="#ADADAD"/>
<path d="M105.07 247.208C105.07 247.208 100.175 246.669 98.0966 246.564C96.0182 246.458 84.2969 251.894 84.2969 251.894C84.2969 251.894 84.8138 280.231 100.586 283.461C102 281.857 103.773 279.155 104.923 277.16C107.223 276.959 108.109 276.411 108.109 276.411C108.109 276.411 114.671 256.896 105.081 247.197L105.07 247.208Z" fill="url(#paint16_linear_2646_3043)"/>
<path d="M45.9898 171C36.6845 177.691 21.4898 179.5 19.8031 196.485C18.1362 202.406 17.4974 293.826 49.9898 352.5C80.1107 367.328 105.186 346.543 107.55 330.511C111.611 302.986 93.676 277.508 85.6578 257.139C72.797 224.474 45.9898 171 45.9898 171Z" fill="url(#paint17_linear_2646_3043)"/>
<path d="M224.72 289.741C224.72 289.741 224.71 268.917 208.325 264.928C190.49 271 125.477 290.652 112.49 295C91.8746 301.902 58.4382 301.24 50.9897 322C41.2941 349.039 52.0658 360.949 65.9393 362.469C80.7308 364.094 120.21 362.68 161.894 346.827C203.578 330.975 224.71 289.741 224.71 289.741H224.72Z" fill="#DAE8FA"/>
<path d="M210.14 268.073C210.003 267.661 217.251 251.936 217.8 250.975C218.348 250.015 226.778 242.574 226.778 242.574L242.614 240.442C242.614 240.442 244.397 242.69 243.996 245.909C243.932 246.416 231.103 249.498 231.082 250.036C240.05 249.952 249.514 250.975 249.514 250.975C249.514 250.975 252.847 255.197 252.436 258.205C253.776 260.949 253.544 264.284 252.436 267.134L249.767 266.88C249.767 266.88 250.284 270.69 247.826 273.477C243.046 272.263 237.634 271.461 237.634 271.461C237.634 271.461 230.987 274.025 229.32 274.553C227.738 275.524 227.295 285.287 223.518 286.912C216.396 286.247 210.13 268.062 210.13 268.062L210.14 268.073Z" fill="url(#paint18_linear_2646_3043)"/>
<path d="M243.49 297.5C202.871 271.516 154.994 246.553 104.891 245.73C110.293 248.062 117.372 261.329 108.51 279.155C162.696 310.986 186.993 359.566 236.959 357.139C277.208 355.186 267.376 312.793 243.49 297.5Z" fill="url(#paint19_linear_2646_3043)"/>
<path d="M106.917 247.007L101.979 246.553C101.979 246.553 106.315 250.754 106.674 261.276C106.959 269.783 104.912 277.149 104.912 277.149L108.942 278.258C108.942 278.258 112.487 271.44 112.856 263.113C113.331 252.558 106.906 246.996 106.906 246.996L106.917 247.007Z" fill="#C2D8F0"/>
<path d="M138.62 155.841L158.919 176.812L172.613 165.16L151.312 143.313L138.62 155.841Z" fill="#CFDDF1"/>
<path d="M138.62 155.841C138.62 155.841 129.441 170.828 123.976 179.43C87.2508 162.395 76.8694 151.894 76.8694 151.894L99.0354 135.567C99.0354 135.567 108.235 146.733 138.62 155.841Z" fill="#CFDDF1"/>
<path d="M95.1213 357.951L99.0038 355.682C100.217 357.751 100.871 358.954 102.169 361.402L97.3158 361.93C96.0497 359.534 96.2924 359.967 95.1108 357.951H95.1213ZM86.9238 345.497L90.5214 342.796C92.0196 344.79 93.5071 346.922 94.9525 349.128L91.1966 351.598C89.804 349.466 88.3586 347.418 86.9238 345.497ZM77.1754 334.363L80.2982 331.123C82.1129 332.875 83.917 334.774 85.6578 336.759L82.2711 339.714C80.6147 337.814 78.9056 336.02 77.1859 334.352L77.1754 334.363ZM65.644 325.329L67.9967 321.497C70.17 322.838 72.3328 324.347 74.4218 325.983L71.6365 329.519C69.6847 327.978 67.6696 326.574 65.644 325.329ZM52.4034 319.408L53.6589 315.091C56.1593 315.819 58.6386 316.738 61.0546 317.814L59.2083 321.92C56.9822 320.917 54.6928 320.073 52.4034 319.408ZM38.0762 317.36L38.0973 312.864C40.7454 312.864 43.3829 313.065 45.9572 313.434L45.3242 317.888C42.9609 317.55 40.5238 317.381 38.0867 317.371L38.0762 317.36Z" fill="#C2D8F0"/>
<path d="M225.48 352.168L229.975 351.915C230.101 354.226 230.164 354.754 230.555 357.234L225.997 356.843C225.575 354.215 225.628 354.637 225.48 352.168ZM225.522 344.389C225.712 341.698 226.113 339.091 226.693 336.632L231.072 337.677C230.544 339.893 230.186 342.258 230.017 344.717L225.533 344.389H225.522ZM229.236 329.149C230.333 326.722 231.694 324.421 233.266 322.3L236.874 324.981C235.492 326.849 234.3 328.875 233.329 331.007L229.236 329.149ZM238.636 316.453C240.546 314.754 242.688 313.192 244.998 311.788L247.33 315.64C245.251 316.896 243.331 318.3 241.622 319.82L238.636 316.453ZM251.982 308.263C254.293 307.303 256.762 306.448 259.325 305.73L260.549 310.057C258.154 310.733 255.865 311.524 253.723 312.421L251.993 308.263H251.982Z" fill="#C2D8F0"/>
<defs>
<linearGradient id="paint0_linear_2646_3043" x1="124.933" y1="125.646" x2="124.933" y2="225.667" gradientUnits="userSpaceOnUse">
<stop stop-color="#C68471"/>
<stop offset="1" stop-color="#E2A387"/>
</linearGradient>
<linearGradient id="paint1_linear_2646_3043" x1="174.945" y1="61.0051" x2="174.945" y2="92.2594" gradientUnits="userSpaceOnUse">
<stop stop-color="#C68471"/>
<stop offset="1" stop-color="#E2A387"/>
</linearGradient>
<linearGradient id="paint2_linear_2646_3043" x1="75.9849" y1="60.9727" x2="75.9849" y2="92.2162" gradientUnits="userSpaceOnUse">
<stop stop-color="#C68471"/>
<stop offset="1" stop-color="#E2A387"/>
</linearGradient>
<linearGradient id="paint3_linear_2646_3043" x1="125.483" y1="13.2698" x2="125.483" y2="110.883" gradientUnits="userSpaceOnUse">
<stop stop-color="#C68471"/>
<stop offset="1" stop-color="#E2A387"/>
</linearGradient>
<linearGradient id="paint4_linear_2646_3043" x1="200.718" y1="742.421" x2="223.884" y2="782.531" gradientUnits="userSpaceOnUse">
<stop stop-color="#5E5B55"/>
<stop offset="0.23" stop-color="#6C6A66"/>
<stop offset="0.69" stop-color="#939493"/>
<stop offset="0.92" stop-color="#A9ABAC"/>
<stop offset="1" stop-color="#A9ABAC"/>
</linearGradient>
<linearGradient id="paint5_linear_2646_3043" x1="37.0313" y1="744.648" x2="56.0382" y2="777.557" gradientUnits="userSpaceOnUse">
<stop stop-color="#5E5B55"/>
<stop offset="0.23" stop-color="#6C6A66"/>
<stop offset="0.69" stop-color="#939493"/>
<stop offset="0.92" stop-color="#A9ABAC"/>
<stop offset="1" stop-color="#A9ABAC"/>
</linearGradient>
<linearGradient id="paint6_linear_2646_3043" x1="125.19" y1="599.291" x2="215.099" y2="599.291" gradientUnits="userSpaceOnUse">
<stop stop-color="#3D3D3D"/>
<stop offset="1" stop-color="#262626"/>
</linearGradient>
<linearGradient id="paint7_linear_2646_3043" x1="50.6731" y1="614.362" x2="124.314" y2="614.362" gradientUnits="userSpaceOnUse">
<stop stop-color="#3D3D3D"/>
<stop offset="1" stop-color="#262626"/>
</linearGradient>
<linearGradient id="paint8_linear_2646_3043" x1="23.6646" y1="560.958" x2="233.994" y2="560.958" gradientUnits="userSpaceOnUse">
<stop stop-color="#454545"/>
<stop offset="1" stop-color="#2E2E2E"/>
</linearGradient>
<linearGradient id="paint9_linear_2646_3043" x1="126.698" y1="399.988" x2="140.086" y2="399.988" gradientUnits="userSpaceOnUse">
<stop stop-color="#3D3D3D"/>
<stop offset="1" stop-color="#262626"/>
</linearGradient>
<linearGradient id="paint10_linear_2646_3043" x1="100.249" y1="379.651" x2="105.091" y2="379.651" gradientUnits="userSpaceOnUse">
<stop stop-color="#3D3D3D"/>
<stop offset="1" stop-color="#262626"/>
</linearGradient>
<linearGradient id="paint11_linear_2646_3043" x1="181.253" y1="378.458" x2="186.476" y2="378.458" gradientUnits="userSpaceOnUse">
<stop stop-color="#3D3D3D"/>
<stop offset="1" stop-color="#262626"/>
</linearGradient>
<linearGradient id="paint12_linear_2646_3043" x1="144.328" y1="377.476" x2="160.617" y2="377.476" gradientUnits="userSpaceOnUse">
<stop stop-color="#3D3D3D"/>
<stop offset="1" stop-color="#262626"/>
</linearGradient>
<linearGradient id="paint13_linear_2646_3043" x1="142.334" y1="377.403" x2="156.049" y2="377.403" gradientUnits="userSpaceOnUse">
<stop stop-color="#3D3D3D"/>
<stop offset="1" stop-color="#262626"/>
</linearGradient>
<linearGradient id="paint14_linear_2646_3043" x1="236.506" y1="174.308" x2="221.99" y2="301" gradientUnits="userSpaceOnUse">
<stop stop-color="#E1EFFF"/>
<stop offset="1" stop-color="#CFDDF1"/>
</linearGradient>
<linearGradient id="paint15_linear_2646_3043" x1="122.109" y1="161.857" x2="139.983" y2="229.769" gradientUnits="userSpaceOnUse">
<stop stop-color="#C1210D"/>
<stop offset="0.52" stop-color="#C1210D"/>
<stop offset="1" stop-color="#9D1D06"/>
</linearGradient>
<linearGradient id="paint16_linear_2646_3043" x1="97.2982" y1="238.458" x2="97.2982" y2="283.461" gradientUnits="userSpaceOnUse">
<stop stop-color="#FFAE9E"/>
<stop offset="1" stop-color="#FCD7CB"/>
</linearGradient>
<linearGradient id="paint17_linear_2646_3043" x1="90.9898" y1="223" x2="53.9898" y2="342" gradientUnits="userSpaceOnUse">
<stop stop-color="#DAE8FA"/>
<stop offset="1" stop-color="#DAE8FA"/>
</linearGradient>
<linearGradient id="paint18_linear_2646_3043" x1="231.743" y1="230.237" x2="231.743" y2="286.912" gradientUnits="userSpaceOnUse">
<stop stop-color="#FFAE9E"/>
<stop offset="1" stop-color="#FCD7CB"/>
</linearGradient>
<linearGradient id="paint19_linear_2646_3043" x1="236.99" y1="288.5" x2="202.49" y2="342.5" gradientUnits="userSpaceOnUse">
<stop stop-color="#E1EFFF"/>
<stop offset="1" stop-color="#CFDDF1"/>
</linearGradient>
<clipPath id="clip0_2646_3043">
<rect width="118" height="225.649" fill="white" transform="translate(67.9897)"/>
</clipPath>
</defs>
</svg>
