<svg width="327" height="795" viewBox="0 0 327 795" fill="none" xmlns="http://www.w3.org/2000/svg">
<g clip-path="url(#clip0_2646_3051)">
<path d="M184.329 72.4181L178.846 38.5398L151.507 28.7475L123.54 22.1233L107.454 26.7954L96.5955 46.0706L95.4351 64.2152V89.5919L100.992 95.16L100.545 101.336L109.413 114.137L137.071 124.377C137.071 124.377 147.057 125.732 147.473 124.974C147.888 124.217 163.814 114.734 163.814 114.734L176.6 106.904L181.955 98.1681L184.329 89.5812L186.959 86.8718L189.034 79.3409L184.318 72.4181H184.329Z" fill="black"/>
<path d="M175.259 165.05C175.259 165.05 163.814 161.775 163.814 155.887V125.646C161.664 127.054 159.481 128.302 157.352 129.433C153.2 131.62 149.368 132.793 146.078 133.401C146.078 133.401 143.959 133.988 140.446 133.956C136.944 133.988 134.825 133.412 134.825 133.412C131.525 132.804 127.692 131.63 123.54 129.444C121.688 128.473 119.804 127.385 117.919 126.201V155.898C117.919 161.786 106.486 165.061 106.486 165.061C105.432 165.253 104.644 165.733 104.058 166.415C101.823 168.997 102.547 174.618 104.058 180.122C105.836 186.619 108.689 192.912 108.987 193.734C110.02 196.55 126.351 227.782 142.235 225.553C158.108 223.324 172.661 189.115 175.173 180.197C176.025 177.189 176.44 174.853 176.6 173.061C177.675 169.904 177.452 167.13 175.259 165.071V165.05Z" fill="url(#paint0_linear_2646_3051)"/>
<g style="mix-blend-mode:multiply" opacity="0.25">
<path d="M146.067 131.044C146.067 131.044 143.949 131.684 140.435 131.652C136.922 131.684 134.804 131.054 134.804 131.054C131.504 130.382 127.671 129.081 123.519 126.66C121.667 125.572 119.782 124.377 117.898 123.065V143.897C133.494 146.372 149.261 140.719 163.793 131.396V122.457C161.642 124.003 159.46 125.401 157.32 126.66C153.168 129.081 149.336 130.382 146.046 131.044H146.067Z" fill="#ECB699"/>
</g>
<mask id="mask0_2646_3051" style="mask-type:luminance" maskUnits="userSpaceOnUse" x="181" y="61" width="16" height="31">
<path d="M186.149 61.3137C183.701 61.9964 182.498 63.6391 181.944 64.3858C181.987 64.5884 182.008 64.8018 182.04 65.0151C183.573 74.5407 184.169 83.821 184.297 91.2665C186.863 92.2586 190.695 91.4906 193.921 83.8103C197.945 74.1994 196.337 62.039 190.216 61.143C189.609 61.0577 189.045 61.015 188.523 61.015C187.629 61.015 186.841 61.1324 186.16 61.3244" fill="white"/>
</mask>
<g mask="url(#mask0_2646_3051)">
<path d="M197.945 61.0049H181.944V92.2591H197.945V61.0049Z" fill="url(#paint1_linear_2646_3051)"/>
</g>
<mask id="mask1_2646_3051" style="mask-type:luminance" maskUnits="userSpaceOnUse" x="84" y="60" width="15" height="32">
<path d="M90.7188 61.1003C84.5974 61.9964 82.9898 74.1567 87.014 83.7677C90.2291 91.4265 94.051 92.2159 96.6167 91.2239C96.7444 84.045 97.298 75.1594 98.7139 65.9965C98.7991 65.4418 98.8843 64.8871 98.9694 64.3324C98.2987 63.4151 96.6805 61.239 93.1035 60.9937C92.8693 60.983 92.6351 60.9617 92.3796 60.9617C91.8579 60.9617 91.3043 61.0043 90.7081 61.0897" fill="white"/>
</mask>
<g mask="url(#mask1_2646_3051)">
<path d="M98.98 60.9723H82.9897V92.2158H98.98V60.9723Z" fill="url(#paint2_linear_2646_3051)"/>
</g>
<mask id="mask2_2646_3051" style="mask-type:luminance" maskUnits="userSpaceOnUse" x="99" y="13" width="83" height="97">
<path d="M133.771 13.8883C132.824 14.0483 131.876 14.2403 130.918 14.4963C114.96 18.6671 106.262 34.4969 101.62 51.9374C100.918 53.8148 100.183 57.9429 100.183 57.9429C99.736 60.0336 99.3528 62.135 99.0015 64.2044C100.375 77.3675 102.6 97.1654 103.835 100.525C104.154 101.411 104.931 102.339 105.985 103.278C109.413 105.56 114.183 108.483 117.249 109.315C122.486 110.723 123.562 106.755 124.499 103.214C125.435 99.6614 127.852 95.704 133.899 95.128C134.399 95.0853 134.878 95.0533 135.347 95.0213C135.453 95.0106 135.538 95 135.634 94.9893C139.009 94.7333 147.068 94.4133 150.656 96.152C154.126 97.6347 155.734 100.621 156.468 103.352C157.405 106.904 158.481 110.872 163.708 109.454C166.784 108.611 171.554 105.688 174.982 103.416C176.046 102.478 176.813 101.549 177.132 100.664C178.367 97.3147 180.582 77.6448 181.955 64.4924V64.4604C181.955 64.4604 181.955 64.4071 181.944 64.3751C181.593 62.231 181.199 60.0763 180.731 57.9216C180.731 57.9216 180.007 53.8041 179.304 51.9161C175.291 36.8863 168.275 23.0832 156.202 16.8751C156.106 16.8217 156.021 16.7684 155.925 16.7151C155.745 16.6297 155.564 16.5337 155.372 16.4484C151.38 14.475 147.536 13.7816 145.333 13.547C143.715 13.3336 142.139 13.2483 140.659 13.2483C137.998 13.2483 135.624 13.5363 133.761 13.867" fill="white"/>
</mask>
<g mask="url(#mask2_2646_3051)">
<path d="M181.966 13.2697H99.0015V110.883H181.966V13.2697Z" fill="url(#paint3_linear_2646_3051)"/>
</g>
<path d="M98.714 65.9965C97.2981 75.1594 96.7445 84.045 96.6167 91.2239C96.5954 91.7573 96.5954 92.2799 96.5954 92.792C96.4145 111.384 110.861 122.723 123.551 129.433C127.703 131.63 131.536 132.804 134.825 133.39C134.825 133.39 136.944 133.977 140.457 133.934C143.959 133.966 146.078 133.401 146.078 133.401C149.378 132.793 153.211 131.62 157.363 129.433C170.042 122.734 184.499 111.395 184.318 92.792C184.318 92.2906 184.308 91.7786 184.297 91.2559C184.169 83.8104 183.573 74.5408 182.04 65.0045C182.008 64.8232 181.987 64.6525 181.955 64.4711C180.582 77.6235 178.367 97.3148 177.132 100.664C176.802 101.55 176.036 102.478 174.971 103.416C171.543 105.699 166.774 108.622 163.697 109.454C158.47 110.872 157.384 106.904 156.458 103.363C155.734 100.622 154.116 97.6454 150.645 96.1627C147.047 94.424 138.998 94.744 135.613 95C135.517 95 135.432 95.0107 135.325 95.0214C134.857 95.0534 134.378 95.0854 133.878 95.128C127.841 95.704 125.425 99.6721 124.477 103.214C123.54 106.755 122.465 110.734 117.227 109.315C114.161 108.483 109.392 105.56 105.964 103.278C104.899 102.339 104.133 101.411 103.813 100.526C102.578 97.1654 100.353 77.3675 98.9801 64.2045C98.9801 64.2471 98.9695 64.2898 98.9588 64.3325C98.8737 64.8872 98.7885 65.4418 98.7033 65.9965" fill="black"/>
<path d="M198.69 0.821308C197.36 1.25865 194.091 2.14401 186.777 3.90406C169.201 8.14952 154.03 -0.917408 127.724 0.0746203C106.539 0.874643 101.546 13.1523 100.396 17.9205C91.8898 24.4593 90.6016 36.929 91.1659 46.988C91.5172 53.2708 92.6031 58.615 93.1034 60.9937C96.6805 61.2497 98.2987 63.4151 98.9587 64.3325C99.3207 62.1991 99.7146 60.0657 100.162 57.9429C100.162 57.9429 100.886 53.8255 101.599 51.9481C102.27 49.42 103.036 46.9453 103.888 44.5132C119.314 37.3984 120.08 28.5874 120.08 28.5874C143.991 44.5559 166.295 46.2626 177.494 45.9746C178.144 47.9373 178.75 49.932 179.293 51.9588C179.996 53.8362 180.72 57.9536 180.72 57.9536C181.178 60.1083 181.572 62.2631 181.933 64.4071C182.487 63.6498 183.69 62.0071 186.139 61.3244C186.65 58.9563 187.959 52.7268 188.225 45.5159C188.225 45.2706 188.247 45.0146 188.257 44.7692C207.26 31.6382 199.638 4.00007 198.69 0.821308Z" fill="black"/>
<path d="M127.458 105.08C127.458 105.08 131.088 111.128 139.158 111.128C139.158 111.128 148.164 111.587 152.402 105.443L152.561 105.187C138.53 110.798 127.469 105.08 127.469 105.08" fill="white"/>
<path d="M145.535 90.9678C145.12 90.9678 144.747 90.6905 144.63 90.2745C144.492 89.7731 144.79 89.2611 145.29 89.1331C146.44 88.8238 149.123 87.5757 149.602 85.869C149.932 84.6957 148.271 80.8449 146.813 77.4528C145.908 75.3407 144.971 73.1647 144.226 71.0846C141.979 64.7804 145.152 59.2336 145.29 58.9989C145.556 58.5509 146.121 58.4016 146.568 58.6682C147.015 58.9243 147.164 59.5003 146.908 59.9483C146.876 60.0016 144.045 64.9938 145.993 70.4659C146.717 72.4926 147.632 74.6367 148.527 76.7168C150.624 81.5809 151.88 84.653 151.39 86.381C150.634 89.0798 147.079 90.5838 145.769 90.9358C145.684 90.9572 145.61 90.9678 145.524 90.9678" fill="#79463D"/>
<path d="M164.836 70.018C164.836 71.9274 163.292 73.4848 161.376 73.4848C159.46 73.4848 157.927 71.9274 157.927 70.018C157.927 68.1086 159.481 66.5619 161.376 66.5619C163.271 66.5619 164.836 68.1193 164.836 70.018Z" fill="#231F20"/>
<path d="M124.53 70.2312C124.53 72.1406 122.997 73.698 121.07 73.698C119.143 73.698 117.621 72.1406 117.621 70.2312C117.621 68.3219 119.175 66.7751 121.07 66.7751C122.965 66.7751 124.53 68.3325 124.53 70.2312Z" fill="#231F20"/>
</g>
<g clip-path="url(#clip1_2646_3051)">
<path d="M234.586 181.047C234.586 181.047 252.962 179.557 261.006 283.369C262.485 302.463 251.011 342.666 251.923 402.204C252.542 442.187 224.601 468.058 223.982 470.198L208.983 465.456C208.983 465.456 186.905 254.213 234.596 181.036L234.586 181.047Z" fill="url(#paint4_linear_2646_3051)"/>
<path d="M218.79 432.545C218.79 432.545 234.848 452.825 220.626 477.27C215.465 449.793 218.79 432.545 218.79 432.545Z" fill="#CFDDF1"/>
<mask id="mask3_2646_3051" style="mask-type:luminance" maskUnits="userSpaceOnUse" x="206" y="739" width="44" height="30">
<path d="M210.987 739.616C211.952 739.721 212.937 739.826 213.934 739.826C219.335 739.826 224.674 740.634 230.065 740.676C232.53 740.697 234.984 740.676 237.428 740.351C238.131 740.256 238.792 740.057 239.515 740.12C239.41 742.312 241.508 745.292 242.662 747.107C243.962 749.121 246.815 753.958 249.752 754.22L249.909 768.037C246.511 767.838 243.102 767.838 239.683 767.848C235.425 767.859 231.166 767.88 226.95 767.471C221.979 766.988 217.269 765.635 212.696 763.841C209.109 762.445 207.358 761.302 206.823 757.85C205.91 751.839 206.854 745.428 207.316 739.417C207.567 739.396 207.819 739.396 208.071 739.396C209.046 739.396 210.022 739.501 210.987 739.606" fill="white"/>
</mask>
<g mask="url(#mask3_2646_3051)">
<path d="M238.904 720.366L193.514 746.578L216.909 787.11L262.298 760.897L238.904 720.366Z" fill="url(#paint5_linear_2646_3051)"/>
</g>
<mask id="mask4_2646_3051" style="mask-type:luminance" maskUnits="userSpaceOnUse" x="42" y="744" width="43" height="31">
<path d="M42.1008 774.091C42.1638 773.912 42.2162 773.734 42.2791 773.556H42.2372C42.1218 773.734 42.0799 773.902 42.1113 774.091M50.9007 744.841C49.9567 744.872 48.9393 744.904 47.9849 744.537C47.1458 748.272 45.8767 752.027 44.8278 755.731C43.8419 759.224 42.8455 762.729 42.6462 766.348C42.5309 768.541 42.898 771.353 42.2791 773.556L82.9431 767.985C82.6389 767.387 82.6913 766.432 82.5864 765.761C82.2718 763.452 82.1669 761.102 82.1669 758.773C82.1669 754.913 82.964 750.202 84.789 746.656C76.2094 746.163 67.5879 744.757 58.9559 744.663C56.2603 744.642 53.5648 744.778 50.8902 744.841" fill="white"/>
</mask>
<g mask="url(#mask4_2646_3051)">
<path d="M74.1126 726.033L29.2773 751.925L52.7506 792.593L97.5858 766.701L74.1126 726.033Z" fill="url(#paint6_linear_2646_3051)"/>
</g>
<path d="M230.495 753.328C213.997 753.654 213.001 753.643 203.687 753.727C201.757 753.748 159.971 509.751 144.374 438.819C144.112 440.004 143.85 441.221 143.577 442.47C142.182 434.664 141.427 427.048 147.804 419.882C183.549 510.643 213.305 657.165 230.495 753.328Z" fill="#4C0F0F"/>
<path d="M140.242 458.112C117.314 534.154 81.9676 758.459 81.9676 760.232C81.9676 761.102 75.234 760.956 67.032 760.452C82.1354 675.346 109.678 536.567 140.242 458.112Z" fill="#4C0F0F"/>
<path d="M50.2294 560.435C58.6726 476.179 73.3565 355.046 73.3565 355.046C73.3565 355.046 121.32 355.507 144.49 355.507C174.906 355.507 204.159 351.384 204.159 351.384C204.159 351.384 223.153 477.406 231.597 561.662C239.924 644.774 249.27 750.664 249.27 752.132C249.27 752.132 237.722 752.709 230.485 753.339C213.284 657.175 183.538 510.653 147.793 419.892C141.416 427.058 142.172 434.675 143.567 442.48C142.528 447.254 141.416 452.489 140.242 458.112C109.678 536.567 82.1459 675.346 67.032 760.452C54.1626 759.655 40.1814 753.727 40.1814 753.727C40.1814 753.727 41.7861 644.691 50.2294 560.435Z" fill="#681111"/>
<path d="M252.238 749.751C252.238 749.751 277.557 763.683 288.067 767.24C298.576 770.796 320.602 775.087 325.196 778.791C329.8 782.494 324.871 787.981 318.295 789.901C311.718 791.832 274.096 791.685 258.814 789.461C243.532 787.236 238.435 782.054 238.435 782.054C238.435 782.054 234.827 781.015 232.687 781.466C230.548 781.907 232.194 786.649 230.38 787.981C228.576 789.314 204.746 786.796 201.62 784.718C198.495 782.641 201.62 759.833 204.085 753.905C206.55 747.978 212.791 756.57 229.887 757.011C246.973 757.451 236.956 756.57 252.227 749.751" fill="black"/>
<path d="M32.8396 759.938C32.955 759.634 33.0494 759.329 33.2067 759.015C36.9511 750.643 48.5514 748.23 64.2736 750.643C72.8008 751.954 76.6291 754.493 78.3597 756.539C79.7861 757.997 80.9923 759.812 81.7475 762.173C84.5479 764.449 89.4355 768.268 91.9528 771.562C95.5189 776.231 100.868 786.691 89.9809 791.202C79.7022 795.462 40.8423 796.553 27.7736 792.335C22.7182 791.391 18.7221 790.226 16.4251 788.947C8.93629 784.802 22.865 766.757 32.8501 759.927" fill="black"/>
<path d="M118.929 148.418C119.003 147.495 119.044 146.404 119.044 145.103C119.044 143.624 111.115 140.602 111.115 135L107.151 138.001L99.2317 168.499L140.189 173.912C133.131 167.397 125.914 158.511 118.919 148.418H118.929Z" fill="#0B1317"/>
<path d="M140.189 173.923C150.594 183.522 160.663 187.95 169.137 183.376C171.56 182.075 174.308 180.48 176.868 178.77L140.189 173.923Z" stroke="url(#paint7_linear_2646_3051)" stroke-miterlimit="10"/>
<path d="M219.671 417.595C219.671 417.364 219.65 417.238 219.65 417.238C214.867 353.293 210.546 294.395 210.546 294.395C210.546 294.395 216.818 228.919 202.774 190.625C203.508 187.352 203.183 185.033 203.183 185.033C203.183 185.033 199.816 179.368 196.303 173.891L194.73 167.481C194.331 168.237 193.932 168.96 193.534 169.674C192.464 168.09 191.468 166.684 190.639 165.645C186.528 160.442 168.351 140.539 168.351 140.539C168.351 140.539 158.691 151.944 152.02 153.989C150.531 191.181 141.731 163.925 139.497 153.507C121.635 150.17 111.115 135 111.115 135C111.115 135 113.276 147.38 112.279 155.563L100.501 167.586C100.501 167.586 52.6104 248.611 98.5185 325.344C98.5185 365.086 98.8332 401.061 98.8332 401.061L96.9872 417.249C96.9872 417.249 97.0082 417.836 97.4277 418.801L92.9911 400.179C92.9911 400.179 175.955 426.46 216.734 400.935C216.734 400.935 221.465 441.106 219.944 418.497C219.944 418.497 219.912 418.161 219.682 417.595H219.671Z" fill="#CFDDF1"/>
<path d="M214.07 300.784C212.959 252.535 248.756 208.041 234.586 181.047C220.689 168.625 173.753 153.811 173.983 153.433L195.39 246.89C195.39 246.89 191.069 280.914 192.485 328.251C193.964 377.854 203.152 416.861 217.039 430.961C232.509 438.074 215.193 349.023 214.081 300.774L214.07 300.784Z" fill="url(#paint8_linear_2646_3051)"/>
<path d="M55.1171 464.145C55.1171 464.145 63.6862 468.814 75.8529 443.876C92.0156 410.734 158.429 441.421 158.754 377.927C158.932 343.001 151.433 274.21 145.591 247.163C134.085 193.877 113.045 153.15 113.045 153.15C113.045 153.15 51.6244 172.444 45.3103 179.536C27.0394 200.057 68.2592 222.351 72.1085 266.058C75.9473 309.765 75.8633 300.774 75.8633 300.774C75.8633 300.774 75.2131 338.847 73.3671 355.035C71.5211 371.223 55.1276 464.134 55.1276 464.134L55.1171 464.145Z" fill="url(#paint9_linear_2646_3051)"/>
<path d="M85.5652 481.854C86.8762 480.921 104.455 433.689 104.455 433.689L109.857 438.766L88.5544 493.227L85.5652 481.865V481.854Z" fill="url(#paint10_linear_2646_3051)"/>
<path d="M99.4205 435.839L102.903 443.508C102.903 443.508 98.9485 463.452 90.285 479.147C86.2155 475.885 84.5164 472.223 84.5164 472.223L99.4205 435.839Z" fill="#E6E6E6"/>
<path d="M45.3103 179.557C28.4552 194.433 17.8409 244.865 1.74102 287.25C-6.4505 308.821 16.4669 355.57 26.1478 380.854C39.9716 416.934 81.8732 475.066 84.3694 479.137C84.3694 479.137 88.848 471.867 93.1588 460.861C97.4801 449.856 100.711 437.98 100.711 437.98C100.711 437.98 55.117 336.161 74.4054 279.854C90.2115 233.703 62.1548 164.659 45.3103 179.536V179.557Z" fill="url(#paint11_linear_2646_3051)"/>
<path d="M171.875 143.529C171.875 143.529 171.644 153.139 173.606 160.389C175.567 167.639 182.28 181.686 186.643 222.844C191.877 272.227 180.99 347.974 203.875 390.191C188.856 315.923 206.309 165.32 171.875 143.54V143.529Z" fill="black"/>
<path d="M150.584 250.625C140.494 205.617 123.607 172.632 123.607 172.632L107.151 138L100.721 159.382C100.721 159.382 140.032 252.377 141.868 263.299C149.682 309.901 158.765 389.289 158.765 389.289C158.765 389.289 159.782 291.583 150.594 250.625H150.584Z" fill="black"/>
</g>
<defs>
<linearGradient id="paint0_linear_2646_3051" x1="139.933" y1="125.646" x2="139.933" y2="225.667" gradientUnits="userSpaceOnUse">
<stop stop-color="#8F452F"/>
<stop offset="1" stop-color="#A35D38"/>
</linearGradient>
<linearGradient id="paint1_linear_2646_3051" x1="189.945" y1="61.0049" x2="189.945" y2="92.2591" gradientUnits="userSpaceOnUse">
<stop stop-color="#8F452F"/>
<stop offset="1" stop-color="#A35D38"/>
</linearGradient>
<linearGradient id="paint2_linear_2646_3051" x1="90.9849" y1="60.9723" x2="90.9849" y2="92.2158" gradientUnits="userSpaceOnUse">
<stop stop-color="#8F452F"/>
<stop offset="1" stop-color="#A35D38"/>
</linearGradient>
<linearGradient id="paint3_linear_2646_3051" x1="140.484" y1="13.2697" x2="140.484" y2="110.883" gradientUnits="userSpaceOnUse">
<stop stop-color="#8F452F"/>
<stop offset="1" stop-color="#A35D38"/>
</linearGradient>
<linearGradient id="paint4_linear_2646_3051" x1="202.98" y1="322.881" x2="260.148" y2="328.837" gradientUnits="userSpaceOnUse">
<stop stop-color="#C1210D"/>
<stop offset="0.52" stop-color="#C1210D"/>
<stop offset="1" stop-color="#9D1D06"/>
</linearGradient>
<linearGradient id="paint5_linear_2646_3051" x1="218.676" y1="735.588" x2="241.703" y2="775.462" gradientUnits="userSpaceOnUse">
<stop stop-color="#5E5B55"/>
<stop offset="0.23" stop-color="#6C6A66"/>
<stop offset="0.69" stop-color="#939493"/>
<stop offset="0.92" stop-color="#A9ABAC"/>
<stop offset="1" stop-color="#A9ABAC"/>
</linearGradient>
<linearGradient id="paint6_linear_2646_3051" x1="50.9569" y1="740.117" x2="69.85" y2="772.832" gradientUnits="userSpaceOnUse">
<stop stop-color="#5E5B55"/>
<stop offset="0.23" stop-color="#6C6A66"/>
<stop offset="0.69" stop-color="#939493"/>
<stop offset="0.92" stop-color="#A9ABAC"/>
<stop offset="1" stop-color="#A9ABAC"/>
</linearGradient>
<linearGradient id="paint7_linear_2646_3051" x1="167.239" y1="133.374" x2="156.567" y2="184.969" gradientUnits="userSpaceOnUse">
<stop stop-color="#474747"/>
<stop offset="0.1" stop-color="#606060"/>
<stop offset="0.33" stop-color="#989898"/>
<stop offset="0.54" stop-color="#C4C4C4"/>
<stop offset="0.73" stop-color="#E4E4E4"/>
<stop offset="0.89" stop-color="#F8F8F8"/>
<stop offset="1" stop-color="white"/>
</linearGradient>
<linearGradient id="paint8_linear_2646_3051" x1="173.983" y1="292.402" x2="237.911" y2="292.402" gradientUnits="userSpaceOnUse">
<stop offset="0.3" stop-color="#C1210D"/>
<stop offset="0.52" stop-color="#C1210D"/>
<stop offset="0.95" stop-color="#9D1D06"/>
<stop offset="1" stop-color="#9D1D06"/>
</linearGradient>
<linearGradient id="paint9_linear_2646_3051" x1="40.6534" y1="308.831" x2="158.754" y2="308.831" gradientUnits="userSpaceOnUse">
<stop stop-color="#C1210D"/>
<stop offset="0.52" stop-color="#C1210D"/>
<stop offset="1" stop-color="#9D1D06"/>
</linearGradient>
<linearGradient id="paint10_linear_2646_3051" x1="81.7349" y1="467.334" x2="115.048" y2="458.578" gradientUnits="userSpaceOnUse">
<stop/>
<stop offset="1" stop-color="#262626"/>
</linearGradient>
<linearGradient id="paint11_linear_2646_3051" x1="-6.83422e-05" y1="328.313" x2="79.9852" y2="328.313" gradientUnits="userSpaceOnUse">
<stop stop-color="#C1210D"/>
<stop offset="0.25" stop-color="#C1210D"/>
<stop offset="0.71" stop-color="#9D1D06"/>
<stop offset="0.82" stop-color="#9D1D06"/>
</linearGradient>
<clipPath id="clip0_2646_3051">
<rect width="118" height="225.649" fill="white" transform="translate(82.9897)"/>
</clipPath>
<clipPath id="clip1_2646_3051">
<rect width="327" height="660" fill="white" transform="translate(0 135)"/>
</clipPath>
</defs>
</svg>
