<svg width="327" height="795" viewBox="0 0 327 795" fill="none" xmlns="http://www.w3.org/2000/svg">
<g clip-path="url(#clip0_2646_3050)">
<path d="M183.329 72.4181L177.846 38.5398L150.507 28.7475L122.54 22.1233L106.454 26.7954L95.5952 46.0706L94.4348 64.2152V89.5919L99.992 95.16L99.5449 101.336L108.413 114.137L136.071 124.377C136.071 124.377 146.057 125.732 146.472 124.974C146.888 124.217 162.814 114.734 162.814 114.734L175.6 106.904L180.955 98.1681L183.329 89.5812L185.958 86.8718L188.034 79.3409L183.318 72.4181H183.329Z" fill="black"/>
<path d="M174.258 165.05C174.258 165.05 162.814 161.775 162.814 155.887V125.646C160.663 127.054 158.481 128.302 156.352 129.433C152.2 131.62 148.367 132.793 145.078 133.401C145.078 133.401 142.959 133.988 139.446 133.956C135.943 133.988 133.825 133.412 133.825 133.412C130.525 132.804 126.692 131.63 122.54 129.444C120.688 128.473 118.803 127.385 116.919 126.201V155.898C116.919 161.786 105.485 165.061 105.485 165.061C104.431 165.253 103.644 165.733 103.058 166.415C100.822 168.997 101.546 174.618 103.058 180.122C104.836 186.619 107.689 192.912 107.987 193.734C109.02 196.55 125.351 227.782 141.235 225.553C157.108 223.324 171.661 189.115 174.173 180.197C175.025 177.189 175.44 174.853 175.6 173.061C176.675 169.904 176.451 167.13 174.258 165.071V165.05Z" fill="url(#paint0_linear_2646_3050)"/>
<g style="mix-blend-mode:multiply" opacity="0.25">
<path d="M145.067 131.044C145.067 131.044 142.949 131.684 139.435 131.652C135.922 131.684 133.804 131.054 133.804 131.054C130.503 130.382 126.671 129.081 122.519 126.66C120.667 125.572 118.782 124.377 116.898 123.065V143.897C132.494 146.372 148.261 140.719 162.793 131.396V122.457C160.642 124.003 158.46 125.401 156.32 126.66C152.168 129.081 148.335 130.382 145.046 131.044H145.067Z" fill="#ECB699"/>
</g>
<mask id="mask0_2646_3050" style="mask-type:luminance" maskUnits="userSpaceOnUse" x="180" y="61" width="16" height="31">
<path d="M185.149 61.3137C182.701 61.9964 181.498 63.6391 180.944 64.3858C180.987 64.5884 181.008 64.8018 181.04 65.0151C182.573 74.5407 183.169 83.821 183.297 91.2665C185.863 92.2586 189.695 91.4906 192.921 83.8103C196.945 74.1994 195.337 62.039 189.216 61.143C188.609 61.0577 188.045 61.015 187.523 61.015C186.629 61.015 185.841 61.1324 185.16 61.3244" fill="white"/>
</mask>
<g mask="url(#mask0_2646_3050)">
<path d="M196.945 61.0049H180.944V92.2591H196.945V61.0049Z" fill="url(#paint1_linear_2646_3050)"/>
</g>
<mask id="mask1_2646_3050" style="mask-type:luminance" maskUnits="userSpaceOnUse" x="83" y="60" width="15" height="32">
<path d="M89.7187 61.1003C83.5972 61.9964 81.9897 74.1567 86.0139 83.7677C89.229 91.4265 93.0509 92.2159 95.6165 91.2239C95.7443 84.045 96.2979 75.1594 97.7138 65.9965C97.799 65.4418 97.8841 64.8871 97.9693 64.3324C97.2986 63.4151 95.6804 61.239 92.1034 60.9937C91.8692 60.983 91.6349 60.9617 91.3794 60.9617C90.8578 60.9617 90.3042 61.0043 89.708 61.0897" fill="white"/>
</mask>
<g mask="url(#mask1_2646_3050)">
<path d="M97.98 60.9723H81.9897V92.2158H97.98V60.9723Z" fill="url(#paint2_linear_2646_3050)"/>
</g>
<mask id="mask2_2646_3050" style="mask-type:luminance" maskUnits="userSpaceOnUse" x="98" y="13" width="83" height="97">
<path d="M132.771 13.8883C131.823 14.0483 130.876 14.2403 129.918 14.4963C113.96 18.6671 105.262 34.4969 100.62 51.9374C99.9175 53.8148 99.1829 57.9429 99.1829 57.9429C98.7358 60.0336 98.3525 62.135 98.0012 64.2044C99.3746 77.3675 101.6 97.1654 102.834 100.525C103.154 101.411 103.931 102.339 104.985 103.278C108.413 105.56 113.182 108.483 116.248 109.315C121.486 110.723 122.561 106.755 123.498 103.214C124.435 99.6614 126.852 95.704 132.899 95.128C133.399 95.0853 133.878 95.0533 134.347 95.0213C134.453 95.0106 134.538 95 134.634 94.9893C138.009 94.7333 146.068 94.4133 149.655 96.152C153.126 97.6347 154.734 100.621 155.468 103.352C156.405 106.904 157.48 110.872 162.707 109.454C165.784 108.611 170.554 105.688 173.982 103.416C175.046 102.478 175.813 101.549 176.132 100.664C177.367 97.3147 179.581 77.6448 180.955 64.4924V64.4604C180.955 64.4604 180.955 64.4071 180.944 64.3751C180.593 62.231 180.199 60.0763 179.73 57.9216C179.73 57.9216 179.006 53.8041 178.304 51.9161C174.29 36.8863 167.275 23.0832 155.202 16.8751C155.106 16.8217 155.021 16.7684 154.925 16.7151C154.744 16.6297 154.563 16.5337 154.372 16.4484C150.379 14.475 146.536 13.7816 144.333 13.547C142.714 13.3336 141.139 13.2483 139.659 13.2483C136.997 13.2483 134.623 13.5363 132.76 13.867" fill="white"/>
</mask>
<g mask="url(#mask2_2646_3050)">
<path d="M180.965 13.2697H98.0012V110.883H180.965V13.2697Z" fill="url(#paint3_linear_2646_3050)"/>
</g>
<path d="M97.7137 65.9965C96.2978 75.1594 95.7442 84.045 95.6165 91.2239C95.5952 91.7573 95.5952 92.2799 95.5952 92.792C95.4142 111.384 109.861 122.723 122.551 129.433C126.703 131.63 130.535 132.804 133.825 133.39C133.825 133.39 135.943 133.977 139.457 133.934C142.959 133.966 145.078 133.401 145.078 133.401C148.378 132.793 152.21 131.62 156.362 129.433C169.042 122.734 183.499 111.395 183.318 92.792C183.318 92.2906 183.307 91.7786 183.297 91.2559C183.169 83.8104 182.573 74.5408 181.04 65.0045C181.008 64.8232 180.987 64.6525 180.955 64.4711C179.581 77.6235 177.367 97.3148 176.132 100.664C175.802 101.55 175.035 102.478 173.971 103.416C170.543 105.699 165.773 108.622 162.697 109.454C157.47 110.872 156.384 106.904 155.458 103.363C154.734 100.622 153.115 97.6454 149.645 96.1627C146.046 94.424 137.998 94.744 134.613 95C134.517 95 134.432 95.0107 134.325 95.0214C133.857 95.0534 133.378 95.0854 132.877 95.128C126.841 95.704 124.424 99.6721 123.477 103.214C122.54 106.755 121.465 110.734 116.227 109.315C113.161 108.483 108.392 105.56 104.964 103.278C103.899 102.339 103.133 101.411 102.813 100.526C101.578 97.1654 99.3532 77.3675 97.9799 64.2045C97.9799 64.2471 97.9692 64.2898 97.9586 64.3325C97.8734 64.8872 97.7883 65.4418 97.7031 65.9965" fill="black"/>
<path d="M197.69 0.821308C196.359 1.25865 193.091 2.14401 185.777 3.90406C168.201 8.14952 153.03 -0.917408 126.724 0.0746203C105.539 0.874643 100.546 13.1523 99.3958 17.9205C90.8897 24.4593 89.6015 36.929 90.1658 46.988C90.5171 53.2708 91.603 58.615 92.1033 60.9937C95.6804 61.2497 97.2986 63.4151 97.9586 64.3325C98.3206 62.1991 98.7145 60.0657 99.1616 57.9429C99.1616 57.9429 99.8855 53.8255 100.599 51.9481C101.27 49.42 102.036 46.9453 102.888 44.5132C118.314 37.3984 119.08 28.5874 119.08 28.5874C142.991 44.5559 165.294 46.2626 176.494 45.9746C177.143 47.9373 177.75 49.932 178.293 51.9588C178.996 53.8362 179.72 57.9536 179.72 57.9536C180.177 60.1083 180.571 62.2631 180.933 64.4071C181.487 63.6498 182.69 62.0071 185.139 61.3244C185.65 58.9563 186.959 52.7268 187.225 45.5159C187.225 45.2706 187.246 45.0146 187.257 44.7692C206.26 31.6382 198.638 4.00007 197.69 0.821308Z" fill="black"/>
<path d="M126.458 105.08C126.458 105.08 130.088 111.128 138.158 111.128C138.158 111.128 147.164 111.587 151.401 105.443L151.561 105.187C137.53 110.798 126.469 105.08 126.469 105.08" fill="white"/>
<path d="M144.535 90.9678C144.12 90.9678 143.747 90.6905 143.63 90.2745C143.491 89.7731 143.79 89.2611 144.29 89.1331C145.44 88.8238 148.122 87.5757 148.602 85.869C148.932 84.6957 147.271 80.8449 145.812 77.4528C144.907 75.3407 143.971 73.1647 143.225 71.0846C140.979 64.7804 144.152 59.2336 144.29 58.9989C144.556 58.5509 145.12 58.4016 145.567 58.6682C146.015 58.9243 146.164 59.5003 145.908 59.9483C145.876 60.0016 143.044 64.9938 144.993 70.4659C145.716 72.4926 146.632 74.6367 147.526 76.7168C149.624 81.5809 150.88 84.653 150.39 86.381C149.634 89.0798 146.078 90.5838 144.769 90.9358C144.684 90.9572 144.609 90.9678 144.524 90.9678" fill="#A4675C"/>
<path d="M163.836 70.018C163.836 71.9274 162.292 73.4848 160.376 73.4848C158.46 73.4848 156.927 71.9274 156.927 70.018C156.927 68.1086 158.481 66.5619 160.376 66.5619C162.271 66.5619 163.836 68.1193 163.836 70.018Z" fill="#231F20"/>
<path d="M123.53 70.2312C123.53 72.1406 121.997 73.698 120.07 73.698C118.143 73.698 116.621 72.1406 116.621 70.2312C116.621 68.3219 118.175 66.7751 120.07 66.7751C121.965 66.7751 123.53 68.3325 123.53 70.2312Z" fill="#231F20"/>
</g>
<g clip-path="url(#clip1_2646_3050)">
<path d="M234.586 181.047C234.586 181.047 252.962 179.557 261.006 283.369C262.485 302.463 251.011 342.666 251.923 402.204C252.542 442.187 224.601 468.058 223.982 470.198L208.983 465.456C208.983 465.456 186.905 254.213 234.596 181.036L234.586 181.047Z" fill="url(#paint4_linear_2646_3050)"/>
<path d="M218.79 432.545C218.79 432.545 234.848 452.825 220.626 477.27C215.465 449.793 218.79 432.545 218.79 432.545Z" fill="#CFDDF1"/>
<mask id="mask3_2646_3050" style="mask-type:luminance" maskUnits="userSpaceOnUse" x="206" y="739" width="44" height="30">
<path d="M210.987 739.616C211.952 739.721 212.938 739.826 213.934 739.826C219.336 739.826 224.674 740.634 230.065 740.676C232.53 740.697 234.984 740.676 237.428 740.351C238.131 740.256 238.792 740.057 239.515 740.12C239.411 742.312 241.508 745.292 242.662 747.107C243.963 749.121 246.815 753.958 249.752 754.22L249.91 768.037C246.511 767.838 243.103 767.838 239.683 767.848C235.425 767.859 231.167 767.88 226.95 767.471C221.979 766.988 217.269 765.635 212.696 763.841C209.109 762.445 207.358 761.302 206.823 757.85C205.91 751.839 206.854 745.428 207.316 739.417C207.567 739.396 207.819 739.396 208.071 739.396C209.046 739.396 210.022 739.501 210.987 739.606" fill="white"/>
</mask>
<g mask="url(#mask3_2646_3050)">
<path d="M238.904 720.366L193.515 746.578L216.909 787.11L262.299 760.897L238.904 720.366Z" fill="url(#paint5_linear_2646_3050)"/>
</g>
<mask id="mask4_2646_3050" style="mask-type:luminance" maskUnits="userSpaceOnUse" x="42" y="744" width="43" height="31">
<path d="M42.1008 774.091C42.1638 773.912 42.2162 773.734 42.2791 773.556H42.2372C42.1218 773.734 42.0799 773.902 42.1113 774.091M50.9007 744.841C49.9567 744.872 48.9393 744.904 47.9849 744.537C47.1458 748.272 45.8767 752.027 44.8278 755.731C43.8419 759.224 42.8455 762.729 42.6462 766.348C42.5309 768.541 42.898 771.353 42.2791 773.556L82.9431 767.985C82.6389 767.387 82.6913 766.432 82.5864 765.761C82.2718 763.452 82.1669 761.102 82.1669 758.773C82.1669 754.913 82.964 750.202 84.789 746.656C76.2094 746.163 67.5879 744.757 58.9559 744.663C56.2603 744.642 53.5648 744.778 50.8902 744.841" fill="white"/>
</mask>
<g mask="url(#mask4_2646_3050)">
<path d="M74.1126 726.033L29.2773 751.925L52.7506 792.593L97.5858 766.701L74.1126 726.033Z" fill="url(#paint6_linear_2646_3050)"/>
</g>
<path d="M230.495 753.328C213.997 753.654 213 753.643 203.687 753.727C201.757 753.748 159.971 509.751 144.374 438.819C144.112 440.004 143.85 441.221 143.577 442.47C142.182 434.664 141.427 427.048 147.804 419.882C183.549 510.643 213.305 657.165 230.495 753.328Z" fill="#4C0F0F"/>
<path d="M140.242 458.112C117.314 534.154 81.9676 758.459 81.9676 760.232C81.9676 761.102 75.234 760.956 67.032 760.452C82.1354 675.346 109.678 536.567 140.242 458.112Z" fill="#4C0F0F"/>
<path d="M50.2294 560.435C58.6726 476.179 73.3565 355.046 73.3565 355.046C73.3565 355.046 121.32 355.507 144.49 355.507C174.906 355.507 204.159 351.384 204.159 351.384C204.159 351.384 223.153 477.406 231.597 561.662C239.924 644.774 249.27 750.664 249.27 752.132C249.27 752.132 237.722 752.709 230.485 753.339C213.284 657.175 183.538 510.653 147.793 419.892C141.416 427.058 142.172 434.675 143.567 442.48C142.528 447.254 141.416 452.489 140.242 458.112C109.678 536.567 82.1459 675.346 67.032 760.452C54.1626 759.655 40.1814 753.727 40.1814 753.727C40.1814 753.727 41.7861 644.691 50.2294 560.435Z" fill="#681111"/>
<path d="M252.238 749.751C252.238 749.751 277.557 763.683 288.067 767.24C298.576 770.796 320.602 775.087 325.196 778.791C329.8 782.494 324.871 787.981 318.295 789.901C311.718 791.832 274.096 791.685 258.814 789.461C243.532 787.236 238.435 782.054 238.435 782.054C238.435 782.054 234.827 781.015 232.687 781.466C230.548 781.907 232.194 786.649 230.38 787.981C228.576 789.314 204.746 786.796 201.62 784.718C198.495 782.641 201.62 759.833 204.085 753.905C206.55 747.978 212.791 756.57 229.887 757.011C246.973 757.451 236.956 756.57 252.227 749.751" fill="black"/>
<path d="M32.8395 759.938C32.9548 759.634 33.0492 759.329 33.2066 759.015C36.951 750.643 48.5512 748.23 64.2735 750.643C72.8007 751.954 76.629 754.493 78.3596 756.539C79.786 757.997 80.9922 759.812 81.7473 762.173C84.5478 764.449 89.4354 768.268 91.9527 771.562C95.5187 776.231 100.868 786.691 89.9808 791.202C79.7021 795.462 40.8422 796.553 27.7735 792.335C22.7181 791.391 18.7219 790.226 16.425 788.947C8.93616 784.802 22.8649 766.757 32.8499 759.927" fill="black"/>
<path d="M118.929 148.418C119.003 147.495 119.044 146.404 119.044 145.103C119.044 143.624 111.115 140.602 111.115 135L107.151 138.001L99.2317 168.499L140.189 173.912C133.131 167.397 125.914 158.511 118.919 148.418H118.929Z" fill="#0B1317"/>
<path d="M140.189 173.923C150.594 183.522 160.663 187.95 169.138 183.376C171.56 182.075 174.308 180.48 176.868 178.77L140.189 173.923Z" stroke="url(#paint7_linear_2646_3050)" stroke-miterlimit="10"/>
<path d="M219.671 417.595C219.671 417.364 219.65 417.238 219.65 417.238C214.867 353.293 210.546 294.395 210.546 294.395C210.546 294.395 216.818 228.919 202.774 190.625C203.508 187.352 203.183 185.033 203.183 185.033C203.183 185.033 199.816 179.368 196.303 173.891L194.73 167.481C194.331 168.237 193.932 168.96 193.534 169.674C192.464 168.09 191.468 166.684 190.639 165.645C186.528 160.442 168.351 140.539 168.351 140.539C168.351 140.539 158.691 151.944 152.02 153.989C150.531 191.181 141.731 163.925 139.497 153.507C121.635 150.17 111.115 135 111.115 135C111.115 135 113.276 147.38 112.279 155.563L100.501 167.586C100.501 167.586 52.6104 248.611 98.5185 325.344C98.5185 365.086 98.8332 401.061 98.8332 401.061L96.9872 417.249C96.9872 417.249 97.0082 417.836 97.4277 418.801L92.9911 400.179C92.9911 400.179 175.955 426.46 216.734 400.935C216.734 400.935 221.465 441.106 219.944 418.497C219.944 418.497 219.912 418.161 219.682 417.595H219.671Z" fill="#CFDDF1"/>
<path d="M214.07 300.784C212.959 252.535 248.756 208.041 234.586 181.047C220.689 168.625 173.753 153.811 173.983 153.433L195.39 246.89C195.39 246.89 191.069 280.914 192.485 328.251C193.964 377.854 203.152 416.861 217.039 430.961C232.509 438.074 215.193 349.023 214.081 300.774L214.07 300.784Z" fill="url(#paint8_linear_2646_3050)"/>
<path d="M55.1171 464.145C55.1171 464.145 63.6862 468.814 75.8529 443.876C92.0156 410.734 158.429 441.421 158.754 377.927C158.932 343.001 151.433 274.21 145.591 247.163C134.085 193.877 113.045 153.15 113.045 153.15C113.045 153.15 51.6244 172.444 45.3103 179.536C27.0394 200.057 68.2592 222.351 72.1085 266.058C75.9473 309.765 75.8633 300.774 75.8633 300.774C75.8633 300.774 75.2131 338.847 73.3671 355.035C71.5211 371.223 55.1276 464.134 55.1276 464.134L55.1171 464.145Z" fill="url(#paint9_linear_2646_3050)"/>
<path d="M85.5652 481.854C86.8762 480.921 104.455 433.689 104.455 433.689L109.857 438.766L88.5544 493.227L85.5652 481.865V481.854Z" fill="url(#paint10_linear_2646_3050)"/>
<path d="M99.4205 435.839L102.903 443.508C102.903 443.508 98.9485 463.452 90.285 479.147C86.2155 475.885 84.5164 472.223 84.5164 472.223L99.4205 435.839Z" fill="#E6E6E6"/>
<path d="M45.3104 179.557C28.4554 194.433 17.841 244.865 1.74114 287.25C-6.45038 308.821 16.467 355.57 26.1479 380.854C39.9717 416.934 81.8733 475.066 84.3696 479.137C84.3696 479.137 88.8482 471.867 93.1589 460.861C97.4802 449.856 100.711 437.98 100.711 437.98C100.711 437.98 55.1171 336.161 74.4055 279.854C90.2117 233.703 62.1549 164.659 45.3104 179.536V179.557Z" fill="url(#paint11_linear_2646_3050)"/>
<path d="M171.875 143.529C171.875 143.529 171.644 153.139 173.606 160.389C175.567 167.639 182.28 181.686 186.643 222.844C191.877 272.227 180.99 347.974 203.875 390.191C188.856 315.923 206.309 165.32 171.875 143.54V143.529Z" fill="black"/>
<path d="M150.583 250.625C140.493 205.617 123.607 172.632 123.607 172.632L107.151 138L100.721 159.382C100.721 159.382 140.032 252.377 141.867 263.299C149.681 309.901 158.764 389.289 158.764 389.289C158.764 389.289 159.782 291.583 150.594 250.625H150.583Z" fill="black"/>
</g>
<defs>
<linearGradient id="paint0_linear_2646_3050" x1="138.933" y1="125.646" x2="138.933" y2="225.667" gradientUnits="userSpaceOnUse">
<stop stop-color="#B66951"/>
<stop offset="1" stop-color="#CE8864"/>
</linearGradient>
<linearGradient id="paint1_linear_2646_3050" x1="188.945" y1="61.0049" x2="188.945" y2="92.2591" gradientUnits="userSpaceOnUse">
<stop stop-color="#B66951"/>
<stop offset="1" stop-color="#CE8864"/>
</linearGradient>
<linearGradient id="paint2_linear_2646_3050" x1="89.9849" y1="60.9723" x2="89.9849" y2="92.2158" gradientUnits="userSpaceOnUse">
<stop stop-color="#B66951"/>
<stop offset="1" stop-color="#CE8864"/>
</linearGradient>
<linearGradient id="paint3_linear_2646_3050" x1="139.483" y1="13.2697" x2="139.483" y2="110.883" gradientUnits="userSpaceOnUse">
<stop stop-color="#B66951"/>
<stop offset="1" stop-color="#CE8864"/>
</linearGradient>
<linearGradient id="paint4_linear_2646_3050" x1="202.98" y1="322.881" x2="260.148" y2="328.837" gradientUnits="userSpaceOnUse">
<stop stop-color="#C1210D"/>
<stop offset="0.52" stop-color="#C1210D"/>
<stop offset="1" stop-color="#9D1D06"/>
</linearGradient>
<linearGradient id="paint5_linear_2646_3050" x1="218.676" y1="735.588" x2="241.704" y2="775.462" gradientUnits="userSpaceOnUse">
<stop stop-color="#5E5B55"/>
<stop offset="0.23" stop-color="#6C6A66"/>
<stop offset="0.69" stop-color="#939493"/>
<stop offset="0.92" stop-color="#A9ABAC"/>
<stop offset="1" stop-color="#A9ABAC"/>
</linearGradient>
<linearGradient id="paint6_linear_2646_3050" x1="50.9569" y1="740.117" x2="69.85" y2="772.832" gradientUnits="userSpaceOnUse">
<stop stop-color="#5E5B55"/>
<stop offset="0.23" stop-color="#6C6A66"/>
<stop offset="0.69" stop-color="#939493"/>
<stop offset="0.92" stop-color="#A9ABAC"/>
<stop offset="1" stop-color="#A9ABAC"/>
</linearGradient>
<linearGradient id="paint7_linear_2646_3050" x1="167.239" y1="133.374" x2="156.567" y2="184.969" gradientUnits="userSpaceOnUse">
<stop stop-color="#474747"/>
<stop offset="0.1" stop-color="#606060"/>
<stop offset="0.33" stop-color="#989898"/>
<stop offset="0.54" stop-color="#C4C4C4"/>
<stop offset="0.73" stop-color="#E4E4E4"/>
<stop offset="0.89" stop-color="#F8F8F8"/>
<stop offset="1" stop-color="white"/>
</linearGradient>
<linearGradient id="paint8_linear_2646_3050" x1="173.983" y1="292.402" x2="237.911" y2="292.402" gradientUnits="userSpaceOnUse">
<stop offset="0.3" stop-color="#C1210D"/>
<stop offset="0.52" stop-color="#C1210D"/>
<stop offset="0.95" stop-color="#9D1D06"/>
<stop offset="1" stop-color="#9D1D06"/>
</linearGradient>
<linearGradient id="paint9_linear_2646_3050" x1="40.6534" y1="308.831" x2="158.754" y2="308.831" gradientUnits="userSpaceOnUse">
<stop stop-color="#C1210D"/>
<stop offset="0.52" stop-color="#C1210D"/>
<stop offset="1" stop-color="#9D1D06"/>
</linearGradient>
<linearGradient id="paint10_linear_2646_3050" x1="81.7349" y1="467.334" x2="115.048" y2="458.578" gradientUnits="userSpaceOnUse">
<stop/>
<stop offset="1" stop-color="#262626"/>
</linearGradient>
<linearGradient id="paint11_linear_2646_3050" x1="5.37281e-05" y1="328.313" x2="79.9854" y2="328.313" gradientUnits="userSpaceOnUse">
<stop stop-color="#C1210D"/>
<stop offset="0.25" stop-color="#C1210D"/>
<stop offset="0.71" stop-color="#9D1D06"/>
<stop offset="0.82" stop-color="#9D1D06"/>
</linearGradient>
<clipPath id="clip0_2646_3050">
<rect width="118" height="225.649" fill="white" transform="translate(81.9897)"/>
</clipPath>
<clipPath id="clip1_2646_3050">
<rect width="327" height="660" fill="white" transform="translate(0 135)"/>
</clipPath>
</defs>
</svg>
