<svg width="214" height="773" viewBox="0 0 214 773" fill="none" xmlns="http://www.w3.org/2000/svg">
<path d="M169.548 103.02C159.508 85.27 156.148 67.09 156.328 59.79C156.358 59.2 156.378 58.61 156.398 58.02C156.448 57.01 156.508 56.45 156.508 56.45H156.428C156.428 25.83 132.218 1 102.368 1C72.5181 1 48.3081 25.83 48.3081 56.45C48.3081 58 48.3881 59.54 48.5081 61.06C48.5681 69.05 44.7781 86.23 35.2681 103.02C23.4481 123.9 22.1881 145.96 45.6581 154.84C45.6581 154.84 45.7781 154.88 45.9481 154.94C48.1581 155.76 50.5581 156.47 53.2081 157.05C53.8281 157.18 54.4281 157.28 55.0381 157.4C70.8681 161.13 110.048 166.7 147.188 157.86C148.648 157.63 150.128 157.38 151.628 157.05C155.788 156.14 159.358 154.92 162.448 153.44C162.468 153.44 162.498 153.42 162.518 153.42H162.508C182.478 143.75 180.778 122.87 169.558 103.03L169.548 103.02Z" fill="black"/>
<path d="M102.094 106.53C130.862 106.53 154.184 83.7862 154.184 55.7302C154.184 27.6741 130.862 4.93018 102.094 4.93018C73.3254 4.93018 50.0039 27.6741 50.0039 55.7302C50.0039 83.7862 73.3254 106.53 102.094 106.53Z" fill="black"/>
<mask id="mask0_2646_3102" style="mask-type:luminance" maskUnits="userSpaceOnUse" x="135" y="66" width="17" height="29">
<path d="M137.784 70.4302C132.974 76.1102 136.174 89.8202 136.724 91.5202C137.534 94.0102 140.334 97.0702 145.014 92.5202C150.054 87.6002 155.184 70.1202 147.944 67.0002C146.934 66.5602 145.974 66.3802 145.064 66.3802C140.824 66.3802 137.874 70.3102 137.774 70.4302" fill="white"/>
</mask>
<g mask="url(#mask0_2646_3102)">
<path d="M155.193 66.3802H132.983V97.0702H155.193V66.3802Z" fill="url(#paint0_linear_2646_3102)"/>
</g>
<mask id="mask1_2646_3102" style="mask-type:luminance" maskUnits="userSpaceOnUse" x="48" y="66" width="17" height="29">
<path d="M52.1641 66.7998C44.9241 69.9198 50.0441 87.3998 55.0941 92.3198C59.7741 96.8698 62.5841 93.8198 63.3941 91.3298C63.9441 89.6298 67.1441 75.9198 62.3341 70.2398C62.2341 70.1198 59.2841 66.1898 55.0441 66.1898C54.1341 66.1898 53.1741 66.3698 52.1641 66.8098" fill="white"/>
</mask>
<g mask="url(#mask1_2646_3102)">
<path d="M67.1338 66.1898H44.9238V96.8798H67.1338V66.1898Z" fill="url(#paint1_linear_2646_3102)"/>
</g>
<mask id="mask2_2646_3102" style="mask-type:luminance" maskUnits="userSpaceOnUse" x="61" y="16" width="81" height="117">
<path d="M101.054 16.11C101.054 16.11 100.964 16.11 100.914 16.11C66.4845 16.32 63.7845 54.21 63.7845 54.21C63.7845 54.21 58.7645 94.15 62.3445 103.89C64.8845 110.8 73.1245 118.6 81.0945 124.04C84.3645 126.27 87.5945 128.12 90.3645 129.33C94.7345 131.25 98.0645 131.98 100.614 132.11C100.704 132.11 100.804 132.11 100.894 132.11C100.924 132.11 100.954 132.11 100.974 132.11H101.044C101.044 132.11 101.094 132.11 101.114 132.11C101.114 132.11 101.164 132.11 101.184 132.11C101.284 132.11 101.384 132.11 101.474 132.11C104.024 131.98 107.344 131.24 111.724 129.33C113.954 128.35 116.484 126.96 119.084 125.3C127.614 119.85 137.004 111.35 139.754 103.88C143.334 94.14 138.304 54.2 138.304 54.2C138.304 54.2 135.604 16.31 101.174 16.1C101.124 16.1 101.074 16.1 101.034 16.1" fill="white"/>
</mask>
<g mask="url(#mask2_2646_3102)">
<path d="M143.355 16.11H58.7646V132.14H143.355V16.11Z" fill="url(#paint2_linear_2646_3102)"/>
</g>
<mask id="mask3_2646_3102" style="mask-type:luminance" maskUnits="userSpaceOnUse" x="60" y="124" width="80" height="62">
<path d="M79.814 149.43C78.014 155 71.254 158.37 60.374 163.11C60.404 165.2 61.494 182.71 90.964 185.17H101.974C137.424 185.17 139.634 166.22 139.764 163.07C128.944 158.35 122.224 154.98 120.434 149.43C118.924 144.77 118.964 132.33 119.114 125.32C116.504 126.98 113.984 128.37 111.754 129.35C107.374 131.27 104.054 132 101.504 132.13C101.414 132.13 101.314 132.13 101.214 132.13C101.194 132.13 101.164 132.13 101.144 132.13H101.074C101.074 132.13 101.024 132.13 101.004 132.13C101.004 132.13 100.954 132.13 100.924 132.13C100.834 132.13 100.734 132.13 100.644 132.13C98.084 132 94.764 131.26 90.394 129.35C87.624 128.14 84.394 126.29 81.124 124.06C81.294 130.73 81.434 144.49 79.834 149.44" fill="white"/>
</mask>
<g mask="url(#mask3_2646_3102)">
<path d="M139.764 124.05H60.374V185.16H139.764V124.05Z" fill="url(#paint3_linear_2646_3102)"/>
</g>
<g style="mix-blend-mode:multiply" opacity="0.2">
<mask id="mask4_2646_3102" style="mask-type:luminance" maskUnits="userSpaceOnUse" x="80" y="124" width="40" height="22">
<path d="M119.104 124.07H80.5439V145.74H119.104V124.07Z" fill="white"/>
</mask>
<g mask="url(#mask4_2646_3102)">
<mask id="mask5_2646_3102" style="mask-type:luminance" maskUnits="userSpaceOnUse" x="80" y="124" width="40" height="22">
<path d="M119.104 124.07H80.5439V145.74H119.104V124.07Z" fill="white"/>
</mask>
<g mask="url(#mask5_2646_3102)">
<path d="M119.104 125.33C116.504 126.99 113.974 128.38 111.744 129.36C107.374 131.27 104.044 132.01 101.494 132.14C101.404 132.14 101.304 132.14 101.204 132.15H101.124H101.054H100.974H100.894C100.794 132.15 100.704 132.15 100.604 132.14C98.0544 132.01 94.7244 131.27 90.3544 129.36C87.5844 128.15 84.3544 126.3 81.0844 124.07C81.2244 129.46 81.3344 139.49 80.5244 145.74C93.7644 143.35 107.054 138.95 119.024 132.27C119.024 129.72 119.044 127.3 119.084 125.32" fill="url(#paint4_linear_2646_3102)"/>
</g>
</g>
</g>
<path d="M104.864 98.03C104.634 98.03 104.404 98.02 104.174 97.99C103.704 97.94 103.364 97.51 103.414 97.04C103.464 96.57 103.874 96.23 104.354 96.29C105.734 96.44 106.884 95.99 107.604 95.01C108.914 93.24 108.714 90.01 107.044 86.16C101.934 74.35 106.644 68.17 106.844 67.91C107.134 67.54 107.674 67.48 108.044 67.77C108.414 68.06 108.474 68.6 108.184 68.97C108.004 69.2 103.934 74.67 108.604 85.48C111.224 91.54 109.954 94.68 108.964 96.02C108.014 97.31 106.534 98.02 104.844 98.02" fill="#A4675C"/>
<path d="M125.444 75.7403C125.444 77.7103 123.844 79.3203 121.864 79.3203C119.884 79.3203 118.294 77.7103 118.294 75.7403C118.294 73.7703 119.894 72.1703 121.864 72.1703C123.834 72.1703 125.444 73.7803 125.444 75.7403Z" fill="#231F20"/>
<path d="M83.7145 75.96C83.7145 77.93 82.1245 79.54 80.1345 79.54C78.1445 79.54 76.5645 77.93 76.5645 75.96C76.5645 73.99 78.1745 72.39 80.1345 72.39C82.0945 72.39 83.7145 74 83.7145 75.96Z" fill="#231F20"/>
<path d="M84.9863 104.93C84.9863 104.93 90.0548 112.578 101.298 112.578C101.298 112.578 113.858 113.164 119.765 105.391L119.986 105.072C100.413 112.159 84.9863 104.93 84.9863 104.93Z" fill="white"/>
<path d="M121.14 20.9302C121.14 20.9302 103.76 44.8802 140.25 68.8402C140.25 68.8402 140.9 29.0602 121.14 20.9302Z" fill="black"/>
<path d="M53.9984 66.3299C53.9984 66.3299 125.838 65.9599 137.348 30.3999C137.348 30.3999 119.508 6.46993 86.5184 16.2999C53.5384 26.1399 53.9984 66.3299 53.9984 66.3299Z" fill="black"/>
<path d="M74.0695 158.41C74.0695 158.41 49.9795 163.74 39.8295 174.52C36.6095 177.94 -1.58045 235.22 0.319546 304.04C14.0795 304.99 32.1595 285.3 32.1595 285.3L74.0695 158.41Z" fill="url(#paint5_linear_2646_3102)"/>
<path d="M40.6003 483.85C40.6003 483.85 31.0403 511.56 28.5403 515.62C26.0403 519.68 22.0903 530.07 25.0803 537.96C28.0703 545.85 34.2803 565.91 35.4703 573.2C36.6603 580.49 42.5203 628.51 42.7603 639.26C43.0003 650.01 35.5903 690.62 35.4703 697.08C35.3503 703.54 31.6503 717.27 32.0103 720.25C32.3703 723.23 32.1603 731.24 31.3903 734.66C30.6203 738.08 30.3603 739.96 29.5103 740.56C28.6603 741.16 25.2303 742.7 25.2303 742.7C25.2303 742.7 15.7403 747.06 12.1503 749.37C8.56028 751.68 13.0903 755.18 17.2803 754.93C21.4703 754.68 26.5103 751.08 29.4203 752.02C32.3303 752.96 48.5703 751.59 52.8503 748.69C57.1303 745.79 59.9503 727.83 62.0003 722.1C64.0503 716.37 70.9803 705.94 75.6803 703.37C80.3803 700.8 80.5503 691.91 78.2503 688.24C75.9503 684.57 69.7003 678.58 69.0203 676.61C68.3403 674.64 67.5703 646.85 67.8203 640.87C68.0703 634.89 72.8603 589.82 72.6903 580.16C72.5203 570.5 66.7003 551.26 63.0303 542.88C59.3603 534.5 62.7703 530.65 64.0603 529.11C65.3503 527.57 84.1503 497.39 84.1503 497.39L40.6103 483.86L40.6003 483.85Z" fill="url(#paint6_linear_2646_3102)"/>
<path d="M96.4697 516.93C96.4697 516.93 101.55 528.43 103.12 531.42C104.69 534.41 109.99 542.78 111.64 545.91C113.29 549.04 119.78 562.12 121.87 568.02C123.96 573.92 130.69 593.87 134.5 602.09C138.31 610.31 149.44 640.64 150.71 646.47C151.98 652.3 154.3 669.03 154.37 680.46C154.44 691.89 154.22 727.6 153.7 731.56C153.18 735.52 149.29 744.93 147.42 746.58C145.55 748.23 138.16 755.4 137.93 757.11C137.7 758.82 140.02 761.14 145.33 761.07C150.64 761 168.04 760.85 170.51 759.87C172.98 758.89 181.34 757.33 182.54 755.39C183.74 753.45 184.63 729.99 185.53 720.5C186.43 711.01 188 681.28 187.47 679.04C186.94 676.8 181.87 672.91 179.7 668.06C177.53 663.21 175.96 653.49 174.02 644.6C172.08 635.71 168.34 609.04 166.55 599.03C164.76 589.02 158.03 559.81 155.79 555.03C153.55 550.25 144.43 534.93 141 531.12C137.57 527.31 130.91 507.89 130.91 507.89L96.4697 516.93Z" fill="url(#paint7_linear_2646_3102)"/>
<path d="M149.1 743.66C149.1 743.66 135.69 755.08 134.5 758.49C133.31 761.9 131.72 763.41 132.44 764.68C133.16 765.95 154.17 765.47 160.6 763.73C167.03 761.98 182.49 760.64 184.71 754.93C186.93 749.22 186.14 727.96 187.09 722.73C188.04 717.5 188.44 717.42 188.44 717.42C188.44 717.42 192.25 748.28 192.17 752.24L194.71 752L194.55 750.25L193.28 749.54C193.28 749.54 189.71 717.02 193.52 707.1C197.33 697.18 195.98 694.33 193.84 689.41C191.7 684.49 187.18 677.27 187.18 677.27C187.18 677.27 185.83 713.52 184.88 723.99C183.93 734.46 180.99 748.1 171.24 747.39C161.49 746.68 152.28 746.91 149.11 743.66H149.1Z" fill="#212121"/>
<path d="M26.2197 742.32C26.2197 742.32 10.5897 748.72 9.06974 749.74C7.54974 750.76 3.90974 752.07 5.58974 754.62C7.26974 757.17 17.2697 757.82 20.2797 758.04C23.2897 758.26 37.4597 757.82 38.6097 757.42C39.7597 757.02 56.2897 752.73 58.8997 745.27C61.5097 737.81 66.1997 713.89 71.3297 713.55C71.3297 713.55 74.1897 712.59 74.5597 719.36C74.9297 726.13 73.9397 754.46 73.9397 754.46H76.4897C76.4897 754.46 78.3197 723.58 79.1297 717.74C79.9397 711.9 82.7297 701.93 82.0797 697.61C81.4297 693.29 76.7997 683.26 72.1697 680C72.1697 680 66.1297 684.64 61.2997 691.18C57.3997 696.46 55.7997 699.85 52.6297 708.08C49.4597 716.31 45.6997 726.44 44.5197 730.04C43.3397 733.64 37.8097 747.09 26.2197 742.31V742.32Z" fill="#212121"/>
<path d="M157.98 436.27C152.4 390.74 141.4 345.16 140.52 321.86C138.31 262.85 162.24 226.67 162.24 226.67C162.24 226.67 160.92 221.3 160.27 213.49C159.4 203 159.75 188.13 166.13 176.01C161.49 172.18 134.76 159.61 128.92 157.53C117.33 171.82 101.32 179.99 89.55 182.04C78.75 183.93 72.53 169.7 73.87 155L66.77 158.55C66.77 158.55 34.16 215.44 33.04 228.25C32.97 229.02 32.94 229.8 32.91 230.59C32.58 242.97 37.42 257.85 36.38 268.31C35.27 279.45 23.3 357.39 19.4 425.3C15.49 493.21 27.76 571.15 27.76 571.15L33.68 570.96L133.99 567.78L173.97 565.95C173.97 565.95 166.52 505.97 157.98 436.25V436.27Z" fill="url(#paint8_linear_2646_3102)"/>
<path d="M178.63 416.04C174.63 363.6 176.85 209.4 176.85 209.4L170.18 211.62C170.18 211.62 177.01 395.82 174.35 413.15C179.68 417.15 178.63 416.04 178.63 416.04Z" fill="#232323"/>
<path style="mix-blend-mode:multiply" opacity="0.2" d="M173.97 565.96L133.99 567.79C125.3 511.68 102.96 366.18 76.8397 349.71C42.3997 328 29.1398 384.34 28.5798 475.75C28.2498 528.82 31.1797 556.82 33.6897 570.97L27.7698 571.16C27.7698 571.16 15.4997 493.21 19.4097 425.31C23.2997 357.4 35.2697 279.46 36.3897 268.32C37.4297 257.86 32.5897 242.98 32.9197 230.6C37.4597 255.47 99.6497 248.27 112.04 240.71C125.1 232.77 158.54 212.79 158.54 212.79C158.54 212.79 159.22 213.05 160.29 213.5C160.94 221.31 162.26 226.68 162.26 226.68C162.26 226.68 138.32 262.85 140.54 321.87C141.42 345.17 152.42 390.75 158 436.28C166.53 506 173.99 565.98 173.99 565.98L173.97 565.96Z" fill="url(#paint9_linear_2646_3102)"/>
<path d="M151.62 420.16C149.97 427.58 164.16 464.78 164.16 464.78C164.16 464.78 192.19 451.13 194.03 445.6C195.87 440.07 181.86 406.88 181.86 406.88C181.86 406.88 152.36 416.84 151.62 420.16Z" fill="#232323"/>
<path d="M131.73 157.72C76.4199 278.63 151.85 421.36 151.85 421.36L155.09 419.67C155.09 419.67 117.55 345.4 115.18 271.35C112.81 197.31 136.24 159.69 136.24 159.69L131.73 157.72Z" fill="#232323"/>
<path d="M166.01 175.82C158.22 178.61 135.3 216.42 152.01 233.13C157.97 242.88 178.54 284.36 179.66 286.62C172.53 288.82 147.09 312.16 138.63 320.04C135.37 319.59 129.4 318.5 126.7 316.39C122.89 313.41 112.14 315.68 109.06 314.28C105.98 312.88 107.4 317.35 112.05 318.54C114.84 319.25 117.18 319.29 118.6 319.21C114.65 319.64 104.08 320.83 101.53 321.6C98.3795 322.54 99.5795 325.71 101.65 326.03C99.9995 328.84 106.67 332.18 106.67 332.18C106.67 332.18 105.32 333.7 109.13 336.68C106.95 339.74 118.14 340.09 120.48 340.16C122.82 340.23 141.4 335.64 141.4 335.64C141.4 335.64 141.4 335.63 141.4 335.6C165.93 330.9 192.96 314.29 213.42 291.8C213.46 291.77 213.51 291.75 213.56 291.73C213 268.91 190.49 186.96 165.99 175.83L166.01 175.82Z" fill="url(#paint10_linear_2646_3102)"/>
<path d="M119.42 320.22C117.27 319.17 108.07 316.56 104.63 315.6C105.88 315.88 107.96 316.19 110.54 315.96C114.84 315.59 116.76 311.83 113.82 312.62C110.88 313.41 102.2 311.6 97.86 311.91C93.87 312.19 88.11 313.3 86.75 313.57C78.3 308.9 46.62 291.73 25.3 285.12C9.73 280.29 0 304.39 0 304.39C34.07 319.44 79.98 327.06 85.75 327.98C86.54 328.35 97.87 333.64 99.89 333.91C101.98 334.19 111.95 335.52 110.47 332.49C114.29 330.4 113.32 328.86 113.32 328.86C113.32 328.86 119.72 326.88 118.67 324.14C120.56 324.16 122.09 321.53 119.43 320.23L119.42 320.22Z" fill="url(#paint11_linear_2646_3102)"/>
<path d="M175.17 436.8L184.43 431.59L185.39 435.83L176.13 440.08L175.17 436.8Z" fill="url(#paint12_linear_2646_3102)"/>
<defs>
<linearGradient id="paint0_linear_2646_3102" x1="144.088" y1="66.3802" x2="144.088" y2="97.0702" gradientUnits="userSpaceOnUse">
<stop stop-color="#B66951"/>
<stop offset="1" stop-color="#CE8864"/>
</linearGradient>
<linearGradient id="paint1_linear_2646_3102" x1="56.0288" y1="66.1898" x2="56.0288" y2="96.8798" gradientUnits="userSpaceOnUse">
<stop stop-color="#B66951"/>
<stop offset="1" stop-color="#CE8864"/>
</linearGradient>
<linearGradient id="paint2_linear_2646_3102" x1="101.06" y1="16.11" x2="101.06" y2="132.14" gradientUnits="userSpaceOnUse">
<stop stop-color="#B66951"/>
<stop offset="1" stop-color="#CE8864"/>
</linearGradient>
<linearGradient id="paint3_linear_2646_3102" x1="100.069" y1="124.05" x2="100.069" y2="185.16" gradientUnits="userSpaceOnUse">
<stop stop-color="#B66951"/>
<stop offset="1" stop-color="#CE8864"/>
</linearGradient>
<linearGradient id="paint4_linear_2646_3102" x1="99.8144" y1="125.364" x2="99.8144" y2="151.82" gradientUnits="userSpaceOnUse">
<stop stop-color="#F3A391"/>
<stop offset="1" stop-color="#FED08E"/>
</linearGradient>
<linearGradient id="paint5_linear_2646_3102" x1="37.1603" y1="158.41" x2="37.1603" y2="304.073" gradientUnits="userSpaceOnUse">
<stop stop-color="#B66951"/>
<stop offset="1" stop-color="#CE8864"/>
</linearGradient>
<linearGradient id="paint6_linear_2646_3102" x1="47.499" y1="483.85" x2="47.499" y2="754.943" gradientUnits="userSpaceOnUse">
<stop stop-color="#B66951"/>
<stop offset="1" stop-color="#CE8864"/>
</linearGradient>
<linearGradient id="paint7_linear_2646_3102" x1="142.023" y1="507.89" x2="142.023" y2="761.072" gradientUnits="userSpaceOnUse">
<stop stop-color="#B66951"/>
<stop offset="1" stop-color="#CE8864"/>
</linearGradient>
<linearGradient id="paint8_linear_2646_3102" x1="97.08" y1="152.07" x2="96.14" y2="588.1" gradientUnits="userSpaceOnUse">
<stop stop-color="#C1210D"/>
<stop offset="0.52" stop-color="#C1210D"/>
<stop offset="1" stop-color="#9D1D06"/>
</linearGradient>
<linearGradient id="paint9_linear_2646_3102" x1="18.6397" y1="391.97" x2="173.97" y2="391.97" gradientUnits="userSpaceOnUse">
<stop stop-color="#25635B"/>
<stop offset="1" stop-color="#255469"/>
</linearGradient>
<linearGradient id="paint10_linear_2646_3102" x1="156.581" y1="175.82" x2="156.581" y2="340.161" gradientUnits="userSpaceOnUse">
<stop stop-color="#B66951"/>
<stop offset="1" stop-color="#CE8864"/>
</linearGradient>
<linearGradient id="paint11_linear_2646_3102" x1="60.4288" y1="284.48" x2="60.4288" y2="334.441" gradientUnits="userSpaceOnUse">
<stop stop-color="#B66951"/>
<stop offset="1" stop-color="#CE8864"/>
</linearGradient>
<linearGradient id="paint12_linear_2646_3102" x1="175.17" y1="435.83" x2="185.39" y2="435.83" gradientUnits="userSpaceOnUse">
<stop stop-color="#1C1C1C"/>
<stop offset="1" stop-color="#4F4F4F"/>
</linearGradient>
</defs>
</svg>
