<svg width="276" height="768" viewBox="0 0 276 768" fill="none" xmlns="http://www.w3.org/2000/svg">
<g clip-path="url(#clip0_2646_3082)">
<path d="M217.548 102.02C207.508 84.27 204.148 66.09 204.328 58.79C204.358 58.2 204.378 57.61 204.398 57.02C204.448 56.01 204.508 55.45 204.508 55.45H204.428C204.428 24.83 180.218 0 150.368 0C120.518 0 96.3081 24.83 96.3081 55.45C96.3081 57 96.3881 58.54 96.5081 60.06C96.5681 68.05 92.7781 85.23 83.2681 102.02C71.4481 122.9 70.1881 144.96 93.6581 153.84C93.6581 153.84 93.7781 153.88 93.9481 153.94C96.1581 154.76 98.5581 155.47 101.208 156.05C101.828 156.18 102.428 156.28 103.038 156.4C118.868 160.13 158.048 165.7 195.188 156.86C196.648 156.63 198.128 156.38 199.628 156.05C203.788 155.14 207.358 153.92 210.448 152.44C210.468 152.44 210.498 152.42 210.518 152.42H210.508C230.478 142.75 228.778 121.87 217.558 102.03L217.548 102.02Z" fill="black"/>
<path d="M150.094 105.53C178.862 105.53 202.184 82.7862 202.184 54.7302C202.184 26.6741 178.862 3.93018 150.094 3.93018C121.325 3.93018 98.0039 26.6741 98.0039 54.7302C98.0039 82.7862 121.325 105.53 150.094 105.53Z" fill="black"/>
<mask id="mask0_2646_3082" style="mask-type:luminance" maskUnits="userSpaceOnUse" x="183" y="65" width="17" height="29">
<path d="M185.784 69.4302C180.974 75.1102 184.174 88.8202 184.724 90.5202C185.534 93.0102 188.334 96.0702 193.014 91.5202C198.054 86.6002 203.184 69.1202 195.944 66.0002C194.934 65.5602 193.974 65.3802 193.064 65.3802C188.824 65.3802 185.874 69.3102 185.774 69.4302" fill="white"/>
</mask>
<g mask="url(#mask0_2646_3082)">
<path d="M203.194 65.3802H180.984V96.0702H203.194V65.3802Z" fill="url(#paint0_linear_2646_3082)"/>
</g>
<mask id="mask1_2646_3082" style="mask-type:luminance" maskUnits="userSpaceOnUse" x="96" y="65" width="17" height="29">
<path d="M100.164 65.7998C92.9241 68.9198 98.0441 86.3998 103.094 91.3198C107.774 95.8698 110.584 92.8198 111.394 90.3298C111.944 88.6298 115.144 74.9198 110.334 69.2398C110.234 69.1198 107.284 65.1898 103.044 65.1898C102.134 65.1898 101.174 65.3698 100.164 65.8098" fill="white"/>
</mask>
<g mask="url(#mask1_2646_3082)">
<path d="M115.134 65.1898H92.9243V95.8798H115.134V65.1898Z" fill="url(#paint1_linear_2646_3082)"/>
</g>
<mask id="mask2_2646_3082" style="mask-type:luminance" maskUnits="userSpaceOnUse" x="109" y="15" width="81" height="117">
<path d="M149.054 15.11C149.054 15.11 148.964 15.11 148.914 15.11C114.484 15.32 111.784 53.21 111.784 53.21C111.784 53.21 106.764 93.15 110.344 102.89C112.884 109.8 121.124 117.6 129.094 123.04C132.364 125.27 135.594 127.12 138.364 128.33C142.734 130.25 146.064 130.98 148.614 131.11C148.704 131.11 148.804 131.11 148.894 131.11C148.924 131.11 148.954 131.11 148.974 131.11H149.044C149.044 131.11 149.094 131.11 149.114 131.11C149.114 131.11 149.164 131.11 149.184 131.11C149.284 131.11 149.384 131.11 149.474 131.11C152.024 130.98 155.344 130.24 159.724 128.33C161.954 127.35 164.484 125.96 167.084 124.3C175.614 118.85 185.004 110.35 187.754 102.88C191.334 93.14 186.304 53.2 186.304 53.2C186.304 53.2 183.604 15.31 149.174 15.1C149.124 15.1 149.074 15.1 149.034 15.1" fill="white"/>
</mask>
<g mask="url(#mask2_2646_3082)">
<path d="M191.354 15.11H106.764V131.14H191.354V15.11Z" fill="url(#paint2_linear_2646_3082)"/>
</g>
<mask id="mask3_2646_3082" style="mask-type:luminance" maskUnits="userSpaceOnUse" x="108" y="123" width="80" height="62">
<path d="M127.814 148.43C126.014 154 119.254 157.37 108.374 162.11C108.404 164.2 109.494 181.71 138.964 184.17H149.974C185.424 184.17 187.634 165.22 187.764 162.07C176.944 157.35 170.224 153.98 168.434 148.43C166.924 143.77 166.964 131.33 167.114 124.32C164.504 125.98 161.984 127.37 159.754 128.35C155.374 130.27 152.054 131 149.504 131.13C149.414 131.13 149.314 131.13 149.214 131.13C149.194 131.13 149.164 131.13 149.144 131.13H149.074C149.074 131.13 149.024 131.13 149.004 131.13C149.004 131.13 148.954 131.13 148.924 131.13C148.834 131.13 148.734 131.13 148.644 131.13C146.084 131 142.764 130.26 138.394 128.35C135.624 127.14 132.394 125.29 129.124 123.06C129.294 129.73 129.434 143.49 127.834 148.44" fill="white"/>
</mask>
<g mask="url(#mask3_2646_3082)">
<path d="M187.764 123.05H108.374V184.16H187.764V123.05Z" fill="url(#paint3_linear_2646_3082)"/>
</g>
<g style="mix-blend-mode:multiply" opacity="0.2">
<mask id="mask4_2646_3082" style="mask-type:luminance" maskUnits="userSpaceOnUse" x="128" y="123" width="40" height="22">
<path d="M167.104 123.07H128.544V144.74H167.104V123.07Z" fill="white"/>
</mask>
<g mask="url(#mask4_2646_3082)">
<mask id="mask5_2646_3082" style="mask-type:luminance" maskUnits="userSpaceOnUse" x="128" y="123" width="40" height="22">
<path d="M167.104 123.07H128.544V144.74H167.104V123.07Z" fill="white"/>
</mask>
<g mask="url(#mask5_2646_3082)">
<path d="M167.104 124.33C164.504 125.99 161.974 127.38 159.744 128.36C155.374 130.27 152.044 131.01 149.494 131.14C149.404 131.14 149.304 131.14 149.204 131.15H149.124H149.054H148.974H148.894C148.794 131.15 148.704 131.15 148.604 131.14C146.054 131.01 142.724 130.27 138.354 128.36C135.584 127.15 132.354 125.3 129.084 123.07C129.224 128.46 129.334 138.49 128.524 144.74C141.764 142.35 155.054 137.95 167.024 131.27C167.024 128.72 167.044 126.3 167.084 124.32" fill="url(#paint4_linear_2646_3082)"/>
</g>
</g>
</g>
<path d="M152.864 97.03C152.634 97.03 152.404 97.02 152.174 96.99C151.704 96.94 151.364 96.51 151.414 96.04C151.464 95.57 151.874 95.23 152.354 95.29C153.734 95.44 154.884 94.99 155.604 94.01C156.914 92.24 156.714 89.01 155.044 85.16C149.934 73.35 154.644 67.17 154.844 66.91C155.134 66.54 155.674 66.48 156.044 66.77C156.414 67.06 156.474 67.6 156.184 67.97C156.004 68.2 151.934 73.67 156.604 84.48C159.224 90.54 157.954 93.68 156.964 95.02C156.014 96.31 154.534 97.02 152.844 97.02" fill="#DFAC97"/>
<path d="M173.444 74.7403C173.444 76.7103 171.844 78.3203 169.864 78.3203C167.884 78.3203 166.294 76.7103 166.294 74.7403C166.294 72.7703 167.894 71.1703 169.864 71.1703C171.834 71.1703 173.444 72.7803 173.444 74.7403Z" fill="#231F20"/>
<path d="M131.714 74.96C131.714 76.93 130.124 78.54 128.134 78.54C126.144 78.54 124.564 76.93 124.564 74.96C124.564 72.99 126.174 71.39 128.134 71.39C130.094 71.39 131.714 73 131.714 74.96Z" fill="#231F20"/>
<path d="M133 103C133 103 138.068 110.648 149.311 110.648C149.311 110.648 161.872 111.234 167.779 103.461L168 103.142C148.427 110.229 133 103 133 103Z" fill="white"/>
<path d="M169.14 19.9302C169.14 19.9302 151.76 43.8802 188.25 67.8402C188.25 67.8402 188.9 28.0602 169.14 19.9302Z" fill="black"/>
<path d="M101.998 65.3299C101.998 65.3299 173.838 64.9599 185.348 29.3999C185.348 29.3999 167.508 5.46993 134.518 15.2999C101.538 25.1399 101.998 65.3299 101.998 65.3299Z" fill="black"/>
<path d="M66.9995 382.2C60.5495 402.89 47.7295 445.52 45.4195 450.49C42.6995 456.36 30.0695 454.92 27.2395 453.58C24.4095 452.23 17.5995 453.18 15.2295 452.95C12.8395 452.71 10.6895 449.56 13.5295 449.13C16.3595 448.71 28.2895 448.51 27.9495 447.06C27.5895 445.61 18.1395 442.38 18.1395 442.38C18.1395 442.38 11.1595 442.01 5.6195 442.91C0.0894985 443.79 -1.2705 440.79 1.1495 440.39C3.5695 440.01 15.3095 437.18 17.8595 437.92C20.4195 438.65 32.0095 438.77 32.0095 438.77C32.0095 438.77 37.7695 417.38 41.6495 394.57C45.5195 371.76 52.3195 333.07 56.3095 306.59C57.0595 301.62 58.1895 293.01 59.6195 284.42C63.7495 259.35 64.1095 220.16 76.8995 197.68C82.6795 187.53 90.0595 181.25 92.4195 177C92.4195 177 107.789 204.86 105.829 216.54C104.499 224.54 94.9295 261.27 88.1595 290.58C85.0495 304.02 82.6295 315.91 81.6895 322.74C78.7595 344.12 73.5995 360.97 66.9795 382.2H66.9995Z" fill="url(#paint5_linear_2646_3082)"/>
<path d="M199.629 589.65C196.949 551.8 172.469 525.25 172.469 525.25C172.469 525.25 207.339 416.09 204.699 380.98C203.079 358.99 184.889 339.82 171.539 328.56C170.329 327.55 169.189 326.63 168.099 325.75C165.819 323.93 163.779 322.37 162.089 321.16C159.149 319.03 157.309 317.89 157.309 317.89L142.189 320.83L128.739 323.44L88.5694 331.76C88.6594 333.89 87.0794 337.56 87.1294 339.84C87.2194 345.26 86.1894 348.73 85.9794 354.85C85.7994 359.96 82.8494 369.84 82.5194 375.34C78.2394 443.32 58.0694 547.12 58.2894 566.03C58.5794 589.07 111.409 689.42 111.409 689.42L128.489 684C128.489 684 120.819 612.05 103.509 589.53C86.1994 567.01 76.5194 557.01 76.5194 557.01C76.5194 557.01 135.869 473 142.069 443.37C145.419 459.35 152.309 508.8 156.869 559.05C162.629 622.63 166.809 657.44 166.809 657.44C166.869 661.56 190.639 662 190.639 662C190.639 662 202.289 627.49 199.639 589.64L199.629 589.65Z" fill="url(#paint6_linear_2646_3082)"/>
<path d="M131.591 757.81H125.111C124.631 757.81 124.231 757.43 124.211 756.95L123.331 736.08L104.041 755.02C102.641 756.4 100.761 757.2 98.8012 757.26L56.4212 758.54C55.0512 758.54 54.4712 756.79 55.5912 755.98C64.2712 749.7 88.8512 732.16 95.0512 725.03C100.761 718.46 104.951 702.1 104.951 702.1L125.921 690.67C125.921 690.67 131.231 697.98 134.741 704.5V704.55C135.911 706.74 136.831 708.83 137.351 710.57C139.161 716.84 133.421 751.54 132.491 757.08C132.421 757.51 132.041 757.82 131.601 757.82L131.591 757.81Z" fill="#1B434C"/>
<path d="M183.93 690.635C183.93 690.635 186.89 695.765 187.01 699.185C187.12 702.605 191.91 706.705 191.8 709.555C191.69 712.405 188.95 722.885 188.84 724.935C188.73 726.985 190.44 739.175 190.89 743.055C191.34 746.935 191.84 754.655 189.57 755.925C186.36 757.715 175.64 764.925 170.6 764.925C166.45 764.925 153.29 756.115 152.9 754.625C152.62 753.545 152.31 750.575 152.82 748.305C153.6 744.855 158.75 724.945 161.48 717.535C164.21 710.125 183.93 690.645 183.93 690.645V690.635Z" fill="#1B434C"/>
<path d="M100.001 673.45C103.801 686.6 109.371 693.9 103.551 703.36C94.471 718.16 84.541 733.59 80.341 739.24C73.271 748.78 84.3612 751.2 89.4912 748.94C95.7012 746.21 103.551 741.44 107.992 737.44C112.962 732.35 127.751 714.65 129.531 711.62C134.201 703.61 134.101 703.47 132.991 697.81C131.681 691.09 128.201 670.05 127.251 663L100.001 673.44V673.45Z" fill="url(#paint7_linear_2646_3082)"/>
<path d="M164.519 665.855C165.199 679.195 163.829 688.915 163.259 698.435C162.969 703.205 162.659 707.975 162.319 709.855C161.979 711.735 161 717.175 161 717.765C161 718.355 158.309 729.295 159.169 734.755C160.029 740.215 164.68 744.675 171.5 745.265C178.32 745.855 186.799 740.635 187.819 738.335C188.839 736.035 189.439 731.085 188.929 730.065C188.419 729.045 187.309 719.915 188.589 715.825C189.869 711.735 188.079 706.865 187.909 705.935C187.739 705.005 188.469 694.245 188.389 693.395C188.309 692.545 189.649 678.365 191.259 669.195C192.669 661.165 163.269 640.975 164.529 665.865L164.519 665.855Z" fill="url(#paint8_linear_2646_3082)"/>
<path opacity="0.6" d="M86.02 355.21C86.6 348.86 88.42 343.89 88.33 338.47C88.29 336.19 90.44 327.03 90.35 324.9L135.14 321.77L142.32 363.4L84 371.5C84.33 365.99 85.56 360.31 86.03 355.21H86.02Z" fill="url(#paint9_linear_2646_3082)"/>
<path d="M276.309 288.4C274.339 300.56 215.159 342.71 204.949 350.13C204.349 350.57 203.539 350 203.729 349.28L205.709 336.77L246.369 283.6L246.349 283.53C246.129 282.65 244.069 274.71 240.209 265.54C237.029 257.93 232.599 249.48 226.999 243.55L254.909 220.93C254.909 220.93 259.249 230.85 264.039 243.25C267.969 253.43 272.199 265.3 274.569 274.72C276.039 280.56 276.789 285.45 276.299 288.41L276.309 288.4Z" fill="url(#paint10_linear_2646_3082)"/>
<path d="M93.4195 164.48C85.3795 167.37 78.4295 191.93 65.9995 203.13C67.4595 208.91 77.6995 214.69 77.6995 214.69C77.6995 214.69 107.32 197.35 105.49 184.71C103.66 172.07 93.4095 164.48 93.4095 164.48H93.4195Z" fill="url(#paint11_linear_2646_3082)"/>
<path d="M201.02 602.95C200.38 622.99 199.76 638.41 191.22 669.12C182.24 671.33 168.66 668.72 164.48 665.5C162.86 621.92 158.75 605.03 154.73 568.83C157.9 568.41 179.81 564.95 182.73 552.85C181.02 554.84 167.49 561.75 157.23 561.51C157.04 559.9 156.85 558.32 156.67 556.73C175.76 557.98 180.02 547.89 180.25 547.29C179.54 547.56 163.73 552.82 153.68 550.62C148.49 509.27 144.72 476.8 141.02 460.1C140.99 459.94 140.97 459.85 140.97 459.85C140.93 460.1 140.86 460.34 140.79 460.59C140.69 460.98 140.58 461.39 140.46 461.82C139.53 465.36 138.09 469.35 136.24 473.74C136.05 474.19 135.87 474.66 135.66 475.15C130.2 487.83 124.82 501.56 117.19 517.94C112.38 528.26 110.31 532.69 106.56 541.95C101.4 554.67 98.8097 561.08 98.8097 561.08C98.8097 561.08 100.08 561.68 111.79 590.69C118.52 607.36 122.9 636.47 128.01 667.53C123.86 670.74 111.45 676.74 101.37 677.1C82.7097 641.66 68.7797 611.38 59.5497 584.11L75.1397 562.15L58.3097 565.97C58.3097 564.79 58.3697 563.36 58.4897 561.71L75.9197 559.57L55.9497 553.23C59.4997 520.47 64.9097 475.5 80.4597 384.2C80.5797 383.47 80.5797 382.73 80.6197 381.99C81.0097 376.86 81.2697 371.88 81.4497 367.08C117.23 368.13 172.84 346 188.29 331.29C190.28 334.42 191.4 335.24 194.36 339.63C194.79 340.27 196.34 342.35 196.81 343C208.76 359.55 217.24 372.38 218.75 391.24C221.6 426.95 188.49 537.7 188.49 537.7C188.49 537.7 202.3 562.77 201.01 602.96L201.02 602.95Z" fill="#398DA5"/>
<g style="mix-blend-mode:multiply" opacity="0.5">
<path d="M181.43 514.98L179.97 520.92L182.29 521.41L183.75 515.47L181.43 514.98Z" fill="#0F8691"/>
<path d="M199.41 381.22C198.5 379.32 197.47 377.45 196.3 375.64L194.24 376.66C195.34 378.41 196.34 380.22 197.22 382.03L199.4 381.22H199.41Z" fill="#0F8691"/>
<path d="M193.08 475.76L190.74 475.33C190.31 477.31 189.87 479.31 189.41 481.27L191.75 481.72C192.2 479.76 192.62 477.76 193.07 475.76H193.08Z" fill="#0F8691"/>
<path d="M184.8 501.12L187.12 501.59L188.54 495.63L186.19 495.18L184.8 501.12Z" fill="#0F8691"/>
<path d="M204.67 401.28C204.52 399.17 204.25 397.11 203.89 395.13L201.53 395.43C201.89 397.37 202.13 399.37 202.28 401.39L204.66 401.28H204.67Z" fill="#0F8691"/>
<path d="M186.86 363.87C185.41 362.4 183.86 360.91 182.15 359.33L180.45 360.82C182.14 362.35 183.66 363.8 185.07 365.25L186.86 363.87Z" fill="#0F8691"/>
<path d="M197.729 441.46L200.07 441.84C200.45 439.8 200.83 437.79 201.16 435.81L198.789 435.47C198.459 437.43 198.109 439.43 197.729 441.45V441.46Z" fill="#0F8691"/>
<path d="M201.01 421.44L203.37 421.72C203.67 419.59 203.91 417.57 204.12 415.63L201.76 415.42C201.55 417.32 201.29 419.34 201.01 421.45V421.44Z" fill="#0F8691"/>
<path d="M193.76 461.41L196.1 461.81C196.53 459.81 196.93 457.81 197.33 455.83L194.99 455.43C194.59 457.41 194.19 459.41 193.76 461.41Z" fill="#0F8691"/>
<path d="M178.83 535.11L176.51 534.61L175.58 538.19L175.92 538.59C175.92 538.59 176.67 539.48 177.84 541.18L179.86 540.08C179.09 538.96 178.49 538.18 178.14 537.74L178.82 535.12L178.83 535.11Z" fill="#0F8691"/>
<path d="M193.22 582.78L195.58 582.55C195.26 580.31 194.87 578.08 194.44 575.89L192.08 576.25C192.51 578.4 192.9 580.59 193.22 582.79V582.78Z" fill="#0F8691"/>
<path d="M187.649 554.27L185.419 555.01C186.309 557.03 187.149 559.14 187.909 561.25L190.169 560.63C189.399 558.46 188.539 556.33 187.649 554.26V554.27Z" fill="#0F8691"/>
<path d="M194.419 600.75C194.419 602.09 194.409 603.45 194.359 604.8L196.749 604.89C196.799 603.53 196.809 602.14 196.809 600.78C196.819 599.95 196.809 599.1 196.799 598.27V598.18L194.419 598.27C194.429 599.1 194.439 599.93 194.429 600.76L194.419 600.75Z" fill="#0F8691"/>
<path d="M192.78 626.9L195.14 627.11C195.4 624.92 195.63 622.68 195.81 620.47L193.45 620.28C193.24 622.49 193.01 624.69 192.78 626.9Z" fill="#0F8691"/>
<path d="M189.649 648.85L192.019 649.19C192.369 647.04 192.749 644.83 193.099 642.59L190.729 642.27C190.379 644.51 190.029 646.7 189.649 648.85Z" fill="#0F8691"/>
</g>
<g style="mix-blend-mode:multiply" opacity="0.5">
<path d="M189.339 350.41C188.739 349.84 188.159 349.29 187.579 348.74C176.309 364.86 147.719 379.93 119.609 387.1L115.199 371.12L112.899 371.73L117.299 387.69C104.059 390.87 91.0394 392.24 80.0994 391.1C80.0594 391.89 79.9995 392.67 79.9395 393.46C82.7095 393.79 85.5995 393.94 88.5795 393.94C97.7695 393.94 107.839 392.57 117.989 390.17L128.679 428.93L129.969 428.31C130.339 428.13 139.069 423.77 138.199 407.89C137.539 395.9 135.009 388.45 133.849 385.58C157.489 377.51 179.379 364.48 189.339 350.43V350.41ZM135.819 407.97C136.409 418.77 132.299 423.56 130.149 425.3L120.299 389.59C124.069 388.64 127.849 387.54 131.589 386.32C132.629 388.9 135.179 396.23 135.819 407.97Z" fill="#0F8691"/>
</g>
<path d="M128.729 377.6C128.749 379.58 127.169 381.18 125.199 381.18C123.229 381.18 121.599 379.58 121.579 377.6C121.559 375.62 123.139 374.02 125.109 374.02C127.079 374.02 128.709 375.62 128.729 377.6Z" fill="#272727"/>
<path d="M152.28 376.66L141.72 359.33L149.43 355.72L157.41 374.46L152.28 376.66Z" fill="#272727"/>
<path d="M86.9893 392.68L92.3493 392.7L93.5693 370.63H87.9093L86.9893 392.68Z" fill="#272727"/>
<path d="M206.409 345.04C206.129 341.72 205.789 336.7 205.789 336.7C201.589 333.62 193.619 330.08 191.439 329.94C189.649 329.83 183.439 333.03 179.309 334.57C178.329 334.94 178.239 336.35 179.219 336.73C180.909 337.39 182.969 337.53 185.019 337.2C183.059 338.55 180.959 339.99 179.299 340.97C178.279 341.57 178.539 343.18 179.719 343.31C181.489 343.5 183.479 343 185.249 342.28C184.449 343.38 183.629 344.49 182.859 345.4C182.029 346.38 182.859 347.94 184.119 347.73C187.429 347.18 190.149 344.25 190.649 343.11C190.819 343.14 191.009 343.17 191.189 343.21C190.669 344.46 189.899 345.96 188.489 347.83C187.599 349 188.579 349.81 189.239 349.77C193.819 349.49 195.019 344.39 195.029 344.35C195.069 344.4 200.859 351.97 203.619 351C205.279 350.41 205.449 349.59 205.869 348.78C205.939 348.82 206.409 345.04 206.409 345.04Z" fill="url(#paint12_linear_2646_3082)"/>
<path style="mix-blend-mode:multiply" d="M140.969 459.85C140.929 460.1 140.859 460.34 140.789 460.59C140.019 463.65 138.409 468.22 136.239 473.73C136.049 474.18 135.869 474.65 135.659 475.14C130.199 487.82 126.819 497.92 117.189 517.93C112.249 528.19 106.809 536.93 102.059 547.19C81.0994 530.74 77.4394 461.49 84.5494 430.85C89.8994 407.75 103.749 398.36 112.849 394.61C113.359 397.42 114.119 400.57 115.189 404.07C119.299 417.62 127.459 430.34 136.169 434.4L140.959 459.86L140.969 459.85Z" fill="url(#paint13_radial_2646_3082)"/>
<path d="M229.129 175.17C226.099 171.99 219.739 168.28 212.739 164.37C208.689 162.1 183.539 158.35 175.969 154.49C176.539 155.8 160.379 170.26 135.129 168.91C117.199 167.95 122.949 157.39 126.589 151.23C121.509 153.74 115.829 155.61 111.319 156.97C107.169 158.22 93.1893 164.29 92.4293 164.82C90.2393 166.29 102.509 172.31 98.3693 182.9C94.2293 193.49 73.7193 219.54 70.2093 228.89C67.1093 237.16 85.7093 296.06 79.5093 349.54C125.589 361.61 193.699 320.86 193.699 320.86C193.699 320.86 182.859 295.4 185.429 275.65C187.999 255.9 202.479 232.76 202.479 232.76C202.479 232.76 217.119 237.87 221.859 243.35C243.079 242.6 258.029 218.29 258.029 218.29C258.029 218.29 237.559 183.93 229.129 175.15V175.17Z" fill="url(#paint14_linear_2646_3082)"/>
</g>
<defs>
<linearGradient id="paint0_linear_2646_3082" x1="192.089" y1="65.3802" x2="192.089" y2="96.0702" gradientUnits="userSpaceOnUse">
<stop stop-color="#F69E6E"/>
<stop offset="1" stop-color="#FCDCCE"/>
</linearGradient>
<linearGradient id="paint1_linear_2646_3082" x1="104.029" y1="65.1898" x2="104.029" y2="95.8798" gradientUnits="userSpaceOnUse">
<stop stop-color="#F69E6E"/>
<stop offset="1" stop-color="#FCDCCE"/>
</linearGradient>
<linearGradient id="paint2_linear_2646_3082" x1="149.059" y1="15.11" x2="149.059" y2="131.14" gradientUnits="userSpaceOnUse">
<stop stop-color="#F69E6E"/>
<stop offset="1" stop-color="#FCDCCE"/>
</linearGradient>
<linearGradient id="paint3_linear_2646_3082" x1="148.069" y1="123.05" x2="148.069" y2="184.16" gradientUnits="userSpaceOnUse">
<stop stop-color="#F69E6E"/>
<stop offset="1" stop-color="#FCDCCE"/>
</linearGradient>
<linearGradient id="paint4_linear_2646_3082" x1="147.814" y1="123.07" x2="147.814" y2="144.74" gradientUnits="userSpaceOnUse">
<stop stop-color="#F69E6E"/>
<stop offset="1" stop-color="#FCDCCE"/>
</linearGradient>
<linearGradient id="paint5_linear_2646_3082" x1="53.0011" y1="177" x2="53.0011" y2="454.776" gradientUnits="userSpaceOnUse">
<stop stop-color="#F69E6E"/>
<stop offset="1" stop-color="#FCDCCE"/>
</linearGradient>
<linearGradient id="paint6_linear_2646_3082" x1="131.565" y1="317.89" x2="131.565" y2="689.42" gradientUnits="userSpaceOnUse">
<stop stop-color="#F69E6E"/>
<stop offset="1" stop-color="#FCDCCE"/>
</linearGradient>
<linearGradient id="paint7_linear_2646_3082" x1="105.838" y1="663" x2="105.838" y2="749.727" gradientUnits="userSpaceOnUse">
<stop stop-color="#F69E6E"/>
<stop offset="1" stop-color="#FCDCCE"/>
</linearGradient>
<linearGradient id="paint8_linear_2646_3082" x1="175.154" y1="653.84" x2="175.154" y2="745.311" gradientUnits="userSpaceOnUse">
<stop stop-color="#F69E6E"/>
<stop offset="1" stop-color="#FCDCCE"/>
</linearGradient>
<linearGradient id="paint9_linear_2646_3082" x1="76.64" y1="346.62" x2="127.54" y2="346.65" gradientUnits="userSpaceOnUse">
<stop stop-color="#E36D4F"/>
<stop offset="0.53" stop-color="#FAA478" stop-opacity="0"/>
</linearGradient>
<linearGradient id="paint10_linear_2646_3082" x1="240.075" y1="220.93" x2="240.075" y2="350.284" gradientUnits="userSpaceOnUse">
<stop stop-color="#F69E6E"/>
<stop offset="1" stop-color="#FCDCCE"/>
</linearGradient>
<linearGradient id="paint11_linear_2646_3082" x1="98.9695" y1="176.55" x2="78.8695" y2="204.26" gradientUnits="userSpaceOnUse">
<stop stop-color="#C1210D"/>
<stop offset="0.52" stop-color="#C1210D"/>
<stop offset="1" stop-color="#9D1D06"/>
</linearGradient>
<linearGradient id="paint12_linear_2646_3082" x1="192.469" y1="329.937" x2="192.469" y2="351.086" gradientUnits="userSpaceOnUse">
<stop stop-color="#F69E6E"/>
<stop offset="1" stop-color="#FCDCCE"/>
</linearGradient>
<radialGradient id="paint13_radial_2646_3082" cx="0" cy="0" r="1" gradientUnits="userSpaceOnUse" gradientTransform="translate(173.669 498.439) scale(99.27 93.3138)">
<stop stop-color="#0D7882"/>
<stop offset="0.05" stop-color="#197E88"/>
<stop offset="0.4" stop-color="#7AB4BA"/>
<stop offset="0.69" stop-color="#C1DCDF"/>
<stop offset="0.9" stop-color="#EEF5F6"/>
<stop offset="1" stop-color="white"/>
</radialGradient>
<linearGradient id="paint14_linear_2646_3082" x1="69.8493" y1="251.51" x2="258.019" y2="251.51" gradientUnits="userSpaceOnUse">
<stop stop-color="#C1210D"/>
<stop offset="0.52" stop-color="#C1210D"/>
<stop offset="1" stop-color="#9D1D06"/>
</linearGradient>
<clipPath id="clip0_2646_3082">
<rect width="276" height="768" fill="white"/>
</clipPath>
</defs>
</svg>
