<svg width="308" height="794" viewBox="0 0 308 794" fill="none" xmlns="http://www.w3.org/2000/svg">
<g clip-path="url(#clip0_2646_3053)">
<path d="M168.339 72.4181L162.856 38.5398L135.518 28.7475L107.551 22.1233L91.4645 26.7954L80.6056 46.0706L79.4452 64.2152V89.5919L85.0024 95.16L84.5552 101.336L93.4233 114.137L121.082 124.377C121.082 124.377 131.067 125.732 131.483 124.974C131.898 124.217 147.824 114.734 147.824 114.734L160.61 106.904L165.965 98.1681L168.339 89.5812L170.969 86.8718L173.045 79.3409L168.328 72.4181H168.339Z" fill="black"/>
<path d="M159.269 165.05C159.269 165.05 147.824 161.775 147.824 155.887V125.646C145.674 127.054 143.491 128.302 141.362 129.433C137.21 131.62 133.378 132.793 130.088 133.401C130.088 133.401 127.97 133.988 124.456 133.956C120.954 133.988 118.835 133.412 118.835 133.412C115.535 132.804 111.702 131.63 107.551 129.444C105.698 128.473 103.814 127.385 101.929 126.201V155.898C101.929 161.786 90.4957 165.061 90.4957 165.061C89.4417 165.253 88.6539 165.733 88.0684 166.415C85.8327 168.997 86.5567 174.618 88.0684 180.122C89.8463 186.619 92.6994 192.912 92.9975 193.734C94.0301 196.55 110.361 227.782 126.245 225.553C142.118 223.324 156.671 189.115 159.184 180.197C160.035 177.189 160.45 174.853 160.61 173.061C161.685 169.904 161.462 167.13 159.269 165.071V165.05Z" fill="url(#paint0_linear_2646_3053)"/>
<g style="mix-blend-mode:multiply" opacity="0.25">
<path d="M130.077 131.044C130.077 131.044 127.959 131.684 124.446 131.652C120.933 131.684 118.814 131.054 118.814 131.054C115.514 130.382 111.681 129.081 107.529 126.66C105.677 125.572 103.793 124.377 101.908 123.065V143.897C117.505 146.372 133.271 140.719 147.803 131.396V122.457C145.652 124.004 143.47 125.401 141.33 126.66C137.178 129.081 133.346 130.382 130.056 131.044H130.077Z" fill="#ECB699"/>
</g>
<mask id="mask0_2646_3053" style="mask-type:luminance" maskUnits="userSpaceOnUse" x="165" y="61" width="16" height="31">
<path d="M170.16 61.3137C167.711 61.9964 166.508 63.6392 165.954 64.3858C165.997 64.5885 166.018 64.8019 166.05 65.0152C167.583 74.5408 168.179 83.8211 168.307 91.2666C170.873 92.2586 174.705 91.4906 177.931 83.8104C181.955 74.1995 180.348 62.0391 174.226 61.1431C173.619 61.0577 173.055 61.0151 172.534 61.0151C171.639 61.0151 170.852 61.1324 170.17 61.3244" fill="white"/>
</mask>
<g mask="url(#mask0_2646_3053)">
<path d="M181.955 61.0049H165.954V92.2592H181.955V61.0049Z" fill="url(#paint1_linear_2646_3053)"/>
</g>
<mask id="mask1_2646_3053" style="mask-type:luminance" maskUnits="userSpaceOnUse" x="68" y="60" width="15" height="32">
<path d="M74.729 61.1004C68.6075 61.9964 67 74.1568 71.0242 83.7677C74.2393 91.4266 78.0612 92.216 80.6269 91.2239C80.7546 84.0451 81.3082 75.1595 82.7241 65.9965C82.8093 65.4419 82.8944 64.8872 82.9796 64.3325C82.3089 63.4151 80.6907 61.2391 77.1137 60.9937C76.8795 60.9831 76.6453 60.9617 76.3898 60.9617C75.8681 60.9617 75.3145 61.0044 74.7183 61.0897" fill="white"/>
</mask>
<g mask="url(#mask1_2646_3053)">
<path d="M82.9903 60.9724H67V92.216H82.9903V60.9724Z" fill="url(#paint2_linear_2646_3053)"/>
</g>
<mask id="mask2_2646_3053" style="mask-type:luminance" maskUnits="userSpaceOnUse" x="83" y="13" width="83" height="97">
<path d="M117.781 13.8884C116.834 14.0484 115.886 14.2404 114.928 14.4964C98.9699 18.6672 90.2721 34.497 85.6305 51.9375C84.9278 53.8149 84.1933 57.943 84.1933 57.943C83.7461 60.0337 83.3629 62.1351 83.0116 64.2045C84.3849 77.3676 86.6099 97.1655 87.8448 100.526C88.1642 101.411 88.9414 102.339 89.9953 103.278C93.4233 105.56 98.1927 108.483 101.259 109.315C106.497 110.723 107.572 106.755 108.509 103.214C109.446 99.6616 111.862 95.7041 117.909 95.1281C118.409 95.0854 118.888 95.0534 119.357 95.0214C119.463 95.0107 119.549 95.0001 119.644 94.9894C123.019 94.7334 131.078 94.4134 134.666 96.1521C138.136 97.6348 139.744 100.622 140.479 103.352C141.415 106.904 142.491 110.873 147.718 109.454C150.794 108.611 155.564 105.688 158.992 103.416C160.056 102.478 160.823 101.55 161.142 100.664C162.377 97.3148 164.592 77.6449 165.965 64.4925V64.4605C165.965 64.4605 165.965 64.4072 165.954 64.3752C165.603 62.2311 165.209 60.0764 164.741 57.9217C164.741 57.9217 164.017 53.8042 163.314 51.9162C159.301 36.8864 152.285 23.0834 140.212 16.8752C140.117 16.8218 140.031 16.7685 139.936 16.7152C139.755 16.6298 139.574 16.5338 139.382 16.4485C135.39 14.4751 131.547 13.7818 129.343 13.5471C127.725 13.3337 126.149 13.2484 124.669 13.2484C122.008 13.2484 119.634 13.5364 117.771 13.8671" fill="white"/>
</mask>
<g mask="url(#mask2_2646_3053)">
<path d="M165.976 13.2698H83.0116V110.883H165.976V13.2698Z" fill="url(#paint3_linear_2646_3053)"/>
</g>
<path d="M82.7241 65.9966C81.3082 75.1595 80.7546 84.0451 80.6269 91.224C80.6056 91.7573 80.6056 92.28 80.6056 92.792C80.4246 111.385 94.8712 122.724 107.561 129.433C111.713 131.63 115.546 132.804 118.835 133.391C118.835 133.391 120.954 133.977 124.467 133.935C127.97 133.967 130.088 133.401 130.088 133.401C133.388 132.793 137.221 131.62 141.373 129.433C154.052 122.734 168.509 111.395 168.328 92.792C168.328 92.2907 168.318 91.7787 168.307 91.256C168.179 83.8104 167.583 74.5408 166.05 65.0046C166.018 64.8232 165.997 64.6525 165.965 64.4712C164.592 77.6236 162.377 97.3148 161.142 100.664C160.812 101.55 160.046 102.478 158.981 103.416C155.553 105.699 150.784 108.622 147.707 109.454C142.48 110.873 141.394 106.904 140.468 103.363C139.744 100.622 138.126 97.6455 134.655 96.1628C131.057 94.4241 123.008 94.7441 119.623 95.0001C119.527 95.0001 119.442 95.0107 119.336 95.0214C118.867 95.0534 118.388 95.0854 117.888 95.1281C111.852 95.7041 109.435 99.6722 108.487 103.214C107.551 106.755 106.475 110.734 101.237 109.315C98.1714 108.483 93.402 105.56 89.974 103.278C88.9094 102.339 88.1429 101.411 87.8235 100.526C86.5886 97.1655 84.3636 77.3676 82.9903 64.2045C82.9903 64.2472 82.9796 64.2899 82.969 64.3325C82.8838 64.8872 82.7986 65.4419 82.7135 65.9966" fill="black"/>
<path d="M182.7 0.821369C181.37 1.25872 178.101 2.14407 170.788 3.90412C153.211 8.14958 138.041 -0.917347 111.734 0.0746814C90.5489 0.874704 85.5559 13.1524 84.4062 17.9205C75.9 24.4594 74.6119 36.9291 75.1761 46.988C75.5274 53.2709 76.6133 58.615 77.1137 60.9938C80.6907 61.2498 82.3089 63.4152 82.969 64.3325C83.3309 62.1991 83.7248 60.0657 84.172 57.943C84.172 57.943 84.8959 53.8256 85.6092 51.9482C86.2799 49.4201 87.0464 46.9454 87.8981 44.5133C103.324 37.3984 104.091 28.5875 104.091 28.5875C128.001 44.556 150.305 46.2627 161.504 45.9747C162.154 47.9374 162.761 49.9321 163.304 51.9588C164.006 53.8362 164.73 57.9537 164.73 57.9537C165.188 60.1084 165.582 62.2631 165.944 64.4072C166.497 63.6498 167.7 62.0071 170.149 61.3244C170.66 58.9564 171.969 52.7268 172.235 45.516C172.235 45.2706 172.257 45.0146 172.267 44.7693C191.271 31.6383 183.648 4.00013 182.7 0.821369Z" fill="black"/>
<path d="M111.468 105.08C111.468 105.08 115.099 111.129 123.168 111.129C123.168 111.129 132.175 111.587 136.412 105.443L136.571 105.187C122.54 110.798 111.479 105.08 111.479 105.08" fill="white"/>
<path d="M129.545 90.968C129.13 90.968 128.757 90.6906 128.64 90.2746C128.502 89.7733 128.8 89.2612 129.3 89.1332C130.45 88.8239 133.133 87.5759 133.612 85.8691C133.942 84.6958 132.281 80.845 130.823 77.4529C129.918 75.3408 128.981 73.1648 128.236 71.0847C125.989 64.7805 129.162 59.2337 129.3 58.999C129.566 58.551 130.131 58.4017 130.578 58.6684C131.025 58.9244 131.174 59.5004 130.918 59.9484C130.887 60.0017 128.055 64.9939 130.003 70.466C130.727 72.4928 131.642 74.6368 132.537 76.7169C134.634 81.581 135.89 84.6531 135.4 86.3812C134.645 89.0799 131.089 90.584 129.779 90.936C129.694 90.9573 129.62 90.968 129.534 90.968" fill="#E1A187"/>
<path d="M148.846 70.018C148.846 71.9274 147.303 73.4848 145.386 73.4848C143.47 73.4848 141.937 71.9274 141.937 70.018C141.937 68.1086 143.491 66.5619 145.386 66.5619C147.281 66.5619 148.846 68.1193 148.846 70.018Z" fill="#231F20"/>
<path d="M108.541 70.2314C108.541 72.1408 107.008 73.6981 105.081 73.6981C103.154 73.6981 101.631 72.1408 101.631 70.2314C101.631 68.322 103.186 66.7753 105.081 66.7753C106.976 66.7753 108.541 68.3326 108.541 70.2314Z" fill="#231F20"/>
</g>
<path d="M156.351 150.443C161.011 156.798 205.835 185.592 209.471 205.576C212.114 220.114 225.509 275.979 225.509 289.608C225.509 303.237 234.38 352.277 232.113 395.411C229.845 438.546 205.563 485.265 205.563 485.265C205.563 485.265 184.687 476.183 188.313 445.308C191.949 414.434 156.351 150.453 156.351 150.453V150.443Z" fill="url(#paint4_linear_2646_3053)"/>
<path d="M203.568 452.854C203.568 452.854 211.696 455.969 212.386 468.595C213.076 481.22 203.568 487.617 203.568 487.617V452.854Z" fill="#E5E5E5"/>
<mask id="mask3_2646_3053" style="mask-type:luminance" maskUnits="userSpaceOnUse" x="189" y="738" width="44" height="30">
<path d="M193.6 738.825C194.561 738.93 195.543 739.034 196.536 739.034C201.917 739.034 207.235 739.839 212.605 739.881C215.061 739.902 217.506 739.881 219.94 739.557C220.64 739.463 221.299 739.264 222.02 739.327C221.915 741.511 224.005 744.48 225.154 746.288C226.45 748.294 229.292 753.113 232.217 753.374L232.374 767.139C228.989 766.94 225.593 766.94 222.187 766.951C217.945 766.961 213.703 766.982 209.502 766.575C204.55 766.094 199.858 764.746 195.303 762.958C191.729 761.568 189.984 760.429 189.452 756.99C188.543 751.001 189.483 744.615 189.943 738.627C190.193 738.606 190.444 738.606 190.695 738.606C191.667 738.606 192.638 738.71 193.6 738.815" fill="white"/>
</mask>
<g mask="url(#mask3_2646_3053)">
<path d="M221.421 719.641L176.205 745.755L199.51 786.134L244.726 760.02L221.421 719.641Z" fill="url(#paint5_linear_2646_3053)"/>
</g>
<mask id="mask4_2646_3053" style="mask-type:luminance" maskUnits="userSpaceOnUse" x="25" y="743" width="43" height="31">
<path d="M25.3584 773.17C25.4211 772.992 25.4733 772.814 25.536 772.637H25.4942C25.3793 772.814 25.3375 772.982 25.3689 773.17M34.1247 744.03C33.1843 744.061 32.1708 744.093 31.22 743.727C30.3841 747.448 29.1199 751.19 28.075 754.879C27.0929 758.36 26.1003 761.85 25.9017 765.456C25.7868 767.641 26.1525 770.442 25.536 772.637L66.0448 767.087C65.7417 766.491 65.794 765.54 65.6895 764.871C65.3761 762.572 65.2716 760.23 65.2716 757.91C65.2716 754.064 66.0657 749.371 67.8837 745.838C59.3368 745.347 50.7482 743.947 42.1491 743.852C39.4638 743.832 36.7786 743.967 34.1142 744.03" fill="white"/>
</mask>
<g mask="url(#mask4_2646_3053)">
<path d="M57.2491 725.303L12.585 751.098L35.9687 791.612L80.6328 765.817L57.2491 725.303Z" fill="url(#paint6_linear_2646_3053)"/>
</g>
<path d="M213.034 752.057C196.598 752.381 195.606 752.371 186.328 752.454C184.405 752.475 131.619 452.342 131.619 452.342C132.204 450.544 130.836 441.472 131.494 436.027C167.102 526.445 195.898 656.246 213.034 752.047V752.057Z" fill="url(#paint7_linear_2646_3053)"/>
<path d="M130.439 458.383C107.598 534.138 65.073 757.596 65.073 759.363C65.073 760.23 58.3651 760.084 50.1944 759.582C65.2402 674.798 99.9918 536.542 130.439 458.383Z" fill="url(#paint8_linear_2646_3053)"/>
<path d="M33.456 560.319C39.1121 503.838 46.7917 435.633 56.4948 355.705C56.4948 355.705 104.276 356.165 127.356 356.165C157.657 356.165 197.57 352.998 197.57 352.998C197.57 352.998 205.72 477.594 214.131 561.532C222.427 644.331 231.737 749.82 231.737 751.284C231.737 751.284 220.233 751.859 213.023 752.486C195.888 656.685 130.209 445.005 131.609 452.781C130.574 457.537 131.609 452.781 130.428 458.383C99.9814 536.542 65.2402 674.798 50.184 759.582C37.3637 758.788 23.4359 752.883 23.4359 752.883C23.4359 752.883 25.0345 644.258 33.4455 560.319H33.456Z" fill="url(#paint9_linear_2646_3053)"/>
<path style="mix-blend-mode:multiply" opacity="0.27" d="M147.606 381.124L142.799 428.502C142.799 428.502 125.716 427.017 140.145 385.179L147.606 381.124Z" fill="url(#paint10_linear_2646_3053)"/>
<path d="M54.1962 378.594L54.7082 390.342L200.485 391.9L199.252 378.009L54.1962 378.594Z" fill="#707070"/>
<path d="M99.3858 378.448H103.67L104.088 390.896H99.2918L99.3858 378.448Z" fill="url(#paint11_linear_2646_3053)"/>
<path d="M180.644 378.03L179.515 389.036H183.799L184.687 377.946L180.644 378.03Z" fill="url(#paint12_linear_2646_3053)"/>
<path d="M158.42 376.295H142.945L143.092 388.743L159.078 387.991V386.099L145.84 386.371L144.858 378.877L159.036 378.197L158.42 376.295Z" fill="url(#paint13_linear_2646_3053)"/>
<path d="M153.843 381.364L140.971 381.124V382.305L153.843 383.768C153.843 383.768 155.431 382.66 153.843 381.364Z" fill="url(#paint14_linear_2646_3053)"/>
<path d="M234.213 749.308C234.213 749.308 259.195 763.052 269.57 766.564C279.946 770.076 301.679 774.309 306.213 777.967C310.758 781.625 305.889 787.039 299.401 788.931C292.912 790.833 255.778 790.687 240.701 788.492C225.614 786.297 220.588 781.186 220.588 781.186C220.588 781.186 217.025 780.162 214.915 780.601C212.804 781.04 214.423 785.722 212.637 787.029C210.861 788.346 187.341 785.858 184.259 783.81C181.176 781.761 184.259 759.248 186.693 753.395C189.128 747.542 195.282 756.029 212.156 756.468C229.02 756.907 219.136 756.029 234.202 749.298" fill="black"/>
<path d="M17.9504 760.063C18.0654 759.77 18.1594 759.478 18.3057 759.175C21.9313 751.075 33.1634 748.733 48.3659 751.075C56.6202 752.339 60.3294 754.795 62.0012 756.781C63.3804 758.192 64.5506 759.948 65.282 762.237C67.9986 764.442 72.7213 768.142 75.1558 771.32C78.6038 775.835 83.7863 785.952 73.2437 790.321C63.2968 794.439 25.6928 795.505 13.0501 791.418C8.14978 790.499 4.28384 789.37 2.06877 788.137C-5.18247 784.123 8.30651 766.669 17.9609 760.063" fill="black"/>
<path d="M84.9147 142.573C84.9147 142.573 133.699 182.279 143.228 180.743C147.647 180.032 147.668 147.652 147.668 147.652C147.668 147.652 170.216 180.649 179.661 203.716C189.107 226.783 193.83 225.393 193.004 277.097C192.168 328.792 193.098 385.879 193.098 385.879C193.098 385.879 175.754 400.125 163.811 400.679C151.858 401.233 115.184 385.9 115.184 385.9C115.184 385.9 113.857 364.715 108.257 334.634C99.7724 289.127 47.4047 209.558 64.9059 168.138C72.9616 157.017 84.9147 142.562 84.9147 142.562V142.573Z" fill="#F5F5F5"/>
<path d="M155.515 157.634C155.515 157.634 182.691 216.602 186.338 241.791C189.556 264.022 187.226 414.716 198.709 424.927C205.521 375.438 202.167 255.671 201.749 230.984C201.321 206.297 155.515 157.634 155.515 157.634Z" fill="url(#paint15_linear_2646_3053)"/>
<path d="M145.871 162.306L156.382 182.216C156.382 182.216 158.503 170.385 155.515 157.634L147.334 136.5C149.58 153.725 145.871 162.306 145.871 162.306Z" fill="#E8E8E8"/>
<path d="M148.337 139.103C148.337 139.103 152.966 153.317 157.103 163.225C165.849 184.16 180.978 218.996 183.36 232.28C186.86 251.846 189.316 336.16 189.316 336.16C189.316 336.16 198.333 256.601 194.279 231.548C191.479 214.24 178.752 186.982 167.008 166.716C161.753 157.644 148.347 139.103 148.347 139.103H148.337Z" fill="#5C5C5C"/>
<path d="M88.0806 145.112C88.0806 145.112 64.2058 160.905 46.9763 175.935C34.3336 186.961 6.28995 181.986 38.6907 239.753C63.8192 284.56 59.7966 282.814 68.73 326.722C77.6634 370.63 60.8519 452.854 60.8519 452.854C60.8519 452.854 125.1 448.109 127.231 407.514C129.362 366.909 128.903 291.291 128.903 262.026C128.903 222.675 88.091 145.123 88.091 145.123L88.0806 145.112Z" fill="url(#paint16_linear_2646_3053)"/>
<path d="M101.465 134.337C101.141 134.013 77.0679 150.715 77.0679 150.715C77.0679 150.715 107.588 179.122 129.749 185.832L142.789 163.852C142.789 163.852 118.371 151.028 101.465 134.326V134.337Z" fill="#E8E8E8"/>
<path d="M145.871 162.306L142.789 163.863L129.749 185.843L147.668 208.335C147.668 208.335 150.05 244.707 151.973 265.005C153.895 285.302 151.649 387.04 151.649 387.04L164.177 415.218L177.143 386.193C177.143 386.193 171.647 282.344 169.955 264.158C168.262 245.972 153.446 207.06 153.446 207.06L157.751 183.617L145.871 162.306Z" fill="url(#paint17_linear_2646_3053)"/>
<g opacity="0.13">
<path d="M171.376 287.852L151.837 263.552C151.879 264.043 151.931 264.524 151.973 265.005C152.046 265.747 152.109 266.656 152.161 267.691L171.564 291.834C171.501 290.476 171.428 289.148 171.365 287.863L171.376 287.852Z" fill="white"/>
<path d="M171.867 397.157L152.318 372.7C152.307 373.933 152.286 375.156 152.276 376.368L170.832 400.177C170.78 398.934 171.919 398.516 171.867 397.157Z" fill="white"/>
<path d="M166.11 245.502L148.734 223.877C148.828 225.194 148.922 226.553 149.027 227.964L167.531 250.978C167.092 249.191 166.622 247.352 166.12 245.491L166.11 245.502Z" fill="white"/>
<path d="M174.782 363.701L152.652 336.16C152.652 337.394 152.631 338.617 152.631 339.85L174.96 367.62C174.907 366.314 174.855 365.007 174.792 363.69L174.782 363.701Z" fill="white"/>
<path d="M173.152 325.865L152.736 300.468C152.736 301.701 152.736 302.934 152.736 304.199L173.309 329.795C173.246 328.478 173.194 327.161 173.131 325.855L173.152 325.865Z" fill="white"/>
</g>
<path d="M91.4972 140.305L64.2058 159.348C64.2058 159.348 104.673 225.821 110.043 237.987C115.414 250.153 128.997 342.243 129.007 340.341C129.007 338.428 130.679 264.472 130.679 242.523C130.679 214.763 91.4972 140.305 91.4972 140.305Z" fill="#5C5C5C"/>
<path d="M41.1878 491.348H108.925C111.652 491.348 113.857 489.143 113.857 486.415V395.202C113.857 392.474 111.652 390.269 108.925 390.269H37.3219C34.5113 390.269 32.2753 392.61 32.3902 395.411L36.2457 486.624C36.3606 489.268 38.5339 491.348 41.1774 491.348H41.1878Z" fill="#398DA5"/>
<path d="M109.991 390.384C108.967 407.201 106.679 470.476 105.937 491.348H108.915C111.642 491.348 113.847 489.143 113.847 486.415V395.202C113.847 392.84 112.196 390.875 109.981 390.394L109.991 390.384Z" fill="#2D717C"/>
<path d="M39.7146 482.036C39.9445 482.464 50.0063 494.87 53.8827 495.936C57.7696 497.002 68.5628 496.156 70.2241 495.55C72.1571 494.849 73.902 491.745 73.902 491.745L67.915 491.62C67.915 491.62 67.4553 490.94 66.7761 489.948C66.3373 489.31 73.8289 490.94 73.2751 490.125C71.6451 487.732 65.6059 480.321 65.2298 479.747C64.5402 478.681 39.6937 482.025 39.6937 482.025L39.7146 482.036Z" fill="url(#paint18_linear_2646_3053)"/>
<path d="M39.1295 483.687L44.1448 489.216L76.0648 487.805V482.516L39.1295 483.687Z" fill="#E5E5E5"/>
<path d="M58.6681 164.25C46.9763 172.904 13.6143 175.746 9.83198 227.211C9.21552 235.562 6.65565 314.849 6.65565 314.849C6.65565 314.849 2.05832 364.777 9.32001 399.738C16.5817 434.699 36.1517 486.488 36.1517 486.488H78.3635C78.3635 486.488 82.7414 244.916 82.7414 243.558C82.7414 211.774 58.6577 164.25 58.6577 164.25H58.6681Z" fill="url(#paint19_linear_2646_3053)"/>
<defs>
<linearGradient id="paint0_linear_2646_3053" x1="123.943" y1="131.62" x2="123.943" y2="253.73" gradientUnits="userSpaceOnUse">
<stop stop-color="#F3A391"/>
<stop offset="1" stop-color="#FED08E"/>
</linearGradient>
<linearGradient id="paint1_linear_2646_3053" x1="173.955" y1="62.8715" x2="173.955" y2="101.028" gradientUnits="userSpaceOnUse">
<stop stop-color="#F3A391"/>
<stop offset="1" stop-color="#FED08E"/>
</linearGradient>
<linearGradient id="paint2_linear_2646_3053" x1="74.9951" y1="62.8384" x2="74.9951" y2="100.982" gradientUnits="userSpaceOnUse">
<stop stop-color="#F3A391"/>
<stop offset="1" stop-color="#FED08E"/>
</linearGradient>
<linearGradient id="paint3_linear_2646_3053" x1="124.494" y1="19.0995" x2="124.494" y2="138.271" gradientUnits="userSpaceOnUse">
<stop stop-color="#F3A391"/>
<stop offset="1" stop-color="#FED08E"/>
</linearGradient>
<linearGradient id="paint4_linear_2646_3053" x1="232.489" y1="317.849" x2="156.361" y2="317.849" gradientUnits="userSpaceOnUse">
<stop stop-color="#454545"/>
<stop offset="1" stop-color="#2E2E2E"/>
</linearGradient>
<linearGradient id="paint5_linear_2646_3053" x1="195.65" y1="737.47" x2="218.591" y2="777.192" gradientUnits="userSpaceOnUse">
<stop stop-color="#5E5B55"/>
<stop offset="0.23" stop-color="#6C6A66"/>
<stop offset="0.69" stop-color="#939493"/>
<stop offset="0.92" stop-color="#A9ABAC"/>
<stop offset="1" stop-color="#A9ABAC"/>
</linearGradient>
<linearGradient id="paint6_linear_2646_3053" x1="39.9277" y1="736.669" x2="58.7977" y2="769.342" gradientUnits="userSpaceOnUse">
<stop stop-color="#5E5B55"/>
<stop offset="0.23" stop-color="#6C6A66"/>
<stop offset="0.69" stop-color="#939493"/>
<stop offset="0.92" stop-color="#A9ABAC"/>
<stop offset="1" stop-color="#A9ABAC"/>
</linearGradient>
<linearGradient id="paint7_linear_2646_3053" x1="131.306" y1="594.246" x2="213.034" y2="594.246" gradientUnits="userSpaceOnUse">
<stop stop-color="#3D3D3D"/>
<stop offset="1" stop-color="#262626"/>
</linearGradient>
<linearGradient id="paint8_linear_2646_3053" x1="50.1944" y1="609.181" x2="130.439" y2="609.181" gradientUnits="userSpaceOnUse">
<stop stop-color="#3D3D3D"/>
<stop offset="1" stop-color="#262626"/>
</linearGradient>
<linearGradient id="paint9_linear_2646_3053" x1="23.4463" y1="556.295" x2="231.747" y2="556.295" gradientUnits="userSpaceOnUse">
<stop stop-color="#454545"/>
<stop offset="1" stop-color="#2E2E2E"/>
</linearGradient>
<linearGradient id="paint10_linear_2646_3053" x1="134.346" y1="404.818" x2="147.606" y2="404.818" gradientUnits="userSpaceOnUse">
<stop stop-color="#3D3D3D"/>
<stop offset="1" stop-color="#262626"/>
</linearGradient>
<linearGradient id="paint11_linear_2646_3053" x1="99.2918" y1="384.667" x2="104.088" y2="384.667" gradientUnits="userSpaceOnUse">
<stop stop-color="#3D3D3D"/>
<stop offset="1" stop-color="#262626"/>
</linearGradient>
<linearGradient id="paint12_linear_2646_3053" x1="179.515" y1="383.496" x2="184.687" y2="383.496" gradientUnits="userSpaceOnUse">
<stop stop-color="#3D3D3D"/>
<stop offset="1" stop-color="#262626"/>
</linearGradient>
<linearGradient id="paint13_linear_2646_3053" x1="142.945" y1="382.524" x2="159.078" y2="382.524" gradientUnits="userSpaceOnUse">
<stop stop-color="#3D3D3D"/>
<stop offset="1" stop-color="#262626"/>
</linearGradient>
<linearGradient id="paint14_linear_2646_3053" x1="140.971" y1="382.451" x2="154.554" y2="382.451" gradientUnits="userSpaceOnUse">
<stop stop-color="#3D3D3D"/>
<stop offset="1" stop-color="#262626"/>
</linearGradient>
<linearGradient id="paint15_linear_2646_3053" x1="202.951" y1="291.27" x2="155.515" y2="291.27" gradientUnits="userSpaceOnUse">
<stop stop-color="#333333"/>
<stop offset="1" stop-color="#2E2E2E"/>
</linearGradient>
<linearGradient id="paint16_linear_2646_3053" x1="128.934" y1="298.983" x2="23.624" y2="298.983" gradientUnits="userSpaceOnUse">
<stop stop-color="#333333"/>
<stop offset="1" stop-color="#2E2E2E"/>
</linearGradient>
<linearGradient id="paint17_linear_2646_3053" x1="142.266" y1="143.848" x2="159.12" y2="323.826" gradientUnits="userSpaceOnUse">
<stop stop-color="#C1210D"/>
<stop offset="0.52" stop-color="#C1210D"/>
<stop offset="1" stop-color="#9D1D06"/>
</linearGradient>
<linearGradient id="paint18_linear_2646_3053" x1="56.7979" y1="480.547" x2="56.7979" y2="501.189" gradientUnits="userSpaceOnUse">
<stop stop-color="#F3A391"/>
<stop offset="1" stop-color="#FED08E"/>
</linearGradient>
<linearGradient id="paint19_linear_2646_3053" x1="82.7519" y1="325.374" x2="5.22421" y2="325.374" gradientUnits="userSpaceOnUse">
<stop stop-color="#454545"/>
<stop offset="1" stop-color="#2E2E2E"/>
</linearGradient>
<clipPath id="clip0_2646_3053">
<rect width="118" height="225.649" fill="white" transform="translate(67)"/>
</clipPath>
</defs>
</svg>
