<svg width="205" height="772" viewBox="0 0 205 772" fill="none" xmlns="http://www.w3.org/2000/svg">
<path d="M178.548 102.02C168.508 84.27 165.148 66.09 165.328 58.79C165.358 58.2 165.378 57.61 165.398 57.02C165.448 56.01 165.508 55.45 165.508 55.45H165.428C165.428 24.83 141.218 0 111.368 0C81.5181 0 57.3081 24.83 57.3081 55.45C57.3081 57 57.3881 58.54 57.5081 60.06C57.5681 68.05 53.7781 85.23 44.2681 102.02C32.4481 122.9 31.1881 144.96 54.6581 153.84C54.6581 153.84 54.7781 153.88 54.9481 153.94C57.1581 154.76 59.5581 155.47 62.2081 156.05C62.8281 156.18 63.4281 156.28 64.0381 156.4C79.8681 160.13 119.048 165.7 156.188 156.86C157.648 156.63 159.128 156.38 160.628 156.05C164.788 155.14 168.358 153.92 171.448 152.44C171.468 152.44 171.498 152.42 171.518 152.42H171.508C191.478 142.75 189.778 121.87 178.558 102.03L178.548 102.02Z" fill="black"/>
<path d="M111.094 105.53C139.862 105.53 163.184 82.7862 163.184 54.7302C163.184 26.6741 139.862 3.93018 111.094 3.93018C82.3254 3.93018 59.0039 26.6741 59.0039 54.7302C59.0039 82.7862 82.3254 105.53 111.094 105.53Z" fill="black"/>
<mask id="mask0_2646_3095" style="mask-type:luminance" maskUnits="userSpaceOnUse" x="144" y="65" width="17" height="29">
<path d="M146.784 69.4302C141.974 75.1102 145.174 88.8202 145.724 90.5202C146.534 93.0102 149.334 96.0702 154.014 91.5202C159.054 86.6002 164.184 69.1202 156.944 66.0002C155.934 65.5602 154.974 65.3802 154.064 65.3802C149.824 65.3802 146.874 69.3102 146.774 69.4302" fill="white"/>
</mask>
<g mask="url(#mask0_2646_3095)">
<path d="M164.194 65.3802H141.984V96.0702H164.194V65.3802Z" fill="url(#paint0_linear_2646_3095)"/>
</g>
<mask id="mask1_2646_3095" style="mask-type:luminance" maskUnits="userSpaceOnUse" x="57" y="65" width="17" height="29">
<path d="M61.1641 65.7998C53.9241 68.9198 59.0441 86.3998 64.0941 91.3198C68.7741 95.8698 71.5841 92.8198 72.3941 90.3298C72.9441 88.6298 76.1441 74.9198 71.3341 69.2398C71.2341 69.1198 68.2841 65.1898 64.0441 65.1898C63.1341 65.1898 62.1741 65.3698 61.1641 65.8098" fill="white"/>
</mask>
<g mask="url(#mask1_2646_3095)">
<path d="M76.1343 65.1898H53.9243V95.8798H76.1343V65.1898Z" fill="url(#paint1_linear_2646_3095)"/>
</g>
<mask id="mask2_2646_3095" style="mask-type:luminance" maskUnits="userSpaceOnUse" x="70" y="15" width="81" height="117">
<path d="M110.054 15.1099C110.054 15.1099 109.964 15.1099 109.914 15.1099C75.484 15.3199 72.784 53.2099 72.784 53.2099C72.784 53.2099 67.764 93.1499 71.344 102.89C73.884 109.8 82.124 117.6 90.094 123.04C93.364 125.27 96.594 127.12 99.364 128.33C103.734 130.25 107.064 130.98 109.614 131.11C109.704 131.11 109.804 131.11 109.894 131.11C109.924 131.11 109.954 131.11 109.974 131.11H110.044C110.044 131.11 110.094 131.11 110.114 131.11C110.114 131.11 110.164 131.11 110.184 131.11C110.284 131.11 110.384 131.11 110.474 131.11C113.024 130.98 116.344 130.24 120.724 128.33C122.954 127.35 125.484 125.96 128.084 124.3C136.614 118.85 146.004 110.35 148.754 102.88C152.334 93.1399 147.304 53.1999 147.304 53.1999C147.304 53.1999 144.604 15.3099 110.174 15.0999C110.124 15.0999 110.074 15.0999 110.034 15.0999" fill="white"/>
</mask>
<g mask="url(#mask2_2646_3095)">
<path d="M152.354 15.1099H67.7642V131.14H152.354V15.1099Z" fill="url(#paint2_linear_2646_3095)"/>
</g>
<mask id="mask3_2646_3095" style="mask-type:luminance" maskUnits="userSpaceOnUse" x="69" y="123" width="80" height="62">
<path d="M88.814 148.43C87.014 154 80.254 157.37 69.374 162.11C69.404 164.2 70.494 181.71 99.964 184.17H110.974C146.424 184.17 148.634 165.22 148.764 162.07C137.944 157.35 131.224 153.98 129.434 148.43C127.924 143.77 127.964 131.33 128.114 124.32C125.504 125.98 122.984 127.37 120.754 128.35C116.374 130.27 113.054 131 110.504 131.13C110.414 131.13 110.314 131.13 110.214 131.13C110.194 131.13 110.164 131.13 110.144 131.13H110.074C110.074 131.13 110.024 131.13 110.004 131.13C110.004 131.13 109.954 131.13 109.924 131.13C109.834 131.13 109.734 131.13 109.644 131.13C107.084 131 103.764 130.26 99.394 128.35C96.624 127.14 93.394 125.29 90.124 123.06C90.294 129.73 90.434 143.49 88.834 148.44" fill="white"/>
</mask>
<g mask="url(#mask3_2646_3095)">
<path d="M148.764 123.05H69.374V184.16H148.764V123.05Z" fill="url(#paint3_linear_2646_3095)"/>
</g>
<g style="mix-blend-mode:multiply" opacity="0.2">
<mask id="mask4_2646_3095" style="mask-type:luminance" maskUnits="userSpaceOnUse" x="89" y="123" width="40" height="22">
<path d="M128.104 123.07H89.5439V144.74H128.104V123.07Z" fill="white"/>
</mask>
<g mask="url(#mask4_2646_3095)">
<mask id="mask5_2646_3095" style="mask-type:luminance" maskUnits="userSpaceOnUse" x="89" y="123" width="40" height="22">
<path d="M128.104 123.07H89.5439V144.74H128.104V123.07Z" fill="white"/>
</mask>
<g mask="url(#mask5_2646_3095)">
<path d="M128.104 124.33C125.504 125.99 122.974 127.38 120.744 128.36C116.374 130.27 113.044 131.01 110.494 131.14C110.404 131.14 110.304 131.14 110.204 131.15H110.124H110.054H109.974H109.894C109.794 131.15 109.704 131.15 109.604 131.14C107.054 131.01 103.724 130.27 99.3539 128.36C96.5839 127.15 93.3539 125.3 90.0839 123.07C90.2239 128.46 90.3339 138.49 89.5239 144.74C102.764 142.35 116.054 137.95 128.024 131.27C128.024 128.72 128.044 126.3 128.084 124.32" fill="url(#paint4_linear_2646_3095)"/>
</g>
</g>
</g>
<path d="M113.864 97.0299C113.634 97.0299 113.404 97.0199 113.174 96.9899C112.704 96.9399 112.364 96.5099 112.414 96.0399C112.464 95.5699 112.874 95.2299 113.354 95.2899C114.734 95.4399 115.884 94.9899 116.604 94.0099C117.914 92.2399 117.714 89.0099 116.044 85.1599C110.934 73.3499 115.644 67.1699 115.844 66.9099C116.134 66.5399 116.674 66.4799 117.044 66.7699C117.414 67.0599 117.474 67.5999 117.184 67.9699C117.004 68.1999 112.934 73.6699 117.604 84.4799C120.224 90.5399 118.954 93.6799 117.964 95.0199C117.014 96.3099 115.534 97.0199 113.844 97.0199" fill="#B07267"/>
<path d="M134.444 74.7403C134.444 76.7103 132.844 78.3203 130.864 78.3203C128.884 78.3203 127.294 76.7103 127.294 74.7403C127.294 72.7703 128.894 71.1703 130.864 71.1703C132.834 71.1703 134.444 72.7803 134.444 74.7403Z" fill="#231F20"/>
<path d="M92.714 74.96C92.714 76.93 91.124 78.54 89.134 78.54C87.144 78.54 85.564 76.93 85.564 74.96C85.564 72.99 87.174 71.39 89.134 71.39C91.094 71.39 92.714 73 92.714 74.96Z" fill="#231F20"/>
<path d="M93.9868 103.93C93.9868 103.93 99.0553 111.578 110.298 111.578C110.298 111.578 122.859 112.164 128.766 104.391L128.987 104.072C109.413 111.159 93.9868 103.93 93.9868 103.93Z" fill="white"/>
<path d="M130.14 19.9302C130.14 19.9302 112.76 43.8802 149.25 67.8402C149.25 67.8402 149.9 28.0602 130.14 19.9302Z" fill="black"/>
<path d="M62.9984 65.3299C62.9984 65.3299 134.838 64.9599 146.348 29.3999C146.348 29.3999 128.508 5.46993 95.5184 15.2999C62.5384 25.1399 62.9984 65.3299 62.9984 65.3299Z" fill="black"/>
<path d="M108.777 663.77C108.777 663.77 108.147 699.68 108.527 705.96C108.907 712.24 109.657 722.66 111.167 726.93C112.677 731.2 114.177 744.26 114.427 751.04C114.677 757.82 74.3772 756.06 72.8672 756.19C71.3572 756.32 45.6172 758.95 39.9672 759.58C34.3172 760.21 16.3672 757.57 15.4872 754.93C14.6072 752.29 16.2372 747.65 20.3872 746.64C24.5272 745.64 39.0972 743.75 44.3672 740.36C49.6372 736.97 68.2272 727.18 70.9872 721.28C73.7472 715.38 78.7672 700.31 76.6372 682.61C74.5072 664.91 74.2472 662.65 74.2472 662.65L108.777 663.78V663.77Z" fill="url(#paint5_linear_2646_3095)"/>
<path d="M115.438 664.97C115.438 664.97 126.537 679.86 129.467 687.01C132.397 694.16 134.197 711.11 134.807 713.44C135.417 715.77 138.597 725.66 138.938 730.23C139.278 734.8 136.097 748.22 136.697 751.32C137.297 754.42 137.727 757.69 140.997 756.4C144.267 755.11 150.298 751.24 154.077 741.51C157.857 731.78 161.908 714.31 163.378 708.63C164.838 702.95 175.518 685.65 176.378 681C177.238 676.35 179.307 664.39 174.397 662.84C169.487 661.29 153.647 659.05 149.438 655.61C145.228 652.17 135.318 640.29 135.318 640.29L115.438 665V664.97Z" fill="url(#paint6_linear_2646_3095)"/>
<path d="M52.7702 729.48C52.7702 729.48 49.4802 731.62 49.1302 732.08C48.7802 732.54 41.2702 741.31 32.3602 742.36C23.4502 743.41 18.6802 743.58 17.1202 744.14C15.5602 744.7 11.3102 745.95 11.7602 750.68C11.7602 750.68 11.3402 751.13 11.3102 751.52C11.2802 751.91 10.8902 753.71 11.0302 754.03C11.1702 754.35 12.7002 756.99 15.6902 758.49C18.6802 759.99 31.1402 762.56 37.3002 762.53C43.4602 762.5 54.3902 761 59.5802 760.37C64.7702 759.74 78.7602 759.81 84.3302 759.99C89.9002 760.16 103.23 760.83 109.18 759.15C115.13 757.47 116.38 756.57 116.52 753.96C116.66 751.35 116.49 748.25 116.49 748.25C116.49 748.25 117.6 744.94 116.84 741.25C116.08 737.56 113.08 726.53 112.7 725.38C112.32 724.23 113.99 722.11 114.34 721.66C114.69 721.21 114.9 720.09 114.55 719.82C114.2 719.55 113.23 720.41 112.15 720.86C111.07 721.31 111.04 722.67 110.27 723.51C109.5 724.35 101.53 728.56 95.3702 730.44C89.2102 732.32 70.9002 737.44 64.9802 737.99C59.0602 738.54 53.9502 740.57 54.0202 735.62C54.0902 730.67 55.2102 731.68 52.7902 729.49L52.7702 729.48Z" fill="#262626"/>
<path d="M130.843 710.48C130.843 710.48 129.523 711.47 130.843 713.78C132.163 716.09 133.593 723.19 133.703 727.42C133.813 731.65 130.673 746.95 130.293 749.37C129.913 751.79 128.973 757.13 134.913 759.27C134.913 759.27 138.323 763.29 143.113 758.33C147.903 753.37 153.733 748.92 155.493 746.23C157.253 743.54 165.453 730.06 166.603 725.44C167.753 720.82 172.273 704.54 174.253 698.05C176.233 691.56 182.343 678.41 182.613 674.01C182.883 669.61 181.403 665.43 176.723 663.39C172.043 661.35 170.173 659.98 168.303 659.37C166.433 658.76 153.173 657.39 152.623 657.22C152.073 657.05 149.983 655.62 149.983 655.62L150.533 652.15L146.683 650L146.743 655.5C146.743 655.5 150.873 659.35 150.593 668.48C150.313 677.61 149.383 711.93 145.473 714.74C145.473 714.74 141.343 714.63 140.303 711.99C139.263 709.35 130.843 710.45 130.843 710.45V710.48Z" fill="#262626"/>
<path d="M149.007 546.44C159.467 484.23 160.907 483.44 155.907 419.18L71.2274 430.71L27.3774 420.28C29.0274 555.94 36.4474 616.35 44.1474 633.04C47.2874 639.84 67.7574 705.74 67.7574 705.74C67.7574 705.74 162.007 654.88 162.147 653.18C162.227 652.29 147.397 587.21 149.007 546.45V546.44Z" fill="#681111"/>
<path style="mix-blend-mode:multiply" opacity="0.4" d="M29.3872 430.97C40.7472 457.03 78.4972 446.67 107.897 432.97C137.297 419.27 29.3872 430.97 29.3872 430.97Z" fill="url(#paint7_linear_2646_3095)"/>
<g style="mix-blend-mode:multiply" opacity="0.3">
<path d="M61.2775 198.3C57.1075 220.01 51.5175 243.47 51.5175 243.47C51.5175 243.47 44.8875 298.56 39.1075 344.87C33.3175 391.2 27.1675 420.15 27.1675 420.15L22.8775 422.88C22.3975 375.12 47.1375 264.88 46.6875 250.69C46.1675 234.77 44.3275 231.61 45.6475 221.48C47.4775 207.5 62.2175 189.37 62.2175 189.37C63.1775 190.05 60.9675 194.34 61.2775 198.3Z" fill="#91356A"/>
</g>
<path d="M65.6173 169.93C65.5073 171.51 65.3273 173.3 65.0873 175.24V175.27C64.3173 181.7 62.9073 189.86 61.2873 198.29C57.1173 220 51.5273 243.46 51.5273 243.46C51.5273 243.46 44.8973 298.55 39.1173 344.86C33.3273 391.19 27.1773 420.14 27.1773 420.14L22.8873 422.87L14.9473 427.93C14.9473 427.93 12.0273 424.38 8.75728 418.7C8.30728 417.9 7.83728 417.08 7.38728 416.2C2.98728 407.94 -1.35272 396.32 0.397275 384.68C9.78728 322.18 26.8573 259.39 42.2373 215.91C42.2473 215.9 42.2473 215.88 42.2473 215.88C43.9373 211.11 45.5973 206.57 47.2373 202.28C54.2573 183.95 55.7873 169.51 60.6273 162.73C60.9373 164.06 65.8173 167.11 65.6173 169.94V169.93Z" fill="url(#paint8_linear_2646_3095)"/>
<g style="mix-blend-mode:multiply" opacity="0.1">
<path d="M38.5671 269.48C38.0471 272.15 37.4371 275.27 36.7371 278.76C29.9171 313.05 15.7371 384.43 19.5971 423.83L20.9971 423.7C17.1571 384.49 31.2971 313.25 38.1071 279.02C38.8071 275.53 39.4171 272.41 39.9371 269.74C43.6171 250.87 52.3771 209.67 65.0871 175.27V175.24C65.3271 173.3 65.5071 171.51 65.6171 169.93C51.8771 205.34 42.4171 249.67 38.5671 269.47V269.48Z" fill="#8C4151"/>
</g>
<g style="mix-blend-mode:multiply" opacity="0.1">
<path d="M42.2472 215.88C42.2472 215.88 42.2472 215.89 42.2372 215.91C29.7572 263.93 15.7572 320.49 11.4172 358.36C8.40721 384.56 7.57721 404.41 7.38721 416.2C7.83721 417.08 8.30721 417.91 8.75721 418.7C8.85721 407.36 9.57721 386.62 12.7972 358.51C17.5472 316.99 33.9772 252.87 47.2372 202.28C45.5972 206.57 43.9372 211.11 42.2472 215.88Z" fill="#8C4151"/>
</g>
<path d="M169.158 204.99C168.947 206.65 168.697 208.4 168.408 210.23C166.997 218.94 156.798 241.54 156.798 241.54C155.887 245.05 152.267 258.31 151.417 261.36C147.587 274.95 142.958 289.43 139.238 301.37C134.418 316.86 132.317 329.06 131.867 336.53C131.477 343.02 133.837 352.95 139.117 371.39C139.717 373.49 140.588 375.53 141.327 377.61C141.988 379.41 142.517 380.92 143.177 382.71C144.137 385.32 144.508 387.53 145.458 390.06C145.748 390.86 146.257 391.81 146.557 392.59C146.557 392.59 149.517 402.94 151.167 407.13C151.447 407.86 151.728 408.57 151.988 409.24C154.967 416.83 156.988 421.81 156.988 421.81C156.988 421.81 126.137 423.99 119.487 426.98C118.927 427.23 118.357 427.5 117.757 427.76C116.738 428.21 115.677 428.67 114.557 429.16C113.407 429.66 112.207 430.17 110.967 430.67C109.677 431.22 108.357 431.75 106.997 432.29C99.2675 435.35 90.3375 438.5 81.3075 440.8C80.8475 440.93 80.3975 441.04 79.9375 441.15C74.7675 442.44 69.5775 443.43 64.5875 443.96C64.1275 444.02 63.6475 444.06 63.1875 444.1C61.8075 444.23 60.4175 444.32 59.0675 444.37C54.4075 444.54 50.4175 444.08 47.0075 443.15C46.5275 443.02 46.0675 442.9 45.6075 442.74C39.9875 440.98 36.0275 437.99 33.2675 434.72C32.7175 434.08 32.2175 433.42 31.7675 432.76C31.7675 432.76 31.7575 432.75 31.7575 432.73C27.4075 426.45 26.9675 419.94 27.2275 419.63C24.2675 392.29 33.7675 336.58 41.4475 296.96C46.1975 272.48 50.2675 254.14 50.2675 252.45C50.2675 246.72 47.6075 235.2 47.6075 223.74C47.6075 223.52 47.6075 223.28 47.6175 223.06C47.9975 211.81 57.6675 199.94 59.4275 191.16C61.2175 182.21 56.7475 168.83 61.0375 162.04C65.3275 155.23 86.9675 148.44 86.9675 148.44C86.9675 147 87.1475 138.87 87.1475 138.87L92.8475 138.77L94.2475 138.74L100.667 138.57L102.097 138.53L106.688 138.4L108.087 138.37L113.107 138.23L114.517 138.2L120.567 138.03L121.978 138L135.158 138.28L132.798 148.93C132.798 148.93 144.747 159.86 145.717 160.43C148.857 162.29 167.687 170.16 170.147 173.46C171.127 174.76 172.257 175.55 172.997 177.57C174.417 181.43 174.788 183.16 175.188 188.74C175.408 191.9 170.128 197.77 169.188 204.97L169.158 204.99Z" fill="url(#paint9_linear_2646_3095)"/>
<g style="mix-blend-mode:multiply" opacity="0.1">
<path d="M153.937 252.2C153.117 255.25 152.257 258.31 151.407 261.36C147.577 274.95 142.477 289.3 139.227 301.37C134.747 318 133.167 327.86 131.327 336.47C130.467 340.5 131.687 354.1 137.527 370.72C138.257 372.77 140.567 375.53 141.307 377.61L155.237 417.36L110.947 430.67L107.757 436.69C107.757 436.69 91.1775 343.02 91.1375 342.01C90.3675 323.08 94.7575 258.09 70.7975 254.61C56.5675 252.56 49.1575 276.42 41.4175 296.97C46.1675 272.49 50.2375 254.15 50.2375 252.46C50.2375 246.73 47.5775 235.21 47.5775 223.75C47.5775 223.53 47.5775 223.29 47.5875 223.07C48.8075 229.43 61.1175 237.14 98.2575 236.76C111.357 236.63 159.477 230.15 164.697 221.88C166.787 218.56 158.127 234.52 153.937 252.2Z" fill="#91356A"/>
</g>
<g style="mix-blend-mode:multiply" opacity="0.3">
<path d="M180.427 241.52C175.287 261.3 168.967 282.6 163.427 300.4C173.117 265.2 174.337 230.95 174.187 213.26C174.187 213.26 176.747 223.37 180.427 241.52Z" fill="#91356A"/>
</g>
<g style="mix-blend-mode:multiply" opacity="0.3">
<path d="M169.197 392.68C164.127 405.9 155.427 423.92 155.427 423.92C155.427 423.92 159.807 392.69 161.157 370.72C163.717 378.03 166.537 385.64 169.197 392.68Z" fill="#91356A"/>
</g>
<path d="M136.927 421.24L128.607 435.84L138.727 439.74C138.727 439.74 142.877 439.72 145.807 437.46C148.747 435.2 150.847 431.32 150.847 431.32L136.927 421.24Z" fill="#FFDCC2"/>
<path d="M15.1973 427.61C15.1973 427.61 16.6673 434.82 19.8773 436.96C23.0873 439.1 26.7173 440.17 26.7173 440.17L33.0973 434.5L27.2073 420.08C27.2073 420.08 18.1973 423.55 15.1973 427.61Z" fill="#FFDCC2"/>
<g style="mix-blend-mode:multiply" opacity="0.1">
<path d="M94.2271 138.75V149.57L94.1571 149.71C93.8771 150.28 56.5771 206.88 54.3571 216.88C52.1471 226.81 56.5771 250.58 56.6171 250.82L56.6471 250.96L56.6171 251.1C56.4371 251.94 38.7471 335.69 34.5571 362.79C31.0671 385.44 32.5971 422.89 33.2271 434.73C32.6771 434.09 32.1771 433.43 31.7271 432.77C31.7271 432.77 31.7171 432.76 31.7171 432.74C31.0571 419.04 29.8271 384.16 33.1671 362.57C37.2871 335.94 54.3971 254.81 55.2071 250.95C54.7971 248.78 50.7771 226.49 52.9671 216.58C55.1871 206.59 90.9071 153.13 92.8071 149.24V138.77L94.2071 138.74L94.2271 138.75Z" fill="#8C4151"/>
<path d="M63.3972 217.15C62.0172 223.06 63.5972 234.79 64.7372 243.36C65.1972 246.77 65.5872 249.72 65.6772 251.47C65.8472 254.81 60.7472 285.16 55.8072 314.51C51.7572 338.64 47.9272 361.44 47.2972 367.55C46.0372 379.54 46.8072 431.94 46.9772 443.15C46.4972 443.02 46.0372 442.9 45.5772 442.74C45.3772 430.69 44.6572 379.33 45.8972 367.41C46.5372 361.26 50.3672 338.43 54.4372 314.28C59.1172 286.36 64.4272 254.73 64.2972 251.54C64.2172 249.86 63.8172 246.93 63.3572 243.54C62.1972 234.87 60.6072 222.99 62.0472 216.84C64.0072 208.45 97.1672 152.4 98.5172 149.18L100.637 138.57L102.067 138.53L99.8272 149.66C99.5772 150.26 65.3372 208.82 63.3972 217.15Z" fill="#8C4151"/>
<path d="M79.827 217.66C79.017 223.68 79.327 231.44 79.627 238.95C79.847 244.36 80.057 249.46 79.827 253.53C79.577 257.88 76.097 276.78 72.057 298.65C67.127 325.45 61.527 355.81 60.597 366.41C59.227 381.9 63.067 427.46 64.567 443.97C64.107 444.03 63.627 444.07 63.167 444.11C61.687 427.59 57.827 381.89 59.197 366.3C60.147 355.62 65.737 325.23 70.687 298.4C74.717 276.56 78.177 257.71 78.427 253.44C78.667 249.44 78.457 244.37 78.227 239C77.917 231.44 77.597 223.61 78.437 217.47C79.817 207.18 105.407 153.24 106.407 149.85L106.647 138.4L108.047 138.37L107.767 150.15C107.597 150.71 81.207 207.35 79.817 217.64L79.827 217.66Z" fill="#8C4151"/>
<path d="M90.857 219.29C90.747 222.18 91.317 228.32 91.917 234.83C92.797 244.2 93.787 254.81 93.117 259.52C92.867 261.21 91.407 268.83 89.397 279.37C84.137 306.91 75.337 352.98 74.737 363.57C74.057 375.51 79.167 421.82 81.107 439.25C81.167 439.81 81.217 440.33 81.277 440.8C80.817 440.93 80.367 441.04 79.907 441.15C79.837 440.6 79.777 440.02 79.707 439.4C77.777 421.93 72.637 375.54 73.337 363.48C73.957 352.81 82.757 306.67 88.027 279.12C90.037 268.59 91.497 260.99 91.727 259.33C92.367 254.79 91.387 244.26 90.527 234.96C89.887 228.12 89.337 222.21 89.447 219.23C89.737 212.18 111.007 152.09 111.507 149.55L113.057 138.24L114.467 138.21L112.877 149.77C112.747 150.43 91.127 212.35 90.847 219.29H90.857Z" fill="#8C4151"/>
<path d="M106.417 220.98C106.317 223.64 106.517 228.68 106.737 234.53C107.117 244.58 107.607 257.09 106.697 262.38C106.457 263.74 105.827 267.23 104.937 272.15C100.717 295.56 89.5072 357.77 89.7272 364.06C90.0172 371.66 96.2272 416.64 101.577 433.03L100.657 434.65C95.2072 419.05 88.6272 371.93 88.3272 364.12C88.0872 357.68 98.9372 297.57 103.567 271.9C104.447 266.99 105.077 263.5 105.317 262.14C106.207 257 105.727 244.57 105.347 234.59C105.127 228.72 104.927 223.64 105.027 220.93C105.307 213.65 119.667 150.83 119.717 150.2L120.537 138.05L121.947 138.02L121.097 150.29C121.057 150.93 106.697 213.73 106.417 220.98Z" fill="#8C4151"/>
<path d="M109.497 407.42C106.367 389.99 101.457 344.69 101.217 339.35C101.077 335.9 103.547 317.92 107.907 300.21C111.817 284.34 114.217 268.49 114.627 263.62C115.087 258.13 115.377 250.05 115.687 241.49C115.957 234.23 116.217 226.73 116.607 220.35C117.357 208.13 128.847 163.57 128.947 153.5C129.377 153.85 129.857 154.25 130.347 154.7C130.207 166.74 118.737 208.62 118.007 220.43C117.617 226.79 117.347 234.28 117.087 241.54C116.777 250.11 116.487 258.2 116.027 263.72C115.607 268.7 113.197 284.61 109.287 300.53C105.137 317.37 102.487 336.02 102.627 339.28C102.847 344.19 106.897 384.88 110.327 404.06C111.197 408.88 115.637 427.75 115.817 428.86L114.627 429.07C114.547 428.58 110.177 411.09 109.507 407.41L109.497 407.42Z" fill="#8C4151"/>
<path d="M120.457 407.91C117.327 390.48 110.357 344.81 110.117 339.47C109.977 336.02 112.867 318.96 117.227 301.25C121.137 285.38 125.177 268.97 125.587 264.11C126.047 258.62 126.337 250.54 126.647 241.98C126.917 234.72 127.177 227.22 127.567 220.84C128.317 208.62 138.447 168.76 138.537 158.7C138.967 159.05 139.447 159.45 139.937 159.9C139.797 171.94 129.687 209.11 128.967 220.92C128.577 227.28 128.307 234.77 128.047 242.03C127.737 250.6 127.447 258.69 126.987 264.21C126.567 269.19 122.517 285.65 118.597 301.58C114.447 318.42 111.377 336.15 111.517 339.41C111.737 344.32 117.847 385.37 121.287 404.55C122.157 409.37 125.877 424.19 126.057 425.31L124.867 425.52C124.787 425.03 121.127 411.58 120.457 407.91Z" fill="#8C4151"/>
<path d="M130.097 407.91C126.967 390.48 119.997 344.81 119.757 339.47C119.617 336.02 122.507 318.96 126.867 301.25C130.777 285.38 137.007 268.97 137.407 264.11C137.867 258.62 137.247 250.54 137.557 241.98C137.827 234.72 138.307 228.7 138.697 222.33C139.447 210.11 148.087 175.45 148.187 165.38C148.617 165.73 149.097 166.13 149.587 166.58C149.447 178.62 140.827 210.6 140.097 222.41C139.707 228.77 139.227 234.78 138.957 242.03C138.647 250.6 139.267 258.69 138.807 264.21C138.387 269.19 132.147 285.65 128.237 301.58C124.087 318.42 121.017 336.15 121.157 339.41C121.377 344.32 127.487 385.37 130.927 404.55C131.797 409.37 136.407 422.71 136.587 423.82L135.397 424.03C135.317 423.54 130.767 411.58 130.097 407.9V407.91Z" fill="#8C4151"/>
</g>
<path d="M186.397 397.96C183.347 409.88 172.157 419.32 162.937 425.27C162.227 425.75 161.507 426.19 160.817 426.61C154.637 430.4 149.817 432.45 149.817 432.45L147.367 431.09L146.127 430.39L143.877 429.15L138.707 426.27L137.477 425.59L134.457 423.91C134.457 423.91 136.307 417.83 138.847 407.41C139.117 406.33 139.397 405.23 139.667 404.07C141.117 397.95 142.747 390.61 144.377 382.32C147.987 363.91 151.567 340.82 153.137 316.06C154.467 295.22 154.537 276.89 154.077 261.36C153.227 233.21 150.637 214.21 150.637 205.91C150.637 201 151.457 195.99 153.247 191.39C153.477 190.79 155.697 185.19 155.937 184.61C157.727 180.13 157.537 181.24 158.497 178.86C160.137 174.76 162.637 169.89 163.097 169.98C171.667 171.73 179.717 182.57 179.717 182.57C184.067 191.01 185.247 216.01 186.497 221.31C186.497 221.31 200.587 342.25 186.397 397.95V397.96Z" fill="url(#paint10_linear_2646_3095)"/>
<g style="mix-blend-mode:multiply" opacity="0.1">
<path d="M148.137 392.44C158.327 346.94 164.477 287.25 163.197 260.81C162.787 252.32 162.237 242.94 161.557 233.27V233.23C160.577 219.18 159.317 204.5 157.837 191C156.457 178.46 156.077 175.55 154.297 166.44C153.677 165.82 152.927 165.8 152.357 165.26C154.337 174.91 155.077 178.49 156.587 192.43C158.167 206.97 159.477 222.78 160.457 237.65C161.007 245.8 161.447 253.66 161.797 260.88C163.057 286.84 157.137 344.98 147.257 390.06C145.407 398.41 143.327 406.71 141.247 413.88C140.017 418.06 138.757 421.97 137.477 425.59L138.707 426.27C142.117 416.81 145.287 405.18 148.147 392.44H148.137Z" fill="#8C4151"/>
<path d="M168.837 197.47C168.177 192.48 167.427 187.75 166.557 183.35C165.637 178.69 164.957 174.14 163.767 170.27C163.537 169.42 162.977 170.04 161.257 168.75C163.077 173.66 163.967 177.28 165.317 184.27C166.377 189.78 167.297 195.93 168.087 202.71C171.397 231.83 171.977 272.42 169.707 323.04C168.607 347.67 163.167 376.37 153.817 407.12C151.767 413.9 149.507 420.79 147.077 427.75C146.757 428.63 146.447 429.51 146.127 430.39L147.367 431.09C147.857 429.71 148.327 428.34 148.807 426.97C150.887 421 152.837 415.07 154.637 409.23C164.337 377.72 169.987 348.3 171.107 323.09C172.927 282.56 173.537 233.3 168.847 197.46L168.837 197.47Z" fill="#8C4151"/>
<path d="M183.017 344.52C180.147 385.7 168.017 411.3 162.827 422.23C161.917 424.13 161.247 425.56 160.817 426.62C161.517 426.2 162.227 425.75 162.937 425.28C163.277 424.55 163.647 423.74 164.087 422.83C169.297 411.83 181.537 386.07 184.397 344.62C187.307 302.82 186.227 298.14 183.017 344.52Z" fill="#8C4151"/>
</g>
<defs>
<linearGradient id="paint0_linear_2646_3095" x1="153.089" y1="65.3802" x2="153.089" y2="96.0702" gradientUnits="userSpaceOnUse">
<stop stop-color="#C68471"/>
<stop offset="1" stop-color="#E2A387"/>
</linearGradient>
<linearGradient id="paint1_linear_2646_3095" x1="65.0293" y1="65.1898" x2="65.0293" y2="95.8798" gradientUnits="userSpaceOnUse">
<stop stop-color="#C68471"/>
<stop offset="1" stop-color="#E2A387"/>
</linearGradient>
<linearGradient id="paint2_linear_2646_3095" x1="110.059" y1="15.1099" x2="110.059" y2="131.14" gradientUnits="userSpaceOnUse">
<stop stop-color="#C68471"/>
<stop offset="1" stop-color="#E2A387"/>
</linearGradient>
<linearGradient id="paint3_linear_2646_3095" x1="109.069" y1="123.05" x2="109.069" y2="184.16" gradientUnits="userSpaceOnUse">
<stop stop-color="#C68471"/>
<stop offset="1" stop-color="#E2A387"/>
</linearGradient>
<linearGradient id="paint4_linear_2646_3095" x1="108.814" y1="124.364" x2="108.814" y2="150.82" gradientUnits="userSpaceOnUse">
<stop stop-color="#F3A391"/>
<stop offset="1" stop-color="#FED08E"/>
</linearGradient>
<linearGradient id="paint5_linear_2646_3095" x1="64.8421" y1="662.65" x2="64.8421" y2="759.675" gradientUnits="userSpaceOnUse">
<stop stop-color="#C68471"/>
<stop offset="1" stop-color="#E2A387"/>
</linearGradient>
<linearGradient id="paint6_linear_2646_3095" x1="146.494" y1="640.29" x2="146.494" y2="756.689" gradientUnits="userSpaceOnUse">
<stop stop-color="#C68471"/>
<stop offset="1" stop-color="#E2A387"/>
</linearGradient>
<linearGradient id="paint7_linear_2646_3095" x1="29.3872" y1="436.68" x2="112.967" y2="436.68" gradientUnits="userSpaceOnUse">
<stop stop-color="#B33635"/>
<stop offset="1" stop-color="#E04442"/>
</linearGradient>
<linearGradient id="paint8_linear_2646_3095" x1="-0.00272471" y1="295.33" x2="65.6273" y2="295.33" gradientUnits="userSpaceOnUse">
<stop stop-color="#C1210D"/>
<stop offset="0.52" stop-color="#C1210D"/>
<stop offset="1" stop-color="#9D1D06"/>
</linearGradient>
<linearGradient id="paint9_linear_2646_3095" x1="101.487" y1="218.47" x2="100.007" y2="419.29" gradientUnits="userSpaceOnUse">
<stop stop-color="#C1210D"/>
<stop offset="0.52" stop-color="#C1210D"/>
<stop offset="1" stop-color="#9D1D06"/>
</linearGradient>
<linearGradient id="paint10_linear_2646_3095" x1="134.447" y1="301.22" x2="192.727" y2="301.22" gradientUnits="userSpaceOnUse">
<stop stop-color="#C1210D"/>
<stop offset="0.52" stop-color="#C1210D"/>
<stop offset="1" stop-color="#9D1D06"/>
</linearGradient>
</defs>
</svg>
