<svg width="205" height="772" viewBox="0 0 205 772" fill="none" xmlns="http://www.w3.org/2000/svg">
<path d="M178.548 102.02C168.508 84.27 165.148 66.09 165.328 58.79C165.358 58.2 165.378 57.61 165.398 57.02C165.448 56.01 165.508 55.45 165.508 55.45H165.428C165.428 24.83 141.218 0 111.368 0C81.5181 0 57.3081 24.83 57.3081 55.45C57.3081 57 57.3881 58.54 57.5081 60.06C57.5681 68.05 53.7781 85.23 44.2681 102.02C32.4481 122.9 31.1881 144.96 54.6581 153.84C54.6581 153.84 54.7781 153.88 54.9481 153.94C57.1581 154.76 59.5581 155.47 62.2081 156.05C62.8281 156.18 63.4281 156.28 64.0381 156.4C79.8681 160.13 119.048 165.7 156.188 156.86C157.648 156.63 159.128 156.38 160.628 156.05C164.788 155.14 168.358 153.92 171.448 152.44C171.468 152.44 171.498 152.42 171.518 152.42H171.508C191.478 142.75 189.778 121.87 178.558 102.03L178.548 102.02Z" fill="black"/>
<path d="M111.094 105.53C139.862 105.53 163.184 82.7862 163.184 54.7302C163.184 26.6741 139.862 3.93018 111.094 3.93018C82.3254 3.93018 59.0039 26.6741 59.0039 54.7302C59.0039 82.7862 82.3254 105.53 111.094 105.53Z" fill="black"/>
<mask id="mask0_2646_3097" style="mask-type:luminance" maskUnits="userSpaceOnUse" x="144" y="65" width="17" height="29">
<path d="M146.784 69.4302C141.974 75.1102 145.174 88.8202 145.724 90.5202C146.534 93.0102 149.334 96.0702 154.014 91.5202C159.054 86.6002 164.184 69.1202 156.944 66.0002C155.934 65.5602 154.974 65.3802 154.064 65.3802C149.824 65.3802 146.874 69.3102 146.774 69.4302" fill="white"/>
</mask>
<g mask="url(#mask0_2646_3097)">
<path d="M164.193 65.3802H141.983V96.0702H164.193V65.3802Z" fill="url(#paint0_linear_2646_3097)"/>
</g>
<mask id="mask1_2646_3097" style="mask-type:luminance" maskUnits="userSpaceOnUse" x="57" y="65" width="17" height="29">
<path d="M61.1641 65.7998C53.9241 68.9198 59.0441 86.3998 64.0941 91.3198C68.7741 95.8698 71.5841 92.8198 72.3941 90.3298C72.9441 88.6298 76.1441 74.9198 71.3341 69.2398C71.2341 69.1198 68.2841 65.1898 64.0441 65.1898C63.1341 65.1898 62.1741 65.3698 61.1641 65.8098" fill="white"/>
</mask>
<g mask="url(#mask1_2646_3097)">
<path d="M76.1338 65.1898H53.9238V95.8798H76.1338V65.1898Z" fill="url(#paint1_linear_2646_3097)"/>
</g>
<mask id="mask2_2646_3097" style="mask-type:luminance" maskUnits="userSpaceOnUse" x="70" y="15" width="81" height="117">
<path d="M110.054 15.1099C110.054 15.1099 109.964 15.1099 109.914 15.1099C75.4845 15.3199 72.7845 53.2099 72.7845 53.2099C72.7845 53.2099 67.7645 93.1499 71.3445 102.89C73.8845 109.8 82.1245 117.6 90.0945 123.04C93.3645 125.27 96.5945 127.12 99.3645 128.33C103.734 130.25 107.064 130.98 109.614 131.11C109.704 131.11 109.804 131.11 109.894 131.11C109.924 131.11 109.954 131.11 109.974 131.11H110.044C110.044 131.11 110.094 131.11 110.114 131.11C110.114 131.11 110.164 131.11 110.184 131.11C110.284 131.11 110.384 131.11 110.474 131.11C113.024 130.98 116.344 130.24 120.724 128.33C122.954 127.35 125.484 125.96 128.084 124.3C136.614 118.85 146.004 110.35 148.754 102.88C152.334 93.1399 147.304 53.1999 147.304 53.1999C147.304 53.1999 144.604 15.3099 110.174 15.0999C110.124 15.0999 110.074 15.0999 110.034 15.0999" fill="white"/>
</mask>
<g mask="url(#mask2_2646_3097)">
<path d="M152.355 15.1099H67.7646V131.14H152.355V15.1099Z" fill="url(#paint2_linear_2646_3097)"/>
</g>
<mask id="mask3_2646_3097" style="mask-type:luminance" maskUnits="userSpaceOnUse" x="69" y="123" width="80" height="62">
<path d="M88.814 148.43C87.014 154 80.254 157.37 69.374 162.11C69.404 164.2 70.494 181.71 99.964 184.17H110.974C146.424 184.17 148.634 165.22 148.764 162.07C137.944 157.35 131.224 153.98 129.434 148.43C127.924 143.77 127.964 131.33 128.114 124.32C125.504 125.98 122.984 127.37 120.754 128.35C116.374 130.27 113.054 131 110.504 131.13C110.414 131.13 110.314 131.13 110.214 131.13C110.194 131.13 110.164 131.13 110.144 131.13H110.074C110.074 131.13 110.024 131.13 110.004 131.13C110.004 131.13 109.954 131.13 109.924 131.13C109.834 131.13 109.734 131.13 109.644 131.13C107.084 131 103.764 130.26 99.394 128.35C96.624 127.14 93.394 125.29 90.124 123.06C90.294 129.73 90.434 143.49 88.834 148.44" fill="white"/>
</mask>
<g mask="url(#mask3_2646_3097)">
<path d="M148.764 123.05H69.374V184.16H148.764V123.05Z" fill="url(#paint3_linear_2646_3097)"/>
</g>
<g style="mix-blend-mode:multiply" opacity="0.2">
<mask id="mask4_2646_3097" style="mask-type:luminance" maskUnits="userSpaceOnUse" x="89" y="123" width="40" height="22">
<path d="M128.104 123.07H89.5439V144.74H128.104V123.07Z" fill="white"/>
</mask>
<g mask="url(#mask4_2646_3097)">
<mask id="mask5_2646_3097" style="mask-type:luminance" maskUnits="userSpaceOnUse" x="89" y="123" width="40" height="22">
<path d="M128.104 123.07H89.5439V144.74H128.104V123.07Z" fill="white"/>
</mask>
<g mask="url(#mask5_2646_3097)">
<path d="M128.104 124.33C125.504 125.99 122.974 127.38 120.744 128.36C116.374 130.27 113.044 131.01 110.494 131.14C110.404 131.14 110.304 131.14 110.204 131.15H110.124H110.054H109.974H109.894C109.794 131.15 109.704 131.15 109.604 131.14C107.054 131.01 103.724 130.27 99.3544 128.36C96.5844 127.15 93.3544 125.3 90.0844 123.07C90.2244 128.46 90.3344 138.49 89.5244 144.74C102.764 142.35 116.054 137.95 128.024 131.27C128.024 128.72 128.044 126.3 128.084 124.32" fill="url(#paint4_linear_2646_3097)"/>
</g>
</g>
</g>
<path d="M113.864 97.0299C113.634 97.0299 113.404 97.0199 113.174 96.9899C112.704 96.9399 112.364 96.5099 112.414 96.0399C112.464 95.5699 112.874 95.2299 113.354 95.2899C114.734 95.4399 115.884 94.9899 116.604 94.0099C117.914 92.2399 117.714 89.0099 116.044 85.1599C110.934 73.3499 115.644 67.1699 115.844 66.9099C116.134 66.5399 116.674 66.4799 117.044 66.7699C117.414 67.0599 117.474 67.5999 117.184 67.9699C117.004 68.1999 112.934 73.6699 117.604 84.4799C120.224 90.5399 118.954 93.6799 117.964 95.0199C117.014 96.3099 115.534 97.0199 113.844 97.0199" fill="#79463D"/>
<path d="M134.444 74.7403C134.444 76.7103 132.844 78.3203 130.864 78.3203C128.884 78.3203 127.294 76.7103 127.294 74.7403C127.294 72.7703 128.894 71.1703 130.864 71.1703C132.834 71.1703 134.444 72.7803 134.444 74.7403Z" fill="#231F20"/>
<path d="M92.7145 74.96C92.7145 76.93 91.1245 78.54 89.1345 78.54C87.1445 78.54 85.5645 76.93 85.5645 74.96C85.5645 72.99 87.1745 71.39 89.1345 71.39C91.0945 71.39 92.7145 73 92.7145 74.96Z" fill="#231F20"/>
<path d="M93.9863 103.93C93.9863 103.93 99.0548 111.578 110.298 111.578C110.298 111.578 122.858 112.164 128.765 104.391L128.986 104.072C109.413 111.159 93.9863 103.93 93.9863 103.93Z" fill="white"/>
<path d="M130.14 19.9302C130.14 19.9302 112.76 43.8802 149.25 67.8402C149.25 67.8402 149.9 28.0602 130.14 19.9302Z" fill="black"/>
<path d="M62.9984 65.3299C62.9984 65.3299 134.838 64.9599 146.348 29.3999C146.348 29.3999 128.508 5.46993 95.5184 15.2999C62.5384 25.1399 62.9984 65.3299 62.9984 65.3299Z" fill="black"/>
<path d="M108.777 663.77C108.777 663.77 108.147 699.68 108.527 705.96C108.907 712.24 109.657 722.66 111.167 726.93C112.677 731.2 114.177 744.26 114.427 751.04C114.677 757.82 74.3772 756.06 72.8672 756.19C71.3572 756.32 45.6172 758.95 39.9672 759.58C34.3172 760.21 16.3672 757.57 15.4872 754.93C14.6072 752.29 16.2372 747.65 20.3872 746.64C24.5272 745.64 39.0972 743.75 44.3672 740.36C49.6372 736.97 68.2272 727.18 70.9872 721.28C73.7472 715.38 78.7672 700.31 76.6372 682.61C74.5072 664.91 74.2472 662.65 74.2472 662.65L108.777 663.78V663.77Z" fill="url(#paint5_linear_2646_3097)"/>
<path d="M115.438 664.97C115.438 664.97 126.537 679.86 129.467 687.01C132.397 694.16 134.197 711.11 134.807 713.44C135.417 715.77 138.597 725.66 138.938 730.23C139.278 734.8 136.097 748.22 136.697 751.32C137.297 754.42 137.727 757.69 140.997 756.4C144.267 755.11 150.298 751.24 154.077 741.51C157.857 731.78 161.908 714.31 163.378 708.63C164.838 702.95 175.518 685.65 176.378 681C177.238 676.35 179.307 664.39 174.397 662.84C169.487 661.29 153.647 659.05 149.438 655.61C145.228 652.17 135.318 640.29 135.318 640.29L115.438 665V664.97Z" fill="url(#paint6_linear_2646_3097)"/>
<path d="M52.7702 729.48C52.7702 729.48 49.4802 731.62 49.1302 732.08C48.7802 732.54 41.2702 741.31 32.3602 742.36C23.4502 743.41 18.6802 743.58 17.1202 744.14C15.5602 744.7 11.3102 745.95 11.7602 750.68C11.7602 750.68 11.3402 751.13 11.3102 751.52C11.2802 751.91 10.8902 753.71 11.0302 754.03C11.1702 754.35 12.7002 756.99 15.6902 758.49C18.6802 759.99 31.1402 762.56 37.3002 762.53C43.4602 762.5 54.3902 761 59.5802 760.37C64.7702 759.74 78.7602 759.81 84.3302 759.99C89.9002 760.16 103.23 760.83 109.18 759.15C115.13 757.47 116.38 756.57 116.52 753.96C116.66 751.35 116.49 748.25 116.49 748.25C116.49 748.25 117.6 744.94 116.84 741.25C116.08 737.56 113.08 726.53 112.7 725.38C112.32 724.23 113.99 722.11 114.34 721.66C114.69 721.21 114.9 720.09 114.55 719.82C114.2 719.55 113.23 720.41 112.15 720.86C111.07 721.31 111.04 722.67 110.27 723.51C109.5 724.35 101.53 728.56 95.3702 730.44C89.2102 732.32 70.9002 737.44 64.9802 737.99C59.0602 738.54 53.9502 740.57 54.0202 735.62C54.0902 730.67 55.2102 731.68 52.7902 729.49L52.7702 729.48Z" fill="#262626"/>
<path d="M130.843 710.48C130.843 710.48 129.523 711.47 130.843 713.78C132.163 716.09 133.593 723.19 133.703 727.42C133.813 731.65 130.673 746.95 130.293 749.37C129.913 751.79 128.973 757.13 134.913 759.27C134.913 759.27 138.323 763.29 143.113 758.33C147.903 753.37 153.733 748.92 155.493 746.23C157.253 743.54 165.453 730.06 166.603 725.44C167.753 720.82 172.273 704.54 174.253 698.05C176.233 691.56 182.343 678.41 182.613 674.01C182.883 669.61 181.403 665.43 176.723 663.39C172.043 661.35 170.173 659.98 168.303 659.37C166.433 658.76 153.173 657.39 152.623 657.22C152.073 657.05 149.983 655.62 149.983 655.62L150.533 652.15L146.683 650L146.743 655.5C146.743 655.5 150.873 659.35 150.593 668.48C150.313 677.61 149.383 711.93 145.473 714.74C145.473 714.74 141.343 714.63 140.303 711.99C139.263 709.35 130.843 710.45 130.843 710.45V710.48Z" fill="#262626"/>
<path d="M149.007 546.44C159.467 484.23 160.907 483.44 155.907 419.18L71.227 430.71L27.377 420.28C29.027 555.94 36.447 616.35 44.147 633.04C47.287 639.84 67.757 705.74 67.757 705.74C67.757 705.74 162.007 654.88 162.147 653.18C162.227 652.29 147.397 587.21 149.007 546.45V546.44Z" fill="#681111"/>
<path style="mix-blend-mode:multiply" opacity="0.4" d="M29.3877 430.97C40.7477 457.03 78.4977 446.67 107.898 432.97C137.298 419.27 29.3877 430.97 29.3877 430.97Z" fill="url(#paint7_linear_2646_3097)"/>
<g style="mix-blend-mode:multiply" opacity="0.3">
<path d="M61.277 198.3C57.107 220.01 51.517 243.47 51.517 243.47C51.517 243.47 44.887 298.56 39.107 344.87C33.317 391.2 27.167 420.15 27.167 420.15L22.877 422.88C22.397 375.12 47.137 264.88 46.687 250.69C46.167 234.77 44.327 231.61 45.647 221.48C47.477 207.5 62.217 189.37 62.217 189.37C63.177 190.05 60.967 194.34 61.277 198.3Z" fill="#91356A"/>
</g>
<path d="M65.6173 169.93C65.5073 171.51 65.3273 173.3 65.0873 175.24V175.27C64.3173 181.7 62.9073 189.86 61.2873 198.29C57.1173 220 51.5273 243.46 51.5273 243.46C51.5273 243.46 44.8973 298.55 39.1173 344.86C33.3273 391.19 27.1773 420.14 27.1773 420.14L22.8873 422.87L14.9473 427.93C14.9473 427.93 12.0273 424.38 8.75728 418.7C8.30728 417.9 7.83728 417.08 7.38728 416.2C2.98728 407.94 -1.35272 396.32 0.397275 384.68C9.78728 322.18 26.8573 259.39 42.2373 215.91C42.2473 215.9 42.2473 215.88 42.2473 215.88C43.9373 211.11 45.5973 206.57 47.2373 202.28C54.2573 183.95 55.7873 169.51 60.6273 162.73C60.9373 164.06 65.8173 167.11 65.6173 169.94V169.93Z" fill="url(#paint8_linear_2646_3097)"/>
<g style="mix-blend-mode:multiply" opacity="0.1">
<path d="M38.5671 269.48C38.0471 272.15 37.4371 275.27 36.7371 278.76C29.9171 313.05 15.7371 384.43 19.5971 423.83L20.9971 423.7C17.1571 384.49 31.2971 313.25 38.1071 279.02C38.8071 275.53 39.4171 272.41 39.9371 269.74C43.6171 250.87 52.3771 209.67 65.0871 175.27V175.24C65.3271 173.3 65.5071 171.51 65.6171 169.93C51.8771 205.34 42.4171 249.67 38.5671 269.47V269.48Z" fill="#8C4151"/>
</g>
<g style="mix-blend-mode:multiply" opacity="0.1">
<path d="M42.2467 215.88C42.2467 215.88 42.2467 215.89 42.2367 215.91C29.7567 263.93 15.7567 320.49 11.4167 358.36C8.40672 384.56 7.57672 404.41 7.38672 416.2C7.83672 417.08 8.30672 417.91 8.75672 418.7C8.85672 407.36 9.57672 386.62 12.7967 358.51C17.5467 316.99 33.9767 252.87 47.2367 202.28C45.5967 206.57 43.9367 211.11 42.2467 215.88Z" fill="#8C4151"/>
</g>
<path d="M169.157 204.99C168.947 206.65 168.697 208.4 168.407 210.23C166.997 218.94 156.797 241.54 156.797 241.54C155.887 245.05 152.267 258.31 151.417 261.36C147.587 274.95 142.957 289.43 139.237 301.37C134.417 316.86 132.317 329.06 131.867 336.53C131.477 343.02 133.837 352.95 139.117 371.39C139.717 373.49 140.587 375.53 141.327 377.61C141.987 379.41 142.517 380.92 143.177 382.71C144.137 385.32 144.507 387.53 145.457 390.06C145.747 390.86 146.257 391.81 146.557 392.59C146.557 392.59 149.517 402.94 151.167 407.13C151.447 407.86 151.727 408.57 151.987 409.24C154.967 416.83 156.987 421.81 156.987 421.81C156.987 421.81 126.137 423.99 119.487 426.98C118.927 427.23 118.357 427.5 117.757 427.76C116.737 428.21 115.677 428.67 114.557 429.16C113.407 429.66 112.207 430.17 110.967 430.67C109.677 431.22 108.357 431.75 106.997 432.29C99.267 435.35 90.337 438.5 81.307 440.8C80.847 440.93 80.397 441.04 79.937 441.15C74.767 442.44 69.577 443.43 64.587 443.96C64.127 444.02 63.647 444.06 63.187 444.1C61.807 444.23 60.417 444.32 59.067 444.37C54.407 444.54 50.417 444.08 47.007 443.15C46.527 443.02 46.067 442.9 45.607 442.74C39.987 440.98 36.027 437.99 33.267 434.72C32.717 434.08 32.217 433.42 31.767 432.76C31.767 432.76 31.757 432.75 31.757 432.73C27.407 426.45 26.967 419.94 27.227 419.63C24.267 392.29 33.767 336.58 41.447 296.96C46.197 272.48 50.267 254.14 50.267 252.45C50.267 246.72 47.607 235.2 47.607 223.74C47.607 223.52 47.607 223.28 47.617 223.06C47.997 211.81 57.667 199.94 59.427 191.16C61.217 182.21 56.747 168.83 61.037 162.04C65.327 155.23 86.967 148.44 86.967 148.44C86.967 147 87.147 138.87 87.147 138.87L92.847 138.77L94.247 138.74L100.667 138.57L102.097 138.53L106.687 138.4L108.087 138.37L113.107 138.23L114.517 138.2L120.567 138.03L121.977 138L135.157 138.28L132.797 148.93C132.797 148.93 144.747 159.86 145.717 160.43C148.857 162.29 167.687 170.16 170.147 173.46C171.127 174.76 172.257 175.55 172.997 177.57C174.417 181.43 174.787 183.16 175.187 188.74C175.407 191.9 170.127 197.77 169.187 204.97L169.157 204.99Z" fill="url(#paint9_linear_2646_3097)"/>
<g style="mix-blend-mode:multiply" opacity="0.1">
<path d="M153.937 252.2C153.117 255.25 152.257 258.31 151.407 261.36C147.577 274.95 142.477 289.3 139.227 301.37C134.747 318 133.167 327.86 131.327 336.47C130.467 340.5 131.687 354.1 137.527 370.72C138.257 372.77 140.567 375.53 141.307 377.61L155.237 417.36L110.947 430.67L107.757 436.69C107.757 436.69 91.177 343.02 91.137 342.01C90.367 323.08 94.757 258.09 70.797 254.61C56.567 252.56 49.157 276.42 41.417 296.97C46.167 272.49 50.237 254.15 50.237 252.46C50.237 246.73 47.577 235.21 47.577 223.75C47.577 223.53 47.577 223.29 47.587 223.07C48.807 229.43 61.117 237.14 98.257 236.76C111.357 236.63 159.477 230.15 164.697 221.88C166.787 218.56 158.127 234.52 153.937 252.2Z" fill="#91356A"/>
</g>
<g style="mix-blend-mode:multiply" opacity="0.3">
<path d="M180.428 241.52C175.288 261.3 168.968 282.6 163.428 300.4C173.118 265.2 174.338 230.95 174.188 213.26C174.188 213.26 176.748 223.37 180.428 241.52Z" fill="#91356A"/>
</g>
<g style="mix-blend-mode:multiply" opacity="0.3">
<path d="M169.198 392.68C164.128 405.9 155.428 423.92 155.428 423.92C155.428 423.92 159.808 392.69 161.158 370.72C163.718 378.03 166.538 385.64 169.198 392.68Z" fill="#91356A"/>
</g>
<path d="M136.927 421.24L128.607 435.84L138.727 439.74C138.727 439.74 142.877 439.72 145.807 437.46C148.747 435.2 150.847 431.32 150.847 431.32L136.927 421.24Z" fill="#FFDCC2"/>
<path d="M15.1973 427.61C15.1973 427.61 16.6673 434.82 19.8773 436.96C23.0873 439.1 26.7173 440.17 26.7173 440.17L33.0973 434.5L27.2073 420.08C27.2073 420.08 18.1973 423.55 15.1973 427.61Z" fill="#FFDCC2"/>
<g style="mix-blend-mode:multiply" opacity="0.1">
<path d="M94.2276 138.75V149.57L94.1576 149.71C93.8776 150.28 56.5776 206.88 54.3576 216.88C52.1476 226.81 56.5776 250.58 56.6176 250.82L56.6476 250.96L56.6176 251.1C56.4376 251.94 38.7476 335.69 34.5576 362.79C31.0676 385.44 32.5976 422.89 33.2276 434.73C32.6776 434.09 32.1776 433.43 31.7276 432.77C31.7276 432.77 31.7176 432.76 31.7176 432.74C31.0576 419.04 29.8276 384.16 33.1676 362.57C37.2876 335.94 54.3976 254.81 55.2076 250.95C54.7976 248.78 50.7776 226.49 52.9676 216.58C55.1876 206.59 90.9076 153.13 92.8076 149.24V138.77L94.2076 138.74L94.2276 138.75Z" fill="#8C4151"/>
<path d="M63.3972 217.15C62.0172 223.06 63.5972 234.79 64.7372 243.36C65.1972 246.77 65.5872 249.72 65.6772 251.47C65.8472 254.81 60.7472 285.16 55.8072 314.51C51.7572 338.64 47.9272 361.44 47.2972 367.55C46.0372 379.54 46.8072 431.94 46.9772 443.15C46.4972 443.02 46.0372 442.9 45.5772 442.74C45.3772 430.69 44.6572 379.33 45.8972 367.41C46.5372 361.26 50.3672 338.43 54.4372 314.28C59.1172 286.36 64.4272 254.73 64.2972 251.54C64.2172 249.86 63.8172 246.93 63.3572 243.54C62.1972 234.87 60.6072 222.99 62.0472 216.84C64.0072 208.45 97.1672 152.4 98.5172 149.18L100.637 138.57L102.067 138.53L99.8272 149.66C99.5772 150.26 65.3372 208.82 63.3972 217.15Z" fill="#8C4151"/>
<path d="M79.8275 217.66C79.0175 223.68 79.3275 231.44 79.6275 238.95C79.8475 244.36 80.0575 249.46 79.8275 253.53C79.5775 257.88 76.0975 276.78 72.0575 298.65C67.1275 325.45 61.5275 355.81 60.5975 366.41C59.2275 381.9 63.0675 427.46 64.5675 443.97C64.1075 444.03 63.6275 444.07 63.1675 444.11C61.6875 427.59 57.8275 381.89 59.1975 366.3C60.1475 355.62 65.7375 325.23 70.6875 298.4C74.7175 276.56 78.1775 257.71 78.4275 253.44C78.6675 249.44 78.4575 244.37 78.2275 239C77.9175 231.44 77.5975 223.61 78.4375 217.47C79.8175 207.18 105.408 153.24 106.408 149.85L106.648 138.4L108.048 138.37L107.767 150.15C107.597 150.71 81.2075 207.35 79.8175 217.64L79.8275 217.66Z" fill="#8C4151"/>
<path d="M90.8575 219.29C90.7475 222.18 91.3175 228.32 91.9175 234.83C92.7975 244.2 93.7875 254.81 93.1175 259.52C92.8675 261.21 91.4075 268.83 89.3975 279.37C84.1375 306.91 75.3375 352.98 74.7375 363.57C74.0575 375.51 79.1675 421.82 81.1075 439.25C81.1675 439.81 81.2175 440.33 81.2775 440.8C80.8175 440.93 80.3675 441.04 79.9075 441.15C79.8375 440.6 79.7775 440.02 79.7075 439.4C77.7775 421.93 72.6375 375.54 73.3375 363.48C73.9575 352.81 82.7575 306.67 88.0275 279.12C90.0375 268.59 91.4975 260.99 91.7275 259.33C92.3675 254.79 91.3875 244.26 90.5275 234.96C89.8875 228.12 89.3375 222.21 89.4475 219.23C89.7375 212.18 111.007 152.09 111.507 149.55L113.057 138.24L114.467 138.21L112.877 149.77C112.747 150.43 91.1275 212.35 90.8475 219.29H90.8575Z" fill="#8C4151"/>
<path d="M106.417 220.98C106.317 223.64 106.517 228.68 106.737 234.53C107.117 244.58 107.607 257.09 106.697 262.38C106.457 263.74 105.827 267.23 104.937 272.15C100.717 295.56 89.5072 357.77 89.7272 364.06C90.0172 371.66 96.2272 416.64 101.577 433.03L100.657 434.65C95.2072 419.05 88.6272 371.93 88.3272 364.12C88.0872 357.68 98.9372 297.57 103.567 271.9C104.447 266.99 105.077 263.5 105.317 262.14C106.207 257 105.727 244.57 105.347 234.59C105.127 228.72 104.927 223.64 105.027 220.93C105.307 213.65 119.667 150.83 119.717 150.2L120.537 138.05L121.947 138.02L121.097 150.29C121.057 150.93 106.697 213.73 106.417 220.98Z" fill="#8C4151"/>
<path d="M109.498 407.42C106.368 389.99 101.458 344.69 101.218 339.35C101.078 335.9 103.548 317.92 107.908 300.21C111.818 284.34 114.218 268.49 114.628 263.62C115.088 258.13 115.378 250.05 115.688 241.49C115.958 234.23 116.218 226.73 116.608 220.35C117.358 208.13 128.848 163.57 128.948 153.5C129.378 153.85 129.858 154.25 130.348 154.7C130.208 166.74 118.738 208.62 118.008 220.43C117.618 226.79 117.348 234.28 117.088 241.54C116.778 250.11 116.488 258.2 116.028 263.72C115.608 268.7 113.198 284.61 109.288 300.53C105.138 317.37 102.488 336.02 102.628 339.28C102.848 344.19 106.898 384.88 110.328 404.06C111.198 408.88 115.638 427.75 115.818 428.86L114.628 429.07C114.548 428.58 110.178 411.09 109.508 407.41L109.498 407.42Z" fill="#8C4151"/>
<path d="M120.457 407.91C117.327 390.48 110.357 344.81 110.117 339.47C109.977 336.02 112.867 318.96 117.227 301.25C121.137 285.38 125.177 268.97 125.587 264.11C126.047 258.62 126.337 250.54 126.647 241.98C126.917 234.72 127.177 227.22 127.567 220.84C128.317 208.62 138.447 168.76 138.537 158.7C138.967 159.05 139.447 159.45 139.937 159.9C139.797 171.94 129.687 209.11 128.967 220.92C128.577 227.28 128.307 234.77 128.047 242.03C127.737 250.6 127.447 258.69 126.987 264.21C126.567 269.19 122.517 285.65 118.597 301.58C114.447 318.42 111.377 336.15 111.517 339.41C111.737 344.32 117.847 385.37 121.287 404.55C122.157 409.37 125.877 424.19 126.057 425.31L124.867 425.52C124.787 425.03 121.127 411.58 120.457 407.91Z" fill="#8C4151"/>
<path d="M130.097 407.91C126.967 390.48 119.997 344.81 119.757 339.47C119.617 336.02 122.507 318.96 126.867 301.25C130.777 285.38 137.007 268.97 137.407 264.11C137.867 258.62 137.247 250.54 137.557 241.98C137.827 234.72 138.307 228.7 138.697 222.33C139.447 210.11 148.087 175.45 148.187 165.38C148.617 165.73 149.097 166.13 149.587 166.58C149.447 178.62 140.827 210.6 140.097 222.41C139.707 228.77 139.227 234.78 138.957 242.03C138.647 250.6 139.267 258.69 138.807 264.21C138.387 269.19 132.147 285.65 128.237 301.58C124.087 318.42 121.017 336.15 121.157 339.41C121.377 344.32 127.487 385.37 130.927 404.55C131.797 409.37 136.407 422.71 136.587 423.82L135.397 424.03C135.317 423.54 130.767 411.58 130.097 407.9V407.91Z" fill="#8C4151"/>
</g>
<path d="M186.397 397.96C183.347 409.88 172.157 419.32 162.937 425.27C162.227 425.75 161.507 426.19 160.817 426.61C154.637 430.4 149.817 432.45 149.817 432.45L147.367 431.09L146.127 430.39L143.877 429.15L138.707 426.27L137.477 425.59L134.457 423.91C134.457 423.91 136.307 417.83 138.847 407.41C139.117 406.33 139.397 405.23 139.667 404.07C141.117 397.95 142.747 390.61 144.377 382.32C147.987 363.91 151.567 340.82 153.137 316.06C154.467 295.22 154.537 276.89 154.077 261.36C153.227 233.21 150.637 214.21 150.637 205.91C150.637 201 151.457 195.99 153.247 191.39C153.477 190.79 155.697 185.19 155.937 184.61C157.727 180.13 157.537 181.24 158.497 178.86C160.137 174.76 162.637 169.89 163.097 169.98C171.667 171.73 179.717 182.57 179.717 182.57C184.067 191.01 185.247 216.01 186.497 221.31C186.497 221.31 200.587 342.25 186.397 397.95V397.96Z" fill="url(#paint10_linear_2646_3097)"/>
<g style="mix-blend-mode:multiply" opacity="0.1">
<path d="M148.138 392.44C158.328 346.94 164.478 287.25 163.198 260.81C162.788 252.32 162.238 242.94 161.558 233.27V233.23C160.578 219.18 159.318 204.5 157.838 191C156.458 178.46 156.078 175.55 154.298 166.44C153.678 165.82 152.928 165.8 152.358 165.26C154.338 174.91 155.078 178.49 156.588 192.43C158.168 206.97 159.478 222.78 160.458 237.65C161.008 245.8 161.448 253.66 161.798 260.88C163.058 286.84 157.138 344.98 147.258 390.06C145.408 398.41 143.328 406.71 141.248 413.88C140.018 418.06 138.758 421.97 137.478 425.59L138.708 426.27C142.118 416.81 145.288 405.18 148.148 392.44H148.138Z" fill="#8C4151"/>
<path d="M168.838 197.47C168.178 192.48 167.428 187.75 166.558 183.35C165.638 178.69 164.958 174.14 163.768 170.27C163.538 169.42 162.978 170.04 161.258 168.75C163.078 173.66 163.968 177.28 165.318 184.27C166.378 189.78 167.298 195.93 168.088 202.71C171.398 231.83 171.978 272.42 169.708 323.04C168.608 347.67 163.168 376.37 153.818 407.12C151.768 413.9 149.508 420.79 147.078 427.75C146.758 428.63 146.448 429.51 146.128 430.39L147.368 431.09C147.858 429.71 148.328 428.34 148.808 426.97C150.888 421 152.838 415.07 154.638 409.23C164.338 377.72 169.988 348.3 171.108 323.09C172.928 282.56 173.538 233.3 168.848 197.46L168.838 197.47Z" fill="#8C4151"/>
<path d="M183.017 344.52C180.147 385.7 168.017 411.3 162.827 422.23C161.917 424.13 161.247 425.56 160.817 426.62C161.517 426.2 162.227 425.75 162.937 425.28C163.277 424.55 163.647 423.74 164.087 422.83C169.297 411.83 181.537 386.07 184.397 344.62C187.307 302.82 186.227 298.14 183.017 344.52Z" fill="#8C4151"/>
</g>
<defs>
<linearGradient id="paint0_linear_2646_3097" x1="153.088" y1="65.3802" x2="153.088" y2="96.0702" gradientUnits="userSpaceOnUse">
<stop stop-color="#8F452F"/>
<stop offset="1" stop-color="#A35D38"/>
</linearGradient>
<linearGradient id="paint1_linear_2646_3097" x1="65.0288" y1="65.1898" x2="65.0288" y2="95.8798" gradientUnits="userSpaceOnUse">
<stop stop-color="#8F452F"/>
<stop offset="1" stop-color="#A35D38"/>
</linearGradient>
<linearGradient id="paint2_linear_2646_3097" x1="110.06" y1="15.1099" x2="110.06" y2="131.14" gradientUnits="userSpaceOnUse">
<stop stop-color="#8F452F"/>
<stop offset="1" stop-color="#A35D38"/>
</linearGradient>
<linearGradient id="paint3_linear_2646_3097" x1="109.069" y1="123.05" x2="109.069" y2="184.16" gradientUnits="userSpaceOnUse">
<stop stop-color="#8F452F"/>
<stop offset="1" stop-color="#A35D38"/>
</linearGradient>
<linearGradient id="paint4_linear_2646_3097" x1="108.814" y1="123.07" x2="108.814" y2="144.74" gradientUnits="userSpaceOnUse">
<stop stop-color="#8F452F"/>
<stop offset="1" stop-color="#A35D38"/>
</linearGradient>
<linearGradient id="paint5_linear_2646_3097" x1="64.8421" y1="662.65" x2="64.8421" y2="759.675" gradientUnits="userSpaceOnUse">
<stop stop-color="#8F452F"/>
<stop offset="1" stop-color="#A35D38"/>
</linearGradient>
<linearGradient id="paint6_linear_2646_3097" x1="146.494" y1="640.29" x2="146.494" y2="756.689" gradientUnits="userSpaceOnUse">
<stop stop-color="#8F452F"/>
<stop offset="1" stop-color="#A35D38"/>
</linearGradient>
<linearGradient id="paint7_linear_2646_3097" x1="29.3877" y1="436.68" x2="112.968" y2="436.68" gradientUnits="userSpaceOnUse">
<stop stop-color="#B33635"/>
<stop offset="1" stop-color="#E04442"/>
</linearGradient>
<linearGradient id="paint8_linear_2646_3097" x1="-0.00272471" y1="295.33" x2="65.6273" y2="295.33" gradientUnits="userSpaceOnUse">
<stop stop-color="#C1210D"/>
<stop offset="0.52" stop-color="#C1210D"/>
<stop offset="1" stop-color="#9D1D06"/>
</linearGradient>
<linearGradient id="paint9_linear_2646_3097" x1="101.487" y1="218.47" x2="100.007" y2="419.29" gradientUnits="userSpaceOnUse">
<stop stop-color="#C1210D"/>
<stop offset="0.52" stop-color="#C1210D"/>
<stop offset="1" stop-color="#9D1D06"/>
</linearGradient>
<linearGradient id="paint10_linear_2646_3097" x1="134.447" y1="301.22" x2="192.727" y2="301.22" gradientUnits="userSpaceOnUse">
<stop stop-color="#C1210D"/>
<stop offset="0.52" stop-color="#C1210D"/>
<stop offset="1" stop-color="#9D1D06"/>
</linearGradient>
</defs>
</svg>
