<svg width="311" height="801" viewBox="0 0 311 801" fill="none" xmlns="http://www.w3.org/2000/svg">
<g clip-path="url(#clip0_2646_3045)">
<path d="M168.329 72.4181L162.846 38.5398L135.507 28.7475L107.54 22.1233L91.4544 26.7954L80.5955 46.0706L79.4351 64.2152V89.5919L84.9923 95.16L84.5451 101.336L93.4132 114.137L121.071 124.377C121.071 124.377 131.057 125.732 131.473 124.974C131.888 124.217 147.814 114.734 147.814 114.734L160.6 106.904L165.955 98.1681L168.329 89.5812L170.959 86.8718L173.034 79.3409L168.318 72.4181H168.329Z" fill="black"/>
<path d="M159.259 165.05C159.259 165.05 147.814 161.775 147.814 155.887V125.646C145.664 127.054 143.481 128.302 141.352 129.433C137.2 131.62 133.368 132.793 130.078 133.401C130.078 133.401 127.959 133.988 124.446 133.956C120.944 133.988 118.825 133.412 118.825 133.412C115.525 132.804 111.692 131.63 107.54 129.444C105.688 128.473 103.804 127.385 101.919 126.201V155.898C101.919 161.786 90.4856 165.061 90.4856 165.061C89.4316 165.253 88.6438 165.733 88.0583 166.415C85.8226 168.997 86.5466 174.618 88.0583 180.122C89.8362 186.619 92.6893 192.912 92.9874 193.734C94.02 196.55 110.351 227.782 126.235 225.553C142.108 223.324 156.661 189.115 159.173 180.197C160.025 177.189 160.44 174.853 160.6 173.061C161.675 169.904 161.452 167.13 159.259 165.071V165.05Z" fill="url(#paint0_linear_2646_3045)"/>
<g style="mix-blend-mode:multiply" opacity="0.25">
<path d="M130.067 131.044C130.067 131.044 127.949 131.684 124.435 131.652C120.922 131.684 118.804 131.055 118.804 131.055C115.504 130.383 111.671 129.081 107.519 126.66C105.667 125.572 103.782 124.377 101.898 123.065V143.898C117.494 146.372 133.261 140.719 147.793 131.396V122.457C145.642 124.004 143.46 125.401 141.32 126.66C137.168 129.081 133.336 130.383 130.046 131.044H130.067Z" fill="#ECB699"/>
</g>
<mask id="mask0_2646_3045" style="mask-type:luminance" maskUnits="userSpaceOnUse" x="165" y="61" width="16" height="31">
<path d="M170.149 61.3138C167.701 61.9965 166.498 63.6392 165.944 64.3859C165.987 64.5886 166.008 64.8019 166.04 65.0153C167.573 74.5409 168.169 83.8211 168.297 91.2667C170.863 92.2587 174.695 91.4907 177.921 83.8105C181.945 74.1995 180.337 62.0392 174.216 61.1431C173.609 61.0578 173.045 61.0151 172.523 61.0151C171.629 61.0151 170.841 61.1325 170.16 61.3245" fill="white"/>
</mask>
<g mask="url(#mask0_2646_3045)">
<path d="M181.945 61.0051H165.944V92.2594H181.945V61.0051Z" fill="url(#paint1_linear_2646_3045)"/>
</g>
<mask id="mask1_2646_3045" style="mask-type:luminance" maskUnits="userSpaceOnUse" x="68" y="60" width="15" height="32">
<path d="M74.7188 61.1006C68.5974 61.9966 66.9898 74.157 71.014 83.7679C74.2291 91.4268 78.051 92.2161 80.6167 91.2241C80.7444 84.0452 81.298 75.1596 82.7139 65.9967C82.7991 65.442 82.8843 64.8874 82.9694 64.3327C82.2987 63.4153 80.6805 61.2393 77.1035 60.9939C76.8693 60.9832 76.6351 60.9619 76.3796 60.9619C75.8579 60.9619 75.3043 61.0046 74.7081 61.0899" fill="white"/>
</mask>
<g mask="url(#mask1_2646_3045)">
<path d="M82.98 60.9727H66.9897V92.2162H82.98V60.9727Z" fill="url(#paint2_linear_2646_3045)"/>
</g>
<mask id="mask2_2646_3045" style="mask-type:luminance" maskUnits="userSpaceOnUse" x="83" y="13" width="83" height="97">
<path d="M117.771 13.8886C116.824 14.0486 115.876 14.2406 114.918 14.4966C98.9598 18.6674 90.262 34.4971 85.6204 51.9376C84.9177 53.815 84.1832 57.9431 84.1832 57.9431C83.736 60.0339 83.3528 62.1353 83.0015 64.2047C84.3748 77.3677 86.5998 97.1656 87.8347 100.526C88.1541 101.411 88.9313 102.339 89.9852 103.278C93.4132 105.561 98.1826 108.483 101.249 109.315C106.486 110.723 107.562 106.755 108.499 103.214C109.435 99.6617 111.852 95.7042 117.899 95.1282C118.399 95.0855 118.878 95.0535 119.347 95.0215C119.453 95.0109 119.538 95.0002 119.634 94.9895C123.009 94.7335 131.068 94.4135 134.656 96.1522C138.126 97.6349 139.734 100.622 140.468 103.352C141.405 106.905 142.481 110.873 147.708 109.454C150.784 108.611 155.554 105.689 158.982 103.416C160.046 102.478 160.813 101.55 161.132 100.664C162.367 97.3149 164.582 77.645 165.955 64.4927V64.4607C165.955 64.4607 165.955 64.4073 165.944 64.3753C165.593 62.2313 165.199 60.0765 164.731 57.9218C164.731 57.9218 164.007 53.8044 163.304 51.9163C159.291 36.8865 152.275 23.0835 140.202 16.8753C140.106 16.822 140.021 16.7686 139.925 16.7153C139.745 16.63 139.564 16.534 139.372 16.4486C135.38 14.4752 131.536 13.7819 129.333 13.5472C127.715 13.3339 126.139 13.2485 124.659 13.2485C121.998 13.2485 119.624 13.5365 117.761 13.8672" fill="white"/>
</mask>
<g mask="url(#mask2_2646_3045)">
<path d="M165.966 13.2698H83.0015V110.883H165.966V13.2698Z" fill="url(#paint3_linear_2646_3045)"/>
</g>
<path d="M82.714 65.9966C81.2981 75.1596 80.7445 84.0452 80.6167 91.224C80.5954 91.7574 80.5954 92.2801 80.5954 92.7921C80.4145 111.385 94.861 122.724 107.551 129.433C111.703 131.631 115.536 132.804 118.825 133.391C118.825 133.391 120.944 133.977 124.457 133.935C127.959 133.967 130.078 133.401 130.078 133.401C133.378 132.793 137.211 131.62 141.363 129.433C154.042 122.734 168.499 111.395 168.318 92.7921C168.318 92.2907 168.308 91.7787 168.297 91.256C168.169 83.8105 167.573 74.5409 166.04 65.0046C166.008 64.8233 165.987 64.6526 165.955 64.4713C164.582 77.6236 162.367 97.3149 161.132 100.664C160.802 101.55 160.036 102.478 158.971 103.416C155.543 105.699 150.774 108.622 147.697 109.454C142.47 110.873 141.384 106.904 140.458 103.363C139.734 100.622 138.116 97.6455 134.645 96.1628C131.047 94.4241 122.998 94.7441 119.613 95.0001C119.517 95.0001 119.432 95.0108 119.325 95.0215C118.857 95.0535 118.378 95.0855 117.878 95.1281C111.841 95.7042 109.425 99.6723 108.477 103.214C107.54 106.755 106.465 110.734 101.227 109.315C98.1613 108.483 93.3919 105.56 89.9639 103.278C88.8993 102.339 88.1328 101.411 87.8134 100.526C86.5785 97.1655 84.3535 77.3676 82.9801 64.2046C82.9801 64.2473 82.9695 64.2899 82.9588 64.3326C82.8737 64.8873 82.7885 65.442 82.7033 65.9966" fill="black"/>
<path d="M182.69 0.82143C181.36 1.25878 178.091 2.14413 170.777 3.90419C153.201 8.14964 138.03 -0.917286 111.724 0.0747424C90.5387 0.874765 85.5457 13.1524 84.3959 17.9206C75.8898 24.4594 74.6016 36.9291 75.1659 46.9881C75.5172 53.2709 76.6031 58.6151 77.1034 60.9938C80.6805 61.2498 82.2987 63.4152 82.9587 64.3326C83.3207 62.1992 83.7146 60.0658 84.1617 57.9431C84.1617 57.9431 84.8857 53.8256 85.5989 51.9482C86.2696 49.4202 87.0361 46.9454 87.8878 44.5133C103.314 37.3985 104.08 28.5876 104.08 28.5876C127.991 44.556 150.295 46.2627 161.494 45.9747C162.144 47.9374 162.75 49.9322 163.293 51.9589C163.996 53.8363 164.72 57.9537 164.72 57.9537C165.178 60.1085 165.572 62.2632 165.933 64.4072C166.487 63.6499 167.69 62.0072 170.139 61.3245C170.65 58.9564 171.959 52.7269 172.225 45.516C172.225 45.2707 172.247 45.0147 172.257 44.7694C191.26 31.6383 183.638 4.00019 182.69 0.82143Z" fill="black"/>
<path d="M111.458 105.08C111.458 105.08 115.088 111.128 123.158 111.128C123.158 111.128 132.164 111.587 136.402 105.443L136.561 105.187C122.53 110.798 111.469 105.08 111.469 105.08" fill="white"/>
<path d="M129.535 90.9681C129.12 90.9681 128.747 90.6907 128.63 90.2747C128.492 89.7734 128.79 89.2614 129.29 89.1334C130.44 88.824 133.123 87.576 133.602 85.8693C133.932 84.6959 132.271 80.8451 130.813 77.453C129.908 75.341 128.971 73.1649 128.226 71.0848C125.979 64.7807 129.152 59.2338 129.29 58.9992C129.556 58.5512 130.121 58.4018 130.568 58.6685C131.015 58.9245 131.164 59.5005 130.908 59.9485C130.876 60.0019 128.045 64.994 129.993 70.4662C130.717 72.4929 131.632 74.6369 132.527 76.717C134.624 81.5811 135.88 84.6532 135.39 86.3813C134.634 89.08 131.079 90.5841 129.769 90.9361C129.684 90.9574 129.61 90.9681 129.524 90.9681" fill="#79463D"/>
<path d="M148.836 70.0181C148.836 71.9275 147.292 73.4849 145.376 73.4849C143.46 73.4849 141.927 71.9275 141.927 70.0181C141.927 68.1087 143.481 66.562 145.376 66.562C147.271 66.562 148.836 68.1194 148.836 70.0181Z" fill="#231F20"/>
<path d="M108.53 70.2315C108.53 72.1409 106.997 73.6983 105.07 73.6983C103.143 73.6983 101.621 72.1409 101.621 70.2315C101.621 68.3221 103.175 66.7754 105.07 66.7754C106.965 66.7754 108.53 68.3328 108.53 70.2315Z" fill="#231F20"/>
</g>
<mask id="mask3_2646_3045" style="mask-type:luminance" maskUnits="userSpaceOnUse" x="190" y="745" width="45" height="29">
<path d="M195.475 745.285C196.446 745.391 197.438 745.496 198.44 745.496C203.873 745.496 209.243 746.309 214.666 746.351C217.145 746.372 219.614 746.351 222.072 746.024C222.779 745.929 223.444 745.728 224.172 745.792C224.066 747.998 226.176 750.995 227.337 752.821C228.645 754.847 231.515 759.713 234.469 759.976L234.627 773.876C231.209 773.676 227.78 773.676 224.341 773.686C220.057 773.697 215.774 773.718 211.533 773.306C206.532 772.821 201.795 771.459 197.195 769.654C193.587 768.251 191.825 767.1 191.287 763.628C190.369 757.581 191.318 751.132 191.783 745.085C192.036 745.063 192.289 745.063 192.542 745.063C193.523 745.063 194.505 745.169 195.475 745.275" fill="white"/>
</mask>
<g mask="url(#mask3_2646_3045)">
<path d="M223.557 725.902L177.9 752.271L201.432 793.045L247.089 766.676L223.557 725.902Z" fill="url(#paint4_linear_2646_3045)"/>
</g>
<mask id="mask4_2646_3045" style="mask-type:luminance" maskUnits="userSpaceOnUse" x="25" y="750" width="44" height="30">
<path d="M25.5952 779.966C25.6585 779.786 25.7113 779.607 25.7746 779.427H25.7324C25.6163 779.607 25.5741 779.776 25.6058 779.966M34.4469 750.541C33.4973 750.573 32.474 750.604 31.5139 750.235C30.6699 753.992 29.3933 757.771 28.3383 761.496C27.3466 765.011 26.3443 768.536 26.1438 772.177C26.0278 774.383 26.397 777.211 25.7746 779.427L66.6779 773.823C66.3719 773.222 66.4246 772.261 66.3191 771.586C66.0026 769.264 65.8971 766.9 65.8971 764.557C65.8971 760.673 66.699 755.934 68.5347 752.367C59.9046 751.871 51.2323 750.456 42.5495 750.362C39.838 750.34 37.1266 750.478 34.4363 750.541" fill="white"/>
</mask>
<g mask="url(#mask4_2646_3045)">
<path d="M57.7966 731.619L12.6975 757.666L36.309 798.577L81.4081 772.53L57.7966 731.619Z" fill="url(#paint5_linear_2646_3045)"/>
</g>
<path d="M215.099 758.647C198.503 758.974 197.501 758.963 188.132 759.048C186.191 759.069 125.506 455.999 125.506 455.999C126.097 454.183 124.715 445.022 125.379 439.524C161.335 530.827 197.796 661.898 215.099 758.636V758.647Z" fill="url(#paint6_linear_2646_3045)"/>
<path d="M124.314 462.088C101.251 538.584 65.6966 764.23 65.6966 766.013C65.6966 766.889 58.9234 766.742 50.6731 766.235C65.8654 680.62 93.5704 541.011 124.314 462.088Z" fill="url(#paint7_linear_2646_3045)"/>
<path d="M33.7717 565.032C42.2647 480.273 57.035 358.416 57.035 358.416C57.035 358.416 105.281 358.88 128.587 358.88C159.182 358.88 199.484 355.682 199.484 355.682C199.484 355.682 207.714 481.497 216.206 566.257C224.583 649.866 233.984 756.388 233.984 757.866C233.984 757.866 222.368 758.446 215.088 759.079C197.786 662.341 124.082 448.589 125.496 456.442C124.451 461.244 125.496 456.442 124.303 462.099C93.5599 541.022 65.8656 680.631 50.6627 766.245C37.7175 765.443 23.6541 759.48 23.6541 759.48C23.6541 759.48 25.2682 649.792 33.7612 565.032H33.7717Z" fill="url(#paint8_linear_2646_3045)"/>
<path style="mix-blend-mode:multiply" opacity="0.27" d="M140.086 376.073L135.233 423.914C135.233 423.914 117.984 422.416 132.554 380.168L140.086 376.073Z" fill="url(#paint9_linear_2646_3045)"/>
<path d="M54.7139 373.519L55.2308 385.381L202.428 386.954L201.183 372.917L54.7139 373.519Z" fill="#707070"/>
<path d="M100.344 373.36H104.669L105.091 385.941H100.249L100.344 373.36Z" fill="url(#paint10_linear_2646_3045)"/>
<path d="M182.393 372.938L181.253 384.052H185.579L186.476 372.864L182.393 372.938Z" fill="url(#paint11_linear_2646_3045)"/>
<path d="M159.953 371.197H144.328L144.475 383.756L160.617 382.996V381.086L147.25 381.371L146.258 373.804L160.575 373.118L159.953 371.197Z" fill="url(#paint12_linear_2646_3045)"/>
<path d="M155.331 376.316L142.333 376.073V377.265L155.331 378.743C155.331 378.743 156.935 377.624 155.331 376.316Z" fill="url(#paint13_linear_2646_3045)"/>
<path d="M236.484 755.871C236.484 755.871 261.71 769.749 272.186 773.296C282.662 776.842 304.607 781.116 309.186 784.81C313.775 788.504 308.859 793.971 302.307 795.881C295.755 797.802 258.26 797.654 243.036 795.438C227.801 793.222 222.726 788.061 222.726 788.061C222.726 788.061 219.129 787.026 216.998 787.47C214.866 787.913 216.502 792.641 214.698 793.96C212.904 795.29 189.156 792.778 186.043 790.71C182.931 788.641 186.043 765.908 188.501 759.997C190.96 754.087 197.174 762.657 214.212 763.1C231.24 763.544 221.26 762.657 236.473 755.86" fill="black"/>
<path d="M18.1151 766.731C18.2312 766.435 18.3261 766.14 18.4738 765.834C22.1348 757.654 33.4763 755.29 48.8269 757.654C57.1616 758.931 60.9069 761.412 62.5949 763.417C63.9876 764.842 65.1692 766.615 65.9077 768.926C68.6508 771.153 73.4195 774.889 75.8777 778.098C79.3593 782.657 84.5922 792.873 73.947 797.285C63.9032 801.443 25.9328 802.52 13.1671 798.393C8.21899 797.464 4.3154 796.325 2.07875 795.079C-5.24312 791.026 8.37724 773.401 18.1257 766.731" fill="black"/>
<path d="M203.884 174.543C211.797 180.622 221.017 180.875 224.721 185.002C228.424 189.118 244.318 247.153 247.99 257C251.661 266.847 264.901 307.437 264.49 323.5C264.078 339.563 265.961 347.45 245.336 355.598C224.721 363.746 208.864 338.416 204.538 308.959C200.212 279.503 196.066 168.538 203.873 174.543H203.884Z" fill="url(#paint14_linear_2646_3045)"/>
<path d="M171.895 168.664L138.63 155.852L82.5664 158.511L168.973 267.514C168.973 267.514 174.565 192.664 171.895 168.664Z" fill="#F7F7F7"/>
<path d="M164.69 159.229C158.349 183.767 130.254 169.414 130.254 169.414L82.324 150.321C82.324 150.321 31.5562 178.606 24.8357 184.126C18.1152 189.646 28.1168 221.53 41.7161 257.54C55.3153 293.54 67.8174 280.727 59.2084 321.92C50.6732 362.753 55.2732 374.711 55.2732 374.711L200.276 373.17C200.276 373.17 203.768 338.563 191.53 303.693C189.261 288.949 218.886 228.748 213.78 209.466C208.674 190.184 211.786 186.68 203.884 174.553L164.7 159.239L164.69 159.229Z" fill="#E1EFFF"/>
<path d="M138.62 155.841L157.231 175.071L153.433 196.116C153.433 196.116 165.513 227.039 171.326 262.553C182.498 330.796 188.301 394.289 188.301 394.838C188.301 395.672 171.621 417.181 171.621 417.181L152.114 396.242C152.114 396.242 162.295 332.115 158.94 262.29C157.262 227.408 148.326 197.287 148.273 197.287C148.105 197.287 123.987 176.823 123.987 176.823L138.631 155.852L138.62 155.841Z" fill="url(#paint15_linear_2646_3045)"/>
<path d="M104.891 245.741C104.891 245.741 97.5374 247.778 99.3099 262.268C101.082 276.759 108.52 279.165 108.52 279.165C108.52 279.165 118.258 272.084 115.483 260.084C112.709 248.084 104.902 245.751 104.902 245.751L104.891 245.741Z" fill="#ADADAD"/>
<path d="M105.07 247.208C105.07 247.208 100.175 246.669 98.0966 246.564C96.0182 246.458 84.2969 251.894 84.2969 251.894C84.2969 251.894 84.8138 280.231 100.586 283.461C102 281.857 103.773 279.155 104.923 277.16C107.223 276.959 108.109 276.411 108.109 276.411C108.109 276.411 114.671 256.896 105.081 247.197L105.07 247.208Z" fill="url(#paint16_linear_2646_3045)"/>
<path d="M45.9898 171C36.6845 177.691 21.4898 179.5 19.8031 196.485C18.1362 202.406 17.4974 293.826 49.9898 352.5C80.1107 367.328 105.186 346.543 107.55 330.511C111.611 302.986 93.676 277.508 85.6578 257.139C72.797 224.474 45.9898 171 45.9898 171Z" fill="url(#paint17_linear_2646_3045)"/>
<path d="M224.72 289.741C224.72 289.741 224.71 268.917 208.325 264.928C190.49 271 125.477 290.652 112.49 295C91.8746 301.902 58.4382 301.24 50.9897 322C41.2941 349.039 52.0658 360.949 65.9393 362.469C80.7308 364.094 120.21 362.68 161.894 346.827C203.578 330.975 224.71 289.741 224.71 289.741H224.72Z" fill="#DAE8FA"/>
<path d="M210.14 268.073C210.003 267.661 217.251 251.936 217.799 250.975C218.348 250.015 226.778 242.574 226.778 242.574L242.614 240.442C242.614 240.442 244.397 242.69 243.996 245.909C243.932 246.416 231.103 249.498 231.082 250.036C240.05 249.952 249.513 250.975 249.513 250.975C249.513 250.975 252.847 255.197 252.436 258.205C253.776 260.949 253.544 264.284 252.436 267.134L249.767 266.88C249.767 266.88 250.284 270.69 247.825 273.477C243.046 272.263 237.634 271.461 237.634 271.461C237.634 271.461 230.987 274.025 229.32 274.553C227.738 275.524 227.295 285.287 223.518 286.912C216.396 286.247 210.129 268.062 210.129 268.062L210.14 268.073Z" fill="url(#paint18_linear_2646_3045)"/>
<path d="M243.49 297.5C202.871 271.516 154.994 246.553 104.891 245.73C110.293 248.062 117.372 261.329 108.51 279.155C162.696 310.986 186.993 359.566 236.959 357.139C277.208 355.186 267.376 312.793 243.49 297.5Z" fill="url(#paint19_linear_2646_3045)"/>
<path d="M106.917 247.007L101.979 246.553C101.979 246.553 106.315 250.754 106.674 261.276C106.959 269.783 104.912 277.149 104.912 277.149L108.942 278.258C108.942 278.258 112.487 271.44 112.856 263.113C113.331 252.558 106.906 246.996 106.906 246.996L106.917 247.007Z" fill="#C2D8F0"/>
<path d="M138.62 155.841L158.919 176.812L172.613 165.16L151.312 143.313L138.62 155.841Z" fill="#CFDDF1"/>
<path d="M138.62 155.841C138.62 155.841 129.441 170.828 123.976 179.43C87.2508 162.395 76.8694 151.894 76.8694 151.894L99.0354 135.567C99.0354 135.567 108.235 146.733 138.62 155.841Z" fill="#CFDDF1"/>
<path d="M95.1213 357.951L99.0038 355.682C100.217 357.751 100.871 358.954 102.169 361.402L97.3158 361.93C96.0497 359.534 96.2924 359.967 95.1108 357.951H95.1213ZM86.9238 345.497L90.5214 342.796C92.0196 344.79 93.5071 346.922 94.9525 349.128L91.1966 351.598C89.804 349.466 88.3586 347.418 86.9238 345.497ZM77.1754 334.363L80.2982 331.123C82.1129 332.875 83.917 334.774 85.6578 336.759L82.2711 339.714C80.6147 337.814 78.9056 336.02 77.1859 334.352L77.1754 334.363ZM65.644 325.329L67.9967 321.497C70.17 322.838 72.3328 324.347 74.4218 325.983L71.6365 329.519C69.6847 327.978 67.6696 326.574 65.644 325.329ZM52.4034 319.408L53.6589 315.091C56.1593 315.819 58.6386 316.738 61.0546 317.814L59.2083 321.92C56.9822 320.917 54.6928 320.073 52.4034 319.408ZM38.0762 317.36L38.0973 312.864C40.7454 312.864 43.3829 313.065 45.9572 313.434L45.3242 317.888C42.9609 317.55 40.5238 317.381 38.0867 317.371L38.0762 317.36Z" fill="#C2D8F0"/>
<path d="M225.48 352.168L229.974 351.915C230.101 354.226 230.164 354.754 230.555 357.234L225.997 356.843C225.575 354.215 225.628 354.637 225.48 352.168ZM225.522 344.389C225.712 341.698 226.113 339.091 226.693 336.632L231.072 337.677C230.544 339.893 230.185 342.258 230.017 344.717L225.533 344.389H225.522ZM229.236 329.149C230.333 326.722 231.694 324.421 233.266 322.3L236.874 324.981C235.492 326.849 234.3 328.875 233.329 331.007L229.236 329.149ZM238.636 316.453C240.546 314.754 242.687 313.192 244.998 311.788L247.33 315.64C245.251 316.896 243.331 318.3 241.622 319.82L238.636 316.453ZM251.982 308.263C254.293 307.303 256.761 306.448 259.325 305.73L260.549 310.057C258.154 310.733 255.865 311.524 253.723 312.421L251.993 308.263H251.982Z" fill="#C2D8F0"/>
<defs>
<linearGradient id="paint0_linear_2646_3045" x1="123.933" y1="125.646" x2="123.933" y2="225.667" gradientUnits="userSpaceOnUse">
<stop stop-color="#8F452F"/>
<stop offset="1" stop-color="#A35D38"/>
</linearGradient>
<linearGradient id="paint1_linear_2646_3045" x1="173.945" y1="61.0051" x2="173.945" y2="92.2594" gradientUnits="userSpaceOnUse">
<stop stop-color="#8F452F"/>
<stop offset="1" stop-color="#A35D38"/>
</linearGradient>
<linearGradient id="paint2_linear_2646_3045" x1="74.9849" y1="60.9727" x2="74.9849" y2="92.2162" gradientUnits="userSpaceOnUse">
<stop stop-color="#8F452F"/>
<stop offset="1" stop-color="#A35D38"/>
</linearGradient>
<linearGradient id="paint3_linear_2646_3045" x1="124.484" y1="13.2698" x2="124.484" y2="110.883" gradientUnits="userSpaceOnUse">
<stop stop-color="#8F452F"/>
<stop offset="1" stop-color="#A35D38"/>
</linearGradient>
<linearGradient id="paint4_linear_2646_3045" x1="200.718" y1="742.421" x2="223.884" y2="782.531" gradientUnits="userSpaceOnUse">
<stop stop-color="#5E5B55"/>
<stop offset="0.23" stop-color="#6C6A66"/>
<stop offset="0.69" stop-color="#939493"/>
<stop offset="0.92" stop-color="#A9ABAC"/>
<stop offset="1" stop-color="#A9ABAC"/>
</linearGradient>
<linearGradient id="paint5_linear_2646_3045" x1="37.0314" y1="744.648" x2="56.0383" y2="777.557" gradientUnits="userSpaceOnUse">
<stop stop-color="#5E5B55"/>
<stop offset="0.23" stop-color="#6C6A66"/>
<stop offset="0.69" stop-color="#939493"/>
<stop offset="0.92" stop-color="#A9ABAC"/>
<stop offset="1" stop-color="#A9ABAC"/>
</linearGradient>
<linearGradient id="paint6_linear_2646_3045" x1="125.19" y1="599.291" x2="215.099" y2="599.291" gradientUnits="userSpaceOnUse">
<stop stop-color="#3D3D3D"/>
<stop offset="1" stop-color="#262626"/>
</linearGradient>
<linearGradient id="paint7_linear_2646_3045" x1="50.6731" y1="614.362" x2="124.314" y2="614.362" gradientUnits="userSpaceOnUse">
<stop stop-color="#3D3D3D"/>
<stop offset="1" stop-color="#262626"/>
</linearGradient>
<linearGradient id="paint8_linear_2646_3045" x1="23.6646" y1="560.958" x2="233.994" y2="560.958" gradientUnits="userSpaceOnUse">
<stop stop-color="#454545"/>
<stop offset="1" stop-color="#2E2E2E"/>
</linearGradient>
<linearGradient id="paint9_linear_2646_3045" x1="126.698" y1="399.988" x2="140.086" y2="399.988" gradientUnits="userSpaceOnUse">
<stop stop-color="#3D3D3D"/>
<stop offset="1" stop-color="#262626"/>
</linearGradient>
<linearGradient id="paint10_linear_2646_3045" x1="100.249" y1="379.651" x2="105.091" y2="379.651" gradientUnits="userSpaceOnUse">
<stop stop-color="#3D3D3D"/>
<stop offset="1" stop-color="#262626"/>
</linearGradient>
<linearGradient id="paint11_linear_2646_3045" x1="181.253" y1="378.458" x2="186.476" y2="378.458" gradientUnits="userSpaceOnUse">
<stop stop-color="#3D3D3D"/>
<stop offset="1" stop-color="#262626"/>
</linearGradient>
<linearGradient id="paint12_linear_2646_3045" x1="144.328" y1="377.476" x2="160.617" y2="377.476" gradientUnits="userSpaceOnUse">
<stop stop-color="#3D3D3D"/>
<stop offset="1" stop-color="#262626"/>
</linearGradient>
<linearGradient id="paint13_linear_2646_3045" x1="142.333" y1="377.403" x2="156.049" y2="377.403" gradientUnits="userSpaceOnUse">
<stop stop-color="#3D3D3D"/>
<stop offset="1" stop-color="#262626"/>
</linearGradient>
<linearGradient id="paint14_linear_2646_3045" x1="236.506" y1="174.308" x2="221.99" y2="301" gradientUnits="userSpaceOnUse">
<stop stop-color="#E1EFFF"/>
<stop offset="1" stop-color="#CFDDF1"/>
</linearGradient>
<linearGradient id="paint15_linear_2646_3045" x1="122.109" y1="161.857" x2="139.983" y2="229.769" gradientUnits="userSpaceOnUse">
<stop stop-color="#C1210D"/>
<stop offset="0.52" stop-color="#C1210D"/>
<stop offset="1" stop-color="#9D1D06"/>
</linearGradient>
<linearGradient id="paint16_linear_2646_3045" x1="97.2982" y1="238.458" x2="97.2982" y2="283.461" gradientUnits="userSpaceOnUse">
<stop stop-color="#FFAE9E"/>
<stop offset="1" stop-color="#FCD7CB"/>
</linearGradient>
<linearGradient id="paint17_linear_2646_3045" x1="90.9898" y1="223" x2="53.9898" y2="342" gradientUnits="userSpaceOnUse">
<stop stop-color="#DAE8FA"/>
<stop offset="1" stop-color="#DAE8FA"/>
</linearGradient>
<linearGradient id="paint18_linear_2646_3045" x1="231.743" y1="230.237" x2="231.743" y2="286.912" gradientUnits="userSpaceOnUse">
<stop stop-color="#FFAE9E"/>
<stop offset="1" stop-color="#FCD7CB"/>
</linearGradient>
<linearGradient id="paint19_linear_2646_3045" x1="236.99" y1="288.5" x2="202.49" y2="342.5" gradientUnits="userSpaceOnUse">
<stop stop-color="#E1EFFF"/>
<stop offset="1" stop-color="#CFDDF1"/>
</linearGradient>
<clipPath id="clip0_2646_3045">
<rect width="118" height="225.649" fill="white" transform="translate(66.9897)"/>
</clipPath>
</defs>
</svg>
