<svg width="250" height="770" viewBox="0 0 250 770" fill="none" xmlns="http://www.w3.org/2000/svg">
<path d="M201.544 156.94C191.504 139.19 188.144 66.09 188.324 58.78C188.354 58.19 188.374 57.6 188.394 57.01C188.444 56 188.504 55.44 188.504 55.44H188.424C188.434 24.83 164.234 0 134.374 0C104.514 0 80.3042 24.83 80.3042 55.45C80.3042 57 80.3842 58.54 80.5042 60.06C80.5642 68.05 76.7742 140.15 67.2642 156.95C55.4442 177.83 54.1842 199.89 77.6542 208.77C77.6542 208.77 77.7742 208.81 77.9442 208.87C80.1542 209.69 82.5542 210.4 85.2042 210.98C85.8242 211.11 86.4242 211.21 87.0342 211.33C102.864 215.06 142.044 220.63 179.184 211.79C180.644 211.56 182.124 211.31 183.624 210.98C187.784 210.07 191.354 208.85 194.444 207.37C194.464 207.37 194.494 207.35 194.514 207.35H194.504C214.474 197.68 212.774 176.8 201.554 156.96L201.544 156.94Z" fill="black"/>
<path d="M163.345 16.26C163.345 16.26 145.965 40.21 182.455 64.17C182.455 64.17 183.105 24.39 163.345 16.26Z" fill="black"/>
<mask id="mask0_2646_3078" style="mask-type:luminance" maskUnits="userSpaceOnUse" x="167" y="67" width="17" height="30">
<path d="M169.785 71.8801C164.975 77.5601 168.175 91.2701 168.725 92.9701C169.535 95.4601 172.335 98.5201 177.015 93.9701C182.055 89.0501 187.185 71.5701 179.945 68.4501C178.935 68.0101 177.975 67.8301 177.065 67.8301C172.825 67.8301 169.875 71.7601 169.775 71.8801" fill="white"/>
</mask>
<g mask="url(#mask0_2646_3078)">
<path d="M187.194 67.8401H164.984V98.5301H187.194V67.8401Z" fill="url(#paint0_linear_2646_3078)"/>
</g>
<mask id="mask1_2646_3078" style="mask-type:luminance" maskUnits="userSpaceOnUse" x="80" y="67" width="17" height="30">
<path d="M84.1641 68.2499C76.9241 71.3699 82.0441 88.8499 87.0941 93.7699C91.7741 98.3199 94.5841 95.2699 95.3941 92.7799C95.9441 91.0799 99.1441 77.3699 94.3341 71.6899C94.2341 71.5699 91.2841 67.6399 87.0441 67.6399C86.1341 67.6399 85.1741 67.8199 84.1641 68.2599" fill="white"/>
</mask>
<g mask="url(#mask1_2646_3078)">
<path d="M99.1338 67.6399H76.9238V98.3299H99.1338V67.6399Z" fill="url(#paint1_linear_2646_3078)"/>
</g>
<mask id="mask2_2646_3078" style="mask-type:luminance" maskUnits="userSpaceOnUse" x="93" y="17" width="81" height="117">
<path d="M133.054 17.56C133.054 17.56 132.964 17.56 132.914 17.56C98.4845 17.77 95.7845 55.66 95.7845 55.66C95.7845 55.66 90.7645 95.6 94.3445 105.34C96.8845 112.25 105.124 120.05 113.094 125.49C116.364 127.72 119.594 129.57 122.364 130.78C126.734 132.7 130.064 133.43 132.614 133.56C132.704 133.56 132.804 133.56 132.894 133.56C132.924 133.56 132.954 133.56 132.974 133.56H133.044C133.044 133.56 133.094 133.56 133.114 133.56C133.114 133.56 133.164 133.56 133.184 133.56C133.284 133.56 133.384 133.56 133.474 133.56C136.024 133.43 139.344 132.69 143.724 130.78C145.954 129.8 148.484 128.41 151.084 126.75C159.614 121.3 169.004 112.8 171.754 105.33C175.334 95.59 170.304 55.6501 170.304 55.6501C170.304 55.6501 167.604 17.76 133.174 17.55C133.124 17.55 133.074 17.55 133.034 17.55" fill="white"/>
</mask>
<g mask="url(#mask2_2646_3078)">
<path d="M175.355 17.5601H90.7646V133.59H175.355V17.5601Z" fill="url(#paint2_linear_2646_3078)"/>
</g>
<mask id="mask3_2646_3078" style="mask-type:luminance" maskUnits="userSpaceOnUse" x="92" y="125" width="80" height="62">
<path d="M111.814 150.88C110.014 156.45 103.254 159.82 92.374 164.56C92.404 166.65 93.494 184.16 122.964 186.62H133.974C169.424 186.62 171.634 167.67 171.764 164.52C160.944 159.8 154.224 156.43 152.434 150.88C150.924 146.22 150.964 133.78 151.114 126.77C148.504 128.43 145.984 129.82 143.754 130.8C139.374 132.72 136.054 133.45 133.504 133.58C133.414 133.58 133.314 133.58 133.214 133.58C133.194 133.58 133.164 133.58 133.144 133.58H133.074C133.074 133.58 133.024 133.58 133.004 133.58C133.004 133.58 132.954 133.58 132.924 133.58C132.834 133.58 132.734 133.58 132.644 133.58C130.084 133.45 126.764 132.71 122.394 130.8C119.624 129.59 116.394 127.74 113.124 125.51C113.294 132.18 113.434 145.94 111.834 150.89" fill="white"/>
</mask>
<g mask="url(#mask3_2646_3078)">
<path d="M171.764 125.5H92.374V186.61H171.764V125.5Z" fill="url(#paint3_linear_2646_3078)"/>
</g>
<g style="mix-blend-mode:multiply" opacity="0.2">
<mask id="mask4_2646_3078" style="mask-type:luminance" maskUnits="userSpaceOnUse" x="112" y="125" width="40" height="23">
<path d="M151.104 125.53H112.544V147.2H151.104V125.53Z" fill="white"/>
</mask>
<g mask="url(#mask4_2646_3078)">
<mask id="mask5_2646_3078" style="mask-type:luminance" maskUnits="userSpaceOnUse" x="112" y="125" width="40" height="23">
<path d="M151.104 125.53H112.544V147.2H151.104V125.53Z" fill="white"/>
</mask>
<g mask="url(#mask5_2646_3078)">
<path d="M151.104 126.79C148.504 128.45 145.974 129.84 143.744 130.82C139.374 132.73 136.044 133.47 133.494 133.6C133.404 133.6 133.304 133.6 133.204 133.61H133.124H133.054H132.974H132.894C132.794 133.61 132.704 133.61 132.604 133.6C130.054 133.47 126.724 132.73 122.354 130.82C119.584 129.61 116.354 127.76 113.084 125.53C113.224 130.92 113.334 140.95 112.524 147.2C125.764 144.81 139.054 140.41 151.024 133.73C151.024 131.18 151.044 128.76 151.084 126.78" fill="url(#paint4_linear_2646_3078)"/>
</g>
</g>
</g>
<path d="M136.864 99.49C136.634 99.49 136.404 99.48 136.174 99.45C135.704 99.4 135.364 98.97 135.414 98.5C135.464 98.03 135.874 97.69 136.354 97.75C137.734 97.9 138.884 97.45 139.604 96.47C140.914 94.7 140.714 91.47 139.044 87.62C133.934 75.81 138.644 69.63 138.844 69.37C139.134 69 139.674 68.94 140.044 69.23C140.414 69.52 140.474 70.06 140.184 70.43C140.004 70.66 135.934 76.13 140.604 86.94C143.224 93 141.954 96.14 140.964 97.48C140.014 98.77 138.534 99.48 136.844 99.48" fill="#A4675C"/>
<path d="M157.444 77.1999C157.444 79.1699 155.844 80.7799 153.864 80.7799C151.884 80.7799 150.294 79.1699 150.294 77.1999C150.294 75.2299 151.894 73.6299 153.864 73.6299C155.834 73.6299 157.444 75.2399 157.444 77.1999Z" fill="#231F20"/>
<path d="M115.714 77.4101C115.714 79.3801 114.124 80.9901 112.134 80.9901C110.144 80.9901 108.564 79.3801 108.564 77.4101C108.564 75.4401 110.174 73.8401 112.134 73.8401C114.094 73.8401 115.714 75.4501 115.714 77.4101Z" fill="#231F20"/>
<path d="M109.254 98.31C97.5041 98.31 87.9541 88.75 87.9541 77.01C87.9541 65.27 97.5141 55.71 109.254 55.71C120.994 55.71 130.554 65.27 130.554 77.01C130.554 88.75 120.994 98.31 109.254 98.31ZM109.254 57.74C98.6241 57.74 89.9841 66.38 89.9841 77.01C89.9841 87.64 98.6241 96.28 109.254 96.28C119.884 96.28 128.524 87.64 128.524 77.01C128.524 66.38 119.884 57.74 109.254 57.74Z" fill="#FFFFF9"/>
<path opacity="0.15" d="M115.048 96.455C125.787 93.2574 131.902 81.9587 128.704 71.2188C125.506 60.4788 114.208 54.3646 103.468 57.5622C92.7279 60.7599 86.6137 72.0585 89.8113 82.7984C93.0089 93.5384 104.308 99.6526 115.048 96.455Z" fill="#FFFFF9"/>
<path opacity="0.15" d="M178.464 80.4045C180.338 69.3565 172.902 58.8807 161.854 57.0062C150.806 55.1316 140.33 62.5681 138.456 73.616C136.581 84.664 144.018 95.1398 155.066 97.0143C166.114 98.8889 176.589 91.4524 178.464 80.4045Z" fill="#FFFFF9"/>
<path d="M158.454 98.31C146.704 98.31 137.154 88.75 137.154 77.01C137.154 65.27 146.714 55.71 158.454 55.71C170.194 55.71 179.754 65.27 179.754 77.01C179.754 88.75 170.194 98.31 158.454 98.31ZM158.454 57.74C147.834 57.74 139.184 66.38 139.184 77.01C139.184 87.64 147.824 96.28 158.454 96.28C169.084 96.28 177.724 87.64 177.724 77.01C177.724 66.38 169.084 57.74 158.454 57.74Z" fill="#FFFFF9"/>
<path d="M129.324 82.4799L128.214 80.7699C128.444 80.6199 133.794 77.1999 139.254 80.7699L138.144 82.4699C133.824 79.6399 129.514 82.3499 129.334 82.4699L129.324 82.4799Z" fill="#FFFFF9"/>
<path d="M117 105C117 105 122.068 112.648 133.311 112.648C133.311 112.648 145.872 113.234 151.779 105.461L152 105.142C132.427 112.229 117 105 117 105Z" fill="white"/>
<path d="M85.9945 56.11C85.9945 56.11 157.834 55.74 169.344 20.18C169.344 20.18 151.504 -3.75004 118.514 6.07996C85.5345 15.91 85.9945 56.11 85.9945 56.11Z" fill="black"/>
<path d="M109.264 98.0099C97.5139 98.0099 87.9639 88.4499 87.9639 76.7099C87.9639 64.9699 97.5239 55.4099 109.264 55.4099C121.004 55.4099 130.564 64.9699 130.564 76.7099C130.564 88.4499 121.004 98.0099 109.264 98.0099ZM109.264 57.4399C98.6339 57.4399 89.9939 66.0799 89.9939 76.7099C89.9939 87.3399 98.6339 95.9799 109.264 95.9799C119.894 95.9799 128.534 87.3399 128.534 76.7099C128.534 66.0799 119.894 57.4399 109.264 57.4399Z" fill="#FFFFF9"/>
<path opacity="0.15" d="M115.055 96.1557C125.795 92.958 131.91 81.6594 128.712 70.9195C125.514 60.1795 114.216 54.0653 103.476 57.2629C92.7357 60.4605 86.6215 71.7592 89.8191 82.4991C93.0168 93.2391 104.315 99.3533 115.055 96.1557Z" fill="#FFFFF9"/>
<path opacity="0.15" d="M178.471 80.1139C180.345 69.066 172.909 58.5902 161.861 56.7156C150.813 54.8411 140.337 62.2776 138.463 73.3255C136.588 84.3735 144.024 94.8492 155.072 96.7238C166.12 98.5984 176.596 91.1619 178.471 80.1139Z" fill="#FFFFF9"/>
<path d="M158.454 98.0099C146.704 98.0099 137.154 88.4499 137.154 76.7099C137.154 64.9699 146.714 55.4099 158.454 55.4099C170.194 55.4099 179.754 64.9699 179.754 76.7099C179.754 88.4499 170.194 98.0099 158.454 98.0099ZM158.454 57.4399C147.834 57.4399 139.184 66.0799 139.184 76.7099C139.184 87.3399 147.824 95.9799 158.454 95.9799C169.084 95.9799 177.724 87.3399 177.724 76.7099C177.724 66.0799 169.084 57.4399 158.454 57.4399Z" fill="#FFFFF9"/>
<path d="M129.334 82.1799L128.224 80.4699C128.454 80.3199 133.804 76.8999 139.264 80.4699L138.154 82.1699C133.834 79.3399 129.524 82.0499 129.344 82.1699L129.334 82.1799Z" fill="#FFFFF9"/>
<path d="M213.159 172.12C201.659 166.73 157.589 148.56 157.589 148.56L132.169 166.87L105.299 149.32L41.709 177.1C41.709 177.1 60.429 208.08 66.489 236.09C77.829 288.51 78.789 276.2 78.059 316.26C117.229 344.1 188.149 320.04 186.829 318.6C177.009 257.58 182.459 263.82 213.159 172.11V172.12Z" fill="#E1EFFF"/>
<path d="M130.649 154.74L132.129 166.72L135.679 154.58L138.069 163.22L132.049 167.51L125.709 163.55L130.649 154.74Z" fill="#E6E6E6"/>
<path d="M130.65 154.74C130.65 154.74 125.95 170.97 117.96 168.42C109.97 165.87 101.26 154.59 101.26 154.59L110.3 140.49L130.65 154.74Z" fill="white"/>
<path d="M135.679 154.58C135.679 154.58 135.269 168.99 145.319 169.56C155.369 170.14 163.999 152.33 163.999 152.33L152.809 139L135.669 154.58H135.679Z" fill="white"/>
<path d="M133.12 372.45C133.73 372.43 134.49 372.33 135.33 372.2C136.12 326.68 140.78 287.54 138.39 266.71C135.94 245.33 138.36 192.52 134.22 164.95L131.06 166.73L130.81 166.57C134.98 194.4 132.38 246.07 134.8 267.12C137.14 287.5 132.48 326.98 131.7 372.4C132.2 372.45 132.68 372.47 133.12 372.45Z" fill="#B6C7DD"/>
<path d="M42.6993 176.42C42.6993 176.42 25.8593 190.29 4.06935 262.47C3.52935 276.71 6.12935 289.1 12.3493 301.18C19.5393 315.16 48.3593 329.42 51.3493 295.64C52.5493 282.05 43.9893 279.26 48.0793 268.77C58.1593 242.9 68.1093 237.78 67.4393 228.61C65.4193 200.91 62.1093 175.87 42.7093 176.41L42.6993 176.42Z" fill="#E1EFFF"/>
<path d="M51.6697 289.14C55.0797 304.38 44.3197 311.84 33.5297 314.26C22.7397 316.68 12.1297 308.83 10.5397 298.09C8.94974 287.35 17.6097 278.83 28.0097 275.71C46.0397 270.31 51.6597 289.14 51.6597 289.14H51.6697Z" fill="#CFDDF1"/>
<path d="M93.5791 579.06C93.5791 579.06 111.829 658.46 112.279 665.51C112.729 672.56 112.529 678.97 113.829 683.24C115.129 687.51 115.989 692.64 115.779 693.7C115.569 694.76 112.559 722.99 112.659 723.84C114.919 741.75 127.859 738.42 130.399 733.5C132.939 728.58 136.669 679.54 136.669 679.54L132.859 639.86L132.949 578.75L93.5791 579.06Z" fill="url(#paint5_linear_2646_3078)"/>
<path d="M112.469 723.84C112.469 723.84 110.119 733.67 110.549 735.59C110.979 737.51 120.809 748.41 122.519 749.05C124.229 749.69 134.489 737.08 134.699 735.59C134.909 734.1 132.559 722.98 132.559 722.98C132.559 722.98 125.719 743.28 112.479 723.83L112.469 723.84Z" fill="#342825"/>
<path d="M136.86 578.81C136.86 578.81 135.98 639.87 135.55 645.86C135.12 651.84 134.27 675.99 133.41 679.41C132.55 682.83 127.64 693.94 127.43 702.06C127.22 710.18 122.09 745.01 122.09 745.01C122.09 745.01 122.32 759.82 153.93 749.28C154.57 749.07 155.64 716.8 154.57 715.09C153.5 713.38 156.92 706.12 156.92 705.05C156.92 703.98 157.56 681.12 157.56 678.77C157.56 676.42 178.29 587.53 179.14 577.92L136.86 578.82V578.81Z" fill="url(#paint6_linear_2646_3078)"/>
<path d="M122.44 742.39C122.44 742.39 117.24 749.13 116.88 751.46C116.45 754.2 119.58 768.64 127.47 769.78C133.94 770.72 152.79 761.51 153.43 759.38C154.07 757.25 154.3 750.2 154.47 745.59C154.54 743.68 154.4 744.03 154.4 744.03C154.4 744.03 136.76 753.5 122.44 742.39Z" fill="#342825"/>
<path d="M243.979 575.05C243.559 582.98 216.849 579.23 207.659 579.65C198.479 580.07 202.449 584.86 197.639 588.21C192.839 591.55 178.219 585.71 173.009 590.29C168.589 594.19 164.759 596.57 154.809 596.2C153.019 596.13 151.019 595.97 148.789 595.72C136.439 594.31 117.969 592.15 104.109 592.53C101.569 592.59 99.1993 592.75 97.0293 593.01C83.0393 594.68 68.4293 590.29 68.4293 590.29L68.2193 571.3C68.2193 571.3 20.8293 582.36 18.1193 563.58C15.4093 544.79 39.4093 464.89 41.4993 446.31C43.5793 427.73 55.8993 379.72 58.8193 364.9C59.6393 360.77 61.4593 355.27 63.6893 349.45C69.4193 334.39 76.8493 317.2 77.2993 314.94C77.9293 311.81 78.1293 298.42 78.1293 298.42C94.2093 296.75 134.809 299.78 143.569 299.37C152.339 298.95 183.789 297.32 183.789 297.32L186.819 318.53C186.819 318.53 191.159 324 191.779 325.89C192.409 327.77 203.679 360.53 207.429 374.73C211.189 388.92 225.389 454.05 229.349 493.5C233.319 532.95 244.379 567.14 243.959 575.07L243.979 575.05Z" fill="#C1210D"/>
<path d="M154.81 596.19C153.02 596.12 151.02 595.96 148.79 595.71C136.44 594.3 117.97 592.14 104.11 592.52L103.95 591.29C103.95 591.29 103.67 431.95 104.24 418.29C104.81 404.62 104.24 330.32 111.07 352.81C117.9 375.31 126.72 445.9 132.99 423.41C139.26 400.92 141.25 387.26 141.25 387.26C141.25 387.26 152.06 407.18 152.06 441.92C152.06 472.77 154.31 557.27 154.81 596.2V596.19Z" fill="url(#paint7_linear_2646_3078)"/>
<path d="M68.2291 571.3C68.2291 571.3 20.8391 582.36 18.1291 563.58C15.4191 544.79 39.4191 464.89 41.5091 446.31C43.5891 427.73 55.9091 379.72 58.8291 364.9C59.6491 360.77 61.4691 355.27 63.6991 349.45C65.8991 349.45 67.5591 350.6 68.0891 351.39C69.2291 353.1 68.2291 571.3 68.2291 571.3Z" fill="url(#paint8_linear_2646_3078)"/>
<path d="M26.4091 282.43C34.6591 277.8 46.9391 281.37 49.4991 294.8C52.0591 308.23 50.5491 321.38 56.4291 327.62C62.1991 326.55 71.5791 324.64 71.5791 324.64L80.5091 326.89C80.5091 326.89 78.3091 330.62 72.1391 330.21C65.9691 329.8 66.1891 333.07 70.1591 336.16L71.7091 337.02L62.6191 360.83C62.6191 360.83 48.9591 350.72 46.1791 347.16C43.3991 343.61 42.1391 339.5 38.1891 331.82C34.2491 324.14 0.209084 297.15 26.4091 282.43Z" fill="url(#paint9_linear_2646_3078)"/>
<path style="mix-blend-mode:multiply" d="M87.0391 256.86C87.0391 256.86 138.249 246.84 173.309 253.24C171.079 274.39 122.379 298.6 87.0391 256.86Z" fill="url(#paint10_radial_2646_3078)"/>
<path d="M152.739 217.12H176.799C176.799 217.12 174.629 242.28 164.759 239.93C154.889 237.58 152.739 217.12 152.739 217.12Z" fill="#CFDDF1"/>
<path d="M72.0196 334.17L61.6396 364.19L76.5396 335.37L72.0196 334.17Z" fill="#AD1409"/>
<path d="M227.159 433.46C227.159 433.46 206.179 447.13 205.549 443.39C205.189 441.22 211.279 435.61 215.949 431.37C218.939 426.85 217.769 420.82 217.769 420.82C217.769 420.82 209.599 433.5 208.449 430.52C207.429 427.87 210.159 420.61 215.899 413.59C217.419 411.74 217.679 411.58 218.809 409.08C219.879 406.72 220.149 405.21 220.149 405.21C220.149 405.21 220.369 404.18 220.399 403.63C221.059 363.28 215.479 351.08 214.719 339.03C213.749 323.64 212.189 309.37 214.719 305.27C214.719 305.27 237.789 310.21 241.679 320.9C245.259 330.72 235.119 390.81 232.209 406.99C232.299 407.5 232.319 408.09 232.299 408.76C232.409 419.3 227.159 433.47 227.159 433.47V433.46Z" fill="url(#paint11_linear_2646_3078)"/>
<path d="M212.819 172.16C212.819 172.16 233.379 177.72 245.599 269.96C248.189 296.57 248.159 294.4 245.599 330.07C245.219 335.39 210.489 328.75 210.659 323.08C211.699 287.89 211.919 282.86 210.519 278.04C195.149 225.22 181.529 214.56 212.819 172.16Z" fill="#E1EFFF"/>
<path d="M208.569 311.97L209.569 329.69L245.209 341.91L249.139 320.02L208.569 311.97Z" fill="#CFDDF1"/>
<path d="M235.099 403.41C234.539 406.49 232.769 408.74 231.159 408.44C229.549 408.14 228.679 405.41 229.239 402.34C229.799 399.27 231.569 397.01 233.189 397.31C234.809 397.61 235.669 400.34 235.109 403.41H235.099Z" fill="#303030"/>
<path d="M235.099 403.41C234.589 406.21 233.209 408.3 232.009 408.08C230.809 407.86 230.259 405.42 230.769 402.62C231.279 399.82 232.659 397.73 233.859 397.95C235.059 398.17 235.609 400.61 235.099 403.41Z" fill="#454545"/>
<path d="M230.389 399.95L220.419 399.18V402.46L229.509 403.85L230.389 399.95Z" fill="#EDEDED"/>
<path d="M232.909 406.15L232.359 402.73L233.489 400.72L233.819 400.91L232.759 402.8L233.289 406.09L232.909 406.15Z" fill="#7D7D7D"/>
<defs>
<linearGradient id="paint0_linear_2646_3078" x1="176.089" y1="67.8401" x2="176.089" y2="98.5301" gradientUnits="userSpaceOnUse">
<stop stop-color="#B66951"/>
<stop offset="1" stop-color="#CE8864"/>
</linearGradient>
<linearGradient id="paint1_linear_2646_3078" x1="88.0288" y1="67.6399" x2="88.0288" y2="98.3299" gradientUnits="userSpaceOnUse">
<stop stop-color="#B66951"/>
<stop offset="1" stop-color="#CE8864"/>
</linearGradient>
<linearGradient id="paint2_linear_2646_3078" x1="133.06" y1="17.5601" x2="133.06" y2="133.59" gradientUnits="userSpaceOnUse">
<stop stop-color="#B66951"/>
<stop offset="1" stop-color="#CE8864"/>
</linearGradient>
<linearGradient id="paint3_linear_2646_3078" x1="132.069" y1="125.5" x2="132.069" y2="186.61" gradientUnits="userSpaceOnUse">
<stop stop-color="#B66951"/>
<stop offset="1" stop-color="#CE8864"/>
</linearGradient>
<linearGradient id="paint4_linear_2646_3078" x1="131.814" y1="125.53" x2="131.814" y2="147.2" gradientUnits="userSpaceOnUse">
<stop stop-color="#B66951"/>
<stop offset="1" stop-color="#CE8864"/>
</linearGradient>
<linearGradient id="paint5_linear_2646_3078" x1="115.124" y1="578.75" x2="115.124" y2="737.403" gradientUnits="userSpaceOnUse">
<stop stop-color="#B66951"/>
<stop offset="1" stop-color="#CE8864"/>
</linearGradient>
<linearGradient id="paint6_linear_2646_3078" x1="150.615" y1="577.92" x2="150.615" y2="753.066" gradientUnits="userSpaceOnUse">
<stop stop-color="#B66951"/>
<stop offset="1" stop-color="#CE8864"/>
</linearGradient>
<linearGradient id="paint7_linear_2646_3078" x1="133.07" y1="178.79" x2="129.08" y2="545.86" gradientUnits="userSpaceOnUse">
<stop stop-color="#C1210D"/>
<stop offset="0.52" stop-color="#C1210D"/>
<stop offset="1" stop-color="#9D1D06"/>
</linearGradient>
<linearGradient id="paint8_linear_2646_3078" x1="13.8791" y1="184.16" x2="48.7891" y2="510.46" gradientUnits="userSpaceOnUse">
<stop stop-color="#C1210D"/>
<stop offset="0.52" stop-color="#C1210D"/>
<stop offset="1" stop-color="#9D1D06"/>
</linearGradient>
<linearGradient id="paint9_linear_2646_3078" x1="48.5456" y1="280.505" x2="48.5456" y2="360.83" gradientUnits="userSpaceOnUse">
<stop stop-color="#B66951"/>
<stop offset="1" stop-color="#CE8864"/>
</linearGradient>
<radialGradient id="paint10_radial_2646_3078" cx="0" cy="0" r="1" gradientUnits="userSpaceOnUse" gradientTransform="translate(130.059 236.63) scale(43.16 43.16)">
<stop stop-color="#DBDBDB"/>
<stop offset="0.17" stop-color="#E3E3E3"/>
<stop offset="0.67" stop-color="#F7F7F7"/>
<stop offset="1" stop-color="white"/>
</radialGradient>
<linearGradient id="paint11_linear_2646_3078" x1="223.985" y1="305.27" x2="223.985" y2="444.038" gradientUnits="userSpaceOnUse">
<stop stop-color="#B66951"/>
<stop offset="1" stop-color="#CE8864"/>
</linearGradient>
</defs>
</svg>
