<svg width="44" height="44" viewBox="0 0 44 44" fill="none" xmlns="http://www.w3.org/2000/svg">
<mask id="path-1-inside-1_205_8946" fill="white">
<path d="M44 22C44 34.1503 34.1503 44 22 44C9.84974 44 0 34.1503 0 22C0 9.84974 9.84974 0 22 0C34.1503 0 44 9.84974 44 22ZM1.97435 22C1.97435 33.0599 10.9401 42.0256 22 42.0256C33.0599 42.0256 42.0256 33.0599 42.0256 22C42.0256 10.9401 33.0599 1.97435 22 1.97435C10.9401 1.97435 1.97435 10.9401 1.97435 22Z"/>
</mask>
<path d="M44 22C44 34.1503 34.1503 44 22 44C9.84974 44 0 34.1503 0 22C0 9.84974 9.84974 0 22 0C34.1503 0 44 9.84974 44 22ZM1.97435 22C1.97435 33.0599 10.9401 42.0256 22 42.0256C33.0599 42.0256 42.0256 33.0599 42.0256 22C42.0256 10.9401 33.0599 1.97435 22 1.97435C10.9401 1.97435 1.97435 10.9401 1.97435 22Z" stroke="#C21B17" stroke-width="4" mask="url(#path-1-inside-1_205_8946)"/>
</svg>
