<svg width="17" height="17" viewBox="0 0 17 17" fill="none" xmlns="http://www.w3.org/2000/svg">
<g clip-path="url(#clip0_205_9020)">
<path d="M7.79785 0C8.26249 0 8.72712 0 9.19176 0C9.31727 0.0174423 9.44278 0.0357152 9.56829 0.0523269C11.5253 0.307732 13.2077 1.13292 14.575 2.54865C16.3758 4.4129 17.1712 6.65548 16.9697 9.24358C16.8774 10.4288 16.53 11.5406 15.9569 12.5792C14.2205 15.7255 10.6605 17.5598 6.99159 16.8468C3.60738 16.1889 1.39973 14.1415 0.324581 10.8732C0.144628 10.3254 0.0702359 9.75481 0 9.18503C0 8.72073 0 8.25643 0 7.79255C0.0390661 7.52552 0.0640019 7.25558 0.119276 6.99187C0.83161 3.60889 2.84268 1.3904 6.12632 0.319775C6.66909 0.142861 7.23388 0.0705997 7.79785 0ZM15.6514 8.48567C15.6506 4.55036 12.4438 1.34139 8.5081 1.33724C4.5512 1.33309 1.33698 4.54081 1.33781 8.4919C1.33864 12.4347 4.55037 15.6416 8.49771 15.6403C12.4434 15.6395 15.6526 12.4301 15.6514 8.48567Z" fill="white"/>
<path d="M9.17063 6.32117C9.17063 6.88472 9.17437 7.44827 9.16772 8.01182C9.16606 8.14845 9.21261 8.23567 9.32108 8.31582C10.0401 8.84947 10.7545 9.38893 11.4718 9.92508C11.6626 10.0679 11.791 10.2403 11.796 10.4911C11.8014 10.7681 11.6817 10.9729 11.4456 11.1037C11.2133 11.2324 10.9739 11.2195 10.7541 11.0721C10.5571 10.9396 10.3705 10.7914 10.1805 10.6489C9.51682 10.1518 8.85727 9.64974 8.18858 9.15969C7.92966 8.9699 7.81371 8.73609 7.8162 8.413C7.82534 7.15341 7.81869 5.89383 7.82077 4.63383C7.8216 4.23889 8.08011 3.95151 8.44375 3.92991C8.84979 3.90583 9.1644 4.18864 9.16855 4.59729C9.17437 5.17164 9.17022 5.7464 9.17022 6.32117H9.17105H9.17063Z" fill="white"/>
</g>
<defs>
<clipPath id="clip0_205_9020">
<rect width="17" height="17" fill="white"/>
</clipPath>
</defs>
</svg>
