<svg width="32" height="35" viewBox="0 0 32 35" fill="none" xmlns="http://www.w3.org/2000/svg">
<g clip-path="url(#clip0_205_9000)">
<rect x="4" y="5" width="20" height="26" rx="2" fill="#D9D9D9"/>
<path d="M31.3736 20.3911C31.1403 20.1327 30.8892 19.886 30.6461 19.6484L30.6354 19.6375C29.5978 18.6209 28.1563 18.6255 27.1285 19.6502C26.6414 20.1363 26.149 20.6333 25.6735 21.114C25.4135 21.377 25.1534 21.6399 24.8924 21.9029V21.8541C24.8924 16.3971 24.8924 10.9393 24.8924 5.48228C24.8924 5.45246 24.8924 5.42264 24.8933 5.39192C24.8951 5.29162 24.8978 5.1877 24.8799 5.08107C24.8183 4.71149 24.5734 4.49191 24.2079 4.47836C23.8504 4.4657 23.5617 4.75125 23.5331 5.14252C23.5269 5.23198 23.5278 5.31963 23.5286 5.40366C23.5286 5.43348 23.5286 5.46421 23.5286 5.49403V7.86152C23.5286 12.8287 23.5286 17.964 23.534 23.0162C23.534 23.2104 23.4822 23.3351 23.3428 23.4752C21.4463 25.3764 19.5552 27.284 17.7231 29.1436C17.4157 29.4563 17.1923 29.7301 17.0198 30.0075C16.9224 30.1647 16.8393 30.2081 16.6346 30.2081H16.6319C13.2064 30.2018 9.72448 30.2027 6.35611 30.2036H5.26668H5.21574C5.09152 30.2036 4.96193 30.2027 4.83145 30.2289C4.48112 30.3003 4.28003 30.5578 4.29254 30.9192C4.30506 31.2608 4.5124 31.4985 4.84575 31.5554C4.98517 31.5789 5.1219 31.5789 5.25596 31.578H5.30958C8.28115 31.578 11.2527 31.578 14.2243 31.578H16.3728C16.3602 31.6196 16.3468 31.6611 16.3343 31.7018C16.2566 31.953 16.1842 32.1897 16.1395 32.4337C16.0796 32.769 16.0251 33.1232 16.0823 33.4584C16.2065 34.1895 16.6882 34.6901 17.5533 34.9892L17.581 34.9991H18.3085L18.3344 34.991C18.4479 34.9548 18.5605 34.9169 18.6732 34.878C18.91 34.7976 19.1549 34.7145 19.397 34.6548C20.3783 34.4163 21.2354 33.912 22.0174 33.1151C24.2061 30.884 26.4448 28.6286 28.6103 26.4472C29.4369 25.6141 30.2636 24.7809 31.0903 23.9478L31.143 23.8945C31.2208 23.8168 31.3012 23.7355 31.3772 23.6496C32.2074 22.7162 32.2047 21.3146 31.3718 20.3902L31.3736 20.3911ZM19.0592 33.3184C19.0288 33.3283 18.9976 33.3373 18.9663 33.3473C18.6589 33.4431 18.3398 33.5416 18.0154 33.6102C17.8438 33.6464 17.6749 33.5922 17.5515 33.4611C17.4175 33.3193 17.3657 33.1196 17.4139 32.9262C17.4908 32.6172 17.5819 32.3135 17.6704 32.019C17.6776 31.9937 17.6856 31.9693 17.6928 31.944L19.0592 33.3184ZM29.5227 23.5963C29.4486 23.6704 29.3753 23.7436 29.3029 23.8168L27.1106 21.6083C27.183 21.5342 27.2563 21.4592 27.3314 21.3833C27.6093 21.0987 27.8962 20.805 28.1983 20.5258C28.6049 20.1499 29.1795 20.1562 29.5969 20.543C29.8427 20.7707 30.0947 21.0237 30.3449 21.2957C30.748 21.7339 30.7471 22.3204 30.3431 22.7559C30.0741 23.046 29.7935 23.327 29.5218 23.5981L29.5227 23.5963ZM25.2481 23.5927L26.1007 22.7306L28.2054 24.8433L27.343 25.7153L25.2481 23.5927ZM26.2196 26.7499L20.4704 32.5837L18.4265 30.5072L24.2132 24.705L26.2196 26.749V26.7499Z" fill="#C21B17"/>
<path d="M2.75976 30.0878C1.80797 29.6884 1.36469 29.017 1.36469 27.9724C1.36469 19.8561 1.36379 11.7397 1.36469 3.62432C1.36469 2.23816 2.22175 1.37701 3.59984 1.37701C9.49919 1.3761 15.3985 1.37701 21.297 1.37791C21.4552 1.37791 21.6348 1.37791 21.7957 1.40954C22.6384 1.57671 23.1756 2.05834 23.4392 2.88244C23.5902 3.35504 23.8646 3.44269 24.0702 3.43365C24.2784 3.42462 24.5635 3.29901 24.6797 3.10564C24.7994 2.90594 24.7753 2.61045 24.7172 2.41798C24.2793 0.950499 22.9548 0.00169553 21.3417 0.000791912C15.42 -0.00011171 9.4983 -0.00011171 3.5775 0.00169553C3.36659 0.00169553 3.17533 0.0044064 2.9814 0.0360332C1.17343 0.327903 0.00357482 1.71677 0.00178741 3.57281C0 6.46892 0 9.36413 0 12.2593V27.8197V27.8992C0 28.0185 0 28.1423 0.00446852 28.2661C0.0563034 29.6541 0.992906 30.9327 2.28252 31.3755C2.40317 31.417 2.51667 31.4369 2.62302 31.4369C2.92063 31.4369 3.1512 31.277 3.25487 30.9815C3.38625 30.6065 3.20125 30.2721 2.75976 30.0869V30.0878Z" fill="#C21B17"/>
<path d="M19.5687 5.09643C19.5481 4.03739 18.725 3.37774 17.4202 3.37594C16.2235 3.37413 15.0269 3.37503 13.8302 3.37594H12.4584C11.9472 3.37594 11.4351 3.37594 10.9239 3.37594C9.75669 3.37594 8.5493 3.37413 7.36156 3.37865C6.26945 3.38226 5.43831 3.99763 5.34089 4.87414C5.29442 5.29162 5.29621 5.70999 5.34447 6.11843C5.44635 6.97055 6.2632 7.59133 7.2856 7.59405C9.02564 7.59856 10.7496 7.60127 12.4476 7.60127C14.1457 7.60127 15.9277 7.59856 17.6124 7.59314C18.6258 7.59043 19.4579 6.95247 19.5472 6.10939C19.5821 5.78499 19.5749 5.45879 19.5687 5.14252V5.09643ZM18.2031 5.89433C18.1852 6.25126 17.9377 6.43199 17.4676 6.43199C14.0456 6.4347 10.662 6.4347 7.41161 6.43199C7.15065 6.43199 6.70916 6.36422 6.68413 5.9124C6.66894 5.65397 6.66894 5.38017 6.68235 5.07475C6.69843 4.72233 6.94688 4.54342 7.42055 4.54161C8.15785 4.5398 8.89427 4.5398 9.63157 4.5398C10.1061 4.5398 10.5816 4.5398 11.0561 4.5398H12.4816H13.6658C14.9026 4.5398 16.1395 4.5398 17.3755 4.5398C18.0619 4.5398 18.1995 4.76571 18.2049 5.15517V5.24011C18.2094 5.45517 18.2129 5.67746 18.2022 5.89343L18.2031 5.89433Z" fill="#C21B17"/>
<path d="M6.28018 15.5559C4.9709 15.5559 3.90203 16.6276 3.89577 17.9441C3.89041 19.2598 4.95124 20.3414 6.26141 20.3559C6.27035 20.3559 6.27839 20.3559 6.28733 20.3559C6.91381 20.3559 7.50723 20.1065 7.95945 19.652C8.41703 19.192 8.66726 18.5857 8.66458 17.9441C8.65833 16.6276 7.58856 15.5559 6.28018 15.5559ZM6.28375 18.9797H6.27928C6.01117 18.9797 5.74663 18.8658 5.55359 18.6679C5.35877 18.4673 5.2542 18.208 5.26046 17.936C5.27208 17.3712 5.72072 16.9321 6.28375 16.9321C6.28643 16.9321 6.28911 16.9321 6.2918 16.9321C6.85125 16.9366 7.30436 17.3956 7.30168 17.9568C7.29989 18.5089 6.83338 18.977 6.28375 18.9797Z" fill="#C21B17"/>
<path d="M6.26676 26.7626C6.26676 26.7626 6.27391 26.7626 6.27837 26.7626C7.5814 26.7626 8.65116 25.7008 8.66457 24.3906C8.67797 23.0713 7.62251 21.9869 6.31144 21.9725C6.30251 21.9725 6.29357 21.9725 6.28463 21.9725C5.64921 21.9725 5.05221 22.2201 4.6 22.671C4.14689 23.1228 3.89754 23.7237 3.89576 24.3635C3.89308 25.6809 4.95659 26.7572 6.26676 26.7635V26.7626ZM5.54911 23.6568C5.74394 23.458 6.00401 23.3487 6.28106 23.3487H6.28642C6.84588 23.3514 7.30077 23.8086 7.30077 24.3671C7.30077 24.9255 6.84588 25.3836 6.28642 25.3864H6.28016C5.72428 25.3864 5.2667 24.9364 5.25776 24.3815C5.2533 24.1095 5.35607 23.8529 5.54822 23.6568H5.54911Z" fill="#C21B17"/>
<path d="M19.8321 17.2628C19.7749 17.2583 19.7213 17.2592 19.6694 17.2592H19.6167H18.622C16.3833 17.2592 14.1446 17.2592 11.9058 17.2592H11.8647C11.7628 17.2592 11.6467 17.2583 11.5341 17.2836C11.3339 17.3288 11.1641 17.4562 11.0684 17.6324C10.9782 17.7995 10.963 17.9884 11.0264 18.1655C11.139 18.4782 11.3902 18.6372 11.7727 18.6372H11.7789C12.7316 18.6327 13.7013 18.6336 14.6379 18.6336H15.7336H16.9025C17.8651 18.6336 18.8285 18.6336 19.791 18.6309C20.0099 18.6309 20.2048 18.5541 20.3388 18.4167C20.4595 18.2929 20.5247 18.1258 20.5238 17.945C20.5211 17.5745 20.237 17.2935 19.8321 17.2601V17.2628Z" fill="#C21B17"/>
<path d="M19.6284 23.6785H11.8997H11.838C11.7781 23.6785 11.7155 23.6767 11.6503 23.6821C11.2714 23.7156 11.0015 23.9921 10.9952 24.3544C10.989 24.7357 11.2651 25.0231 11.6682 25.052C11.712 25.0556 11.754 25.0565 11.796 25.0565C11.8228 25.0565 11.8487 25.0565 11.8746 25.0565C11.8997 25.0565 11.9238 25.0565 11.9488 25.0565H18.9215C19.186 25.0565 19.4506 25.0574 19.7151 25.0565C20.2049 25.0529 20.515 24.7945 20.5239 24.3824C20.5275 24.1999 20.4685 24.0391 20.3523 23.9171C20.2075 23.7653 19.9823 23.6839 19.7008 23.6812C19.6767 23.6812 19.6525 23.6812 19.6284 23.6812V23.6785Z" fill="#C21B17"/>
<path d="M11.8908 10.8489C11.8667 10.8489 11.8461 10.8489 11.822 10.848C11.679 10.8444 11.5003 10.8399 11.3823 10.9492C11.2089 11.11 11.0061 11.3504 11.0221 11.5862C11.0373 11.8131 11.2527 12.0037 11.4618 12.161C11.5387 12.2188 11.6316 12.2323 11.7201 12.2323C11.7612 12.2323 11.8015 12.2296 11.8381 12.2269C11.8694 12.2251 11.8998 12.2224 11.9284 12.2224C13.1045 12.2233 14.2797 12.2224 15.4558 12.2224H15.7498H16.9295C17.8769 12.2224 18.8251 12.2224 19.7724 12.2197C20.2085 12.2179 20.5106 11.9531 20.5222 11.5591C20.5338 11.176 20.2434 10.8841 19.8144 10.8489C19.7635 10.8453 19.7161 10.8453 19.6696 10.8453H19.6321H18.5123C16.3048 10.8453 14.0965 10.8453 11.889 10.8471L11.8908 10.8489Z" fill="#C21B17"/>
<path d="M4.73123 12.9028L4.79468 12.9661C5.01007 13.1811 5.20043 13.2887 5.39079 13.2887C5.58025 13.2887 5.77061 13.182 5.98242 12.9688C6.60533 12.3435 7.22556 11.7164 7.84669 11.0893L8.23545 10.6971C8.28818 10.6438 8.34269 10.5905 8.39632 10.5371C8.54914 10.3853 8.70822 10.2281 8.853 10.06C9.09609 9.77901 9.09341 9.43834 8.84585 9.14918C8.60991 8.87358 8.20596 8.85008 7.90657 9.09316C7.82703 9.15731 7.75821 9.2296 7.69208 9.29828C7.67063 9.32087 7.64918 9.34256 7.62773 9.36424L5.37827 11.6387L5.37291 11.6323C5.28443 11.532 5.20758 11.4453 5.12714 11.3594C5.02615 11.2519 4.91444 11.1399 4.76609 10.9953C4.41129 10.6501 4.01091 10.6257 3.72135 10.9302C3.44787 11.2176 3.47915 11.6305 3.79731 11.9594C4.10564 12.2775 4.4238 12.5956 4.73123 12.9028Z" fill="#C21B17"/>
<path d="M23.9469 26.7472C23.904 26.7129 23.8638 26.6803 23.829 26.6469L23.744 26.5656L23.6359 26.6117C23.5841 26.6343 23.5331 26.6514 23.4849 26.6677C23.3723 26.7065 23.265 26.7436 23.1792 26.8267C22.6877 27.3066 22.1086 27.8767 21.5446 28.474C21.2899 28.7442 21.2998 29.1138 21.5688 29.393C21.7118 29.5421 21.8851 29.6171 22.0549 29.6171C22.206 29.6171 22.3552 29.5584 22.4803 29.4382C23.0729 28.8734 23.6297 28.3078 24.1355 27.7584C24.2794 27.6011 24.3026 27.2822 24.2338 27.0816C24.1829 26.9334 24.0577 26.834 23.9478 26.7454L23.9469 26.7472Z" fill="#C21B17"/>
</g>
<defs>
<clipPath id="clip0_205_9000">
<rect width="32" height="35" fill="white"/>
</clipPath>
</defs>
</svg>
