<svg width="6" height="12" viewBox="0 0 6 12" fill="none" xmlns="http://www.w3.org/2000/svg">
<path d="M1.55372 4.55146C1.5559 5.21363 2.01667 5.75817 2.66423 5.85731C2.93532 5.89874 3.21368 5.90392 3.47823 5.97125C4.51461 6.2339 5.24212 7.13801 5.32206 8.23374C5.39765 9.26363 4.79805 10.3017 3.82708 10.6753C3.4477 10.821 3.32197 10.9949 3.34813 11.39C3.37066 11.7333 3.11048 11.976 2.80305 11.9848C2.49562 11.9937 2.25506 11.7621 2.2209 11.4188C2.2129 11.3382 2.20346 11.2539 2.21654 11.1747C2.25869 10.9143 2.15186 10.7944 1.91057 10.6901C0.998459 10.295 0.509337 9.56401 0.4025 8.56816C0.356713 8.13978 0.576201 7.83644 0.927234 7.8061C1.27463 7.77577 1.51665 8.03176 1.55662 8.47272C1.62349 9.20962 2.15985 9.7105 2.88154 9.70976C3.55308 9.70976 4.11488 9.1815 4.16648 8.50305C4.22099 7.78761 3.75367 7.1676 3.03634 7.07956C2.51016 7.01519 1.99124 6.96932 1.53555 6.65636C0.736818 6.10812 0.33927 5.33719 0.409768 4.36797C0.482445 3.36916 0.999912 2.63966 1.91057 2.24532C2.15622 2.13878 2.25142 2.02114 2.21945 1.76293C2.20564 1.64973 2.21654 1.52765 2.24198 1.41593C2.30739 1.12813 2.50943 0.975715 2.78633 0.974976C3.07923 0.974976 3.282 1.137 3.34668 1.44109C3.36339 1.51951 3.36921 1.6046 3.35976 1.6845C3.32633 1.96269 3.41354 2.1003 3.70207 2.2061C4.69122 2.57011 5.21087 3.33291 5.32206 4.38647C5.3664 4.80671 5.13019 5.11301 4.77771 5.13299C4.44411 5.15223 4.20718 4.89697 4.16866 4.47821C4.10035 3.72725 3.52619 3.18568 2.82631 3.21157C2.11043 3.23821 1.55299 3.82492 1.55517 4.55072L1.55372 4.55146Z" fill="#C21B17"/>
</svg>
