<svg width="31" height="12" viewBox="0 0 31 12" fill="none" xmlns="http://www.w3.org/2000/svg">
<path d="M22.5622 4.65023C24.1131 3.90519 25.6379 3.15942 27.1743 2.43953C28.4447 1.84395 29.9099 2.24347 30.7326 3.37768C31.1411 3.94071 31.0917 4.2226 30.5146 4.60288C27.2877 6.7285 24.0637 8.86004 20.8317 10.9783C19.4966 11.8528 17.9973 12.1502 16.4587 11.9312C15.2443 11.7581 14.0582 11.3696 12.8677 11.0456C11.4323 10.6549 10.0042 10.2377 8.57606 9.82037C7.94595 9.63615 7.35653 9.69904 6.79182 10.0364C6.63411 10.1304 6.4764 10.2303 6.30852 10.2998C5.93786 10.4544 5.6784 10.6438 5.71183 11.1329C5.73363 11.4606 5.4749 11.6619 5.14422 11.6552C3.63324 11.6249 2.12227 11.5894 0.612028 11.5376C0.181775 11.5228 -0.0108209 11.2786 0.00153428 10.8184C0.0742121 8.06913 0.152704 5.31981 0.227562 2.57049C0.243551 1.99932 0.253726 1.42888 0.270442 0.857713C0.285705 0.34277 0.490656 0.140048 0.995767 0.151886C2.41516 0.185179 3.83384 0.219213 5.25323 0.259906C5.84192 0.276922 6.02507 0.489262 6.00545 1.08707C5.99818 1.31864 6.004 1.55096 6.004 1.7892C6.49166 1.61459 6.97424 1.40817 7.47572 1.26686C9.27958 0.759311 11.0537 0.887307 12.7143 1.76182C13.7943 2.33077 14.8976 2.61192 16.1026 2.60378C17.0634 2.59712 18.0256 2.68221 18.9864 2.67037C20.5367 2.65113 21.7344 3.25782 22.5636 4.65023H22.5622ZM29.5472 3.83565C29.0378 3.30443 28.2906 3.19715 27.5631 3.54562C26.1459 4.22407 24.7345 4.91584 23.3122 5.58468C23.0368 5.71415 22.9205 5.82809 22.9743 6.17361C23.0818 6.86612 22.8362 7.11323 22.1443 7.09547C20.0955 7.04294 18.0467 6.98671 15.9979 6.929C15.8039 6.92382 15.6055 6.92234 15.4165 6.88239C15.1345 6.82246 14.987 6.61234 14.9826 6.32898C14.9783 6.05967 15.1178 5.85621 15.3758 5.77704C15.503 5.73783 15.6476 5.74745 15.7842 5.75114C17.6383 5.79998 19.493 5.85177 21.347 5.90208C21.4815 5.90578 21.6159 5.90208 21.7533 5.90208C21.605 4.84186 20.6122 3.93553 19.5344 3.87634C18.8026 3.83639 18.07 3.82751 17.3374 3.80384C16.5023 3.7772 15.6651 3.77054 14.8314 3.71579C13.8743 3.65364 13.0407 3.20603 12.1874 2.80132C10.1568 1.83803 8.15453 1.94975 6.20241 3.07211C6.00618 3.18531 5.93931 3.31775 5.9335 3.54118C5.88989 5.37086 5.83393 7.19979 5.78378 9.02946C5.78233 9.08199 5.79759 9.13453 5.80486 9.18632C5.85283 9.18632 5.87826 9.19371 5.89571 9.18484C5.98873 9.14044 6.08321 9.09679 6.17115 9.04352C7.05928 8.50342 7.99391 8.41982 8.98015 8.71354C10.0769 9.04056 11.1772 9.35648 12.2797 9.66205C13.6359 10.0372 14.9812 10.4774 16.3591 10.7393C17.655 10.9857 18.9617 10.7859 20.097 10.0542C22.9096 8.24077 25.6939 6.38077 28.4891 4.53925C28.8408 4.30768 29.1911 4.07314 29.5465 3.83639L29.5472 3.83565ZM4.59405 10.4063C4.67399 7.44247 4.75466 4.44677 4.83752 1.39707H1.41439C1.33372 4.37427 1.25305 7.36108 1.17019 10.4063H4.59405Z" fill="#C21B17"/>
</svg>
