<svg width="109" height="108" viewBox="0 0 109 108" fill="none" xmlns="http://www.w3.org/2000/svg">
<g id="Icon" clip-path="url(#clip0_280_1739)">
<path id="Vector" d="M108.906 16.6563C108.846 16.5063 108.755 16.3697 108.638 16.2531L100.642 8.30322L99.4629 18.009L108.903 16.6563H108.906Z" fill="#B1E4F9"/>
<path id="Vector_2" d="M99.4664 18.009L100.646 8.30322L90.9717 9.56268L99.4664 18.009Z" fill="#90D8F9"/>
<path id="Vector_3" d="M107.901 26.3953C108.098 26.1987 108.229 25.9355 108.256 25.6389L108.997 17.2226C109.013 17.026 108.983 16.8328 108.909 16.6528L99.4697 18.0056L107.904 26.392L107.901 26.3953Z" fill="#90D8F9"/>
<path id="Vector_4" d="M100.646 8.30293L92.6539 0.356367C92.5232 0.226423 92.3657 0.129798 92.1948 0.0698242L90.9717 9.56239L100.646 8.30293Z" fill="#B1E4F9"/>
<path id="Vector_5" d="M90.9717 9.56241L81.4482 27.1581C81.522 27.2548 81.6057 27.3381 81.7029 27.408L99.4663 18.0054L90.9717 9.55908V9.56241Z" fill="#75CEF9"/>
<path id="Vector_6" d="M92.1951 0.0698047C92.0342 0.0131625 91.86 -0.0101608 91.6857 0.00316679L83.2681 0.666214C82.9364 0.692869 82.6448 0.849468 82.4404 1.07937L90.9686 9.55904L92.1917 0.0664728L92.1951 0.0698047Z" fill="#E4F6FF"/>
<path id="Vector_7" d="M99.4666 18.0088L81.7031 27.4114C81.9176 27.568 82.1857 27.658 82.4772 27.648L107.073 26.7583C107.395 26.745 107.686 26.6117 107.901 26.3952L99.4666 18.0088Z" fill="#6BBEF6"/>
<path id="Vector_8" d="M82.4408 1.08301C82.2598 1.28959 82.1459 1.5528 82.1358 1.84268L81.2009 26.3787C81.1909 26.672 81.2847 26.9452 81.4489 27.1617L90.9723 9.56601L82.4441 1.08634L82.4408 1.08301Z" fill="#B1E4F9"/>
<path id="Vector_9" d="M61.0747 13.6074C42.5037 13.6074 27.4512 28.5776 27.4512 47.0396C27.4512 65.5017 42.507 80.4719 61.0747 80.4719C79.6424 80.4719 94.6982 65.5017 94.6982 47.0396C94.6982 28.5776 79.6424 13.6074 61.0747 13.6074ZM61.0747 73.4382C46.4109 73.4382 34.525 61.62 34.525 47.0396C34.525 32.4593 46.4109 20.641 61.0747 20.641C75.7385 20.641 87.6243 32.4593 87.6243 47.0396C87.6243 61.62 75.7385 73.4382 61.0747 73.4382Z" fill="#C21B17"/>
<path id="Vector_10" d="M33.6235 41.1323C15.0559 41.1323 0 56.1025 0 74.5679C0 93.0332 15.0559 108 33.6235 108C52.1912 108 67.247 93.0299 67.247 74.5679C67.247 56.1059 52.1912 41.1357 33.6235 41.1357V41.1323ZM33.6235 100.963C18.9597 100.963 7.07387 89.1449 7.07387 74.5645C7.07387 59.9842 18.9597 48.166 33.6235 48.166C48.2873 48.166 60.1732 59.9842 60.1732 74.5645C60.1732 89.1449 48.2873 100.963 33.6235 100.963Z" fill="#A0A0A0"/>
<path id="Vector_11" d="M16.1585 26.7686C15.7731 26.7686 15.3878 26.622 15.0929 26.3288L9.11811 20.388C8.52834 19.8016 8.52834 18.852 9.11811 18.2689C9.70788 17.6825 10.6629 17.6825 11.2493 18.2689L17.2241 24.2097C17.8138 24.7961 17.8138 25.7457 17.2241 26.3288C16.9292 26.622 16.5438 26.7686 16.1585 26.7686Z" fill="black"/>
<path id="Vector_12" d="M11.2994 38.943H2.85168C2.01729 38.943 1.34375 38.2733 1.34375 37.4437C1.34375 36.614 2.01729 35.9443 2.85168 35.9443H11.3028C12.1372 35.9443 12.8107 36.614 12.8107 37.4437C12.8107 38.2733 12.1372 38.943 11.3028 38.943H11.2994Z" fill="black"/>
<path id="Vector_13" d="M28.4064 22.3568C27.572 22.3568 26.8984 21.6871 26.8984 20.8575V12.4544C26.8984 11.6248 27.572 10.9551 28.4064 10.9551C29.2408 10.9551 29.9143 11.6248 29.9143 12.4544V20.8575C29.9143 21.6871 29.2408 22.3568 28.4064 22.3568Z" fill="black"/>
<path id="Vector_14" d="M89.1057 99.4302C88.7204 99.4302 88.335 99.2836 88.0401 98.9904L82.0654 93.0496C81.4756 92.4632 81.4756 91.5136 82.0654 90.9305C82.6551 90.3441 83.6102 90.3441 84.1966 90.9305L90.1713 96.8713C90.7611 97.4577 90.7611 98.4073 90.1713 98.9904C89.8765 99.2836 89.4911 99.4302 89.1057 99.4302Z" fill="black"/>
<path id="Vector_15" d="M70.8859 106.721C70.0515 106.721 69.3779 106.051 69.3779 105.221V96.8182C69.3779 95.9886 70.0515 95.3188 70.8859 95.3188C71.7203 95.3188 72.3938 95.9886 72.3938 96.8182V105.221C72.3938 106.051 71.7203 106.721 70.8859 106.721Z" fill="black"/>
<path id="Vector_16" d="M96.0186 81.3083H87.5675C86.7331 81.3083 86.0596 80.6386 86.0596 79.8089C86.0596 78.9793 86.7331 78.3096 87.5675 78.3096H96.0186C96.853 78.3096 97.5266 78.9793 97.5266 79.8089C97.5266 80.6386 96.853 81.3083 96.0186 81.3083Z" fill="black"/>
</g>
<defs>
<clipPath id="clip0_280_1739">
<rect width="109" height="108" fill="white"/>
</clipPath>
</defs>
</svg>
