<svg width="72" height="111" viewBox="0 0 72 111" fill="none" xmlns="http://www.w3.org/2000/svg">
<g clip-path="url(#clip0_280_1831)">
<path d="M11.6562 78.5869H60.349C66.7823 78.5869 72.0052 83.8446 72.0052 90.3206V111.004H0V90.3206C0 83.8446 5.22293 78.5869 11.6562 78.5869Z" fill="#05739D"/>
<path d="M11.6562 78.5869H52.3892C58.8225 78.5869 64.0454 83.8446 64.0454 90.3206V111.004H0V90.3206C0 83.8446 5.22293 78.5869 11.6562 78.5869Z" fill="#0880AE"/>
<path d="M17.1262 43.1516C17.1262 47.8861 13.9532 51.7241 10.0424 51.7241C6.13154 51.7241 2.2207 47.8861 2.2207 43.1516C2.2207 38.4172 6.13154 34.5791 10.0424 34.5791C13.9532 34.5791 17.1262 38.4172 17.1262 43.1516Z" fill="#FFA78F"/>
<path d="M54.4824 43.1516C54.4824 47.8861 57.6554 51.7241 61.5663 51.7241C65.4771 51.7241 69.388 47.8861 69.388 43.1516C69.388 38.4172 65.4771 34.5791 61.5663 34.5791C57.6554 34.5791 54.4824 38.4172 54.4824 43.1516Z" fill="#FFA78F"/>
<path d="M46.3345 65.8873V79.8894C46.3345 85.6118 41.7258 90.2511 36.0413 90.2511C30.3567 90.2511 25.748 85.6118 25.748 79.8894V65.8873C25.748 60.1686 30.3567 55.5293 36.0413 55.5293C38.8835 55.5293 41.4568 56.6891 43.3214 58.5624C45.1823 60.4394 46.3345 63.0298 46.3345 65.8873Z" fill="#FFB09E"/>
<path d="M46.3345 65.8873V75.005C43.2959 76.3551 39.9339 77.1051 36.4011 77.1051H35.2598C31.8869 77.1051 28.6739 76.4246 25.748 75.1879V65.8873C25.748 60.1686 30.3567 55.5293 36.0413 55.5293C38.8835 55.5293 41.4568 56.6891 43.3214 58.5624C45.1823 60.4394 46.3345 63.0298 46.3345 65.8873Z" fill="#FFA78F"/>
<path d="M28.0661 35.6107H6.05124L4.89907 21.6707C4.27028 14.0678 10.231 7.54785 17.8092 7.54785H28.0624V35.6107H28.0661Z" fill="#181818"/>
<path d="M36.4004 13.585H35.2591C21.6514 13.585 10.6201 24.6896 10.6201 38.3878V47.9958C10.6201 61.694 21.6514 72.7986 35.2591 72.7986H36.4004C50.0081 72.7986 61.0394 61.694 61.0394 47.9958V38.3878C61.0394 24.6896 50.0081 13.585 36.4004 13.585Z" fill="#FFCEBF"/>
<path d="M51.8988 23.0505V34.3561H24.85C19.936 34.3561 15.5418 32.1242 12.6123 28.6118C16.3778 19.7759 25.1008 13.5889 35.2595 13.5889H36.4008C41.9945 13.5889 47.152 15.4658 51.2882 18.627C51.6843 20.032 51.8988 21.5174 51.8988 23.0505Z" fill="#FFCEBF"/>
<path d="M36.4005 13.585H35.2592C34.2851 13.585 33.322 13.6472 32.377 13.7606C44.6256 15.1985 54.1337 25.6736 54.1337 38.3878V47.9921C54.1337 60.71 44.6256 71.1851 32.377 72.6193C33.322 72.7291 34.2815 72.795 35.2592 72.795H36.4005C50.0084 72.795 61.0395 61.6906 61.0395 47.9921V38.3878C61.0395 24.6893 50.0084 13.585 36.4005 13.585Z" fill="#FFB09E"/>
<path d="M27.0454 0H50.4014C59.2262 0 66.39 7.21145 66.39 16.095V36.4926H31.8031C22.9783 36.4926 15.8145 29.2812 15.8145 20.3977V11.3056C15.8145 5.06741 20.8484 0 27.0454 0Z" fill="black"/>
<path d="M51.8988 23.0505V34.3561H24.85C19.936 34.3561 15.5418 32.1242 12.6123 28.6118C16.3778 19.7759 25.1008 13.5889 35.2595 13.5889H36.4008C41.9945 13.5889 47.152 15.4658 51.2882 18.627C51.6843 20.032 51.8988 21.5174 51.8988 23.0505Z" fill="#FFB09E"/>
<path d="M27.0454 0H42.8632C51.688 0 58.8518 7.21145 58.8518 16.095V36.4926H31.8031C22.9783 36.4926 15.8145 29.2812 15.8145 20.3977V11.3056C15.8145 5.06741 20.8484 0 27.0454 0Z" fill="#181818"/>
<path d="M23.4327 47.1361C24.6371 47.1361 25.6135 46.1533 25.6135 44.9409C25.6135 43.7285 24.6371 42.7456 23.4327 42.7456C22.2283 42.7456 21.252 43.7285 21.252 44.9409C21.252 46.1533 22.2283 47.1361 23.4327 47.1361Z" fill="black"/>
<path d="M48.0274 47.1361C49.2318 47.1361 50.2082 46.1533 50.2082 44.9409C50.2082 43.7285 49.2318 42.7456 48.0274 42.7456C46.823 42.7456 45.8467 43.7285 45.8467 44.9409C45.8467 46.1533 46.823 47.1361 48.0274 47.1361Z" fill="black"/>
<path d="M35.83 62.4627C31.6429 62.4627 28.2373 58.7088 28.2373 54.0914C28.2373 53.2829 28.8879 52.6279 29.6911 52.6279C30.4944 52.6279 31.145 53.2829 31.145 54.0914C31.145 57.0953 33.2458 59.5357 35.83 59.5357C38.4142 59.5357 40.515 57.0916 40.515 54.0914C40.515 53.2829 41.1656 52.6279 41.9689 52.6279C42.7721 52.6279 43.4227 53.2829 43.4227 54.0914C43.4227 58.7088 40.0171 62.4627 35.83 62.4627Z" fill="#FFA799"/>
</g>
<defs>
<clipPath id="clip0_280_1831">
<rect width="72" height="111" fill="white"/>
</clipPath>
</defs>
</svg>
