<svg width="139" height="107" viewBox="0 0 139 107" fill="none" xmlns="http://www.w3.org/2000/svg">
<g clip-path="url(#clip0_280_1759)">
<path d="M12.8411 76.9229H58.1288C64.1122 76.9229 68.9699 81.8016 68.9699 87.8109V107.003H2V87.8109C2 81.8016 6.85769 76.9229 12.8411 76.9229Z" fill="#05739D"/>
<path d="M12.8411 76.9229H50.7256C56.709 76.9229 61.5667 81.8016 61.5667 87.8109V107.003H2V87.8109C2 81.8016 6.85769 76.9229 12.8411 76.9229Z" fill="#0880AE"/>
<path d="M17.9286 44.0416C17.9286 48.4348 14.9775 51.9963 11.3401 51.9963C7.70278 51.9963 4.06543 48.4348 4.06543 44.0416C4.06543 39.6484 7.70278 36.0869 11.3401 36.0869C14.9775 36.0869 17.9286 39.6484 17.9286 44.0416Z" fill="#FFA78F"/>
<path d="M52.6729 44.0416C52.6729 48.4348 55.624 51.9963 59.2613 51.9963C62.8987 51.9963 66.536 48.4348 66.536 44.0416C66.536 39.6484 62.8987 36.0869 59.2613 36.0869C55.624 36.0869 52.6729 39.6484 52.6729 44.0416Z" fill="#FFA78F"/>
<path d="M45.0941 65.1388V78.1318C45.0941 83.4417 40.8077 87.7467 35.5207 87.7467C30.2337 87.7467 25.9473 83.4417 25.9473 78.1318V65.1388C25.9473 59.8323 30.2337 55.5273 35.5207 55.5273C38.1642 55.5273 40.5575 56.6036 42.2917 58.3419C44.0225 60.0835 45.0941 62.4873 45.0941 65.1388Z" fill="#FFB09E"/>
<path d="M45.0941 65.1388V73.5994C42.268 74.8521 39.1411 75.5481 35.8553 75.5481H34.7939C31.6568 75.5481 28.6685 74.9167 25.9473 73.7691V65.1388C25.9473 59.8323 30.2337 55.5273 35.5207 55.5273C38.1642 55.5273 40.5575 56.6036 42.2917 58.3419C44.0225 60.0835 45.0941 62.4873 45.0941 65.1388Z" fill="#FFA78F"/>
<path d="M28.1039 37.0442H7.62862L6.55702 24.1089C5.9722 17.0539 11.5161 11.0039 18.5643 11.0039H28.1006V37.0442H28.1039Z" fill="#181818"/>
<path d="M35.8554 16.606H34.7939C22.1378 16.606 11.8779 26.9102 11.8779 39.6212V48.5367C11.8779 61.2477 22.1378 71.552 34.7939 71.552H35.8554C48.5115 71.552 58.7714 61.2477 58.7714 48.5367V39.6212C58.7714 26.9102 48.5115 16.606 35.8554 16.606Z" fill="#FFCEBF"/>
<path d="M50.2696 25.3891V35.8799H25.1124C20.5421 35.8799 16.4551 33.8089 13.7305 30.5496C17.2326 22.3505 25.3457 16.6094 34.794 16.6094H35.8554C41.0579 16.6094 45.8548 18.3511 49.7017 21.2844C50.0702 22.5881 50.2696 23.9665 50.2696 25.3891Z" fill="#FFCEBF"/>
<path d="M35.8554 16.606H34.794C33.888 16.606 32.9922 16.6637 32.1133 16.7689C43.5054 18.1032 52.3486 27.8233 52.3486 39.6212V48.5333C52.3486 60.3346 43.5054 70.0547 32.1133 71.3856C32.9922 71.4875 33.8846 71.5486 34.794 71.5486H35.8554C48.5118 71.5486 58.7714 61.2445 58.7714 48.5333V39.6212C58.7714 26.91 48.5118 16.606 35.8554 16.606Z" fill="#FFB09E"/>
<path d="M27.1536 4H48.8763C57.084 4 63.7468 10.6917 63.7468 18.935V37.8625H31.5786C23.3709 37.8625 16.708 31.1708 16.708 22.9276V14.4908C16.708 8.70219 21.3899 4 27.1536 4Z" fill="black"/>
<path d="M50.2696 25.3891V35.8799H25.1124C20.5421 35.8799 16.4551 33.8089 13.7305 30.5496C17.2326 22.3505 25.3457 16.6094 34.794 16.6094H35.8554C41.0579 16.6094 45.8548 18.3511 49.7017 21.2844C50.0702 22.5881 50.2696 23.9665 50.2696 25.3891Z" fill="#FFB09E"/>
<path d="M27.1536 4H41.8652C50.0729 4 56.7358 10.6917 56.7358 18.935V37.8625H31.5786C23.3709 37.8625 16.708 31.1708 16.708 22.9276V14.4908C16.708 8.70219 21.3899 4 27.1536 4Z" fill="#181818"/>
<path d="M23.7939 47.7386C24.9141 47.7386 25.8222 46.8266 25.8222 45.7016C25.8222 44.5766 24.9141 43.6646 23.7939 43.6646C22.6737 43.6646 21.7656 44.5766 21.7656 45.7016C21.7656 46.8266 22.6737 47.7386 23.7939 47.7386Z" fill="black"/>
<path d="M46.6689 47.7386C47.7891 47.7386 48.6972 46.8266 48.6972 45.7016C48.6972 44.5766 47.7891 43.6646 46.6689 43.6646C45.5487 43.6646 44.6406 44.5766 44.6406 45.7016C44.6406 46.8266 45.5487 47.7386 46.6689 47.7386Z" fill="black"/>
<path d="M41.3561 58.0326H29.5212C28.6795 58.0326 28 57.3502 28 56.5048C28 55.6595 28.6795 54.9771 29.5212 54.9771H41.3561C42.1978 54.9771 42.8773 55.6595 42.8773 56.5048C42.8773 57.3502 42.1978 58.0326 41.3561 58.0326Z" fill="#FFA799"/>
<g opacity="0.5">
<path d="M119.839 85.4037H88.5594C79.9392 85.4037 73.1716 76.4373 73.9153 66.011L74.9835 51.0454L77.8738 34.6472L77.9076 34.4639L132.214 36.0324V42.6528C132.214 42.6528 132.961 48.6723 133.546 56.2807C133.709 58.4331 134.033 61.6856 134.415 65.2505C135.551 75.9348 128.709 85.4071 119.839 85.4071V85.4037Z" fill="black"/>
<path d="M113.372 85.8012H88.5594C79.9392 85.8012 73.1716 76.8348 73.9153 66.4085L74.9835 51.4429L76.6839 35.0107L125.748 36.4299V43.0503C125.748 43.0503 126.495 49.0698 127.076 56.6782C127.242 58.8306 127.566 62.0831 127.945 65.648C129.084 76.3323 122.242 85.8046 113.372 85.8046V85.8012Z" fill="#212121"/>
<path d="M87.5247 76.9229H120.376C126.359 76.9229 131.217 81.8016 131.217 87.8109V107.003H76.6836V87.8109C76.6836 81.8016 81.5413 76.9229 87.5247 76.9229Z" fill="#AA1B17"/>
<path d="M87.5247 76.9229H114.345C120.328 76.9229 125.186 81.8016 125.186 87.8109V107.003H76.6836V87.8109C76.6836 81.8016 81.5413 76.9229 87.5247 76.9229Z" fill="#C21B17"/>
<path d="M86.3964 44.9991C86.3964 49.3923 83.4453 52.9538 79.8079 52.9538C76.1706 52.9538 72.5332 49.3923 72.5332 44.9991C72.5332 40.6059 76.1706 37.0444 79.8079 37.0444C83.4453 37.0444 86.3964 40.6059 86.3964 44.9991Z" fill="#FFA78F"/>
<path d="M121.137 44.9991C121.137 49.3923 124.088 52.9538 127.725 52.9538C131.363 52.9538 135 49.3923 135 44.9991C135 40.6059 131.363 37.0444 127.725 37.0444C124.088 37.0444 121.137 40.6059 121.137 44.9991Z" fill="#FFA78F"/>
<path d="M113.561 65.1388V78.1318C113.561 83.4417 109.274 87.7467 103.987 87.7467C98.7005 87.7467 94.4141 83.4417 94.4141 78.1318V65.1388C94.4141 59.8323 98.7005 55.5273 103.987 55.5273C106.631 55.5273 109.024 56.6036 110.758 58.3419C112.489 60.0835 113.561 62.4873 113.561 65.1388Z" fill="#FFB09E"/>
<path d="M113.561 65.1388V73.5994C110.735 74.8521 107.608 75.5481 104.322 75.5481H103.261C100.124 75.5481 97.1353 74.9167 94.4141 73.7691V65.1388C94.4141 59.8323 98.7005 55.5273 103.987 55.5273C106.631 55.5273 109.024 56.6036 110.758 58.3419C112.489 60.0835 113.561 62.4873 113.561 65.1388Z" fill="#FFA78F"/>
<path d="M98.2715 38.3683H76.417L76.7246 24.7744C76.1398 17.3595 81.6837 11.0039 88.7319 11.0039H98.2682V38.3683H98.2715Z" fill="#212121"/>
<path d="M104.319 16.606H103.258C90.6016 16.606 80.3418 26.9102 80.3418 39.6212V48.5367C80.3418 61.2477 90.6016 71.552 103.258 71.552H104.319C116.975 71.552 127.235 61.2477 127.235 48.5367V39.6212C127.235 26.9102 116.975 16.606 104.319 16.606Z" fill="#FFCEBF"/>
<path d="M118.736 25.3891V35.8799H93.5792C89.0088 35.8799 84.9219 33.8089 82.1973 30.5496C85.6994 22.3505 93.8124 16.6094 103.261 16.6094H104.322C109.525 16.6094 114.322 18.3511 118.169 21.2844C118.537 22.5881 118.736 23.9665 118.736 25.3891Z" fill="#FFCEBF"/>
<path d="M104.322 16.606H103.261C102.355 16.606 101.459 16.6637 100.58 16.7689C111.972 18.1032 120.815 27.8233 120.815 39.6212V48.5333C120.815 60.3346 111.972 70.0547 100.58 71.3856C101.459 71.4875 102.351 71.5486 103.261 71.5486H104.322C116.979 71.5486 127.238 61.2445 127.238 48.5333V39.6212C127.238 26.91 116.979 16.606 104.322 16.606Z" fill="#FFB09E"/>
<path d="M101.088 4H111.733C123.037 4 132.215 13.2176 132.215 24.5708V38.6876H100.046C91.8386 38.6876 85.1758 31.9958 85.1758 23.7526V19.9807C85.1758 11.1602 92.3051 4 101.088 4Z" fill="black"/>
<path d="M118.736 25.3891V35.8799H93.5792C89.0088 35.8799 84.9219 33.8089 82.1973 30.5496C85.6994 22.3505 93.8124 16.6094 103.261 16.6094H104.322C109.525 16.6094 114.322 18.3511 118.169 21.2844C118.537 22.5881 118.736 23.9665 118.736 25.3891Z" fill="#FFB09E"/>
<path d="M101.412 4H105.736C117.445 4 126.958 13.5504 126.958 25.3143V38.6876H100.046C91.8386 38.6876 85.1758 31.9958 85.1758 23.7526V20.3066C85.1758 11.3062 92.4505 4 101.412 4Z" fill="#212121"/>
<path d="M92.2578 47.7386C93.3779 47.7386 94.286 46.8266 94.286 45.7016C94.286 44.5766 93.3779 43.6646 92.2578 43.6646C91.1376 43.6646 90.2295 44.5766 90.2295 45.7016C90.2295 46.8266 91.1376 47.7386 92.2578 47.7386Z" fill="black"/>
<path d="M115.133 47.7386C116.253 47.7386 117.161 46.8266 117.161 45.7016C117.161 44.5766 116.253 43.6646 115.133 43.6646C114.013 43.6646 113.104 44.5766 113.104 45.7016C113.104 46.8266 114.013 47.7386 115.133 47.7386Z" fill="black"/>
<path d="M109.735 58.0326H97.9001C97.0584 58.0326 96.3789 57.3502 96.3789 56.5048C96.3789 55.6595 97.0584 54.9771 97.9001 54.9771H109.735C110.577 54.9771 111.256 55.6595 111.256 56.5048C111.256 57.3502 110.577 58.0326 109.735 58.0326Z" fill="#FFA799"/>
</g>
</g>
<defs>
<clipPath id="clip0_280_1759">
<rect width="139" height="107" fill="white"/>
</clipPath>
</defs>
</svg>
