<svg width="24" height="25" viewBox="0 0 24 25" fill="none" xmlns="http://www.w3.org/2000/svg">
<path d="M16.5058 9.61536H21.6474C21.7368 9.61501 21.8248 9.64041 21.9022 9.68895C21.9796 9.73749 22.0437 9.80742 22.0879 9.89158C22.1321 9.97575 22.1549 10.0711 22.1538 10.1679C22.1528 10.2647 22.1279 10.3595 22.0819 10.4425L19.5105 15.1163C19.4659 15.198 19.4023 15.2657 19.3261 15.3128C19.2499 15.3598 19.1637 15.3846 19.076 15.3846C18.9883 15.3846 18.902 15.3598 18.8258 15.3128C18.7496 15.2657 18.6861 15.198 18.6415 15.1163L16.0701 10.4425C16.0248 10.3592 16.0006 10.2645 16 10.1679C15.9994 10.0713 16.0223 9.97628 16.0666 9.89235C16.1108 9.80843 16.1747 9.73862 16.2518 9.68999C16.3289 9.64135 16.4166 9.61561 16.5058 9.61536Z" fill="#C21B17"/>
<path d="M16.8172 18.5956C15.265 20.2121 13.1601 21.1203 10.9653 21.1206C6.42518 21.1206 2.68945 17.2293 2.68945 12.5C2.68945 7.77065 6.42518 3.87927 10.9653 3.87927C15.5055 3.87927 19.2412 7.77065 19.2412 12.5" stroke="#C21B17" stroke-width="3" stroke-miterlimit="10"/>
</svg>
