<svg width="82" height="105" viewBox="0 0 82 105" fill="none" xmlns="http://www.w3.org/2000/svg">
<g clip-path="url(#clip0_357_1342)">
<path d="M72.9668 0.399902H9.02734V12.7078H72.9668V0.399902Z" fill="#C21B17"/>
<path d="M69.9384 12.1758H11.9248V24.084H69.9384V12.1758Z" fill="#A2E7FB"/>
<path d="M78.5121 105H3.48489C1.55831 105 0 99.8404 0 97.8941V32.2837C0 26.7063 4.47406 22.1865 9.9951 22.1865H72.0049C77.5259 22.1865 82 26.7063 82 32.2837V97.8941C82 99.8404 80.4386 105 78.5151 105H78.5121Z" fill="#CCEFFC"/>
<path d="M59.3862 52.8569H37.6276C35.1819 52.8569 33.1992 54.8592 33.1992 57.329C33.1992 59.7989 35.1819 61.8011 37.6276 61.8011H59.3862C61.8319 61.8011 63.8146 59.7989 63.8146 57.329C63.8146 54.8592 61.8319 52.8569 59.3862 52.8569Z" fill="#F7DC75"/>
<path d="M32.2983 81.5602L16.5493 66.3934C14.7791 64.6887 11.9764 64.7559 10.2895 66.5436C8.60249 68.3313 8.66999 71.1626 10.4402 72.8674L26.1893 88.0341C27.9595 89.7389 30.7622 89.6717 32.4491 87.8839C34.1361 86.0962 34.0686 83.265 32.2983 81.5602Z" fill="#F7DC75"/>
<path d="M26.0677 32.3583L10.6821 47.9011C8.95273 49.6482 8.95225 52.4802 10.6811 54.2267C12.4099 55.9732 15.2133 55.9727 16.9427 54.2256L32.3283 38.6828C34.0576 36.9358 34.0581 34.1037 32.3293 32.3572C30.6005 30.6108 27.7971 30.6113 26.0677 32.3583Z" fill="#F7DC75"/>
<path d="M65.3122 62.1665H43.5536C41.1079 62.1665 39.1252 64.1687 39.1252 66.6386C39.1252 69.1085 41.1079 71.1107 43.5536 71.1107H65.3122C67.7579 71.1107 69.7406 69.1085 69.7406 66.6386C69.7406 64.1687 67.7579 62.1665 65.3122 62.1665Z" fill="#FAAA1F"/>
<path d="M68.5382 80.7285H46.7797C44.334 80.7285 42.3513 82.7307 42.3513 85.2006C42.3513 87.6705 44.334 89.6727 46.7797 89.6727H68.5382C70.984 89.6727 72.9667 87.6705 72.9667 85.2006C72.9667 82.7307 70.984 80.7285 68.5382 80.7285Z" fill="#FAAA1F"/>
<path d="M65.3122 71.415H43.5536C41.1079 71.415 39.1252 73.4173 39.1252 75.8871C39.1252 78.357 41.1079 80.3592 43.5536 80.3592H65.3122C67.7579 80.3592 69.7406 78.357 69.7406 75.8871C69.7406 73.4173 67.7579 71.415 65.3122 71.415Z" fill="#F7DC75"/>
<path d="M59.3862 89.8418H37.6276C35.1819 89.8418 33.1992 91.844 33.1992 94.3139C33.1992 96.7838 35.1819 98.786 37.6276 98.786H59.3862C61.8319 98.786 63.8146 96.7838 63.8146 94.3139C63.8146 91.844 61.8319 89.8418 59.3862 89.8418Z" fill="#F7DC75"/>
<rect x="8" y="40" width="67" height="35" fill="#F5F5F5"/>
<path d="M23.6695 57.488H29.1735C30.3255 57.488 31.1895 57.232 31.7655 56.72C32.3415 56.208 32.6295 55.376 32.6295 54.224C32.6295 53.1147 32.3415 52.3147 31.7655 51.824C31.1895 51.312 30.3255 51.056 29.1735 51.056H23.6695V57.488ZM18.6455 47.152H30.9655C31.9895 47.152 32.9068 47.3227 33.7175 47.664C34.5495 47.984 35.2535 48.432 35.8295 49.008C36.4268 49.584 36.8748 50.256 37.1735 51.024C37.4935 51.7707 37.6535 52.5813 37.6535 53.456C37.6535 54.8 37.3655 55.9627 36.7895 56.944C36.2348 57.9253 35.3175 58.672 34.0375 59.184V59.248C34.6562 59.4187 35.1682 59.6853 35.5735 60.048C35.9788 60.3893 36.3095 60.8053 36.5655 61.296C36.8215 61.7653 37.0028 62.288 37.1095 62.864C37.2375 63.44 37.3228 64.016 37.3655 64.592C37.3868 64.9547 37.4082 65.3813 37.4295 65.872C37.4508 66.3627 37.4828 66.864 37.5255 67.376C37.5895 67.888 37.6748 68.3787 37.7815 68.848C37.9095 69.296 38.0908 69.68 38.3255 70H33.3015C33.0242 69.2747 32.8535 68.4107 32.7895 67.408C32.7255 66.4053 32.6295 65.4453 32.5015 64.528C32.3308 63.3333 31.9682 62.4587 31.4135 61.904C30.8588 61.3493 29.9522 61.072 28.6935 61.072H23.6695V70H18.6455V47.152ZM41.7393 47.152H48.8113L54.1553 62.864H54.2193L59.2753 47.152H66.3473V70H61.6433V53.808H61.5793L55.9792 70H52.1073L46.5073 53.968H46.4433V70H41.7393V47.152Z" fill="#B3222A"/>
</g>
<defs>
<clipPath id="clip0_357_1342">
<rect width="82" height="105" fill="white"/>
</clipPath>
</defs>
</svg>
