<svg width="89" height="91" viewBox="0 0 89 91" fill="none" xmlns="http://www.w3.org/2000/svg">
<g clip-path="url(#clip0_203_5018)">
<path d="M26.3584 18.5957H0V91H26.3584V18.5957Z" fill="#A9C1D8"/>
<path d="M64.4029 0H24.6719V91H64.4029V0Z" fill="#C2D8F0"/>
<path d="M88.2949 18.5957H64.4033V86.3366H88.2949V18.5957Z" fill="#A9C1D8"/>
<path d="M1.04173 72.5712C1.04173 73.1944 1.04889 73.8141 1.04173 74.4373C0.995182 77.76 3.24005 80.2457 6.2905 80.2457C9.33737 80.2457 11.7075 77.76 11.4784 74.4445C11.2099 70.5602 10.8339 66.6649 10.1537 62.8385C9.76701 60.6789 8.8397 58.5628 7.84437 56.5844C7.05311 55.0082 5.6711 55.0589 4.72231 56.5699C4.05279 57.6352 3.53364 58.831 3.14696 60.0303C1.83298 64.0995 1.33531 68.3136 1.04531 72.5712H1.04173Z" fill="#14A38B"/>
<path d="M6.28711 80.2456V91.0001" stroke="#1A1A1A" stroke-width="3" stroke-miterlimit="10"/>
<path d="M88.9641 87.1988C88.7958 88.2786 87.9688 88.6989 87.0773 88.7098C84.5532 88.7424 82.0254 88.7206 79.5013 88.7206C77.013 88.7243 74.521 88.7569 72.0363 88.717C70.4753 88.6917 69.5551 87.3328 69.9561 85.7892C70.2748 84.579 71.3954 83.9848 72.5125 84.4413C74.496 85.2385 75.0975 84.9486 75.9102 82.7238C76.5941 80.8432 77.7648 79.7417 79.5443 79.767C81.2628 79.7924 82.4121 80.8577 83.0745 82.702C83.8657 84.9124 84.5496 85.2892 86.3541 84.4884C87.242 84.0935 88.0798 84.1985 88.5882 85.0501C88.9247 85.6117 89.068 86.5212 88.9605 87.2024L88.9641 87.1988Z" fill="#14A38B"/>
<path d="M15.8756 27.6509H9.1123V37.5321H15.8756V27.6509Z" fill="#F2AC57"/>
<path d="M40.1646 27.6509H33.4014V37.5321H40.1646V27.6509Z" fill="#F2AC57"/>
<path d="M55.3951 27.6509H48.6318V37.5321H55.3951V27.6509Z" fill="#F2AC57"/>
<path d="M40.1646 8.87744H33.4014V18.7587H40.1646V8.87744Z" fill="#F2AC57"/>
<path d="M55.3951 8.87744H48.6318V18.7587H55.3951V8.87744Z" fill="#F2AC57"/>
<path d="M40.1646 45.9058H33.4014V55.787H40.1646V45.9058Z" fill="#F2AC57"/>
<path d="M55.3951 45.9058H48.6318V55.787H55.3951V45.9058Z" fill="#F2AC57"/>
<path d="M79.8306 27.6509H73.0674V37.5321H79.8306V27.6509Z" fill="#F2AC57"/>
<path d="M79.8306 45.9058H73.0674V55.787H79.8306V45.9058Z" fill="#F2AC57"/>
<path d="M79.8306 64.8892H73.0674V74.7704H79.8306V64.8892Z" fill="#F2AC57"/>
<path d="M15.8756 45.9058H9.1123V55.787H15.8756V45.9058Z" fill="#F2AC57"/>
<path d="M52.6307 64.8892H36.1289V90.9999H52.6307V64.8892Z" fill="#C21B17"/>
</g>
<defs>
<clipPath id="clip0_203_5018">
<rect width="89" height="91" fill="white"/>
</clipPath>
</defs>
</svg>
