<svg width="123" height="81" viewBox="0 0 123 81" fill="none" xmlns="http://www.w3.org/2000/svg">
<g clip-path="url(#clip0_203_4948)">
<path d="M123 65.2039C123 73.9269 115.854 81.0001 107.042 81.0001C105.058 81.0001 103.161 80.6401 101.411 79.9884C107.272 77.6504 111.416 71.9718 111.416 65.327C111.416 61.8952 110.421 59.384 108.543 56.7954C108.451 56.7635 108.368 56.7498 108.368 56.7498L106.522 56.8774L104.404 52.4795L104.441 52.2789C103.405 51.5725 102.281 50.9937 101.089 50.5471C102.931 49.8133 104.938 49.4077 107.042 49.4077C115.854 49.4077 123 56.4764 123 65.2039Z" fill="#4F5051"/>
<path d="M108.778 73.9814C108.865 74.2366 108.778 74.4234 108.598 74.6149C108.29 74.9384 108.014 75.2848 107.76 75.654C107.452 76.1097 106.987 76.4151 106.582 76.7797C105.831 77.445 105.035 78.0466 104.178 78.5799C103.594 78.9445 102.981 79.2498 102.346 79.5141C102.065 79.6326 101.77 79.742 101.563 79.9836C99.8597 79.3136 98.2758 78.4477 96.867 77.2719C95.1726 75.8545 93.8374 74.1682 92.8291 72.2176C92.1661 70.9279 91.7241 69.5652 91.4295 68.1615C91.1578 66.858 91.121 65.5227 91.1762 64.1919C91.2683 64.119 91.3512 64.037 91.4479 63.9731C91.8254 63.7407 92.0741 63.3807 92.3733 63.0662C93.2113 62.1821 93.5658 61.0381 94.1183 60.0036C94.7767 58.7685 95.6054 57.661 96.7012 56.7678C97.1248 56.426 97.5116 56.0295 98.0042 55.7788C98.0825 55.9019 98.1699 56.0249 98.239 56.1525C98.7915 57.1962 99.3394 58.2444 99.8919 59.2881C99.9518 59.402 100.2 59.5023 99.984 59.6481C99.6157 60.0309 99.3716 60.4912 99.1046 60.9424C98.7685 61.503 98.4738 62.0955 98.3541 62.7198C98.1469 63.7817 97.9766 64.8482 98.0687 65.9511C98.1515 66.9537 98.4278 68.002 98.7731 68.795C99.077 69.4831 99.4913 70.1257 99.984 70.7091C100.237 71.0099 100.463 71.3426 100.767 71.5796C101.393 72.0672 101.945 72.6551 102.7 72.9833C103.027 73.1246 103.313 73.3889 103.649 73.48C104.39 73.6851 105.113 73.9586 105.9 74.0452C106.554 74.1135 107.189 74.1728 107.843 74.1044C108.156 74.0725 108.46 73.9631 108.778 73.9814Z" fill="#707070"/>
<path d="M107.051 73.8676C112.022 73.8676 116.052 69.8785 116.052 64.9577C116.052 60.0369 112.022 56.0479 107.051 56.0479C102.08 56.0479 98.0498 60.0369 98.0498 64.9577C98.0498 69.8785 102.08 73.8676 107.051 73.8676Z" fill="#C7DDEA"/>
<path d="M99.8916 59.2882C99.3391 58.2445 98.7912 57.1963 98.2387 56.1527C98.1697 56.0205 98.0822 55.902 98.0039 55.779C98.317 55.4326 98.6807 55.0725 99.0767 54.8447C100.601 53.9605 102.092 53.0171 103.768 52.4247C104.026 52.3335 104.229 52.1968 104.487 52.1147C104.505 52.256 104.662 52.5112 104.726 52.6343C105.076 53.2997 105.417 53.9696 105.78 54.6305C106.08 55.1774 107.175 57.3012 107.364 57.6566C108.239 59.3247 109.095 61.0018 109.965 62.6744C110.647 63.9824 110.596 65.7279 109.293 66.9721C108.538 67.6922 107.645 68.0249 106.641 68.0203C105.771 68.0158 104.993 67.6512 104.335 67.0724C103.69 66.5027 103.34 65.7416 102.949 65.0124C102.083 63.3991 101.241 61.7675 100.38 60.1496C100.283 59.9673 99.9469 59.4067 99.887 59.2928L99.8916 59.2882Z" fill="#D0D1D2"/>
<path d="M95.8864 57.4334L93.7915 60.7968C92.9627 62.1276 91.8071 64.3152 90.5179 65.4636C90.2693 65.6824 89.9424 65.892 89.6109 65.892C89.5649 65.892 89.5419 65.892 89.4912 65.892V38.8389H101.78L104.51 38.9346C110.574 39.1442 116.062 42.5487 118.903 47.8581C119.538 48.7195 118.958 49.9363 117.88 49.9956L116.306 50.0822L110.864 50.6701C105.265 51.2717 100.012 53.6507 95.8864 57.4425V57.4334Z" fill="#AA1B17"/>
<path d="M61.7463 27.887H30.7926C14.3742 27.887 0.883998 40.7346 0.257833 56.9774L0 63.5766L42.8232 65.8873H89.6107L89.6383 63.9048C89.781 54.211 94.1826 45.2875 101.687 39.0574L101.779 38.9845L88.3675 15.9966H80.6418C80.6418 15.9966 83.8739 24.952 84.919 28.7302C85.9642 32.5083 87.106 39.1531 86.664 47.507C86.5029 50.5468 86.0471 52.8392 85.536 54.5164C84.8085 56.8954 82.6032 58.5269 80.0939 58.5269H70.2088C60.6966 58.5269 54.0528 49.1978 57.2527 40.3289L61.7417 27.8825L61.7463 27.887Z" fill="#FD5B5B"/>
<path d="M0 61.2068C0.405166 61.1385 0.257833 60.7739 0.271645 60.5733C0.308478 60.0766 0.382145 59.598 0.538686 59.1286C0.759686 58.445 0.805727 57.7112 1.07277 57.0367C1.28456 56.5035 1.45031 55.952 1.69433 55.4371C2.16395 54.4572 2.64278 53.4773 3.24132 52.5613C3.96418 51.4447 4.7653 50.401 5.68153 49.4303C6.78652 48.259 8.03425 47.2701 9.37406 46.3905C10.2627 45.8071 11.1927 45.2784 12.1918 44.8865C13.1357 44.5173 14.0887 44.1619 15.0694 43.893C15.76 43.7061 16.4645 43.5831 17.1597 43.4281C18.1726 43.2048 19.1901 43.1866 20.2122 43.1547C24.2639 43.0225 28.3156 43.0954 32.3672 43.1136C34.0293 43.1228 35.696 43.2823 37.2983 43.7927C37.4594 43.8428 37.6205 43.8793 37.7863 43.9249C37.7771 44.0707 37.8692 44.1527 37.9797 44.2348C38.3618 44.5219 38.6289 44.9047 38.8545 45.3103C39.2412 46.0031 39.3425 46.7733 39.3425 47.5435C39.3517 53.6596 39.3471 59.7712 39.3471 65.8873C39.2458 65.8873 39.1491 65.8919 39.0478 65.8919C37.7817 65.8965 36.5202 65.901 35.254 65.9101C35.1711 65.8372 35.0745 65.8418 34.9778 65.8463C34.6739 65.86 34.3654 65.8691 34.0615 65.8782C34.0431 65.8782 34.0247 65.8782 34.0017 65.8782C33.8912 65.8782 33.7807 65.8873 33.6702 65.8873C28.6977 65.8873 23.7298 65.8873 18.7573 65.8873C18.3568 65.8873 17.9562 65.86 17.5602 65.8463C17.4497 65.8281 17.3392 65.8099 17.2426 65.8828C17.0952 65.8873 16.9433 65.8965 16.796 65.8965C14.6642 65.8782 12.5279 65.9284 10.3962 65.8737C10.3778 65.8737 10.364 65.8737 10.3501 65.8873C10.0831 65.8235 9.81145 65.8463 9.54441 65.8873C9.526 65.8873 9.51218 65.8873 9.49377 65.8873C7.22392 65.8873 4.95867 65.9056 2.68883 65.8919C2.17777 65.8919 1.67131 65.7871 1.21089 65.5364C0.566311 65.1809 0.234812 64.6021 0.00460415 63.9413V61.2114L0 61.2068Z" fill="#C21B17"/>
<path d="M23.4492 19.5788C23.4906 19.433 23.6702 19.4056 23.73 19.2735C23.7577 19.2507 23.7853 19.2279 23.8129 19.2005C23.8267 19.2005 23.8359 19.196 23.8359 19.1778C23.882 19.1276 23.9234 19.0821 23.9695 19.0319C23.9925 19.0137 24.0155 18.9955 24.0339 18.9772C24.1905 18.8906 24.3516 18.7995 24.5081 18.7129C24.5312 18.7038 24.5542 18.6901 24.5772 18.681H24.6048L24.6278 18.6673C24.6923 18.6764 24.7476 18.6537 24.7982 18.6126C24.9225 18.5898 25.0422 18.5671 25.1665 18.5443H25.1942H25.2218C25.5625 18.6081 25.894 18.5033 26.2301 18.5033C31.7919 18.5033 37.3537 18.5033 42.9156 18.5033C44.4441 18.5033 45.9773 18.4987 47.5059 18.4941C47.5243 18.4987 47.5473 18.5078 47.5657 18.5124C47.598 18.6764 47.7269 18.7539 47.8604 18.8268C48.0354 18.9225 48.1873 19.0456 48.3439 19.1732C49.1496 19.8614 49.4765 20.8139 49.7757 21.7618C50.1993 23.0881 50.4203 24.4599 50.5262 25.8545C50.5769 26.4925 50.5262 27.1397 50.6874 27.764C50.6689 27.7732 50.6459 27.7823 50.6275 27.7868C50.5584 27.7868 50.4894 27.7732 50.4203 27.7732C44.1034 27.7732 37.7911 27.7732 31.4742 27.7732C31.0322 27.7732 30.5948 27.8005 30.1574 27.8415C29.8582 27.919 29.5543 27.8598 29.255 27.8962L28.9327 27.8598C28.6611 27.7732 28.3848 27.6866 28.1132 27.6C27.9981 27.5726 27.8876 27.5498 27.7725 27.5225C27.7357 27.4769 27.685 27.4678 27.6298 27.4678C27.3903 27.3493 27.1509 27.2354 26.9069 27.1169C26.7412 27.0166 26.5708 26.9164 26.4051 26.8161C26.4051 26.7979 26.3912 26.7887 26.3728 26.7887C25.9492 26.3558 25.4336 26.0276 25.033 25.5673C24.4022 24.8427 23.9372 24.0224 23.5551 23.1519C23.5459 23.1245 23.5413 23.0972 23.5321 23.0698C23.4998 22.883 23.4538 22.7007 23.3663 22.5321C23.3617 22.5138 23.3571 22.4956 23.3479 22.4774C23.2098 21.8302 23.0947 21.1831 23.1223 20.5177C23.1361 20.504 23.1499 20.4858 23.1591 20.4721C23.1821 20.4083 23.2052 20.3445 23.2236 20.2761C23.2788 20.2533 23.2926 20.2123 23.2834 20.1576C23.196 19.9252 23.44 19.7793 23.44 19.5743L23.4492 19.5788Z" fill="#398DA5"/>
<path d="M50.683 63.7638C50.6876 64.142 50.6922 64.5157 50.6968 64.894V65.4865C50.6968 65.6232 50.6968 65.7554 50.6876 65.8921C50.4942 66.0106 50.2916 65.8967 50.0936 65.8967C47.7823 65.9058 45.4665 65.8967 43.1552 65.8967C43.0447 65.8967 42.9342 65.8967 42.8237 65.8876C42.6257 65.9377 42.4047 65.8283 42.2113 65.9559C42.11 65.8739 41.9903 65.8967 41.8706 65.8967C41.0281 65.8967 40.1855 65.8876 39.3429 65.8876C39.3429 59.7714 39.3429 53.6553 39.3383 47.5392C39.3337 46.7689 39.2324 45.9987 38.8503 45.306C38.6247 44.9004 38.353 44.513 37.9709 44.2304C37.8604 44.1484 37.7729 44.0664 37.7775 43.9205C37.9801 43.9068 38.1412 44.0253 38.3162 44.0937C38.9055 44.317 39.5179 44.5084 40.0796 44.7864C40.7472 45.1146 41.3688 45.5202 42.0133 45.8848C42.5981 46.2084 43.0815 46.6641 43.611 47.0561C44.0208 47.3614 44.3707 47.7351 44.7896 48.0268C45.227 48.3322 45.5079 48.7879 45.8808 49.1525C46.3781 49.6538 46.7648 50.2463 47.2575 50.7476C47.3726 50.8707 47.3542 51.0393 47.4508 51.1715C47.9895 51.9417 48.4776 52.7392 48.8827 53.5915C49.2373 54.348 49.5365 55.1182 49.8128 55.8976C50.1259 56.768 50.3515 57.6704 50.4574 58.5956C50.5126 59.1015 50.6323 59.6074 50.6369 60.1178C50.6415 60.4642 50.6553 60.806 50.6922 61.1478C50.6922 61.681 50.6922 62.2142 50.6922 62.7474C50.6922 63.0847 50.683 63.422 50.6784 63.7592L50.683 63.7638Z" fill="#AA1B17"/>
<path d="M81.3875 8.75058C81.9446 8.60929 82.4925 8.44067 83.0588 8.33129C84.1776 8.11253 85.2734 7.80262 86.3784 7.52917C87.2578 7.31041 88.1372 7.10988 89.0166 6.89568C89.279 6.83188 89.5369 6.78175 89.7809 6.64046C89.896 6.57666 90.1032 6.59033 90.2689 6.57666C90.2689 6.62679 90.2689 6.68148 90.2689 6.73161C90.2597 6.7544 90.2551 6.78175 90.2459 6.80453C90.2459 7.00962 90.2367 7.21926 90.2367 7.42435C90.2367 10.2682 90.2367 13.1121 90.2367 15.9559C90.2183 16.038 90.2137 16.12 90.2597 16.1975V16.2066C90.2551 16.2659 90.2781 16.3023 90.338 16.3069C90.338 16.3069 90.3288 16.3433 90.3288 16.3616C89.8546 16.3661 89.3757 16.3707 88.9015 16.3798C88.8278 16.3843 88.7588 16.3069 88.6851 16.3798C88.6575 16.3798 88.6299 16.3707 88.6022 16.3707C88.3812 16.3707 88.1602 16.3707 87.9438 16.3707C87.7459 16.3707 87.5433 16.3707 87.3453 16.3707C85.6832 16.3707 84.0211 16.3707 82.359 16.3707C82.1794 16.3707 81.9999 16.3707 81.8203 16.3707C81.5579 16.3707 81.3 16.3707 81.0376 16.3707C80.9685 16.3935 80.8995 16.4208 80.8304 16.4436C80.4851 16.2841 80.1214 16.3843 79.7669 16.3661C78.9059 16.316 78.4363 15.8876 78.3856 15.0399C78.3672 14.7345 78.3856 14.4292 78.3856 14.1238C78.3948 14.019 78.4224 13.9096 78.3534 13.8094C78.358 12.9571 78.3626 12.1049 78.3672 11.2526C78.3948 11.1159 78.4316 10.9746 78.335 10.847C78.3764 10.806 78.4362 10.7695 78.4547 10.724C78.7309 9.76689 79.4169 9.27013 80.347 9.02402C80.6462 8.94655 80.9593 8.92832 81.2356 8.76425C81.2908 8.75969 81.3461 8.75058 81.3967 8.74602L81.3875 8.75058Z" fill="#AA1B17"/>
<path d="M50.6919 27.764C50.5262 27.1351 50.5768 26.4879 50.5308 25.8544C50.4249 24.4644 50.2039 23.0926 49.7803 21.7618C49.481 20.8138 49.1541 19.8613 48.3484 19.1732C48.1965 19.0455 48.0445 18.9179 47.865 18.8268C47.7315 18.7539 47.6071 18.6764 47.5703 18.5123L47.9893 18.4941C49.5087 18.4485 51.0326 18.4622 52.552 18.485C52.5934 18.485 52.6303 18.4895 52.6717 18.4941C52.8513 18.5214 53.0262 18.5852 53.2104 18.5579C53.3255 18.5989 53.4452 18.6308 53.5695 18.608H53.6294C53.7905 18.6627 53.9517 18.7402 54.1082 18.608C54.3246 18.6992 54.5226 18.8405 54.7666 18.8496C54.8219 18.8815 54.8357 18.8222 54.8679 18.804C55.0613 18.9863 55.2823 19.0774 55.5539 19.0455C55.6414 19.0592 55.6782 19.1823 55.7887 19.1458C55.9084 19.2051 56.0281 19.2643 56.1479 19.3235C56.2077 19.3509 56.263 19.3782 56.3228 19.4056C56.4011 19.4466 56.4794 19.4922 56.5622 19.5332C56.8293 19.6745 57.0595 19.8796 57.3541 19.9707C57.437 20.0072 57.4785 20.1165 57.5936 20.1074C57.8468 20.2487 58.0171 20.513 58.3072 20.5996C58.3809 20.7637 58.5098 20.8731 58.6709 20.9415C58.8735 21.1192 59.0715 21.2924 59.2741 21.4701C59.3339 21.5339 59.3938 21.5932 59.449 21.657C59.5043 21.7709 59.5687 21.8757 59.6838 21.9441C60.0982 22.4454 60.4573 22.9832 60.7474 23.562C60.8671 23.799 60.9914 24.0314 61.1157 24.2639C61.1388 24.3231 61.1618 24.3823 61.1802 24.4416C61.2216 24.674 61.2631 24.911 61.4426 25.0888C61.3644 25.1936 61.4196 25.2893 61.4703 25.385C61.5163 25.5263 61.5669 25.663 61.613 25.8043C61.6176 25.8225 61.6268 25.8453 61.6314 25.8635C61.659 25.982 61.6866 26.1005 61.7143 26.219C61.7235 26.3193 61.7327 26.415 61.7419 26.5152C61.7051 26.8571 61.834 27.1761 61.88 27.5042C61.8984 27.6318 61.9951 27.7913 61.7926 27.8734C61.7741 27.8734 61.7511 27.8734 61.7327 27.8734C61.6314 27.7184 61.4657 27.764 61.3229 27.764C59.8358 27.764 58.344 27.764 56.8569 27.764C54.8173 27.764 52.7822 27.7685 50.7426 27.7731C50.7196 27.764 50.6965 27.7549 50.6735 27.7458L50.6919 27.764Z" fill="#0880AE"/>
<path d="M90.2324 15.9555C90.2324 13.1116 90.2324 10.2678 90.2324 7.42392C90.2324 7.21883 90.237 7.00919 90.2416 6.8041C90.2508 6.78131 90.2554 6.75397 90.2647 6.73118C90.2647 6.68105 90.2647 6.62636 90.2647 6.57623C90.2969 6.44406 90.3982 6.40304 90.5225 6.39848C90.5777 6.56255 90.7251 6.52609 90.8264 6.49875C91.2085 6.39848 91.6091 6.33468 91.9728 6.20707C92.4332 6.03844 92.9443 6.07946 93.3725 5.81968C93.4047 5.80145 93.4507 5.7969 93.4876 5.80145C93.796 5.83336 94.0493 5.69663 94.3025 5.55991C94.6524 5.59181 94.9701 5.50066 95.2648 5.31836C95.5226 5.22266 95.785 5.22266 96.0429 5.31836C96.0935 5.42318 96.1902 5.47787 96.2869 5.53256C96.6782 5.75132 96.8624 6.09313 96.8762 6.52609C96.8808 6.70383 96.8302 6.87702 96.8302 7.05476C96.8302 9.93964 96.8256 12.8291 96.8256 15.714C96.7795 15.7413 96.7657 15.7823 96.7657 15.8325C96.5033 15.9099 96.3329 16.1241 96.0981 16.2426C94.1782 16.27 92.2536 16.2107 90.3337 16.311C90.3337 16.2563 90.3107 16.2198 90.2554 16.2107V16.2016C90.2831 16.1196 90.2831 16.0375 90.2324 15.9601V15.9555Z" fill="#E0EEFB"/>
<path d="M66.7922 5.4416C66.5113 5.35957 66.2305 5.27753 65.9496 5.20006C65.9082 5.17727 65.8713 5.15904 65.8299 5.13625C65.5721 4.94028 65.3142 4.73975 65.0564 4.54378C65.0426 4.46175 65.0104 4.39794 64.9367 4.35237C64.7986 4.10626 64.6328 3.87383 64.5592 3.59583C64.5592 3.5776 64.5546 3.55937 64.55 3.54114C64.5361 3.48645 64.5177 3.43631 64.5039 3.38163H64.5131L64.5039 3.37251C64.5039 3.34517 64.4993 3.32238 64.4947 3.29503C64.5039 3.23579 64.4947 3.18565 64.4533 3.14008C64.4533 3.05349 64.4533 2.9669 64.4487 2.8803C64.4487 2.76181 64.4763 2.63876 64.4072 2.52482C64.4072 2.4838 64.4072 2.44279 64.4072 2.40177C64.4441 2.36531 64.4441 2.32429 64.4072 2.28783C64.4072 2.24681 64.4072 2.2058 64.4072 2.16478C64.4901 1.83664 64.4302 1.49939 64.4487 1.16669C64.4441 1.12568 64.4395 1.0801 64.4349 1.03908C64.4855 0.446611 64.8815 0.200508 65.4063 0.0774559C65.6273 0.0774559 65.8483 0.0774559 66.0693 0.0774559C67.027 0.0273236 67.9847 0.0409961 68.9423 0.0318811C70.2039 0.0227662 71.4654 0.050111 72.7223 -2.12186e-05C73.5235 -0.0319235 74.1404 0.19595 74.6515 0.815767C75.3329 1.64067 76.0788 2.40633 76.7648 3.22667C77.3173 3.8875 77.9204 4.51188 78.3854 5.24563C78.3532 5.26386 78.321 5.30032 78.2841 5.30488C76.9582 5.4416 75.6276 5.3778 74.3016 5.35045C74.0852 5.3459 73.947 5.40514 73.7905 5.50541C73.7767 5.50541 73.7629 5.50541 73.7491 5.50997C73.7214 5.46439 73.68 5.4416 73.6293 5.43705C73.6109 5.43705 73.5925 5.42793 73.5741 5.42337C73.2794 5.35045 72.9802 5.39603 72.6855 5.39603C71.9811 5.40514 71.272 5.42337 70.5676 5.4416C70.4295 5.4416 70.2867 5.4416 70.1486 5.4416C70.0703 5.4416 69.9875 5.4416 69.9092 5.4416C68.8687 5.4416 67.8281 5.4416 66.7876 5.43705L66.7922 5.4416Z" fill="#0880AE"/>
<path d="M81.1023 17.2317C81.0747 17.2409 81.0517 17.2454 81.0241 17.2545C80.8952 17.2682 80.7662 17.2728 80.6604 17.3685C80.5406 17.3821 80.4117 17.3366 80.3012 17.4232C80.071 17.4232 79.8592 17.4961 79.6428 17.5599C79.5185 17.651 79.3436 17.5599 79.2239 17.6601C78.524 17.7376 77.838 17.8971 77.1428 18.0247C76.5258 18.1387 75.9135 18.2572 75.3011 18.3802C74.5 18.5352 73.6943 18.6719 72.8931 18.836C72.2854 18.959 71.6684 19.0547 71.0561 19.1732C70.8351 19.2142 70.6141 19.2507 70.3931 19.2917C70.103 19.2689 69.836 19.4011 69.5551 19.4102C69.4354 19.4102 69.3157 19.4193 69.196 19.4193C69.0164 19.392 68.8369 19.3601 68.6573 19.3327C68.6297 19.2872 68.5837 19.2826 68.533 19.2826L68.5238 19.2689H68.5054C68.4133 19.2188 68.3258 19.1641 68.2337 19.114C67.3129 18.4076 67.2531 17.3958 67.7687 16.5982C67.9805 16.2656 68.2936 16.0605 68.6803 15.9556C69.5643 15.7141 70.476 15.6229 71.3646 15.4133C71.8756 15.2903 72.3959 15.2219 72.907 15.1034C73.3397 15.0031 73.7956 14.9667 74.2376 14.8755C74.3527 14.9257 74.4355 14.8254 74.5368 14.8163C74.6013 14.8254 74.6657 14.8163 74.7164 14.7753C74.7947 14.7753 74.8775 14.7798 74.9558 14.7661C75.8352 14.593 76.7146 14.4061 77.594 14.2466C77.815 14.2056 78.036 14.2101 78.1971 14.0278C78.2524 14.0643 78.3122 14.1008 78.3675 14.1372C78.3675 14.4426 78.3445 14.7525 78.3675 15.0533C78.4227 15.901 78.8878 16.3294 79.7487 16.3795C80.1033 16.3977 80.467 16.2975 80.8123 16.457C80.909 16.7213 81.0057 16.9811 81.0977 17.2454L81.1023 17.2317Z" fill="#707070"/>
<path d="M73.7956 5.50538C73.9522 5.40512 74.0903 5.34587 74.3067 5.35043C75.6327 5.37777 76.9633 5.44158 78.2893 5.30485C78.3261 5.30485 78.3583 5.26839 78.3906 5.24561C79.3252 6.3713 80.3059 7.46054 81.1669 8.64092C81.1853 8.68194 81.2037 8.72296 81.2221 8.76853C80.9505 8.9326 80.6328 8.94627 80.3335 9.02831C79.4035 9.27441 78.7175 9.77118 78.4412 10.7282C78.4274 10.7784 78.3629 10.8103 78.3215 10.8513C78.2985 10.8513 78.2801 10.8467 78.257 10.8422C78.2386 10.8285 78.2202 10.8148 78.2018 10.8012C77.8795 10.4183 77.5572 10.0401 77.2303 9.65724C77.1935 9.61622 77.1567 9.57521 77.1198 9.52963C76.5167 8.79132 75.9135 8.04845 75.3012 7.3147C74.8638 6.78603 74.4172 6.26192 73.9752 5.73781C73.9383 5.66034 73.8831 5.60565 73.8094 5.56919H73.8002C73.8002 5.5464 73.791 5.52817 73.791 5.50994L73.7956 5.50538Z" fill="#398DA5"/>
<path d="M39.3425 65.8872C40.1851 65.8872 41.0277 65.8963 41.8702 65.9009C41.9853 65.9009 42.1096 65.8735 42.2109 65.9601C42.2017 66.466 42.0728 66.9628 42.0268 67.4641C41.9485 68.3163 41.7045 69.1367 41.4881 69.9616C41.3592 70.4675 41.1105 70.9506 40.8941 71.4337C40.2588 72.851 39.453 74.1636 38.4447 75.3531C37.9429 75.9456 37.3858 76.4833 36.8149 77.0075C36.6353 77.167 36.4005 77.2581 36.2762 77.4769C36.0322 77.5635 35.8894 77.7822 35.673 77.9053C35.627 77.8916 35.6132 77.9235 35.5994 77.9554C35.5625 77.9782 35.5257 78.0055 35.4889 78.0283C35.4474 78.0101 35.4336 78.0374 35.4244 78.0693L35.0699 78.3246C35.0238 78.3063 35.0146 78.3428 34.9962 78.3701C34.918 78.4157 34.8443 78.4613 34.766 78.5069C34.72 78.4841 34.7108 78.5205 34.697 78.5479C34.5634 78.639 34.4483 78.7575 34.2826 78.8031C34.2365 78.7803 34.2273 78.8168 34.2135 78.8441C34.1537 78.9261 33.9833 78.8623 33.9787 79.0173C33.9419 79.0401 33.9004 79.0583 33.8636 79.0811C33.8222 79.0902 33.7807 79.0948 33.7393 79.1039C33.6979 79.0765 33.6886 79.1084 33.6794 79.1358C33.5781 79.195 33.4815 79.2588 33.3802 79.3181C33.3203 79.3454 33.2605 79.3682 33.2006 79.3956C33.0993 79.4366 32.998 79.473 32.9013 79.5141C32.7954 79.5596 32.6803 79.5824 32.6021 79.6736C32.4639 79.7328 32.3212 79.7875 32.1831 79.8468C31.9437 79.9333 31.7043 80.0154 31.4648 80.102C31.3958 80.0837 31.3221 80.0746 31.2853 80.1612C30.5164 80.4256 29.7291 80.6124 28.9279 80.7537C28.8497 80.7674 28.776 80.7947 28.7023 80.8129C28.0393 80.8494 27.381 80.8859 26.718 80.9223C26.5384 80.9178 26.3588 80.9132 26.1793 80.9086C26.078 80.7583 25.9767 80.7583 25.8754 80.9086C25.7971 80.9132 25.7142 80.9223 25.636 80.9269C23.9969 80.9269 22.4131 80.6398 20.8799 80.0564C20.8845 79.8559 20.9858 79.7283 21.1746 79.6508C21.3495 79.5779 21.5153 79.4867 21.6948 79.4184C22.8551 78.9763 23.8772 78.2881 24.8395 77.5452C25.9445 76.693 26.9666 75.7222 27.7723 74.5646C27.9012 74.3778 28.0163 74.2046 27.9196 73.9722C28.7254 73.7352 29.5357 73.5255 30.2908 73.1336C31.2254 72.6459 32.0726 72.0535 32.7862 71.2924C33.394 70.6452 33.9511 69.9616 34.3701 69.164C34.6877 68.567 34.7936 67.9062 35.0377 67.2909C35.2034 66.8625 35.1804 66.3657 35.2448 65.8963C36.511 65.8918 37.7725 65.8872 39.0387 65.8781C39.14 65.8781 39.2367 65.8781 39.3379 65.8735L39.3425 65.8872Z" fill="#4F5051"/>
<path d="M27.929 73.9816C28.0257 74.214 27.9106 74.3872 27.7816 74.5741C26.9759 75.7317 25.9538 76.7024 24.8488 77.5547C23.8865 78.2975 22.8644 78.9857 21.7042 79.4278C21.5292 79.4962 21.3588 79.5873 21.1839 79.6602C20.9951 79.7377 20.8938 79.8607 20.8892 80.0658C19.9454 79.6146 18.9693 79.2364 18.0715 78.6895C14.8578 76.7298 12.5925 74.0044 11.2896 70.4997C10.866 69.3649 10.6173 68.1891 10.447 66.995C10.3963 66.6304 10.4194 66.2704 10.3779 65.9103C10.3871 65.9012 10.3917 65.8921 10.3871 65.8784C12.5189 65.9331 14.6552 65.883 16.7869 65.9012C16.9342 65.9012 17.0862 65.8921 17.2335 65.8875C17.2519 65.8921 17.2704 65.9012 17.2934 65.9058C17.3118 66.2476 17.2934 66.5894 17.367 66.9312C17.6617 68.2301 18.1958 69.415 19.0153 70.4769C20.4242 72.2999 22.252 73.4712 24.5219 73.9406C25.0422 74.0454 25.5716 74.1548 26.1149 74.1593C26.7273 74.1639 27.3258 74.0409 27.929 73.9907V73.9816Z" fill="#707070"/>
<path d="M27.9286 73.9813C27.3208 74.0315 26.7269 74.1545 26.1145 74.1499C25.5712 74.1454 25.0464 74.0406 24.5215 73.9312C22.2516 73.4663 20.4192 72.2951 19.0149 70.4675C18.1954 69.4056 17.6613 68.2207 17.3666 66.9218C17.2884 66.58 17.3114 66.2382 17.293 65.8964C17.3804 65.8781 17.4679 65.8599 17.5554 65.8417C17.956 65.8553 18.3565 65.8827 18.7525 65.8827C23.725 65.8827 28.6929 65.8827 33.6653 65.8827C33.7758 65.8827 33.8863 65.8781 33.9968 65.8736C34.0153 65.8736 34.0337 65.8736 34.0567 65.8736C34.3606 65.8645 34.669 65.8553 34.9729 65.8417C35.0742 65.8417 35.1709 65.8326 35.2492 65.9055C35.1893 66.3703 35.2123 66.8717 35.042 67.3001C34.8026 67.9199 34.6921 68.5762 34.3744 69.1732C33.9554 69.9707 33.3937 70.6544 32.7906 71.3015C32.0769 72.0626 31.2297 72.6551 30.2951 73.1427C29.54 73.5347 28.7297 73.7398 27.924 73.9813H27.9286Z" fill="#C7DDEA"/>
</g>
<defs>
<clipPath id="clip0_203_4948">
<rect width="123" height="81" fill="white"/>
</clipPath>
</defs>
</svg>
