<svg width="609" height="628" viewBox="0 0 609 628" fill="none" xmlns="http://www.w3.org/2000/svg">
<g filter="url(#filter0_dd_205_8922)">
<path d="M310 588C464.087 588 589 463.087 589 309C589 154.913 464.087 30 310 30C155.913 30 31 154.913 31 309C31 463.087 155.913 588 310 588Z" fill="#FEFEFF"/>
</g>
<g filter="url(#filter1_i_205_8922)">
<path d="M310 558C447.519 558 559 446.519 559 309C559 171.481 447.519 60 310 60C172.481 60 61 171.481 61 309C61 446.519 172.481 558 310 558Z" fill="#575757"/>
</g>
<path d="M140.451 445.595C163.433 474.526 193.361 497.134 227.429 511.307C261.497 525.48 298.595 530.756 335.249 526.644C371.903 522.532 406.921 509.165 437.023 487.791C467.125 466.416 491.327 437.731 507.357 404.417C523.387 371.103 530.718 334.254 528.661 297.322C526.604 260.39 515.227 224.589 495.599 193.271C475.971 161.955 448.736 136.148 416.451 118.264C384.166 100.379 347.883 91 311 91" stroke="url(#paint0_angular_205_8922)" stroke-width="60" stroke-linecap="round"/>
<g filter="url(#filter2_d_205_8922)">
<path d="M309.5 500C414.71 500 500 414.71 500 309.5C500 204.29 414.71 119 309.5 119C204.29 119 119 204.29 119 309.5C119 414.71 204.29 500 309.5 500Z" fill="white"/>
</g>
<path d="M256.812 280.168V294.248C253.057 299.539 249.686 305.213 246.7 311.272C243.798 317.331 241.238 323.56 239.02 329.96C236.801 336.36 234.966 342.888 233.516 349.544C232.065 356.115 230.956 362.6 230.188 369H210.86C211.542 363.539 212.566 357.821 213.932 351.848C215.297 345.789 217.089 339.645 219.308 333.416C221.612 327.187 224.385 320.915 227.628 314.6C230.87 308.285 234.71 302.099 239.148 296.04H201.004V280.168H256.812ZM261.992 326.76C261.992 320.445 262.205 314.387 262.632 308.584C263.058 302.781 264.21 297.661 266.088 293.224C267.965 288.701 270.781 285.117 274.536 282.472C278.376 279.741 283.666 278.376 290.408 278.376C295.954 278.376 300.52 279.187 304.104 280.808C307.773 282.344 310.674 284.861 312.808 288.36C315.026 291.859 316.562 296.424 317.416 302.056C318.354 307.603 318.824 314.387 318.824 322.408C318.824 328.723 318.61 334.781 318.184 340.584C317.757 346.387 316.605 351.549 314.728 356.072C312.85 360.509 309.992 364.008 306.152 366.568C302.397 369.128 297.149 370.408 290.408 370.408C284.946 370.408 280.381 369.683 276.712 368.232C273.042 366.781 270.098 364.307 267.88 360.808C265.746 357.309 264.21 352.787 263.272 347.24C262.418 341.608 261.992 334.781 261.992 326.76ZM280.424 330.728C280.424 336.445 280.552 341.139 280.808 344.808C281.149 348.392 281.704 351.251 282.472 353.384C283.24 355.432 284.264 356.84 285.544 357.608C286.824 358.376 288.445 358.76 290.408 358.76C292.456 358.76 294.12 358.291 295.4 357.352C296.68 356.328 297.661 354.664 298.344 352.36C299.112 349.971 299.624 346.813 299.88 342.888C300.221 338.963 300.392 334.099 300.392 328.296V318.44C300.392 312.723 300.221 308.072 299.88 304.488C299.624 300.819 299.112 297.96 298.344 295.912C297.576 293.779 296.552 292.328 295.272 291.56C293.992 290.792 292.37 290.408 290.408 290.408C288.36 290.408 286.696 290.92 285.416 291.944C284.136 292.883 283.112 294.547 282.344 296.936C281.661 299.24 281.149 302.355 280.808 306.28C280.552 310.205 280.424 315.069 280.424 320.872V330.728ZM391.076 276.2H402.468L350.5 372.584H339.108L391.076 276.2ZM338.212 302.312C338.212 307.432 338.51 311.272 339.108 313.832C339.705 316.307 341.284 317.544 343.844 317.544C346.404 317.544 347.982 316.307 348.58 313.832C349.177 311.272 349.476 307.432 349.476 302.312C349.476 297.704 349.177 294.205 348.58 291.816C347.982 289.341 346.404 288.104 343.844 288.104C341.284 288.104 339.705 289.341 339.108 291.816C338.51 294.205 338.212 297.704 338.212 302.312ZM324.644 302.824C324.644 298.728 324.9 295.144 325.411 292.072C325.924 289 326.862 286.44 328.228 284.392C329.678 282.344 331.641 280.851 334.116 279.912C336.676 278.888 339.918 278.376 343.844 278.376C347.854 278.376 351.097 278.888 353.572 279.912C356.046 280.851 357.966 282.344 359.332 284.392C360.782 286.44 361.764 289 362.276 292.072C362.788 295.144 363.044 298.728 363.044 302.824C363.044 306.92 362.788 310.504 362.276 313.576C361.764 316.648 360.782 319.208 359.332 321.256C357.966 323.304 356.046 324.84 353.572 325.864C351.097 326.803 347.854 327.272 343.844 327.272C339.918 327.272 336.676 326.803 334.116 325.864C331.641 324.84 329.678 323.304 328.228 321.256C326.862 319.208 325.924 316.648 325.411 313.576C324.9 310.504 324.644 306.92 324.644 302.824ZM378.916 346.344C378.916 342.248 379.172 338.664 379.684 335.592C380.196 332.52 381.134 329.96 382.5 327.912C383.95 325.864 385.913 324.371 388.388 323.432C390.948 322.408 394.19 321.896 398.116 321.896C402.126 321.896 405.369 322.408 407.844 323.432C410.318 324.371 412.238 325.864 413.604 327.912C415.054 329.96 416.036 332.52 416.548 335.592C417.06 338.664 417.316 342.248 417.316 346.344C417.316 350.525 417.06 354.152 416.548 357.224C416.036 360.211 415.054 362.728 413.604 364.776C412.238 366.739 410.318 368.147 407.844 369C405.369 369.939 402.126 370.408 398.116 370.408C394.19 370.408 390.948 369.939 388.388 369C385.913 368.147 383.95 366.739 382.5 364.776C381.134 362.728 380.196 360.211 379.684 357.224C379.172 354.152 378.916 350.525 378.916 346.344ZM392.484 345.832C392.484 350.952 392.782 354.792 393.38 357.352C393.977 359.827 395.556 361.064 398.116 361.064C400.676 361.064 402.254 359.827 402.852 357.352C403.449 354.792 403.748 350.952 403.748 345.832C403.748 341.224 403.449 337.725 402.852 335.336C402.254 332.861 400.676 331.624 398.116 331.624C395.556 331.624 393.977 332.861 393.38 335.336C392.782 337.725 392.484 341.224 392.484 345.832Z" fill="#C21B17"/>
<circle cx="139" cy="444" r="15" fill="white"/>
<defs>
<filter id="filter0_dd_205_8922" x="0" y="0" width="609" height="628" filterUnits="userSpaceOnUse" color-interpolation-filters="sRGB">
<feFlood flood-opacity="0" result="BackgroundImageFix"/>
<feColorMatrix in="SourceAlpha" type="matrix" values="0 0 0 0 0 0 0 0 0 0 0 0 0 0 0 0 0 0 127 0" result="hardAlpha"/>
<feOffset dx="-11" dy="-10"/>
<feGaussianBlur stdDeviation="10"/>
<feComposite in2="hardAlpha" operator="out"/>
<feColorMatrix type="matrix" values="0 0 0 0 1 0 0 0 0 0.931637 0 0 0 0 0.887533 0 0 0 1 0"/>
<feBlend mode="normal" in2="BackgroundImageFix" result="effect1_dropShadow_205_8922"/>
<feColorMatrix in="SourceAlpha" type="matrix" values="0 0 0 0 0 0 0 0 0 0 0 0 0 0 0 0 0 0 127 0" result="hardAlpha"/>
<feOffset dy="20"/>
<feGaussianBlur stdDeviation="10"/>
<feComposite in2="hardAlpha" operator="out"/>
<feColorMatrix type="matrix" values="0 0 0 0 0.588235 0 0 0 0 0.85098 0 0 0 0 0.890196 0 0 0 0.3 0"/>
<feBlend mode="normal" in2="effect1_dropShadow_205_8922" result="effect2_dropShadow_205_8922"/>
<feBlend mode="normal" in="SourceGraphic" in2="effect2_dropShadow_205_8922" result="shape"/>
</filter>
<filter id="filter1_i_205_8922" x="61" y="60" width="498" height="502" filterUnits="userSpaceOnUse" color-interpolation-filters="sRGB">
<feFlood flood-opacity="0" result="BackgroundImageFix"/>
<feBlend mode="normal" in="SourceGraphic" in2="BackgroundImageFix" result="shape"/>
<feColorMatrix in="SourceAlpha" type="matrix" values="0 0 0 0 0 0 0 0 0 0 0 0 0 0 0 0 0 0 127 0" result="hardAlpha"/>
<feOffset dy="4"/>
<feGaussianBlur stdDeviation="10"/>
<feComposite in2="hardAlpha" operator="arithmetic" k2="-1" k3="1"/>
<feColorMatrix type="matrix" values="0 0 0 0 0 0 0 0 0 0 0 0 0 0 0 0 0 0 0.3 0"/>
<feBlend mode="normal" in2="shape" result="effect1_innerShadow_205_8922"/>
</filter>
<filter id="filter2_d_205_8922" x="99" y="99" width="421" height="421" filterUnits="userSpaceOnUse" color-interpolation-filters="sRGB">
<feFlood flood-opacity="0" result="BackgroundImageFix"/>
<feColorMatrix in="SourceAlpha" type="matrix" values="0 0 0 0 0 0 0 0 0 0 0 0 0 0 0 0 0 0 127 0" result="hardAlpha"/>
<feOffset/>
<feGaussianBlur stdDeviation="10"/>
<feComposite in2="hardAlpha" operator="out"/>
<feColorMatrix type="matrix" values="0 0 0 0 0 0 0 0 0 0 0 0 0 0 0 0 0 0 0.3 0"/>
<feBlend mode="normal" in2="BackgroundImageFix" result="effect1_dropShadow_205_8922"/>
<feBlend mode="normal" in="SourceGraphic" in2="effect1_dropShadow_205_8922" result="shape"/>
</filter>
<radialGradient id="paint0_angular_205_8922" cx="0" cy="0" r="1" gradientUnits="userSpaceOnUse" gradientTransform="translate(311 309.5) rotate(-180) scale(248 248.5)">
<stop offset="0.0913255" stop-color="#FF7D7A"/>
<stop offset="0.755966" stop-color="#C1210D"/>
</radialGradient>
</defs>
</svg>
