<svg width="110" height="109" viewBox="0 0 110 109" fill="none" xmlns="http://www.w3.org/2000/svg">
<g clip-path="url(#clip0_205_1963)">
<path d="M17.153 25.5755C15.1783 25.1974 13.3718 24.3179 11.4792 23.685C8.62991 22.7315 5.77244 21.7821 2.93961 20.7793C2.09798 20.4834 1.3015 20.0108 1.29329 18.9299C1.28508 17.8367 1.93786 17.286 2.91088 16.949C10.3542 14.3804 17.7976 11.8035 25.2369 9.21848C33.3371 6.40327 41.4333 3.57984 49.5253 0.735857C50.3136 0.460501 51.1798 0.444061 51.9106 -0.00390625H53.6267C54.3411 0.641332 55.3141 0.604344 56.1517 0.904359C61.8871 2.94282 67.6472 4.91141 73.4032 6.89233C77.3938 8.265 81.409 9.58425 85.3832 11.0103C89.07 12.3337 92.7773 13.6036 96.4846 14.8736C98.406 15.5311 100.315 16.2257 102.245 16.8504C103.706 17.323 104.162 18.0463 104.026 19.5423C103.579 20.2204 102.93 20.5903 102.175 20.8451C101.69 21.0095 101.12 21.03 100.787 21.5232C99.6294 21.3752 98.718 22.1068 97.6875 22.4109C94.6946 23.2904 91.1432 24.7905 88.1216 25.5837C87.945 24.9878 84.7263 20.3231 81.1873 18.2765C78.9949 17.0065 60.2531 15.9462 59.8261 15.9339C59.3745 15.9216 51.2168 15.0421 48.1212 15.0256C47.5136 15.0256 22.441 18.1326 22.092 18.2436C19.8011 18.971 18.4011 23.0603 17.1653 23.4055L17.1571 25.5755H17.153Z" fill="#A0A0A0"/>
<path d="M104.868 106.074C75.9195 106.074 46.9754 106.115 18.0271 106.037C12.2999 106.021 7.89874 103.263 4.86063 98.3969C3.21431 95.7502 2.65185 92.7953 2.58205 89.7253C2.54921 88.1553 2.57384 86.5813 2.56974 85.0072C4.30228 82.3112 6.6137 80.2851 9.54507 78.9658C11.4295 78.1192 13.4207 77.8068 15.4571 77.7082C16.4506 77.663 17.4482 77.6712 18.4459 77.6548C19.0001 77.663 19.5585 77.6671 20.1128 77.6712C21.3978 77.6836 22.6828 77.7041 23.9679 77.7041C47.0246 77.7082 70.0814 77.7082 93.1382 77.7082C94.0701 77.7082 94.998 77.7 95.9258 77.7C96.2789 77.7 96.632 77.6877 96.981 77.6836C98.8161 77.8233 100.668 77.437 102.491 77.9343C103.702 78.2671 104.823 79.5083 104.896 80.696C105.011 82.5208 104.26 83.7661 102.872 84.4236C101.994 84.8387 101.099 84.7771 100.2 84.8469H100.192C100.089 84.8223 99.9944 84.8387 99.8918 84.8387C93.8895 84.8469 87.8749 84.7976 81.8725 84.7976H80.2221C77.9353 84.7935 75.6485 84.7935 73.3617 84.7894C73.0826 84.7894 72.8075 84.7935 72.5365 84.7976C72.2697 84.7976 72.0069 84.8099 71.74 84.8182C71.74 84.8182 71.7277 84.8182 71.7195 84.8182C71.1776 84.8346 70.6357 84.8469 70.0814 84.8469C69.9993 84.8387 69.9172 84.8305 69.8351 84.8305C69.753 84.8305 69.6708 84.8305 69.5887 84.8305C69.5066 84.8305 69.4245 84.8305 69.3424 84.8305C60.9383 84.8305 52.5343 84.8099 44.1302 84.7935C34.7408 84.773 25.3473 84.7565 15.9579 84.7606C12.965 84.7606 10.5468 85.9442 8.77733 88.4019C6.43306 91.6569 6.84772 96.3667 9.65181 99.3011C11.5445 101.282 13.8066 101.94 16.467 101.94C43.732 101.907 70.9928 101.919 98.2578 101.923C98.9681 101.923 99.6824 101.948 100.393 101.96C101.464 102.046 102.565 101.849 103.517 102.634C104.634 103.555 105.077 104.668 104.868 106.074Z" fill="#AA1B17"/>
<path d="M99.1081 88.258C98.4799 91.6198 98.5333 94.9816 99.1081 98.3393C71.449 98.3393 43.7899 98.3311 16.1308 98.3599C13.2651 98.3599 10.7566 96.231 10.8059 93.2637C10.8593 90.1814 13.2282 88.258 16.1103 88.258C34.0844 88.2498 52.0585 88.258 70.0367 88.258C70.049 88.6484 70.0695 89.043 70.0695 89.4334C70.0736 91.2171 70.0613 93.0007 70.0818 94.7844C70.0818 95.1378 70.0326 95.7584 70.6525 95.4666C71.6091 95.0227 72.7135 94.9529 73.5674 94.2706C74.6143 93.8062 75.6079 93.7898 76.6548 94.3816C77.4061 94.8049 78.2765 95.0186 79.0853 95.3474C79.9064 95.6803 80.2554 95.4378 80.2472 94.5419C80.2348 92.4459 80.2677 90.3499 80.28 88.2539C86.5533 88.2539 92.8307 88.2539 99.104 88.2539L99.1081 88.258Z" fill="#E7E7E7"/>
<path d="M93.0976 57.114C92.8143 58.4579 92.6911 59.7484 92.6501 61.0964C92.5885 63.0855 92.9128 65.0294 93.1017 66.9939C69.4127 66.9939 45.7236 66.9857 22.0305 67.0186C20.2856 67.0186 18.898 66.4925 17.8018 65.161C16.5085 63.5951 16.332 61.8156 17.1408 60.0443C17.9167 58.3469 19.2264 57.1386 21.2546 57.1181C23.9683 57.0934 26.6862 57.1099 29.4 57.1099C29.4164 57.3565 29.4451 57.603 29.4451 57.8496C29.4451 59.6579 29.4574 61.4662 29.4451 63.2704C29.441 64.0924 29.6956 64.3883 30.5167 63.9691C31.1243 63.6568 31.7771 63.4348 32.4093 63.1759C33.8668 62.3375 35.2955 62.5389 36.7284 63.2663C37.3155 63.5622 37.9683 63.7225 38.5636 64.002C39.4709 64.4294 39.6885 64.0308 39.6844 63.1924C39.6762 61.1662 39.7008 59.1401 39.7131 57.114H93.0894H93.0976Z" fill="#E7E7E7"/>
<path d="M70.0362 88.2582C52.0621 88.2582 34.088 88.2499 16.1098 88.2582C13.2277 88.2582 10.8547 90.1856 10.8054 93.2639C10.7561 96.2312 13.2646 98.3641 16.1303 98.36C43.7894 98.3313 71.4485 98.3395 99.1076 98.3395C99.4976 99.6957 99.978 100.752 100.397 101.96C99.6865 101.948 98.9721 101.923 98.2618 101.923C70.9969 101.923 43.736 101.911 16.4711 101.94C13.8107 101.94 11.5485 101.286 9.65586 99.3053C6.85177 96.3668 6.433 91.6611 8.78137 88.402C10.5509 85.9485 12.969 84.7648 15.962 84.7648C33.7554 84.7566 51.5489 84.8265 69.3465 84.8306C69.5928 84.8306 69.8391 84.8224 70.0855 84.8511C70.069 85.9854 70.0526 87.1239 70.0362 88.2582Z" fill="#DEE1E1"/>
<path d="M94.3866 70.5817C93.9226 70.5981 93.4628 70.631 92.9989 70.631C69.0143 70.631 45.0337 70.6844 21.0491 70.5899C17.9412 70.5817 15.6093 68.7076 14.0861 65.954C11.0275 60.4223 15.3013 53.452 21.7347 53.4644C24.3089 53.4644 26.879 53.4808 29.4532 53.4931C29.4368 54.6973 29.4162 55.9056 29.3998 57.1139C26.686 57.1139 23.9682 57.0933 21.2544 57.1221C19.2262 57.1426 17.9166 58.3509 17.1365 60.0442C16.3277 61.8114 16.5084 63.595 17.8016 65.1609C18.8978 66.4883 20.2814 67.0185 22.0262 67.0144C45.7194 66.9856 69.4084 66.9938 93.0974 66.9938C93.4915 68.2021 93.82 69.435 94.3866 70.5817Z" fill="#DEE1E1"/>
<path d="M99.0667 74.5108C98.9025 75.9123 98.0608 76.8205 96.8867 77.4822C96.513 77.6384 96.5418 77.6466 95.9259 77.7C94.9981 77.7 94.0702 77.7082 93.1383 77.7082C70.0815 77.7082 47.0247 77.7082 23.968 77.7041C22.6829 77.7041 21.3979 77.6836 20.1129 77.6712C19.5586 77.5603 19.0044 77.4493 18.446 77.3383C14.9399 76.6274 12.0455 74.8314 9.7874 72.1148C8.83081 70.9682 7.89885 69.7147 7.36102 68.2639C5.90766 64.3391 5.66543 60.4964 7.18448 56.4894C7.27891 56.2428 7.35692 56.0989 7.50061 55.8071C7.5704 58.61 7.23375 61.4458 8.32172 64.1623C10.51 69.6448 14.4226 73.0601 20.2155 74.3012C21.0982 74.4903 21.9768 74.5108 22.8677 74.5108H99.0667Z" fill="#0880AE"/>
<path d="M94.185 53.5057C93.8771 54.7263 93.4953 55.7126 93.0929 57.1141C75.2995 57.1141 57.5101 57.1182 39.7167 57.1182C39.7044 55.9099 39.6962 54.6975 39.6838 53.4892C41.3261 53.481 42.9683 53.4646 44.6064 53.4604C60.6714 53.4604 76.7323 53.4604 92.7973 53.4604C93.2613 53.4604 93.7211 53.4851 94.185 53.5015V53.5057Z" fill="#DEE1E1"/>
<path d="M106.863 45.0722C105.664 45.4791 104.54 46.1367 103.222 46.1654C100.951 46.2189 100.951 46.2271 100.138 48.3436C100.089 48.4751 100.019 48.6025 99.966 48.734C99.5144 49.8519 99.0504 50.9698 98.6193 52.0917C98.0117 53.6781 98.4798 54.7878 100.364 56.292C100.516 56.3372 100.664 56.3824 100.812 56.4317C100.163 56.4317 99.5965 56.3783 98.8985 56.3783C98.5044 56.3618 98.1144 56.3331 97.7202 56.3331C96.0493 56.329 94.9572 55.1207 94.793 53.4685C94.9285 52.2027 95.2692 51.0314 95.8974 49.8889C96.4106 48.9519 96.8498 47.9162 96.8047 46.7778C97.207 46.7778 97.2891 46.4942 97.4123 46.1695C97.8803 44.953 98.3648 43.7406 98.8944 42.5529C99.1079 42.068 99.0668 41.7721 98.7138 41.3364C97.749 40.1446 96.9402 38.7678 97.2194 37.1937C97.5806 35.1265 98.6152 33.4497 100.787 32.7716C100.902 32.825 100.972 32.7921 101.009 32.673C101.879 32.7182 102.77 32.4099 103.616 32.8374C102.142 33.8032 100.964 34.9868 100.676 36.828C100.372 38.7514 101.083 40.2966 102.413 41.6446C103.456 42.7009 104.535 42.5488 105.673 41.8625C106.03 42.9475 106.642 43.9379 106.863 45.0722Z" fill="#F2AC57"/>
<path d="M106.683 56.3906C104.724 56.4071 102.77 56.4153 100.812 56.4317C100.664 56.3824 100.516 56.3372 100.364 56.292C98.4798 54.7878 98.0117 53.6782 98.6194 52.0918C99.0504 50.9698 99.5144 49.852 99.966 48.7341C100.019 48.6026 100.089 48.4752 100.138 48.3437C100.951 46.2271 100.951 46.2189 103.222 46.1655C104.54 46.1367 105.664 45.4791 106.863 45.0723C107.861 47.5012 108.974 49.8889 109.819 52.3672C110.591 54.6193 108.752 56.3742 106.683 56.3906Z" fill="#F9C287"/>
<path d="M99.1084 88.2581C92.8352 88.2581 86.5578 88.2581 80.2845 88.2581C80.264 87.1074 80.2434 85.9525 80.2229 84.8018C86.7754 84.7936 93.3114 84.8388 99.8639 84.8306C99.9665 84.8306 100.102 84.8264 100.213 84.8306C99.7119 86.0265 99.5477 87.1444 99.1084 88.2581Z" fill="#DEE1E1"/>
<path d="M106.055 41.2422C105.882 41.4271 105.71 41.5997 105.673 41.8628C104.536 42.5491 103.456 42.7012 102.413 41.6449C101.083 40.2969 100.373 38.7516 100.676 36.8283C100.964 34.9871 102.142 33.8035 103.616 32.8376C103.69 32.8253 103.768 32.813 103.846 32.8007C103.92 32.7883 103.998 32.776 104.072 32.7637C105.48 33.5322 106.794 34.387 107.249 36.0679C107.775 38.0037 107.455 39.7503 106.055 41.2422Z" fill="#F9C287"/>
<path d="M104.055 32.6853C103.985 32.7264 103.916 32.7634 103.846 32.8004C103.768 32.8127 103.69 32.8251 103.616 32.8374C102.77 32.41 101.879 32.7182 101.009 32.673C100.939 32.6524 100.873 32.6524 100.804 32.673C100.804 28.9536 100.795 25.2384 100.791 21.519C101.12 21.0299 101.694 21.0094 102.179 20.8409C102.93 20.5861 103.583 20.2162 104.031 19.5381C104.039 23.9191 104.047 28.3002 104.055 32.6812V32.6853Z" fill="#77777F"/>
<path d="M103.846 32.8006C103.915 32.7636 103.985 32.7225 104.059 32.6855L104.076 32.7636C104.002 32.776 103.924 32.7883 103.85 32.8006H103.846Z" fill="#DEE1E1"/>
<path d="M88.1588 22.7606V22.7811C88.1588 22.7811 88.1547 22.7565 88.1506 22.7441C88.1506 22.7441 88.1506 22.7565 88.1588 22.7606Z" fill="#707070"/>
<path d="M83.2319 46.3669C82.3656 46.7203 81.487 46.3875 80.6166 46.3875C61.8173 46.3916 43.018 46.3957 24.2187 46.3792C24.1612 46.3792 24.1037 46.3833 24.0462 46.3875H24.0093C23.3935 46.3792 22.7817 46.3916 22.2029 46.408C22.1823 46.3957 22.1618 46.3833 22.1413 46.371C21.5583 46.034 21.2175 45.5737 21.2257 44.8504C21.2586 42.364 21.2545 39.8816 21.2668 37.3952C22.6175 37.3788 23.9682 37.3582 25.3149 37.3418L25.2984 37.4445L25.3108 40.5515C25.3149 42.2777 25.5489 42.5119 27.3019 42.5119C46.2573 42.5119 65.2167 42.5119 84.1761 42.5119C84.2377 43.8887 84.3527 45.2737 83.2319 46.3628V46.3669Z" fill="#F2AC57"/>
<path d="M80.2225 84.7978C80.2431 85.9485 80.2636 87.1034 80.2841 88.2541C80.2718 90.3501 80.239 92.4461 80.2513 94.5421C80.2554 95.4421 79.9064 95.6805 79.0894 95.3476C78.2806 95.0188 77.4102 94.8051 76.6589 94.3818C75.612 93.79 74.6185 93.8023 73.5715 94.2709C73.239 93.9462 73.3745 93.5311 73.3745 93.153C73.3622 90.3665 73.3663 87.5801 73.3663 84.7896C75.6531 84.7896 77.9399 84.7937 80.2266 84.7978H80.2225Z" fill="#F9C287"/>
<path d="M73.3619 84.7935C73.3619 87.5799 73.3578 90.3663 73.3701 93.1569C73.3701 93.535 73.2346 93.9501 73.5672 94.2748C72.7132 94.957 71.6088 95.0227 70.6522 95.4707C70.0282 95.7584 70.0856 95.1378 70.0815 94.7885C70.0651 93.0048 70.0733 91.2212 70.0692 89.4375C70.0692 89.0471 70.0487 88.6525 70.0364 88.2621C70.0528 87.1278 70.0692 85.9935 70.0856 84.8551C71.2516 84.8551 72.2493 84.7976 73.366 84.7976L73.3619 84.7935Z" fill="#F2AC57"/>
<path d="M39.7171 57.1182C39.7048 59.1443 39.6801 61.1705 39.6883 63.1966C39.6883 64.035 39.4749 64.4378 38.5675 64.0062C37.9722 63.7268 37.3153 63.5665 36.7323 63.2706C35.2954 62.539 33.8708 62.3418 32.4092 63.1802C32.401 59.9499 32.3969 56.7237 32.3887 53.4975C34.8192 53.4934 37.2538 53.4934 39.6842 53.4893C39.6966 54.6975 39.7048 55.9099 39.7171 57.1182Z" fill="#EF5227"/>
<path d="M32.4093 63.1799C31.777 63.4389 31.1242 63.6608 30.5166 63.9731C29.6955 64.3923 29.441 64.0964 29.4451 63.2745C29.4574 61.4703 29.4492 59.662 29.4451 57.8537C29.4451 57.6071 29.4163 57.3605 29.3999 57.1139C29.4163 55.9056 29.4369 54.6973 29.4533 53.4932C30.4304 53.4932 31.4116 53.4932 32.3887 53.4973C32.397 56.7235 32.4011 59.9496 32.4093 63.1799Z" fill="#D83724"/>
<path d="M101.009 32.6731C100.972 32.7923 100.902 32.8251 100.787 32.7717L100.804 32.6772C100.873 32.6525 100.939 32.6525 101.009 32.6772V32.6731Z" fill="#DEE1E1"/>
<path d="M84.5412 26.8578C84.2045 27.092 84.0855 27.3756 84.0896 27.8195C84.1306 31.0004 84.1224 34.1773 84.1306 37.3583C84.0444 37.4199 83.9541 37.4775 83.8679 37.5391C81.6673 37.272 79.4585 37.4035 77.2538 37.4035C68.1518 37.3871 59.0457 37.3953 49.9437 37.3953C42.7262 37.3953 35.5127 37.3953 28.2951 37.3953C27.2975 37.3953 26.2957 37.4282 25.2981 37.4446L25.3186 37.346C25.3186 32.3731 25.3268 27.4003 25.3022 22.4233C25.3022 21.7 25.3638 21.2725 26.2711 21.1657C28.6975 20.878 31.1116 20.4794 33.5379 20.1629C37.4834 19.6492 41.4616 19.5177 45.4153 19.1313C45.7355 19.0985 46.0599 19.1149 46.3801 19.1149C50.2065 19.1149 54.0287 19.0533 57.8551 19.1313C61.7964 19.2094 65.7255 19.5259 69.6545 19.9369C73.5383 20.3437 77.3975 20.8616 81.2485 21.4821C83.8022 21.8972 84.0362 22.7932 84.3113 25.218C84.3729 25.7646 84.4016 25.9248 84.5453 26.8578H84.5412Z" fill="#A0A0A0"/>
<path d="M25.2981 37.4446C26.2957 37.4281 27.2975 37.3952 28.2951 37.3952C35.5127 37.3911 42.7262 37.3952 49.9437 37.3952C59.0457 37.3952 68.1518 37.387 77.2538 37.4035C79.4585 37.4035 81.6673 37.2719 83.8679 37.5391C83.9623 37.5432 84.0567 37.5514 84.1512 37.5555C84.1594 39.2077 84.1717 40.8639 84.1799 42.516C65.2205 42.516 46.261 42.516 27.3016 42.516C25.5526 42.516 25.3145 42.2818 25.3104 40.5557C25.3104 39.52 25.3022 38.4843 25.2981 37.4446Z" fill="#F9C287"/>
<path d="M84.1514 37.5557C84.057 37.5516 83.9626 37.5433 83.8682 37.5392C83.9544 37.4776 84.0447 37.42 84.1309 37.3584C84.1597 37.4077 84.1925 37.4529 84.2171 37.5022C84.2171 37.5064 84.172 37.5351 84.1473 37.5557H84.1514Z" fill="#EFAFA7"/>
<path d="M99.0668 74.5104H22.8678C21.9769 74.5104 21.0983 74.4898 20.2156 74.3008C14.4227 73.0596 10.5101 69.6444 8.32184 64.1619C7.23387 61.4453 7.57053 58.6096 7.50073 55.8067C9.62741 50.5996 13.6714 47.7967 19.0045 46.6254C19.2467 46.572 19.4972 46.5555 19.7435 46.5555C20.2977 46.5103 21.1188 46.4487 22.0467 46.4117C22.1001 46.4117 22.1493 46.4117 22.2027 46.4117C22.7816 46.3953 23.3933 46.3829 24.0091 46.3912H24.0461C24.1036 46.3912 24.1611 46.3829 24.2185 46.3829C43.0178 46.3994 61.8172 46.3953 80.6165 46.3912C81.4869 46.3912 82.3654 46.724 83.2317 46.3706C87.2223 46.3747 91.2088 46.387 95.1953 46.387C95.766 46.387 96.3325 46.387 96.8047 46.7816C96.8498 47.92 96.4105 48.9557 95.8973 49.8927C95.2692 51.0352 94.9284 52.2065 94.7929 53.4723C94.5918 53.4847 94.3906 53.497 94.1853 53.5093C93.7214 53.4929 93.2616 53.4682 92.7976 53.4682C76.7326 53.4682 60.6717 53.4682 44.6067 53.4682C42.9686 53.4682 41.3264 53.4888 39.6841 53.497C37.2537 53.497 34.8191 53.497 32.3886 53.5052C31.4115 53.5011 30.4302 53.5011 29.4531 53.5011C26.8789 53.4888 24.3089 53.4764 21.7347 53.4723C15.3013 53.46 11.0274 60.4302 14.086 65.962C15.6092 68.7156 17.9411 70.5896 21.049 70.5978C45.0337 70.6924 69.0142 70.6431 92.9988 70.639C93.4627 70.639 93.9226 70.6061 94.3865 70.5896C95.2651 70.6348 96.1601 70.6143 96.9976 70.9266C98.3114 71.4198 99.1284 72.8706 99.0668 74.5186V74.5104Z" fill="#14A38B"/>
<path d="M88.1711 25.5671C87.0339 26.2083 85.7447 26.4179 84.5418 26.8535C84.3776 25.9165 84.3653 25.7644 84.3037 25.2178C84.0327 22.793 83.7946 21.893 81.241 21.4779C77.3941 20.8573 73.5307 20.3395 69.6469 19.9326C65.722 19.5216 61.793 19.2052 57.8516 19.1271C54.0253 19.049 50.203 19.1106 46.3766 19.1106C46.0564 19.1106 45.7321 19.0983 45.4118 19.1271C41.4582 19.5134 37.4799 19.6449 33.5345 20.1586C31.1081 20.4751 28.6981 20.8779 26.2676 21.1655C25.3644 21.2724 25.2987 21.6998 25.3028 22.4231C25.3234 27.396 25.3152 32.3688 25.3152 37.3417C23.9685 37.3581 22.6178 37.3787 21.2671 37.3951C21.2424 34.021 21.2219 30.6427 21.1973 27.2686C21.1973 27.1412 21.1316 27.1206 21.0249 27.0878C19.7275 26.6028 18.3932 26.2083 17.1533 25.5754C17.1574 24.852 17.1615 24.1287 17.1656 23.4054C17.2026 22.3779 17.6788 21.6546 18.1715 20.8614C18.7955 19.8504 19.5551 19.1148 20.4911 18.5599C21.0741 18.1654 21.7515 17.8325 22.5562 17.6393C27.9591 16.3406 38.338 15.2598 41.142 15.1735C42.2095 15.1406 44.5743 15.0872 47.5056 15.0419C47.908 15.0419 48.3227 15.0296 48.7496 15.0255H48.8194C53.3643 14.968 58.9027 14.9474 63.0657 15.0707C69.1542 15.2515 77.1436 16.205 82.1606 17.5818C83.2362 17.8777 84.1764 18.1901 84.9318 18.5229C85.3547 18.7079 85.7283 18.9257 86.0527 19.1682C87.3664 20.1463 87.933 21.519 88.1547 22.7437C88.1547 22.756 88.1629 22.7684 88.1629 22.7807C88.4298 24.2931 88.1752 25.5671 88.1752 25.5671H88.1711Z" fill="#707070"/>
<path d="M104.868 106.074C104.334 108.055 102.581 109.238 100.615 108.959C100.303 108.914 99.9744 108.934 99.6541 108.934C71.9622 108.934 44.2662 108.897 16.5742 108.975C12.8751 108.983 9.59068 108.124 6.65932 105.95C4.89804 104.643 3.45699 103.123 2.38955 101.372C2.38955 101.372 2.38544 101.364 2.38134 101.36C2.15553 100.994 1.95025 100.616 1.75729 100.23C1.74908 100.209 1.73676 100.184 1.72855 100.164C1.67518 100.049 1.6177 99.9254 1.56023 99.7898C1.51506 99.6911 1.4699 99.5925 1.42885 99.4939C1.41243 99.461 1.40011 99.424 1.38779 99.3911C1.34674 99.2966 1.30979 99.2062 1.27284 99.1158C1.21125 98.9637 1.15378 98.8116 1.0963 98.6637C1.08809 98.6473 1.07988 98.6267 1.07577 98.6061C0.706271 97.628 0.451727 96.6992 0.2834 95.8279C0.258766 95.7046 0.238239 95.5855 0.217711 95.4704C-0.476127 91.4469 0.66111 88.7098 1.13325 87.8015C1.51917 86.8357 2.0611 85.9274 2.57019 85.0068C2.5743 86.5809 2.54966 88.1549 2.58251 89.7249C2.6523 92.7949 3.21476 95.7498 4.86109 98.3966C7.8992 103.263 12.3003 106.02 18.0276 106.037C46.9758 106.115 75.9199 106.074 104.868 106.074Z" fill="#C21B17"/>
<path d="M2.38088 101.36C2.22487 101.158 2.01959 100.797 1.75684 100.229C1.9498 100.616 2.15507 100.994 2.38088 101.36Z" fill="#C21B17"/>
</g>
<defs>
<clipPath id="clip0_205_1963">
<rect width="110" height="109" fill="white"/>
</clipPath>
</defs>
</svg>
