<svg width="96" height="96" viewBox="0 0 96 96" fill="none" xmlns="http://www.w3.org/2000/svg">
<g clip-path="url(#clip0_205_2064)">
<path d="M47.9982 96C74.5069 96 95.9964 74.5097 95.9964 48C95.9964 21.4903 74.5069 0 47.9982 0C21.4895 0 0 21.4903 0 48C0 74.5097 21.4895 96 47.9982 96Z" fill="#C21B17"/>
<path d="M96.0004 48C96.0004 74.5111 74.5088 96 48.0022 96C46.2446 96 44.5085 95.9069 42.7975 95.7208C66.8557 93.1255 85.5911 72.7535 85.5911 48C85.5911 23.2465 66.8557 2.87449 42.7939 0.279215C44.5086 0.0930718 46.2446 0 47.9986 0C74.5088 0 96.0004 21.4889 96.0004 48Z" fill="#AA1B17"/>
<path d="M77.7728 36.9101H59.0876V18.2241H36.9086V36.9101H18.2234V59.0898H36.9086V77.7758H59.0876V59.0898H77.7728V36.9101Z" fill="white"/>
</g>
<defs>
<clipPath id="clip0_205_2064">
<rect width="96" height="96" fill="white"/>
</clipPath>
</defs>
</svg>
