<svg width="276" height="766" viewBox="0 0 276 766" fill="none" xmlns="http://www.w3.org/2000/svg">
<g clip-path="url(#clip0_69_4993)">
<path d="M217.548 102.02C207.508 84.27 204.148 66.09 204.328 58.79C204.358 58.2 204.378 57.61 204.398 57.02C204.448 56.01 204.508 55.45 204.508 55.45H204.428C204.428 24.83 180.218 0 150.368 0C120.518 0 96.3081 24.83 96.3081 55.45C96.3081 57 96.3881 58.54 96.5081 60.06C96.5681 68.05 92.7781 85.23 83.2681 102.02C71.4481 122.9 70.1881 144.96 93.6581 153.84C93.6581 153.84 93.7781 153.88 93.9481 153.94C96.1581 154.76 98.5581 155.47 101.208 156.05C101.828 156.18 102.428 156.28 103.038 156.4C118.868 160.13 158.048 165.7 195.188 156.86C196.648 156.63 198.128 156.38 199.628 156.05C203.788 155.14 207.358 153.92 210.448 152.44C210.468 152.44 210.498 152.42 210.518 152.42H210.508C230.478 142.75 228.778 121.87 217.558 102.03L217.548 102.02Z" fill="black"/>
<path d="M150.094 105.53C178.862 105.53 202.184 82.7862 202.184 54.7302C202.184 26.6741 178.862 3.93018 150.094 3.93018C121.325 3.93018 98.0039 26.6741 98.0039 54.7302C98.0039 82.7862 121.325 105.53 150.094 105.53Z" fill="black"/>
<mask id="mask0_69_4993" style="mask-type:luminance" maskUnits="userSpaceOnUse" x="183" y="65" width="17" height="29">
<path d="M185.784 69.43C180.974 75.11 184.174 88.82 184.724 90.52C185.534 93.01 188.334 96.07 193.014 91.52C198.054 86.6 203.184 69.12 195.944 66C194.934 65.56 193.974 65.38 193.064 65.38C188.824 65.38 185.874 69.31 185.774 69.43" fill="white"/>
</mask>
<g mask="url(#mask0_69_4993)">
<path d="M203.194 65.38H180.984V96.07H203.194V65.38Z" fill="url(#paint0_linear_69_4993)"/>
</g>
<mask id="mask1_69_4993" style="mask-type:luminance" maskUnits="userSpaceOnUse" x="96" y="65" width="17" height="29">
<path d="M100.164 65.8001C92.9241 68.9201 98.0441 86.4001 103.094 91.3201C107.774 95.8701 110.584 92.8201 111.394 90.3301C111.944 88.6301 115.144 74.9201 110.334 69.2401C110.234 69.1201 107.284 65.1901 103.044 65.1901C102.134 65.1901 101.174 65.3701 100.164 65.8101" fill="white"/>
</mask>
<g mask="url(#mask1_69_4993)">
<path d="M115.134 65.1901H92.9243V95.8801H115.134V65.1901Z" fill="url(#paint1_linear_69_4993)"/>
</g>
<mask id="mask2_69_4993" style="mask-type:luminance" maskUnits="userSpaceOnUse" x="109" y="15" width="81" height="117">
<path d="M149.054 15.1101C149.054 15.1101 148.964 15.1101 148.914 15.1101C114.484 15.3201 111.784 53.2101 111.784 53.2101C111.784 53.2101 106.764 93.1501 110.344 102.89C112.884 109.8 121.124 117.6 129.094 123.04C132.364 125.27 135.594 127.12 138.364 128.33C142.734 130.25 146.064 130.98 148.614 131.11C148.704 131.11 148.804 131.11 148.894 131.11C148.924 131.11 148.954 131.11 148.974 131.11H149.044C149.044 131.11 149.094 131.11 149.114 131.11C149.114 131.11 149.164 131.11 149.184 131.11C149.284 131.11 149.384 131.11 149.474 131.11C152.024 130.98 155.344 130.24 159.724 128.33C161.954 127.35 164.484 125.96 167.084 124.3C175.614 118.85 185.004 110.35 187.754 102.88C191.334 93.1401 186.304 53.2001 186.304 53.2001C186.304 53.2001 183.604 15.3101 149.174 15.1001C149.124 15.1001 149.074 15.1001 149.034 15.1001" fill="white"/>
</mask>
<g mask="url(#mask2_69_4993)">
<path d="M191.354 15.1101H106.764V131.14H191.354V15.1101Z" fill="url(#paint2_linear_69_4993)"/>
</g>
<mask id="mask3_69_4993" style="mask-type:luminance" maskUnits="userSpaceOnUse" x="108" y="123" width="80" height="62">
<path d="M127.814 148.43C126.014 154 119.254 157.37 108.374 162.11C108.404 164.2 109.494 181.71 138.964 184.17H149.974C185.424 184.17 187.634 165.22 187.764 162.07C176.944 157.35 170.224 153.98 168.434 148.43C166.924 143.77 166.964 131.33 167.114 124.32C164.504 125.98 161.984 127.37 159.754 128.35C155.374 130.27 152.054 131 149.504 131.13C149.414 131.13 149.314 131.13 149.214 131.13C149.194 131.13 149.164 131.13 149.144 131.13H149.074C149.074 131.13 149.024 131.13 149.004 131.13C149.004 131.13 148.954 131.13 148.924 131.13C148.834 131.13 148.734 131.13 148.644 131.13C146.084 131 142.764 130.26 138.394 128.35C135.624 127.14 132.394 125.29 129.124 123.06C129.294 129.73 129.434 143.49 127.834 148.44" fill="white"/>
</mask>
<g mask="url(#mask3_69_4993)">
<path d="M187.764 123.05H108.374V184.16H187.764V123.05Z" fill="url(#paint3_linear_69_4993)"/>
</g>
<g style="mix-blend-mode:multiply" opacity="0.2">
<mask id="mask4_69_4993" style="mask-type:luminance" maskUnits="userSpaceOnUse" x="128" y="123" width="40" height="22">
<path d="M167.104 123.07H128.544V144.74H167.104V123.07Z" fill="white"/>
</mask>
<g mask="url(#mask4_69_4993)">
<mask id="mask5_69_4993" style="mask-type:luminance" maskUnits="userSpaceOnUse" x="128" y="123" width="40" height="22">
<path d="M167.104 123.07H128.544V144.74H167.104V123.07Z" fill="white"/>
</mask>
<g mask="url(#mask5_69_4993)">
<path d="M167.104 124.33C164.504 125.99 161.974 127.38 159.744 128.36C155.374 130.27 152.044 131.01 149.494 131.14C149.404 131.14 149.304 131.14 149.204 131.15H149.124H149.054H148.974H148.894C148.794 131.15 148.704 131.15 148.604 131.14C146.054 131.01 142.724 130.27 138.354 128.36C135.584 127.15 132.354 125.3 129.084 123.07C129.224 128.46 129.334 138.49 128.524 144.74C141.764 142.35 155.054 137.95 167.024 131.27C167.024 128.72 167.044 126.3 167.084 124.32" fill="#ECB699"/>
</g>
</g>
</g>
<path d="M152.864 97.0301C152.634 97.0301 152.404 97.0201 152.174 96.9901C151.704 96.9401 151.364 96.5101 151.414 96.0401C151.464 95.5701 151.874 95.2301 152.354 95.2901C153.734 95.4401 154.884 94.9901 155.604 94.0101C156.914 92.2401 156.714 89.0101 155.044 85.1601C149.934 73.3501 154.644 67.1701 154.844 66.9101C155.134 66.5401 155.674 66.4801 156.044 66.7701C156.414 67.0601 156.474 67.6001 156.184 67.9701C156.004 68.2001 151.934 73.6701 156.604 84.4801C159.224 90.5401 157.954 93.6801 156.964 95.0201C156.014 96.3101 154.534 97.0201 152.844 97.0201" fill="#DFAC97"/>
<path d="M173.444 74.74C173.444 76.71 171.844 78.32 169.864 78.32C167.884 78.32 166.294 76.71 166.294 74.74C166.294 72.77 167.894 71.17 169.864 71.17C171.834 71.17 173.444 72.78 173.444 74.74Z" fill="#231F20"/>
<path d="M131.714 74.96C131.714 76.93 130.124 78.54 128.134 78.54C126.144 78.54 124.564 76.93 124.564 74.96C124.564 72.99 126.174 71.39 128.134 71.39C130.094 71.39 131.714 73 131.714 74.96Z" fill="#231F20"/>
<path d="M133 103C133 103 138.068 110.648 149.311 110.648C149.311 110.648 161.872 111.234 167.779 103.461L168 103.142C148.427 110.229 133 103 133 103Z" fill="white"/>
<path d="M169.14 19.9302C169.14 19.9302 151.76 43.8802 188.25 67.8402C188.25 67.8402 188.9 28.0602 169.14 19.9302Z" fill="black"/>
<path d="M101.998 65.3299C101.998 65.3299 173.838 64.9599 185.348 29.3999C185.348 29.3999 167.508 5.46993 134.518 15.2999C101.538 25.1399 101.998 65.3299 101.998 65.3299Z" fill="black"/>
<path d="M66.9995 376.36C60.5495 397.05 47.7295 439.68 45.4195 444.65C42.6995 450.52 30.0695 449.08 27.2395 447.74C24.4095 446.39 17.5995 447.34 15.2295 447.11C12.8395 446.87 10.6895 443.72 13.5295 443.29C16.3595 442.87 28.2895 442.67 27.9495 441.22C27.5895 439.77 18.1395 436.54 18.1395 436.54C18.1395 436.54 11.1595 436.17 5.6195 437.07C0.0894985 437.95 -1.2705 434.95 1.1495 434.55C3.5695 434.17 15.3095 431.34 17.8595 432.08C20.4195 432.81 32.0095 432.93 32.0095 432.93C32.0095 432.93 37.7695 411.54 41.6495 388.73C45.5195 365.92 52.3195 327.23 56.3095 300.75C57.0595 295.78 58.1895 287.17 59.6195 278.58C63.7495 253.51 64.1095 214.32 76.8995 191.84C82.6795 181.69 90.0595 175.41 92.4195 171.16C92.4195 171.16 107.789 199.02 105.829 210.7C104.499 218.7 94.9295 255.43 88.1595 284.74C85.0495 298.18 82.6295 310.07 81.6895 316.9C78.7595 338.28 73.5995 355.13 66.9795 376.36H66.9995Z" fill="url(#paint4_linear_69_4993)"/>
<path d="M199.629 589.65C196.949 551.8 172.469 525.25 172.469 525.25C172.469 525.25 207.339 416.09 204.699 380.98C203.079 358.99 184.889 339.82 171.539 328.56C170.329 327.55 169.189 326.63 168.099 325.75C165.819 323.93 163.779 322.37 162.089 321.16C159.149 319.03 157.309 317.89 157.309 317.89L142.189 320.83L128.739 323.44L88.5694 331.76C88.6594 333.89 87.0794 337.56 87.1294 339.84C87.2194 345.26 86.1894 348.73 85.9794 354.85C85.7994 359.96 82.8494 369.84 82.5194 375.34C78.2394 443.32 58.0694 547.12 58.2894 566.03C58.5794 589.07 111.409 689.42 111.409 689.42L128.489 684C128.489 684 120.819 612.05 103.509 589.53C86.1994 567.01 76.5194 557.01 76.5194 557.01C76.5194 557.01 135.869 473 142.069 443.37C145.419 459.35 152.309 508.8 156.869 559.05C162.629 622.63 166.809 657.44 166.809 657.44C166.869 661.56 190.639 662 190.639 662C190.639 662 202.289 627.49 199.639 589.64L199.629 589.65Z" fill="url(#paint5_linear_69_4993)"/>
<path d="M131.6 758.87H125.12C124.64 758.87 124.24 758.49 124.22 758.01L123.34 737.14L104.05 756.08C102.65 757.46 100.77 758.26 98.81 758.32L56.43 759.6C55.06 759.6 54.48 757.85 55.6 757.04C64.28 750.76 88.86 733.22 95.06 726.09C100.77 719.52 104.96 703.16 104.96 703.16L125.93 691.73C125.93 691.73 131.24 699.04 134.75 705.56V705.61C135.92 707.8 136.84 709.89 137.36 711.63C139.17 717.9 133.43 752.6 132.5 758.14C132.43 758.57 132.05 758.88 131.61 758.88L131.6 758.87Z" fill="#1B434C"/>
<path d="M183.93 689.87C183.93 689.87 186.89 695 187.01 698.42C187.12 701.84 191.91 705.94 191.8 708.79C191.69 711.64 188.95 722.12 188.84 724.17C188.73 726.22 190.44 738.41 190.89 742.29C191.34 746.17 191.84 753.89 189.57 755.16C186.36 756.95 175.64 764.16 170.6 764.16C166.45 764.16 153.29 755.35 152.9 753.86C152.62 752.78 152.31 749.81 152.82 747.54C153.6 744.09 158.75 724.18 161.48 716.77C164.21 709.36 183.93 689.88 183.93 689.88V689.87Z" fill="#1B434C"/>
<path d="M100.01 674.51C103.81 687.66 109.38 694.96 103.56 704.42C94.4796 719.22 84.5496 734.65 80.3496 740.3C73.2796 749.84 84.3698 752.26 89.4998 750C95.7098 747.27 103.56 742.5 108 738.5C112.97 733.41 127.76 715.71 129.54 712.68C134.21 704.67 134.11 704.53 133 698.87C131.69 692.15 128.21 671.11 127.26 664.06L100.01 674.5V674.51Z" fill="url(#paint6_linear_69_4993)"/>
<path d="M276.309 288.4C274.339 300.56 215.159 342.71 204.949 350.13C204.349 350.57 203.539 350 203.729 349.28L205.709 336.77L246.369 283.6L246.349 283.53C246.129 282.65 244.069 274.71 240.209 265.54C237.029 257.93 232.599 249.48 226.999 243.55L254.909 220.93C254.909 220.93 259.249 230.85 264.039 243.25C267.969 253.43 272.199 265.3 274.569 274.72C276.039 280.56 276.789 285.45 276.299 288.41L276.309 288.4Z" fill="url(#paint7_linear_69_4993)"/>
<path d="M93.4195 164.48C85.3795 167.37 78.4295 191.93 65.9995 203.13C67.4595 208.91 77.6995 214.69 77.6995 214.69C77.6995 214.69 107.32 197.35 105.49 184.71C103.66 172.07 93.4095 164.48 93.4095 164.48H93.4195Z" fill="url(#paint8_linear_69_4993)"/>
<path d="M164.519 665.09C165.199 678.43 163.829 688.15 163.259 697.67C162.969 702.44 162.659 707.21 162.319 709.09C161.979 710.97 161 716.41 161 717C161 717.59 158.309 728.53 159.169 733.99C160.029 739.45 164.68 743.91 171.5 744.5C178.32 745.09 186.799 739.87 187.819 737.57C188.839 735.27 189.439 730.32 188.929 729.3C188.419 728.28 187.309 719.15 188.589 715.06C189.869 710.97 188.079 706.1 187.909 705.17C187.739 704.24 188.469 693.48 188.389 692.63C188.309 691.78 189.649 677.6 191.259 668.43C192.669 660.4 163.269 640.21 164.529 665.1L164.519 665.09Z" fill="url(#paint9_linear_69_4993)"/>
<path d="M201.019 602.95C200.379 622.99 199.759 638.41 191.219 669.12C182.239 671.33 168.659 668.72 164.479 665.5C162.859 621.92 158.749 605.03 154.729 568.83C157.899 568.41 179.809 564.95 182.729 552.85C181.019 554.84 167.489 561.75 157.229 561.51C157.039 559.9 156.849 558.32 156.669 556.73C175.759 557.98 180.019 547.89 180.249 547.29C179.539 547.56 163.729 552.82 153.679 550.62C148.489 509.27 144.719 476.8 141.019 460.1C140.989 459.94 140.969 459.85 140.969 459.85C140.929 460.1 140.859 460.34 140.789 460.59C140.689 460.98 140.579 461.39 140.459 461.82C139.529 465.36 138.089 469.35 136.239 473.74C136.049 474.19 135.869 474.66 135.659 475.15C130.199 487.83 124.819 501.56 117.189 517.94C112.379 528.26 110.309 532.69 106.559 541.95C101.399 554.67 98.8095 561.08 98.8095 561.08C98.8095 561.08 100.079 561.68 111.789 590.69C118.519 607.36 122.899 636.47 128.009 667.53C123.859 670.74 111.449 676.74 101.369 677.1C82.7095 641.66 68.7795 611.38 59.5495 584.11L75.1395 562.15L58.3095 565.97C58.3095 564.79 58.3695 563.36 58.4895 561.71L75.9195 559.57L55.9495 553.23C59.4995 520.47 64.9095 475.5 80.4595 384.2C80.5795 383.47 80.5795 382.73 80.6195 381.99C81.0095 376.86 81.2695 371.88 81.4495 367.08C117.229 368.13 172.839 346 188.289 331.29C190.279 334.42 191.399 335.24 194.359 339.63C194.789 340.27 196.339 342.35 196.809 343C208.759 359.55 217.239 372.38 218.749 391.24C221.599 426.95 188.489 537.7 188.489 537.7C188.489 537.7 202.299 562.77 201.009 602.96L201.019 602.95Z" fill="#398DA5"/>
<g style="mix-blend-mode:multiply" opacity="0.5">
<path d="M181.43 514.98L179.97 520.92L182.29 521.41L183.75 515.47L181.43 514.98Z" fill="#0F8691"/>
<path d="M199.41 381.22C198.5 379.32 197.47 377.45 196.3 375.64L194.24 376.66C195.34 378.41 196.34 380.22 197.22 382.03L199.4 381.22H199.41Z" fill="#0F8691"/>
<path d="M193.08 475.76L190.74 475.33C190.31 477.31 189.87 479.31 189.41 481.27L191.75 481.72C192.2 479.76 192.62 477.76 193.07 475.76H193.08Z" fill="#0F8691"/>
<path d="M184.8 501.12L187.12 501.59L188.54 495.63L186.19 495.18L184.8 501.12Z" fill="#0F8691"/>
<path d="M204.67 401.28C204.52 399.17 204.25 397.11 203.89 395.13L201.53 395.43C201.89 397.37 202.13 399.37 202.28 401.39L204.66 401.28H204.67Z" fill="#0F8691"/>
<path d="M186.86 363.87C185.41 362.4 183.86 360.91 182.15 359.33L180.45 360.82C182.14 362.35 183.66 363.8 185.07 365.25L186.86 363.87Z" fill="#0F8691"/>
<path d="M197.729 441.46L200.07 441.84C200.45 439.8 200.83 437.79 201.16 435.81L198.789 435.47C198.459 437.43 198.109 439.43 197.729 441.45V441.46Z" fill="#0F8691"/>
<path d="M201.01 421.44L203.37 421.72C203.67 419.59 203.91 417.57 204.12 415.63L201.76 415.42C201.55 417.32 201.29 419.34 201.01 421.45V421.44Z" fill="#0F8691"/>
<path d="M193.76 461.41L196.1 461.81C196.53 459.81 196.93 457.81 197.33 455.83L194.99 455.43C194.59 457.41 194.19 459.41 193.76 461.41Z" fill="#0F8691"/>
<path d="M178.83 535.11L176.51 534.61L175.58 538.19L175.92 538.59C175.92 538.59 176.67 539.48 177.84 541.18L179.86 540.08C179.09 538.96 178.49 538.18 178.14 537.74L178.82 535.12L178.83 535.11Z" fill="#0F8691"/>
<path d="M193.22 582.78L195.58 582.55C195.26 580.31 194.87 578.08 194.44 575.89L192.08 576.25C192.51 578.4 192.9 580.59 193.22 582.79V582.78Z" fill="#0F8691"/>
<path d="M187.649 554.27L185.419 555.01C186.309 557.03 187.149 559.14 187.909 561.25L190.169 560.63C189.399 558.46 188.539 556.33 187.649 554.26V554.27Z" fill="#0F8691"/>
<path d="M194.419 600.75C194.419 602.09 194.409 603.45 194.359 604.8L196.749 604.89C196.799 603.53 196.809 602.14 196.809 600.78C196.819 599.95 196.809 599.1 196.799 598.27V598.18L194.419 598.27C194.429 599.1 194.439 599.93 194.429 600.76L194.419 600.75Z" fill="#0F8691"/>
<path d="M192.78 626.9L195.14 627.11C195.4 624.92 195.63 622.68 195.81 620.47L193.45 620.28C193.24 622.49 193.01 624.69 192.78 626.9Z" fill="#0F8691"/>
<path d="M189.649 648.85L192.019 649.19C192.369 647.04 192.749 644.83 193.099 642.59L190.729 642.27C190.379 644.51 190.029 646.7 189.649 648.85Z" fill="#0F8691"/>
</g>
<g style="mix-blend-mode:multiply" opacity="0.5">
<path d="M189.339 350.41C188.739 349.84 188.159 349.29 187.579 348.74C176.309 364.86 147.719 379.93 119.609 387.1L115.199 371.12L112.899 371.73L117.299 387.69C104.059 390.87 91.0394 392.24 80.0994 391.1C80.0594 391.89 79.9995 392.67 79.9395 393.46C82.7095 393.79 85.5995 393.94 88.5795 393.94C97.7695 393.94 107.839 392.57 117.989 390.17L128.679 428.93L129.969 428.31C130.339 428.13 139.069 423.77 138.199 407.89C137.539 395.9 135.009 388.45 133.849 385.58C157.489 377.51 179.379 364.48 189.339 350.43V350.41ZM135.819 407.97C136.409 418.77 132.299 423.56 130.149 425.3L120.299 389.59C124.069 388.64 127.849 387.54 131.589 386.32C132.629 388.9 135.179 396.23 135.819 407.97Z" fill="#0F8691"/>
</g>
<path d="M128.729 377.6C128.749 379.58 127.169 381.18 125.199 381.18C123.229 381.18 121.599 379.58 121.579 377.6C121.559 375.62 123.139 374.02 125.109 374.02C127.079 374.02 128.709 375.62 128.729 377.6Z" fill="#272727"/>
<path d="M152.28 376.66L141.72 359.33L149.43 355.72L157.41 374.46L152.28 376.66Z" fill="#272727"/>
<path d="M86.9893 392.68L92.3493 392.7L93.5693 370.63H87.9093L86.9893 392.68Z" fill="#272727"/>
<path d="M206.409 345.04C206.129 341.72 205.789 336.7 205.789 336.7C201.589 333.62 193.619 330.08 191.439 329.94C189.649 329.83 183.439 333.03 179.309 334.57C178.329 334.94 178.239 336.35 179.219 336.73C180.909 337.39 182.969 337.53 185.019 337.2C183.059 338.55 180.959 339.99 179.299 340.97C178.279 341.57 178.539 343.18 179.719 343.31C181.489 343.5 183.479 343 185.249 342.28C184.449 343.38 183.629 344.49 182.859 345.4C182.029 346.38 182.859 347.94 184.119 347.73C187.429 347.18 190.149 344.25 190.649 343.11C190.819 343.14 191.009 343.17 191.189 343.21C190.669 344.46 189.899 345.96 188.489 347.83C187.599 349 188.579 349.81 189.239 349.77C193.819 349.49 195.019 344.39 195.029 344.35C195.069 344.4 200.859 351.97 203.619 351C205.279 350.41 205.449 349.59 205.869 348.78C205.939 348.82 206.409 345.04 206.409 345.04Z" fill="url(#paint10_linear_69_4993)"/>
<path style="mix-blend-mode:multiply" d="M140.969 459.85C140.929 460.1 140.859 460.34 140.789 460.59C140.019 463.65 138.409 468.22 136.239 473.73C136.049 474.18 135.869 474.65 135.659 475.14C130.199 487.82 126.819 497.92 117.189 517.93C112.249 528.19 106.809 536.93 102.059 547.19C81.0994 530.74 77.4394 461.49 84.5494 430.85C89.8994 407.75 103.749 398.36 112.849 394.61C113.359 397.42 114.119 400.57 115.189 404.07C119.299 417.62 127.459 430.34 136.169 434.4L140.959 459.86L140.969 459.85Z" fill="url(#paint11_radial_69_4993)"/>
<path d="M229.13 175.17C226.1 171.99 219.74 168.28 212.74 164.37C208.69 162.1 183.54 158.35 175.97 154.49C176.54 155.8 160.38 170.26 135.13 168.91C117.2 167.95 122.95 157.39 126.59 151.23C121.51 153.74 115.83 155.61 111.32 156.97C107.17 158.22 93.1896 164.29 92.4296 164.82C90.2396 166.29 102.51 172.31 98.3696 182.9C94.2296 193.49 73.7196 219.54 70.2096 228.89C67.1096 237.16 85.7096 296.06 79.5096 349.54C125.59 361.61 193.7 320.86 193.7 320.86C193.7 320.86 182.86 295.4 185.43 275.65C188 255.9 202.48 232.76 202.48 232.76C202.48 232.76 217.12 237.87 221.86 243.35C243.08 242.6 258.03 218.29 258.03 218.29C258.03 218.29 237.56 183.93 229.13 175.15V175.17Z" fill="url(#paint12_linear_69_4993)"/>
</g>
<defs>
<linearGradient id="paint0_linear_69_4993" x1="192.089" y1="58.6397" x2="192.089" y2="96.07" gradientUnits="userSpaceOnUse">
<stop stop-color="#FFAE9E"/>
<stop offset="1" stop-color="#FCD7CB"/>
</linearGradient>
<linearGradient id="paint1_linear_69_4993" x1="104.029" y1="58.4498" x2="104.029" y2="95.8801" gradientUnits="userSpaceOnUse">
<stop stop-color="#FFAE9E"/>
<stop offset="1" stop-color="#FCD7CB"/>
</linearGradient>
<linearGradient id="paint2_linear_69_4993" x1="149.059" y1="-10.3729" x2="149.059" y2="131.14" gradientUnits="userSpaceOnUse">
<stop stop-color="#FFAE9E"/>
<stop offset="1" stop-color="#FCD7CB"/>
</linearGradient>
<linearGradient id="paint3_linear_69_4993" x1="148.069" y1="109.629" x2="148.069" y2="184.16" gradientUnits="userSpaceOnUse">
<stop stop-color="#FFAE9E"/>
<stop offset="1" stop-color="#FCD7CB"/>
</linearGradient>
<linearGradient id="paint4_linear_69_4993" x1="53.0011" y1="110.154" x2="53.0011" y2="448.936" gradientUnits="userSpaceOnUse">
<stop stop-color="#FFAE9E"/>
<stop offset="1" stop-color="#FCD7CB"/>
</linearGradient>
<linearGradient id="paint5_linear_69_4993" x1="131.565" y1="236.293" x2="131.565" y2="689.42" gradientUnits="userSpaceOnUse">
<stop stop-color="#FFAE9E"/>
<stop offset="1" stop-color="#FCD7CB"/>
</linearGradient>
<linearGradient id="paint6_linear_69_4993" x1="105.847" y1="645.013" x2="105.847" y2="750.787" gradientUnits="userSpaceOnUse">
<stop stop-color="#FFAE9E"/>
<stop offset="1" stop-color="#FCD7CB"/>
</linearGradient>
<linearGradient id="paint7_linear_69_4993" x1="240.075" y1="192.521" x2="240.075" y2="350.284" gradientUnits="userSpaceOnUse">
<stop stop-color="#FFAE9E"/>
<stop offset="1" stop-color="#FCD7CB"/>
</linearGradient>
<linearGradient id="paint8_linear_69_4993" x1="98.9695" y1="176.55" x2="78.8695" y2="204.26" gradientUnits="userSpaceOnUse">
<stop stop-color="#C1210D"/>
<stop offset="0.52" stop-color="#C1210D"/>
<stop offset="1" stop-color="#9D1D06"/>
</linearGradient>
<linearGradient id="paint9_linear_69_4993" x1="175.154" y1="632.985" x2="175.154" y2="744.546" gradientUnits="userSpaceOnUse">
<stop stop-color="#FFAE9E"/>
<stop offset="1" stop-color="#FCD7CB"/>
</linearGradient>
<linearGradient id="paint10_linear_69_4993" x1="192.469" y1="325.293" x2="192.469" y2="351.086" gradientUnits="userSpaceOnUse">
<stop stop-color="#FFAE9E"/>
<stop offset="1" stop-color="#FCD7CB"/>
</linearGradient>
<radialGradient id="paint11_radial_69_4993" cx="0" cy="0" r="1" gradientUnits="userSpaceOnUse" gradientTransform="translate(173.669 498.439) scale(99.27 93.3138)">
<stop stop-color="#0D7882"/>
<stop offset="0.05" stop-color="#197E88"/>
<stop offset="0.4" stop-color="#7AB4BA"/>
<stop offset="0.69" stop-color="#C1DCDF"/>
<stop offset="0.9" stop-color="#EEF5F6"/>
<stop offset="1" stop-color="white"/>
</radialGradient>
<linearGradient id="paint12_linear_69_4993" x1="69.8496" y1="251.51" x2="258.02" y2="251.51" gradientUnits="userSpaceOnUse">
<stop stop-color="#C1210D"/>
<stop offset="0.52" stop-color="#C1210D"/>
<stop offset="1" stop-color="#9D1D06"/>
</linearGradient>
<clipPath id="clip0_69_4993">
<rect width="276" height="766" fill="white"/>
</clipPath>
</defs>
</svg>
