<svg width="311" height="801" viewBox="0 0 311 801" fill="none" xmlns="http://www.w3.org/2000/svg">
<g clip-path="url(#clip0_2646_3040)">
<path d="M169.339 72.4181L163.856 38.5398L136.517 28.7475L108.551 22.1233L92.4644 26.7954L81.6055 46.0706L80.4451 64.2152V89.5919L86.0023 95.16L85.5552 101.336L94.4233 114.137L122.082 124.377C122.082 124.377 132.067 125.732 132.483 124.974C132.898 124.217 148.824 114.734 148.824 114.734L161.61 106.904L166.965 98.1681L169.339 89.5812L171.969 86.8718L174.045 79.3409L169.328 72.4181H169.339Z" fill="black"/>
<path d="M160.269 165.05C160.269 165.05 148.824 161.775 148.824 155.887V125.646C146.674 127.054 144.491 128.302 142.362 129.433C138.21 131.62 134.378 132.793 131.088 133.401C131.088 133.401 128.97 133.988 125.456 133.956C121.954 133.988 119.835 133.412 119.835 133.412C116.535 132.804 112.702 131.63 108.551 129.444C106.698 128.473 104.814 127.385 102.929 126.201V155.898C102.929 161.786 91.4957 165.061 91.4957 165.061C90.4417 165.253 89.6539 165.733 89.0684 166.415C86.8328 168.997 87.5567 174.618 89.0684 180.122C90.8463 186.619 93.6994 192.912 93.9975 193.734C95.0302 196.55 111.361 227.782 127.245 225.553C143.118 223.324 157.671 189.115 160.184 180.197C161.035 177.189 161.45 174.853 161.61 173.061C162.685 169.904 162.462 167.13 160.269 165.071V165.05Z" fill="url(#paint0_linear_2646_3040)"/>
<g style="mix-blend-mode:multiply" opacity="0.25">
<path d="M131.077 131.044C131.077 131.044 128.959 131.684 125.446 131.652C121.932 131.684 119.814 131.055 119.814 131.055C116.514 130.383 112.681 129.081 108.529 126.66C106.677 125.572 104.792 124.377 102.908 123.065V143.898C118.504 146.372 134.271 140.719 148.803 131.396V122.457C146.652 124.004 144.47 125.401 142.33 126.66C138.178 129.081 134.346 130.383 131.056 131.044H131.077Z" fill="#ECB699"/>
</g>
<mask id="mask0_2646_3040" style="mask-type:luminance" maskUnits="userSpaceOnUse" x="166" y="61" width="16" height="31">
<path d="M171.16 61.3138C168.711 61.9965 167.508 63.6392 166.954 64.3859C166.997 64.5886 167.018 64.8019 167.05 65.0153C168.583 74.5409 169.179 83.8211 169.307 91.2667C171.873 92.2587 175.705 91.4907 178.931 83.8105C182.955 74.1995 181.348 62.0392 175.226 61.1431C174.619 61.0578 174.055 61.0151 173.534 61.0151C172.639 61.0151 171.852 61.1325 171.17 61.3245" fill="white"/>
</mask>
<g mask="url(#mask0_2646_3040)">
<path d="M182.955 61.0051H166.954V92.2594H182.955V61.0051Z" fill="url(#paint1_linear_2646_3040)"/>
</g>
<mask id="mask1_2646_3040" style="mask-type:luminance" maskUnits="userSpaceOnUse" x="69" y="60" width="15" height="32">
<path d="M75.729 61.1006C69.6075 61.9966 68 74.157 72.0242 83.7679C75.2393 91.4268 79.0612 92.2161 81.6269 91.2241C81.7546 84.0452 82.3082 75.1596 83.7241 65.9967C83.8093 65.442 83.8944 64.8874 83.9796 64.3327C83.3089 63.4153 81.6907 61.2393 78.1137 60.9939C77.8795 60.9832 77.6453 60.9619 77.3898 60.9619C76.8681 60.9619 76.3145 61.0046 75.7183 61.0899" fill="white"/>
</mask>
<g mask="url(#mask1_2646_3040)">
<path d="M83.9903 60.9727H68V92.2162H83.9903V60.9727Z" fill="url(#paint2_linear_2646_3040)"/>
</g>
<mask id="mask2_2646_3040" style="mask-type:luminance" maskUnits="userSpaceOnUse" x="84" y="13" width="83" height="97">
<path d="M118.781 13.8886C117.834 14.0486 116.886 14.2406 115.928 14.4966C99.9699 18.6674 91.2721 34.4971 86.6304 51.9376C85.9278 53.815 85.1932 57.9431 85.1932 57.9431C84.7461 60.0339 84.3629 62.1353 84.0115 64.2047C85.3849 77.3677 87.6099 97.1656 88.8448 100.526C89.1642 101.411 89.9413 102.339 90.9953 103.278C94.4233 105.561 99.1927 108.483 102.259 109.315C107.497 110.723 108.572 106.755 109.509 103.214C110.445 99.6617 112.862 95.7042 118.909 95.1282C119.409 95.0855 119.888 95.0535 120.357 95.0215C120.463 95.0109 120.549 95.0002 120.644 94.9895C124.019 94.7335 132.078 94.4135 135.666 96.1522C139.136 97.6349 140.744 100.622 141.479 103.352C142.415 106.905 143.491 110.873 148.718 109.454C151.794 108.611 156.564 105.689 159.992 103.416C161.056 102.478 161.823 101.55 162.142 100.664C163.377 97.3149 165.592 77.645 166.965 64.4927V64.4607C166.965 64.4607 166.965 64.4073 166.954 64.3753C166.603 62.2313 166.209 60.0765 165.741 57.9218C165.741 57.9218 165.017 53.8044 164.314 51.9163C160.301 36.8865 153.285 23.0835 141.212 16.8753C141.117 16.822 141.031 16.7686 140.936 16.7153C140.755 16.63 140.574 16.534 140.382 16.4486C136.39 14.4752 132.547 13.7819 130.343 13.5472C128.725 13.3339 127.149 13.2485 125.669 13.2485C123.008 13.2485 120.634 13.5365 118.771 13.8672" fill="white"/>
</mask>
<g mask="url(#mask2_2646_3040)">
<path d="M166.976 13.2698H84.0115V110.883H166.976V13.2698Z" fill="url(#paint3_linear_2646_3040)"/>
</g>
<path d="M83.7241 65.9966C82.3082 75.1596 81.7546 84.0452 81.6269 91.224C81.6056 91.7574 81.6056 92.2801 81.6056 92.7921C81.4246 111.385 95.8712 122.724 108.561 129.433C112.713 131.631 116.546 132.804 119.835 133.391C119.835 133.391 121.954 133.977 125.467 133.935C128.97 133.967 131.088 133.401 131.088 133.401C134.388 132.793 138.221 131.62 142.373 129.433C155.052 122.734 169.509 111.395 169.328 92.7921C169.328 92.2907 169.318 91.7787 169.307 91.256C169.179 83.8105 168.583 74.5409 167.05 65.0046C167.018 64.8233 166.997 64.6526 166.965 64.4713C165.592 77.6236 163.377 97.3149 162.142 100.664C161.812 101.55 161.046 102.478 159.981 103.416C156.553 105.699 151.784 108.622 148.707 109.454C143.48 110.873 142.394 106.904 141.468 103.363C140.744 100.622 139.126 97.6455 135.655 96.1628C132.057 94.4241 124.008 94.7441 120.623 95.0001C120.527 95.0001 120.442 95.0108 120.336 95.0215C119.867 95.0535 119.388 95.0855 118.888 95.1281C112.852 95.7042 110.435 99.6723 109.487 103.214C108.551 106.755 107.475 110.734 102.237 109.315C99.1714 108.483 94.402 105.56 90.974 103.278C89.9094 102.339 89.1429 101.411 88.8235 100.526C87.5886 97.1655 85.3636 77.3676 83.9903 64.2046C83.9903 64.2473 83.9796 64.2899 83.969 64.3326C83.8838 64.8873 83.7986 65.442 83.7135 65.9966" fill="black"/>
<path d="M183.701 0.82143C182.37 1.25878 179.101 2.14413 171.788 3.90419C154.211 8.14964 139.041 -0.917286 112.734 0.0747424C91.5489 0.874765 86.556 13.1524 85.4062 17.9206C76.9001 24.4594 75.6119 36.9291 76.1761 46.9881C76.5275 53.2709 77.6133 58.6151 78.1137 60.9938C81.6908 61.2498 83.3089 63.4152 83.969 64.3326C84.331 62.1992 84.7249 60.0658 85.172 57.9431C85.172 57.9431 85.8959 53.8256 86.6092 51.9482C87.2799 49.4202 88.0464 46.9454 88.8981 44.5133C104.324 37.3985 105.091 28.5876 105.091 28.5876C129.001 44.556 151.305 46.2627 162.504 45.9747C163.154 47.9374 163.761 49.9322 164.304 51.9589C165.006 53.8363 165.73 57.9537 165.73 57.9537C166.188 60.1085 166.582 62.2632 166.944 64.4072C167.497 63.6499 168.7 62.0072 171.149 61.3245C171.66 58.9564 172.969 52.7269 173.236 45.516C173.236 45.2707 173.257 45.0147 173.267 44.7694C192.271 31.6383 184.648 4.00019 183.701 0.82143Z" fill="black"/>
<path d="M112.468 105.08C112.468 105.08 116.099 111.128 124.168 111.128C124.168 111.128 133.175 111.587 137.412 105.443L137.571 105.187C123.54 110.798 112.479 105.08 112.479 105.08" fill="white"/>
<path d="M130.545 90.9681C130.13 90.9681 129.757 90.6907 129.64 90.2747C129.502 89.7734 129.8 89.2614 130.3 89.1334C131.45 88.824 134.133 87.576 134.612 85.8693C134.942 84.6959 133.281 80.8451 131.823 77.453C130.918 75.341 129.981 73.1649 129.236 71.0848C126.989 64.7807 130.162 59.2338 130.3 58.9992C130.566 58.5512 131.131 58.4018 131.578 58.6685C132.025 58.9245 132.174 59.5005 131.918 59.9485C131.886 60.0019 129.055 64.994 131.003 70.4662C131.727 72.4929 132.642 74.6369 133.537 76.717C135.634 81.5811 136.89 84.6532 136.4 86.3813C135.645 89.08 132.089 90.5841 130.779 90.9361C130.694 90.9574 130.62 90.9681 130.534 90.9681" fill="#DFAC97"/>
<path d="M149.846 70.0181C149.846 71.9275 148.303 73.4849 146.386 73.4849C144.47 73.4849 142.937 71.9275 142.937 70.0181C142.937 68.1087 144.491 66.562 146.386 66.562C148.281 66.562 149.846 68.1194 149.846 70.0181Z" fill="#231F20"/>
<path d="M109.541 70.2315C109.541 72.1409 108.008 73.6983 106.081 73.6983C104.154 73.6983 102.631 72.1409 102.631 70.2315C102.631 68.3221 104.186 66.7754 106.081 66.7754C107.976 66.7754 109.541 68.3328 109.541 70.2315Z" fill="#231F20"/>
</g>
<mask id="mask3_2646_3040" style="mask-type:luminance" maskUnits="userSpaceOnUse" x="190" y="745" width="45" height="29">
<path d="M195.485 745.285C196.456 745.391 197.448 745.496 198.45 745.496C203.883 745.496 209.253 746.309 214.676 746.351C217.156 746.372 219.624 746.351 222.083 746.024C222.789 745.929 223.454 745.728 224.182 745.792C224.077 747.998 226.187 750.995 227.347 752.821C228.655 754.847 231.525 759.713 234.479 759.976L234.637 773.876C231.219 773.676 227.79 773.676 224.351 773.686C220.067 773.697 215.784 773.718 211.543 773.306C206.542 772.821 201.805 771.459 197.205 769.654C193.597 768.251 191.835 767.1 191.297 763.628C190.379 757.581 191.329 751.132 191.793 745.085C192.046 745.063 192.299 745.063 192.552 745.063C193.534 745.063 194.515 745.169 195.485 745.275" fill="white"/>
</mask>
<g mask="url(#mask3_2646_3040)">
<path d="M223.567 725.902L177.91 752.271L201.443 793.045L247.099 766.676L223.567 725.902Z" fill="url(#paint4_linear_2646_3040)"/>
</g>
<mask id="mask4_2646_3040" style="mask-type:luminance" maskUnits="userSpaceOnUse" x="25" y="750" width="44" height="30">
<path d="M25.6055 779.966C25.6688 779.786 25.7215 779.607 25.7848 779.427H25.7426C25.6266 779.607 25.5844 779.776 25.616 779.966M34.4571 750.541C33.5076 750.573 32.4842 750.604 31.5242 750.235C30.6801 753.992 29.4036 757.771 28.3485 761.496C27.3568 765.011 26.3545 768.536 26.1541 772.177C26.038 774.383 26.4073 777.211 25.7848 779.427L66.6881 773.823C66.3821 773.222 66.4349 772.261 66.3294 771.586C66.0129 769.264 65.9074 766.9 65.9074 764.557C65.9074 760.673 66.7092 755.934 68.545 752.367C59.9149 751.871 51.2426 750.456 42.5597 750.362C39.8483 750.34 37.1369 750.478 34.4466 750.541" fill="white"/>
</mask>
<g mask="url(#mask4_2646_3040)">
<path d="M57.8068 731.619L12.7077 757.666L36.3191 798.577L81.4183 772.53L57.8068 731.619Z" fill="url(#paint5_linear_2646_3040)"/>
</g>
<path d="M215.109 758.647C198.513 758.974 197.511 758.963 188.142 759.048C186.201 759.069 125.516 455.999 125.516 455.999C126.107 454.183 124.725 445.022 125.39 439.524C161.345 530.827 197.806 661.898 215.109 758.636V758.647Z" fill="url(#paint6_linear_2646_3040)"/>
<path d="M124.324 462.088C101.261 538.584 65.7069 764.23 65.7069 766.013C65.7069 766.889 58.9336 766.742 50.6833 766.235C65.8757 680.62 93.5806 541.011 124.324 462.088Z" fill="url(#paint7_linear_2646_3040)"/>
<path d="M33.7819 565.032C42.2748 480.273 57.0451 358.416 57.0451 358.416C57.0451 358.416 105.291 358.88 128.597 358.88C159.193 358.88 199.494 355.682 199.494 355.682C199.494 355.682 207.724 481.497 216.217 566.257C224.594 649.866 233.994 756.388 233.994 757.866C233.994 757.866 222.378 758.446 215.098 759.079C197.796 662.341 124.092 448.589 125.506 456.442C124.461 461.244 125.506 456.442 124.313 462.099C93.5701 541.022 65.8757 680.631 50.6728 766.245C37.7277 765.443 23.6642 759.48 23.6642 759.48C23.6642 759.48 25.2784 649.792 33.7713 565.032H33.7819Z" fill="url(#paint8_linear_2646_3040)"/>
<path style="mix-blend-mode:multiply" opacity="0.27" d="M140.097 376.073L135.244 423.914C135.244 423.914 117.994 422.416 132.564 380.168L140.097 376.073Z" fill="url(#paint9_linear_2646_3040)"/>
<path d="M54.7241 373.519L55.2411 385.381L202.438 386.954L201.193 372.917L54.7241 373.519Z" fill="#707070"/>
<path d="M100.354 373.36H104.68L105.102 385.941H100.259L100.354 373.36Z" fill="url(#paint10_linear_2646_3040)"/>
<path d="M182.403 372.938L181.264 384.052H185.589L186.486 372.864L182.403 372.938Z" fill="url(#paint11_linear_2646_3040)"/>
<path d="M159.963 371.197H144.338L144.486 383.756L160.627 382.996V381.086L147.26 381.371L146.269 373.804L160.585 373.118L159.963 371.197Z" fill="url(#paint12_linear_2646_3040)"/>
<path d="M155.342 376.316L142.344 376.073V377.265L155.342 378.743C155.342 378.743 156.945 377.624 155.342 376.316Z" fill="url(#paint13_linear_2646_3040)"/>
<path d="M236.494 755.871C236.494 755.871 261.72 769.749 272.196 773.296C282.673 776.842 304.617 781.116 309.196 784.81C313.785 788.504 308.869 793.971 302.317 795.881C295.765 797.802 258.27 797.654 243.046 795.438C227.811 793.222 222.737 788.061 222.737 788.061C222.737 788.061 219.139 787.026 217.008 787.47C214.877 787.913 216.512 792.641 214.708 793.96C212.914 795.29 189.166 792.778 186.053 790.71C182.941 788.641 186.053 765.908 188.512 759.997C190.97 754.087 197.184 762.657 214.223 763.1C231.251 763.544 221.27 762.657 236.484 755.86" fill="black"/>
<path d="M18.1253 766.731C18.2414 766.435 18.3363 766.14 18.484 765.834C22.145 757.654 33.4865 755.29 48.8371 757.654C57.1718 758.931 60.9171 761.412 62.6051 763.417C63.9978 764.842 65.1794 766.615 65.9179 768.926C68.661 771.153 73.4297 774.889 75.8879 778.098C79.3695 782.657 84.6024 792.873 73.9572 797.285C63.9134 801.443 25.943 802.52 13.1772 798.393C8.22918 797.464 4.32559 796.325 2.08894 795.079C-5.23293 791.026 8.38744 773.401 18.1359 766.731" fill="black"/>
<path d="M203.894 174.543C211.807 180.622 221.028 180.875 224.731 185.002C228.434 189.118 244.329 247.153 248 257C251.671 266.847 264.911 307.437 264.5 323.5C264.089 339.563 265.972 347.45 245.346 355.598C224.731 363.746 208.874 338.416 204.548 308.959C200.222 279.503 196.076 168.538 203.883 174.543H203.894Z" fill="url(#paint14_linear_2646_3040)"/>
<path d="M171.906 168.664L138.641 155.852L82.5767 158.511L168.983 267.514C168.983 267.514 174.575 192.664 171.906 168.664Z" fill="#F7F7F7"/>
<path d="M164.7 159.229C158.359 183.767 130.264 169.414 130.264 169.414L82.3341 150.321C82.3341 150.321 31.5663 178.606 24.8458 184.126C18.1253 189.646 28.127 221.53 41.7262 257.54C55.3255 293.54 67.8275 280.727 59.2185 321.92C50.6834 362.753 55.2833 374.711 55.2833 374.711L200.286 373.17C200.286 373.17 203.778 338.563 191.54 303.693C189.271 288.949 218.896 228.748 213.79 209.466C208.684 190.184 211.796 186.68 203.894 174.553L164.71 159.239L164.7 159.229Z" fill="#E1EFFF"/>
<path d="M138.63 155.841L157.241 175.071L153.443 196.116C153.443 196.116 165.523 227.039 171.336 262.553C182.509 330.796 188.311 394.289 188.311 394.838C188.311 395.672 171.631 417.181 171.631 417.181L152.124 396.242C152.124 396.242 162.305 332.115 158.95 262.29C157.272 227.408 148.336 197.287 148.284 197.287C148.115 197.287 123.997 176.823 123.997 176.823L138.641 155.852L138.63 155.841Z" fill="url(#paint15_linear_2646_3040)"/>
<path d="M104.901 245.741C104.901 245.741 97.5476 247.778 99.32 262.268C101.092 276.759 108.53 279.165 108.53 279.165C108.53 279.165 118.268 272.084 115.494 260.084C112.719 248.084 104.912 245.751 104.912 245.751L104.901 245.741Z" fill="#ADADAD"/>
<path d="M105.08 247.208C105.08 247.208 100.185 246.669 98.1067 246.564C96.0283 246.458 84.307 251.894 84.307 251.894C84.307 251.894 84.824 280.231 100.597 283.461C102.01 281.857 103.783 279.155 104.933 277.16C107.233 276.959 108.119 276.411 108.119 276.411C108.119 276.411 114.681 256.896 105.091 247.197L105.08 247.208Z" fill="url(#paint16_linear_2646_3040)"/>
<path d="M46 171C36.6947 177.691 21.5 179.5 19.8133 196.485C18.1464 202.406 17.5076 293.826 50 352.5C80.1209 367.328 105.196 346.543 107.56 330.511C111.622 302.986 93.6861 277.508 85.668 257.139C72.8072 224.474 46 171 46 171Z" fill="url(#paint17_linear_2646_3040)"/>
<path d="M224.731 289.741C224.731 289.741 224.72 268.917 208.336 264.928C190.5 271 125.487 290.652 112.5 295C91.8848 301.902 58.4485 301.24 51 322C41.3043 349.039 52.076 360.949 65.9496 362.469C80.741 364.094 120.22 362.68 161.904 346.827C203.588 330.975 224.72 289.741 224.72 289.741H224.731Z" fill="#DAE8FA"/>
<path d="M210.15 268.073C210.013 267.661 217.261 251.936 217.81 250.975C218.358 250.015 226.788 242.574 226.788 242.574L242.624 240.442C242.624 240.442 244.407 242.69 244.006 245.909C243.943 246.416 231.114 249.498 231.092 250.036C240.06 249.952 249.524 250.975 249.524 250.975C249.524 250.975 252.858 255.197 252.446 258.205C253.786 260.949 253.554 264.284 252.446 267.134L249.777 266.88C249.777 266.88 250.294 270.69 247.836 273.477C243.056 272.263 237.644 271.461 237.644 271.461C237.644 271.461 230.998 274.025 229.331 274.553C227.748 275.524 227.305 285.287 223.528 286.912C216.407 286.247 210.14 268.062 210.14 268.062L210.15 268.073Z" fill="url(#paint18_linear_2646_3040)"/>
<path d="M243.5 297.5C202.882 271.516 155.004 246.553 104.901 245.73C110.303 248.062 117.382 261.329 108.52 279.155C162.706 310.986 187.003 359.566 236.969 357.139C277.218 355.186 267.386 312.793 243.5 297.5Z" fill="url(#paint19_linear_2646_3040)"/>
<path d="M106.927 247.007L101.989 246.553C101.989 246.553 106.325 250.754 106.684 261.276C106.969 269.783 104.922 277.149 104.922 277.149L108.952 278.258C108.952 278.258 112.497 271.44 112.867 263.113C113.341 252.558 106.916 246.996 106.916 246.996L106.927 247.007Z" fill="#C2D8F0"/>
<path d="M138.63 155.841L158.929 176.812L172.623 165.16L151.322 143.313L138.63 155.841Z" fill="#CFDDF1"/>
<path d="M138.63 155.841C138.63 155.841 129.451 170.828 123.986 179.43C87.2611 162.395 76.8796 151.894 76.8796 151.894L99.0457 135.567C99.0457 135.567 108.245 146.733 138.63 155.841Z" fill="#CFDDF1"/>
<path d="M95.1315 357.951L99.014 355.682C100.227 357.751 100.881 358.954 102.179 361.402L97.326 361.93C96.0599 359.534 96.3026 359.967 95.121 357.951H95.1315ZM86.934 345.497L90.5316 342.796C92.0297 344.79 93.5173 346.922 94.9627 349.128L91.2068 351.598C89.8142 349.466 88.3688 347.418 86.934 345.497ZM77.1856 334.363L80.3084 331.123C82.1231 332.875 83.9272 334.774 85.6679 336.759L82.2813 339.714C80.6249 337.814 78.9158 336.02 77.1961 334.352L77.1856 334.363ZM65.6541 325.329L68.0068 321.497C70.1802 322.838 72.343 324.347 74.4319 325.983L71.6467 329.519C69.6949 327.978 67.6798 326.574 65.6541 325.329ZM52.4136 319.408L53.6691 315.091C56.1695 315.819 58.6488 316.738 61.0648 317.814L59.2185 321.92C56.9924 320.917 54.703 320.073 52.4136 319.408ZM38.0864 317.36L38.1075 312.864C40.7556 312.864 43.3931 313.065 45.9674 313.434L45.3344 317.888C42.9711 317.55 40.534 317.381 38.0969 317.371L38.0864 317.36Z" fill="#C2D8F0"/>
<path d="M225.49 352.168L229.985 351.915C230.111 354.226 230.175 354.754 230.565 357.234L226.007 356.843C225.585 354.215 225.638 354.637 225.49 352.168ZM225.533 344.389C225.722 341.698 226.123 339.091 226.704 336.632L231.082 337.677C230.554 339.893 230.196 342.258 230.027 344.717L225.543 344.389H225.533ZM229.246 329.149C230.343 326.722 231.704 324.421 233.276 322.3L236.885 324.981C235.502 326.849 234.31 328.875 233.34 331.007L229.246 329.149ZM238.646 316.453C240.556 314.754 242.698 313.192 245.008 311.788L247.34 315.64C245.261 316.896 243.341 318.3 241.632 319.82L238.646 316.453ZM251.993 308.263C254.303 307.303 256.772 306.448 259.335 305.73L260.559 310.057C258.164 310.733 255.875 311.524 253.733 312.421L252.003 308.263H251.993Z" fill="#C2D8F0"/>
<defs>
<linearGradient id="paint0_linear_2646_3040" x1="124.943" y1="103.679" x2="124.943" y2="225.667" gradientUnits="userSpaceOnUse">
<stop stop-color="#FFAE9E"/>
<stop offset="1" stop-color="#FCD7CB"/>
</linearGradient>
<linearGradient id="paint1_linear_2646_3040" x1="174.955" y1="54.1409" x2="174.955" y2="92.2594" gradientUnits="userSpaceOnUse">
<stop stop-color="#FFAE9E"/>
<stop offset="1" stop-color="#FCD7CB"/>
</linearGradient>
<linearGradient id="paint2_linear_2646_3040" x1="75.9951" y1="54.1108" x2="75.9951" y2="92.2162" gradientUnits="userSpaceOnUse">
<stop stop-color="#FFAE9E"/>
<stop offset="1" stop-color="#FCD7CB"/>
</linearGradient>
<linearGradient id="paint3_linear_2646_3040" x1="125.494" y1="-8.16848" x2="125.494" y2="110.883" gradientUnits="userSpaceOnUse">
<stop stop-color="#FFAE9E"/>
<stop offset="1" stop-color="#FCD7CB"/>
</linearGradient>
<linearGradient id="paint4_linear_2646_3040" x1="200.728" y1="742.421" x2="223.894" y2="782.531" gradientUnits="userSpaceOnUse">
<stop stop-color="#5E5B55"/>
<stop offset="0.23" stop-color="#6C6A66"/>
<stop offset="0.69" stop-color="#939493"/>
<stop offset="0.92" stop-color="#A9ABAC"/>
<stop offset="1" stop-color="#A9ABAC"/>
</linearGradient>
<linearGradient id="paint5_linear_2646_3040" x1="37.0416" y1="744.648" x2="56.0485" y2="777.557" gradientUnits="userSpaceOnUse">
<stop stop-color="#5E5B55"/>
<stop offset="0.23" stop-color="#6C6A66"/>
<stop offset="0.69" stop-color="#939493"/>
<stop offset="0.92" stop-color="#A9ABAC"/>
<stop offset="1" stop-color="#A9ABAC"/>
</linearGradient>
<linearGradient id="paint6_linear_2646_3040" x1="125.2" y1="599.291" x2="215.109" y2="599.291" gradientUnits="userSpaceOnUse">
<stop stop-color="#3D3D3D"/>
<stop offset="1" stop-color="#262626"/>
</linearGradient>
<linearGradient id="paint7_linear_2646_3040" x1="50.6833" y1="614.362" x2="124.324" y2="614.362" gradientUnits="userSpaceOnUse">
<stop stop-color="#3D3D3D"/>
<stop offset="1" stop-color="#262626"/>
</linearGradient>
<linearGradient id="paint8_linear_2646_3040" x1="23.6747" y1="560.958" x2="234.004" y2="560.958" gradientUnits="userSpaceOnUse">
<stop stop-color="#454545"/>
<stop offset="1" stop-color="#2E2E2E"/>
</linearGradient>
<linearGradient id="paint9_linear_2646_3040" x1="126.708" y1="399.988" x2="140.097" y2="399.988" gradientUnits="userSpaceOnUse">
<stop stop-color="#3D3D3D"/>
<stop offset="1" stop-color="#262626"/>
</linearGradient>
<linearGradient id="paint10_linear_2646_3040" x1="100.259" y1="379.651" x2="105.102" y2="379.651" gradientUnits="userSpaceOnUse">
<stop stop-color="#3D3D3D"/>
<stop offset="1" stop-color="#262626"/>
</linearGradient>
<linearGradient id="paint11_linear_2646_3040" x1="181.264" y1="378.458" x2="186.486" y2="378.458" gradientUnits="userSpaceOnUse">
<stop stop-color="#3D3D3D"/>
<stop offset="1" stop-color="#262626"/>
</linearGradient>
<linearGradient id="paint12_linear_2646_3040" x1="144.338" y1="377.476" x2="160.627" y2="377.476" gradientUnits="userSpaceOnUse">
<stop stop-color="#3D3D3D"/>
<stop offset="1" stop-color="#262626"/>
</linearGradient>
<linearGradient id="paint13_linear_2646_3040" x1="142.344" y1="377.403" x2="156.059" y2="377.403" gradientUnits="userSpaceOnUse">
<stop stop-color="#3D3D3D"/>
<stop offset="1" stop-color="#262626"/>
</linearGradient>
<linearGradient id="paint14_linear_2646_3040" x1="236.516" y1="174.308" x2="222" y2="301" gradientUnits="userSpaceOnUse">
<stop stop-color="#E1EFFF"/>
<stop offset="1" stop-color="#CFDDF1"/>
</linearGradient>
<linearGradient id="paint15_linear_2646_3040" x1="122.119" y1="161.857" x2="139.993" y2="229.769" gradientUnits="userSpaceOnUse">
<stop stop-color="#C1210D"/>
<stop offset="0.52" stop-color="#C1210D"/>
<stop offset="1" stop-color="#9D1D06"/>
</linearGradient>
<linearGradient id="paint16_linear_2646_3040" x1="97.3084" y1="238.458" x2="97.3084" y2="283.461" gradientUnits="userSpaceOnUse">
<stop stop-color="#FFAE9E"/>
<stop offset="1" stop-color="#FCD7CB"/>
</linearGradient>
<linearGradient id="paint17_linear_2646_3040" x1="91" y1="223" x2="54" y2="342" gradientUnits="userSpaceOnUse">
<stop stop-color="#DAE8FA"/>
<stop offset="1" stop-color="#DAE8FA"/>
</linearGradient>
<linearGradient id="paint18_linear_2646_3040" x1="231.753" y1="230.237" x2="231.753" y2="286.912" gradientUnits="userSpaceOnUse">
<stop stop-color="#FFAE9E"/>
<stop offset="1" stop-color="#FCD7CB"/>
</linearGradient>
<linearGradient id="paint19_linear_2646_3040" x1="237" y1="288.5" x2="202.5" y2="342.5" gradientUnits="userSpaceOnUse">
<stop stop-color="#E1EFFF"/>
<stop offset="1" stop-color="#CFDDF1"/>
</linearGradient>
<clipPath id="clip0_2646_3040">
<rect width="118" height="225.649" fill="white" transform="translate(68)"/>
</clipPath>
</defs>
</svg>
