<svg width="339" height="823" viewBox="0 0 339 823" fill="none" xmlns="http://www.w3.org/2000/svg">
<g clip-path="url(#clip0_2646_3062)">
<path d="M199.339 72.4181L193.856 38.5398L166.517 28.7475L138.551 22.1233L122.464 26.7954L111.606 46.0706L110.445 64.2152V89.5919L116.002 95.16L115.555 101.336L124.423 114.137L152.082 124.377C152.082 124.377 162.067 125.732 162.483 124.974C162.898 124.217 178.824 114.734 178.824 114.734L191.61 106.904L196.965 98.1681L199.339 89.5812L201.969 86.8718L204.045 79.3409L199.328 72.4181H199.339Z" fill="black"/>
<path d="M190.269 165.05C190.269 165.05 178.824 161.775 178.824 155.887V125.646C176.674 127.054 174.491 128.302 172.362 129.433C168.21 131.62 164.378 132.793 161.088 133.401C161.088 133.401 158.97 133.988 155.456 133.956C151.954 133.988 149.835 133.412 149.835 133.412C146.535 132.804 142.702 131.63 138.551 129.444C136.698 128.473 134.814 127.385 132.929 126.201V155.898C132.929 161.786 121.496 165.061 121.496 165.061C120.442 165.253 119.654 165.733 119.068 166.415C116.833 168.997 117.557 174.618 119.068 180.122C120.846 186.619 123.699 192.912 123.997 193.734C125.03 196.55 141.361 227.783 157.245 225.553C173.118 223.324 187.671 189.115 190.184 180.197C191.035 177.189 191.45 174.853 191.61 173.061C192.685 169.904 192.462 167.13 190.269 165.071V165.05Z" fill="url(#paint0_linear_2646_3062)"/>
<g style="mix-blend-mode:multiply" opacity="0.25">
<path d="M161.077 131.044C161.077 131.044 158.959 131.684 155.446 131.652C151.932 131.684 149.814 131.054 149.814 131.054C146.514 130.382 142.681 129.081 138.529 126.66C136.677 125.572 134.792 124.377 132.908 123.065V143.897C148.504 146.372 164.271 140.719 178.803 131.396V122.457C176.652 124.004 174.47 125.401 172.33 126.66C168.178 129.081 164.346 130.382 161.056 131.044H161.077Z" fill="#ECB699"/>
</g>
<mask id="mask0_2646_3062" style="mask-type:luminance" maskUnits="userSpaceOnUse" x="196" y="61" width="16" height="31">
<path d="M201.16 61.3138C198.711 61.9964 197.508 63.6392 196.954 64.3858C196.997 64.5885 197.018 64.8019 197.05 65.0152C198.583 74.5408 199.179 83.8211 199.307 91.2666C201.873 92.2586 205.705 91.4906 208.931 83.8104C212.955 74.1995 211.348 62.0391 205.226 61.1431C204.619 61.0577 204.055 61.0151 203.534 61.0151C202.639 61.0151 201.852 61.1324 201.17 61.3244" fill="white"/>
</mask>
<g mask="url(#mask0_2646_3062)">
<path d="M212.955 61.005H196.954V92.2592H212.955V61.005Z" fill="url(#paint1_linear_2646_3062)"/>
</g>
<mask id="mask1_2646_3062" style="mask-type:luminance" maskUnits="userSpaceOnUse" x="99" y="60" width="15" height="32">
<path d="M105.729 61.1004C99.6075 61.9964 98 74.1568 102.024 83.7677C105.239 91.4266 109.061 92.216 111.627 91.2239C111.755 84.0451 112.308 75.1595 113.724 65.9966C113.809 65.4419 113.894 64.8872 113.98 64.3325C113.309 63.4151 111.691 61.2391 108.114 60.9937C107.879 60.9831 107.645 60.9617 107.39 60.9617C106.868 60.9617 106.315 61.0044 105.718 61.0897" fill="white"/>
</mask>
<g mask="url(#mask1_2646_3062)">
<path d="M113.99 60.9724H98V92.216H113.99V60.9724Z" fill="url(#paint2_linear_2646_3062)"/>
</g>
<mask id="mask2_2646_3062" style="mask-type:luminance" maskUnits="userSpaceOnUse" x="114" y="13" width="83" height="97">
<path d="M148.781 13.8884C147.834 14.0484 146.886 14.2404 145.928 14.4964C129.97 18.6672 121.272 34.497 116.63 51.9375C115.928 53.8149 115.193 57.943 115.193 57.943C114.746 60.0337 114.363 62.1351 114.012 64.2045C115.385 77.3675 117.61 97.1654 118.845 100.526C119.164 101.411 119.941 102.339 120.995 103.278C124.423 105.56 129.193 108.483 132.259 109.315C137.497 110.723 138.572 106.755 139.509 103.214C140.445 99.6615 142.862 95.7041 148.909 95.1281C149.409 95.0854 149.888 95.0534 150.357 95.0214C150.463 95.0107 150.549 95 150.644 94.9894C154.019 94.7334 162.078 94.4134 165.666 96.1521C169.136 97.6348 170.744 100.622 171.479 103.352C172.415 106.904 173.491 110.873 178.718 109.454C181.794 108.611 186.564 105.688 189.992 103.416C191.056 102.478 191.823 101.55 192.142 100.664C193.377 97.3148 195.592 77.6449 196.965 64.4925V64.4605C196.965 64.4605 196.965 64.4072 196.954 64.3752C196.603 62.2311 196.209 60.0764 195.741 57.9216C195.741 57.9216 195.017 53.8042 194.314 51.9161C190.301 36.8864 183.285 23.0833 171.212 16.8751C171.117 16.8218 171.031 16.7685 170.936 16.7151C170.755 16.6298 170.574 16.5338 170.382 16.4485C166.39 14.4751 162.547 13.7817 160.343 13.5471C158.725 13.3337 157.149 13.2484 155.669 13.2484C153.008 13.2484 150.634 13.5364 148.771 13.8671" fill="white"/>
</mask>
<g mask="url(#mask2_2646_3062)">
<path d="M196.976 13.2697H114.012V110.883H196.976V13.2697Z" fill="url(#paint3_linear_2646_3062)"/>
</g>
<path d="M113.724 65.9965C112.308 75.1595 111.755 84.0451 111.627 91.2239C111.606 91.7573 111.606 92.28 111.606 92.792C111.425 111.385 125.871 122.723 138.561 129.433C142.713 131.63 146.546 132.804 149.835 133.39C149.835 133.39 151.954 133.977 155.467 133.934C158.97 133.966 161.088 133.401 161.088 133.401C164.388 132.793 168.221 131.62 172.373 129.433C185.052 122.734 199.509 111.395 199.328 92.792C199.328 92.2906 199.318 91.7786 199.307 91.2559C199.179 83.8104 198.583 74.5408 197.05 65.0045C197.018 64.8232 196.997 64.6525 196.965 64.4712C195.592 77.6235 193.377 97.3148 192.142 100.664C191.812 101.55 191.046 102.478 189.981 103.416C186.553 105.699 181.784 108.622 178.707 109.454C173.48 110.873 172.394 106.904 171.468 103.363C170.744 100.622 169.126 97.6455 165.655 96.1627C162.057 94.424 154.008 94.744 150.623 95C150.527 95 150.442 95.0107 150.336 95.0214C149.867 95.0534 149.388 95.0854 148.888 95.128C142.852 95.7041 140.435 99.6722 139.487 103.214C138.551 106.755 137.475 110.734 132.237 109.315C129.171 108.483 124.402 105.56 120.974 103.278C119.909 102.339 119.143 101.411 118.824 100.526C117.589 97.1654 115.364 77.3675 113.99 64.2045C113.99 64.2472 113.98 64.2898 113.969 64.3325C113.884 64.8872 113.799 65.4419 113.713 65.9965" fill="black"/>
<path d="M213.701 0.821357C212.37 1.2587 209.101 2.14406 201.788 3.90411C184.211 8.14957 169.041 -0.91736 142.734 0.0746688C121.549 0.874692 116.556 13.1524 115.406 17.9205C106.9 24.4594 105.612 36.9291 106.176 46.988C106.527 53.2709 107.613 58.615 108.114 60.9937C111.691 61.2497 113.309 63.4151 113.969 64.3325C114.331 62.1991 114.725 60.0657 115.172 57.943C115.172 57.943 115.896 53.8255 116.609 51.9481C117.28 49.4201 118.046 46.9453 118.898 44.5133C134.324 37.3984 135.091 28.5875 135.091 28.5875C159.001 44.5559 181.305 46.2627 192.504 45.9746C193.154 47.9374 193.761 49.9321 194.304 51.9588C195.006 53.8362 195.73 57.9537 195.73 57.9537C196.188 60.1084 196.582 62.2631 196.944 64.4072C197.497 63.6498 198.7 62.0071 201.149 61.3244C201.66 58.9564 202.969 52.7268 203.236 45.516C203.236 45.2706 203.257 45.0146 203.267 44.7693C222.271 31.6382 214.648 4.00011 213.701 0.821357Z" fill="black"/>
<path d="M142.468 105.08C142.468 105.08 146.099 111.129 154.168 111.129C154.168 111.129 163.175 111.587 167.412 105.443L167.571 105.187C153.54 110.798 142.479 105.08 142.479 105.08" fill="white"/>
<path d="M160.545 90.9679C160.13 90.9679 159.757 90.6906 159.64 90.2746C159.502 89.7732 159.8 89.2612 160.3 89.1332C161.45 88.8239 164.133 87.5758 164.612 85.8691C164.942 84.6958 163.281 80.845 161.823 77.4529C160.918 75.3408 159.981 73.1648 159.236 71.0847C156.989 64.7805 160.162 59.2337 160.3 58.999C160.566 58.551 161.131 58.4017 161.578 58.6683C162.025 58.9244 162.174 59.5004 161.918 59.9484C161.886 60.0017 159.055 64.9939 161.003 70.466C161.727 72.4927 162.642 74.6368 163.537 76.7169C165.634 81.581 166.89 84.6531 166.4 86.3811C165.645 89.0799 162.089 90.5839 160.779 90.9359C160.694 90.9573 160.62 90.9679 160.534 90.9679" fill="#DFAC97"/>
<path d="M179.846 70.018C179.846 71.9274 178.303 73.4848 176.386 73.4848C174.47 73.4848 172.937 71.9274 172.937 70.018C172.937 68.1086 174.491 66.5619 176.386 66.5619C178.281 66.5619 179.846 68.1193 179.846 70.018Z" fill="#231F20"/>
<path d="M139.541 70.2313C139.541 72.1407 138.008 73.6981 136.081 73.6981C134.154 73.6981 132.631 72.1407 132.631 70.2313C132.631 68.3219 134.186 66.7752 136.081 66.7752C137.976 66.7752 139.541 68.3326 139.541 70.2313Z" fill="#231F20"/>
</g>
<g clip-path="url(#clip1_2646_3062)">
<mask id="mask3_2646_3062" style="mask-type:luminance" maskUnits="userSpaceOnUse" x="216" y="326" width="41" height="170">
<path d="M224.204 355.841C225.558 369.973 231.172 419.076 231.457 428.086C229.417 435.321 218.728 438.88 217.639 445.767C217.11 449.115 217.861 453.297 217.491 456.867C217.015 461.25 214.404 468.074 221.234 465.676C223.39 464.937 228.18 451.977 230.083 452.41C232.821 453.023 235.496 464.799 236.257 466.954C238.657 473.756 238.509 480.959 239.101 488.046C239.249 489.852 239.154 495.577 241.649 495.926C243.879 496.243 246.015 491.257 246.861 489.779C249.768 484.709 253.373 478.097 254.674 471.834C255.921 465.834 256.566 459.201 256.038 453.223C255.604 448.428 255.086 444.922 253.289 440.369C252.274 437.803 251.513 436.356 251.439 433.853C251.47 433.367 252.993 413.742 254.42 387.116C255.868 360.14 251.047 335.943 249.969 332.573C248.891 329.215 244.281 326.226 244.281 326.226" fill="white"/>
</mask>
<g mask="url(#mask3_2646_3062)">
<path d="M240.743 287.912L128.814 311.803L171.563 511.698L283.492 487.808L240.743 287.912Z" fill="url(#paint4_linear_2646_3062)"/>
</g>
<path d="M135.122 510.491C104.357 619.628 96.4385 774.457 96.4385 774.457L60.9685 774.964C60.9685 774.964 57.025 667.4 57.8708 617.727C58.7166 568.054 78.3916 561.283 88.4987 495.809C98.5952 430.335 135.133 510.491 135.133 510.491H135.122Z" fill="url(#paint5_linear_2646_3062)"/>
<path d="M268.682 772.471C268.682 772.471 256.08 760.388 253.141 744.609C251.787 737.3 251.978 626.821 251.809 607.936C251.65 589.062 251.46 558.949 245.465 548.588C239.46 538.205 213.442 515.254 213.442 515.254L180.773 522.098C182.021 522.743 199.719 579.619 199.719 579.619L196.653 612.858C196.801 646.097 212.818 696.868 216.317 714.486C219.827 732.082 219.521 776.126 219.521 776.126L268.682 772.471Z" fill="url(#paint6_linear_2646_3062)"/>
<mask id="mask4_2646_3062" style="mask-type:luminance" maskUnits="userSpaceOnUse" x="207" y="746" width="123" height="47">
<path d="M263.184 747.006C265.627 748.39 268.999 755.752 270.638 759.966C279.043 762.68 309.047 772.461 318.446 773.633C323.785 774.32 327.221 774.52 329.335 774.552C307.313 806.872 261.398 784.977 227.862 791.166C221.202 792.856 214.932 792.032 208.885 789.909L209.192 789.392C205.174 781.755 209.657 769.947 211.645 764.983C213.896 759.364 213.854 747.746 216.867 747.027C219.891 746.299 220.99 749.045 220.99 749.045C220.99 749.045 220.039 760.505 225.981 764.001C231.489 767.243 244.736 764.74 250.572 762.025C246.512 754.389 247.263 751.094 250.001 749.351C252.697 747.629 257.803 745.823 261.324 746.373C262.011 746.478 262.645 746.689 263.184 746.996" fill="white"/>
</mask>
<g mask="url(#mask4_2646_3062)">
<path d="M211.993 738.631L203.786 790.576L323.828 809.506L332.035 757.561L211.993 738.631Z" fill="url(#paint7_linear_2646_3062)"/>
</g>
<mask id="mask5_2646_3062" style="mask-type:luminance" maskUnits="userSpaceOnUse" x="203" y="774" width="132" height="31">
<path d="M334.79 779.463C335.689 783.519 326.671 795.074 313.625 800.883C300.843 806.555 285.989 803.555 270.765 800.471C265.933 799.795 260.774 799.246 257.972 799.447C251.925 799.859 241.152 803.112 234.29 804.421C227.418 805.72 211.063 804.337 203.525 799.056L208.885 789.92C214.943 792.043 221.212 792.867 227.862 791.177C261.398 784.987 307.313 806.872 329.335 774.563C331.534 774.615 332.327 774.467 332.327 774.467C332.327 774.467 333.892 775.397 334.79 779.474" fill="white"/>
</mask>
<g mask="url(#mask5_2646_3062)">
<path d="M210.466 755.268L202.913 803.071L329.461 823.027L337.014 775.223L210.466 755.268Z" fill="url(#paint8_linear_2646_3062)"/>
</g>
<path d="M79.6708 390.422C79.6708 390.422 56.6021 562.678 55.7458 573.071C54.8894 583.464 103.131 598.557 119.454 590.223C138.104 580.696 147.925 458.885 156.478 459.212C161.194 459.392 178.522 567.6 183.755 584.541C188.988 601.483 245.338 580.189 250.233 569.258C258.12 551.64 227.958 443.094 232.884 408.356C237.811 373.607 79.6814 390.422 79.6814 390.422H79.6708Z" fill="url(#paint9_linear_2646_3062)"/>
<path d="M60.5561 579.778L57.8813 591.913C57.8813 591.913 118.196 600.976 118.207 599.941C118.207 598.905 119.444 590.223 119.444 590.223L60.5561 579.778Z" fill="url(#paint10_linear_2646_3062)"/>
<path d="M194.359 590.815L197.721 598.198L253.024 580.823L250.212 569.258L194.359 590.815Z" fill="url(#paint11_linear_2646_3062)"/>
<path d="M209.858 168.841C238.297 160.877 270.225 247.232 274.137 318.505C264.506 340.875 237.769 334.01 237.769 334.01L209.858 168.841Z" fill="url(#paint12_linear_2646_3062)"/>
<path d="M235.739 320.184C249.81 321.071 275.078 312.474 275.078 312.474C275.078 312.474 280.734 334.686 273.26 346.674C270.289 351.448 231.51 353.687 231.51 353.687L235.739 320.184Z" fill="#116C8C"/>
<path d="M60.0698 375.656C60.0698 375.656 82.5571 318.737 106.493 269.455C130.428 220.172 111.441 280.555 111.441 280.555C111.441 280.555 77.2815 356.211 73.9407 372.867C68.4008 374.948 60.0698 375.645 60.0698 375.645V375.656Z" fill="url(#paint13_linear_2646_3062)"/>
<path d="M243.816 378.296C241.881 398.079 233.053 402.24 233.053 402.24C233.053 402.24 233.117 411.091 231.616 418.897C216.085 431.909 88.9639 421.865 88.9639 421.865L88.8264 404.163C88.8264 404.163 78.2859 388.541 88.541 367.724C91.5541 361.598 93.4994 350.708 94.5777 337.073C97.1574 304.235 92.5901 285.794 87.8961 250.105L63.9816 185.793L108.618 161.944C108.618 161.944 141.275 172.897 168.594 172.464C179.79 172.284 183.099 157.275 193.873 159.092C227.048 163.127 239.132 214.247 242.093 232.34C247.559 265.79 244.017 277.471 240.951 312.875C235.411 376.881 245.74 358.514 243.805 378.296H243.816Z" fill="url(#paint14_linear_2646_3062)"/>
<path style="mix-blend-mode:multiply" d="M93.8165 345.1C96.3962 312.263 92.6113 285.784 87.9172 250.094L75.2728 205.459L112.836 212.177C173.69 256.738 136.909 334.158 93.8165 345.089V345.1Z" fill="url(#paint15_radial_2646_3062)"/>
<path style="mix-blend-mode:multiply" opacity="0.6" d="M78.2436 178.178C139.404 203.685 168.457 196.049 164.101 171.059C159.735 146.069 113.1 159.884 113.1 159.884L78.2436 178.167V178.178Z" fill="url(#paint16_radial_2646_3062)"/>
<path d="M195.807 362.812L199.856 393.009L195.712 396.125L190.278 366.974L195.807 362.812Z" fill="#116C8C"/>
<path d="M161.743 360.383L165.243 363.509C165.243 363.509 165.412 385.721 148.095 392.661C146.699 391.615 142.851 388.848 142.851 388.848C142.851 388.848 159.491 384.338 161.733 360.394L161.743 360.383Z" fill="#116C8C"/>
<path d="M114.147 449.928L97.2631 450.203L71.065 450.615L61.7297 410.363L49.6561 377.737L74.5961 368.717C74.5961 368.717 133.685 371.484 136.507 377.737C139.33 383.979 114.136 449.928 114.136 449.928H114.147Z" fill="url(#paint17_linear_2646_3062)"/>
<path d="M49.6667 377.737C49.6667 377.737 44.4123 417.302 70.8324 419.383C97.2525 421.463 112.223 380.514 112.223 380.514L49.6667 377.737Z" fill="#3E3E45"/>
<path d="M114.147 449.928L97.2631 450.203L112.212 380.504L136.518 377.737C139.341 383.979 114.147 449.928 114.147 449.928Z" fill="url(#paint18_linear_2646_3062)"/>
<path d="M119.222 386.757L129.033 397.857C129.033 397.857 165.549 357.595 185.764 276.394C205.978 195.182 193.894 159.092 193.894 159.092L182.824 164.648C182.824 164.648 193.619 212.536 175.371 278.485C157.123 344.424 119.232 386.767 119.232 386.767L119.222 386.757Z" fill="#3E3E45"/>
<path d="M201.178 159.778C199.666 167.003 193.524 169.4 185.637 171.65C182.391 172.59 178.881 173.509 175.234 174.713L165.835 172.632C165.835 172.632 170.402 171.038 175.73 164.352C177.771 161.785 177.94 155.364 177.845 152.026C177.549 141.337 177.845 140.894 177.845 140.894C177.845 140.894 205.026 141.401 201.167 159.789L201.178 159.778Z" fill="#116C8C"/>
<path style="mix-blend-mode:multiply" d="M185.637 171.65C182.391 172.59 178.881 173.509 175.234 174.713L165.835 172.632C165.835 172.632 176.693 167.33 177.845 157.803C178.511 159.969 184.643 168.07 185.626 171.65H185.637Z" fill="url(#paint19_radial_2646_3062)"/>
<path d="M168.33 178.178L175.255 174.703C175.255 174.703 150.801 167.806 135.683 152.829C131.179 148.361 133.558 142.425 132.955 135.908C129.646 134.704 118.492 132.898 120.66 143.661C104.685 143.661 100.456 160.476 108.501 166.718C116.536 172.96 168.34 178.167 168.34 178.167L168.33 178.178Z" fill="#116C8C"/>
<path d="M170.857 221.894C170.857 221.894 172.062 217.194 168.626 205.016C165.19 192.838 160.2 172.126 160.2 172.126C160.136 170.583 158.847 169.337 157.314 169.337C155.781 169.337 154.586 170.583 154.649 172.126C153.37 179.265 161.342 196.313 163.625 205.713C165.909 215.113 166.004 221.894 166.004 221.894C166.004 221.894 164.312 227.46 164.873 228.506C165.433 229.551 173.267 229.9 173.51 227.291C173.754 224.682 170.867 221.894 170.867 221.894H170.857Z" fill="#116C8C"/>
<path d="M184.04 188.243C184.167 182.339 184.579 168.809 184.579 168.809C184.569 167.278 183.311 166.031 181.778 166.031C180.245 166.031 179.008 167.278 179.018 168.809C180.488 179.392 176.143 201.256 175.508 209.409C174.874 217.563 175.953 222.601 175.953 222.601C175.953 222.601 175.117 227.291 175.308 229.023C175.498 230.755 182.951 228.854 183.29 227.978C183.628 227.111 180.647 222.601 180.647 222.601C180.647 222.601 179.896 215.145 180.372 209.938C180.847 204.73 183.903 194.147 184.03 188.243H184.04Z" fill="#116C8C"/>
<path d="M42.1604 765.712C42.2767 765.405 42.3718 765.099 42.5304 764.782C46.3047 756.354 57.9977 753.924 73.8455 756.354C82.4408 757.674 86.2996 760.23 88.0441 762.289C89.4819 763.758 90.6977 765.585 91.4589 767.961C94.2817 770.253 99.2084 774.098 101.746 777.414C105.34 782.114 110.732 792.645 99.7582 797.186C89.3973 801.475 50.227 802.573 37.054 798.327C31.9582 797.377 27.9301 796.204 25.6148 794.916C18.0662 790.744 32.1062 772.577 42.171 765.701" fill="url(#paint20_linear_2646_3062)"/>
<path d="M192.075 329.225C192.35 328.929 192.826 328.327 193.428 327.218C194.422 325.349 194.972 323.722 194.253 320.121C193.915 318.452 193.006 317.163 191.695 316.339C190.204 315.399 188.206 315.061 185.964 315.399C183.406 315.801 177.517 315.473 173.51 315.178L164.873 315.072C164.873 315.072 164.492 315.009 164.63 314.977C165.338 314.85 171.724 307.383 168.964 304.996C166.205 302.609 164.291 302.767 160.496 304.024C156.722 305.281 154.449 306.01 150.653 311.227C147.111 316.107 138.368 328.792 136.962 330.852C136.55 331.084 136.137 331.295 135.693 331.464C125.142 332.288 77.0383 317.47 52.9758 329.669C47.7108 313.519 50.0156 323.332 47.7108 313.519C47.7108 313.519 46.5162 310.763 25.8368 317.005C13.7527 320.649 5.17857 348.987 11.7968 356.465C11.7968 356.465 21.6396 363.34 26.6614 365.305C30.5309 366.815 59.5835 368.621 90.8563 363.467C114.284 359.602 132.987 356.201 140.905 354.743C143.58 355.873 146.033 357.447 148.507 358.228C152.672 359.517 162.684 360.689 166.448 360.246C167.082 360.172 167.875 360.045 168.711 359.918C171.787 359.781 175.318 359.295 177.549 358.133C180.995 356.338 183.607 352.187 183.945 351.923C184.283 351.638 185.668 350.508 188.629 346.589C191.599 342.66 192.794 337.622 193.354 333.83C193.746 331.19 192.699 329.838 192.033 329.246L192.075 329.225Z" fill="url(#paint21_linear_2646_3062)"/>
<path d="M63.9921 185.793C35.9227 206.801 -0.266147 327.197 -2 358.492C16.3535 373.586 61.8777 319.381 61.8777 319.381C61.8777 319.381 67.3858 304.51 80.7281 278.485C91.8289 256.833 99.885 229.731 81.5315 195.151C78.677 189.764 68.8342 182.17 63.9921 185.803V185.793Z" fill="url(#paint22_linear_2646_3062)"/>
<path d="M13.9324 326.437C-5.19285 342.692 -2.0846 357.246 1.12937 359.866C2.81036 361.228 4.68165 361.883 6.29921 362.189C16.1314 367.111 34.0409 368.727 34.0409 368.727C34.0409 368.727 53.7476 335.214 64.4256 326.014L62.1843 317.628C63.6749 317.702 31.2604 311.724 13.9324 326.437Z" fill="#116C8C"/>
</g>
<defs>
<linearGradient id="paint0_linear_2646_3062" x1="154.943" y1="103.679" x2="154.943" y2="225.667" gradientUnits="userSpaceOnUse">
<stop stop-color="#FFAE9E"/>
<stop offset="1" stop-color="#FCD7CB"/>
</linearGradient>
<linearGradient id="paint1_linear_2646_3062" x1="204.955" y1="54.1408" x2="204.955" y2="92.2592" gradientUnits="userSpaceOnUse">
<stop stop-color="#FFAE9E"/>
<stop offset="1" stop-color="#FCD7CB"/>
</linearGradient>
<linearGradient id="paint2_linear_2646_3062" x1="105.995" y1="54.1106" x2="105.995" y2="92.216" gradientUnits="userSpaceOnUse">
<stop stop-color="#FFAE9E"/>
<stop offset="1" stop-color="#FCD7CB"/>
</linearGradient>
<linearGradient id="paint3_linear_2646_3062" x1="155.494" y1="-8.16855" x2="155.494" y2="110.883" gradientUnits="userSpaceOnUse">
<stop stop-color="#FFAE9E"/>
<stop offset="1" stop-color="#FCD7CB"/>
</linearGradient>
<linearGradient id="paint4_linear_2646_3062" x1="151.519" y1="411.316" x2="261.223" y2="387.855" gradientUnits="userSpaceOnUse">
<stop stop-color="#FBDCCC"/>
<stop offset="0.35" stop-color="#F8C6AA"/>
<stop offset="0.91" stop-color="#F49E6D"/>
<stop offset="1" stop-color="#F49E6D"/>
</linearGradient>
<linearGradient id="paint5_linear_2646_3062" x1="98.5846" y1="541.078" x2="72.3629" y2="791.984" gradientUnits="userSpaceOnUse">
<stop stop-color="#FBDCCC"/>
<stop offset="0.35" stop-color="#F8C6AA"/>
<stop offset="0.91" stop-color="#F49E6D"/>
<stop offset="1" stop-color="#F49E6D"/>
</linearGradient>
<linearGradient id="paint6_linear_2646_3062" x1="157.567" y1="645.695" x2="293.685" y2="645.695" gradientUnits="userSpaceOnUse">
<stop stop-color="#FBDCCC"/>
<stop offset="0.35" stop-color="#F8C6AA"/>
<stop offset="0.91" stop-color="#F49E6D"/>
<stop offset="1" stop-color="#F49E6D"/>
</linearGradient>
<linearGradient id="paint7_linear_2646_3062" x1="324.717" y1="783.663" x2="206.882" y2="765.045" gradientUnits="userSpaceOnUse">
<stop stop-color="#C1210D"/>
<stop offset="0.52" stop-color="#C1210D"/>
<stop offset="0.87" stop-color="#931B03"/>
<stop offset="1" stop-color="#811900"/>
</linearGradient>
<linearGradient id="paint8_linear_2646_3062" x1="338.226" y1="798.898" x2="212.847" y2="779.089" gradientUnits="userSpaceOnUse">
<stop stop-color="#C1210D"/>
<stop offset="0.22" stop-color="#C1210D"/>
<stop offset="0.78" stop-color="#931B03"/>
<stop offset="1" stop-color="#811900"/>
</linearGradient>
<linearGradient id="paint9_linear_2646_3062" x1="153.862" y1="562.976" x2="162.265" y2="380.984" gradientUnits="userSpaceOnUse">
<stop stop-color="#C1210D"/>
<stop offset="0.52" stop-color="#C1210D"/>
<stop offset="1" stop-color="#9D1D06"/>
</linearGradient>
<linearGradient id="paint10_linear_2646_3062" x1="57.9048" y1="591.639" x2="119.372" y2="588.22" gradientUnits="userSpaceOnUse">
<stop stop-color="#333333"/>
<stop offset="1" stop-color="#2E2E2E"/>
</linearGradient>
<linearGradient id="paint11_linear_2646_3062" x1="194.086" y1="585.381" x2="253.125" y2="582.098" gradientUnits="userSpaceOnUse">
<stop stop-color="#333333"/>
<stop offset="1" stop-color="#2E2E2E"/>
</linearGradient>
<linearGradient id="paint12_linear_2646_3062" x1="209.858" y1="251.668" x2="274.137" y2="251.668" gradientUnits="userSpaceOnUse">
<stop stop-color="#0E93B8"/>
<stop offset="0.25" stop-color="#0E93B8"/>
<stop offset="0.58" stop-color="#1485B7"/>
<stop offset="0.92" stop-color="#1E72B7"/>
<stop offset="1" stop-color="#1E72B7"/>
</linearGradient>
<linearGradient id="paint13_linear_2646_3062" x1="58.2197" y1="312.875" x2="117.699" y2="312.875" gradientUnits="userSpaceOnUse">
<stop stop-color="#444147"/>
<stop offset="1" stop-color="#191921"/>
</linearGradient>
<linearGradient id="paint14_linear_2646_3062" x1="63.9921" y1="292.258" x2="244.947" y2="292.258" gradientUnits="userSpaceOnUse">
<stop stop-color="#0E93B8"/>
<stop offset="0.25" stop-color="#0E93B8"/>
<stop offset="0.58" stop-color="#1485B7"/>
<stop offset="0.92" stop-color="#1E72B7"/>
<stop offset="1" stop-color="#1E72B7"/>
</linearGradient>
<radialGradient id="paint15_radial_2646_3062" cx="0" cy="0" r="1" gradientUnits="userSpaceOnUse" gradientTransform="translate(32.9308 250.538) scale(73.9848 73.9131)">
<stop stop-color="#7588B5"/>
<stop offset="1" stop-color="white"/>
</radialGradient>
<radialGradient id="paint16_radial_2646_3062" cx="0" cy="0" r="1" gradientUnits="userSpaceOnUse" gradientTransform="translate(103.924 156.557) scale(29.7927 29.7638)">
<stop stop-color="#7588B5"/>
<stop offset="1" stop-color="white"/>
</radialGradient>
<linearGradient id="paint17_linear_2646_3062" x1="92.4844" y1="454.713" x2="91.4925" y2="389.534" gradientUnits="userSpaceOnUse">
<stop stop-color="#444147"/>
<stop offset="1" stop-color="#191921"/>
</linearGradient>
<linearGradient id="paint18_linear_2646_3062" x1="94.8421" y1="413.964" x2="134.858" y2="413.964" gradientUnits="userSpaceOnUse">
<stop stop-color="#444147"/>
<stop offset="1" stop-color="#191921"/>
</linearGradient>
<radialGradient id="paint19_radial_2646_3062" cx="0" cy="0" r="1" gradientUnits="userSpaceOnUse" gradientTransform="translate(164.524 172.178) scale(19.2521 19.2335)">
<stop stop-color="#DBB63D"/>
<stop offset="1" stop-color="white"/>
</radialGradient>
<linearGradient id="paint20_linear_2646_3062" x1="23.458" y1="778.238" x2="106.281" y2="778.238" gradientUnits="userSpaceOnUse">
<stop stop-color="#C1210D"/>
<stop offset="0.52" stop-color="#C1210D"/>
<stop offset="0.87" stop-color="#931B03"/>
<stop offset="1" stop-color="#811900"/>
</linearGradient>
<linearGradient id="paint21_linear_2646_3062" x1="-0.467024" y1="335.003" x2="194.655" y2="335.003" gradientUnits="userSpaceOnUse">
<stop stop-color="#FBDCCC"/>
<stop offset="0.35" stop-color="#F8C6AA"/>
<stop offset="0.91" stop-color="#F49E6D"/>
<stop offset="1" stop-color="#F49E6D"/>
</linearGradient>
<linearGradient id="paint22_linear_2646_3062" x1="-2" y1="273.003" x2="92.421" y2="273.003" gradientUnits="userSpaceOnUse">
<stop stop-color="#0E93B8"/>
<stop offset="0.25" stop-color="#0E93B8"/>
<stop offset="0.58" stop-color="#1485B7"/>
<stop offset="0.92" stop-color="#1E72B7"/>
<stop offset="1" stop-color="#1E72B7"/>
</linearGradient>
<clipPath id="clip0_2646_3062">
<rect width="118" height="225.649" fill="white" transform="translate(98)"/>
</clipPath>
<clipPath id="clip1_2646_3062">
<rect width="339" height="688" fill="white" transform="translate(0 135)"/>
</clipPath>
</defs>
</svg>
