<svg width="316" height="802" viewBox="0 0 316 802" fill="none" xmlns="http://www.w3.org/2000/svg">
<g filter="url(#filter0_d_74_14)">
<g clip-path="url(#clip0_74_14)">
<path d="M172.339 72.4181L166.856 38.5398L139.517 28.7475L111.55 22.1233L95.4644 26.7954L84.6055 46.0706L83.4451 64.2152V89.5919L89.0023 95.16L88.5551 101.336L97.4232 114.137L125.081 124.377C125.081 124.377 135.067 125.732 135.483 124.974C135.898 124.217 151.824 114.734 151.824 114.734L164.61 106.904L169.965 98.1681L172.339 89.5812L174.969 86.8718L177.045 79.3409L172.328 72.4181H172.339Z" fill="black"/>
<path d="M163.269 165.05C163.269 165.05 151.824 161.775 151.824 155.887V125.646C149.674 127.054 147.491 128.302 145.362 129.433C141.21 131.62 137.378 132.793 134.088 133.401C134.088 133.401 131.969 133.988 128.456 133.956C124.954 133.988 122.835 133.412 122.835 133.412C119.535 132.804 115.702 131.63 111.55 129.444C109.698 128.473 107.814 127.385 105.929 126.201V155.898C105.929 161.786 94.4956 165.061 94.4956 165.061C93.4416 165.253 92.6538 165.733 92.0683 166.415C89.8326 168.997 90.5566 174.618 92.0683 180.122C93.8462 186.619 96.6993 192.912 96.9974 193.734C98.03 196.55 114.361 227.782 130.245 225.553C146.118 223.324 160.671 189.115 163.183 180.197C164.035 177.189 164.45 174.853 164.61 173.061C165.685 169.904 165.462 167.13 163.269 165.071V165.05Z" fill="url(#paint0_linear_74_14)"/>
<g style="mix-blend-mode:multiply" opacity="0.25">
<path d="M134.077 131.044C134.077 131.044 131.959 131.684 128.446 131.652C124.932 131.684 122.814 131.055 122.814 131.055C119.514 130.383 115.681 129.081 111.529 126.66C109.677 125.572 107.792 124.377 105.908 123.065V143.898C121.504 146.372 137.271 140.719 151.803 131.396V122.457C149.652 124.004 147.47 125.401 145.33 126.66C141.178 129.081 137.346 130.383 134.056 131.044H134.077Z" fill="#ECB699"/>
</g>
<mask id="mask0_74_14" style="mask-type:luminance" maskUnits="userSpaceOnUse" x="169" y="61" width="16" height="31">
<path d="M174.16 61.3138C171.711 61.9965 170.508 63.6392 169.954 64.3859C169.997 64.5886 170.018 64.8019 170.05 65.0153C171.583 74.5409 172.179 83.8211 172.307 91.2667C174.873 92.2587 178.705 91.4907 181.931 83.8105C185.955 74.1995 184.348 62.0392 178.226 61.1431C177.619 61.0578 177.055 61.0151 176.534 61.0151C175.639 61.0151 174.852 61.1325 174.17 61.3245" fill="white"/>
</mask>
<g mask="url(#mask0_74_14)">
<path d="M185.955 61.0051H169.954V92.2594H185.955V61.0051Z" fill="url(#paint1_linear_74_14)"/>
</g>
<mask id="mask1_74_14" style="mask-type:luminance" maskUnits="userSpaceOnUse" x="72" y="60" width="15" height="32">
<path d="M78.7289 61.1006C72.6075 61.9966 70.9999 74.157 75.0241 83.7679C78.2392 91.4268 82.0611 92.2161 84.6268 91.2241C84.7545 84.0452 85.3081 75.1596 86.7241 65.9967C86.8092 65.442 86.8944 64.8874 86.9796 64.3327C86.3089 63.4153 84.6907 61.2393 81.1136 60.9939C80.8794 60.9832 80.6452 60.9619 80.3897 60.9619C79.868 60.9619 79.3145 61.0046 78.7183 61.0899" fill="white"/>
</mask>
<g mask="url(#mask1_74_14)">
<path d="M86.9903 60.9727H71V92.2162H86.9903V60.9727Z" fill="url(#paint2_linear_74_14)"/>
</g>
<mask id="mask2_74_14" style="mask-type:luminance" maskUnits="userSpaceOnUse" x="87" y="13" width="83" height="97">
<path d="M121.781 13.8886C120.834 14.0486 119.886 14.2406 118.928 14.4966C102.97 18.6674 94.272 34.4971 89.6304 51.9376C88.9278 53.815 88.1932 57.9431 88.1932 57.9431C87.746 60.0339 87.3628 62.1353 87.0115 64.2047C88.3848 77.3677 90.6098 97.1656 91.8447 100.526C92.1641 101.411 92.9413 102.339 93.9952 103.278C97.4232 105.561 102.193 108.483 105.259 109.315C110.496 110.723 111.572 106.755 112.509 103.214C113.445 99.6617 115.862 95.7042 121.909 95.1282C122.409 95.0855 122.888 95.0535 123.357 95.0215C123.463 95.0109 123.548 95.0002 123.644 94.9895C127.019 94.7335 135.078 94.4135 138.666 96.1522C142.136 97.6349 143.744 100.622 144.478 103.352C145.415 106.905 146.491 110.873 151.718 109.454C154.794 108.611 159.564 105.689 162.992 103.416C164.056 102.478 164.823 101.55 165.142 100.664C166.377 97.3149 168.592 77.645 169.965 64.4927V64.4607C169.965 64.4607 169.965 64.4073 169.954 64.3753C169.603 62.2313 169.209 60.0765 168.741 57.9218C168.741 57.9218 168.017 53.8044 167.314 51.9163C163.301 36.8865 156.285 23.0835 144.212 16.8753C144.116 16.822 144.031 16.7686 143.936 16.7153C143.755 16.63 143.574 16.534 143.382 16.4486C139.39 14.4752 135.546 13.7819 133.343 13.5472C131.725 13.3339 130.149 13.2485 128.669 13.2485C126.008 13.2485 123.634 13.5365 121.771 13.8672" fill="white"/>
</mask>
<g mask="url(#mask2_74_14)">
<path d="M169.976 13.2698H87.0115V110.883H169.976V13.2698Z" fill="url(#paint3_linear_74_14)"/>
</g>
<path d="M86.724 65.9966C85.3081 75.1596 84.7545 84.0452 84.6267 91.224C84.6054 91.7574 84.6054 92.2801 84.6054 92.7921C84.4245 111.385 98.871 122.724 111.561 129.433C115.713 131.631 119.546 132.804 122.835 133.391C122.835 133.391 124.954 133.977 128.467 133.935C131.969 133.967 134.088 133.401 134.088 133.401C137.388 132.793 141.221 131.62 145.373 129.433C158.052 122.734 172.509 111.395 172.328 92.7921C172.328 92.2907 172.318 91.7787 172.307 91.256C172.179 83.8105 171.583 74.5409 170.05 65.0046C170.018 64.8233 169.997 64.6526 169.965 64.4713C168.592 77.6236 166.377 97.3149 165.142 100.664C164.812 101.55 164.046 102.478 162.981 103.416C159.553 105.699 154.784 108.622 151.707 109.454C146.48 110.873 145.394 106.904 144.468 103.363C143.744 100.622 142.126 97.6455 138.655 96.1628C135.057 94.4241 127.008 94.7441 123.623 95.0001C123.527 95.0001 123.442 95.0108 123.336 95.0215C122.867 95.0535 122.388 95.0855 121.888 95.1281C115.851 95.7042 113.435 99.6723 112.487 103.214C111.55 106.755 110.475 110.734 105.237 109.315C102.171 108.483 97.4019 105.56 93.9739 103.278C92.9093 102.339 92.1428 101.411 91.8234 100.526C90.5885 97.1655 88.3635 77.3676 86.9901 64.2046C86.9901 64.2473 86.9795 64.2899 86.9689 64.3326C86.8837 64.8873 86.7985 65.442 86.7133 65.9966" fill="black"/>
<path d="M186.7 0.82143C185.37 1.25878 182.101 2.14413 174.788 3.90419C157.211 8.14964 142.041 -0.917286 115.734 0.0747424C94.5488 0.874765 89.5558 13.1524 88.4061 17.9206C79.8999 24.4594 78.6118 36.9291 79.176 46.9881C79.5273 53.2709 80.6132 58.6151 81.1136 60.9938C84.6906 61.2498 86.3088 63.4152 86.9689 64.3326C87.3308 62.1992 87.7247 60.0658 88.1719 57.9431C88.1719 57.9431 88.8958 53.8256 89.6091 51.9482C90.2798 49.4202 91.0463 46.9454 91.898 44.5133C107.324 37.3985 108.09 28.5876 108.09 28.5876C132.001 44.556 154.305 46.2627 165.504 45.9747C166.154 47.9374 166.76 49.9322 167.303 51.9589C168.006 53.8363 168.73 57.9537 168.73 57.9537C169.188 60.1085 169.582 62.2632 169.944 64.4072C170.497 63.6499 171.7 62.0072 174.149 61.3245C174.66 58.9564 175.969 52.7269 176.235 45.516C176.235 45.2707 176.257 45.0147 176.267 44.7694C195.27 31.6383 187.648 4.00019 186.7 0.82143Z" fill="black"/>
<path d="M115.468 105.08C115.468 105.08 119.098 111.128 127.168 111.128C127.168 111.128 136.175 111.587 140.412 105.443L140.571 105.187C126.54 110.798 115.479 105.08 115.479 105.08" fill="white"/>
<path d="M133.545 90.9681C133.13 90.9681 132.757 90.6907 132.64 90.2747C132.502 89.7734 132.8 89.2614 133.3 89.1334C134.45 88.824 137.133 87.576 137.612 85.8693C137.942 84.6959 136.281 80.8451 134.823 77.453C133.918 75.341 132.981 73.1649 132.236 71.0848C129.989 64.7807 133.162 59.2338 133.3 58.9992C133.566 58.5512 134.131 58.4018 134.578 58.6685C135.025 58.9245 135.174 59.5005 134.918 59.9485C134.886 60.0019 132.055 64.994 134.003 70.4662C134.727 72.4929 135.642 74.6369 136.537 76.717C138.634 81.5811 139.89 84.6532 139.4 86.3813C138.644 89.08 135.089 90.5841 133.779 90.9361C133.694 90.9574 133.62 90.9681 133.534 90.9681" fill="#DFAC97"/>
<path d="M152.846 70.0181C152.846 71.9275 151.303 73.4849 149.386 73.4849C147.47 73.4849 145.937 71.9275 145.937 70.0181C145.937 68.1087 147.491 66.562 149.386 66.562C151.281 66.562 152.846 68.1194 152.846 70.0181Z" fill="#231F20"/>
<path d="M112.541 70.2315C112.541 72.1409 111.008 73.6983 109.081 73.6983C107.154 73.6983 105.631 72.1409 105.631 70.2315C105.631 68.3221 107.186 66.7754 109.081 66.7754C110.976 66.7754 112.541 68.3328 112.541 70.2315Z" fill="#231F20"/>
</g>
<path d="M160.351 150.443C165.011 156.798 209.835 185.592 213.471 205.576C216.114 220.114 229.509 275.979 229.509 289.608C229.509 303.237 238.38 352.277 236.113 395.411C233.845 438.546 209.563 485.265 209.563 485.265C209.563 485.265 188.687 476.183 192.313 445.308C195.949 414.434 160.351 150.453 160.351 150.453V150.443Z" fill="url(#paint4_linear_74_14)"/>
<path d="M207.568 452.854C207.568 452.854 215.696 455.969 216.386 468.595C217.076 481.22 207.568 487.617 207.568 487.617V452.854Z" fill="#E5E5E5"/>
<mask id="mask3_74_14" style="mask-type:luminance" maskUnits="userSpaceOnUse" x="193" y="738" width="44" height="30">
<path d="M197.6 738.825C198.561 738.93 199.543 739.034 200.536 739.034C205.917 739.034 211.235 739.839 216.605 739.881C219.061 739.902 221.506 739.881 223.94 739.557C224.64 739.463 225.299 739.264 226.02 739.327C225.915 741.511 228.005 744.48 229.154 746.288C230.45 748.295 233.292 753.113 236.217 753.374L236.374 767.139C232.989 766.94 229.593 766.94 226.187 766.951C221.945 766.961 217.703 766.982 213.502 766.575C208.55 766.094 203.858 764.746 199.303 762.958C195.729 761.568 193.985 760.429 193.452 756.99C192.543 751.002 193.483 744.616 193.943 738.627C194.194 738.606 194.444 738.606 194.695 738.606C195.667 738.606 196.638 738.71 197.6 738.815" fill="white"/>
</mask>
<g mask="url(#mask3_74_14)">
<path d="M225.421 719.641L180.205 745.755L203.51 786.134L248.726 760.02L225.421 719.641Z" fill="url(#paint5_linear_74_14)"/>
</g>
<mask id="mask4_74_14" style="mask-type:luminance" maskUnits="userSpaceOnUse" x="29" y="743" width="43" height="31">
<path d="M29.3585 773.17C29.4212 772.992 29.4735 772.814 29.5361 772.637H29.4943C29.3794 772.814 29.3376 772.982 29.369 773.17M38.1248 744.03C37.1844 744.061 36.1709 744.093 35.2201 743.727C34.3842 747.448 33.12 751.19 32.0751 754.879C31.093 758.36 30.1004 761.85 29.9018 765.456C29.7869 767.641 30.1526 770.442 29.5361 772.637L70.0449 767.087C69.7419 766.491 69.7941 765.54 69.6896 764.871C69.3762 762.572 69.2717 760.23 69.2717 757.91C69.2717 754.064 70.0658 749.371 71.8838 745.838C63.3369 745.347 54.7483 743.947 46.1492 743.852C43.464 743.832 40.7787 743.967 38.1143 744.03" fill="white"/>
</mask>
<g mask="url(#mask4_74_14)">
<path d="M61.2492 725.302L16.5851 751.097L39.9688 791.612L84.6329 765.817L61.2492 725.302Z" fill="url(#paint6_linear_74_14)"/>
</g>
<path d="M217.034 752.057C200.598 752.381 199.606 752.371 190.328 752.454C188.405 752.475 135.619 452.342 135.619 452.342C136.205 450.544 134.836 441.472 135.494 436.027C171.102 526.445 199.898 656.246 217.034 752.047V752.057Z" fill="url(#paint7_linear_74_14)"/>
<path d="M134.439 458.383C111.598 534.138 69.0731 757.597 69.0731 759.363C69.0731 760.23 62.3652 760.084 54.1945 759.582C69.2403 674.798 103.992 536.542 134.439 458.383Z" fill="url(#paint8_linear_74_14)"/>
<path d="M37.456 560.319C43.1121 503.838 50.7917 435.633 60.4949 355.705C60.4949 355.705 108.276 356.165 131.356 356.165C161.657 356.165 201.57 352.998 201.57 352.998C201.57 352.998 209.72 477.594 218.131 561.532C226.427 644.331 235.737 749.82 235.737 751.284C235.737 751.284 224.233 751.858 217.023 752.486C199.888 656.685 134.209 445.005 135.609 452.781C134.575 457.537 135.609 452.781 134.428 458.383C103.981 536.542 69.2402 674.798 54.184 759.582C41.3637 758.788 27.4359 752.883 27.4359 752.883C27.4359 752.883 29.0345 644.257 37.4455 560.319H37.456Z" fill="url(#paint9_linear_74_14)"/>
<path style="mix-blend-mode:multiply" opacity="0.27" d="M151.606 381.124L146.799 428.502C146.799 428.502 129.716 427.017 144.145 385.179L151.606 381.124Z" fill="url(#paint10_linear_74_14)"/>
<path d="M58.1963 378.595L58.7083 390.342L204.485 391.9L203.252 378.009L58.1963 378.595Z" fill="#707070"/>
<path d="M103.386 378.448H107.67L108.088 390.896H103.292L103.386 378.448Z" fill="url(#paint11_linear_74_14)"/>
<path d="M184.644 378.03L183.515 389.036H187.799L188.687 377.947L184.644 378.03Z" fill="url(#paint12_linear_74_14)"/>
<path d="M162.42 376.295H146.946L147.092 388.743L163.078 387.991V386.099L149.84 386.371L148.858 378.877L163.036 378.197L162.42 376.295Z" fill="url(#paint13_linear_74_14)"/>
<path d="M157.843 381.364L144.971 381.124V382.305L157.843 383.768C157.843 383.768 159.432 382.66 157.843 381.364Z" fill="url(#paint14_linear_74_14)"/>
<path d="M238.213 749.308C238.213 749.308 263.195 763.052 273.571 766.564C283.946 770.076 305.679 774.309 310.213 777.967C314.758 781.625 309.889 787.039 303.401 788.931C296.912 790.833 259.779 790.687 244.701 788.492C229.614 786.297 224.588 781.186 224.588 781.186C224.588 781.186 221.025 780.162 218.915 780.601C216.804 781.04 218.423 785.722 216.637 787.029C214.861 788.346 191.341 785.858 188.259 783.81C185.176 781.761 188.259 759.248 190.693 753.395C193.128 747.542 199.282 756.029 216.156 756.468C233.02 756.907 223.136 756.029 238.202 749.298" fill="black"/>
<path d="M21.9505 760.063C22.0654 759.77 22.1595 759.478 22.3058 759.175C25.9314 751.074 37.1635 748.733 52.366 751.074C60.6203 752.339 64.3295 754.795 66.0013 756.781C67.3805 758.192 68.5507 759.948 69.2821 762.237C71.9987 764.442 76.7214 768.142 79.1559 771.32C82.6039 775.835 87.7863 785.952 77.2438 790.321C67.2969 794.439 29.6928 795.505 17.0502 791.418C12.1498 790.499 8.2839 789.37 6.06883 788.136C-1.18241 784.123 12.3066 766.669 21.961 760.063" fill="black"/>
<path d="M88.9147 142.573C88.9147 142.573 137.699 182.279 147.228 180.743C151.647 180.032 151.668 147.652 151.668 147.652C151.668 147.652 174.216 180.649 183.661 203.716C193.107 226.783 197.83 225.393 197.004 277.097C196.168 328.792 197.098 385.879 197.098 385.879C197.098 385.879 179.754 400.125 167.811 400.679C155.858 401.233 119.184 385.9 119.184 385.9C119.184 385.9 117.857 364.715 112.257 334.634C103.772 289.127 51.4047 209.558 68.9059 168.138C76.9617 157.017 88.9147 142.562 88.9147 142.562V142.573Z" fill="#F5F5F5"/>
<path d="M159.515 157.634C159.515 157.634 186.691 216.602 190.338 241.791C193.556 264.022 191.226 414.716 202.709 424.927C209.521 375.438 206.167 255.671 205.749 230.984C205.321 206.297 159.515 157.634 159.515 157.634Z" fill="url(#paint15_linear_74_14)"/>
<path d="M149.871 162.306L160.382 182.216C160.382 182.216 162.503 170.385 159.515 157.634L151.334 136.5C153.58 153.725 149.871 162.306 149.871 162.306Z" fill="#E8E8E8"/>
<path d="M152.337 139.103C152.337 139.103 156.966 153.317 161.103 163.225C169.849 184.16 184.978 218.996 187.36 232.28C190.86 251.846 193.316 336.16 193.316 336.16C193.316 336.16 202.333 256.601 198.279 231.548C195.479 214.24 182.752 186.982 171.008 166.716C165.753 157.644 152.347 139.103 152.347 139.103H152.337Z" fill="#5C5C5C"/>
<path d="M92.0806 145.112C92.0806 145.112 68.2058 160.905 50.9763 175.935C38.3336 186.961 10.2899 181.986 42.6907 239.753C67.8192 284.56 63.7966 282.814 72.73 326.722C81.6634 370.63 64.8519 452.854 64.8519 452.854C64.8519 452.854 129.1 448.109 131.231 407.514C133.362 366.909 132.903 291.291 132.903 262.026C132.903 222.675 92.091 145.123 92.091 145.123L92.0806 145.112Z" fill="url(#paint16_linear_74_14)"/>
<path d="M105.465 134.337C105.141 134.013 81.0679 150.715 81.0679 150.715C81.0679 150.715 111.588 179.122 133.749 185.832L146.789 163.852C146.789 163.852 122.371 151.028 105.465 134.326V134.337Z" fill="#E8E8E8"/>
<path d="M149.871 162.306L146.789 163.863L133.749 185.843L151.668 208.335C151.668 208.335 154.05 244.707 155.973 265.005C157.895 285.302 155.649 387.04 155.649 387.04L168.177 415.218L181.143 386.193C181.143 386.193 175.647 282.344 173.955 264.158C172.262 245.972 157.446 207.06 157.446 207.06L161.751 183.617L149.871 162.306Z" fill="url(#paint17_linear_74_14)"/>
<g opacity="0.13">
<path d="M175.376 287.852L155.837 263.552C155.879 264.043 155.931 264.524 155.973 265.005C156.046 265.747 156.109 266.656 156.161 267.691L175.564 291.834C175.501 290.476 175.428 289.148 175.365 287.863L175.376 287.852Z" fill="white"/>
<path d="M175.867 397.157L156.318 372.7C156.307 373.933 156.286 375.156 156.276 376.368L174.832 400.177C174.78 398.934 175.919 398.516 175.867 397.157Z" fill="white"/>
<path d="M170.11 245.502L152.734 223.877C152.828 225.194 152.922 226.553 153.026 227.964L171.531 250.978C171.092 249.191 170.622 247.352 170.12 245.491L170.11 245.502Z" fill="white"/>
<path d="M178.782 363.701L156.652 336.16C156.652 337.394 156.631 338.617 156.631 339.85L178.959 367.62C178.907 366.314 178.855 365.007 178.792 363.69L178.782 363.701Z" fill="white"/>
<path d="M177.152 325.865L156.736 300.468C156.736 301.701 156.736 302.934 156.736 304.199L177.309 329.795C177.246 328.478 177.194 327.161 177.131 325.855L177.152 325.865Z" fill="white"/>
</g>
<path d="M95.4972 140.305L68.2058 159.348C68.2058 159.348 108.673 225.821 114.043 237.987C119.414 250.153 132.997 342.243 133.007 340.341C133.007 338.428 134.679 264.472 134.679 242.523C134.679 214.763 95.4972 140.305 95.4972 140.305Z" fill="#5C5C5C"/>
<path d="M45.1878 491.348H112.925C115.652 491.348 117.857 489.143 117.857 486.415V395.202C117.857 392.474 115.652 390.269 112.925 390.269H41.3219C38.5113 390.269 36.2753 392.61 36.3902 395.411L40.2457 486.624C40.3606 489.268 42.5339 491.348 45.1774 491.348H45.1878Z" fill="#398DA5"/>
<path d="M113.991 390.384C112.967 407.201 110.679 470.476 109.937 491.348H112.915C115.642 491.348 117.847 489.143 117.847 486.415V395.202C117.847 392.84 116.196 390.875 113.981 390.394L113.991 390.384Z" fill="#2D717C"/>
<path d="M43.7146 482.036C43.9445 482.464 54.0064 494.87 57.8827 495.936C61.7696 497.002 72.5628 496.156 74.2242 495.55C76.1571 494.849 77.902 491.745 77.902 491.745L71.915 491.62C71.915 491.62 71.4553 490.94 70.7762 489.948C70.3373 489.31 77.8289 490.94 77.2751 490.125C75.6451 487.732 69.6059 480.321 69.2298 479.747C68.5402 478.681 43.6937 482.025 43.6937 482.025L43.7146 482.036Z" fill="url(#paint18_linear_74_14)"/>
<path d="M43.1295 483.687L48.1448 489.216L80.0649 487.805V482.516L43.1295 483.687Z" fill="#E5E5E5"/>
<path d="M62.6681 164.25C50.9763 172.904 17.6143 175.746 13.832 227.211C13.2155 235.562 10.6556 314.849 10.6556 314.849C10.6556 314.849 6.05832 364.777 13.32 399.738C20.5817 434.699 40.1517 486.488 40.1517 486.488H82.3635C82.3635 486.488 86.7414 244.916 86.7414 243.558C86.7414 211.774 62.6577 164.25 62.6577 164.25H62.6681Z" fill="url(#paint19_linear_74_14)"/>
</g>
<defs>
<filter id="filter0_d_74_14" x="0.0101318" y="0" width="315.979" height="801.999" filterUnits="userSpaceOnUse" color-interpolation-filters="sRGB">
<feFlood flood-opacity="0" result="BackgroundImageFix"/>
<feColorMatrix in="SourceAlpha" type="matrix" values="0 0 0 0 0 0 0 0 0 0 0 0 0 0 0 0 0 0 127 0" result="hardAlpha"/>
<feOffset dy="4"/>
<feGaussianBlur stdDeviation="2"/>
<feComposite in2="hardAlpha" operator="out"/>
<feColorMatrix type="matrix" values="0 0 0 0 0 0 0 0 0 0 0 0 0 0 0 0 0 0 0.25 0"/>
<feBlend mode="normal" in2="BackgroundImageFix" result="effect1_dropShadow_74_14"/>
<feBlend mode="normal" in="SourceGraphic" in2="effect1_dropShadow_74_14" result="shape"/>
</filter>
<linearGradient id="paint0_linear_74_14" x1="127.943" y1="103.679" x2="127.943" y2="225.667" gradientUnits="userSpaceOnUse">
<stop stop-color="#FFAE9E"/>
<stop offset="1" stop-color="#FCD7CB"/>
</linearGradient>
<linearGradient id="paint1_linear_74_14" x1="177.955" y1="54.1409" x2="177.955" y2="92.2594" gradientUnits="userSpaceOnUse">
<stop stop-color="#FFAE9E"/>
<stop offset="1" stop-color="#FCD7CB"/>
</linearGradient>
<linearGradient id="paint2_linear_74_14" x1="78.9951" y1="54.1108" x2="78.9951" y2="92.2162" gradientUnits="userSpaceOnUse">
<stop stop-color="#FFAE9E"/>
<stop offset="1" stop-color="#FCD7CB"/>
</linearGradient>
<linearGradient id="paint3_linear_74_14" x1="128.494" y1="-8.16848" x2="128.494" y2="110.883" gradientUnits="userSpaceOnUse">
<stop stop-color="#FFAE9E"/>
<stop offset="1" stop-color="#FCD7CB"/>
</linearGradient>
<linearGradient id="paint4_linear_74_14" x1="236.489" y1="317.849" x2="160.361" y2="317.849" gradientUnits="userSpaceOnUse">
<stop stop-color="#454545"/>
<stop offset="1" stop-color="#2E2E2E"/>
</linearGradient>
<linearGradient id="paint5_linear_74_14" x1="199.65" y1="737.47" x2="222.591" y2="777.192" gradientUnits="userSpaceOnUse">
<stop stop-color="#5E5B55"/>
<stop offset="0.23" stop-color="#6C6A66"/>
<stop offset="0.69" stop-color="#939493"/>
<stop offset="0.92" stop-color="#A9ABAC"/>
<stop offset="1" stop-color="#A9ABAC"/>
</linearGradient>
<linearGradient id="paint6_linear_74_14" x1="43.9277" y1="736.669" x2="62.7977" y2="769.342" gradientUnits="userSpaceOnUse">
<stop stop-color="#5E5B55"/>
<stop offset="0.23" stop-color="#6C6A66"/>
<stop offset="0.69" stop-color="#939493"/>
<stop offset="0.92" stop-color="#A9ABAC"/>
<stop offset="1" stop-color="#A9ABAC"/>
</linearGradient>
<linearGradient id="paint7_linear_74_14" x1="135.306" y1="594.246" x2="217.034" y2="594.246" gradientUnits="userSpaceOnUse">
<stop stop-color="#3D3D3D"/>
<stop offset="1" stop-color="#262626"/>
</linearGradient>
<linearGradient id="paint8_linear_74_14" x1="54.1945" y1="609.181" x2="134.439" y2="609.181" gradientUnits="userSpaceOnUse">
<stop stop-color="#3D3D3D"/>
<stop offset="1" stop-color="#262626"/>
</linearGradient>
<linearGradient id="paint9_linear_74_14" x1="27.4464" y1="556.295" x2="235.747" y2="556.295" gradientUnits="userSpaceOnUse">
<stop stop-color="#454545"/>
<stop offset="1" stop-color="#2E2E2E"/>
</linearGradient>
<linearGradient id="paint10_linear_74_14" x1="138.347" y1="404.818" x2="151.606" y2="404.818" gradientUnits="userSpaceOnUse">
<stop stop-color="#3D3D3D"/>
<stop offset="1" stop-color="#262626"/>
</linearGradient>
<linearGradient id="paint11_linear_74_14" x1="103.292" y1="384.667" x2="108.088" y2="384.667" gradientUnits="userSpaceOnUse">
<stop stop-color="#3D3D3D"/>
<stop offset="1" stop-color="#262626"/>
</linearGradient>
<linearGradient id="paint12_linear_74_14" x1="183.515" y1="383.496" x2="188.687" y2="383.496" gradientUnits="userSpaceOnUse">
<stop stop-color="#3D3D3D"/>
<stop offset="1" stop-color="#262626"/>
</linearGradient>
<linearGradient id="paint13_linear_74_14" x1="146.946" y1="382.524" x2="163.078" y2="382.524" gradientUnits="userSpaceOnUse">
<stop stop-color="#3D3D3D"/>
<stop offset="1" stop-color="#262626"/>
</linearGradient>
<linearGradient id="paint14_linear_74_14" x1="144.971" y1="382.451" x2="158.554" y2="382.451" gradientUnits="userSpaceOnUse">
<stop stop-color="#3D3D3D"/>
<stop offset="1" stop-color="#262626"/>
</linearGradient>
<linearGradient id="paint15_linear_74_14" x1="206.951" y1="291.27" x2="159.515" y2="291.27" gradientUnits="userSpaceOnUse">
<stop stop-color="#333333"/>
<stop offset="1" stop-color="#2E2E2E"/>
</linearGradient>
<linearGradient id="paint16_linear_74_14" x1="132.934" y1="298.983" x2="27.624" y2="298.983" gradientUnits="userSpaceOnUse">
<stop stop-color="#333333"/>
<stop offset="1" stop-color="#2E2E2E"/>
</linearGradient>
<linearGradient id="paint17_linear_74_14" x1="146.266" y1="143.848" x2="163.12" y2="323.826" gradientUnits="userSpaceOnUse">
<stop stop-color="#C1210D"/>
<stop offset="0.52" stop-color="#C1210D"/>
<stop offset="1" stop-color="#9D1D06"/>
</linearGradient>
<linearGradient id="paint18_linear_74_14" x1="60.7979" y1="475.823" x2="60.7979" y2="496.445" gradientUnits="userSpaceOnUse">
<stop stop-color="#FFAE9E"/>
<stop offset="1" stop-color="#FCD7CB"/>
</linearGradient>
<linearGradient id="paint19_linear_74_14" x1="86.7519" y1="325.374" x2="9.22421" y2="325.374" gradientUnits="userSpaceOnUse">
<stop stop-color="#454545"/>
<stop offset="1" stop-color="#2E2E2E"/>
</linearGradient>
<clipPath id="clip0_74_14">
<rect width="118" height="225.649" fill="white" transform="translate(71)"/>
</clipPath>
</defs>
</svg>
