<svg width="560" height="421" viewBox="0 0 560 421" fill="none" xmlns="http://www.w3.org/2000/svg">
<g clip-path="url(#clip0_2969_5695)">
<mask id="mask0_2969_5695" style="mask-type:luminance" maskUnits="userSpaceOnUse" x="239" y="117" width="69" height="95">
<path d="M288.95 121.35C285.05 123.4 281.45 124.5 278.36 125.06C278.36 125.06 276.37 125.61 273.07 125.58C269.78 125.61 267.79 125.07 267.79 125.07C264.69 124.5 261.09 123.4 257.19 121.35C255.45 120.44 253.68 119.42 251.91 118.31V146.15C251.91 151.67 241.17 154.74 241.17 154.74C240.81 155.08 240.52 155.44 240.26 155.82H239.61C239.61 155.82 239.66 156.17 239.74 156.78C238.89 158.86 239.37 161.39 240.71 164.16C241.64 171.08 242.93 180.02 243.52 181.61C244.49 184.25 259.83 213.53 274.75 211.44C289.66 209.35 303.33 177.28 305.69 168.92C306.49 166.1 306.88 163.91 307.03 162.23C308.04 159.27 307.83 156.67 305.77 154.74C305.77 154.74 295.02 151.67 295.02 146.15V117.8C293 119.12 290.95 120.29 288.95 121.35Z" fill="white"/>
</mask>
<g mask="url(#mask0_2969_5695)">
<path d="M308.04 117.8H238.88V213.52H308.04V117.8Z" fill="url(#paint0_linear_2969_5695)"/>
</g>
<g style="mix-blend-mode:multiply" opacity="0.2">
<mask id="mask1_2969_5695" style="mask-type:luminance" maskUnits="userSpaceOnUse" x="250" y="117" width="43" height="19">
<path d="M292.72 117.71H250.91V135.79H292.72V117.71Z" fill="white"/>
</mask>
<g mask="url(#mask1_2969_5695)">
<mask id="mask2_2969_5695" style="mask-type:luminance" maskUnits="userSpaceOnUse" x="250" y="117" width="43" height="19">
<path d="M292.72 117.71H250.91V135.79H292.72V117.71Z" fill="white"/>
</mask>
<g mask="url(#mask2_2969_5695)">
<path d="M292.73 125.05V117.71C290.77 118.98 288.78 120.13 286.84 121.16C283.06 123.15 279.57 124.21 276.57 124.75C276.57 124.75 274.64 125.28 271.44 125.25C268.24 125.28 266.31 124.76 266.31 124.76C263.31 124.21 259.81 123.14 256.03 121.16C254.34 120.27 252.62 119.28 250.91 118.21V135.32C265.12 137.35 279.48 132.71 292.72 125.06" fill="#ECB699"/>
</g>
</g>
</g>
<mask id="mask3_2969_5695" style="mask-type:luminance" maskUnits="userSpaceOnUse" x="312" y="57" width="14" height="29">
<path d="M316.01 57.4802C313.71 58.1202 312.58 59.6602 312.06 60.3602C312.1 60.5502 312.12 60.7502 312.15 60.9502C313.59 69.8802 314.15 78.5802 314.27 85.5602C316.68 86.4902 320.28 85.7702 323.31 78.5702C327.09 69.5602 325.58 58.1602 319.83 57.3202C319.26 57.2402 318.73 57.2002 318.24 57.2002C317.4 57.2002 316.66 57.3102 316.02 57.4902" fill="white"/>
</mask>
<g mask="url(#mask3_2969_5695)">
<path d="M327.09 57.1904H312.06V86.4904H327.09V57.1904Z" fill="url(#paint1_linear_2969_5695)"/>
</g>
<mask id="mask4_2969_5695" style="mask-type:luminance" maskUnits="userSpaceOnUse" x="220" y="57" width="15" height="29">
<path d="M226.37 57.2799C220.62 58.1199 219.11 69.5199 222.89 78.5299C225.91 85.7099 229.5 86.4499 231.91 85.5199C232.03 78.7899 232.55 70.4599 233.88 61.8699C233.96 61.3499 234.04 60.8299 234.12 60.3099C233.49 59.4499 231.97 57.4099 228.61 57.1799C228.39 57.1699 228.17 57.1499 227.93 57.1499C227.44 57.1499 226.92 57.1899 226.36 57.2699" fill="white"/>
</mask>
<g mask="url(#mask4_2969_5695)">
<path d="M234.12 57.1597H219.1V86.4497H234.12V57.1597Z" fill="url(#paint2_linear_2969_5695)"/>
</g>
<path d="M226.79 44.0502C227.12 49.9402 228.14 54.9502 228.61 57.1802C231.97 57.4202 233.49 59.4502 234.11 60.3102C234.45 58.3102 234.82 56.3102 235.24 54.3202C235.24 54.3202 235.92 50.4602 236.59 48.6902C237.22 46.3202 237.94 44.0002 238.74 41.7202C238.19 41.9702 237.64 42.2202 237.05 42.4702C237.05 42.4702 232.12 43.5702 226.78 44.0502" fill="#161616"/>
<path d="M307.89 43.08C308.5 44.92 309.07 46.79 309.58 48.69C310.24 50.45 310.92 54.31 310.92 54.31C311.35 56.33 311.72 58.35 312.06 60.36C312.58 59.65 313.71 58.11 316.01 57.47C316.49 55.25 317.72 49.41 317.97 42.65L314.99 42.6C314.92 42.52 312.32 42.96 307.9 43.08" fill="#161616"/>
<path d="M327.79 0.770128C326.54 1.18013 323.47 2.01013 316.6 3.66013C300.08 7.65013 285.84 -0.859872 261.13 0.070128C241.23 0.820128 236.54 12.3301 235.46 16.8001C227.47 22.9301 226.26 34.6201 226.79 44.0501C232.13 43.5601 237.06 42.4701 237.06 42.4701C237.64 42.2201 238.2 41.9701 238.75 41.7201C243.48 28.2801 251.3 16.9301 264.12 13.5901C265.02 13.3501 265.91 13.1701 266.8 13.0301C269.51 12.5301 273.39 12.1701 277.67 12.7301C279.74 12.9501 283.35 13.6001 287.1 15.4501C287.27 15.5301 287.44 15.6201 287.62 15.7001C287.71 15.7501 287.79 15.8001 287.88 15.8501C297.7 20.8801 303.95 31.2601 307.9 43.1001C312.32 42.9801 314.91 42.5401 314.99 42.6201L317.97 42.6701C317.97 42.4401 317.99 42.2001 318 41.9701C335.84 29.6701 328.69 3.76013 327.8 0.780128" fill="#161616"/>
<mask id="mask5_2969_5695" style="mask-type:luminance" maskUnits="userSpaceOnUse" x="234" y="12" width="79" height="91">
<path d="M266.81 13.0199C265.92 13.1699 265.03 13.3499 264.13 13.5899C249.14 17.4999 240.97 32.3399 236.61 48.6899C235.95 50.4499 235.26 54.3199 235.26 54.3199C234.84 56.2799 234.48 58.2499 234.15 60.1899C235.44 72.5299 237.53 91.0899 238.69 94.2399C238.99 95.0699 239.72 95.9399 240.71 96.8199C243.93 98.9599 248.41 101.7 251.29 102.48C256.21 103.8 257.22 100.08 258.1 96.7599C258.98 93.4299 261.25 89.7199 266.93 89.1799C267.4 89.1399 267.85 89.1099 268.29 89.0799C268.39 89.0699 268.47 89.0599 268.56 89.0499C271.73 88.8099 279.3 88.5099 282.67 90.1399C285.93 91.5299 287.44 94.3299 288.13 96.8899C289.01 100.22 290.02 103.94 294.93 102.61C297.82 101.82 302.3 99.0799 305.52 96.9499C306.52 96.0699 307.24 95.1999 307.54 94.3699C308.7 91.2299 310.78 72.7899 312.07 60.4599V60.4299C312.07 60.4299 312.07 60.3799 312.06 60.3499C311.73 58.3399 311.36 56.3199 310.92 54.2999C310.92 54.2999 310.24 50.4399 309.58 48.6699C305.81 34.5799 299.22 21.6399 287.88 15.8199C287.79 15.7699 287.71 15.7199 287.62 15.6699C287.45 15.5899 287.28 15.4999 287.1 15.4199C283.35 13.5699 279.74 12.9199 277.67 12.6999C276.15 12.4999 274.67 12.4199 273.28 12.4199C270.78 12.4199 268.55 12.6899 266.8 12.9999" fill="white"/>
</mask>
<g mask="url(#mask5_2969_5695)">
<path d="M312.07 12.4399H234.14V103.95H312.07V12.4399Z" fill="url(#paint3_linear_2969_5695)"/>
</g>
<path d="M233.88 61.8699C232.55 70.4599 232.03 78.7899 231.91 85.5199C231.89 86.0199 231.89 86.5099 231.89 86.9899C231.72 104.42 245.29 115.05 257.21 121.34C261.11 123.4 264.71 124.5 267.8 125.05C267.8 125.05 269.79 125.6 273.09 125.56C276.38 125.59 278.37 125.06 278.37 125.06C281.47 124.49 285.07 123.39 288.97 121.34C300.88 115.06 314.46 104.43 314.29 86.9899C314.29 86.5199 314.28 86.0399 314.27 85.5499C314.15 78.5699 313.59 69.8799 312.15 60.9399C312.12 60.7699 312.1 60.6099 312.07 60.4399C310.78 72.7699 308.7 91.2299 307.54 94.3699C307.23 95.1999 306.51 96.0699 305.51 96.9499C302.29 99.0899 297.81 101.83 294.92 102.61C290.01 103.94 288.99 100.22 288.12 96.8999C287.44 94.3299 285.92 91.5399 282.66 90.1499C279.28 88.5199 271.72 88.8199 268.54 89.0599C268.45 89.0599 268.37 89.0699 268.27 89.0799C267.83 89.1099 267.38 89.1399 266.91 89.1799C261.24 89.7199 258.97 93.4399 258.08 96.7599C257.2 100.08 256.19 103.81 251.27 102.48C248.39 101.7 243.91 98.9599 240.69 96.8199C239.69 95.9399 238.97 95.0699 238.67 94.2399C237.51 91.0899 235.42 72.5299 234.13 60.1899C234.13 60.2299 234.12 60.2699 234.11 60.3099C234.03 60.8299 233.95 61.3499 233.87 61.8699" fill="#161616"/>
<path d="M290.5 12.5C290.41 12.45 290 13.5 287.61 15.6902C288.5 13.5 288.41 8.55984 286.5 11.5C282.75 9.65004 280.07 10.22 278 10C273.72 9.44004 269.72 9.51026 267 10.0003C266.11 10.1503 260.4 10.2703 259.5 10.5003C250 8 234.5 26.7802 238.74 41.7102C253.23 35.0402 253.95 26.7802 253.95 26.7802C276.41 41.7502 298.48 43.27 309 43C308 28.5 300.64 17.1698 289 15" fill="#161616"/>
<path d="M260.87 98.5103C260.87 98.5103 264.28 104.18 271.86 104.18C271.86 104.18 280.32 104.61 284.3 98.8503L284.45 98.6103C271.27 103.87 260.88 98.5103 260.88 98.5103" fill="white"/>
<g style="mix-blend-mode:multiply" opacity="0.2">
<mask id="mask6_2969_5695" style="mask-type:luminance" maskUnits="userSpaceOnUse" x="251" y="117" width="45" height="20">
<path d="M295.01 117.81H251.89V136.46H295.01V117.81Z" fill="white"/>
</mask>
<g mask="url(#mask6_2969_5695)">
<mask id="mask7_2969_5695" style="mask-type:luminance" maskUnits="userSpaceOnUse" x="251" y="117" width="45" height="20">
<path d="M295.01 117.81H251.89V136.46H295.01V117.81Z" fill="white"/>
</mask>
<g mask="url(#mask7_2969_5695)">
<path d="M295.01 125.38V117.81C292.99 119.12 290.94 120.31 288.93 121.36C285.03 123.41 281.43 124.51 278.33 125.07C278.33 125.07 276.34 125.62 273.04 125.59C269.74 125.62 267.75 125.08 267.75 125.08C264.65 124.51 261.05 123.41 257.15 121.36C255.41 120.44 253.64 119.42 251.87 118.32V135.96C266.53 138.06 281.34 133.27 294.99 125.38" fill="#ECB699"/>
</g>
</g>
</g>
<path d="M277.85 85.2801C277.46 85.2801 277.11 85.0201 277 84.6301C276.87 84.1601 277.15 83.6801 277.62 83.5601C278.7 83.2701 281.22 82.1001 281.67 80.5001C281.98 79.4001 280.42 75.7901 279.05 72.6101C278.2 70.6301 277.32 68.5901 276.62 66.6401C274.51 60.7301 277.49 55.5301 277.62 55.3101C277.87 54.8901 278.4 54.7501 278.82 55.0001C279.24 55.2401 279.38 55.7801 279.14 56.2001C279.11 56.2501 276.45 60.9301 278.28 66.0601C278.96 67.9601 279.82 69.9701 280.66 71.9201C282.63 76.4801 283.81 79.3601 283.35 80.9801C282.64 83.5101 279.3 84.9201 278.07 85.2501C277.99 85.2701 277.92 85.2801 277.84 85.2801" fill="#DE9279"/>
<path d="M295.98 65.6399C295.98 67.4299 294.53 68.8899 292.73 68.8899C290.93 68.8899 289.49 67.4299 289.49 65.6399C289.49 63.8499 290.95 62.3999 292.73 62.3999C294.51 62.3999 295.98 63.8599 295.98 65.6399Z" fill="#231F20"/>
<path d="M258.12 65.8401C258.12 67.6301 256.68 69.0901 254.87 69.0901C253.06 69.0901 251.63 67.6301 251.63 65.8401C251.63 64.0501 253.09 62.6001 254.87 62.6001C256.65 62.6001 258.12 64.0601 258.12 65.8401Z" fill="#231F20"/>
<path d="M358.74 718.82C343.01 719.13 342.06 719.12 333.18 719.2C331.34 719.22 273.82 432.06 273.82 432.06C274.38 430.34 273.07 421.66 273.7 416.45C307.78 502.96 342.34 627.15 358.74 718.81V718.82Z" fill="url(#paint4_linear_2969_5695)"/>
<path d="M186.88 535.37C194.93 455.06 210.48 339.61 210.48 339.61C210.48 339.61 254.66 340.04 276.74 340.04C305.74 340.04 336.86 337.89 336.86 337.89C336.86 337.89 351.74 456.22 359.79 536.53C367.73 615.75 376.64 716.68 376.64 718.08C376.64 718.08 365.63 718.63 358.73 719.23C342.33 627.57 272.47 425.04 273.81 432.48C272.82 437.03 273.81 432.48 272.68 437.84C243.54 512.62 217.29 644.9 202.88 726.02C190.61 725.26 177.28 719.61 177.28 719.61C177.28 719.61 178.81 615.68 186.86 535.37H186.88Z" fill="url(#paint5_linear_2969_5695)"/>
<path style="mix-blend-mode:multiply" opacity="0.27" d="M287.64 356.33L283.04 401.66C283.04 401.66 266.69 400.24 280.5 360.21L287.64 356.33Z" fill="url(#paint6_linear_2969_5695)"/>
<path d="M207.98 353.87L207.21 365.15L340.09 366.7L338.91 353.4L207.98 353.87Z" fill="#707070"/>
<path d="M242.48 353.76H246.58L246.98 365.68H242.39L242.48 353.76Z" fill="url(#paint7_linear_2969_5695)"/>
<path d="M327.75 353.38L326.66 366.55H330.76L331.61 353.29L327.75 353.38Z" fill="url(#paint8_linear_2969_5695)"/>
<path d="M289.37 353.63H274.56L274.7 366.64L290 365.86V363.88L277.33 364.17L276.39 356.33L289.96 355.62L289.37 353.63Z" fill="url(#paint9_linear_2969_5695)"/>
<path d="M285 358.93L272.68 358.68V359.91L285 361.44C285 361.44 286.52 360.28 285 358.93Z" fill="url(#paint10_linear_2969_5695)"/>
<path d="M317.79 159.81L286.26 147.67L233.12 150.19L315.02 253.47C315.02 253.47 320.32 182.55 317.79 159.81Z" fill="#F7F7F7"/>
<path d="M310.66 149.08C282.97 154.52 273.41 149.49 273.41 149.49L243.47 145.16C243.47 145.16 185.63 169.05 179.27 174.28C172.9 179.51 203.92 205.43 206.63 226.02C211.43 262.53 216.92 266.93 214.14 304.9C211.25 344.32 207.27 354.45 207.27 354.45L339.26 352.99C339.26 352.99 335.97 334.01 330.81 287.29C328.66 273.32 340.11 226.28 347.48 208.88C355.93 188.93 375.16 186.56 367.67 175.08L310.66 149.08Z" fill="#E1EFFF"/>
<path d="M272.61 148.61L285.69 165.39L276.74 187.6C276.74 187.6 278.35 216.49 280.76 250.5C285.5 317.41 291.75 359.54 291.75 360.06C291.75 360.85 275.94 381.23 275.94 381.23L257.45 361.39C257.45 361.39 265.06 316.42 267.88 250.24C269.39 214.86 271.9 188.7 271.85 188.7C271.69 188.7 260.1 166.14 260.1 166.14L272.61 148.6V148.61Z" fill="url(#paint11_linear_2969_5695)"/>
<path d="M272.74 148.13C272.74 148.13 265.85 161.86 261.86 170.01C235.04 153.87 230.75 150.98 230.75 150.98L250.53 133.24C250.53 133.24 250.55 139.51 272.74 148.14V148.13Z" fill="#CFDDF1"/>
<path d="M273.15 147.66C273.15 147.66 279.85 161.86 283.84 170.01C310.66 153.87 311.54 149.92 311.54 149.92L295.35 134.45C295.35 134.45 295.34 139.03 273.14 147.66H273.15Z" fill="#CFDDF1"/>
<path d="M526.72 252.47C525.32 253 513.05 259.68 510.9 260.68C508.74 261.69 507.15 263.64 506.71 264.62C506.41 265.29 504.63 269.39 503.53 271.91C502.4 274.06 501.3 275.88 500.65 276.06C500.06 276.23 496.53 275.8 492.69 275.33C491.7 278 490.87 280.71 489.94 283.4C488.93 286.32 487.95 289.61 486.77 292.54C493.76 293.76 503.55 295.23 503.55 295.23C503.55 295.23 520.27 297.75 529.09 297.87C531.01 298.03 532.8 298.12 534.11 298.17C537.67 298.31 550.4 298.7 550.4 298.7C550.4 298.7 551.18 297.7 549.5 295.63C547.61 293.3 543.02 293.2 541.11 293.04C540.31 292.97 538.35 292.75 536.13 292.42C536.22 292.4 536.31 292.39 536.4 292.37C540.42 291.66 554.6 287.94 554.6 287.94C554.6 287.94 556.01 286.67 552.98 285.03C549.95 283.4 545.18 284.61 543 284.9C542.18 285.01 540.28 285.22 538.03 285.37C538.38 285.28 538.72 285.2 539.04 285.12C543.53 284.02 559.27 278.75 559.27 278.75C559.27 278.75 560.77 277.2 557.22 275.58C553.67 273.96 548.37 275.7 545.93 276.18C543.97 276.57 536.54 277.82 531.52 277.86C533.57 277.4 535.44 276.92 536.85 276.54C541.32 275.35 556.97 269.8 556.97 269.8C556.97 269.8 558.44 268.23 554.87 266.67C551.29 265.11 546.02 266.95 543.59 267.48C541.16 268.01 530.22 270.05 526.03 269.25C523.95 268.86 522.91 267.84 522.4 266.9C522.34 266.75 522.28 266.6 522.24 266.44C521.5 263.68 526.97 258.47 527.98 256.21C528.89 254.17 528.27 252.34 527.11 252.38C526.98 252.38 526.85 252.41 526.71 252.47" fill="url(#paint12_linear_2969_5695)"/>
<path d="M498.63 285.12C495.57 285.91 491.07 291.57 493.96 293.48C496.85 295.39 520.08 298.87 525.2 299.23C530.32 299.58 550.17 298.99 550.58 298.74C551.61 298.11 550.62 296.19 550.62 296.19C549.19 293.69 544.06 293.06 539.2 292.43C534.34 291.79 519.08 285.75 511.62 283.73C509.67 283.2 507.85 283.05 506.22 283.1C501.64 283.26 498.63 285.13 498.63 285.13" fill="url(#paint13_linear_2969_5695)"/>
<path d="M339.58 221.58C339.58 221.58 364.53 307.2 390.72 314.48C416.91 321.77 480.07 302.17 480.07 302.17C487.11 293.28 484.63 272.19 484.63 272.19L406.94 272.09C406.94 272.09 397.31 252.61 386.43 220.99C373.61 183.75 365.35 174.4 365.35 174.4L339.58 221.57V221.58Z" fill="#E1EFFF"/>
<path d="M484.64 272.19L496.04 274.11C496.04 274.11 499.8 290.06 495.18 304.01L480.41 301.59C480.41 301.59 486.87 287.66 484.64 272.18" fill="white"/>
<path d="M373.61 285.54L373.95 288.45C372.45 288.62 372.11 288.68 370.51 289.03L370.59 286.05C372.29 285.68 372.01 285.72 373.61 285.54ZM378.67 285.27C380.43 285.29 382.14 285.45 383.76 285.74L383.25 288.63C381.79 288.37 380.23 288.23 378.63 288.21L378.67 285.28V285.27ZM388.73 287.11C390.35 287.74 391.9 288.53 393.34 289.48L391.73 291.93C390.47 291.1 389.1 290.4 387.67 289.85L388.73 287.11ZM397.35 292.75C398.53 293.93 399.63 295.27 400.62 296.72L398.2 298.38C397.3 297.07 396.31 295.88 395.26 294.82L397.34 292.75H397.35ZM403.18 301.13C403.89 302.6 404.54 304.17 405.11 305.81L402.34 306.77C401.81 305.24 401.21 303.77 400.54 302.41L403.18 301.13ZM406.51 310.65C406.89 312.23 407.04 313.01 407.29 314.7L404.39 315.13C404.15 313.52 404.01 312.83 403.65 311.33L406.5 310.65H406.51Z" fill="#C2D8F0"/>
<path d="M37.6401 191.78C38.8901 192.6 49.4201 201.78 51.3001 203.23C53.1901 204.68 54.3201 206.94 54.5401 207.98C54.6901 208.69 55.5401 213.09 56.0601 215.78C56.6901 218.12 58.0101 218.23 58.6001 218.55C59.1301 218.85 69.4601 220.92 72.9401 223.7C75.1601 225.48 67.4301 236.45 67.9401 239.56C60.8501 239.23 50.9801 238.55 50.9801 238.55C50.9801 238.55 34.1101 237.38 25.4801 235.58C23.5701 235.32 21.8001 235.02 20.5201 234.78C17.0101 234.15 4.51006 231.76 4.51006 231.76C4.51006 231.76 3.97006 230.62 6.05006 228.95C8.40006 227.08 12.9001 227.98 14.8001 228.25C15.5901 228.35 17.5601 228.57 19.8001 228.73C19.7101 228.69 19.6301 228.66 19.5501 228.62C15.7801 227.06 2.75006 220.35 2.75006 220.35C2.75006 220.35 1.65006 218.8 4.96006 217.86C8.27006 216.92 12.6701 219.14 14.7301 219.89C15.5101 220.17 17.3201 220.79 19.4801 221.43C19.1501 221.27 18.8401 221.11 18.5501 220.97C14.4101 218.92 0.180056 210.36 0.180056 210.36C0.180056 210.36 -0.949944 208.53 2.87006 207.71C6.69006 206.9 11.4901 209.74 13.7601 210.75C15.5901 211.55 22.5601 214.39 27.4701 215.51C25.5701 214.62 23.8501 213.74 22.5501 213.06C18.4401 210.93 4.37006 202.12 4.37006 202.12C4.37006 202.12 3.27006 200.27 7.10006 199.53C10.9301 198.79 15.6801 201.72 17.9401 202.77C20.1901 203.82 30.4301 208.18 34.7001 208.31C36.8101 208.38 38.0501 207.61 38.7601 206.81C38.8501 206.68 38.9401 206.54 39.0101 206.39C40.3301 203.86 36.1201 197.59 35.6201 195.16C35.1701 192.97 36.1801 191.32 37.3001 191.61C37.4201 191.64 37.5501 191.7 37.6701 191.78" fill="url(#paint14_linear_2969_5695)"/>
<path d="M57.99 229.75C60.81 231.18 63.97 237.69 60.74 238.93C57.51 240.17 34.07 238.52 29 237.76C23.92 236.99 4.68002 232.11 4.33002 231.77C3.46002 230.93 4.84002 229.27 4.84002 229.27C6.78002 227.14 11.93 227.64 16.81 228.08C21.69 228.51 37.9 225.93 45.62 225.57C47.64 225.48 49.45 225.72 51.02 226.13C55.45 227.28 57.99 229.76 57.99 229.76" fill="url(#paint15_linear_2969_5695)"/>
<path d="M210.82 222.28C210.82 222.28 178.24 307.22 152.69 316.49C127.02 325.8 72.92 252.13 72.92 252.13C62.87 246.24 75.13 222.58 75.13 222.58L137.8 272.1C137.8 272.1 147.43 252.62 158.31 221C171.13 183.76 179.39 174.41 179.39 174.41L210.82 222.28Z" fill="#E1EFFF"/>
<path d="M84.72 223.63L73.04 216.77C73.04 216.77 57.8 239.17 57.89 253.87L72.69 256.12L84.72 223.63Z" fill="white"/>
<path d="M175.17 283.97L175.25 286.95C173.65 286.6 173.31 286.54 171.81 286.37L172.15 283.46C173.75 283.64 173.48 283.6 175.17 283.97ZM167.12 286.12C165.52 286.14 163.97 286.28 162.5 286.54L161.99 283.65C163.61 283.36 165.32 283.21 167.08 283.18L167.12 286.11V286.12ZM158.08 287.77C156.65 288.32 155.29 289.02 154.02 289.85L152.41 287.4C153.85 286.46 155.4 285.66 157.02 285.03L158.08 287.77ZM150.49 292.74C149.44 293.8 148.45 294.99 147.55 296.3L145.13 294.64C146.13 293.19 147.23 291.85 148.4 290.67L150.48 292.74H150.49ZM145.22 300.34C144.56 301.7 143.95 303.17 143.42 304.7L140.65 303.74C141.22 302.1 141.87 300.52 142.58 299.06L145.22 300.34ZM142.1 309.26C141.74 310.76 141.61 311.45 141.36 313.06L138.46 312.63C138.71 310.94 138.87 310.16 139.24 308.58L142.09 309.26H142.1Z" fill="#C2D8F0"/>
</g>
<defs>
<linearGradient id="paint0_linear_2969_5695" x1="283.704" y1="205.22" x2="283.704" y2="101.256" gradientUnits="userSpaceOnUse">
<stop stop-color="#FBDCCC"/>
<stop offset="0.19" stop-color="#FAD9C7"/>
<stop offset="0.4" stop-color="#F9D0BA"/>
<stop offset="0.62" stop-color="#F8C2A4"/>
<stop offset="0.85" stop-color="#F5AE86"/>
<stop offset="1" stop-color="#F49E6D"/>
</linearGradient>
<linearGradient id="paint1_linear_2969_5695" x1="330.312" y1="79.5732" x2="330.312" y2="50.8588" gradientUnits="userSpaceOnUse">
<stop stop-color="#FBDCCC"/>
<stop offset="0.19" stop-color="#FAD9C7"/>
<stop offset="0.4" stop-color="#F9D0BA"/>
<stop offset="0.62" stop-color="#F8C2A4"/>
<stop offset="0.85" stop-color="#F5AE86"/>
<stop offset="1" stop-color="#F49E6D"/>
</linearGradient>
<linearGradient id="paint2_linear_2969_5695" x1="230.462" y1="83.5905" x2="230.462" y2="54.9905" gradientUnits="userSpaceOnUse">
<stop stop-color="#FBDCCC"/>
<stop offset="0.19" stop-color="#FAD9C7"/>
<stop offset="0.4" stop-color="#F9D0BA"/>
<stop offset="0.62" stop-color="#F8C2A4"/>
<stop offset="0.85" stop-color="#F5AE86"/>
<stop offset="1" stop-color="#F49E6D"/>
</linearGradient>
<linearGradient id="paint3_linear_2969_5695" x1="262.742" y1="109.097" x2="262.742" y2="18.8719" gradientUnits="userSpaceOnUse">
<stop stop-color="#FBDCCC"/>
<stop offset="0.19" stop-color="#FAD9C7"/>
<stop offset="0.4" stop-color="#F9D0BA"/>
<stop offset="0.62" stop-color="#F8C2A4"/>
<stop offset="0.85" stop-color="#F5AE86"/>
<stop offset="1" stop-color="#F49E6D"/>
</linearGradient>
<linearGradient id="paint4_linear_2969_5695" x1="273.53" y1="567.83" x2="358.74" y2="567.83" gradientUnits="userSpaceOnUse">
<stop stop-color="#3D3D3D"/>
<stop offset="1" stop-color="#262626"/>
</linearGradient>
<linearGradient id="paint5_linear_2969_5695" x1="177.29" y1="531.95" x2="376.65" y2="531.95" gradientUnits="userSpaceOnUse">
<stop stop-color="#454545"/>
<stop offset="1" stop-color="#2E2E2E"/>
</linearGradient>
<linearGradient id="paint6_linear_2969_5695" x1="274.95" y1="378.99" x2="287.64" y2="378.99" gradientUnits="userSpaceOnUse">
<stop stop-color="#3D3D3D"/>
<stop offset="1" stop-color="#262626"/>
</linearGradient>
<linearGradient id="paint7_linear_2969_5695" x1="242.39" y1="359.72" x2="246.98" y2="359.72" gradientUnits="userSpaceOnUse">
<stop stop-color="#3D3D3D"/>
<stop offset="1" stop-color="#262626"/>
</linearGradient>
<linearGradient id="paint8_linear_2969_5695" x1="326.66" y1="359.92" x2="331.61" y2="359.92" gradientUnits="userSpaceOnUse">
<stop stop-color="#3D3D3D"/>
<stop offset="1" stop-color="#262626"/>
</linearGradient>
<linearGradient id="paint9_linear_2969_5695" x1="274.56" y1="360.14" x2="290" y2="360.14" gradientUnits="userSpaceOnUse">
<stop stop-color="#3D3D3D"/>
<stop offset="1" stop-color="#262626"/>
</linearGradient>
<linearGradient id="paint10_linear_2969_5695" x1="272.68" y1="360.06" x2="285.67" y2="360.06" gradientUnits="userSpaceOnUse">
<stop stop-color="#3D3D3D"/>
<stop offset="1" stop-color="#262626"/>
</linearGradient>
<linearGradient id="paint11_linear_2969_5695" x1="243.74" y1="157.65" x2="259.2" y2="216.38" gradientUnits="userSpaceOnUse">
<stop stop-color="#C1210D"/>
<stop offset="0.52" stop-color="#C1210D"/>
<stop offset="1" stop-color="#9D1D06"/>
</linearGradient>
<linearGradient id="paint12_linear_2969_5695" x1="486.78" y1="275.54" x2="559.6" y2="275.54" gradientUnits="userSpaceOnUse">
<stop stop-color="#FBDCCC"/>
<stop offset="0.2" stop-color="#FAD3BF"/>
<stop offset="0.56" stop-color="#F7BE9E"/>
<stop offset="1" stop-color="#F49E6D"/>
</linearGradient>
<linearGradient id="paint13_linear_2969_5695" x1="493.03" y1="291.21" x2="551.04" y2="291.21" gradientUnits="userSpaceOnUse">
<stop stop-color="#FBDCCC"/>
<stop offset="0.25" stop-color="#F9CAB1"/>
<stop offset="0.75" stop-color="#F5AA80"/>
<stop offset="1" stop-color="#F49E6D"/>
</linearGradient>
<linearGradient id="paint14_linear_2969_5695" x1="3.40645" y1="227.138" x2="70.2596" y2="211.359" gradientUnits="userSpaceOnUse">
<stop stop-color="#FBDCCC"/>
<stop offset="0.2" stop-color="#FAD3BF"/>
<stop offset="0.56" stop-color="#F7BE9E"/>
<stop offset="1" stop-color="#F49E6D"/>
</linearGradient>
<linearGradient id="paint15_linear_2969_5695" x1="6.13457" y1="240.046" x2="60.0434" y2="227.323" gradientUnits="userSpaceOnUse">
<stop stop-color="#FBDCCC"/>
<stop offset="0.25" stop-color="#F9CAB1"/>
<stop offset="0.75" stop-color="#F5AA80"/>
<stop offset="1" stop-color="#F49E6D"/>
</linearGradient>
<clipPath id="clip0_2969_5695">
<rect width="559.6" height="758.95" fill="white"/>
</clipPath>
</defs>
</svg>
