<svg width="214" height="773" viewBox="0 0 214 773" fill="none" xmlns="http://www.w3.org/2000/svg">
<path d="M169.548 103.02C159.508 85.27 156.148 67.09 156.328 59.79C156.358 59.2 156.378 58.61 156.398 58.02C156.448 57.01 156.508 56.45 156.508 56.45H156.428C156.428 25.83 132.218 1 102.368 1C72.5181 1 48.3081 25.83 48.3081 56.45C48.3081 58 48.3881 59.54 48.5081 61.06C48.5681 69.05 44.7781 86.23 35.2681 103.02C23.4481 123.9 22.1881 145.96 45.6581 154.84C45.6581 154.84 45.7781 154.88 45.9481 154.94C48.1581 155.76 50.5581 156.47 53.2081 157.05C53.8281 157.18 54.4281 157.28 55.0381 157.4C70.8681 161.13 110.048 166.7 147.188 157.86C148.648 157.63 150.128 157.38 151.628 157.05C155.788 156.14 159.358 154.92 162.448 153.44C162.468 153.44 162.498 153.42 162.518 153.42H162.508C182.478 143.75 180.778 122.87 169.558 103.03L169.548 103.02Z" fill="black"/>
<path d="M102.094 106.53C130.862 106.53 154.184 83.7857 154.184 55.7297C154.184 27.6736 130.862 4.92969 102.094 4.92969C73.3254 4.92969 50.0039 27.6736 50.0039 55.7297C50.0039 83.7857 73.3254 106.53 102.094 106.53Z" fill="black"/>
<mask id="mask0_2646_3098" style="mask-type:luminance" maskUnits="userSpaceOnUse" x="135" y="66" width="17" height="29">
<path d="M137.784 70.4297C132.974 76.1097 136.174 89.8197 136.724 91.5197C137.534 94.0097 140.334 97.0697 145.014 92.5197C150.054 87.5997 155.184 70.1197 147.944 66.9997C146.934 66.5597 145.974 66.3797 145.064 66.3797C140.824 66.3797 137.874 70.3097 137.774 70.4297" fill="white"/>
</mask>
<g mask="url(#mask0_2646_3098)">
<path d="M155.194 66.3797H132.984V97.0697H155.194V66.3797Z" fill="url(#paint0_linear_2646_3098)"/>
</g>
<mask id="mask1_2646_3098" style="mask-type:luminance" maskUnits="userSpaceOnUse" x="48" y="66" width="17" height="29">
<path d="M52.1641 66.7997C44.9241 69.9197 50.0441 87.3997 55.0941 92.3197C59.7741 96.8697 62.5841 93.8197 63.3941 91.3297C63.9441 89.6297 67.1441 75.9197 62.3341 70.2397C62.2341 70.1197 59.2841 66.1897 55.0441 66.1897C54.1341 66.1897 53.1741 66.3697 52.1641 66.8097" fill="white"/>
</mask>
<g mask="url(#mask1_2646_3098)">
<path d="M67.1343 66.1897H44.9243V96.8797H67.1343V66.1897Z" fill="url(#paint1_linear_2646_3098)"/>
</g>
<mask id="mask2_2646_3098" style="mask-type:luminance" maskUnits="userSpaceOnUse" x="61" y="16" width="81" height="117">
<path d="M101.054 16.1097C101.054 16.1097 100.964 16.1097 100.914 16.1097C66.484 16.3197 63.784 54.2097 63.784 54.2097C63.784 54.2097 58.764 94.1497 62.344 103.89C64.884 110.8 73.124 118.6 81.094 124.04C84.364 126.27 87.594 128.12 90.364 129.33C94.734 131.25 98.064 131.98 100.614 132.11C100.704 132.11 100.804 132.11 100.894 132.11C100.924 132.11 100.954 132.11 100.974 132.11H101.044C101.044 132.11 101.094 132.11 101.114 132.11C101.114 132.11 101.164 132.11 101.184 132.11C101.284 132.11 101.384 132.11 101.474 132.11C104.024 131.98 107.344 131.24 111.724 129.33C113.954 128.35 116.484 126.96 119.084 125.3C127.614 119.85 137.004 111.35 139.754 103.88C143.334 94.1397 138.304 54.1997 138.304 54.1997C138.304 54.1997 135.604 16.3097 101.174 16.0997C101.124 16.0997 101.074 16.0997 101.034 16.0997" fill="white"/>
</mask>
<g mask="url(#mask2_2646_3098)">
<path d="M143.354 16.1097H58.7642V132.14H143.354V16.1097Z" fill="url(#paint2_linear_2646_3098)"/>
</g>
<mask id="mask3_2646_3098" style="mask-type:luminance" maskUnits="userSpaceOnUse" x="60" y="124" width="80" height="62">
<path d="M79.814 149.43C78.014 155 71.254 158.37 60.374 163.11C60.404 165.2 61.494 182.71 90.964 185.17H101.974C137.424 185.17 139.634 166.22 139.764 163.07C128.944 158.35 122.224 154.98 120.434 149.43C118.924 144.77 118.964 132.33 119.114 125.32C116.504 126.98 113.984 128.37 111.754 129.35C107.374 131.27 104.054 132 101.504 132.13C101.414 132.13 101.314 132.13 101.214 132.13C101.194 132.13 101.164 132.13 101.144 132.13H101.074C101.074 132.13 101.024 132.13 101.004 132.13C101.004 132.13 100.954 132.13 100.924 132.13C100.834 132.13 100.734 132.13 100.644 132.13C98.084 132 94.764 131.26 90.394 129.35C87.624 128.14 84.394 126.29 81.124 124.06C81.294 130.73 81.434 144.49 79.834 149.44" fill="white"/>
</mask>
<g mask="url(#mask3_2646_3098)">
<path d="M139.764 124.05H60.374V185.16H139.764V124.05Z" fill="url(#paint3_linear_2646_3098)"/>
</g>
<g style="mix-blend-mode:multiply" opacity="0.2">
<mask id="mask4_2646_3098" style="mask-type:luminance" maskUnits="userSpaceOnUse" x="80" y="124" width="40" height="22">
<path d="M119.104 124.069H80.5439V145.739H119.104V124.069Z" fill="white"/>
</mask>
<g mask="url(#mask4_2646_3098)">
<mask id="mask5_2646_3098" style="mask-type:luminance" maskUnits="userSpaceOnUse" x="80" y="124" width="40" height="22">
<path d="M119.104 124.069H80.5439V145.739H119.104V124.069Z" fill="white"/>
</mask>
<g mask="url(#mask5_2646_3098)">
<path d="M119.104 125.329C116.504 126.989 113.974 128.379 111.744 129.359C107.374 131.269 104.044 132.009 101.494 132.139C101.404 132.139 101.304 132.139 101.204 132.149H101.124H101.054H100.974H100.894C100.794 132.149 100.704 132.149 100.604 132.139C98.0539 132.009 94.7239 131.269 90.3539 129.359C87.5839 128.149 84.3539 126.299 81.0839 124.069C81.2239 129.459 81.3339 139.489 80.5239 145.739C93.7639 143.349 107.054 138.949 119.024 132.269C119.024 129.719 119.044 127.299 119.084 125.319" fill="#ECB699"/>
</g>
</g>
</g>
<path d="M104.864 98.0301C104.634 98.0301 104.404 98.0201 104.174 97.9901C103.704 97.9401 103.364 97.5101 103.414 97.0401C103.464 96.5701 103.874 96.2301 104.354 96.2901C105.734 96.4401 106.884 95.9901 107.604 95.0101C108.914 93.2401 108.714 90.0101 107.044 86.1601C101.934 74.3501 106.644 68.1701 106.844 67.9101C107.134 67.5401 107.674 67.4801 108.044 67.7701C108.414 68.0601 108.474 68.6001 108.184 68.9701C108.004 69.2001 103.934 74.6701 108.604 85.4801C111.224 91.5401 109.954 94.6801 108.964 96.0201C108.014 97.3101 106.534 98.0201 104.844 98.0201" fill="#DFAC97"/>
<path d="M125.444 75.7397C125.444 77.7097 123.844 79.3197 121.864 79.3197C119.884 79.3197 118.294 77.7097 118.294 75.7397C118.294 73.7697 119.894 72.1697 121.864 72.1697C123.834 72.1697 125.444 73.7797 125.444 75.7397Z" fill="#231F20"/>
<path d="M83.714 75.9597C83.714 77.9297 82.124 79.5397 80.134 79.5397C78.144 79.5397 76.564 77.9297 76.564 75.9597C76.564 73.9897 78.174 72.3897 80.134 72.3897C82.094 72.3897 83.714 73.9997 83.714 75.9597Z" fill="#231F20"/>
<path d="M84.9868 104.93C84.9868 104.93 90.0553 112.578 101.298 112.578C101.298 112.578 113.859 113.164 119.766 105.39L119.987 105.072C100.413 112.159 84.9868 104.93 84.9868 104.93Z" fill="white"/>
<path d="M121.14 20.9297C121.14 20.9297 103.76 44.8797 140.25 68.8397C140.25 68.8397 140.9 29.0597 121.14 20.9297Z" fill="black"/>
<path d="M53.9984 66.3294C53.9984 66.3294 125.838 65.9594 137.348 30.3994C137.348 30.3994 119.508 6.46944 86.5184 16.2994C53.5384 26.1394 53.9984 66.3294 53.9984 66.3294Z" fill="black"/>
<path d="M74.07 158.41C74.07 158.41 49.98 163.74 39.83 174.52C36.61 177.94 -1.57997 235.22 0.320034 304.04C14.08 304.99 32.16 285.3 32.16 285.3L74.07 158.41Z" fill="url(#paint4_linear_2646_3098)"/>
<path d="M40.5998 483.85C40.5998 483.85 31.0398 511.56 28.5398 515.62C26.0398 519.68 22.0898 530.07 25.0798 537.96C28.0698 545.85 34.2798 565.91 35.4698 573.2C36.6598 580.49 42.5198 628.51 42.7598 639.26C42.9998 650.01 35.5898 690.62 35.4698 697.08C35.3498 703.54 31.6498 717.27 32.0098 720.25C32.3698 723.23 32.1598 731.24 31.3898 734.66C30.6198 738.08 30.3598 739.96 29.5098 740.56C28.6598 741.16 25.2298 742.7 25.2298 742.7C25.2298 742.7 15.7398 747.06 12.1498 749.37C8.55979 751.68 13.0898 755.18 17.2798 754.93C21.4698 754.68 26.5098 751.08 29.4198 752.02C32.3298 752.96 48.5698 751.59 52.8498 748.69C57.1298 745.79 59.9498 727.83 61.9998 722.1C64.0498 716.37 70.9798 705.94 75.6798 703.37C80.3798 700.8 80.5498 691.91 78.2498 688.24C75.9498 684.57 69.6998 678.58 69.0198 676.61C68.3398 674.64 67.5698 646.85 67.8198 640.87C68.0698 634.89 72.8598 589.82 72.6898 580.16C72.5198 570.5 66.6998 551.26 63.0298 542.88C59.3598 534.5 62.7698 530.65 64.0598 529.11C65.3498 527.57 84.1498 497.39 84.1498 497.39L40.6098 483.86L40.5998 483.85Z" fill="url(#paint5_linear_2646_3098)"/>
<path d="M96.4702 516.93C96.4702 516.93 101.55 528.43 103.12 531.42C104.69 534.41 109.99 542.78 111.64 545.91C113.29 549.04 119.78 562.12 121.87 568.02C123.96 573.92 130.69 593.87 134.5 602.09C138.31 610.31 149.44 640.64 150.71 646.47C151.98 652.3 154.3 669.03 154.37 680.46C154.44 691.89 154.22 727.6 153.7 731.56C153.18 735.52 149.29 744.93 147.42 746.58C145.55 748.23 138.16 755.4 137.93 757.11C137.7 758.82 140.02 761.14 145.33 761.07C150.64 761 168.04 760.85 170.51 759.87C172.98 758.89 181.34 757.33 182.54 755.39C183.74 753.45 184.63 729.99 185.53 720.5C186.43 711.01 188 681.28 187.47 679.04C186.94 676.8 181.87 672.91 179.7 668.06C177.53 663.21 175.96 653.49 174.02 644.6C172.08 635.71 168.34 609.04 166.55 599.03C164.76 589.02 158.03 559.81 155.79 555.03C153.55 550.25 144.43 534.93 141 531.12C137.57 527.31 130.91 507.89 130.91 507.89L96.4702 516.93Z" fill="url(#paint6_linear_2646_3098)"/>
<path d="M149.1 743.66C149.1 743.66 135.69 755.08 134.5 758.49C133.31 761.9 131.72 763.41 132.44 764.68C133.16 765.95 154.17 765.47 160.6 763.73C167.03 761.98 182.49 760.64 184.71 754.93C186.93 749.22 186.14 727.96 187.09 722.73C188.04 717.5 188.44 717.42 188.44 717.42C188.44 717.42 192.25 748.28 192.17 752.24L194.71 752L194.55 750.25L193.28 749.54C193.28 749.54 189.71 717.02 193.52 707.1C197.33 697.18 195.98 694.33 193.84 689.41C191.7 684.49 187.18 677.27 187.18 677.27C187.18 677.27 185.83 713.52 184.88 723.99C183.93 734.46 180.99 748.1 171.24 747.39C161.49 746.68 152.28 746.91 149.11 743.66H149.1Z" fill="#212121"/>
<path d="M26.2202 742.32C26.2202 742.32 10.5902 748.72 9.07023 749.74C7.55023 750.76 3.91023 752.07 5.59023 754.62C7.27023 757.17 17.2702 757.82 20.2802 758.04C23.2902 758.26 37.4602 757.82 38.6102 757.42C39.7602 757.02 56.2902 752.73 58.9002 745.27C61.5102 737.81 66.2002 713.89 71.3302 713.55C71.3302 713.55 74.1902 712.59 74.5602 719.36C74.9302 726.13 73.9402 754.46 73.9402 754.46H76.4902C76.4902 754.46 78.3202 723.58 79.1302 717.74C79.9402 711.9 82.7302 701.93 82.0802 697.61C81.4302 693.29 76.8002 683.26 72.1702 680C72.1702 680 66.1302 684.64 61.3002 691.18C57.4002 696.46 55.8002 699.85 52.6302 708.08C49.4602 716.31 45.7002 726.44 44.5202 730.04C43.3402 733.64 37.8102 747.09 26.2202 742.31V742.32Z" fill="#212121"/>
<path d="M157.98 436.27C152.4 390.74 141.4 345.16 140.52 321.86C138.31 262.85 162.24 226.67 162.24 226.67C162.24 226.67 160.92 221.3 160.27 213.49C159.4 203 159.75 188.13 166.13 176.01C161.49 172.18 134.76 159.61 128.92 157.53C117.33 171.82 101.32 179.99 89.55 182.04C78.75 183.93 72.53 169.7 73.87 155L66.77 158.55C66.77 158.55 34.16 215.44 33.04 228.25C32.97 229.02 32.94 229.8 32.91 230.59C32.58 242.97 37.42 257.85 36.38 268.31C35.27 279.45 23.3 357.39 19.4 425.3C15.49 493.21 27.76 571.15 27.76 571.15L33.68 570.96L133.99 567.78L173.97 565.95C173.97 565.95 166.52 505.97 157.98 436.25V436.27Z" fill="url(#paint7_linear_2646_3098)"/>
<path d="M178.63 416.04C174.63 363.6 176.85 209.4 176.85 209.4L170.18 211.62C170.18 211.62 177.01 395.82 174.35 413.15C179.68 417.15 178.63 416.04 178.63 416.04Z" fill="#232323"/>
<path style="mix-blend-mode:multiply" opacity="0.2" d="M173.97 565.96L133.99 567.79C125.3 511.68 102.96 366.18 76.8402 349.71C42.4002 328 29.1402 384.34 28.5802 475.75C28.2502 528.82 31.1802 556.82 33.6902 570.97L27.7702 571.16C27.7702 571.16 15.5002 493.21 19.4102 425.31C23.3002 357.4 35.2702 279.46 36.3902 268.32C37.4302 257.86 32.5902 242.98 32.9202 230.6C37.4602 255.47 99.6502 248.27 112.04 240.71C125.1 232.77 158.54 212.79 158.54 212.79C158.54 212.79 159.22 213.05 160.29 213.5C160.94 221.31 162.26 226.68 162.26 226.68C162.26 226.68 138.32 262.85 140.54 321.87C141.42 345.17 152.42 390.75 158 436.28C166.53 506 173.99 565.98 173.99 565.98L173.97 565.96Z" fill="url(#paint8_linear_2646_3098)"/>
<path d="M151.62 420.16C149.97 427.58 164.16 464.78 164.16 464.78C164.16 464.78 192.19 451.13 194.03 445.6C195.87 440.07 181.86 406.88 181.86 406.88C181.86 406.88 152.36 416.84 151.62 420.16Z" fill="#232323"/>
<path d="M131.73 157.72C76.4199 278.63 151.85 421.36 151.85 421.36L155.09 419.67C155.09 419.67 117.55 345.4 115.18 271.35C112.81 197.31 136.24 159.69 136.24 159.69L131.73 157.72Z" fill="#232323"/>
<path d="M166.01 175.82C158.22 178.61 135.3 216.42 152.01 233.13C157.97 242.88 178.54 284.36 179.66 286.62C172.53 288.82 147.09 312.16 138.63 320.04C135.37 319.59 129.4 318.5 126.7 316.39C122.89 313.41 112.14 315.68 109.06 314.28C105.98 312.88 107.4 317.35 112.05 318.54C114.84 319.25 117.18 319.29 118.6 319.21C114.65 319.64 104.08 320.83 101.53 321.6C98.38 322.54 99.58 325.71 101.65 326.03C100 328.84 106.67 332.18 106.67 332.18C106.67 332.18 105.32 333.7 109.13 336.68C106.95 339.74 118.14 340.09 120.48 340.16C122.82 340.23 141.4 335.64 141.4 335.64C141.4 335.64 141.4 335.63 141.4 335.6C165.93 330.9 192.96 314.29 213.42 291.8C213.46 291.77 213.51 291.75 213.56 291.73C213 268.91 190.49 186.96 165.99 175.83L166.01 175.82Z" fill="url(#paint9_linear_2646_3098)"/>
<path d="M119.42 320.22C117.27 319.17 108.07 316.56 104.63 315.6C105.88 315.88 107.96 316.19 110.54 315.96C114.84 315.59 116.76 311.83 113.82 312.62C110.88 313.41 102.2 311.6 97.86 311.91C93.87 312.19 88.11 313.3 86.75 313.57C78.3 308.9 46.62 291.73 25.3 285.12C9.73 280.29 0 304.39 0 304.39C34.07 319.44 79.98 327.06 85.75 327.98C86.54 328.35 97.87 333.64 99.89 333.91C101.98 334.19 111.95 335.52 110.47 332.49C114.29 330.4 113.32 328.86 113.32 328.86C113.32 328.86 119.72 326.88 118.67 324.14C120.56 324.16 122.09 321.53 119.43 320.23L119.42 320.22Z" fill="url(#paint10_linear_2646_3098)"/>
<path d="M175.17 436.8L184.43 431.59L185.39 435.83L176.13 440.08L175.17 436.8Z" fill="url(#paint11_linear_2646_3098)"/>
<defs>
<linearGradient id="paint0_linear_2646_3098" x1="144.089" y1="59.6394" x2="144.089" y2="97.0697" gradientUnits="userSpaceOnUse">
<stop stop-color="#FFAE9E"/>
<stop offset="1" stop-color="#FCD7CB"/>
</linearGradient>
<linearGradient id="paint1_linear_2646_3098" x1="56.0293" y1="59.4494" x2="56.0293" y2="96.8797" gradientUnits="userSpaceOnUse">
<stop stop-color="#FFAE9E"/>
<stop offset="1" stop-color="#FCD7CB"/>
</linearGradient>
<linearGradient id="paint2_linear_2646_3098" x1="101.059" y1="-9.37329" x2="101.059" y2="132.14" gradientUnits="userSpaceOnUse">
<stop stop-color="#FFAE9E"/>
<stop offset="1" stop-color="#FCD7CB"/>
</linearGradient>
<linearGradient id="paint3_linear_2646_3098" x1="100.069" y1="110.628" x2="100.069" y2="185.16" gradientUnits="userSpaceOnUse">
<stop stop-color="#FFAE9E"/>
<stop offset="1" stop-color="#FCD7CB"/>
</linearGradient>
<linearGradient id="paint4_linear_2646_3098" x1="37.1607" y1="126.419" x2="37.1607" y2="304.073" gradientUnits="userSpaceOnUse">
<stop stop-color="#FFAE9E"/>
<stop offset="1" stop-color="#FCD7CB"/>
</linearGradient>
<linearGradient id="paint5_linear_2646_3098" x1="47.4985" y1="424.312" x2="47.4985" y2="754.943" gradientUnits="userSpaceOnUse">
<stop stop-color="#FFAE9E"/>
<stop offset="1" stop-color="#FCD7CB"/>
</linearGradient>
<linearGradient id="paint6_linear_2646_3098" x1="142.024" y1="452.285" x2="142.024" y2="761.072" gradientUnits="userSpaceOnUse">
<stop stop-color="#FFAE9E"/>
<stop offset="1" stop-color="#FCD7CB"/>
</linearGradient>
<linearGradient id="paint7_linear_2646_3098" x1="97.08" y1="152.07" x2="96.14" y2="588.1" gradientUnits="userSpaceOnUse">
<stop stop-color="#C1210D"/>
<stop offset="0.52" stop-color="#C1210D"/>
<stop offset="1" stop-color="#9D1D06"/>
</linearGradient>
<linearGradient id="paint8_linear_2646_3098" x1="18.6402" y1="391.97" x2="173.97" y2="391.97" gradientUnits="userSpaceOnUse">
<stop stop-color="#25635B"/>
<stop offset="1" stop-color="#255469"/>
</linearGradient>
<linearGradient id="paint9_linear_2646_3098" x1="156.581" y1="139.727" x2="156.581" y2="340.161" gradientUnits="userSpaceOnUse">
<stop stop-color="#FFAE9E"/>
<stop offset="1" stop-color="#FCD7CB"/>
</linearGradient>
<linearGradient id="paint10_linear_2646_3098" x1="60.4288" y1="273.507" x2="60.4288" y2="334.441" gradientUnits="userSpaceOnUse">
<stop stop-color="#FFAE9E"/>
<stop offset="1" stop-color="#FCD7CB"/>
</linearGradient>
<linearGradient id="paint11_linear_2646_3098" x1="175.17" y1="435.83" x2="185.39" y2="435.83" gradientUnits="userSpaceOnUse">
<stop stop-color="#1C1C1C"/>
<stop offset="1" stop-color="#4F4F4F"/>
</linearGradient>
</defs>
</svg>
