<svg width="286" height="768" viewBox="0 0 286 768" fill="none" xmlns="http://www.w3.org/2000/svg">
<g clip-path="url(#clip0_2646_3086)">
<path d="M229.548 102.02C219.508 84.27 216.148 66.09 216.328 58.79C216.358 58.2 216.378 57.61 216.398 57.02C216.448 56.01 216.508 55.45 216.508 55.45H216.428C216.428 24.83 192.218 0 162.368 0C132.518 0 108.308 24.83 108.308 55.45C108.308 57 108.388 58.54 108.508 60.06C108.568 68.05 104.778 85.23 95.2681 102.02C83.4481 122.9 82.1881 144.96 105.658 153.84C105.658 153.84 105.778 153.88 105.948 153.94C108.158 154.76 110.558 155.47 113.208 156.05C113.828 156.18 114.428 156.28 115.038 156.4C130.868 160.13 170.048 165.7 207.188 156.86C208.648 156.63 210.128 156.38 211.628 156.05C215.788 155.14 219.358 153.92 222.448 152.44C222.468 152.44 222.498 152.42 222.518 152.42H222.508C242.478 142.75 240.778 121.87 229.558 102.03L229.548 102.02Z" fill="black"/>
<path d="M162.094 105.53C190.862 105.53 214.184 82.7862 214.184 54.7302C214.184 26.6741 190.862 3.93018 162.094 3.93018C133.325 3.93018 110.004 26.6741 110.004 54.7302C110.004 82.7862 133.325 105.53 162.094 105.53Z" fill="black"/>
<mask id="mask0_2646_3086" style="mask-type:luminance" maskUnits="userSpaceOnUse" x="195" y="65" width="17" height="29">
<path d="M197.784 69.4301C192.974 75.1101 196.174 88.8201 196.724 90.5201C197.534 93.0101 200.334 96.0701 205.014 91.5201C210.054 86.6001 215.184 69.1201 207.944 66.0001C206.934 65.5601 205.974 65.3801 205.064 65.3801C200.824 65.3801 197.874 69.3101 197.774 69.4301" fill="white"/>
</mask>
<g mask="url(#mask0_2646_3086)">
<path d="M215.194 65.3801H192.984V96.0701H215.194V65.3801Z" fill="url(#paint0_linear_2646_3086)"/>
</g>
<mask id="mask1_2646_3086" style="mask-type:luminance" maskUnits="userSpaceOnUse" x="108" y="65" width="17" height="29">
<path d="M112.164 65.8001C104.924 68.9201 110.044 86.4001 115.094 91.3201C119.774 95.8701 122.584 92.8201 123.394 90.3301C123.944 88.6301 127.144 74.9201 122.334 69.2401C122.234 69.1201 119.284 65.1901 115.044 65.1901C114.134 65.1901 113.174 65.3701 112.164 65.8101" fill="white"/>
</mask>
<g mask="url(#mask1_2646_3086)">
<path d="M127.134 65.1901H104.924V95.8801H127.134V65.1901Z" fill="url(#paint1_linear_2646_3086)"/>
</g>
<mask id="mask2_2646_3086" style="mask-type:luminance" maskUnits="userSpaceOnUse" x="121" y="15" width="81" height="117">
<path d="M161.054 15.11C161.054 15.11 160.964 15.11 160.914 15.11C126.484 15.32 123.784 53.21 123.784 53.21C123.784 53.21 118.764 93.15 122.344 102.89C124.884 109.8 133.124 117.6 141.094 123.04C144.364 125.27 147.594 127.12 150.364 128.33C154.734 130.25 158.064 130.98 160.614 131.11C160.704 131.11 160.804 131.11 160.894 131.11C160.924 131.11 160.954 131.11 160.974 131.11H161.044C161.044 131.11 161.094 131.11 161.114 131.11C161.114 131.11 161.164 131.11 161.184 131.11C161.284 131.11 161.384 131.11 161.474 131.11C164.024 130.98 167.344 130.24 171.724 128.33C173.954 127.35 176.484 125.96 179.084 124.3C187.614 118.85 197.004 110.35 199.754 102.88C203.334 93.14 198.304 53.2 198.304 53.2C198.304 53.2 195.604 15.31 161.174 15.1C161.124 15.1 161.074 15.1 161.034 15.1" fill="white"/>
</mask>
<g mask="url(#mask2_2646_3086)">
<path d="M203.354 15.11H118.764V131.14H203.354V15.11Z" fill="url(#paint2_linear_2646_3086)"/>
</g>
<mask id="mask3_2646_3086" style="mask-type:luminance" maskUnits="userSpaceOnUse" x="120" y="123" width="80" height="62">
<path d="M139.814 148.43C138.014 154 131.254 157.37 120.374 162.11C120.404 164.2 121.494 181.71 150.964 184.17H161.974C197.424 184.17 199.634 165.22 199.764 162.07C188.944 157.35 182.224 153.98 180.434 148.43C178.924 143.77 178.964 131.33 179.114 124.32C176.504 125.98 173.984 127.37 171.754 128.35C167.374 130.27 164.054 131 161.504 131.13C161.414 131.13 161.314 131.13 161.214 131.13C161.194 131.13 161.164 131.13 161.144 131.13H161.074C161.074 131.13 161.024 131.13 161.004 131.13C161.004 131.13 160.954 131.13 160.924 131.13C160.834 131.13 160.734 131.13 160.644 131.13C158.084 131 154.764 130.26 150.394 128.35C147.624 127.14 144.394 125.29 141.124 123.06C141.294 129.73 141.434 143.49 139.834 148.44" fill="white"/>
</mask>
<g mask="url(#mask3_2646_3086)">
<path d="M199.764 123.05H120.374V184.16H199.764V123.05Z" fill="url(#paint3_linear_2646_3086)"/>
</g>
<g style="mix-blend-mode:multiply" opacity="0.2">
<mask id="mask4_2646_3086" style="mask-type:luminance" maskUnits="userSpaceOnUse" x="140" y="123" width="40" height="22">
<path d="M179.104 123.07H140.544V144.74H179.104V123.07Z" fill="white"/>
</mask>
<g mask="url(#mask4_2646_3086)">
<mask id="mask5_2646_3086" style="mask-type:luminance" maskUnits="userSpaceOnUse" x="140" y="123" width="40" height="22">
<path d="M179.104 123.07H140.544V144.74H179.104V123.07Z" fill="white"/>
</mask>
<g mask="url(#mask5_2646_3086)">
<path d="M179.104 124.33C176.504 125.99 173.974 127.38 171.744 128.36C167.374 130.27 164.044 131.01 161.494 131.14C161.404 131.14 161.304 131.14 161.204 131.15H161.124H161.054H160.974H160.894C160.794 131.15 160.704 131.15 160.604 131.14C158.054 131.01 154.724 130.27 150.354 128.36C147.584 127.15 144.354 125.3 141.084 123.07C141.224 128.46 141.334 138.49 140.524 144.74C153.764 142.35 167.054 137.95 179.024 131.27C179.024 128.72 179.044 126.3 179.084 124.32" fill="#ECB699"/>
</g>
</g>
</g>
<path d="M164.864 97.0301C164.634 97.0301 164.404 97.0201 164.174 96.9901C163.704 96.9401 163.364 96.5101 163.414 96.0401C163.464 95.5701 163.874 95.2301 164.354 95.2901C165.734 95.4401 166.884 94.9901 167.604 94.0101C168.914 92.2401 168.714 89.0101 167.044 85.1601C161.934 73.3501 166.644 67.1701 166.844 66.9101C167.134 66.5401 167.674 66.4801 168.044 66.7701C168.414 67.0601 168.474 67.6001 168.184 67.9701C168.004 68.2001 163.934 73.6701 168.604 84.4801C171.224 90.5401 169.954 93.6801 168.964 95.0201C168.014 96.3101 166.534 97.0201 164.844 97.0201" fill="#DFAC97"/>
<path d="M185.444 74.74C185.444 76.71 183.844 78.32 181.864 78.32C179.884 78.32 178.294 76.71 178.294 74.74C178.294 72.77 179.894 71.17 181.864 71.17C183.834 71.17 185.444 72.78 185.444 74.74Z" fill="#231F20"/>
<path d="M143.714 74.9601C143.714 76.9301 142.124 78.5401 140.134 78.5401C138.144 78.5401 136.564 76.9301 136.564 74.9601C136.564 72.9901 138.174 71.3901 140.134 71.3901C142.094 71.3901 143.714 73.0001 143.714 74.9601Z" fill="#231F20"/>
<path d="M144.987 103.93C144.987 103.93 150.055 111.578 161.298 111.578C161.298 111.578 173.859 112.164 179.766 104.391L179.987 104.072C160.413 111.159 144.987 103.93 144.987 103.93Z" fill="white"/>
<path d="M181.14 19.9302C181.14 19.9302 163.76 43.8802 200.25 67.8402C200.25 67.8402 200.9 28.0602 181.14 19.9302Z" fill="black"/>
<path d="M113.998 65.3299C113.998 65.3299 185.838 64.9599 197.348 29.3999C197.348 29.3999 179.508 5.46993 146.518 15.2999C113.538 25.1399 113.998 65.3299 113.998 65.3299Z" fill="black"/>
<path d="M250.15 466C250.15 466 256.57 476.25 258.03 489.98C255.22 492.79 251.95 489.98 251.95 489.98L249.14 466.79L250.15 466Z" fill="#212121"/>
<path d="M101.361 170.86C95.3311 176.78 83.6411 187.95 81.7311 198.75C79.8211 209.55 71.2411 277.86 72.8311 288.35C74.4211 298.84 82.3611 309.32 92.2111 305.19C102.061 301.06 108.481 163.87 101.351 170.86H101.361Z" fill="#62A355"/>
<path d="M95.8512 294.97C96.8712 303.42 89.5312 310.15 78.6812 310.15C70.1012 310.15 52.5112 306.12 52.5112 306.12V297.25C52.5112 297.25 66.8912 281.61 72.6512 278.5C80.3012 274.37 93.8712 278.46 95.8612 294.96L95.8512 294.97Z" fill="#62A355"/>
<path d="M31.9409 286.94C31.9409 286.94 34.2809 289.05 34.6609 289.91C35.0409 290.76 34.1209 293.2 34.1209 293.2C34.1209 293.2 35.7809 294.55 36.1709 295.74C36.5709 296.93 34.8709 299.14 35.4309 300.01C35.9809 300.88 39.3009 303.62 39.7709 304.66C40.2409 305.7 41.1909 308.92 41.1909 308.92L47.0509 305.9L41.0909 283.19L31.9409 286.94Z" fill="#FECCB2"/>
<path d="M112.931 668.39C112.931 668.39 105.351 699.67 104.011 706.21C102.681 712.75 102.991 720.1 103.851 721.72C104.711 723.34 108.371 742.26 107.501 745.94C106.631 749.62 100.991 752.58 94.7211 752.82C88.4511 753.06 70.8311 752.45 64.1511 753.2C57.4611 753.96 39.9911 756.56 30.5411 755.36C21.0911 754.16 7.41114 752.19 10.1811 746.72C12.9511 741.25 25.2111 743.14 28.2411 741.74C31.2711 740.35 45.2211 730.16 50.3811 725.58C55.5411 721 66.8811 715.18 70.4711 704.88C74.0611 694.58 81.8511 662.66 81.8511 662.66L112.931 668.38V668.39Z" fill="#FFDCC2"/>
<path d="M103.661 721.23C103.661 721.23 104.791 721.55 105.111 724.09C105.431 726.63 109.501 741.77 108.381 746.23L109.491 746.84C109.491 746.84 107.381 756.95 99.6211 758.38C91.8511 759.81 77.2911 757.77 72.0711 757.4C66.8511 757.03 52.7511 759.18 45.5511 760.09C38.3511 761 25.9311 759.57 17.3511 757.42C8.76108 755.27 0.451084 752.9 0.0110841 748.61C-0.428916 744.31 12.3211 739.64 22.1811 738.7C32.0411 737.76 41.3311 731.05 45.1511 727.18C45.1511 727.18 52.2711 726.63 53.1811 736.11C53.1811 736.11 71.4711 733.47 79.9311 731.31C88.3911 729.15 105.761 724.84 103.661 721.24V721.23Z" fill="#454545"/>
<path d="M132.501 541.89C133.051 531.16 179.591 402.79 179.611 378.35C179.651 330.55 96.951 352.97 96.951 352.97C96.951 357.81 97.151 372.4 97.161 375.91C97.191 387.73 77.951 493.91 82.211 528.66C83.971 543.01 86.151 558.01 83.961 581.21C78.201 642.31 76.461 672.39 73.041 696.51L105.911 697.92C119.081 662.89 130.041 614.89 134.361 595.59C138.261 578.16 131.961 552.62 132.511 541.88L132.501 541.89Z" fill="url(#paint4_linear_2646_3086)"/>
<path d="M198.691 665.64C198.691 665.64 198.631 699.5 198.701 706.5C198.771 713.5 200.651 721.26 201.851 722.93C203.051 724.6 205.871 745.53 205.801 749.47C205.721 753.42 200.771 756.89 194.611 757.52C188.451 758.15 170.881 758.57 164.431 759.77C157.971 760.98 141.231 764.79 131.621 764.08C122.011 763.38 108.041 762.13 109.621 756.17C111.201 750.21 122.961 747.46 125.661 745.8C128.361 744.14 140.281 736.09 145.751 732.38C153.671 727.01 164.801 716.72 166.001 705.59C168.511 682.34 167.051 668.15 166.821 662.07L198.691 665.63V665.64Z" fill="#FFDCC2"/>
<path d="M200.161 720.02C200.161 720.02 202.651 719.95 203.431 722.58C204.211 725.21 203.501 726.85 204.431 728.92C205.361 730.99 208.061 740.31 207.851 747.36C207.851 747.36 208.851 746.72 208.851 747.72C208.851 748.72 208.571 755.19 206.931 756.76C205.291 758.33 199.601 760.82 190.991 760.6C182.381 760.39 179.321 760.96 171.491 762.59C163.661 764.23 156.471 767.43 148.211 768.14C139.951 768.85 117.531 766.72 113.471 766C109.411 765.29 102.651 763.58 103.721 759.52C104.791 755.46 106.571 752.83 112.191 749.77C117.811 746.71 139.241 735.53 141.301 733.26C143.361 730.99 154.111 738.6 155.041 744.65C155.041 744.65 195.211 729.45 200.461 725.37C201.851 724.29 199.601 722.01 200.171 720.02H200.161Z" fill="#454545"/>
<path d="M213.641 566.3C207.921 545.67 203.011 534.16 217.171 485.15C231.331 436.14 245.711 383.64 237.151 362.06C228.751 340.88 207.461 314.77 207.371 314.61C207.371 314.61 141.961 285.88 152.751 401.71C153.921 414.26 161.261 527.27 162.461 557.44C163.321 579.19 167.921 655.37 166.431 700.03L198.831 700.19C199.661 686.48 199.681 678.25 202.141 658.35C207.771 612.71 219.471 587.37 213.631 566.29L213.641 566.3Z" fill="url(#paint5_linear_2646_3086)"/>
<path d="M96.8513 363.09L97.1013 368.51C97.1013 368.51 114.081 385.79 127.231 385.79C158.361 385.79 223.621 336.9 223.621 336.9L218.811 330.05L96.8413 363.09H96.8513Z" fill="white"/>
<path style="mix-blend-mode:multiply" d="M192.251 352.24C192.251 352.24 196.741 379.73 224.521 380.8C219.531 361.31 211.801 348.32 192.251 352.24Z" fill="url(#paint6_radial_2646_3086)"/>
<path d="M139.241 149.97C139.241 149.97 138.621 166.19 144.441 166.46C150.261 166.72 180.151 146 180.151 146L198.351 158.12L133.771 253.51C133.771 253.51 117.211 211.79 116.411 202.39C115.611 192.99 129.361 158.95 129.361 158.95L139.231 149.97H139.241Z" fill="white"/>
<path d="M136.821 152.02C136.821 152.02 132.881 172.15 142.631 173.51C152.961 174.96 182.321 147.44 182.321 147.44C182.321 147.44 221.991 160.52 223.561 178.27C225.131 196.02 191.841 270.19 192.151 282.43C192.461 294.67 218.441 329.34 221.191 333.32C216.291 341.28 144.101 377.4 128.861 378.18C115.081 378.88 97.2912 369.55 96.9812 366.79C96.6712 364.04 94.4112 249.36 94.4112 246.91C94.4112 244.46 83.4412 223.66 85.1012 215.7C86.7612 207.74 99.9212 173.19 101.451 170.74L136.821 152.01V152.02Z" fill="#69B75C"/>
<path d="M212.31 162.01C212.31 162.01 239.08 183.97 240.61 202.57C242.14 221.18 243.46 288.5 245.87 297.66C248.28 306.82 251.77 330.06 252.91 353.73C254.06 377.4 252 432.01 252 432.01H231.54C231.54 432.01 223.45 383.28 216.04 357.17C208.63 331.05 211.84 315.32 211.08 298.45C210.32 281.58 192.88 170.93 212.31 162V162.01Z" fill="#69B75C"/>
<path d="M68.3512 277.64C71.9312 277.56 74.0512 278.68 73.9712 281.2C73.9012 283.41 69.9612 284.5 67.9912 284.76L68.3512 277.64Z" fill="#FFDCC2"/>
<path d="M34.0713 272.97L49.6313 328.68H65.7613L68.8313 268.14L34.0713 272.97Z" fill="#707070"/>
<path d="M36.8311 286.33L43.6811 312.27L67.9911 312.97L69.5011 283.19L36.8311 286.33Z" fill="url(#paint7_linear_2646_3086)"/>
<path d="M32.3709 268.65L31.3809 275.02L71.9309 270.74L64.5509 255.41L32.3709 268.65Z" fill="url(#paint8_linear_2646_3086)"/>
<path d="M231.86 431.74C231.86 431.74 230.22 447.02 229.77 447.99C229.54 448.49 228.57 453.44 227.69 458.13C227.95 462.98 227.95 467.23 227.95 467.23L229.23 470.67L230.95 469.7L232.97 476.12C232.97 476.12 247.53 475.3 249.09 474.78C251.85 472.09 255.66 465.64 255.66 465.64C255.66 465.64 253.51 450.71 252.77 446.83C252.02 442.95 251.81 432.07 251.81 432.07L231.88 431.75L231.86 431.74Z" fill="#FFDCC2"/>
<path style="mix-blend-mode:multiply" d="M235.186 470.391C235.206 470.201 237.126 455.001 237.126 455.001C237.126 455.001 231.916 454.801 230.266 460.881C228.616 466.961 235.186 470.391 235.186 470.391Z" fill="url(#paint9_radial_2646_3086)"/>
<path d="M31.9409 286.94C33.1509 291.03 45.8309 286.89 44.8809 283.04C44.1709 280.17 30.2809 281.32 31.9409 286.94Z" fill="#FFDCC2"/>
<path d="M34.1212 293.2C34.8812 297.47 50.5012 295.89 50.0112 291.9C49.6512 288.93 33.0812 287.32 34.1212 293.2Z" fill="#FFDCC2"/>
<path d="M35.4212 300.01C36.6012 304.15 50.8112 300.58 49.9112 296.69C49.2412 293.8 33.7912 294.32 35.4212 300.01Z" fill="#FFDCC2"/>
<path d="M38.641 308.6C40.321 312.49 50.321 306.66 48.901 302.96C47.841 300.21 36.331 303.24 38.641 308.6Z" fill="#FFDCC2"/>
<path d="M238.71 428.99L238.5 433.15C238.37 435.64 240.35 437.73 242.85 437.73H248.89C251.31 437.74 253.28 435.77 253.25 433.34L253.21 428.72C253.19 426.19 251.03 424.21 248.51 424.41L242.73 424.87C240.55 425.04 238.83 426.8 238.72 428.99H238.71Z" fill="#1C1C1C"/>
<path d="M241.78 429.29L241.61 432.58C241.51 434.55 243.08 436.21 245.05 436.21H249.83C251.75 436.21 253.3 434.65 253.29 432.74L253.26 429.08C253.24 427.08 251.53 425.51 249.54 425.67L244.96 426.03C243.23 426.17 241.87 427.56 241.79 429.29H241.78Z" fill="url(#paint10_linear_2646_3086)"/>
<path d="M239.04 428.1L231.02 428.67L231.39 434.82L238.61 433.9L239.04 428.1Z" fill="#292929"/>
<path d="M205.79 486.39H216.14C217.94 500.57 223.14 573.26 223.14 573.26C223.14 573.26 215.49 573.74 209.16 573.65C205.74 573.6 202.99 570.83 203 567.41C203.08 545.68 205.79 486.39 205.79 486.39Z" fill="url(#paint11_linear_2646_3086)"/>
<path d="M214.78 486.43H277.55C279.79 494.74 283.65 546.09 284.92 563.6C285.15 566.82 282.71 569.6 279.49 569.8L221.79 573.3L214.79 486.43H214.78Z" fill="url(#paint12_linear_2646_3086)"/>
<path d="M216.14 486.39H205.79V487.66H215.35C215.35 487.66 221.92 548.4 222.5 551.44C223.08 554.48 224.31 559 233.27 558.77C236.63 542.8 224.38 486.39 224.38 486.39H216.14Z" fill="url(#paint13_linear_2646_3086)"/>
<path d="M214.78 486.43L222.53 550.71C223.1 555.42 227.16 558.93 231.91 558.81L277.31 557.66C282.82 557.52 286.97 552.61 286.19 547.15L277.54 486.42H214.77L214.78 486.43Z" fill="url(#paint14_linear_2646_3086)"/>
<path d="M246.23 558.74C246.23 558.74 249.81 565.77 254.57 565.5C259.34 565.24 260.66 558.08 260.66 558.08L246.23 558.74Z" fill="#212121"/>
<path d="M226 490.66C226 490.66 230.61 467.81 233.77 466.23L235.57 466C235.57 466 232.64 487.96 233.09 490.66H226Z" fill="#212121"/>
<path d="M166.751 689.82L166.411 699.98L198.861 700.19L199.411 690.03L166.751 689.82Z" fill="#A01515"/>
<path d="M74.4313 685.55L73.0312 696.43L105.941 697.96L109.471 688.02L74.4313 685.55Z" fill="#A01515"/>
</g>
<defs>
<linearGradient id="paint0_linear_2646_3086" x1="204.089" y1="58.6398" x2="204.089" y2="96.0701" gradientUnits="userSpaceOnUse">
<stop stop-color="#FFAE9E"/>
<stop offset="1" stop-color="#FCD7CB"/>
</linearGradient>
<linearGradient id="paint1_linear_2646_3086" x1="116.029" y1="58.4498" x2="116.029" y2="95.8801" gradientUnits="userSpaceOnUse">
<stop stop-color="#FFAE9E"/>
<stop offset="1" stop-color="#FCD7CB"/>
</linearGradient>
<linearGradient id="paint2_linear_2646_3086" x1="161.059" y1="-10.3729" x2="161.059" y2="131.14" gradientUnits="userSpaceOnUse">
<stop stop-color="#FFAE9E"/>
<stop offset="1" stop-color="#FCD7CB"/>
</linearGradient>
<linearGradient id="paint3_linear_2646_3086" x1="160.069" y1="109.629" x2="160.069" y2="184.16" gradientUnits="userSpaceOnUse">
<stop stop-color="#FFAE9E"/>
<stop offset="1" stop-color="#FCD7CB"/>
</linearGradient>
<linearGradient id="paint4_linear_2646_3086" x1="63.031" y1="546.46" x2="113.801" y2="518.68" gradientUnits="userSpaceOnUse">
<stop stop-color="#C1210D"/>
<stop offset="0.52" stop-color="#C1210D"/>
<stop offset="1" stop-color="#9D1D06"/>
</linearGradient>
<linearGradient id="paint5_linear_2646_3086" x1="145.821" y1="517.52" x2="189.241" y2="506.66" gradientUnits="userSpaceOnUse">
<stop stop-color="#C1210D"/>
<stop offset="0.52" stop-color="#C1210D"/>
<stop offset="1" stop-color="#9D1D06"/>
</linearGradient>
<radialGradient id="paint6_radial_2646_3086" cx="0" cy="0" r="1" gradientUnits="userSpaceOnUse" gradientTransform="translate(202.981 373.33) scale(20.06 20.06)">
<stop stop-color="#C2C2C2"/>
<stop offset="0.3" stop-color="#D0D0D0"/>
<stop offset="0.86" stop-color="#F4F4F4"/>
<stop offset="1" stop-color="white"/>
</radialGradient>
<linearGradient id="paint7_linear_2646_3086" x1="36.8311" y1="298.08" x2="69.5011" y2="298.08" gradientUnits="userSpaceOnUse">
<stop stop-color="#3D3D3D"/>
<stop offset="1" stop-color="#262626"/>
</linearGradient>
<linearGradient id="paint8_linear_2646_3086" x1="31.3809" y1="265.21" x2="71.9309" y2="265.21" gradientUnits="userSpaceOnUse">
<stop stop-color="#3D3D3D"/>
<stop offset="1" stop-color="#262626"/>
</linearGradient>
<radialGradient id="paint9_radial_2646_3086" cx="0" cy="0" r="1" gradientUnits="userSpaceOnUse" gradientTransform="translate(236.386 464.971) scale(5.16 5.16)">
<stop stop-color="#EBBDB5"/>
<stop offset="1" stop-color="white"/>
</radialGradient>
<linearGradient id="paint10_linear_2646_3086" x1="241.867" y1="437.188" x2="251.813" y2="426.525" gradientUnits="userSpaceOnUse">
<stop stop-color="#1C1C1C"/>
<stop offset="1" stop-color="#4F4F4F"/>
</linearGradient>
<linearGradient id="paint11_linear_2646_3086" x1="202.29" y1="493.02" x2="225.01" y2="599.89" gradientUnits="userSpaceOnUse">
<stop stop-color="#3D3D3D"/>
<stop offset="1" stop-color="#2E2E2E"/>
</linearGradient>
<linearGradient id="paint12_linear_2646_3086" x1="277.61" y1="616.23" x2="245.33" y2="516.49" gradientUnits="userSpaceOnUse">
<stop stop-color="#3D3D3D"/>
<stop offset="1" stop-color="#262626"/>
</linearGradient>
<linearGradient id="paint13_linear_2646_3086" x1="215.32" y1="488.15" x2="238.7" y2="598.12" gradientUnits="userSpaceOnUse">
<stop stop-color="#545454"/>
<stop offset="1" stop-color="#2E2E2E"/>
</linearGradient>
<linearGradient id="paint14_linear_2646_3086" x1="266.45" y1="574.94" x2="239.97" y2="484.35" gradientUnits="userSpaceOnUse">
<stop stop-color="#3D3D3D"/>
<stop offset="1" stop-color="#262626"/>
</linearGradient>
<clipPath id="clip0_2646_3086">
<rect width="286" height="768" fill="white"/>
</clipPath>
</defs>
</svg>
