<svg width="185" height="572" viewBox="0 0 185 572" fill="none" xmlns="http://www.w3.org/2000/svg">
<g clip-path="url(#clip0_203_4141)">
<path d="M33.9627 256.265L9.13793 262.156C8.84609 263.8 -0.693476 302.613 7.33216 363.545C6.18303 371.399 8.6728 382.513 8.6728 382.513C8.6728 382.513 22.9457 394.824 23.7938 392.093C23.9762 391.518 23.4564 390.513 22.59 389.308C23.5749 389.673 24.2954 389.673 24.5143 389.399C24.9156 388.897 24.414 387.883 23.0551 386.148C23.3925 386.157 23.6297 386.093 23.7482 385.947C24.1678 385.417 23.5841 384.321 22.0701 382.422C22.1157 382.376 22.1613 382.321 22.1978 382.248C23.2193 380.367 21.1946 375.317 19.9269 368.613C19.5804 366.796 18.8964 365.061 17.8932 363.508C16.8991 361.965 16.1968 361.042 16.1968 361.042C16.1968 361.042 19.2429 314.777 28.7734 275.645L33.9536 256.247L33.9627 256.265Z" fill="url(#paint0_linear_203_4141)"/>
<path d="M172.478 262.165L147.653 256.274L152.834 275.672C162.364 314.805 165.41 361.07 165.41 361.07C165.41 361.07 164.717 361.992 163.714 363.536C162.711 365.088 162.017 366.823 161.68 368.641C160.421 375.344 158.388 380.394 159.409 382.275C159.446 382.349 159.491 382.403 159.537 382.449C158.032 384.339 157.439 385.444 157.859 385.974C157.968 386.111 158.214 386.184 158.552 386.175C157.193 387.91 156.691 388.924 157.093 389.426C157.311 389.7 158.032 389.7 159.017 389.335C158.15 390.55 157.631 391.545 157.813 392.12C158.661 394.851 172.934 382.54 172.934 382.54C172.934 382.54 175.424 371.426 174.275 363.572C182.309 302.64 172.77 263.827 172.469 262.183L172.478 262.165Z" fill="url(#paint1_linear_203_4141)"/>
<path d="M100.978 559.665L101.516 567.756C106.358 571.126 122.382 573.82 127.362 569.373C123.723 566.405 118.616 566.405 107.307 560.204C102.191 560.341 100.978 559.665 100.978 559.665Z" fill="#454545"/>
<path d="M132.505 452.386C132.505 452.386 119.983 525.573 108.273 560.752C111.912 562.368 114.73 563.985 114.73 563.985C114.73 563.985 106.649 566.816 101.405 563.985C98.9794 540.532 94.538 473.007 95.3497 451.573C118.77 449.956 132.505 452.386 132.505 452.386Z" fill="url(#paint2_linear_203_4141)"/>
<path d="M79.2349 559.665L78.6968 567.756C73.854 571.126 57.8301 573.82 52.8506 569.373C56.4895 566.405 61.5967 566.405 72.9056 560.204C78.0219 560.341 79.2349 559.665 79.2349 559.665Z" fill="#454545"/>
<path d="M89.2946 449.956C49.1482 450.751 48.5189 449.591 48.5098 449.555C48.5189 449.628 65.9017 537.921 72.0486 560.752C68.4188 562.368 65.5916 563.985 65.5916 563.985C65.5916 563.985 73.672 566.816 78.916 563.985C79.2625 560.66 79.6456 556.45 80.0469 551.61C82.2813 527.172 82.0259 487.089 89.2946 449.947V449.956Z" fill="url(#paint3_linear_203_4141)"/>
<path d="M27.5059 329.462C26.6942 351.7 21.4502 402.65 46.0835 473.82C66.6765 476.651 117.156 481.5 136.536 471.39C144.206 416.395 162.382 374.339 140.576 291.042C42.0433 286.594 36.3889 285.38 36.3889 285.38C36.3889 285.38 28.3085 307.216 27.5059 329.453V329.462Z" fill="url(#paint4_linear_203_4141)"/>
<path d="M149.715 252.074C143.659 201.945 140.969 182.657 128.848 166.484C121.443 158.064 113.563 153.735 103.385 151.306C103.03 152.447 102.564 153.534 101.981 154.465C100.348 157.05 97.9406 157.963 94.9492 157.753C91.9487 157.543 88.6655 157.114 86.3125 155.05C85.2728 154.137 83.9048 152.447 83.3941 150.776C73.1158 152.776 54.8575 163.077 51.7932 166.146C32.2763 185.689 24.1868 251.772 26.5398 354.54C26.5398 354.54 42.737 366.805 82.0352 371.024C121.288 375.234 145.31 360.294 150.673 356.202C150.673 356.202 156.108 304.969 149.715 252.074Z" fill="#CFDDF1"/>
<path d="M87.2877 128.073L84.041 151.945C84.041 151.945 84.1778 157.808 94.1643 157.808C103.585 157.58 103.029 152.082 103.029 152.082L100.466 128.073H87.2877Z" fill="url(#paint5_linear_203_4141)"/>
<path d="M81.8615 151.37C52.0481 155.634 17.6017 186.676 0 269.973C11.9929 275.599 27.3054 275.845 27.3054 275.845C27.3054 275.845 18.0942 310.485 16.0786 346.878C23.3473 354.54 48.6098 358.376 62.7732 357.609C67.2147 319.197 72.1851 211.169 77.0279 191.753C47.7525 179.963 75.4045 152.584 81.8615 151.37Z" fill="#69B75C"/>
<path d="M106.258 151.945C106.258 151.945 139.71 172.749 110.991 192.521C112.204 229.726 125.538 359.526 125.538 359.526C148.867 357.919 165.347 347.645 165.347 347.645L155.524 274.466C166.423 274.868 178.945 272.037 185 263.553C182.985 253.443 162.766 170.119 106.258 151.945Z" fill="#69B75C"/>
<path d="M140.622 202.877C140.622 202.877 147.872 236.146 155.853 274.74C157.202 242.165 155.424 226.804 140.622 202.877Z" fill="#62A355"/>
<path d="M44.725 202.877C44.725 202.877 37.4746 236.146 29.4945 274.74C28.1448 242.165 29.9232 226.804 44.725 202.877Z" fill="#62A355"/>
<path d="M49.412 86.748C49.412 86.748 41.2951 80.4374 35.3033 87.9352C28.746 96.1453 42.0886 120.091 55.8598 109.424L49.4028 86.748H49.412Z" fill="#FFC2B3"/>
<path d="M50.8717 105.25C50.5343 105.25 50.2151 105.068 50.0509 104.748C45.4635 95.7983 39.6085 95.3782 39.3622 95.36C38.8515 95.3326 38.4593 94.8942 38.4867 94.3919C38.5141 93.8805 38.9153 93.4695 39.4534 93.5061C39.7453 93.5152 46.5944 93.9262 51.7108 103.899C51.9479 104.355 51.7655 104.913 51.3095 105.15C51.1727 105.223 51.0268 105.25 50.89 105.25H50.8717Z" fill="#F48073"/>
<path d="M137.002 86.748C137.002 86.748 145.118 80.4374 151.11 87.9352C157.668 96.1453 144.325 120.091 130.554 109.424L137.011 86.748H137.002Z" fill="#FFC2B3"/>
<path d="M135.542 105.25C135.396 105.25 135.259 105.214 135.123 105.15C134.667 104.913 134.484 104.355 134.721 103.899C139.838 93.917 146.687 93.5152 146.979 93.5061C147.444 93.4878 147.918 93.8805 147.945 94.3919C147.964 94.9033 147.571 95.3326 147.061 95.36C146.796 95.3782 140.95 95.8074 136.372 104.748C136.208 105.068 135.88 105.25 135.551 105.25H135.542Z" fill="#F48073"/>
<path d="M129.678 68.62C129.678 68.62 151.31 119.707 124.452 129.744C118.67 131.899 104.871 136.374 104.871 136.374C104.871 136.374 101.232 140.675 93.6808 143.36C87.242 141.205 81.7427 136.374 81.7427 136.374C81.7427 136.374 60.9398 134.547 53.58 127.05C47.4239 120.776 44.159 107.597 47.5151 69.4237C49.7496 40.9212 59.5445 24.5192 82.299 23.2681C105.053 22.0169 122.582 25.2407 129.668 68.62H129.678Z" fill="url(#paint6_linear_203_4141)"/>
<path d="M92.7872 111.369H89.2486C88.7379 111.369 88.3184 110.958 88.3184 110.438C88.3184 109.917 88.7288 109.506 89.2486 109.506H92.7872C93.1064 109.506 93.4073 109.378 93.6171 109.132C93.836 108.894 93.9272 108.584 93.8998 108.264L93.079 100.355C93.0243 99.844 93.3982 99.3874 93.9089 99.3326C94.4197 99.2869 94.8757 99.6522 94.9304 100.164L95.7512 108.072C95.8424 108.913 95.5688 109.753 95.0033 110.374C94.4379 110.995 93.6353 111.36 92.7963 111.36L92.7872 111.369Z" fill="#F48073"/>
<path d="M77.5894 92.8934C78.0652 90.8656 76.8091 88.8355 74.7841 88.3591C72.759 87.8827 70.7316 89.1404 70.2559 91.1683C69.7802 93.1962 71.0362 95.2263 73.0613 95.7026C75.0864 96.179 77.1137 94.9213 77.5894 92.8934Z" fill="#2B232A"/>
<path d="M115.334 92.4459C115.574 90.3768 114.093 88.5047 112.027 88.2646C109.961 88.0244 108.091 89.5071 107.851 91.5763C107.611 93.6455 109.092 95.5176 111.158 95.7577C113.225 95.9978 115.094 94.5151 115.334 92.4459Z" fill="#2B232A"/>
<path d="M60.8125 80.4101L84.5155 78.1269C84.5155 78.1269 82.2537 71.5698 72.0302 72.6292C61.5695 73.7159 60.8125 80.4101 60.8125 80.4101Z" fill="#2B232A"/>
<path d="M124.525 80.4101L100.822 78.1269C100.822 78.1269 103.084 71.5698 113.308 72.6292C123.768 73.7159 124.525 80.4101 124.525 80.4101Z" fill="#2B232A"/>
<path d="M92.0846 120.429C84.287 120.429 80.3654 116.529 80.1738 116.337C79.7999 115.954 79.7999 115.333 80.183 114.958C80.566 114.584 81.177 114.584 81.5601 114.967C81.7516 115.168 86.4484 119.753 96.061 118.127C96.5899 118.036 97.0915 118.392 97.1827 118.922C97.2739 119.451 96.9182 119.954 96.3893 120.045C94.8389 120.31 93.407 120.42 92.0846 120.42V120.429Z" fill="#FF6058"/>
<path d="M70.1966 15.7885C70.1966 15.7885 72.5222 -5.12487 99.6087 2.29985C114.976 6.51906 113.088 21.8343 113.088 21.8343L70.1875 15.7794L70.1966 15.7885Z" fill="#545454"/>
<path d="M85.0809 19.8708C85.0809 19.8708 78.2591 38.3641 95.4321 41.186C98.1316 45.9806 111.948 56.7843 119.628 48.9578C120.284 55.4784 120.631 69.9168 128.054 68.757C128.638 77.0767 126.367 81.853 131.775 87.2868C132.843 94.8851 134.32 96.6842 140.348 95.9444C136.828 91.7435 138.123 85.2138 138.989 85.095C142.409 84.6019 144.179 83.6247 143.896 78.3735C143.467 70.6018 144.772 10.3364 92.0394 9.58757C39.3074 8.83871 32.0478 63.6063 40.265 89.159C45.8464 93.8805 48.0535 104.182 44.3872 105.844C47.4151 106.684 54.3098 99.6614 52.121 95.7892C52.8962 94.3736 56.7267 93.0768 54.857 90.127C52.9874 87.1681 47.3695 78.6658 52.9692 73.4694C58.5689 68.273 65.19 64.556 60.8033 61.6884C56.4074 58.8208 56.5078 42.0536 68.756 37.1038C81.0042 32.1631 84.5336 24.7201 85.0809 19.8708Z" fill="#707070"/>
<path d="M126.823 94.8942L126.796 94.465L126.413 94.264C126.257 94.1819 122.591 92.2549 116.034 91.9901C110.58 91.7617 104.798 92.7481 98.8518 94.8942L98.2863 95.1042L98.5508 97.4696C93.2065 94.9125 88.838 96.2823 86.6583 97.3782L86.7039 95.4695L86.1202 95.3143C82.4813 94.3462 78.8971 93.7892 75.4589 93.643C64.6972 93.1955 58.8513 96.9399 58.605 97.0951L58.2402 97.3326L58.2585 97.7618C58.2585 97.9262 58.4318 101.771 61.8518 108.593L62.1071 109.104L62.6726 108.995C68.6827 107.862 85.5091 107.278 85.6824 107.269L86.4029 107.241L86.6127 99.1225C88.0992 98.1819 92.714 95.9262 98.7514 99.2869L99.5996 106.812L100.32 106.776C100.457 106.776 114.11 106.045 121.269 106.337C122.09 106.374 122.801 106.419 123.385 106.474L123.959 106.529L124.169 105.99C126.987 98.8942 126.814 95.0494 126.805 94.8851L126.823 94.8942ZM62.9827 107.397C60.5841 102.483 59.9913 99.2778 59.8454 98.1545C61.2954 97.3691 66.6945 94.812 75.4133 95.1773C78.5506 95.3052 81.8247 95.7983 85.1535 96.6476L84.9255 105.78C81.697 105.899 68.783 106.438 62.9827 107.397ZM122.974 104.903C122.491 104.867 121.944 104.83 121.351 104.812C115.076 104.556 103.904 105.068 100.977 105.214L99.9462 96.1362C105.509 94.191 110.899 93.3143 115.979 93.5243C120.959 93.7252 124.196 94.949 125.291 95.433C125.245 96.5654 124.935 99.8166 122.974 104.913V104.903Z" fill="#2B232A"/>
</g>
<defs>
<linearGradient id="paint0_linear_203_4141" x1="-10.005" y1="271.142" x2="42.545" y2="351.872" gradientUnits="userSpaceOnUse">
<stop stop-color="#F7B59C"/>
<stop offset="1" stop-color="#F79480"/>
</linearGradient>
<linearGradient id="paint1_linear_203_4141" x1="125.975" y1="266.795" x2="180.152" y2="350.043" gradientUnits="userSpaceOnUse">
<stop stop-color="#F7B59C"/>
<stop offset="1" stop-color="#F79480"/>
</linearGradient>
<linearGradient id="paint2_linear_203_4141" x1="114.547" y1="474.632" x2="119.047" y2="567.582" gradientUnits="userSpaceOnUse">
<stop stop-color="#F7B59C"/>
<stop offset="1" stop-color="#F79480"/>
</linearGradient>
<linearGradient id="paint3_linear_203_4141" x1="70.0331" y1="473.098" x2="74.6329" y2="568.139" gradientUnits="userSpaceOnUse">
<stop stop-color="#F7B59C"/>
<stop offset="1" stop-color="#F79480"/>
</linearGradient>
<linearGradient id="paint4_linear_203_4141" x1="26.4936" y1="381.444" x2="150.946" y2="381.444" gradientUnits="userSpaceOnUse">
<stop stop-color="#C1210D"/>
<stop offset="0.52" stop-color="#C1210D"/>
<stop offset="1" stop-color="#9D1D06"/>
</linearGradient>
<linearGradient id="paint5_linear_203_4141" x1="93.0151" y1="131.762" x2="94.1765" y2="176.639" gradientUnits="userSpaceOnUse">
<stop stop-color="#F7B59C"/>
<stop offset="1" stop-color="#F79480"/>
</linearGradient>
<linearGradient id="paint6_linear_203_4141" x1="92.7141" y1="88.4193" x2="87.6753" y2="150.318" gradientUnits="userSpaceOnUse">
<stop stop-color="#F7C3AF"/>
<stop offset="1" stop-color="#F79480"/>
</linearGradient>
<clipPath id="clip0_203_4141">
<rect width="185" height="571" fill="white" transform="translate(0 0.70166)"/>
</clipPath>
</defs>
</svg>
