<svg width="219" height="706" viewBox="0 0 219 706" fill="none" xmlns="http://www.w3.org/2000/svg">
<path d="M196.097 96.0089C186.746 79.4656 183.617 62.5215 183.784 55.7177C183.812 55.1678 183.831 54.618 183.85 54.0681C183.896 53.1267 183.952 52.6048 183.952 52.6048H183.877C183.877 24.0664 161.329 0.924316 133.528 0.924316C105.727 0.924316 83.1788 24.0664 83.1788 52.6048C83.1788 54.0494 83.2533 55.4847 83.3651 56.9014C83.4209 64.3482 79.8911 80.3603 71.0338 96.0089C60.0252 115.469 58.8517 136.03 80.7107 144.306C80.7107 144.306 80.8224 144.343 80.9808 144.399C83.0391 145.164 85.2744 145.825 87.7425 146.366C88.3199 146.487 88.8787 146.58 89.4468 146.692C104.19 150.169 140.681 155.36 175.272 147.121C176.632 146.906 178.01 146.673 179.407 146.366C183.281 145.518 186.606 144.381 189.484 143.001C189.503 143.001 189.531 142.983 189.549 142.983H189.54C208.139 133.97 206.556 114.509 196.106 96.0182L196.097 96.0089Z" fill="black"/>
<mask id="mask0_2638_1805" style="mask-type:luminance" maskUnits="userSpaceOnUse" x="164" y="58" width="16" height="27">
<path d="M166.522 61.9715C162.043 67.2653 165.023 80.0433 165.535 81.6277C166.29 83.9485 168.897 86.8004 173.256 82.5598C177.95 77.9742 182.728 61.6825 175.985 58.7746C175.044 58.3645 174.15 58.1968 173.303 58.1968C169.354 58.1968 166.606 61.8596 166.513 61.9715" fill="white"/>
</mask>
<g mask="url(#mask0_2638_1805)">
<path d="M182.737 58.1968H162.052V86.8004H182.737V58.1968Z" fill="url(#paint0_linear_2638_1805)"/>
</g>
<mask id="mask1_2638_1805" style="mask-type:luminance" maskUnits="userSpaceOnUse" x="83" y="58" width="16" height="27">
<path d="M86.7788 58.5886C80.0357 61.4965 84.8043 77.7881 89.5076 82.3737C93.8664 86.6144 96.4835 83.7717 97.2379 81.451C97.7502 79.8666 100.731 67.0886 96.2507 61.7947C96.1576 61.6829 93.41 58.02 89.4611 58.02C88.6135 58.02 87.7194 58.1878 86.7788 58.5979" fill="white"/>
</mask>
<g mask="url(#mask1_2638_1805)">
<path d="M100.722 58.02H80.0361V86.6237H100.722V58.02Z" fill="url(#paint1_linear_2638_1805)"/>
</g>
<mask id="mask2_2638_1805" style="mask-type:luminance" maskUnits="userSpaceOnUse" x="95" y="11" width="75" height="109">
<path d="M132.314 11.3443C132.314 11.3443 132.23 11.3443 132.184 11.3443C100.117 11.54 97.6021 46.8542 97.6021 46.8542C97.6021 46.8542 92.9267 84.079 96.261 93.1569C98.6266 99.5972 106.301 106.867 113.724 111.937C116.77 114.016 119.778 115.74 122.358 116.867C126.428 118.657 129.529 119.337 131.904 119.458C131.988 119.458 132.081 119.458 132.165 119.458C132.193 119.458 132.221 119.458 132.239 119.458H132.305C132.305 119.458 132.351 119.458 132.37 119.458C132.37 119.458 132.416 119.458 132.435 119.458C132.528 119.458 132.621 119.458 132.705 119.458C135.08 119.337 138.172 118.648 142.252 116.867C144.328 115.954 146.685 114.659 149.106 113.111C157.051 108.032 165.796 100.11 168.358 93.1476C171.692 84.0697 167.007 46.8449 167.007 46.8449C167.007 46.8449 164.492 11.5307 132.426 11.335C132.379 11.335 132.333 11.335 132.295 11.335" fill="white"/>
</mask>
<g mask="url(#mask2_2638_1805)">
<path d="M171.71 11.3447H92.9258V119.487H171.71V11.3447Z" fill="url(#paint2_linear_2638_1805)"/>
</g>
<mask id="mask3_2638_1805" style="mask-type:luminance" maskUnits="userSpaceOnUse" x="94" y="111" width="74" height="58">
<path d="M112.523 135.601C110.846 140.793 104.55 143.934 94.417 148.351C94.4449 150.299 95.4601 166.619 122.907 168.912H133.162C166.178 168.912 167.845 151.064 167.957 148.128C157.88 143.729 152.022 140.774 150.345 135.601C148.939 131.258 148.976 119.664 149.116 113.13C146.685 114.678 144.338 115.973 142.261 116.886C138.182 118.676 135.09 119.356 132.715 119.477C132.631 119.477 132.538 119.477 132.444 119.477C132.426 119.477 132.398 119.477 132.379 119.477H132.314C132.314 119.477 132.267 119.477 132.249 119.477C132.249 119.477 132.202 119.477 132.174 119.477C132.091 119.477 131.997 119.477 131.914 119.477C129.529 119.356 126.437 118.667 122.367 116.886C119.787 115.759 116.779 114.034 113.733 111.956C113.892 118.173 114.022 130.997 112.532 135.611" fill="white"/>
</mask>
<g mask="url(#mask3_2638_1805)">
<path d="M168.366 111.947H94.4248V168.902H168.366V111.947Z" fill="url(#paint3_linear_2638_1805)"/>
</g>
<g style="mix-blend-mode:multiply" opacity="0.2">
<mask id="mask4_2638_1805" style="mask-type:luminance" maskUnits="userSpaceOnUse" x="113" y="111" width="37" height="22">
<path d="M149.124 111.965H113.211V132.162H149.124V111.965Z" fill="white"/>
</mask>
<g mask="url(#mask4_2638_1805)">
<mask id="mask5_2638_1805" style="mask-type:luminance" maskUnits="userSpaceOnUse" x="113" y="111" width="37" height="22">
<path d="M149.124 111.965H113.211V132.162H149.124V111.965Z" fill="white"/>
</mask>
<g mask="url(#mask5_2638_1805)">
<path d="M149.124 113.14C146.703 114.687 144.346 115.982 142.269 116.896C138.199 118.676 135.098 119.366 132.723 119.487C132.639 119.487 132.546 119.487 132.453 119.496H132.378H132.313H132.239H132.164C132.071 119.496 131.987 119.496 131.894 119.487C129.519 119.366 126.418 118.676 122.348 116.896C119.768 115.768 116.759 114.044 113.714 111.965C113.844 116.989 113.947 126.337 113.192 132.162C125.524 129.935 137.901 125.834 149.05 119.608C149.05 117.231 149.068 114.976 149.106 113.13" fill="url(#paint4_linear_2638_1805)"/>
</g>
</g>
</g>
<path d="M117.597 92.7002C117.597 92.7002 122.319 102.02 132.788 102.02C132.788 102.02 144.495 102.729 149.981 93.2594L150.186 92.868C131.959 101.517 117.588 92.7095 117.588 92.7095" fill="white"/>
<path d="M135.862 87.6954C135.648 87.6954 135.433 87.6861 135.219 87.6581C134.781 87.6115 134.465 87.2107 134.511 86.7727C134.558 86.3346 134.94 86.0178 135.387 86.0737C136.672 86.2135 137.743 85.7941 138.414 84.8807C139.634 83.231 139.448 80.2206 137.892 76.6323C133.133 65.6252 137.52 59.8653 137.706 59.623C137.976 59.2781 138.479 59.2222 138.824 59.4925C139.168 59.7628 139.224 60.2661 138.954 60.6109C138.786 60.8253 134.996 65.9234 139.345 75.9986C141.785 81.6466 140.602 84.5731 139.68 85.822C138.796 87.0243 137.417 87.6861 135.843 87.6861" fill="#E1A187"/>
<path d="M155.029 66.9206C155.029 68.7566 153.539 70.2572 151.695 70.2572C149.851 70.2572 148.37 68.7566 148.37 66.9206C148.37 65.0845 149.86 63.5933 151.695 63.5933C153.53 63.5933 155.029 65.0938 155.029 66.9206Z" fill="#231F20"/>
<path d="M116.163 67.1256C116.163 68.9617 114.682 70.4623 112.829 70.4623C110.975 70.4623 109.504 68.9617 109.504 67.1256C109.504 65.2896 111.003 63.7983 112.829 63.7983C114.654 63.7983 116.163 65.2989 116.163 67.1256Z" fill="#231F20"/>
<path d="M88.4739 53.1549C88.4739 53.1549 155.383 52.8101 166.103 19.6675C166.103 19.6675 149.487 -2.63571 118.762 6.52604C88.0455 15.6971 88.4739 53.1549 88.4739 53.1549Z" fill="black"/>
<path d="M150.66 15.4453C150.66 15.4453 134.473 37.7672 168.459 60.0984C168.459 60.0984 169.064 23.0226 150.66 15.4453Z" fill="black"/>
<path d="M110.259 86.7729C99.3154 86.7729 90.4209 77.8628 90.4209 66.9209C90.4209 55.9789 99.3247 47.0688 110.259 47.0688C121.193 47.0688 130.097 55.9789 130.097 66.9209C130.097 77.8628 121.193 86.7729 110.259 86.7729ZM110.259 48.9608C100.359 48.9608 92.3116 57.0135 92.3116 66.9209C92.3116 76.8282 100.359 84.8809 110.259 84.8809C120.159 84.8809 128.206 76.8282 128.206 66.9209C128.206 57.0135 120.159 48.9608 110.259 48.9608Z" fill="#FFFFF9"/>
<path opacity="0.15" d="M115.651 85.0415C125.654 82.0613 131.349 71.5307 128.371 61.5209C125.392 51.5111 114.869 45.8125 104.866 48.7927C94.8637 51.773 89.1692 62.3035 92.1473 72.3134C95.1255 82.3232 105.649 88.0218 115.651 85.0415Z" fill="#FFFFF9"/>
<path opacity="0.15" d="M174.718 70.0797C176.464 59.7828 169.538 50.0192 159.248 48.2721C148.959 46.5249 139.202 53.4559 137.456 63.7528C135.71 74.0497 142.636 83.8133 152.926 85.5604C163.216 87.3076 172.972 80.3766 174.718 70.0797Z" fill="#FFFFF9"/>
<path d="M156.081 86.7729C145.138 86.7729 136.243 77.8628 136.243 66.9209C136.243 55.9789 145.147 47.0688 156.081 47.0688C167.015 47.0688 175.919 55.9789 175.919 66.9209C175.919 77.8628 167.015 86.7729 156.081 86.7729ZM156.081 48.9608C146.19 48.9608 138.134 57.0135 138.134 66.9209C138.134 76.8282 146.181 84.8809 156.081 84.8809C165.982 84.8809 174.028 76.8282 174.028 66.9209C174.028 57.0135 165.982 48.9608 156.081 48.9608Z" fill="#FFFFF9"/>
<path d="M128.952 72.0094L127.918 70.4156C128.132 70.2758 133.115 67.0883 138.2 70.4156L137.166 72.0001C133.143 69.3625 129.129 71.8882 128.961 72.0001L128.952 72.0094Z" fill="#FFFFF9"/>
<path d="M101.877 165.136L163.254 164.018L133.05 192.435L101.877 165.136Z" fill="white"/>
<path d="M56.4072 637.941C56.4072 637.941 59.1081 647.792 58.5307 648.957C57.9532 650.122 44.4392 694.169 44.4392 694.169C44.4392 694.169 39.801 694.552 39.2236 695.912C38.6461 697.273 32.08 706.537 17.9885 704.804C3.89706 703.07 0.423085 702.297 0.227499 701.327C0.0319134 700.358 -1.31856 697.459 5.82498 688.959C12.9685 680.459 11.2269 682.193 11.2269 682.193L28.0193 636.599L56.3979 637.95L56.4072 637.941Z" fill="#342825"/>
<path d="M26.2959 633.299C26.2959 633.299 18.7705 649.144 18.3793 653.589C17.9881 658.035 14.4583 672.677 13.7318 675.371C13.0054 678.064 10.7701 680.935 11.4314 684.887C11.9995 688.298 30.5429 688.363 33.2438 687.207C35.9448 686.052 39.2325 681.028 39.6143 677.552C39.9962 674.075 37.8727 664.028 42.7064 659.778C47.5402 655.528 51.0049 648.575 50.8186 643.16C50.6323 637.745 26.2959 633.309 26.2959 633.309V633.299Z" fill="url(#paint5_linear_2638_1805)"/>
<path d="M57.4505 639.469L57.2642 631.305C57.2642 631.305 74.9321 572.149 80.6413 540.545C84.2364 520.655 78.0242 523.358 88.1109 503.18C98.1975 483.002 130.804 402.764 130.804 402.764L135.098 390.322L134.511 335.743L71.5606 337.886C71.5606 337.886 68.515 348.474 63.2156 370.591C57.7206 393.491 51.0986 445.423 46.5163 470.158C46.5163 470.158 43.8153 484.642 40.8071 496.814C38.5159 506.088 35.4797 522.324 33.9616 538.317C32.5552 553.099 26.9391 594.695 27.1067 602.123C27.2744 609.551 24.8994 636.254 24.8994 636.254C24.8994 636.254 31.4003 635.685 34.4179 636.953C37.4355 638.22 42.7536 639.795 57.4505 639.469Z" fill="url(#paint6_linear_2638_1805)"/>
<path d="M161.697 655.659C161.697 655.659 161.855 665.137 161.213 667.877C160.57 670.618 159.769 682.827 159.443 688.289C159.126 693.75 157.515 702.595 147.233 703.881C136.951 705.168 126.995 705.009 125.709 699.864C124.424 694.72 126.026 685.558 126.026 685.558L132.769 660.487L161.678 655.668L161.697 655.659Z" fill="#342825"/>
<path d="M158.932 656.945C158.932 656.945 159.09 669.164 158.773 670.608C158.457 672.053 155.886 685.39 150.419 687.161C144.952 688.932 130.18 687.963 128.737 686.844C127.293 685.726 130.022 674.15 130.339 673.181C130.655 672.211 132.425 662.733 132.425 662.733L135.48 652.126L158.932 656.945Z" fill="url(#paint7_linear_2638_1805)"/>
<path d="M191.873 320.131C191.873 320.131 201.131 353.516 201.131 362.165C201.131 370.815 193.745 442.058 191.929 451.611C190.113 461.164 185.745 503.217 185.745 503.217C185.745 503.217 173.19 602.813 169.288 626.188C168.151 632.982 166.317 657.746 166.317 657.746C166.317 657.746 143.358 659.871 134.715 653.505C134.715 653.505 134.976 571.665 138.161 552.996C141.347 534.328 139.689 504.298 139.689 504.298L133.803 382.651L134.036 332.322L191.873 320.141V320.131Z" fill="url(#paint8_linear_2638_1805)"/>
<path d="M95.1981 148.006L53.1006 160.169C53.1006 160.169 67.369 194.272 71.4484 220.657C79.7096 274.015 79.8679 287.819 69.2131 347.477C128.606 349.509 191.361 324.344 191.585 322.126C192.292 315.267 176.59 272.953 208.479 169.732C201.913 161.493 167.835 148.044 167.835 148.044L133.645 185.846L95.1888 147.997L95.1981 148.006Z" fill="#118EB8"/>
<path d="M204.782 177.104C215.447 190.637 214.869 236.874 210.473 268.694C192.898 276.001 182.029 263.782 182.029 263.782C182.029 263.782 186.081 226.865 185.904 217.982C188.791 197.282 195.981 179.574 204.782 177.104Z" fill="url(#paint9_linear_2638_1805)"/>
<path d="M71.5885 209.706C71.5885 209.706 50.6795 187.598 44.8305 197.674C42.9771 200.87 34.1758 216.864 40.2017 269.15C60.8965 283.009 68.1332 260.035 68.1332 260.035L71.5885 209.697V209.706Z" fill="url(#paint10_linear_2638_1805)"/>
<path d="M71.29 232.941C73.1248 221.804 72.1655 229.95 72.8361 216.417C73.4508 204.142 59.8901 166.824 53.1005 160.179C53.1005 160.179 36.8483 187.207 30.04 222.093C30.04 222.093 37.8728 226.119 46.2178 230.034C53.9387 233.659 71.29 232.941 71.29 232.941Z" fill="#197EB8"/>
<path d="M178.667 234.283L183.482 249.27L184.861 234.591L178.667 234.283Z" fill="url(#paint11_linear_2638_1805)"/>
<path d="M178.668 234.283C179.441 194.179 195.125 173.907 208.508 169.76C208.508 169.76 214.087 190.041 218.995 236.101C218.995 236.101 209.719 236.38 200.378 238.692C188.298 241.674 178.658 234.293 178.658 234.293L178.668 234.283Z" fill="#197EB8"/>
<path style="mix-blend-mode:multiply" d="M94.1279 243.986C94.1279 243.986 141.823 234.647 174.476 240.612C172.399 260.324 127.042 282.889 94.1279 243.986Z" fill="url(#paint12_radial_2638_1805)"/>
<path fill-rule="evenodd" clip-rule="evenodd" d="M165.293 278.313C164.183 278.437 72.9687 288.606 44.1982 271.247H44.2076C44.2076 271.247 57.0603 245.868 68.5161 247.648C90.2826 251.042 163.465 263.901 164.208 264.032C164.503 263.951 181.577 259.294 186.277 260.929C186.277 260.929 188.717 263.343 188.969 265.049C189.22 266.755 190.198 276.727 189.835 279.132C189.472 281.536 184.824 284.006 184.824 284.006L184.675 278.2L165.293 278.321L165.293 278.313Z" fill="url(#paint13_linear_2638_1805)"/>
<path d="M132.601 127.12C132.601 127.12 122.748 129.31 119.702 131.537C116.656 133.765 109.438 137.232 111.972 138.155C114.505 139.077 125.439 135.937 125.439 135.937L132.601 127.12Z" fill="url(#paint14_linear_2638_1805)"/>
<path style="mix-blend-mode:multiply" d="M132.602 127.12C132.602 127.12 122.748 129.31 119.703 131.537C116.657 133.765 109.16 137.027 111.972 138.155C114.347 139.105 125.44 135.937 125.44 135.937L132.602 127.12Z" fill="url(#paint15_linear_2638_1805)"/>
<path fill-rule="evenodd" clip-rule="evenodd" d="M123.978 132.525C124.984 131.193 132.686 126.999 132.686 126.999L146.2 128.443C147.858 128.62 149.134 129.972 149.218 131.631C149.488 137.13 149.991 148.687 149.609 149.954C149.106 151.632 154.033 166.339 154.033 166.339L153.952 166.373C156.238 170.419 158.98 175.336 162.006 180.763C176.456 206.682 197.387 244.224 206.115 253.968C218.884 268.218 204.252 295.2 187.395 283.652C175.798 275.713 162.037 236.618 150.428 203.635C146.187 191.587 142.234 180.355 138.778 171.754V171.745L138.855 171.696L127.322 145.313C127.322 145.313 124.155 149.209 122.479 148.873C120.802 148.537 122.311 141.538 122.311 141.538C120.97 143.877 117.952 143.421 116.276 143.085C114.975 142.825 119.727 137.41 122.39 134.376C123.159 133.501 123.753 132.824 123.978 132.525Z" fill="url(#paint16_linear_2638_1805)"/>
<path style="mix-blend-mode:multiply" d="M127.898 143.98C128.057 144.027 132.052 151.063 132.052 151.063C132.052 151.063 143.899 139.367 136.989 134.884C130.981 130.988 127.898 143.98 127.898 143.98Z" fill="url(#paint17_radial_2638_1805)"/>
<defs>
<linearGradient id="paint0_linear_2638_1805" x1="172.395" y1="59.9051" x2="172.395" y2="94.8258" gradientUnits="userSpaceOnUse">
<stop stop-color="#F3A391"/>
<stop offset="1" stop-color="#FED08E"/>
</linearGradient>
<linearGradient id="paint1_linear_2638_1805" x1="90.3789" y1="59.7283" x2="90.3789" y2="94.6491" gradientUnits="userSpaceOnUse">
<stop stop-color="#F3A391"/>
<stop offset="1" stop-color="#FED08E"/>
</linearGradient>
<linearGradient id="paint2_linear_2638_1805" x1="132.318" y1="17.8033" x2="132.318" y2="149.829" gradientUnits="userSpaceOnUse">
<stop stop-color="#F3A391"/>
<stop offset="1" stop-color="#FED08E"/>
</linearGradient>
<linearGradient id="paint3_linear_2638_1805" x1="131.395" y1="115.348" x2="131.395" y2="184.883" gradientUnits="userSpaceOnUse">
<stop stop-color="#F3A391"/>
<stop offset="1" stop-color="#FED08E"/>
</linearGradient>
<linearGradient id="paint4_linear_2638_1805" x1="131.158" y1="113.172" x2="131.158" y2="137.829" gradientUnits="userSpaceOnUse">
<stop stop-color="#F3A391"/>
<stop offset="1" stop-color="#FED08E"/>
</linearGradient>
<linearGradient id="paint5_linear_2638_1805" x1="31.0682" y1="636.559" x2="31.0682" y2="703.196" gradientUnits="userSpaceOnUse">
<stop stop-color="#F3A391"/>
<stop offset="1" stop-color="#FED08E"/>
</linearGradient>
<linearGradient id="paint6_linear_2638_1805" x1="41.9806" y1="570.984" x2="115.7" y2="322.732" gradientUnits="userSpaceOnUse">
<stop stop-color="#C1210D"/>
<stop offset="0.52" stop-color="#C1210D"/>
<stop offset="1" stop-color="#9D1D06"/>
</linearGradient>
<linearGradient id="paint7_linear_2638_1805" x1="143.645" y1="654.277" x2="143.645" y2="698.24" gradientUnits="userSpaceOnUse">
<stop stop-color="#F3A391"/>
<stop offset="1" stop-color="#FED08E"/>
</linearGradient>
<linearGradient id="paint8_linear_2638_1805" x1="83.025" y1="586.847" x2="262.085" y2="342.369" gradientUnits="userSpaceOnUse">
<stop stop-color="#C1210D"/>
<stop offset="0.52" stop-color="#C1210D"/>
<stop offset="1" stop-color="#9D1D06"/>
</linearGradient>
<linearGradient id="paint9_linear_2638_1805" x1="197.736" y1="182.713" x2="197.736" y2="297.374" gradientUnits="userSpaceOnUse">
<stop stop-color="#F3A391"/>
<stop offset="1" stop-color="#FED08E"/>
</linearGradient>
<linearGradient id="paint10_linear_2638_1805" x1="54.8553" y1="199.734" x2="54.8553" y2="295.635" gradientUnits="userSpaceOnUse">
<stop stop-color="#F3A391"/>
<stop offset="1" stop-color="#FED08E"/>
</linearGradient>
<linearGradient id="paint11_linear_2638_1805" x1="179.729" y1="243.641" x2="190.897" y2="228.205" gradientUnits="userSpaceOnUse">
<stop stop-color="#69B75C"/>
<stop offset="1" stop-color="#396834"/>
</linearGradient>
<radialGradient id="paint12_radial_2638_1805" cx="0" cy="0" r="1" gradientUnits="userSpaceOnUse" gradientTransform="translate(134.195 225.141) scale(40.1975 40.2259)">
<stop stop-color="#DBDBDB"/>
<stop offset="0.17" stop-color="#E3E3E3"/>
<stop offset="0.67" stop-color="#F7F7F7"/>
<stop offset="1" stop-color="white"/>
</radialGradient>
<linearGradient id="paint13_linear_2638_1805" x1="117.056" y1="249.735" x2="117.056" y2="294.232" gradientUnits="userSpaceOnUse">
<stop stop-color="#F3A391"/>
<stop offset="1" stop-color="#FED08E"/>
</linearGradient>
<linearGradient id="paint14_linear_2638_1805" x1="122.022" y1="127.789" x2="122.022" y2="141.468" gradientUnits="userSpaceOnUse">
<stop stop-color="#F3A391"/>
<stop offset="1" stop-color="#FED08E"/>
</linearGradient>
<linearGradient id="paint15_linear_2638_1805" x1="126.25" y1="139.003" x2="121.85" y2="132.193" gradientUnits="userSpaceOnUse">
<stop stop-color="#EBBDB5"/>
<stop offset="1" stop-color="white"/>
</linearGradient>
<linearGradient id="paint16_linear_2638_1805" x1="135.044" y1="129.721" x2="184.206" y2="284.396" gradientUnits="userSpaceOnUse">
<stop stop-color="#F3A391"/>
<stop offset="1" stop-color="#FED08E"/>
</linearGradient>
<radialGradient id="paint17_radial_2638_1805" cx="0" cy="0" r="1" gradientUnits="userSpaceOnUse" gradientTransform="translate(137.936 135.584) rotate(-0.570403) scale(9.68987 11.1782)">
<stop stop-color="#EBBDB5"/>
<stop offset="1" stop-color="white"/>
</radialGradient>
</defs>
</svg>
