<svg width="166" height="399" viewBox="0 0 166 399" fill="none" xmlns="http://www.w3.org/2000/svg">
<path d="M141.331 35.28C130.211 20.6 119.251 18.95 119.251 18.95C122.701 14.05 129.941 8.86 129.941 8.86C107.021 3.44 92.2907 7.92 92.2907 7.92C93.4307 3.72 96.2907 0 96.2907 0C66.9907 3.45 51.5407 25.23 51.5407 25.23L49.6307 21.53L39.2607 26.77C41.8307 51.72 51.9607 68.88 65.8107 74.23C84.6907 81.52 115.641 56.67 115.641 56.67C120.191 36.96 141.331 35.27 141.331 35.27V35.28Z" fill="black"/>
<path d="M107.27 208.09H59.9204C52.8004 208.09 46.8604 202.99 46.2704 196.36C43.1004 161.01 41.2704 127.78 45.4204 104.14C46.3504 98.84 50.7404 94.62 56.4004 93.65C74.8204 90.51 92.9304 90.21 110.66 93.4C116.4 94.44 120.72 98.89 121.48 104.3C124.94 129.18 123.63 161.6 120.93 196.2C120.41 202.89 114.44 208.07 107.27 208.07V208.09Z" fill="#22365B"/>
<path d="M131.301 388.39L130.731 373.53H118.021C118.021 373.53 117.871 385.3 122.921 390.71L131.301 388.38V388.39Z" fill="#B5D6EA"/>
<path d="M128.951 384.52C134.181 384.4 132.911 388.9 135.761 391.23C139.891 394.6 140.161 394.88 139.811 397.53H119.811C119.911 395.49 120.141 392.23 120.431 390.82C120.571 390.12 120.631 389.55 121.331 389.29C124.671 388.08 123.901 384.64 128.951 384.52Z" fill="black"/>
<path d="M139.641 396.95C140.661 396.95 140.761 398.6 139.641 398.6H119.741C118.581 398.6 119.081 394.95 119.441 394.18C121.301 390.21 120.451 396.95 127.211 396.95H139.631H139.641Z" fill="#B5D6EA"/>
<path d="M35.9404 388.39L36.5104 373.53H49.2204C49.2204 373.53 49.3704 385.3 44.3204 390.71L35.9404 388.38V388.39Z" fill="#B5D6EA"/>
<path d="M38.3012 384.52C33.0712 384.4 34.3412 388.9 31.4912 391.23C27.3612 394.6 27.0912 394.88 27.4412 397.53H47.4412C47.3412 395.49 47.1112 392.23 46.8212 390.82C46.6812 390.12 46.6212 389.55 45.9212 389.29C42.5812 388.08 43.3512 384.64 38.3012 384.52Z" fill="black"/>
<path d="M27.6008 396.95C26.5808 396.95 26.4808 398.6 27.6008 398.6H47.5008C48.6608 398.6 48.1608 394.95 47.8008 394.18C45.9408 390.21 46.7908 396.95 40.0308 396.95H27.6108H27.6008Z" fill="#B5D6EA"/>
<path d="M51.5705 383.24C63.0505 365.95 77.1505 322.58 86.7905 214.17H32.4905C32.4905 214.17 29.3205 309.34 34.4305 383.24H51.5705Z" fill="#265173"/>
<path d="M132.5 383.24C137.61 309.33 134.44 214.18 134.44 214.18H80.4805C90.1205 322.58 104.11 365.96 115.49 383.24H132.49H132.5Z" fill="#265173"/>
<path d="M137.601 217.67C137.601 217.67 123.701 133.61 109.681 100.54C88.7707 97.07 74.8307 97.28 56.4207 100.54C42.4007 133.61 28.9707 217.67 28.9707 217.67C50.0007 227.88 122.011 226.34 137.601 217.67Z" fill="#398DA5"/>
<path d="M55.791 116.89C55.791 116.89 55.701 148.19 37.251 167.46L46.521 130.2L55.791 116.89Z" fill="#347F91"/>
<path d="M59.1602 100.08C59.1602 100.08 65.4201 96.31 71.4301 98.51C71.4301 98.51 80.4802 167.08 30.9102 197.64L31.5201 194.55C31.5201 194.55 76.5102 152.82 59.1602 100.08Z" fill="#22365B"/>
<path d="M6.20053 187.7C19.4805 194.36 34.9505 173.25 45.2905 149.62L20.2205 137.28C4.27052 157.81 -7.87947 180.64 6.20053 187.7Z" fill="#FECCB2"/>
<path d="M56.421 100.54C52.621 101.6 34.8209 118.48 20.2109 137.28L45.2809 149.62C53.6909 130.41 58.721 109.54 56.421 100.54Z" fill="#398DA5"/>
<path d="M13.6104 162.02C13.6104 162.02 23.9804 149.33 35.5304 144.82L43.7604 148.87L13.6104 162.02Z" fill="#EAA28C"/>
<path d="M6.20055 187.7C1.91055 185.22 -9.91946 162.77 59.1605 139.82C59.1605 139.82 30.1005 201.53 6.20055 187.7Z" fill="#FECCB2"/>
<path d="M55.1806 141.17C55.1806 141.17 66.7006 135.79 69.9706 136.41C73.2406 137.03 70.4406 149.91 67.1706 148.8C63.9006 147.69 53.8506 145.02 53.8506 145.02L55.1806 141.17Z" fill="#FECCB2"/>
<path d="M110.131 116.89C110.131 116.89 110.221 148.19 128.671 167.46L119.401 130.2L110.131 116.89Z" fill="#347F91"/>
<path d="M106.76 100.08C106.76 100.08 100.5 96.31 94.4902 98.51C94.4902 98.51 85.4403 167.08 135.01 197.64L134.4 194.55C134.4 194.55 89.4102 152.82 106.76 100.08Z" fill="#22365B"/>
<path d="M159.721 187.7C146.441 194.36 130.971 173.25 120.631 149.62L145.701 137.28C161.651 157.81 173.801 180.64 159.721 187.7Z" fill="#FECCB2"/>
<path d="M109.49 100.54C113.29 101.6 131.09 118.48 145.7 137.28L120.63 149.62C112.22 130.41 107.19 109.54 109.49 100.54Z" fill="#398DA5"/>
<path d="M152.31 162.02C152.31 162.02 141.94 149.33 130.39 144.82L122.16 148.87L152.31 162.02Z" fill="#EAA28C"/>
<path d="M159.721 187.7C164.011 185.22 172.931 158.1 103.851 135.15C103.851 135.15 135.821 201.53 159.721 187.7Z" fill="#FECCB2"/>
<path d="M109.46 137.89C109.46 137.89 98.5603 129.53 95.2903 130.15C92.0203 130.77 94.8203 143.65 98.0903 142.54C101.36 141.43 110.79 141.74 110.79 141.74L109.46 137.89Z" fill="#FECCB2"/>
<path d="M91.291 98.81C91.291 106.71 76.2109 106.71 76.2109 98.81C76.2109 98.81 77.4009 90.02 77.4009 85.56C77.4009 82.35 77.401 79.07 77.201 75.99H90.291C90.091 79.07 90.0909 82.35 90.0909 85.56C90.0909 89.02 91.2809 98.81 91.2809 98.81H91.291Z" fill="#FECCB2"/>
<path d="M90.3002 75.98C90.1002 79.06 90.2602 86.02 90.3002 89.24C90.3002 89.24 87.9102 93.46 83.7502 93.46C79.3802 93.46 77.2002 89.19 77.2002 89.19C77.2402 85.98 77.4002 79.06 77.2002 75.99H90.2902L90.3002 75.98Z" fill="#EAA28C"/>
<path d="M129.801 55.54C129.801 35.72 110.281 18.6 86.2107 18.6C62.1407 18.6 43.9707 32.99 43.9707 52.81C43.9707 72.63 53.5407 88.58 83.7207 88.58C113.901 88.58 129.801 75.36 129.801 55.54Z" fill="url(#paint0_linear_361_2050)"/>
<path d="M50.7106 75.68C44.2406 77.49 33.1906 71.71 35.0806 65.28C37.2906 57.76 51.0806 67.62 50.7106 75.68Z" fill="#FECCB2"/>
<path d="M122.25 74.72C129.13 76.07 140.6 69.42 138.4 63.06C135.84 55.63 121.6 66.6 122.25 74.72Z" fill="#FECCB2"/>
<path d="M119.4 72.95C119.4 72.95 133.4 50.44 122.07 31.22C122.07 31.22 132.73 43.58 132.61 52.41C132.46 62.37 119.4 72.95 119.4 72.95Z" fill="black"/>
<path d="M50.9102 72.95C50.9102 72.95 39.4302 51.84 48.7202 33.81C48.7202 33.81 39.9702 45.4 40.0702 53.69C40.1902 63.03 50.9102 72.95 50.9102 72.95Z" fill="black"/>
<path d="M66.4501 68.89L65.6201 68.92C65.6201 68.92 86.3901 80.92 110.65 67.29L109.57 67.33C90.2101 75.9 73.3301 71.47 66.4501 68.89Z" fill="#F48073"/>
<path d="M85.0704 67.07H88.2704C88.7304 67.07 89.1104 66.72 89.1104 66.29C89.1104 65.86 88.7304 65.51 88.2704 65.51H85.0704C84.7804 65.51 84.5104 65.4 84.3204 65.2C84.1304 65 84.0404 64.74 84.0704 64.47L84.8104 57.8C84.8604 57.37 84.5204 56.98 84.0604 56.94C83.6004 56.9 83.1904 57.21 83.1404 57.64L82.4004 64.31C82.3204 65.02 82.5704 65.72 83.0804 66.25C83.5904 66.78 84.3204 67.08 85.0804 67.08L85.0704 67.07Z" fill="#F48073"/>
<path d="M102.14 57.44C104.024 57.44 105.55 56.0118 105.55 54.25C105.55 52.4882 104.024 51.06 102.14 51.06C100.257 51.06 98.7305 52.4882 98.7305 54.25C98.7305 56.0118 100.257 57.44 102.14 57.44Z" fill="#2B232A"/>
<path d="M68.0604 57.44C69.9437 57.44 71.4704 56.0118 71.4704 54.25C71.4704 52.4882 69.9437 51.06 68.0604 51.06C66.1771 51.06 64.6504 52.4882 64.6504 54.25C64.6504 56.0118 66.1771 57.44 68.0604 57.44Z" fill="#2B232A"/>
<path d="M114.001 44.45L92.5508 42.52C92.5508 42.52 94.6008 36.98 103.851 37.88C113.321 38.8 114.001 44.45 114.001 44.45Z" fill="#2B232A"/>
<path d="M56.3604 44.45L77.8104 42.52C77.8104 42.52 75.7604 36.98 66.5104 37.88C57.0404 38.8 56.3604 44.45 56.3604 44.45Z" fill="#2B232A"/>
<path d="M45.601 73.28C45.411 73.28 45.221 73.18 45.121 73.01C42.471 68.18 39.081 67.95 38.941 67.95C38.651 67.93 38.421 67.7 38.431 67.43C38.441 67.16 38.681 66.93 38.991 66.95C39.161 66.95 43.121 67.17 46.081 72.56C46.211 72.81 46.111 73.11 45.851 73.23C45.771 73.27 45.691 73.29 45.611 73.29L45.601 73.28Z" fill="#F48073"/>
<path d="M128.161 71.67C128.351 71.67 128.541 71.57 128.641 71.4C131.291 66.57 134.681 66.34 134.821 66.34C135.111 66.32 135.341 66.09 135.331 65.82C135.321 65.55 135.081 65.32 134.771 65.34C134.601 65.34 130.641 65.56 127.681 70.95C127.551 71.2 127.651 71.5 127.911 71.62C127.991 71.66 128.071 71.68 128.151 71.68L128.161 71.67Z" fill="#F48073"/>
<path d="M50.55 72.42C44.72 55.81 48.7201 37.92 59.4701 25.44V25.3L48.9201 25.86C41.6301 46.78 42.8501 64.26 51.1801 74.09C50.9601 73.54 50.74 72.98 50.55 72.42Z" fill="black"/>
<defs>
<linearGradient id="paint0_linear_361_2050" x1="87.5207" y1="35.13" x2="85.5507" y2="93.57" gradientUnits="userSpaceOnUse">
<stop offset="0.28" stop-color="#F7C3AF"/>
<stop offset="1" stop-color="#F79480"/>
</linearGradient>
</defs>
</svg>
