<?xml version="1.0"?>
<svg xmlns="http://www.w3.org/2000/svg" width="504" height="663" viewBox="0 0 504 663" fill="none">
<path fill-rule="evenodd" clip-rule="evenodd" d="M500.75 313.38C498.37 326.69 492.22 336.38 485.59 344.12C478.98 351.83 471.06 358.15 462.12 364.1C454.07 369.45 444.54 375.02 435.02 379.38C432.78 380.4 430.03 381.23 427.38 382.33C422.19 384.48 418.6 385.8 412.42 387.97C411.44 388.32 409.93 388.83 408.62 389.3C405.26 390.48 405.05 389.9 403.87 393.23C394.73 419.1 387.62 447.86 380.24 475.54C381.64 474.26 382.13 472.32 382.98 470.75C388.44 460.52 394.44 449.47 400.12 438.76C400.54 437.96 400.93 436.76 401.36 436.2C402.33 434.93 404.75 433.21 406.77 431.75C411.96 428.03 418.55 423.53 423.69 420.31C431.95 415.13 440.04 411.12 448.1 407.11C465.32 398.54 483.64 391.96 503.62 389.75C502.01 394.71 499.02 398.64 495.97 402.08C486.97 412.25 475.14 418.69 461.66 423.99C446.23 430.06 430.04 433.56 410.82 435.59C408.26 435.86 404.34 435.75 403.15 436.42C402.15 436.98 400.89 439.75 399.7 442.03C393.69 453.5 388.46 463.67 382.78 474.66C381.5 477.14 379.36 480.58 378.31 483.47C377 487.08 376.58 491.08 375.62 494.93C372.93 505.8 369.98 517.11 367.67 528.41C368.48 528.39 369.26 527.76 369.95 527.19C370.66 526.6 371.27 525.68 372.04 525.04C373.57 523.77 375.51 522.81 376.75 521.41C378.53 519.4 379.94 516.86 381.54 514.76C398.89 492.08 420.32 472.48 444.55 458.1C452.35 453.48 460.38 449.54 469.4 446.17C470.51 445.76 471.59 444.89 472.87 445.11C470.89 458.41 464.42 468.13 457.71 475.84C450.92 483.63 443.01 490.12 434.54 495.86C418.45 506.76 400.91 514.31 381.38 520.79C380.15 521.19 378.54 521.6 377.57 522.11C375.7 523.12 374.1 525.45 372.04 527.45C370.19 529.24 367.26 531.12 366.51 532.79C366.18 533.52 366 535.32 365.71 536.63C361.69 554.6 358.52 574.08 354.58 592.41C351.08 608.73 347.69 626.64 344.47 644.99C344.1 647.1 344.58 651.06 341.39 650.04C339.6 649.47 340.2 648.46 340.78 645.42C346 618.12 350.85 593.11 356.43 566.31C356.84 564.31 357.44 562.33 357.46 560.69C357.47 559.55 356.97 557.41 356.59 555.73C356.21 554.07 355.84 552.26 355.38 551.03C354.64 549.07 352.85 547.1 351.31 545.06C341.21 531.7 332.64 517.28 326.12 500.95C319.08 483.32 313.06 459.39 324.81 436C326.26 435.77 326.38 437.64 326.92 438.39C327.59 439.33 328.4 440.18 328.99 441.08C329.92 442.49 330.83 443.83 331.77 445.38C346.01 468.87 354.47 498.94 355.93 532.65C356.05 535.32 356.38 538.12 356.38 540.88C356.38 543.77 355.89 546.72 356.16 549.63C356.4 552.19 357.5 554.29 357.92 557.12C359 555.07 359.24 552.65 359.69 550.39C362.98 534.24 366.24 517.52 370.23 501.5C374.03 486.27 377.35 469.57 382.11 453.99C382.81 451.7 384.12 449.42 384.11 447.89C384.11 446.68 383.4 445.82 382.45 444.34C380.69 441.62 380.01 440.77 377.11 438.81C370.63 434.43 363.79 429.74 357.73 424.81C341.02 411.23 325.35 395.48 315.92 375.83C311.46 366.54 308.08 355.64 309.31 342.59C314.25 345.24 318.36 348.96 322.57 352.47C343 369.49 358.83 391.9 371.03 415.64C372.91 419.29 374.84 422.84 376.57 426.64C377.13 427.87 377.36 429.2 377.89 430.44C378.42 431.66 379.36 432.83 379.85 434.02C381.34 437.64 381.71 442.33 385.1 444.99C388.82 432.14 392.22 420.09 396.61 407.42C397.21 405.68 398.3 403.98 398.45 402.51C398.62 400.88 397.79 398.09 397.21 395.69C396.66 393.41 396.22 390.84 395.63 389.13C395.09 387.56 394.06 386.15 393.19 384.58C387.53 374.37 382.42 363.15 378.42 351.19C373.75 337.22 370.38 322.9 371.94 305.25C378.28 308.91 382.64 314.15 386.15 319.49C395.2 333.3 398.84 351.98 397.63 373.64C397.38 378.03 396.05 382.58 396.16 387.38C396.21 389.46 397.23 391.54 397.77 393.64C398.27 395.59 398.89 397.6 399.08 399.87C401.11 396.45 402.03 392.13 404.37 389.35C407 386.23 410.29 382.06 413.01 378.66C429.48 358.13 448.93 340.59 470.78 327.39C475.3 324.66 479.76 322.04 484.48 319.77C487.98 318.09 491.68 316.5 495.37 315.12C497.15 314.45 498.67 313.83 500.74 313.39L500.75 313.38Z" fill="url(#paint0_radial_1044_1477)"/>
<path fill-rule="evenodd" clip-rule="evenodd" d="M260.52 448.58C273.99 457.74 285.55 468.43 295.39 480.93C298.53 484.92 302.11 488.9 305.02 493.07C305.43 493.66 305.58 494.45 305.98 495.01C308.39 498.36 310.93 502.3 313.31 506.25C315.29 509.53 317.34 512.84 319.27 516.4C321.88 521.24 324.73 526.84 327.21 532.26C328.61 535.32 330.34 539.51 331.82 543.45C332.26 544.62 333.96 547.55 334.14 548.9C334.26 549.76 334.05 551.09 334.02 552.21C333.11 582.75 332.45 613.64 332.06 644.89C332.04 646.36 332.77 649.98 331.07 650.21C328.75 650.53 329.6 646.98 329.64 644.88C329.96 629.96 330.44 614.66 330.86 600.24C331.31 584.4 331.49 568.9 332.2 552.28C332.25 551.14 332.34 549.43 332.29 549.26C331.88 547.96 327.6 545.61 325.94 544.51C320.42 540.84 315.2 537.1 310.16 533.09C306.36 530.06 302.17 526.82 298.39 523.4C297.46 522.56 296.88 521.47 296.02 520.67C295.04 519.76 293.91 519.05 293.01 518.17C291.29 516.46 289.73 514.58 287.97 512.68C287.14 511.78 286.04 511.09 285.26 510.21C283.66 508.4 282.16 506.19 280.59 504.16C276.19 498.46 271.6 492.29 268.15 485.6C265.81 481.07 263.96 476.3 262.43 471.24C260.51 464.85 258.97 458.03 260.51 448.59L260.52 448.58Z" fill="url(#paint1_radial_1044_1477)"/>
<path fill-rule="evenodd" clip-rule="evenodd" d="M463.97 509.34C462.81 522.38 455.18 532.8 448.77 540.37C435.35 556.23 417.86 566.81 398.21 575.62C395.92 576.65 393.45 577.86 390.82 578.91C384.85 581.29 378.9 583.65 372.06 585.88C370.63 586.34 368.23 586.58 368 586.87C367.51 587.47 366.64 593.61 366.33 595.13C362.76 612.55 360.25 627.26 356.56 645.03C356.46 645.52 355.8 647.57 355.47 648.83C355.61 648.28 355.7 652.39 353.85 651.95C352.16 651.55 353.44 650.01 353.68 648.6C356.24 633.43 360.04 617.77 363.13 603.5C363.73 600.75 364.24 597.98 364.8 595.24C365.39 592.37 365.55 589.31 366.47 586.98C367.21 585.11 369.44 582.64 371.26 580.33C375.98 574.37 381.92 567.78 386.85 562.67C401.11 547.9 417.33 533.86 434.63 523.12C443.67 517.52 453.08 513.4 463.02 509.53C463 509.53 464.19 508.65 463.95 509.35L463.97 509.34Z" fill="url(#paint2_radial_1044_1477)"/>
<path fill-rule="evenodd" clip-rule="evenodd" d="M258.861 508.3C259.121 508.28 259.131 508.45 259.121 508.64C265.011 510.75 270.271 513.51 274.991 517.05C275.561 517.48 275.951 518.26 276.581 518.77C277.881 519.81 279.241 520.61 280.441 521.69C283.931 524.81 286.851 528.27 290.011 532.01C291.071 533.27 292.291 534.18 293.201 535.45C302.021 547.74 309.301 562.36 314.001 578.39C314.461 579.97 315.101 581.57 315.511 583.12C317.241 589.66 318.391 596.54 319.531 603.62C320.041 606.81 320.911 610.29 321.201 614.13C321.811 622.02 321.691 627.34 322.191 636.96C322.271 638.5 322.851 642.91 322.611 645.49C322.461 646.98 322.651 647.11 321.781 647.2C319.281 647.44 320.131 641.59 320.061 639.41C319.811 631.02 319.411 625.36 318.961 617.47C318.871 615.97 319.291 614.16 318.941 612.93C318.681 612 317.771 611.12 316.601 609.9C314.211 607.4 311.311 604.63 308.851 601.94C305.111 597.84 302.231 593.81 299.441 590.43C286.851 575.23 275.851 558.57 267.841 539.74C265.871 535.11 263.941 530.13 262.461 525.12C260.901 519.84 259.551 514.42 258.871 508.31L258.861 508.3Z" fill="url(#paint3_radial_1044_1477)"/>
<mask id="mask0_1044_1477" style="mask-type:luminance" maskUnits="userSpaceOnUse" x="309" y="305" width="195" height="346">
<path d="M500.75 313.38C498.37 326.69 492.22 336.38 485.59 344.12C478.98 351.83 471.06 358.15 462.12 364.1C454.07 369.45 444.54 375.02 435.02 379.38C432.78 380.4 430.03 381.23 427.38 382.33C422.19 384.48 418.6 385.8 412.42 387.97C411.44 388.32 409.93 388.83 408.62 389.3C405.26 390.48 405.05 389.9 403.87 393.23C394.73 419.1 387.62 447.86 380.24 475.54C381.64 474.26 382.13 472.32 382.98 470.75C388.44 460.52 394.44 449.47 400.12 438.76C400.54 437.96 400.93 436.76 401.36 436.2C402.33 434.93 404.75 433.21 406.77 431.75C411.96 428.03 418.55 423.53 423.69 420.31C431.95 415.13 440.04 411.12 448.1 407.11C465.32 398.54 483.64 391.96 503.62 389.75C502.01 394.71 499.02 398.64 495.97 402.08C486.97 412.25 475.14 418.69 461.66 423.99C446.23 430.06 430.04 433.56 410.82 435.59C408.26 435.86 404.34 435.75 403.15 436.42C402.15 436.98 400.89 439.75 399.7 442.03C393.69 453.5 388.46 463.67 382.78 474.66C381.5 477.14 379.36 480.58 378.31 483.47C377 487.08 376.58 491.08 375.62 494.93C372.93 505.8 369.98 517.11 367.67 528.41C368.48 528.39 369.26 527.76 369.95 527.19C370.66 526.6 371.27 525.68 372.04 525.04C373.57 523.77 375.51 522.81 376.75 521.41C378.53 519.4 379.94 516.86 381.54 514.76C398.89 492.08 420.32 472.48 444.55 458.1C452.35 453.48 460.38 449.54 469.4 446.17C470.51 445.76 471.59 444.89 472.87 445.11C470.89 458.41 464.42 468.13 457.71 475.84C450.92 483.63 443.01 490.12 434.54 495.86C418.45 506.76 400.91 514.31 381.38 520.79C380.15 521.19 378.54 521.6 377.57 522.11C375.7 523.12 374.1 525.45 372.04 527.45C370.19 529.24 367.26 531.12 366.51 532.79C366.18 533.52 366 535.32 365.71 536.63C361.69 554.6 358.52 574.08 354.58 592.41C351.08 608.73 347.69 626.64 344.47 644.99C344.1 647.1 344.58 651.06 341.39 650.04C339.6 649.47 340.2 648.46 340.78 645.42C346 618.12 350.85 593.11 356.43 566.31C356.84 564.31 357.44 562.33 357.46 560.69C357.47 559.55 356.97 557.41 356.59 555.73C356.21 554.07 355.84 552.26 355.38 551.03C354.64 549.07 352.85 547.1 351.31 545.06C341.21 531.7 332.64 517.28 326.12 500.95C319.08 483.32 313.06 459.39 324.81 436C326.26 435.77 326.38 437.64 326.92 438.39C327.59 439.33 328.4 440.18 328.99 441.08C329.92 442.49 330.83 443.83 331.77 445.38C346.01 468.87 354.47 498.94 355.93 532.65C356.05 535.32 356.38 538.12 356.38 540.88C356.38 543.77 355.89 546.72 356.16 549.63C356.4 552.19 357.5 554.29 357.92 557.12C359 555.07 359.24 552.65 359.69 550.39C362.98 534.24 366.24 517.52 370.23 501.5C374.03 486.27 377.35 469.57 382.11 453.99C382.81 451.7 384.12 449.42 384.11 447.89C384.11 446.68 383.4 445.82 382.45 444.34C380.69 441.62 380.01 440.77 377.11 438.81C370.63 434.43 363.79 429.74 357.73 424.81C341.02 411.23 325.35 395.48 315.92 375.83C311.46 366.54 308.08 355.64 309.31 342.59C314.25 345.24 318.36 348.96 322.57 352.47C343 369.49 358.83 391.9 371.03 415.64C372.91 419.29 374.84 422.84 376.57 426.64C377.13 427.87 377.36 429.2 377.89 430.44C378.42 431.66 379.36 432.83 379.85 434.02C381.34 437.64 381.71 442.33 385.1 444.99C388.82 432.14 392.22 420.09 396.61 407.42C397.21 405.68 398.3 403.98 398.45 402.51C398.62 400.88 397.79 398.09 397.21 395.69C396.66 393.41 396.22 390.84 395.63 389.13C395.09 387.56 394.06 386.15 393.19 384.58C387.53 374.37 382.42 363.15 378.42 351.19C373.75 337.22 370.38 322.9 371.94 305.25C378.28 308.91 382.64 314.15 386.15 319.49C395.2 333.3 398.84 351.98 397.63 373.64C397.38 378.03 396.05 382.58 396.16 387.38C396.21 389.46 397.23 391.54 397.77 393.64C398.27 395.59 398.89 397.6 399.08 399.87C401.11 396.45 402.03 392.13 404.37 389.35C407 386.23 410.29 382.06 413.01 378.66C429.48 358.13 448.93 340.59 470.78 327.39C475.3 324.66 479.76 322.04 484.48 319.77C487.98 318.09 491.68 316.5 495.37 315.12C497.15 314.45 498.67 313.83 500.74 313.39L500.75 313.38Z" fill="white"/>
</mask>
<g mask="url(#mask0_1044_1477)">
<g style="mix-blend-mode:soft-light" opacity="0.5">
<path fill-rule="evenodd" clip-rule="evenodd" d="M509.67 312.5C511.34 312.48 513.37 312.86 513.31 314.79C513.27 316.13 511.72 316.63 510.21 317.72C506.43 320.44 504.38 322.87 501.5 326.59C499.18 329.59 496.62 333.32 494.82 338.44C494.17 340.31 493.18 342.71 493.57 343.43C493.86 343.97 495.55 342.74 497.11 341.77C498.73 340.77 500.04 339.95 500.73 339.51C503.44 337.78 506.19 335.5 509.27 336.68C509.82 336.9 511.43 338.24 511.6 339.71C512.17 344.48 506.57 346.43 503.53 348.36C501.21 349.82 498.69 351.61 495.95 353.13C495.06 353.63 493.58 354.1 493.38 354.31C492.59 355.13 492.68 356.41 492.1 357.17C491.65 357.76 490.81 358.53 490.08 358.73C489.23 358.96 487.05 358.12 485.91 358.19C484.61 358.27 482.38 359.49 480.5 360.22C478.7 360.92 476.8 361.77 475.39 362.29C465.03 366.1 453.85 369.02 444.47 374.34C438.96 377.47 433.43 381.8 427.89 385.52C426.19 386.66 424.44 387.74 422.29 389.04C420.8 389.94 417.95 391.18 417.44 391.44C416.53 391.9 407.96 396.75 407.35 392.25C407.04 389.98 413.37 386.54 415.53 385.13C421.6 381.18 425.41 377.91 430.92 373.79C431.23 373.56 431.59 373.24 431.93 373.01C434.18 371.5 437.23 369.52 439.84 367.98C445.19 364.81 451.13 362.04 457.26 359.63C464.08 356.95 470.92 354.86 478.26 351.74C480.04 350.98 482.84 349.81 483.11 349.34C484.23 347.41 483.7 343.75 484.07 341.9C486.11 331.82 493.56 322.13 500.63 316.79C502.66 315.25 506.25 312.55 509.66 312.51L509.67 312.5Z" fill="black"/>
</g>
<g style="mix-blend-mode:soft-light" opacity="0.5">
<path fill-rule="evenodd" clip-rule="evenodd" d="M395.92 337.79C396.52 337.99 397.37 336.6 398.68 337.54C399.92 338.44 399.63 341.94 399.8 345.25C400.04 349.93 401.38 355.25 398.93 359.06C398.78 359.29 397.9 360.37 397.96 359.54C397.87 360.67 399.49 362.57 400.14 363.76C400.6 364.62 402.29 366.36 401.35 368.46C401.13 368.96 399.78 369.95 398.74 369.94C396.84 369.91 395.71 367.91 394.44 365.75C391.44 360.64 389.14 354.73 389.56 347.26C389.92 340.74 391.25 334.13 390.79 328.35C390.67 326.88 390.33 325.38 390.14 324.03C389.85 322 389.02 318.98 391.13 318.71C393.63 318.39 394.76 324.78 395.19 327.1C395.87 330.7 396.13 332.35 395.93 337.79H395.92Z" fill="black"/>
</g>
<g style="mix-blend-mode:soft-light" opacity="0.5">
<path fill-rule="evenodd" clip-rule="evenodd" d="M308.271 336.77C310.471 336.13 310.711 342.08 310.961 344.08C311.561 348.82 311.881 351.21 313.151 355.26C315.581 363.02 319.781 370.46 324.951 376.46C330.701 383.14 337.941 389.58 344.201 396.2C345.801 397.9 347.271 399.65 348.691 401.32C349.451 402.21 350.411 402.88 351.101 403.75C351.841 404.67 352.141 405.71 352.841 406.7C354.061 408.44 355.731 410.27 356.951 412.38C357.531 413.37 357.801 414.54 358.351 415.59C360.281 419.27 362.341 423.94 364.631 427.9C365.021 428.57 365.451 429.23 365.851 430.18C365.951 430.41 366.321 430.7 366.371 430.85C366.601 431.58 366.471 433.33 366.811 434.54C366.901 434.88 367.341 435.35 367.551 435.85C368.791 438.9 370.241 442.17 371.761 445.47C372.271 446.57 373.831 449.32 374.041 451.21C374.421 454.5 373.221 456.34 371.531 456.64C367.681 457.31 365.081 450.51 364.111 448.42C363.381 446.84 362.521 444.81 361.791 442.97C361.011 441.03 360.641 438.96 359.761 437.56C359.031 436.4 357.601 435.38 356.571 434.12C351.991 428.51 347.391 422.09 342.531 416.26C341.101 414.55 339.941 412.67 338.381 410.88C332.331 403.92 325.191 396.17 320.491 387.69C318.671 384.41 316.831 381.06 316.391 377.17C316.101 374.61 315.341 373.12 314.181 370.83C310.751 364.07 307.831 358.02 306.781 348.38C306.431 345.2 305.591 337.55 308.281 336.77H308.271Z" fill="black"/>
</g>
<g style="mix-blend-mode:soft-light" opacity="0.5">
<path fill-rule="evenodd" clip-rule="evenodd" d="M487.12 377.09C487.38 377.07 487.39 377.25 487.38 377.43C485.78 384.39 481.55 389 477.75 393.44C476.35 395.08 474.87 396.9 473.15 398.6C469.31 402.39 464.44 406.11 458.63 407.93C457.08 408.41 454.1 409.26 450.92 409.05C447.16 408.8 441.8 406.28 445.5 404.11C446.3 403.64 446.18 403.94 447.37 403.74C448.59 403.54 450.76 403.7 451.32 403.64C461.06 402.67 469.02 393.73 475.37 386.16C476.42 384.91 477.7 383.83 478.85 382.67C480.06 381.45 481.03 380.04 482.33 379.18C483.56 378.36 485.21 377.99 487.14 377.07L487.12 377.09Z" fill="black"/>
</g>
<g style="mix-blend-mode:soft-light" opacity="0.5">
<path fill-rule="evenodd" clip-rule="evenodd" d="M430.51 435.79C425.06 436.69 418.91 437.9 413.92 440.01C412.56 440.59 406.72 444.88 404.82 442.47C403.16 440.36 405.67 437.82 407.42 436.45C410.94 433.68 410.35 434.57 413.28 433.27C418.03 431.16 422.24 430.14 426.51 429.23C436.87 427.01 447.11 427.5 456.09 425.17C460.75 423.96 465.13 422.16 469.1 420.49C478.07 416.73 484.62 413.21 492.46 408.37C495.36 406.58 497.8 405.3 501.23 403.75C502.21 403.31 506.59 400.48 508.27 403.15C509.57 405.22 506.89 407.84 505.34 409.43C501.2 413.68 498.7 415.38 493.57 418.51C491.86 419.55 490.24 420.71 488.31 421.77C483.38 424.47 476.98 427.48 471.26 429.56C462.54 432.73 452.13 435.25 439.92 435.51C437.99 435.55 434.99 435.24 434.78 435.45C434.36 435.88 433.94 440.67 433.18 443.12C431.14 449.75 428.43 456.35 425.92 461.86C422.42 469.57 417.92 477.7 413.99 483.93C409.78 490.61 405.53 496.56 399.17 502.6C396.07 505.54 394.42 506.8 390.35 509.94C387.65 512.02 382.71 516.98 379.79 514.33C376.48 511.31 383.84 505.21 384.71 504.37C390.69 498.58 395.23 494.25 400.19 487.6C402.56 484.43 405.01 481.29 406.86 478.17C414.98 464.41 421.55 447.82 430.49 435.81L430.51 435.79Z" fill="black"/>
</g>
<g style="mix-blend-mode:soft-light" opacity="0.5">
<path fill-rule="evenodd" clip-rule="evenodd" d="M372.041 405.54C375.041 405.38 372.861 410.3 372.751 414.11C372.561 421.43 377.441 425.88 381.181 430.94C382.081 432.16 383.731 434.33 382.691 435.68C382.411 436.05 382.251 436.91 381.901 437.09C379.851 438.17 377.681 435.99 375.961 433.9C371.451 428.43 365.881 421.59 368.271 411.41C368.721 409.47 370.221 405.64 372.051 405.54H372.041Z" fill="black"/>
</g>
<g style="mix-blend-mode:soft-light" opacity="0.5">
<path fill-rule="evenodd" clip-rule="evenodd" d="M499.121 448.27C499.651 448.29 502.961 448.5 503.251 449.1C503.641 449.89 501.451 452.75 500.891 453.34C499.731 454.57 496.291 456.55 494.621 457.37C486.571 461.34 480.661 464.28 473.721 469.2C463.841 476.21 455.371 483.87 447.301 493.34C445.001 496.03 442.411 498.94 439.441 502.62C438.331 504 434.201 511.72 430.021 509.88C425.961 508.09 431.421 500.58 432.671 498.72C434.001 496.74 435.011 495.71 436.301 494.04C449.371 477.11 464.641 464.01 483.571 453.82C487.061 451.94 490.541 449.82 493.901 448.8C495.421 448.34 497.371 448.2 499.111 448.26L499.121 448.27Z" fill="black"/>
</g>
<g style="mix-blend-mode:soft-light" opacity="0.5">
<path fill-rule="evenodd" clip-rule="evenodd" d="M322.661 427.02C327.431 426.25 324.161 436.6 323.691 440.17C322.791 446.98 323.431 452.97 324.281 459.02C325.091 464.74 326.571 470.43 328.581 475.01C330.551 479.52 333.401 483.94 335.901 488.67C343.191 502.49 348.791 515.63 349.831 535.57C350.221 543.08 349.871 551.26 349.401 560.03C349.171 564.31 348.341 571.14 344.071 570.84C338.831 570.48 339.821 562.72 340.141 556.71C340.241 554.9 340.981 551.51 340.611 550.72C340.271 550 339.081 550.06 338.051 549.48C337.251 549.03 336.361 548.28 336.121 548.02C333.661 545.46 331.631 536.85 329.861 530.87C326.221 518.65 322.611 507.92 319.011 495.27C318.141 492.19 317.351 489.19 316.881 485.91C316.391 482.43 315.811 478.63 316.441 475.26C316.611 474.36 316.751 473.27 317.091 472.62C317.381 472.04 318.421 471.58 318.511 470.99C318.671 469.99 317.431 467.94 317.041 465.96C316.691 464.17 316.711 462.02 316.541 460.45C315.791 453.46 315.591 445.38 317.791 436.7C318.631 433.38 320.241 427.43 322.671 427.04L322.661 427.02Z" fill="black"/>
</g>
<g style="mix-blend-mode:soft-light" opacity="0.5">
<path fill-rule="evenodd" clip-rule="evenodd" d="M339.76 444.66C342.51 444.12 341.8 448.23 341.67 450.96C341.36 457.62 342.36 462.18 344.77 466.8C345.2 467.63 345.48 468.63 345.95 469.38C347.12 471.22 348.39 472.03 349.4 473.16C350.3 474.17 351.36 475.42 352.85 476.93C353.64 477.73 355.44 479.4 356.3 480.71C356.64 481.23 358.43 484.75 357.13 485.96C356.34 486.7 353.94 486.14 352.11 485.01C350.76 484.18 349.29 482.54 348.59 481.83C340.95 474.14 333.65 464.48 337.02 449.46C337.47 447.46 338.18 444.97 339.76 444.67V444.66Z" fill="black"/>
</g>
<path style="mix-blend-mode:soft-light" opacity="0.7" fill-rule="evenodd" clip-rule="evenodd" d="M698.14 190.14C679.84 331.99 550.01 432.16 408.16 413.86C266.3 395.56 166.14 265.73 184.44 123.87C202.74 -17.98 332.57 -118.14 474.43 -99.84C616.28 -81.54 716.45 48.29 698.15 190.14H698.14Z" fill="url(#paint4_radial_1044_1477)"/>
</g>
<mask id="mask1_1044_1477" style="mask-type:luminance" maskUnits="userSpaceOnUse" x="259" y="448" width="76" height="203">
<path d="M260.52 448.58C273.99 457.74 285.55 468.43 295.39 480.93C298.53 484.92 302.11 488.9 305.02 493.07C305.43 493.66 305.58 494.45 305.98 495.01C308.39 498.36 310.93 502.3 313.31 506.25C315.29 509.53 317.34 512.84 319.27 516.4C321.88 521.24 324.73 526.84 327.21 532.26C328.61 535.32 330.34 539.51 331.82 543.45C332.26 544.62 333.96 547.55 334.14 548.9C334.26 549.76 334.05 551.09 334.02 552.21C333.11 582.75 332.45 613.64 332.06 644.89C332.04 646.36 332.77 649.98 331.07 650.21C328.75 650.53 329.6 646.98 329.64 644.88C329.96 629.96 330.44 614.66 330.86 600.24C331.31 584.4 331.49 568.9 332.2 552.28C332.25 551.14 332.34 549.43 332.29 549.26C331.88 547.96 327.6 545.61 325.94 544.51C320.42 540.84 315.2 537.1 310.16 533.09C306.36 530.06 302.17 526.82 298.39 523.4C297.46 522.56 296.88 521.47 296.02 520.67C295.04 519.76 293.91 519.05 293.01 518.17C291.29 516.46 289.73 514.58 287.97 512.68C287.14 511.78 286.04 511.09 285.26 510.21C283.66 508.4 282.16 506.19 280.59 504.16C276.19 498.46 271.6 492.29 268.15 485.6C265.81 481.07 263.96 476.3 262.43 471.24C260.51 464.85 258.97 458.03 260.51 448.59L260.52 448.58Z" fill="white"/>
</mask>
<g mask="url(#mask1_1044_1477)">
<g style="mix-blend-mode:soft-light" opacity="0.5">
<path fill-rule="evenodd" clip-rule="evenodd" d="M279.19 505.87C277.62 508.01 276.59 508.83 274.9 508.64C272.01 508.32 271.61 506.2 272.02 502.82C272.17 501.57 272.95 500.04 272.86 498.69C272.61 495.1 249.26 478.87 250.13 475.92C250.48 474.73 220.22 422.38 245.49 436.74C270.76 451.1 305.93 515.93 310.07 522.26C313.43 527.38 317.11 533.92 320.47 540.25C321.7 542.57 323.26 545.11 322.6 547.18C322.2 548.45 320.59 549.74 318.39 549.36C316.21 548.98 315.37 546.98 314.39 545.21C314.11 544.71 314.03 543.99 313.69 543.61C313 542.82 311.65 542.43 310.91 541.74C310.11 541 309.47 540.09 308.8 539.35C304.5 534.62 300.73 530.39 296.12 525C293.37 521.79 290.79 518.45 288 515.17C287.64 514.75 286.96 514.51 286.63 514.09C285.77 513.02 284.82 511.62 283.78 510.39C283.44 510 282.83 509.77 282.4 509.31C282.01 508.89 282.04 508.33 281.66 508C280.92 507.36 279.06 507.45 279.21 505.87H279.19Z" fill="black"/>
</g>
</g>
<mask id="mask2_1044_1477" style="mask-type:luminance" maskUnits="userSpaceOnUse" x="352" y="509" width="112" height="143">
<path d="M463.97 509.34C462.81 522.38 455.18 532.8 448.77 540.37C435.35 556.23 417.86 566.81 398.21 575.62C395.92 576.65 393.45 577.86 390.82 578.91C384.85 581.29 378.9 583.65 372.06 585.88C370.63 586.34 368.23 586.58 368 586.87C367.51 587.47 366.64 593.61 366.33 595.13C362.76 612.55 360.25 627.26 356.56 645.03C356.46 645.52 355.8 647.57 355.47 648.83C355.61 648.28 355.7 652.39 353.85 651.95C352.16 651.55 353.44 650.01 353.68 648.6C356.24 633.43 360.04 617.77 363.13 603.5C363.73 600.75 364.24 597.98 364.8 595.24C365.39 592.37 365.55 589.31 366.47 586.98C367.21 585.11 369.44 582.64 371.26 580.33C375.98 574.37 381.92 567.78 386.85 562.67C401.11 547.9 417.33 533.86 434.63 523.12C443.67 517.52 453.08 513.4 463.02 509.53C463 509.53 464.19 508.65 463.95 509.35L463.97 509.34Z" fill="white"/>
</mask>
<g mask="url(#mask2_1044_1477)">
<g style="mix-blend-mode:soft-light" opacity="0.5">
<path fill-rule="evenodd" clip-rule="evenodd" d="M453.891 540.82C461.021 538.99 467.441 537.14 474.961 534.76C479.001 533.48 483.191 531.83 488.151 531.02C489.801 530.75 491.631 530.23 494.521 530.93C498.091 531.8 497.571 533.03 495.061 536.15C492.521 539.31 487.511 541.7 484.491 542.96C478.661 545.39 472.741 546.86 467.451 548.33C461.591 549.96 455.781 551.64 450.151 553.36C445.861 554.67 441.891 555.98 437.511 557.48C436.471 557.83 435.591 558.08 434.341 558.58C426.861 561.63 419.971 563.95 413.531 567.4C412.911 567.73 412.481 568.35 411.851 568.7C411.281 569.02 410.531 569.02 409.951 569.36C407.751 570.68 405.691 572.55 403.271 574.25C402.071 575.09 400.791 575.57 399.651 576.51C397.131 578.57 394.361 581.22 391.761 583.66C391.521 583.89 391.021 583.91 390.791 584.14C388.891 586.02 387.121 587.68 384.211 590.56C382.451 592.3 380.071 595.76 377.261 595.11C373.271 594.19 375.591 588.73 377.181 586.32C378.321 584.59 381.211 581.13 382.951 579.19C392.491 568.52 402.711 561.41 415.401 555.22C416.741 554.57 417.951 553.61 419.321 553C422.141 551.75 425.231 550.98 427.941 549.57C430.481 548.25 433.011 546.15 435.601 544.2C438.041 542.35 440.411 540.53 442.701 538.45C447.441 534.13 451.841 529.18 455.121 524.31C458.651 519.08 462.351 513.53 467.021 509.5C469.261 507.57 472.161 505.98 474.931 504.47C478.031 502.77 481.431 500.4 485.111 500.64C488.701 500.87 490.531 502.8 490.681 504.38C491.161 509.32 484.001 511.59 481.071 513.13C476.661 515.45 473.641 517.64 470.731 520.57C464.641 526.71 460.321 533.86 453.891 540.8V540.82Z" fill="black"/>
</g>
</g>
<mask id="mask3_1044_1477" style="mask-type:luminance" maskUnits="userSpaceOnUse" x="258" y="508" width="65" height="140">
<path d="M258.861 508.3C259.121 508.28 259.131 508.45 259.121 508.64C265.011 510.75 270.271 513.51 274.991 517.05C275.561 517.48 275.951 518.26 276.581 518.77C277.881 519.81 279.241 520.61 280.441 521.69C283.931 524.81 286.851 528.27 290.011 532.01C291.071 533.27 292.291 534.18 293.201 535.45C302.021 547.74 309.301 562.36 314.001 578.39C314.461 579.97 315.101 581.57 315.511 583.12C317.241 589.66 318.391 596.54 319.531 603.62C320.041 606.81 320.911 610.29 321.201 614.13C321.811 622.02 321.691 627.34 322.191 636.96C322.271 638.5 322.851 642.91 322.611 645.49C322.461 646.98 322.651 647.11 321.781 647.2C319.281 647.44 320.131 641.59 320.061 639.41C319.811 631.02 319.411 625.36 318.961 617.47C318.871 615.97 319.291 614.16 318.941 612.93C318.681 612 317.771 611.12 316.601 609.9C314.211 607.4 311.311 604.63 308.851 601.94C305.111 597.84 302.231 593.81 299.441 590.43C286.851 575.23 275.851 558.57 267.841 539.74C265.871 535.11 263.941 530.13 262.461 525.12C260.901 519.84 259.551 514.42 258.871 508.31L258.861 508.3Z" fill="white"/>
</mask>
<g mask="url(#mask3_1044_1477)">
<g style="mix-blend-mode:soft-light" opacity="0.5">
<path fill-rule="evenodd" clip-rule="evenodd" d="M274.222 567.89C273.742 575.34 274.822 585.91 272.292 594.58C271.512 597.25 270.252 598.79 268.512 600.45C266.672 598.89 265.202 597.44 264.362 595.07C262.002 588.41 261.902 579.76 262.002 571.15C262.202 554.6 237.842 534.93 241.912 518.84C243.142 513.97 248.902 502.76 253.452 503.13C254.132 503.19 255.942 504.08 256.312 504.41C270.662 519.78 277.292 547.81 278.312 550.25C279.512 553.12 280.992 556.79 282.522 559.87C288.042 571.02 294.002 581.94 297.352 595.08C297.772 596.72 297.812 598.48 298.192 600.33C299.052 604.59 300.612 610.94 300.402 616.05C300.112 623 295.922 628.91 291.282 623.35C290.882 622.87 290.602 622.33 290.282 621.71C288.182 617.64 287.702 611.13 286.882 605.83C284.702 591.84 280.012 578.76 274.222 567.87V567.89Z" fill="black"/>
</g>
</g>
<path fill-rule="evenodd" clip-rule="evenodd" d="M126.07 420.74C126.41 418.6 127.07 416.98 126.94 414.94C126.88 413.88 126.35 412.83 126.07 411.75C124.23 404.39 123.46 394.81 124.91 386.21C126.41 377.32 129.86 369.94 133.32 362.12C135.81 356.51 138.05 350.97 141.16 345.58C142.12 343.92 143.34 342.35 144.35 340.65C147.86 334.75 151.59 329 155.38 323.24C155.92 322.41 156.03 321.19 157.12 320.92C160.57 330.01 159.76 339.79 158.86 348.78C157.95 357.86 156.54 366.79 153.34 374.31C148.69 385.28 141.67 393.37 135.06 402.75C134.01 404.24 132.84 405.78 131.87 407.39C130.9 408.98 129.71 410.82 129.26 412.32C128.71 414.13 128.73 416.64 128.39 418.99C128.03 421.49 127.41 423.91 127.52 425.66C127.62 427.15 128.21 428.63 128.68 430.3C131.48 440.18 134.17 451.76 137.1 461.93C140.6 474.11 144.3 485.19 147.84 496.75C148.95 492.73 147.37 488.31 146.97 483.98C144.79 460.23 153.39 443.53 161.48 428.26C164.79 422.02 168.1 415.92 171.63 410.27C174.32 405.97 177.64 402.24 180.63 398.08C181.1 397.43 181.6 396.7 182.08 396.05C182.42 395.59 182.66 394.52 183.53 394.6C182.76 405.96 181.72 416.26 180.63 426.23C179.53 436.28 178.05 445.97 175.12 454.96C170.14 470.21 160.85 480.22 152.78 492.68C150.99 495.45 149.53 497.05 149.01 500.81C148.46 504.81 149.68 509.35 150.46 513.58C152.19 522.84 154.16 533.21 155.97 542.31C160.14 521.86 168.25 504.31 176.57 487.75C180.8 479.33 185.04 471.18 189.63 463.08C193.03 457.07 196.25 451.11 199.49 444.8C200 443.82 200.68 442.8 201.23 441.9C201.81 440.94 202.18 439.76 203.26 439.29C208.41 451.21 207.05 469.73 204.42 483.98C203.15 490.87 201.7 497.06 199.2 502.84C195.84 510.63 191.67 518 186.43 524.31C186.23 524.54 186.04 524.6 185.85 524.89C185.43 525.53 184.52 526.72 183.82 527.5C180.36 531.37 175.58 535.52 171.05 538.82C168.99 540.32 167.59 541.33 165.25 542.3C163.75 542.92 161.9 543.06 160.32 543.75C158.9 544.37 157.1 545.6 156.84 546.65C156.54 547.85 157.52 551.14 158 553.61C160.26 565.26 162.43 575.75 165.26 586.98C169.57 604.11 174.11 621.45 178.9 638.35C180.05 642.41 181.36 646.72 181.51 651.12C179.78 650.12 179.77 647.38 179.19 645.32C178.07 641.34 176.55 637.4 175.42 633.42C174.81 631.29 174.58 629.13 173.97 627.04C171.58 618.9 169.11 610.72 167 602.37C162.75 585.51 158.73 568.28 155.39 550.72C154.72 551 154.27 552.2 153.94 553.04C152.95 555.57 152.22 558.64 151.33 561.45C150.16 565.12 148.8 568.89 148.71 573.35C148.59 580.35 150.33 587.5 151.61 594.53C154.04 607.88 156.85 620.91 160.02 634C161.61 640.54 163.39 647.27 163.22 654.02C161.56 653.25 161.66 650.92 161.48 649.67C161.22 647.91 161.24 646.1 160.9 644.45C160.31 641.6 159.41 638.37 158.58 634.88C155.64 622.57 152.27 609.85 149.87 596.58C148.98 591.65 147.95 586.59 147.26 581.49C147.02 579.71 147.14 577.93 146.68 576.27C146.18 574.46 144.67 572.48 143.2 570.18C142.14 568.5 141.02 566.7 140.01 564.96C138.33 562.06 134.67 559.36 131.02 557.41C128.25 555.94 125.68 554.51 123.18 554.22C120.53 553.91 117.82 554.4 115.35 554.22C107.41 553.65 99.8604 550.22 93.8704 546.96C87.4104 543.44 82.1605 539 77.9105 534.19C76.7605 532.88 75.4004 531.75 74.4304 530.42C73.3704 528.97 72.5004 527.55 71.5304 526.07C65.9304 517.53 60.8205 508.76 55.5705 499.08C74.3205 507.43 92.0905 517.83 108.39 528.68C112.04 531.11 115.35 533.69 118.84 536.52C122.41 539.41 126.26 542.83 129.58 546.39C133.49 550.58 136.68 556.28 140.03 561.48C140.58 562.34 140.85 562.97 141.48 564.09C142.92 566.64 144.85 570.01 146.7 572.8C147.68 563.7 150.33 556.87 153.37 549.29C153.75 548.33 154.47 547.03 154.53 546.39C154.69 544.7 153.51 541.08 153.08 538.85C152.52 535.96 152.15 533.06 151.63 531.3C150.7 528.11 148.73 524.09 147.28 520.85C146.24 518.53 144.94 515.92 143.8 513.31C143.43 512.45 143.28 511.26 142.93 510.7C141.89 509.05 139.5 507.77 137.42 506.35C133.5 503.68 129.49 501.28 124.07 499.96C121.37 499.31 118.44 499.12 115.65 498.51C105.26 496.24 94.4605 492.32 87.2105 487.77C78.1505 482.09 72.5305 475.42 67.1905 468.33C64.2805 464.46 61.6004 460.69 59.6504 456.14C57.8404 451.92 55.8604 447.49 54.1404 442.22C63.8904 446.1 73.3305 450.34 82.5805 455.28C86.8605 457.56 92.1905 460.46 96.8005 463.12C110.93 471.25 124 481.91 134.52 494.17C138.09 498.33 140.93 502.44 143.22 507.52C145.42 512.37 147.65 517.38 149.6 522.9C149.95 521.13 149.33 519.35 149.02 517.68C148.05 512.43 147.15 506.76 146.12 501.43C144.76 494.42 142.71 488.05 140.61 481.7C139.51 478.4 138.71 475.17 137.42 472.12C134.49 465.23 129.95 458.47 125.52 452.39C124.64 451.18 123.77 449.83 122.9 448.91C121.55 447.47 118.77 445.57 116.81 444.27C114.58 442.79 112.03 441.3 109.85 440.5C104.36 438.48 97.3404 438.93 91.2804 437.88C72.9404 434.72 57.4304 431.01 43.4004 422.79C36.5104 418.76 30.8604 414.52 25.1204 409.44C23.2404 407.77 21.2204 406.26 19.6104 404.51C17.9304 402.69 16.5605 400.64 14.9705 398.71C12.7105 395.96 9.96045 393.39 7.42045 390.58C6.78045 389.87 6.02045 389.35 5.39045 388.55C4.27045 387.12 2.66045 385.37 1.33045 383.62C1.09045 383.3 0.210449 382.74 0.750449 382.17C15.0304 387.3 30.8604 388.8 45.1504 392.32C59.2204 395.79 70.8904 400.03 81.4304 407.12C82.0804 407.56 82.5504 408.14 83.1704 408.57C84.5804 409.55 86.2405 410.23 87.5205 411.18C88.8205 412.14 89.7705 413.36 91.0005 414.37C91.2705 414.59 91.8705 414.7 92.1605 414.95C92.7605 415.47 93.1504 416.03 93.9004 416.69C95.2204 417.84 97.0204 419.11 98.5404 420.46C103.27 424.66 107.9 429.15 112.18 433.81C114.36 436.18 116.7 438.38 118.85 440.78C125.13 447.76 130.86 455.69 135.97 464.29C135.66 462.11 134.8 460.03 134.23 457.91C131.23 446.77 127.92 435.56 124.94 423.96C124.37 421.73 123.65 419.35 123.2 416.99C122.73 414.58 122.63 412.08 121.75 410.02C121.08 408.47 119.76 406.86 118.56 405.38C116.14 402.42 112.87 400.21 110.14 397.26C106.98 393.84 104.02 389.17 101.15 385.07C91.3004 371 79.6704 355.77 77.6404 333.13C77.1304 327.46 76.7304 321.06 77.0604 314.85C77.2004 312.34 77.8205 309.38 78.2205 306.44C78.4805 304.53 78.7205 296.83 80.8305 297.44C82.5105 297.93 82.4004 298.84 83.1504 300.64C86.6104 308.88 89.7605 320.24 92.4405 328.21C96.1305 339.21 100.25 349.07 104.34 358.39C108.72 368.37 113.2 378.17 116.53 388.28C120.03 398.91 123.21 409.65 126.1 420.78L126.07 420.74Z" fill="url(#paint5_radial_1044_1477)"/>
<path fill-rule="evenodd" clip-rule="evenodd" d="M191.65 652.89C191.57 642.47 191.81 632.94 191.07 623.29C190.65 617.84 188.99 613.29 188.17 607.91C186.41 596.37 181.74 584.78 182.66 571.06C183.67 556.01 195.28 547.31 204.71 540.3C210.01 536.37 215.17 532.87 219.8 528.98C222.76 526.5 225.75 523.88 228.8 521.15C230.41 519.7 231.96 518.09 234.02 516.8C235.1 516.12 236.34 515.94 236.63 517.67C236.88 519.22 235.46 522.8 234.89 524.35C234.26 526.04 233.53 527.15 233.15 528.12C232.47 529.82 232.72 529.98 231.7 532.18C229.14 537.7 226.17 542.24 223.58 546.4C220.65 551.1 217.73 555.43 214.29 559.46C213.4 560.49 212.61 561.56 211.68 562.65C209.41 565.3 206.43 568.68 204.71 572.22C200.19 581.57 199.28 595.62 196.01 606.47C195.44 608.34 194.75 610.07 194.27 611.98C193.81 613.81 193.03 615.83 192.82 617.49C192.46 620.37 193.01 623.57 193.11 626.78C193.33 633.76 194.21 642.51 193.11 649.71C192.96 650.69 193.27 652.72 191.66 652.9L191.65 652.89Z" fill="url(#paint6_radial_1044_1477)"/>
<path fill-rule="evenodd" clip-rule="evenodd" d="M45.9807 551.32C49.6707 551.71 53.3607 554.19 57.0107 556.25C66.4707 561.61 76.4807 566.75 87.1907 571.34C99.1107 576.45 118.231 583.14 124.911 594.26C126.291 596.56 127.221 599.47 128.391 602.1C128.951 603.35 129.571 604.57 130.131 605.87C132.751 611.94 135.531 618.51 138.541 625.02C139.141 626.31 139.731 627.74 140.281 629.08C142.811 635.2 146.081 641.71 149.271 647.65C149.821 648.67 151.491 651.37 152.171 653.16C152.091 652.96 153.341 657.03 151.011 654.32C150.311 653.5 148.861 650.19 148.401 649.39C147.031 647 145.511 644.68 144.631 643C140.871 635.83 138.671 629.9 134.761 623.27C134.561 622.92 134.271 622.49 133.891 621.82C132.041 618.6 129.891 615.57 127.501 611.95C126.261 610.07 124.931 607.33 123.441 606.73C121.401 605.91 117.991 606.35 115.611 606.15C98.5007 604.73 85.5807 597.7 74.7007 589.32C65.6807 582.37 57.7207 573.73 51.4807 562.91C50.5407 561.29 49.5607 559.49 48.5807 557.69C47.4507 555.62 46.2507 554 45.9707 551.31L45.9807 551.32Z" fill="url(#paint7_radial_1044_1477)"/>
<mask id="mask4_1044_1477" style="mask-type:luminance" maskUnits="userSpaceOnUse" x="0" y="297" width="207" height="358">
<path d="M126.07 420.74C126.41 418.6 127.07 416.98 126.94 414.94C126.88 413.88 126.35 412.83 126.07 411.75C124.23 404.39 123.46 394.81 124.91 386.21C126.41 377.32 129.86 369.94 133.32 362.12C135.81 356.51 138.05 350.97 141.16 345.58C142.12 343.92 143.34 342.35 144.35 340.65C147.86 334.75 151.59 329 155.38 323.24C155.92 322.41 156.03 321.19 157.12 320.92C160.57 330.01 159.76 339.79 158.86 348.78C157.95 357.86 156.54 366.79 153.34 374.31C148.69 385.28 141.67 393.37 135.06 402.75C134.01 404.24 132.84 405.78 131.87 407.39C130.9 408.98 129.71 410.82 129.26 412.32C128.71 414.13 128.73 416.64 128.39 418.99C128.03 421.49 127.41 423.91 127.52 425.66C127.62 427.15 128.21 428.63 128.68 430.3C131.48 440.18 134.17 451.76 137.1 461.93C140.6 474.11 144.3 485.19 147.84 496.75C148.95 492.73 147.37 488.31 146.97 483.98C144.79 460.23 153.39 443.53 161.48 428.26C164.79 422.02 168.1 415.92 171.63 410.27C174.32 405.97 177.64 402.24 180.63 398.08C181.1 397.43 181.6 396.7 182.08 396.05C182.42 395.59 182.66 394.52 183.53 394.6C182.76 405.96 181.72 416.26 180.63 426.23C179.53 436.28 178.05 445.97 175.12 454.96C170.14 470.21 160.85 480.22 152.78 492.68C150.99 495.45 149.53 497.05 149.01 500.81C148.46 504.81 149.68 509.35 150.46 513.58C152.19 522.84 154.16 533.21 155.97 542.31C160.14 521.86 168.25 504.31 176.57 487.75C180.8 479.33 185.04 471.18 189.63 463.08C193.03 457.07 196.25 451.11 199.49 444.8C200 443.82 200.68 442.8 201.23 441.9C201.81 440.94 202.18 439.76 203.26 439.29C208.41 451.21 207.05 469.73 204.42 483.98C203.15 490.87 201.7 497.06 199.2 502.84C195.84 510.63 191.67 518 186.43 524.31C186.23 524.54 186.04 524.6 185.85 524.89C185.43 525.53 184.52 526.72 183.82 527.5C180.36 531.37 175.58 535.52 171.05 538.82C168.99 540.32 167.59 541.33 165.25 542.3C163.75 542.92 161.9 543.06 160.32 543.75C158.9 544.37 157.1 545.6 156.84 546.65C156.54 547.85 157.52 551.14 158 553.61C160.26 565.26 162.43 575.75 165.26 586.98C169.57 604.11 174.11 621.45 178.9 638.35C180.05 642.41 181.36 646.72 181.51 651.12C179.78 650.12 179.77 647.38 179.19 645.32C178.07 641.34 176.55 637.4 175.42 633.42C174.81 631.29 174.58 629.13 173.97 627.04C171.58 618.9 169.11 610.72 167 602.37C162.75 585.51 158.73 568.28 155.39 550.72C154.72 551 154.27 552.2 153.94 553.04C152.95 555.57 152.22 558.64 151.33 561.45C150.16 565.12 148.8 568.89 148.71 573.35C148.59 580.35 150.33 587.5 151.61 594.53C154.04 607.88 156.85 620.91 160.02 634C161.61 640.54 163.39 647.27 163.22 654.02C161.56 653.25 161.66 650.92 161.48 649.67C161.22 647.91 161.24 646.1 160.9 644.45C160.31 641.6 159.41 638.37 158.58 634.88C155.64 622.57 152.27 609.85 149.87 596.58C148.98 591.65 147.95 586.59 147.26 581.49C147.02 579.71 147.14 577.93 146.68 576.27C146.18 574.46 144.67 572.48 143.2 570.18C142.14 568.5 141.02 566.7 140.01 564.96C138.33 562.06 134.67 559.36 131.02 557.41C128.25 555.94 125.68 554.51 123.18 554.22C120.53 553.91 117.82 554.4 115.35 554.22C107.41 553.65 99.8604 550.22 93.8704 546.96C87.4104 543.44 82.1605 539 77.9105 534.19C76.7605 532.88 75.4004 531.75 74.4304 530.42C73.3704 528.97 72.5004 527.55 71.5304 526.07C65.9304 517.53 60.8205 508.76 55.5705 499.08C74.3205 507.43 92.0905 517.83 108.39 528.68C112.04 531.11 115.35 533.69 118.84 536.52C122.41 539.41 126.26 542.83 129.58 546.39C133.49 550.58 136.68 556.28 140.03 561.48C140.58 562.34 140.85 562.97 141.48 564.09C142.92 566.64 144.85 570.01 146.7 572.8C147.68 563.7 150.33 556.87 153.37 549.29C153.75 548.33 154.47 547.03 154.53 546.39C154.69 544.7 153.51 541.08 153.08 538.85C152.52 535.96 152.15 533.06 151.63 531.3C150.7 528.11 148.73 524.09 147.28 520.85C146.24 518.53 144.94 515.92 143.8 513.31C143.43 512.45 143.28 511.26 142.93 510.7C141.89 509.05 139.5 507.77 137.42 506.35C133.5 503.68 129.49 501.28 124.07 499.96C121.37 499.31 118.44 499.12 115.65 498.51C105.26 496.24 94.4605 492.32 87.2105 487.77C78.1505 482.09 72.5305 475.42 67.1905 468.33C64.2805 464.46 61.6004 460.69 59.6504 456.14C57.8404 451.92 55.8604 447.49 54.1404 442.22C63.8904 446.1 73.3305 450.34 82.5805 455.28C86.8605 457.56 92.1905 460.46 96.8005 463.12C110.93 471.25 124 481.91 134.52 494.17C138.09 498.33 140.93 502.44 143.22 507.52C145.42 512.37 147.65 517.38 149.6 522.9C149.95 521.13 149.33 519.35 149.02 517.68C148.05 512.43 147.15 506.76 146.12 501.43C144.76 494.42 142.71 488.05 140.61 481.7C139.51 478.4 138.71 475.17 137.42 472.12C134.49 465.23 129.95 458.47 125.52 452.39C124.64 451.18 123.77 449.83 122.9 448.91C121.55 447.47 118.77 445.57 116.81 444.27C114.58 442.79 112.03 441.3 109.85 440.5C104.36 438.48 97.3404 438.93 91.2804 437.88C72.9404 434.72 57.4304 431.01 43.4004 422.79C36.5104 418.76 30.8604 414.52 25.1204 409.44C23.2404 407.77 21.2204 406.26 19.6104 404.51C17.9304 402.69 16.5605 400.64 14.9705 398.71C12.7105 395.96 9.96045 393.39 7.42045 390.58C6.78045 389.87 6.02045 389.35 5.39045 388.55C4.27045 387.12 2.66045 385.37 1.33045 383.62C1.09045 383.3 0.210449 382.74 0.750449 382.17C15.0304 387.3 30.8604 388.8 45.1504 392.32C59.2204 395.79 70.8904 400.03 81.4304 407.12C82.0804 407.56 82.5504 408.14 83.1704 408.57C84.5804 409.55 86.2405 410.23 87.5205 411.18C88.8205 412.14 89.7705 413.36 91.0005 414.37C91.2705 414.59 91.8705 414.7 92.1605 414.95C92.7605 415.47 93.1504 416.03 93.9004 416.69C95.2204 417.84 97.0204 419.11 98.5404 420.46C103.27 424.66 107.9 429.15 112.18 433.81C114.36 436.18 116.7 438.38 118.85 440.78C125.13 447.76 130.86 455.69 135.97 464.29C135.66 462.11 134.8 460.03 134.23 457.91C131.23 446.77 127.92 435.56 124.94 423.96C124.37 421.73 123.65 419.35 123.2 416.99C122.73 414.58 122.63 412.08 121.75 410.02C121.08 408.47 119.76 406.86 118.56 405.38C116.14 402.42 112.87 400.21 110.14 397.26C106.98 393.84 104.02 389.17 101.15 385.07C91.3004 371 79.6704 355.77 77.6404 333.13C77.1304 327.46 76.7304 321.06 77.0604 314.85C77.2004 312.34 77.8205 309.38 78.2205 306.44C78.4805 304.53 78.7205 296.83 80.8305 297.44C82.5105 297.93 82.4004 298.84 83.1504 300.64C86.6104 308.88 89.7605 320.24 92.4405 328.21C96.1305 339.21 100.25 349.07 104.34 358.39C108.72 368.37 113.2 378.17 116.53 388.28C120.03 398.91 123.21 409.65 126.1 420.78L126.07 420.74Z" fill="white"/>
</mask>
<g mask="url(#mask4_1044_1477)">
<g style="mix-blend-mode:soft-light" opacity="0.5">
<path fill-rule="evenodd" clip-rule="evenodd" d="M176.971 313.67C177.221 313.62 177.241 313.78 177.261 313.96C178.841 319.08 177.411 325.74 176.101 331.66C172.471 347.98 167.131 363.81 158.691 375.48C154.961 380.64 150.461 384.78 146.211 389.7C144.581 391.59 143.131 393.91 141.571 396.38C140.301 398.39 138.911 400.08 138.091 402.47C137.011 405.63 136.661 411.43 134.321 411.46C131.531 411.51 131.961 406.43 132.281 404.21C133.431 396.38 139.151 388.98 143.601 383.61C148.331 377.9 153.561 372.35 157.241 365.62C161.231 358.31 164.141 350.29 166.231 342.98C168.061 336.58 169.471 330.35 171.451 324.41C172.121 322.4 172.591 320.33 173.491 318.61C174.471 316.73 176.131 315.32 176.971 313.68V313.67Z" fill="black"/>
</g>
<g style="mix-blend-mode:soft-light" opacity="0.5">
<path fill-rule="evenodd" clip-rule="evenodd" d="M149.11 317.74C149.36 317.69 149.38 317.85 149.4 318.03C151.23 323.51 148.96 330.75 147.37 336.02C145.2 343.19 142.67 350.31 138.96 356.04C137.38 358.49 135.86 360.54 133.74 363.01C132.38 364.59 130.41 366.98 128.81 366.2C126.95 365.3 128.71 361.57 129.39 360.4C129.72 359.82 131.88 356.89 132.58 355.76C134.73 352.27 136.36 349.02 137.8 345.31C139.41 341.19 140.73 337.17 141.86 333.41C143.14 329.17 144.1 324.95 145.92 321.8C146.88 320.14 148.42 319.26 149.11 317.74Z" fill="black"/>
</g>
<g style="mix-blend-mode:soft-light" opacity="0.5">
<path fill-rule="evenodd" clip-rule="evenodd" d="M74.5296 329.05C75.6296 329.05 76.1296 330.88 76.5596 331.95C79.0496 338.13 82.6296 342.66 87.0096 347.62C95.9096 357.7 104.03 369.64 109.06 385.34C110.22 388.96 111.13 392.47 112.25 396.95C112.67 398.62 113.26 399.36 113.7 403.04C114.11 406.45 113.39 407.63 111.96 407.97C106.84 409.2 106.92 399.36 105.57 396.65C104.88 396.6 104.38 397.49 102.67 396.94C100.34 396.19 97.6896 389.99 95.9996 386.2C92.2396 377.79 89.4696 370.81 85.5496 362.11C83.5696 357.73 81.0896 353.59 80.3296 350.21C79.9996 348.74 80.2996 347.35 80.0396 346.44C79.4296 344.28 77.5696 342.44 76.5596 340.35C75.3696 337.91 72.8296 332.58 74.5296 329.03V329.05Z" fill="black"/>
</g>
<g style="mix-blend-mode:soft-light" opacity="0.5">
<path fill-rule="evenodd" clip-rule="evenodd" d="M21.1397 387.38C21.5997 386.23 21.8997 384.5 23.1697 384.18C24.4697 383.86 26.4498 385.7 28.0998 385.92C32.9798 386.58 39.3498 386.85 44.3498 387.95C46.0498 388.32 47.6397 389.24 48.9897 389.4C51.1298 389.65 53.5298 389.03 55.9598 388.82C62.3198 388.28 72.1998 387.29 76.8498 390.85C77.7598 391.54 79.3397 393.35 79.1697 394.04C78.5897 396.42 71.8897 395.12 68.7297 394.91C57.7497 394.16 46.5997 396.94 37.9697 396.94C29.3397 396.94 21.7898 394.33 16.4898 390.56C14.7198 389.3 12.3097 387.34 10.6797 385.34C9.75974 384.2 8.02974 382.45 9.22974 381.57C9.51974 381.35 9.86974 380.74 10.6797 380.99C13.6697 381.91 18.2798 386.31 21.1298 387.37L21.1397 387.38Z" fill="black"/>
</g>
<g style="mix-blend-mode:soft-light" opacity="0.5">
<path fill-rule="evenodd" clip-rule="evenodd" d="M176.969 448.32C183.659 437.02 187.189 420.61 191.189 405.95C192.399 401.49 193.059 397.36 196.409 394.63C196.659 394.42 197.129 393.78 197.569 394.05C200.899 399.04 196.979 411.16 195.539 416.97C193.079 426.86 190.769 435.13 187.119 443.38C185.859 446.22 184.959 449.04 183.639 451.51C183.329 452.08 182.839 452.59 182.479 453.25C181.609 454.84 180.469 456.97 179.279 458.76C178.559 459.86 177.799 461.08 176.959 462.24C176.149 463.36 174.849 464.29 174.349 465.43C173.969 466.31 173.759 468.01 173.479 468.91C172.009 473.74 169.759 479.58 166.799 483.71C165.609 485.37 163.469 487.55 161.289 486.61C159.599 485.88 161.119 484.8 162.109 482.94C160.849 483.46 160.459 486.17 159.919 486.85C158.679 488.4 158.539 487.81 157.039 490.04C156.769 490.44 155.789 491.01 155.389 491.53C154.999 492.03 153.929 492.52 153.899 492.69C153.669 494.31 157.139 498.76 154.319 500.55C152.399 501.76 150.519 497.91 149.969 496.78C147.149 490.96 145.409 484.15 143.869 477.34C141.719 467.8 139.759 455.93 140.389 446.58C140.659 442.47 142.079 438.54 143.289 435.84C146.059 442.9 145.879 451.65 146.769 459.93C147.659 468.17 149.529 476 150.829 483.14C152.019 482.6 152.159 481.27 152.859 480.24C154.649 477.61 157.169 474.82 159.529 472.12C161.749 469.58 164.249 467.09 166.499 464.28C168.189 462.17 168.769 460.77 169.399 457.03C170.169 452.5 170.699 447.31 171.429 442.81C173.459 430.37 177.669 420.62 180.999 408.86C182.189 404.67 183.279 399.96 184.199 395.51C184.599 393.53 184.469 390.41 186.519 390.87C190.109 391.68 187.299 403.01 186.809 405.38C185.399 412.19 184.729 414.77 183.329 419.6C180.509 429.31 177.459 437.16 176.949 448.33L176.969 448.32Z" fill="black"/>
</g>
<g style="mix-blend-mode:soft-light" opacity="0.5">
<path fill-rule="evenodd" clip-rule="evenodd" d="M106.74 433.23C106.84 431.93 105.68 430.82 105 429.46C103.67 426.82 102.35 424.78 101.23 421.33C100.79 419.99 99.8003 417.98 101.23 417.27C104.76 415.5 110.54 426.64 111.68 428.59C112.87 430.64 114.38 433.39 115.45 435.56C116.15 436.97 118.02 437.54 119.24 438.98C119.72 439.55 121.44 438.28 120.47 441.07C120.58 440.75 121.12 441.88 122.13 442.23C123.15 442.58 124.99 445.72 125.9 447.45C126.86 449.26 128.23 451.95 128.51 453.83C128.69 455.02 128.32 456.05 128.51 457.02C128.91 459.07 130.84 461.4 131.41 463.69C132.25 467.1 131.65 471.16 129.67 471.53C127.41 471.94 125.46 468.24 124.74 466.89C123.62 464.82 122.94 462.11 121.84 460.22C121.05 458.86 119.35 456.97 117.78 455.28C111.58 448.64 103.25 443.83 91.9503 441.06C89.8403 440.54 87.8903 440.21 86.1403 439.03C85.4903 438.59 85.2503 438.26 84.6903 438.16C83.1203 437.88 80.3203 438.88 78.3103 439.03C76.3103 439.18 73.5303 439.13 71.3403 439.03C70.2003 438.98 68.6003 438.48 67.8603 438.74C66.9103 439.07 67.0703 440.08 66.4103 440.77C62.5403 444.77 58.9403 438.12 55.6703 435.26C52.8303 432.76 48.7103 430.26 44.9303 427.42C43.1803 426.1 41.4303 424.7 39.7103 423.36C37.8103 421.88 35.6703 420.5 34.4903 419.3C33.5703 418.36 33.0703 416.77 32.4603 416.4C31.1103 415.58 27.9903 415.78 26.0803 415.24C25.2703 415.01 20.4503 413.01 22.6003 411.47C25.3303 409.52 33.9603 411.27 36.8203 412.05C38.6603 412.56 40.5603 413.11 42.0403 413.79C45.2203 415.25 47.8703 417.35 50.4503 419.3C51.7003 420.25 53.2603 421.08 54.5103 422.2C55.7603 423.31 56.8903 424.57 57.9903 425.68C59.2703 426.97 61.3303 429.33 62.9203 431.2C64.1703 432.67 63.9903 432.85 66.4003 433.23C79.1903 435.26 94.5903 428.33 106.74 433.23Z" fill="black"/>
</g>
<g style="mix-blend-mode:soft-light" opacity="0.5">
<path fill-rule="evenodd" clip-rule="evenodd" d="M163.33 410.89C166.29 417.3 164.96 428.5 162.46 435.27C161.08 438.99 158.41 443.13 155.5 443.68C153.46 444.07 151.48 443.45 151.15 442.52C150.28 440.13 153.94 439.09 154.92 437.88C155.15 437.6 155.85 436.56 156.08 436.14C158.5 431.75 159.05 420.02 161.59 414.08C162 413.12 162.76 412.54 163.04 411.76C163.17 411.4 162.87 410.89 163.33 410.89Z" fill="black"/>
</g>
<g style="mix-blend-mode:soft-light" opacity="0.5">
<path fill-rule="evenodd" clip-rule="evenodd" d="M115.739 504.91C114.869 504.53 115.359 505.77 114.869 506.07C114.669 506.19 113.379 506.33 113.129 506.36C111.229 506.6 108.099 505.34 105.869 504.04C103.809 502.83 101.839 501.08 100.359 499.98C90.7694 492.85 83.2794 486.3 74.5294 477.93C72.8394 476.32 70.4994 474.42 69.8894 473C69.7094 472.59 69.7494 470.96 69.5994 470.68C69.2294 469.95 68.1394 469.05 67.2794 468.36C66.5594 467.77 65.7294 466.95 64.9594 466.04C64.4894 465.48 64.2094 464.8 63.7994 464.3C62.8594 463.15 61.6894 462.26 60.8994 461.11C58.2794 457.34 56.5794 453.5 54.5194 449.5C54.3694 449.21 53.8294 448.98 53.6494 448.63C53.1994 447.76 52.9294 446.58 52.4894 445.43C51.8394 443.76 49.9494 440.49 52.7794 439.92C55.0194 439.46 57.1094 444.32 57.9994 445.72C62.2494 452.36 66.7294 459.82 72.2194 464.58C76.1894 468.03 80.7494 470.78 85.8594 472.99C95.7994 477.29 107.029 481.03 116.619 486.05C119.709 487.67 123.269 489.68 125.909 492.15C126.319 492.54 127.579 493.07 128.229 493.6C132.549 497.13 136.189 501.82 139.839 506.66C141.619 509.02 142.829 510.1 144.479 513.04C145.649 515.14 146.939 520.06 144.479 520.87C140.899 522.05 137.459 514.78 135.769 512.46C135.089 511.51 133.569 509.64 133.159 509.56C133.459 509.62 131.309 509.95 130.839 510.14C130.019 510.47 130.319 512.08 128.809 512.46C126.269 513.11 123.359 510.54 121.549 509.27C119.239 507.65 117.429 506.23 115.749 504.91H115.739Z" fill="black"/>
</g>
<g style="mix-blend-mode:soft-light" opacity="0.5">
<path fill-rule="evenodd" clip-rule="evenodd" d="M206.57 470.95C212.34 471.65 208.64 480.31 208.31 484.3C208.91 484.5 209.25 483.51 209.47 483.14C210.47 481.42 211.35 479.41 212.37 477.34C213.51 475.04 215.01 471.07 218.46 471.82C223.18 472.84 219.01 480.33 217.88 482.56C217.32 483.67 216.78 484.89 216.14 486.04C215.4 487.37 214.31 488.6 214.11 489.23C213.95 489.75 214.19 490.88 214.11 491.55C213.48 496.77 210.36 501.75 207.73 505.77C206.51 507.62 205.29 509.42 203.95 510.99C202.53 512.66 200.68 513.96 199.6 515.63C198.84 516.8 198.32 518.5 197.57 519.98C195.96 523.15 191.46 532.55 187.12 529.85C186.5 529.47 186.15 528.69 185.96 528.69C185.1 528.68 182.55 531.26 180.74 532.75C176.12 536.56 173.42 539.85 169.13 543.78C168.73 544.14 168.13 544.26 167.68 544.65C166.79 545.42 167.05 545.73 165.65 546.1C165.62 546.1 164.45 546.31 164.78 546.1C163.5 546.92 163.55 548.45 162.17 548.42C158.92 548.36 159.93 541.85 160.72 539.71C162.03 536.18 165.32 532.52 168.85 529.26C177.37 521.4 186.46 513.54 194.39 504.31C195.2 503.36 196.19 502.65 196.42 501.99C197.06 500.17 196.72 497.54 196.71 495.02C196.7 492.54 196.56 489.82 196.71 487.19C197.14 479.45 200.42 471.66 202.51 464.55C203.65 460.69 205.08 455.44 205.41 450.91C205.69 447.07 205.25 443.7 205.41 441.04C205.43 440.77 204.91 440.26 206.57 440.17C208.82 440.05 209.63 446.84 209.76 448.59C210.4 457.45 208.71 463.99 206.57 470.93V470.95Z" fill="black"/>
</g>
<g style="mix-blend-mode:soft-light" opacity="0.5">
<path fill-rule="evenodd" clip-rule="evenodd" d="M130.539 533.93C124.869 537.75 112.789 534.1 106.449 532.19C100.679 530.45 94.4594 528.14 89.6194 525.52C82.1494 521.48 76.7594 515.4 71.6294 508.11C70.6094 506.65 65.4394 499.69 69.0194 499.69C71.6594 499.69 75.0894 504.52 75.9794 505.5C81.8394 511.85 88.5094 513.01 98.3094 517.16C104.379 519.74 108.619 525.64 114.289 526.97C119.699 528.24 126.319 528.76 129.669 532.48C129.979 532.83 131.089 533.13 130.539 533.93Z" fill="black"/>
</g>
<g style="mix-blend-mode:soft-light" opacity="0.5">
<path fill-rule="evenodd" clip-rule="evenodd" d="M118.349 551.05C118.349 551.05 118.459 550.78 118.639 550.76C125.009 549.91 132.419 553.88 135.179 556.56C137.079 558.41 139.859 562.44 141.269 565.56C142.619 568.53 145.019 575.19 140.689 575.71C137.499 576.09 136.919 572.17 135.759 569.04C134.349 565.26 131.009 560.07 127.629 558.01C125.659 556.81 122.179 555.6 118.639 555.98C117.179 556.14 115.879 556.92 113.699 557.72C111.709 558.46 110.029 559.43 109.059 557.43C107.889 555.02 114.989 551.51 116.899 551.05C117.349 550.94 117.879 551.12 118.349 551.05Z" fill="black"/>
</g>
<path style="mix-blend-mode:soft-light" opacity="0.7" d="M285.321 498.896C383.077 401.14 383.077 242.646 285.321 144.89C187.565 47.1336 29.0715 47.1336 -68.6845 144.89C-166.441 242.646 -166.441 401.14 -68.6845 498.896C29.0715 596.652 187.565 596.652 285.321 498.896Z" fill="url(#paint8_radial_1044_1477)"/>
</g>
<mask id="mask5_1044_1477" style="mask-type:luminance" maskUnits="userSpaceOnUse" x="45" y="551" width="108" height="105">
<path d="M45.9807 551.32C49.6707 551.71 53.3607 554.19 57.0107 556.25C66.4707 561.61 76.4807 566.75 87.1907 571.34C99.1107 576.45 118.231 583.14 124.911 594.26C126.291 596.56 127.221 599.47 128.391 602.1C128.951 603.35 129.571 604.57 130.131 605.87C132.751 611.94 135.531 618.51 138.541 625.02C139.141 626.31 139.731 627.74 140.281 629.08C142.811 635.2 146.081 641.71 149.271 647.65C149.821 648.67 151.491 651.37 152.171 653.16C152.091 652.96 153.341 657.03 151.011 654.32C150.311 653.5 148.861 650.19 148.401 649.39C147.031 647 145.511 644.68 144.631 643C140.871 635.83 138.671 629.9 134.761 623.27C134.561 622.92 134.271 622.49 133.891 621.82C132.041 618.6 129.891 615.57 127.501 611.95C126.261 610.07 124.931 607.33 123.441 606.73C121.401 605.91 117.991 606.35 115.611 606.15C98.5007 604.73 85.5807 597.7 74.7007 589.32C65.6807 582.37 57.7207 573.73 51.4807 562.91C50.5407 561.29 49.5607 559.49 48.5807 557.69C47.4507 555.62 46.2507 554 45.9707 551.31L45.9807 551.32Z" fill="white"/>
</mask>
<g mask="url(#mask5_1044_1477)">
<g style="mix-blend-mode:soft-light" opacity="0.5">
<path fill-rule="evenodd" clip-rule="evenodd" d="M45.2199 557.72C46.4699 556.47 48.3999 559.4 48.6999 559.75C50.7099 562.04 53.7999 565.87 56.2499 567.58C58.9699 569.49 62.4699 570.55 65.5399 572.22C66.9199 572.97 68.2399 574.14 69.5999 575.12C72.6999 577.34 74.8299 579.3 77.4299 582.37C78.4599 583.58 79.6699 585 80.6299 586.43C82.4099 589.12 86.4699 592.48 89.9099 594.27C96.2699 597.56 104.68 599.05 110.22 604.42C110.06 604.26 110.26 605.36 111.09 605.29C111.23 605.28 112.55 603.52 112.83 603.26C115.1 601.17 118.49 601.15 121.54 603.26C123.97 604.95 125.63 607.96 126.76 611.39C127.27 612.93 128.87 618.63 125.6 619.23C121.47 619.97 120.94 612.53 119.22 609.65C118.68 608.75 117.65 606.64 116.61 607.04C115.64 607.42 115.33 609.63 115.74 612.26C115.98 613.83 117.75 616.31 117.48 618.64C117.37 619.56 116.9 621.19 115.74 621.54C114.12 622.03 112.5 620.13 111.68 619.22C110.01 617.35 110.38 617.88 109.07 615.73C106.01 610.72 104.49 608.07 99.1999 605.58C93.9799 603.11 88.1999 601.82 83.2399 598.32C80.0399 596.06 75.1799 593.72 72.4599 590.13C71.3999 588.74 63.3699 589.68 62.1599 588.24C59.5699 585.18 62.2399 579.42 58.3899 577.21C52.9699 574.1 50.4099 570.44 47.2699 564.94C46.6599 563.87 43.7499 559.17 45.2399 557.68L45.2199 557.72Z" fill="black"/>
</g>
</g>
<mask id="mask6_1044_1477" style="mask-type:luminance" maskUnits="userSpaceOnUse" x="182" y="516" width="55" height="137">
<path d="M191.65 652.89C191.57 642.47 191.81 632.94 191.07 623.29C190.65 617.84 188.99 613.29 188.17 607.91C186.41 596.37 181.74 584.78 182.66 571.06C183.67 556.01 195.28 547.31 204.71 540.3C210.01 536.37 215.17 532.87 219.8 528.98C222.76 526.5 225.75 523.88 228.8 521.15C230.41 519.7 231.96 518.09 234.02 516.8C235.1 516.12 236.34 515.94 236.63 517.67C236.88 519.22 235.46 522.8 234.89 524.35C234.26 526.04 233.53 527.15 233.15 528.12C232.47 529.82 232.72 529.98 231.7 532.18C229.14 537.7 226.17 542.24 223.58 546.4C220.65 551.1 217.73 555.43 214.29 559.46C213.4 560.49 212.61 561.56 211.68 562.65C209.41 565.3 206.43 568.68 204.71 572.22C200.19 581.57 199.28 595.62 196.01 606.47C195.44 608.34 194.75 610.07 194.27 611.98C193.81 613.81 193.03 615.83 192.82 617.49C192.46 620.37 193.01 623.57 193.11 626.78C193.33 633.76 194.21 642.51 193.11 649.71C192.96 650.69 193.27 652.72 191.66 652.9L191.65 652.89Z" fill="white"/>
</mask>
<g mask="url(#mask6_1044_1477)">
<g style="mix-blend-mode:soft-light" opacity="0.5">
<path fill-rule="evenodd" clip-rule="evenodd" d="M260.541 460.8C260.871 460.86 260.701 461.09 260.541 461.09C258.271 466.88 253.801 471.4 250.101 476.76C246.671 481.72 243.751 487.36 241.681 494.17C238.241 505.54 237.001 519.12 235.881 533.93C235.761 535.49 235.041 539.26 235.301 539.73C235.811 540.65 237.021 539.35 237.911 540.6C238.341 543.93 235.621 544.39 235.011 546.98C234.561 548.91 234.871 551.75 235.011 553.95C235.191 556.93 236.201 559.96 235.881 562.07C235.591 563.98 234.301 566.03 231.241 565.55C228.531 565.13 228.121 562.9 227.761 559.75C227.601 558.29 228.151 555.8 227.471 555.11C226.971 554.61 223.781 557.57 223.701 558.01C223.611 558.49 224.681 560.86 225.151 562.07C225.701 563.5 226.171 564.88 226.601 566.13C227.061 567.46 228.051 568.97 228.051 570.19C228.051 572.39 226.371 574.84 223.411 573.38C222.891 573.12 222.681 571.97 221.961 571.64C221.691 571.52 220.951 571.75 220.511 571.64C218.891 571.22 218.381 570.41 217.321 567.87C216.681 566.34 216.631 564.39 216.161 564.1C215.051 563.4 213.031 566.16 212.391 566.71C210.871 568.02 209.441 568.97 208.621 569.9C204.631 574.45 202.301 579 201.651 587.31C201.301 591.76 201.001 598.89 199.911 603.85C199.371 606.3 199.311 607.81 197.881 607.91C195.711 608.06 195.681 605.27 195.561 600.94C195.441 596.56 195.531 590.02 195.851 585.27C196.591 574.2 201.541 568.72 207.751 562.64C208.361 562.03 209.351 560.82 210.651 559.74C211.291 559.21 213.761 557.7 213.841 557.42C213.971 556.95 212.651 553.55 212.101 551.62C210.651 546.6 208.411 538.71 208.041 533.92C207.701 529.53 208.241 522.7 212.391 525.21C212.681 525.39 213.051 525.26 213.261 525.5C213.421 525.69 213.321 526.28 213.551 526.37C214.211 526.65 215.521 525.74 216.451 526.95C217.071 527.75 217.081 530.92 217.321 533.33C217.871 538.98 219.061 542.77 220.511 547.84C220.851 549.02 220.871 550.59 221.091 550.74C221.841 551.28 221.721 550.77 222.541 550.16C223.391 549.52 226.101 547.53 226.311 546.68C226.511 545.87 225.761 542.73 225.441 540.3C224.121 530.03 223.701 521.59 223.701 509.83C223.701 505.04 223.371 501.19 225.441 500.55C231.251 498.74 229.891 511.25 230.661 515.06C233.861 490.21 241.411 469.71 260.551 460.8H260.541Z" fill="black"/>
</g>
</g>
<path fill-rule="evenodd" clip-rule="evenodd" d="M245.66 625.13C361.45 625.13 455.31 633.48 455.31 643.77C455.31 654.06 361.45 662.41 245.66 662.41C129.87 662.41 36.0098 654.07 36.0098 643.77C36.0098 633.47 129.87 625.13 245.66 625.13Z" fill="#E2E2F2"/>
<g clip-path="url(#clip0_1044_1477)">
<path d="M296.657 89.1834C287.868 73.6668 284.927 57.7743 285.084 51.3928C285.111 50.877 285.128 50.3613 285.146 49.8455C285.189 48.9626 285.242 48.4731 285.242 48.4731H285.172C285.181 21.7058 263.996 0 237.857 0C211.718 0 190.525 21.7058 190.525 48.4731C190.525 49.828 190.595 51.1743 190.7 52.503C190.752 59.4877 187.434 74.506 179.109 89.1834C168.762 107.436 167.659 126.721 188.205 134.483C188.205 134.483 188.31 134.518 188.459 134.571C190.393 135.287 192.494 135.908 194.814 136.415C195.357 136.529 195.882 136.616 196.416 136.721C210.273 139.982 244.571 144.851 277.083 137.123C278.361 136.922 279.657 136.704 280.97 136.415C284.612 135.62 287.737 134.553 290.442 133.259C290.459 133.259 290.485 133.242 290.503 133.242H290.494C307.976 124.789 306.488 106.536 296.666 89.1922L296.657 89.1834Z" fill="black"/>
<path d="M254.524 140.34C251.233 136.319 248.624 129.78 247.679 122.883C246.619 115.182 248.178 107.41 248.178 107.41H223.168C223.168 107.41 225.636 115.042 224.498 122.367C223.238 130.532 219.097 140.419 218.073 141.101C212.348 144.869 208.829 148.129 204.881 152.247C204.881 152.247 195.637 171.452 218.073 170.998C240.509 170.543 262.692 150.761 263.374 149.204C258.612 147.29 257.282 143.706 254.524 140.34Z" fill="url(#paint9_linear_1044_1477)"/>
<path d="M199.243 61.6292C199.243 61.6292 192.143 56.1219 186.908 62.6695C181.175 69.829 192.843 90.713 204.889 81.4118L199.243 61.6292Z" fill="#FFC2B3"/>
<path d="M200.522 77.7663C200.224 77.7663 199.944 77.6089 199.804 77.3292C195.794 69.5228 190.665 69.1556 190.455 69.1381C190.008 69.1119 189.667 68.736 189.684 68.2902C189.702 67.8444 190.052 67.4859 190.525 67.5209C190.778 67.5297 196.775 67.8793 201.248 76.5861C201.45 76.9795 201.292 77.469 200.898 77.6788C200.775 77.74 200.653 77.7663 200.53 77.7663H200.522Z" fill="#F48073"/>
<path d="M275.847 61.6292C275.847 61.6292 282.947 56.1219 288.182 62.6695C293.916 69.829 282.247 90.713 270.201 81.4118L275.847 61.6292Z" fill="#FFC2B3"/>
<path d="M274.569 77.7665C274.446 77.7665 274.315 77.7403 274.201 77.6791C273.798 77.478 273.65 76.9885 273.851 76.5864C278.324 67.8796 284.321 67.5299 284.575 67.5212C284.977 67.5037 285.397 67.8446 285.415 68.2992C285.432 68.745 285.091 69.1209 284.645 69.1384C284.417 69.1471 279.305 69.5318 275.295 77.3294C275.155 77.6091 274.866 77.7665 274.578 77.7665H274.569Z" fill="#F48073"/>
<path d="M237.707 88.8163C262.89 88.8163 283.306 68.9341 283.306 44.4081C283.306 19.8822 262.89 0 237.707 0C212.523 0 192.107 19.8822 192.107 44.4081C192.107 68.9341 212.523 88.8163 237.707 88.8163Z" fill="black"/>
<path d="M199.172 39.4428C199.172 39.4428 194.366 111.693 236.131 111.693C281.31 111.693 276.566 39.4428 276.566 39.4428C276.566 39.4428 276.312 8.56689 237.514 8.56689C201.956 8.56689 199.163 39.4428 199.163 39.4428H199.172Z" fill="url(#paint10_linear_1044_1477)"/>
<path d="M263.217 14.2139C263.217 14.2139 248.003 35.1504 279.946 56.0956C279.946 56.0956 280.515 21.3209 263.217 14.2139Z" fill="black"/>
<path d="M237.182 83.099H234.091C233.645 83.099 233.277 82.7406 233.277 82.2861C233.277 81.8315 233.636 81.4731 234.091 81.4731H237.182C237.462 81.4731 237.724 81.3594 237.908 81.1496C238.092 80.9398 238.18 80.6688 238.153 80.3978L237.435 73.5006C237.392 73.0548 237.716 72.6614 238.162 72.6089C238.608 72.5652 239.002 72.8887 239.055 73.3345L239.773 80.2318C239.852 80.9661 239.606 81.6916 239.116 82.2424C238.626 82.7843 237.917 83.099 237.182 83.099Z" fill="#F48073"/>
<path d="M223.893 66.9807C224.31 65.2088 223.209 63.435 221.435 63.0187C219.661 62.6025 217.884 63.7014 217.468 65.4733C217.051 67.2452 218.151 69.0191 219.926 69.4353C221.7 69.8516 223.476 68.7526 223.893 66.9807Z" fill="black"/>
<path d="M256.898 66.5946C257.108 64.7866 255.811 63.1508 254 62.941C252.19 62.7312 250.552 64.0267 250.341 65.8347C250.131 67.6427 251.429 69.2785 253.239 69.4883C255.05 69.6982 256.688 68.4026 256.898 66.5946Z" fill="black"/>
<path d="M209.213 56.0959L229.942 54.1028C229.942 54.1028 227.964 48.377 219.017 49.3036C209.869 50.2565 209.213 56.0872 209.213 56.0872V56.0959Z" fill="black"/>
<path d="M264.94 56.0959L244.211 54.1028C244.211 54.1028 246.189 48.377 255.136 49.3036C264.284 50.2565 264.94 56.0872 264.94 56.0872V56.0959Z" fill="black"/>
<path d="M236.569 91.0017C229.749 91.0017 226.318 87.6012 226.151 87.4351C225.819 87.1029 225.828 86.5609 226.16 86.2287C226.493 85.8965 227.036 85.9053 227.359 86.2374C227.535 86.4123 231.64 90.4073 240.044 88.9911C240.508 88.9124 240.946 89.2271 241.024 89.6904C241.103 90.1537 240.788 90.5908 240.324 90.6695C238.967 90.8968 237.715 90.993 236.56 90.993L236.569 91.0017Z" fill="#F48073"/>
<path d="M195.506 49.0502C195.506 49.0502 258.394 48.7268 268.47 17.6411C268.47 17.6411 252.853 -3.27792 223.974 5.31523C195.103 13.9084 195.506 49.0502 195.506 49.0502Z" fill="black"/>
<path d="M223.903 605.673C223.29 605.979 216.97 614.904 217.276 619.983C217.635 626.286 218.126 632.134 220.086 635.517C224.262 642.738 241.288 641.628 241.017 638.507C241.288 634.573 235.581 633.76 235.169 630.631C234.443 624.8 235.196 618.453 236.395 614.747C231.309 607.36 223.903 605.664 223.903 605.664V605.673Z" fill="#454545"/>
<path d="M226.556 596.992C224.542 600.725 222.879 604.65 221.575 608.68C221.242 609.703 220.936 610.743 220.936 611.818C220.936 612.719 221.154 613.602 221.408 614.467C223.448 621.53 229.252 633.437 232.998 632.528C234.898 632.064 234.04 622.09 235.441 616.784C236.806 611.626 242.89 601.18 242.076 600.437C238.759 597.403 235.257 594.571 231.598 591.975L226.556 596.992Z" fill="#FECCB2"/>
<path d="M252.231 608.112L254.07 626.426C254.07 626.426 239.836 633.813 236.404 639.32C257.02 634.014 266.982 631.199 266.982 631.199L265.634 609.012L252.231 608.121V608.112Z" fill="#FECCB2"/>
<path d="M253.212 626.977C253.212 626.977 228.788 636.47 233.41 642.17C236.623 646.13 267.664 634.704 267.664 634.704L266.981 631.199C248.467 636.155 246.917 636.339 244.965 634.302C243.013 632.257 253.212 626.977 253.212 626.977Z" fill="#454545"/>
<path d="M310.839 334.652C312.389 341.846 312.818 349.233 312.091 356.559C309.684 381.106 303.565 440.331 297.437 473.786C290.968 512.573 236.352 613.829 236.352 613.829L221.146 607.683C221.146 607.683 236.405 559.665 240.107 532.88C243.81 506.104 250.743 410.058 250.28 391.596C249.816 373.124 256.293 314.485 256.293 314.485L305.263 308.776L310.839 334.643V334.652Z" fill="url(#paint11_linear_1044_1477)"/>
<path d="M221.146 607.683L236.965 613.829C236.965 613.829 281.006 533.352 290.171 497.179C288.744 497.153 279.623 493.612 277.382 488.612C265.695 462.605 260.705 414.228 254.114 386.5C252.617 420.47 243.154 510.825 240.107 532.889C236.405 559.665 221.146 607.692 221.146 607.692V607.683Z" fill="#A51207"/>
<path d="M189.247 307.107C182.314 325.578 182.778 330.657 188.319 377.749C193.869 424.841 222.993 535.66 247.504 617.387C266.92 617.85 271.087 616.924 271.087 616.924C271.087 616.924 268.776 598.452 264.154 566.134C259.532 533.816 259.532 485.334 259.532 485.334C259.532 485.334 254.91 424.85 254.446 406.378C256.293 387.907 258.149 314.494 258.149 314.494L189.256 307.107H189.247Z" fill="#C1210D"/>
<path d="M275.026 248.24C273.538 232.05 291.422 183.577 282.975 137.272C274.282 133.207 258.647 131.966 258.647 131.966L236.071 144.65L217.933 133.216L191.986 144.248C191.986 144.248 194.542 176.898 200.679 195.641C206.815 214.383 218.616 232.758 218.309 245.373C218.003 257.987 204.426 274.089 193.728 293.304C206.457 309.878 238.75 329.346 248.23 328.979C257.711 328.62 306.26 309.878 305.262 308.794C293.996 281.293 276.357 262.664 275.035 248.249L275.026 248.24Z" fill="#E1EFFF"/>
<path d="M234.959 135.594L236.07 144.641L238.758 135.48L240.561 142.001L236.018 145.236L231.221 142.246L234.959 135.594Z" fill="#E6E6E6"/>
<path d="M234.959 135.594C234.959 135.594 231.405 147.85 225.364 145.918C219.324 143.986 212.732 135.48 212.732 135.48L219.569 124.833L234.959 135.594Z" fill="white"/>
<path d="M238.758 135.48C238.758 135.48 238.443 146.355 246.05 146.792C253.648 147.229 260.179 133.784 260.179 133.784L251.722 123.713L238.766 135.48H238.758Z" fill="white"/>
<path d="M191.986 144.239C191.986 144.239 175.388 147.718 177.034 194.032C177.034 208.832 167.291 244.14 166.748 254.63C166.205 265.129 188.09 276.161 192.108 249.787C196.126 223.413 201.781 198.403 201.51 188.446C201.239 178.489 197.501 149.615 191.986 144.23V144.239Z" fill="#E1EFFF"/>
<path d="M195.532 255.058C195.532 263.258 187.067 273.136 178.864 273.136C170.662 273.136 164 266.492 164 258.293C164 250.093 170.688 244.201 178.864 243.449C191.986 242.252 195.532 255.058 195.532 255.058Z" fill="#CFDDF1"/>
<path d="M282.974 137.272C282.974 137.272 305.796 141.94 304.176 184.993C304.877 207.844 317.929 234.174 320.178 258.302C320.555 262.314 298.714 258.328 297.103 254.359C289.583 235.818 283.167 203.019 281.547 194.111C279.928 185.212 277.372 151.469 282.965 137.263L282.974 137.272Z" fill="#E1EFFF"/>
<path d="M176.046 249.971C182.725 247.418 191.523 251.448 191.952 261.763C192.381 272.079 190.263 290.358 193.965 295.664C198.404 295.506 205.626 295.104 205.626 295.104L212.06 297.771C212.06 297.771 210.003 300.314 205.433 299.327C200.864 298.339 200.671 300.804 203.288 303.549L204.348 304.362L191.628 317.833C191.628 317.833 185.816 312.081 184.135 309.117C182.454 306.154 181.955 302.946 179.854 296.774C177.753 290.602 154.818 258.057 176.046 249.953V249.971Z" fill="#FECCB2"/>
<path d="M308.44 375.825C308.099 375.843 307.862 375.773 307.748 375.624C307.127 374.846 308.659 372.853 312.222 368.815C313.876 366.944 314.883 364.531 315.487 362.486C315.557 361.996 315.776 358.053 317.413 355.938C319.032 355.938 317.246 370.624 315.793 372.827C312.064 378.483 307.6 379.855 306.978 379.077C306.575 378.57 307.083 377.556 308.44 375.817V375.825Z" fill="#F79480"/>
<path d="M322.883 372.172C322.883 372.172 308.544 384.515 307.695 381.788C307.205 380.205 311.932 375.45 314.996 371.796C316.773 368.107 315.293 363.718 315.293 363.718C315.293 363.718 310.453 374.025 309.288 371.918C308.255 370.039 309.56 364.33 313.157 358.5C314.103 356.961 315.845 357.075 316.44 355.09C317 353.219 317.053 352.057 317.053 352.057C317.053 352.057 317.114 351.261 317.079 350.85C313.49 320.587 301.331 292.569 299.86 283.574C298.013 272.245 296.919 261.938 298.398 258.607C298.398 258.607 316.186 259.971 320.187 267.576C323.864 274.561 324.538 339.451 323.995 351.856C324.109 352.232 324.187 352.669 324.24 353.167C325.387 361.043 322.883 372.18 322.883 372.18V372.172Z" fill="#FECCB2"/>
<path d="M295.002 248.694L296.919 261.929L321.824 268.328L322.944 251.579L295.002 248.694Z" fill="#CFDDF1"/>
<path d="M204.348 304.371L186.568 323.366L207.543 306.941L204.348 304.371Z" fill="url(#paint12_linear_1044_1477)"/>
<path d="M248.23 328.97C248.694 328.952 249.271 328.883 249.902 328.778C250.497 294.405 251.189 236.08 249.385 220.354C247.529 204.208 241.594 164.118 238.469 143.304L236.079 144.65L235.887 144.528C239.038 165.543 244.842 204.767 246.672 220.668C248.44 236.063 247.748 294.632 247.162 328.935C247.547 328.97 247.906 328.987 248.23 328.97Z" fill="#B6C7DD"/>
<path style="mix-blend-mode:multiply" d="M213.137 211.253C213.137 211.253 251.855 203.692 278.371 208.526C276.69 224.497 239.862 242.776 213.137 211.253Z" fill="url(#paint13_radial_1044_1477)"/>
<path d="M258.98 181.409H277.18C277.18 181.409 275.543 200.405 268.076 198.63C260.609 196.856 258.98 181.409 258.98 181.409Z" fill="#CFDDF1"/>
<path d="M326.001 353.29C326.001 356.026 324.836 358.237 323.392 358.237C321.947 358.237 320.783 356.026 320.783 353.29C320.783 350.553 321.947 348.342 323.392 348.342C324.836 348.342 326.001 350.553 326.001 353.29Z" fill="#303030"/>
<path d="M326 353.29C326 355.772 325.134 357.792 324.074 357.792C323.015 357.792 322.148 355.772 322.148 353.29C322.148 350.807 323.015 348.788 324.074 348.788C325.134 348.788 326 350.807 326 353.29Z" fill="#454545"/>
<path d="M321.414 351.262L317.002 351.821L316.73 353.989L321.256 354.54L321.414 351.262Z" fill="#EDEDED"/>
<path d="M324.556 355.982L323.541 353.132L324.198 351.227L324.513 351.331L323.891 353.124L324.872 355.868L324.556 355.982Z" fill="#7D7D7D"/>
</g>
<defs>
<radialGradient id="paint0_radial_1044_1477" cx="0" cy="0" r="1" gradientUnits="userSpaceOnUse" gradientTransform="translate(340.558 647.615) rotate(7.35) scale(181.52 181.52)">
<stop stop-color="#A1B8C0"/>
<stop offset="1" stop-color="#31896A"/>
</radialGradient>
<radialGradient id="paint1_radial_1044_1477" cx="0" cy="0" r="1" gradientUnits="userSpaceOnUse" gradientTransform="translate(340.548 647.614) rotate(7.35) scale(181.51 181.51)">
<stop stop-color="#A1B8C0"/>
<stop offset="1" stop-color="#31896A"/>
</radialGradient>
<radialGradient id="paint2_radial_1044_1477" cx="0" cy="0" r="1" gradientUnits="userSpaceOnUse" gradientTransform="translate(340.549 647.614) rotate(7.35) scale(181.53 181.53)">
<stop stop-color="#A1B8C0"/>
<stop offset="1" stop-color="#31896A"/>
</radialGradient>
<radialGradient id="paint3_radial_1044_1477" cx="0" cy="0" r="1" gradientUnits="userSpaceOnUse" gradientTransform="translate(340.55 647.614) rotate(7.35) scale(181.51 181.51)">
<stop stop-color="#A1B8C0"/>
<stop offset="1" stop-color="#31896A"/>
</radialGradient>
<radialGradient id="paint4_radial_1044_1477" cx="0" cy="0" r="1" gradientUnits="userSpaceOnUse" gradientTransform="translate(441.282 156.989) rotate(7.35) scale(258.98 258.98)">
<stop/>
<stop offset="1" stop-color="#808080"/>
</radialGradient>
<radialGradient id="paint5_radial_1044_1477" cx="0" cy="0" r="1" gradientUnits="userSpaceOnUse" gradientTransform="translate(87.2104 306.19) scale(367.15 367.15)">
<stop stop-color="#ABC35F"/>
<stop offset="0.22" stop-color="#AAC263"/>
<stop offset="0.45" stop-color="#A9C06F"/>
<stop offset="0.67" stop-color="#A7BD83"/>
<stop offset="0.9" stop-color="#A5BAA0"/>
<stop offset="1" stop-color="#A4B8AF"/>
</radialGradient>
<radialGradient id="paint6_radial_1044_1477" cx="0" cy="0" r="1" gradientUnits="userSpaceOnUse" gradientTransform="translate(87.2098 306.2) scale(367.15 367.15)">
<stop stop-color="#ABC35F"/>
<stop offset="0.22" stop-color="#AAC263"/>
<stop offset="0.45" stop-color="#A9C06F"/>
<stop offset="0.67" stop-color="#A7BD83"/>
<stop offset="0.9" stop-color="#A5BAA0"/>
<stop offset="1" stop-color="#A4B8AF"/>
</radialGradient>
<radialGradient id="paint7_radial_1044_1477" cx="0" cy="0" r="1" gradientUnits="userSpaceOnUse" gradientTransform="translate(87.2107 306.19) scale(367.15 367.15)">
<stop stop-color="#ABC35F"/>
<stop offset="0.22" stop-color="#AAC263"/>
<stop offset="0.45" stop-color="#A9C06F"/>
<stop offset="0.67" stop-color="#A7BD83"/>
<stop offset="0.9" stop-color="#A5BAA0"/>
<stop offset="1" stop-color="#A4B8AF"/>
</radialGradient>
<radialGradient id="paint8_radial_1044_1477" cx="0" cy="0" r="1" gradientUnits="userSpaceOnUse" gradientTransform="translate(108.316 321.893) scale(250.32)">
<stop/>
<stop offset="1" stop-color="#808080"/>
</radialGradient>
<linearGradient id="paint9_linear_1044_1477" x1="233.173" y1="154.021" x2="233.173" y2="102.183" gradientUnits="userSpaceOnUse">
<stop stop-color="#F7C3AF"/>
<stop offset="0.77" stop-color="#F07C68"/>
</linearGradient>
<linearGradient id="paint10_linear_1044_1477" x1="237.856" y1="69.1123" x2="237.856" y2="104.193" gradientUnits="userSpaceOnUse">
<stop offset="0.28" stop-color="#F7C3AF"/>
<stop offset="1" stop-color="#F79480"/>
</linearGradient>
<linearGradient id="paint11_linear_1044_1477" x1="270.212" y1="340.806" x2="266.362" y2="496.794" gradientUnits="userSpaceOnUse">
<stop stop-color="#C1210D"/>
<stop offset="0.52" stop-color="#C1210D"/>
<stop offset="1" stop-color="#9D1D06"/>
</linearGradient>
<linearGradient id="paint12_linear_1044_1477" x1="193.843" y1="317.903" x2="166.237" y2="345.906" gradientUnits="userSpaceOnUse">
<stop stop-color="#3D3D3D"/>
<stop offset="1" stop-color="#2E2E2E"/>
</linearGradient>
<radialGradient id="paint13_radial_1044_1477" cx="0" cy="0" r="1" gradientUnits="userSpaceOnUse" gradientTransform="translate(245.666 195.981) scale(32.6346 32.5893)">
<stop stop-color="#DBDBDB"/>
<stop offset="0.17" stop-color="#E3E3E3"/>
<stop offset="0.67" stop-color="#F7F7F7"/>
<stop offset="1" stop-color="white"/>
</radialGradient>
<clipPath id="clip0_1044_1477">
<rect width="162" height="643" fill="white" transform="translate(164)"/>
</clipPath>
</defs>
<linearGradient id="gradient-fill" gradientTransform="rotate(90)"><stop offset="0%" stop-color="#"/><stop offset="100%" stop-color="#FFFFFF"/></linearGradient><linearGradient id="gradient-fill" gradientTransform="rotate(90)"><stop offset="0%" stop-color="#"/><stop offset="100%" stop-color="#FFFFFF"/></linearGradient><linearGradient id="gradient-fill" gradientTransform="rotate(90)"><stop offset="0%" stop-color="#"/><stop offset="100%" stop-color="#FFFFFF"/></linearGradient><linearGradient id="gradient-fill" gradientTransform="rotate(90)"><stop offset="0%" stop-color="#"/><stop offset="100%" stop-color="#FFFFFF"/></linearGradient><linearGradient id="gradient-fill-1" x1="248.557" y1="80.3592" x2="248.557" y2="125.632" gradientUnits="userSpaceOnUse"><stop stop-color="#FCD7CB"/><stop offset="1" stop-color="#654321"/></linearGradient><linearGradient id="gradient-fill-2" x1="270.589" y1="81.8994" x2="238.193" y2="180.996" gradientUnits="userSpaceOnUse"><stop stop-color="#FCD7CB"/><stop offset="1" stop-color="#654321"/></linearGradient><linearGradient id="gradient-fill-3" gradientUnits="userSpaceOnUse"><stop stop-color="#FCD7CB"/><stop offset="1" stop-color="#654321"/></linearGradient><linearGradient id="gradient-fill-4" x1="333.547" y1="226.825" x2="326.692" y2="233.233" gradientUnits="userSpaceOnUse"><stop stop-color="#FCD7CB"/><stop offset="1" stop-color="#654321"/></linearGradient><linearGradient id="gradient-fill-5" x1="209.505" y1="236.049" x2="218.051" y2="229.876" gradientUnits="userSpaceOnUse"><stop stop-color="#FCD7CB"/><stop offset="1" stop-color="#654321"/></linearGradient></svg>
