<svg width="478" height="504" viewBox="0 0 478 504" fill="none" xmlns="http://www.w3.org/2000/svg">
<g style="mix-blend-mode:multiply">
<path fill-rule="evenodd" clip-rule="evenodd" d="M237.5 472C368.672 472 475 479.167 475 488C475 496.833 368.672 504 237.5 504C106.328 504 0 496.841 0 488C0 479.159 106.328 472 237.5 472Z" fill="#E2E2F2"/>
</g>
<g clip-path="url(#clip0_1403_1484)">
<path d="M268.242 115.81C264.082 112.856 243.663 105.055 228.685 109.159C226.451 115.271 225.947 118.066 225.947 118.066L268.233 124.939V115.81H268.242Z" fill="#B8B8B8"/>
<path d="M272.084 123.444C265.071 118.013 252.31 111.804 243.487 111.662C234.664 111.521 231.352 111.786 222.397 118.066C213.442 124.346 249.872 157.506 249.872 157.506L279.043 147.06L272.092 123.444H272.084Z" fill="#401C00"/>
<path d="M306.658 481.357C306.658 481.357 274.688 481.012 274.688 481.357C274.688 481.702 275.297 480.296 275.297 480.296C275.297 480.296 285.912 471.283 287.149 471.07C288.385 470.867 290.408 472.831 291.211 473.149C292.015 473.467 305.024 478.615 305.633 479.164C306.252 479.712 306.658 481.357 306.658 481.357Z" fill="#454545"/>
<path d="M178 481.357C178 481.357 201.042 481.012 201.042 481.357C201.042 481.702 200.565 480.296 200.565 480.296C200.565 480.296 197.8 475.104 195.257 473.618C194.409 473.123 190.135 472.91 189.508 473.238C188.88 473.556 179.272 478.624 178.795 479.173C178.318 479.721 178 481.366 178 481.366V481.357Z" fill="#454545"/>
<path d="M305.952 305.563C305.952 325.676 291.08 407.944 288.642 431.339C285.798 458.626 291.212 473.158 291.212 473.158C291.212 473.158 288.518 472.229 287.741 472.229C286.964 472.229 275.306 480.305 275.306 480.305C275.306 480.305 270.749 435.823 268.444 406.369C266.484 381.338 262.863 351.097 262.863 351.097C262.863 351.097 247.99 377.658 231.555 412.145C227.589 420.459 200.583 480.305 200.583 480.305L189.525 473.238C189.525 473.238 195.398 454.707 197.5 446.26C211.684 389.219 214.051 350.522 214.766 335.185C214.996 330.222 217.61 305.934 217.61 305.934C222.105 290.535 248.37 293.816 265.91 293.02C291.839 291.844 305.961 288.288 305.961 305.571L305.952 305.563Z" fill="url(#paint0_linear_1403_1484)"/>
<path d="M275.404 303.466L272.481 332.354C272.481 332.354 262.077 331.443 270.864 305.942L275.404 303.466Z" fill="url(#paint1_linear_1403_1484)"/>
<path d="M230.239 67.4727C230.239 67.4727 231.432 98.4037 230.549 110.07C230.01 117.244 205.855 128.158 205.855 137.985C231.847 139.931 293.889 156.011 293.889 145.291C293.889 134.571 268.321 128.043 267.2 119.349C266.069 110.645 264.488 94.8303 264.488 94.8303L241.155 91.0446L230.239 67.4815V67.4727Z" fill="url(#paint2_linear_1403_1484)"/>
<path d="M414.58 73.1066L419.49 73.9469L430 58.1851L423.412 51.2329C423.412 51.2329 418.881 55.567 419.164 55.5227C419.437 55.4785 425.708 58.5743 425.708 58.5743L419.067 72.9828L414.633 72.346L414.58 73.1066Z" fill="#333333"/>
<path d="M375.969 143.186L377.779 137.896L381.4 135.986L400.238 94.3348L398.878 91.2478L407.241 72.2134L418.175 75.4772L410.279 95.6173L407.974 96.891L383.043 145.733L375.969 143.186Z" fill="url(#paint3_linear_1403_1484)"/>
<path d="M415.128 42.034L407.709 41.5918L401.934 59.1403L408.805 60.5643L415.128 42.034Z" fill="#383838"/>
<path d="M408.124 42.0166L402.869 58.6364L408.38 59.5651L414.235 42.4146L408.124 42.0166Z" fill="#535353"/>
<path d="M414.236 42.4674L411.428 41.8306L408.602 51.6132L410.889 52.2765L414.236 42.4674Z" fill="#535353"/>
<path d="M411.427 41.8303L408.389 41.6357L405.58 51.4183L408.6 51.6129L411.427 41.8303Z" fill="#303030"/>
<path d="M408.936 49.7912C408.936 49.7912 407.4 48.9863 408.247 46.5363C409.095 44.0862 410.57 44.1304 410.57 44.1304L408.936 49.7912Z" fill="#101010"/>
<path d="M415.127 42.0342L424.391 45.6164C425.072 45.8818 425.398 46.6601 425.107 47.3323L418.987 61.4578C418.686 62.1566 417.927 62.5458 417.185 62.3866L408.795 60.5733L415.118 42.043L415.127 42.0342Z" fill="#303030"/>
<path d="M410.889 52.277L407.251 52.0735L405.67 51.4102L408.611 51.6047L410.889 52.277Z" fill="#272727"/>
<path style="mix-blend-mode:screen" d="M407.092 46.129L409.6 48.1545L411.428 41.8303L408.39 41.6357L407.092 46.129Z" fill="url(#paint4_linear_1403_1484)"/>
<path d="M408.99 73.142L410.121 70.5239L416.585 72.2929L416.373 75.5125L408.99 73.142Z" fill="#333333"/>
<path d="M423.791 52.0643C423.615 54.7709 422.528 57.6986 418.369 57.5925C417.839 57.5748 414.659 56.6903 414.191 56.5045C412.275 55.735 410.977 53.8068 411.118 51.6309C411.295 48.9243 413.626 46.8723 416.329 47.0492C417.035 47.0934 419.914 47.5091 420.506 47.8187C422.166 48.6944 423.924 50.083 423.791 52.082V52.0643Z" fill="#242424"/>
<path d="M424.241 52.8957C424.065 55.6023 421.733 57.6543 419.031 57.4774C416.328 57.3005 414.279 54.9654 414.456 52.2588C414.633 49.5523 416.964 47.5002 419.667 47.6771C422.369 47.854 424.418 50.1891 424.241 52.8957Z" fill="#404040"/>
<path d="M423.73 53.0547C423.589 55.2482 421.699 56.9111 419.509 56.7696C417.318 56.6281 415.658 54.7352 415.799 52.5417C415.941 50.3481 417.831 48.6852 420.021 48.8268C422.211 48.9683 423.871 50.8611 423.73 53.0547Z" fill="#4C4C4C"/>
<g style="mix-blend-mode:multiply">
<path d="M405.607 75.937L416.523 79.6961L416.337 80.1561L405.475 76.2377L405.607 75.937Z" fill="#717171"/>
</g>
<g style="mix-blend-mode:multiply">
<path d="M398.877 91.248L410.279 95.6175L407.973 96.8912L400.237 94.335L398.877 91.248Z" fill="#B5B5B5"/>
</g>
<g style="mix-blend-mode:screen">
<path d="M377.779 137.896L385.277 141.514L386.77 138.701L381.4 135.986L377.779 137.896Z" fill="#131313"/>
</g>
<path d="M408.513 57.8313L408.115 59.1492L404.883 58.592L405.192 57.4067L408.513 57.8313Z" fill="#9E9E9E"/>
<path d="M406.42 56.5312L406.252 57.1504L408.539 57.4246L408.769 56.6816L406.42 56.5312Z" fill="#D1D1D1"/>
<path d="M282.998 132.465C291.98 142.717 330.679 154.109 330.679 154.109C330.679 154.109 348.263 166.536 351.734 175.673C355.399 185.306 361.254 198.184 340.182 216.741C337.471 217.059 294.726 201.934 265.211 170.888C242.231 146.715 276.109 124.602 283.007 132.474L282.998 132.465Z" fill="#E1EFFF"/>
<path d="M339.98 216.476C363.975 211.823 375.739 224.569 398.665 151.394C399.063 150.129 397.297 147.909 397.632 146.582C397.915 145.494 397.588 144.654 397.844 143.531C389.357 140.771 384.402 140.046 384.402 140.046C384.402 140.046 383.396 143.053 382.38 143.442C377.69 144.654 370.802 155.215 356.592 158.93C333.851 164.874 325.778 172.896 325.01 184.784C324.198 197.45 330.892 213.026 339.98 216.476Z" fill="#E1EFFF"/>
<path d="M383.891 139.666C383.556 140.303 381.966 143.947 381.639 144.601C381.312 145.247 383.9 148.378 388.007 149.36C392.113 150.342 396.123 149.616 397.156 148.166C398.198 146.715 398.481 144.336 398.41 143.425C398.34 142.514 395.09 141.046 390.806 140.134C386.523 139.223 384.289 138.896 383.882 139.666H383.891Z" fill="#C2D8F0"/>
<path d="M384.941 140.214C384.552 140.762 384.861 142.823 389.613 144.194C394.364 145.574 396.996 143.84 397.119 143.407C397.234 142.974 397.013 142.089 391.414 140.692C385.815 139.285 385.206 139.851 384.949 140.214H384.941Z" fill="#ADADAD"/>
<path d="M395.708 144.3C395.991 143.398 400.212 125.018 401.201 121.188C401.36 120.569 399.382 116.288 398.145 117.199C396.909 118.11 389.906 126.398 388.943 130.06C388.325 132.421 389.517 135.252 389.517 135.252C389.517 135.252 385.79 140.152 384.969 141.275C385.207 142.77 390.965 146.096 395.708 144.309V144.3Z" fill="url(#paint5_linear_1403_1484)"/>
<path d="M401.139 120.71C400.494 118.8 397.12 110.132 397.032 109.796C396.944 109.46 387.459 107.505 387.459 107.505C387.459 107.505 386.779 109.601 387.874 110.671C389.976 112.706 391.813 113.387 395.257 113.369C398.375 116.288 397.094 120.18 397.332 122.32C397.571 124.47 401.775 122.621 401.139 120.71Z" fill="url(#paint6_linear_1403_1484)"/>
<path d="M399.478 121.241C397.756 119.313 393.058 114.563 391.786 114.289C390.514 114.015 383.281 114.05 382.751 114.192C382.221 114.333 380.826 118.243 382.115 118.703C383.749 119.286 387.98 119.269 389.419 118.968C391.742 118.481 391.645 118.773 393.217 119.791C394.789 120.808 396.484 124.638 397.783 125.522C399.072 126.398 401.209 123.178 399.487 121.25L399.478 121.241Z" fill="url(#paint7_linear_1403_1484)"/>
<path d="M397.42 127.707C396.51 126.089 389.833 120.162 388.562 119.915C387.29 119.667 379.395 121.569 378.874 121.719C378.344 121.87 379.765 125.717 381.064 126.142C382.715 126.69 384.861 124.974 386.292 124.638C388.597 124.107 388.376 123.506 389.966 124.488C391.556 125.469 393.136 128.503 393.984 130.706C394.832 132.908 398.338 129.326 397.429 127.707H397.42Z" fill="url(#paint8_linear_1403_1484)"/>
<path d="M394.249 127.813C394.249 127.813 386.848 126.893 385.647 127.079C384.455 127.265 380.808 126.628 379.147 127.291C377.496 127.955 378.246 130.75 378.132 131.36C378.017 131.97 384.852 131.679 384.852 131.679C384.852 131.679 390.257 131.351 392.386 130.67C394.788 129.901 395.636 131.298 396.113 130.396C396.59 129.494 395.733 128.079 394.24 127.813H394.249Z" fill="url(#paint9_linear_1403_1484)"/>
<path d="M256.883 129.007V133.12L260.972 133.341L260.115 128.468L266.536 133.12L257.89 135.332L251.178 130.803L256.883 129.007Z" fill="#B8B8B8"/>
<path d="M272.084 123.444C268.259 138.259 251.312 129.6 251.312 129.6L222.397 118.066C222.397 118.066 205.661 129.679 201.608 133.014C197.554 136.349 189.703 161.07 197.907 182.82C206.112 204.561 215.685 230.583 217.628 255.924C218.935 272.924 217.593 305.925 217.593 305.925C217.593 305.925 250.243 306.562 275.395 306.288C295.01 306.076 305.944 305.562 305.944 305.562C305.944 305.562 306.562 236.12 302.87 217.917C301.501 209.01 310.73 196.344 307.657 184.704C304.584 173.064 296.671 145.026 291.902 137.702L272.084 123.453V123.444Z" fill="#9DA6C4"/>
<path d="M217.602 305.952L217.16 310.064L305.953 311.011V305.589L217.602 305.952Z" fill="#707070"/>
<path d="M245.119 305.863H247.734L247.981 313.452H245.066L245.119 305.863Z" fill="url(#paint10_linear_1403_1484)"/>
<path d="M281.074 304.554H271.65L271.739 312.143L281.48 311.683V310.525L273.417 310.701L272.816 306.129L281.453 305.713L281.074 304.554Z" fill="url(#paint11_linear_1403_1484)"/>
<path d="M278.291 307.641L270.457 307.491V308.207L278.291 309.101C278.291 309.101 279.253 308.428 278.291 307.632V307.641Z" fill="url(#paint12_linear_1403_1484)"/>
<path d="M260.115 128.468L273.822 142.301L278.132 128.043L268.24 115.811L260.115 128.468Z" fill="#CFDDF1"/>
<path d="M256.883 129.007C256.883 129.007 243.565 136.782 240.271 141.974C218.112 131.687 219.11 119.013 219.11 119.013L228.693 109.159C228.693 109.159 238.549 123.515 256.883 129.007Z" fill="#CFDDF1"/>
<path d="M225.946 70.6125C225.946 70.6125 220.797 66.6057 217 71.3643C212.84 76.574 221.301 91.7609 230.035 84.9945L225.946 70.6125Z" fill="#FFC2B3"/>
<path d="M226.874 82.3496C226.662 82.3496 226.459 82.2346 226.353 82.0312C223.421 76.3084 219.614 76.0785 219.579 76.0785C219.252 76.0608 219.005 75.7866 219.014 75.4682C219.032 75.1409 219.297 74.8932 219.623 74.9021C219.809 74.9021 224.154 75.1674 227.395 81.4916C227.545 81.7835 227.43 82.1373 227.139 82.2877C227.051 82.3319 226.962 82.3496 226.874 82.3496Z" fill="#F48073"/>
<path d="M279.917 70.6125C279.917 70.6125 285.066 66.6057 288.864 71.3643C293.023 76.574 284.563 91.7609 275.828 84.9945L279.917 70.6125Z" fill="#FFC2B3"/>
<path d="M278.989 82.35C278.901 82.35 278.804 82.3323 278.724 82.2881C278.433 82.1377 278.318 81.7839 278.468 81.492C281.71 75.159 286.055 74.9025 286.24 74.9025C286.567 74.8671 286.841 75.1413 286.849 75.4686C286.867 75.7958 286.611 76.07 286.293 76.0789C286.125 76.0877 282.416 76.3619 279.51 82.0316C279.404 82.235 279.201 82.35 278.989 82.35Z" fill="#F48073"/>
<path d="M253.837 90.3807C272.098 90.3807 286.902 75.9226 286.902 58.0876C286.902 40.2526 272.098 25.7944 253.837 25.7944C235.575 25.7944 220.771 40.2526 220.771 58.0876C220.771 75.9226 235.575 90.3807 253.837 90.3807Z" fill="#878787"/>
<path d="M225.893 54.4789C225.893 54.4789 220.735 106.983 252.697 107.018C287.846 107.054 282.018 54.4789 282.018 54.4789C282.018 54.4789 281.832 32.0303 253.704 32.0303C227.915 32.0303 225.893 54.4789 225.893 54.4789Z" fill="url(#paint13_linear_1403_1484)"/>
<path d="M258.208 84.5432H255.965C255.638 84.5432 255.373 84.2778 255.373 83.9506C255.373 83.6233 255.638 83.358 255.965 83.358H258.208C258.411 83.358 258.597 83.2783 258.738 83.1191C258.87 82.9688 258.941 82.7742 258.915 82.5707L258.393 75.0171C258.367 74.6898 258.614 74.4156 258.941 74.3891C259.277 74.3714 259.542 74.6102 259.568 74.9375L260.089 82.4735C260.142 82.9865 259.965 83.5172 259.612 83.9152C259.259 84.3132 258.747 84.5432 258.208 84.5432Z" fill="#F48073"/>
<path d="M248.627 72.2749C248.627 73.5928 247.558 74.6719 246.233 74.6719C244.908 74.6719 243.84 73.6017 243.84 72.2749C243.84 70.9482 244.908 69.8779 246.233 69.8779C247.558 69.8779 248.627 70.9482 248.627 72.2749Z" fill="#2B232A"/>
<path d="M272.515 72.2754C272.515 73.5933 271.447 74.6724 270.122 74.6724C268.797 74.6724 267.729 73.6022 267.729 72.2754C267.729 70.9487 268.797 69.8784 270.122 69.8784C271.447 69.8784 272.515 70.9487 272.515 72.2754Z" fill="#2B232A"/>
<path d="M257.757 90.266C252.82 90.266 250.347 87.8071 250.224 87.6832C249.994 87.4533 250.003 87.0818 250.224 86.8518C250.453 86.6218 250.824 86.6307 251.054 86.8518C251.177 86.9756 254.162 89.8945 260.274 88.8685C260.592 88.8154 260.901 89.0277 260.954 89.3461C261.007 89.6645 260.795 89.9741 260.468 90.0272C259.488 90.1952 258.578 90.266 257.739 90.266H257.757Z" fill="#F48073"/>
<path d="M238.267 65.0402C240.484 64.3149 246.666 63.5454 251.673 63.5896C252.265 63.5896 252.601 62.9616 252.238 62.5282C251.152 61.2191 247.849 58.5745 243.045 59.6182C243.045 59.6182 239.512 60.6708 237.172 63.6692C237.022 63.8638 236.96 64.1203 237.013 64.3591C237.119 64.8987 237.719 65.2171 238.276 65.0402H238.267Z" fill="#2B232A"/>
<path d="M277.391 65.0402C275.174 64.3149 268.992 63.5454 263.985 63.5896C263.393 63.5896 263.057 62.9616 263.419 62.5282C264.506 61.2191 267.809 58.5745 272.613 59.6182C272.613 59.6182 276.146 60.6708 278.486 63.6692C278.636 63.8638 278.698 64.1203 278.645 64.3591C278.539 64.8987 277.938 65.2171 277.382 65.0402H277.391Z" fill="#2B232A"/>
<path d="M223.915 63.1295L229.205 54.7886C229.205 54.7886 229.567 43.9181 234.796 34.9404C234.796 34.9404 220.93 44.6876 223.915 63.1295Z" fill="#878787"/>
<path d="M283.007 63.1295L277.717 54.7886C277.717 54.7886 277.355 43.9181 272.127 34.9404C272.127 34.9404 285.993 44.6876 283.007 63.1295Z" fill="#878787"/>
<path d="M227.033 41.636C227.033 41.636 262.359 62.0149 282.619 36.0637C282.619 36.0637 249.377 0.975489 227.033 41.636Z" fill="#A5A5A5"/>
<path d="M321.539 282.362C321.3 275.79 315.789 270.66 309.228 270.89C302.666 271.129 297.543 276.648 297.773 283.22L304.812 483.462" stroke="#606060" stroke-width="8" stroke-miterlimit="10" stroke-linecap="round"/>
<path d="M185.507 150.58C191.981 124.912 223.112 128.078 229.117 141.248C231.882 147.325 227.793 170.127 246.206 204.181C253.687 218.005 244.405 232.237 233.109 235.589C221.814 238.942 208.513 231.415 202.384 214.264C197.995 201.987 179.272 175.302 185.507 150.58Z" fill="#E1EFFF"/>
<path d="M299.451 259.215C299.451 259.215 304.3 261.585 308.23 263.903C309.263 264.699 301.88 276.728 296.731 279.594C296.731 279.594 292.253 275.905 291.838 275.737C289.516 274.782 289.145 268.883 289.312 268.44C291.432 262.894 297.252 258.56 299.46 259.215H299.451Z" fill="url(#paint14_linear_1403_1484)"/>
<path d="M308.231 263.893C308.231 263.893 315.322 266.193 315.985 267.06C316.347 267.529 317.318 269.36 318.095 271.031C318.749 272.447 318.299 274.534 318.166 274.817C316.682 275.781 315.314 274.507 315.314 274.507C315.314 274.507 314.969 273.588 314.21 272.393C313.706 271.615 312.682 270.518 312.585 270.165C311.278 264.937 304.68 267.599 304.68 267.599C304.68 267.599 304 265.777 305.113 264.698C306.235 263.628 308.213 263.893 308.213 263.893H308.231Z" fill="url(#paint15_linear_1403_1484)"/>
<path d="M304.945 267.432C304.945 267.432 309.732 271.146 311.101 272.562C312.47 273.977 314.598 278.674 314.731 279.638C313.459 282.061 311.251 282.035 311.251 282.035C311.251 282.035 311.083 279.24 306.95 275.958C305.829 271.412 300.98 271.757 300.98 271.757C300.98 271.757 299.92 266.963 304.945 267.423V267.432Z" fill="url(#paint16_linear_1403_1484)"/>
<path d="M302.162 271.58C302.162 271.58 305.73 274.976 307.073 276.347C308.415 277.718 310.906 281.902 311.1 282.768C310.137 284.838 308.141 284.661 308.141 284.661C308.141 284.661 305.404 280.274 303.258 279.319C302.657 274.817 298.409 275.48 298.409 275.48C298.409 275.48 298.171 271.217 302.162 271.588V271.58Z" fill="url(#paint17_linear_1403_1484)"/>
<path d="M299.673 275.87C299.673 275.87 301.872 277.931 303.064 279.134C304.256 280.337 306.623 283.945 306.773 284.732C305.811 286.652 303.974 286.546 303.974 286.546C303.974 286.546 300.291 282.477 299.611 281.84C300.123 279.098 296.635 279.47 296.635 279.47C296.635 279.47 295.469 275.304 299.673 275.87Z" fill="url(#paint18_linear_1403_1484)"/>
<path d="M254.146 209.178C262.827 216.997 300.123 258.082 300.123 258.082C300.123 258.082 297.191 267.812 287.096 268.9C279.051 260.418 245.553 255.703 237.224 254.518C227.731 246.787 223.862 244.213 217.945 238.676C212.028 233.139 207.33 216.909 218.272 206.383C224.657 200.245 238.876 195.416 254.155 209.17L254.146 209.178Z" fill="#E1EFFF"/>
<path d="M284.809 267.016C288.412 264.451 293.702 259.834 296.59 254.297C298.798 256.658 300.123 258.083 300.123 258.083C300.123 258.083 297.19 267.812 287.096 268.9C286.478 268.245 285.709 267.617 284.809 267.016Z" fill="#C2D8F0"/>
</g>
<g clip-path="url(#clip1_1403_1484)">
<path d="M180.192 131.429C180.192 131.429 173.419 124.94 165.105 125.724C156.792 126.508 148.825 132.133 148.825 132.133L147.961 137.303L183.302 138.07L180.192 131.429Z" fill="#033845"/>
<path d="M189.609 453.92L183.835 485.298H180.609L182.997 451.175L189.609 453.92Z" fill="url(#paint19_linear_1403_1484)"/>
<path d="M164.428 451.799L167.752 486.153H165.248L157.246 451.175L164.428 451.799Z" fill="url(#paint20_linear_1403_1484)"/>
<path d="M177.018 486.991C177.018 486.733 208.678 486.991 208.678 486.991C208.678 486.991 188.602 480.225 183.585 481.099C178.568 481.964 177.018 486.991 177.018 486.991Z" fill="#454545"/>
<path d="M192.648 250.075C192.648 250.075 192.817 264.141 194.332 269.481C201.318 294.065 214.212 367.428 214.533 371.484C208.803 382.795 203.412 400.115 189.788 456.791L182.472 454.731C190.982 404.991 170.638 404.67 191 372.375C183.675 340.374 166.468 312.491 163.1 279.081C160.702 255.361 164.285 244.735 164.285 244.735L192.639 250.075H192.648Z" fill="url(#paint21_linear_1403_1484)"/>
<path style="mix-blend-mode:multiply" d="M168.83 270.648C179.693 264.257 186.447 268.847 191.277 280.721C198.174 297.658 182.241 319.746 176.315 328.241C170.318 309.388 164.954 297.426 163.109 279.09C163.109 279.081 163.742 268.402 168.83 270.648Z" fill="url(#paint22_radial_1403_1484)"/>
<path d="M186.642 255.592C186.642 255.084 181.839 280.721 171.877 283.226C169.97 312.74 168.063 353.201 167.911 355.813C166.655 378.294 171.627 377.946 167.751 404.171C164.294 427.57 165.327 453.929 165.327 453.929H157.334C157.334 453.929 148.477 413.504 144.814 382.608C143.282 369.683 147.167 363.131 145.768 354.377C141.045 324.685 126.538 265.514 128.115 252.963C129.693 240.412 141.544 224.857 141.544 224.857L186.633 255.592H186.642Z" fill="#C1210D"/>
<path style="mix-blend-mode:multiply" d="M149.065 249.023C149.305 249.103 149.626 267.555 135.609 269.49C136.411 258.757 140.288 239.717 140.288 239.717L149.074 249.023H149.065Z" fill="url(#paint23_radial_1403_1484)"/>
<path d="M177.919 258.427L175.094 271.985C175.094 271.985 180.485 273.893 182.615 260.593L177.927 258.427H177.919Z" fill="#350303"/>
<path d="M191.784 143.071C196.944 147.805 202.183 156.603 202.745 172.122C203.377 189.611 210.711 215.712 209.134 220.677C207.557 225.642 197.068 225.606 194.368 218.216C191.196 209.507 187.605 147.109 191.784 143.071Z" fill="url(#paint24_radial_1403_1484)"/>
<path d="M202.709 207.083C204.892 207.083 207.966 207.172 212.404 208.134C213.33 208.34 214.827 209.177 215.825 209.391C216.948 209.641 219.559 209.374 220.753 209.623C222.589 210.015 223.043 210.933 225.004 211.308C223.48 211.014 216.69 212.137 215.897 217.708C215.193 222.62 220.976 225.16 222.74 224.839C221.02 225.178 219.969 226.381 218.525 226.524C217.839 226.586 215.594 225.437 214.863 225.508C213.259 225.651 213.116 227.228 211.406 227.273C210.203 227.3 208.394 226.105 207.2 226.034C202.619 225.731 198.324 224.447 195.865 220.775C190.973 213.465 198.681 207.074 202.726 207.074L202.709 207.083Z" fill="url(#paint25_radial_1403_1484)"/>
<path d="M245.544 218.385C245.544 218.385 232.543 222.931 222.723 224.848C220.959 225.16 215.175 222.628 215.879 217.717C216.672 212.145 223.471 211.013 224.986 211.316C231.126 212.502 237.747 213.5 244.029 213.634C247.317 216.745 245.535 218.385 245.535 218.385H245.544Z" fill="url(#paint26_linear_1403_1484)"/>
<path d="M185.663 50.4634C179.835 46.0064 170.487 39 160.445 39C150.402 39 128.553 52.6741 128.553 66.3393C128.553 80.0044 129.373 166.007 129.373 166.007C129.373 166.007 178.382 173.486 191.312 161.648V63.7096L185.654 50.4634H185.663Z" fill="#747575"/>
<path d="M152.567 126.634C152.567 126.634 155.605 122.007 162.921 122.007C171.057 122.007 175.931 126.741 175.931 126.741L178.275 134.059C178.275 134.059 152.157 133.854 152.282 134.059C152.406 134.264 152.567 126.634 152.567 126.634Z" fill="#B0B0B0"/>
<g style="mix-blend-mode:multiply">
<path d="M139.004 80.9136V161.532L148.129 163.101L140.777 82.5448L139.004 80.9136Z" fill="#CCC8C6"/>
</g>
<g style="mix-blend-mode:multiply">
<path d="M186.028 156.371L186.812 75.7526L182.25 72.7485L185.039 155.132L186.028 156.371Z" fill="#CCC8C6"/>
</g>
<path d="M158.306 107.192C158.306 107.192 158.235 120.242 158.306 124.289C158.413 129.905 144.361 137.687 141.483 140.495C138.515 143.392 148.13 144.604 148.13 144.604L173.713 145.719L182.241 142.01C182.241 142.01 186.955 140.486 186.955 139.55C186.955 138.614 173.883 131.92 173.883 126.001V116.499L158.297 107.192H158.306Z" fill="url(#paint27_linear_1403_1484)"/>
<path d="M148.825 132.089C148.825 132.089 136.332 140.602 134.674 143.356C133.026 146.111 150.527 198.159 150.028 203.169C149.529 208.179 128 246.072 128 246.072C128 246.072 175.923 265.095 181.759 264.596C187.596 264.096 193.745 261.181 193.745 261.181C193.745 261.181 191.472 195.066 192.809 192.499C194.146 189.932 201.372 181.936 199.421 174.003C197.478 166.096 191.829 143.222 191.793 143.071L180.2 132.508L173.731 145.727L148.834 132.089H148.825Z" fill="#DDD0EF"/>
<g style="mix-blend-mode:multiply">
<path d="M180.52 201.502C180.618 210.639 181.384 249.709 181.759 264.596C181.741 264.596 179.7 264.676 177.811 263.954C177.668 248.72 177.196 200.7 177.312 197.108C177.508 190.609 181.26 180.938 180.707 174.359C180.279 169.332 174.113 150.728 172.135 144.863L173.712 145.727C173.712 145.727 183.487 171.56 183.487 176.035C183.487 184.129 180.386 189.87 180.52 201.502Z" fill="#F5F5F5"/>
</g>
<path d="M177.313 121.357C185.493 121.357 201.444 102.441 201.444 98.002C201.444 93.5629 199.225 90.6391 199.225 90.6391C199.225 90.6391 201.907 62.248 187.311 53.949C172.715 45.6501 162.12 45.1153 147.479 64.6369C141.171 73.0517 135.102 83.8644 139.424 93.7946C143.746 103.725 164.588 121.357 177.313 121.357Z" fill="url(#paint28_linear_1403_1484)"/>
<path d="M154.412 62.4887C154.412 62.4887 150.571 83.7397 139.566 85.9415C132.242 83.7397 132.776 80.9229 132.776 80.9229L149.841 55.0723L154.421 62.4976L154.412 62.4887Z" fill="#747575"/>
<path d="M165.194 39.499C154.937 36.5128 143.487 56.7565 154.42 62.4882C154.42 62.4882 193.112 71.6251 197.906 70.8406C201.907 70.181 191.32 47.1026 165.203 39.499H165.194Z" fill="#747575"/>
<path d="M144.093 88.8918C144.093 88.8918 137.205 82.3489 133.463 87.0198C129.729 91.6908 142.222 109.34 147.48 103.145C145.261 90.9955 144.093 88.8918 144.093 88.8918Z" fill="url(#paint29_linear_1403_1484)"/>
<path d="M166.235 137.874L155.498 147.983C155.498 147.983 148.129 139.916 147.514 134.514C149.055 131.287 152.566 126.643 152.566 126.643C152.566 126.643 161.905 133.48 166.235 137.883V137.874Z" fill="white"/>
<path d="M177.001 137.303L185.689 147.973C185.689 147.973 183.149 134.059 175.932 126.74C176.992 129.379 177.001 137.303 177.001 137.303Z" fill="white"/>
<path d="M242.37 214.187C242.37 214.187 244.527 211.682 246.772 211.085C253.001 209.436 254.81 204.889 257.902 206.69C256.423 209.641 251.406 210.291 252.413 211.397C253.42 212.502 259.506 211.673 261.119 213.287C255.817 214.962 242.468 216.906 242.361 214.187H242.37Z" fill="url(#paint30_linear_1403_1484)"/>
<path d="M277.043 205.469L272.187 204.551C271.625 204.444 271.046 204.48 270.502 204.649L246.978 212.119C246.425 212.297 246.541 213.099 247.12 213.117L260.745 213.429L277.186 207.011C277.943 206.717 277.836 205.621 277.043 205.469Z" fill="#292929"/>
<path d="M177 137.304C177 137.304 173.472 146.289 173.712 145.719C173.953 145.148 166.227 137.874 166.227 137.874L160.408 143.356C160.408 143.356 169.346 146.093 173.712 145.727C180.805 145.121 178.88 139.621 178.88 139.621L177 137.313V137.304Z" fill="#E0E0E0"/>
<path d="M240.322 215.809C239.779 216.656 241.222 218.332 242.728 218.751C244.234 219.17 250.053 216.852 251.675 216.602C253.296 216.353 263.811 215.809 263.811 215.809C263.811 215.809 276.785 208.098 279.182 206.752C276.901 204.987 273.595 207.011 272.695 207.804C271.795 208.597 264.105 211.717 264.105 211.717C264.105 211.717 267.42 208.232 267.295 207.974C267.18 207.715 263.624 201.502 263.624 201.502C263.624 201.502 262.305 202.465 262.394 203.543C262.483 204.622 263.972 208.33 263.972 208.33C263.972 208.33 261.405 210.701 261.583 210.523C261.762 210.345 262.332 208.731 262.332 208.731L259.418 203.374C259.418 203.374 257.734 204.301 258.34 205.986C258.937 207.67 259.311 208.963 259.311 208.963L258.34 211.851L257.271 209.435L253.786 207.234C253.786 207.234 252.762 208.508 254.74 210.389C254.597 211.227 254.348 212.243 254.357 212.6C253.617 212.484 251.933 212.778 251.47 212.823C247.834 213.161 242.122 213.019 240.322 215.809Z" fill="url(#paint31_linear_1403_1484)"/>
<path d="M172.305 486.991C172.305 486.991 153.904 486.644 153.904 486.991C153.904 487.339 157.486 480.939 162.272 481.019C167.057 481.099 172.305 486.991 172.305 486.991Z" fill="#454545"/>
<path d="M170.41 89.3354C170.703 88.0845 169.928 86.8322 168.677 86.5384C167.427 86.2445 166.175 87.0204 165.881 88.2712C165.588 89.5221 166.363 90.7743 167.614 91.0682C168.864 91.362 170.116 90.5862 170.41 89.3354Z" fill="#2B232A"/>
<path d="M193.67 89.0662C193.818 87.7899 192.904 86.6351 191.628 86.4869C190.352 86.3388 189.197 87.2534 189.049 88.5298C188.901 89.8061 189.816 90.9609 191.091 91.109C192.367 91.2572 193.522 90.3426 193.67 89.0662Z" fill="#2B232A"/>
<path d="M158.741 81.7783L175.984 80.1203C175.984 80.1203 174.407 76.1001 166.966 76.8667C159.356 77.6512 158.732 81.7873 158.732 81.7873L158.741 81.7783Z" fill="#2B232A"/>
<path d="M198.021 81.5463L185.982 80.3875C185.982 80.3875 187.203 76.3316 192.398 76.8754C197.709 77.4369 198.021 81.5374 198.021 81.5374V81.5463Z" fill="#2B232A"/>
<path d="M182.072 99.954H179.889C179.577 99.954 179.318 99.6955 179.318 99.3835C179.318 99.0715 179.577 98.813 179.889 98.813H182.072C182.268 98.813 182.455 98.7328 182.58 98.5813C182.713 98.4386 182.776 98.2425 182.749 98.0464L182.241 93.1794C182.205 92.8674 182.437 92.5821 182.749 92.5554C183.061 92.5287 183.346 92.7515 183.373 93.0635L183.881 97.9305C183.934 98.4476 183.765 98.9646 183.417 99.3479C183.07 99.7312 182.571 99.954 182.054 99.954H182.072Z" fill="#F48073"/>
<path d="M180.824 108.592C176.021 108.592 173.606 106.194 173.49 106.078C173.258 105.837 173.258 105.463 173.49 105.231C173.722 104.999 174.105 104.999 174.337 105.231C174.461 105.356 177.349 108.173 183.274 107.174C183.604 107.121 183.907 107.344 183.969 107.664C184.023 107.994 183.809 108.297 183.479 108.36C182.526 108.52 181.644 108.592 180.824 108.592Z" fill="#FF6058"/>
<path d="M142.836 97.7968C142.631 97.77 142.453 97.6274 142.382 97.4135C140.377 91.557 136.839 90.7815 136.688 90.7458C136.376 90.6834 136.18 90.3803 136.242 90.0773C136.304 89.7653 136.581 89.5513 136.91 89.6226C137.089 89.6583 141.232 90.5051 143.469 97.0391C143.567 97.3333 143.415 97.6631 143.112 97.7611C143.023 97.7879 142.934 97.7968 142.845 97.7879L142.836 97.7968Z" fill="#F48073"/>
<path d="M264.087 135.851C264.087 135.851 267.277 136.216 269.282 136.261C271.278 136.314 277.302 135.744 281.721 135.886C282.924 135.2 286.355 133.738 286.569 133.087C286.756 132.597 287.531 132.383 287.879 132.089C288.262 131.75 289.928 130.859 290.16 130.404C290.374 129.985 291.345 129.29 291.621 128.978C292.165 128.354 291.996 126.482 291.996 126.482C291.996 126.482 288.003 127.605 288.226 127.543C289.073 127.32 292.655 126.268 292.655 126.268L299.008 124.138C299.008 124.138 298.358 121.989 295.079 122.667C294.33 123.202 290.855 123.737 290.855 123.737C290.855 123.737 285.455 124.895 284.466 125.154C282.666 125.386 279.966 125.297 279.966 125.297L282.354 124.788C282.354 124.788 285.446 124.396 285.491 121.802C283.967 122.239 281.864 121.9 279.903 122.337C279.761 122.373 274.076 123.763 272.659 124.263C271.028 125.724 265.343 129.861 263.222 130.814C261.44 134.469 264.087 135.842 264.087 135.842V135.851Z" fill="url(#paint32_linear_1403_1484)"/>
<path d="M287.968 132.134L282.39 133.979L281.65 135.887L286.275 133.605C286.275 133.605 287.425 132.776 287.959 132.143L287.968 132.134Z" fill="url(#paint33_linear_1403_1484)"/>
<path d="M290.98 129.495L284.974 131.216L283.441 133.649L287.959 132.134C287.959 132.134 290.018 131.251 290.98 129.495Z" fill="url(#paint34_linear_1403_1484)"/>
<path d="M293.538 125.938L291.364 126.678L288.165 127.864L286.721 128.506L285.812 131.046L290.99 129.495C290.99 129.495 294.34 127.695 293.547 125.938H293.538Z" fill="url(#paint35_linear_1403_1484)"/>
<path d="M232.898 132.882C246.62 133.176 266.902 129.477 266.902 129.477C266.902 129.477 269.441 135.191 268.265 135.182C267.089 135.173 253.954 141.68 231.668 146.699L232.898 132.891V132.882Z" fill="url(#paint36_linear_1403_1484)"/>
<path d="M230.19 131.117C228.301 130.93 229.04 132.713 227.32 132.642C225.654 132.57 223.426 131.955 221.911 131.991C220.165 132.027 218.276 133.604 216.832 134.166C205.765 138.454 198.102 138.864 195.5 139.389C192.042 140.094 147.443 140.842 139.913 141.279C132.384 141.716 131.368 147.59 131.101 150.042C130.504 153.527 128.739 161.389 144.057 166.105C159.366 170.82 173.418 165.044 197.897 159.865C204.794 157.904 210.292 155.025 218.071 153.117C219.416 152.787 227.632 150.933 228.96 150.577C230.279 150.22 229.994 148.981 231.286 148.615C232.676 148.223 233.433 149.097 234.77 148.722C235.857 148.419 236 147.029 237.033 146.752L234.262 131.991C233.772 131.937 230.698 131.171 230.199 131.117H230.19Z" fill="#F5F5F5"/>
<path opacity="0.8" d="M169.383 101.445C176.595 99.2974 180.7 91.7077 178.553 84.4933C176.406 77.2789 168.819 73.1718 161.607 75.3198C154.395 77.4677 150.289 85.0574 152.437 92.2718C154.584 99.4862 162.171 103.593 169.383 101.445Z" fill="#222222"/>
<path opacity="0.8" d="M208.465 90.1893C209.587 83.5786 205.138 77.3103 198.53 76.1886C191.922 75.0669 185.655 79.5166 184.534 86.1274C183.413 92.7381 187.861 99.0065 194.47 100.128C201.078 101.25 207.344 96.8001 208.465 90.1893Z" fill="#222222"/>
<path d="M196.302 101.148C189.084 101.148 183.221 95.2737 183.221 88.0623C183.221 80.8509 189.093 74.9766 196.302 74.9766C203.511 74.9766 209.383 80.8509 209.383 88.0623C209.383 95.2737 203.511 101.148 196.302 101.148ZM196.302 76.2245C189.779 76.2245 184.468 81.5373 184.468 88.0623C184.468 94.5874 189.779 99.9001 196.302 99.9001C202.825 99.9001 208.136 94.5874 208.136 88.0623C208.136 81.5373 202.825 76.2245 196.302 76.2245Z" fill="#FFFFF9"/>
<path d="M179.406 91.8957L178.773 90.9152C178.898 90.826 181.972 88.8739 185.091 90.9152L184.45 91.8868C181.972 90.2645 179.504 91.8244 179.406 91.8868V91.8957Z" fill="#FFFFF9"/>
<path d="M165.497 102.691C157.611 102.691 151.195 96.2725 151.195 88.3836C151.195 80.4947 157.611 74.0767 165.497 74.0767C173.383 74.0767 179.799 80.4947 179.799 88.3836C179.799 96.2725 173.383 102.691 165.497 102.691ZM165.497 75.4316C158.36 75.4316 152.559 81.2346 152.559 88.3747C152.559 95.5148 158.36 101.318 165.497 101.318C172.635 101.318 178.436 95.5148 178.436 88.3747C178.436 81.2346 172.635 75.4316 165.497 75.4316Z" fill="#FFFFF9"/>
<path d="M151.675 88.945C151.675 88.945 151.586 88.945 151.541 88.9272L137.623 86.1103C137.257 86.039 137.026 85.6825 137.097 85.3259C137.168 84.9604 137.525 84.7287 137.881 84.8L151.8 87.6168C152.165 87.6881 152.397 88.0447 152.326 88.4012C152.263 88.7221 151.987 88.9361 151.675 88.9361V88.945Z" fill="#FFFFF9"/>
</g>
<g clip-path="url(#clip2_1403_1484)">
<path d="M96.4847 490.009C92.7198 490.009 89.6584 486.974 89.6584 483.242V464.189H103.311V483.242C103.311 486.974 100.25 490.009 96.4847 490.009Z" fill="#655D3D"/>
<path d="M22.5741 490.009C18.8091 490.009 15.7478 486.974 15.7478 483.242L15.7478 464.189H29.4004L29.4004 483.242C29.4004 486.974 26.3391 490.009 22.5741 490.009Z" fill="#655D3D"/>
<path d="M86.2681 372.216H94.6113L94.6113 277.524H86.2681L86.2681 372.216Z" fill="#BDCBDF"/>
<path d="M90.4351 372.216H94.6113L94.6113 277.524H90.4351L90.4351 372.216Z" fill="#8DB3E0"/>
<path d="M26.6499 372.216H34.9932L34.9932 277.524H26.6499L26.6499 372.216Z" fill="#BDCBDF"/>
<path d="M30.817 372.216H34.9932L34.9932 277.524H30.817L30.817 372.216Z" fill="#8DB3E0"/>
<path d="M103.548 486.168H44.0946C28.322 486.168 15.5192 473.475 15.5192 457.838L15.5192 356.869C15.5192 341.232 28.322 328.539 44.0946 328.539H103.548L103.548 486.168Z" fill="#00C8D3"/>
<path d="M37.5884 328.521H43.5557C31.3652 328.521 21.4776 338.314 21.4776 350.409V464.28C21.4776 476.365 31.356 486.168 43.5557 486.168H37.5884C25.3979 486.168 15.5103 476.374 15.5103 464.28V350.409C15.5103 338.324 25.3887 328.521 37.5884 328.521Z" fill="#5DDCE4"/>
<path d="M49.395 328.521H53.2788C41.0883 328.521 31.2007 338.314 31.2007 350.409V464.28C31.2007 476.365 41.0792 486.168 53.2788 486.168H49.395C37.2045 486.168 27.3169 476.374 27.3169 464.28V350.409C27.3169 338.324 37.1954 328.521 49.395 328.521Z" fill="#008E9B"/>
<path d="M65.9444 486.168H107.999C120.697 486.168 130.991 475.963 130.991 463.374L130.991 351.324C130.991 338.735 120.697 328.53 107.999 328.53H65.9444C53.2463 328.53 42.9525 338.735 42.9525 351.324L42.9525 463.374C42.9525 475.963 53.2463 486.168 65.9444 486.168Z" fill="#008E9B"/>
<path d="M124.658 464.28V350.409C124.658 338.324 114.78 328.521 102.58 328.521H108.922C121.113 328.521 131 338.314 131 350.409V464.28C131 476.365 121.122 486.168 108.922 486.168H102.58C114.771 486.168 124.658 476.374 124.658 464.28Z" fill="#006771"/>
<path d="M108.922 337.59C109.123 337.59 109.315 337.608 109.516 337.617V477.054C109.315 477.063 109.123 477.081 108.922 477.081H102.461V337.59H108.922Z" fill="#007E88"/>
<path d="M121.843 350.409V464.28C121.843 469.118 119.129 473.33 115.136 475.514V339.175C119.129 341.359 121.843 345.571 121.843 350.409Z" fill="#007E88"/>
<path d="M96.8409 337.59H89.7861V477.09H96.8409V337.59Z" fill="#007E88"/>
<path d="M65.0305 337.59H71.4913V477.09H65.0305C64.8295 477.09 64.6376 477.072 64.4365 477.063V337.626C64.6376 337.617 64.8295 337.599 65.0305 337.599V337.59Z" fill="#007E88"/>
<path d="M58.8169 339.175V475.505C54.8234 473.321 52.1094 469.108 52.1094 464.271V350.4C52.1094 345.562 54.8234 341.349 58.8169 339.166V339.175Z" fill="#007E88"/>
<path d="M84.1661 337.59H77.1113V477.09H84.1661V337.59Z" fill="#007E88"/>
<path d="M98.2759 279.961V279.952C98.2759 276.665 95.5879 274 92.272 274H26.8967C23.5809 274 20.8929 276.665 20.8929 279.952V279.961C20.8929 283.249 23.5809 285.913 26.8967 285.913H92.272C95.5879 285.913 98.2759 283.249 98.2759 279.961Z" fill="#956B53"/>
<path d="M100.369 279.961V279.952C100.369 276.665 97.6806 274 94.3648 274H35.5782C32.2624 274 29.5743 276.665 29.5743 279.952V279.961C29.5743 283.249 32.2624 285.913 35.5782 285.913H94.3648C97.6806 285.913 100.369 283.249 100.369 279.961Z" fill="#7E543B"/>
<path d="M93.7796 283.35V276.564C93.7796 275.151 92.3266 274 90.5264 274H97.1151C98.9153 274 100.368 275.151 100.368 276.564V283.35C100.368 284.763 98.9153 285.913 97.1151 285.913H90.5264C92.3266 285.913 93.7796 284.763 93.7796 283.35Z" fill="#583B27"/>
<path d="M19.2844 426.211H12.2662C11.9281 426.211 11.654 425.894 11.654 425.495V389.193C11.654 388.795 11.9281 388.478 12.2662 388.478H19.2844V378.956C18.1421 379.626 17.3562 381.004 17.3562 382.607V384.401H6.98429C4.78197 384.401 3 386.503 3 389.085V425.595C3 428.186 4.78197 430.279 6.98429 430.279H17.3471V432.073C17.3471 433.676 18.133 435.053 19.2753 435.724V426.202L19.2844 426.211Z" fill="#423C25"/>
</g>
<g clip-path="url(#clip3_1403_1484)">
<path d="M424.602 381.5V382.313H431.977C431.977 380.995 430.624 379.921 428.953 379.921H427.625V359.75C427.625 358.237 426.069 357 424.154 357H388.862C386.947 357 385.391 358.229 385.391 359.75V379.929H384.063C382.392 379.929 381.04 380.995 381.04 382.321H388.414V364.266C388.414 364.03 388.65 363.843 388.944 363.843H424.081C424.374 363.843 424.61 364.03 424.61 364.266V381.508L424.602 381.5Z" fill="#423C25"/>
<path d="M351.354 487C349.659 487 348.291 485.633 348.291 483.941V477.61H354.418V483.941C354.418 485.633 353.049 487 351.354 487Z" fill="#571C03"/>
<path d="M461.646 487C459.951 487 458.582 485.633 458.582 483.941V477.61H464.71V483.941C464.71 485.633 463.341 487 461.646 487Z" fill="#571C03"/>
<path d="M352.609 400.263V463.558C352.609 473.705 360.847 481.931 371.009 481.931H459.601C469.762 481.931 478 473.705 478 463.558V400.263C478 390.116 469.762 381.89 459.601 381.89H371.009C360.847 381.89 352.609 390.116 352.609 400.263Z" fill="#AC423E"/>
<path d="M449.643 381.898H447.239C458.785 381.898 468.148 391.247 468.148 402.777V461.052C468.148 472.582 458.785 481.931 447.239 481.931H449.643C461.189 481.931 470.552 472.582 470.552 461.052V402.777C470.552 391.247 461.189 381.898 449.643 381.898Z" fill="#8F3532"/>
<path d="M335 403.819V460.019C335 472.125 344.828 481.939 356.952 481.939H438.438C450.562 481.939 460.391 472.125 460.391 460.019V403.819C460.391 391.712 450.562 381.898 438.438 381.898H356.952C344.828 381.898 335 391.712 335 403.819Z" fill="#E45B54"/>
<path d="M339.571 461.052V402.777C339.571 391.247 348.934 381.898 360.481 381.898H355.909C344.363 381.898 335 391.247 335 402.777V461.052C335 472.582 344.363 481.931 355.909 481.931H360.481C348.934 481.931 339.571 472.582 339.571 461.052Z" fill="#EC7D78"/>
<path d="M388.186 396.577C367.313 396.577 350.393 413.473 350.393 434.315C350.393 455.157 367.313 472.053 388.186 472.053H407.197C428.069 472.053 444.99 455.157 444.99 434.315C444.99 413.473 428.069 396.577 407.197 396.577H388.186Z" fill="#C13933"/>
<path d="M388.194 392.508C367.322 392.508 350.401 409.404 350.401 430.246C350.401 451.088 367.322 467.984 388.194 467.984H407.205C428.078 467.984 444.998 451.088 444.998 430.246C444.998 409.404 428.078 392.508 407.205 392.508H388.194Z" fill="#F8635C"/>
<path d="M388.186 394.176C367.313 394.176 350.393 411.072 350.393 431.914C350.393 452.756 367.313 469.652 388.186 469.652H407.197C428.069 469.652 444.99 452.756 444.99 431.914C444.99 411.072 428.069 394.176 407.197 394.176H388.186Z" fill="#D64139"/>
</g>
<defs>
<linearGradient id="paint0_linear_1403_1484" x1="189.508" y1="386.096" x2="305.952" y2="386.096" gradientUnits="userSpaceOnUse">
<stop stop-color="#454545"/>
<stop offset="1" stop-color="#2E2E2E"/>
</linearGradient>
<linearGradient id="paint1_linear_1403_1484" x1="267.332" y1="317.91" x2="275.404" y2="317.91" gradientUnits="userSpaceOnUse">
<stop stop-color="#3D3D3D"/>
<stop offset="1" stop-color="#262626"/>
</linearGradient>
<linearGradient id="paint2_linear_1403_1484" x1="269.743" y1="80.3952" x2="246.549" y2="151.294" gradientUnits="userSpaceOnUse">
<stop stop-color="#F7C3AF"/>
<stop offset="1" stop-color="#F79480"/>
</linearGradient>
<linearGradient id="paint3_linear_1403_1484" x1="402.666" y1="111.411" x2="391.223" y2="106.559" gradientUnits="userSpaceOnUse">
<stop stop-color="#333333"/>
<stop offset="0.55" stop-color="#4C4C4C"/>
<stop offset="0.59" stop-color="#484848"/>
<stop offset="0.74" stop-color="#404040"/>
<stop offset="1" stop-color="#3E3E3E"/>
</linearGradient>
<linearGradient id="paint4_linear_1403_1484" x1="409.156" y1="40.7104" x2="409.37" y2="46.8401" gradientUnits="userSpaceOnUse">
<stop stop-color="#020202"/>
<stop offset="1" stop-color="#7D7D7D"/>
</linearGradient>
<linearGradient id="paint5_linear_1403_1484" x1="392.754" y1="130.904" x2="395.325" y2="142.044" gradientUnits="userSpaceOnUse">
<stop stop-color="#F7B59C"/>
<stop offset="1" stop-color="#F79480"/>
</linearGradient>
<linearGradient id="paint6_linear_1403_1484" x1="396.96" y1="128.252" x2="399.16" y2="137.795" gradientUnits="userSpaceOnUse">
<stop stop-color="#F7B59C"/>
<stop offset="1" stop-color="#F79480"/>
</linearGradient>
<linearGradient id="paint7_linear_1403_1484" x1="392.818" y1="130.022" x2="395.376" y2="141.108" gradientUnits="userSpaceOnUse">
<stop stop-color="#F7B59C"/>
<stop offset="1" stop-color="#F79480"/>
</linearGradient>
<linearGradient id="paint8_linear_1403_1484" x1="388.984" y1="132.248" x2="390.095" y2="143.912" gradientUnits="userSpaceOnUse">
<stop stop-color="#F7B59C"/>
<stop offset="1" stop-color="#F79480"/>
</linearGradient>
<linearGradient id="paint9_linear_1403_1484" x1="387.017" y1="130.987" x2="389.586" y2="142.163" gradientUnits="userSpaceOnUse">
<stop stop-color="#F7B59C"/>
<stop offset="1" stop-color="#F79480"/>
</linearGradient>
<linearGradient id="paint10_linear_1403_1484" x1="245.066" y1="309.658" x2="247.981" y2="309.658" gradientUnits="userSpaceOnUse">
<stop stop-color="#3D3D3D"/>
<stop offset="1" stop-color="#262626"/>
</linearGradient>
<linearGradient id="paint11_linear_1403_1484" x1="271.65" y1="308.349" x2="281.48" y2="308.349" gradientUnits="userSpaceOnUse">
<stop stop-color="#3D3D3D"/>
<stop offset="1" stop-color="#262626"/>
</linearGradient>
<linearGradient id="paint12_linear_1403_1484" x1="270.457" y1="308.304" x2="278.723" y2="308.304" gradientUnits="userSpaceOnUse">
<stop stop-color="#3D3D3D"/>
<stop offset="1" stop-color="#262626"/>
</linearGradient>
<linearGradient id="paint13_linear_1403_1484" x1="253.986" y1="79.2892" x2="253.986" y2="111.688" gradientUnits="userSpaceOnUse">
<stop stop-color="#F7C3AF"/>
<stop offset="1" stop-color="#F79480"/>
</linearGradient>
<linearGradient id="paint14_linear_1403_1484" x1="304.563" y1="269.837" x2="283.617" y2="268.363" gradientUnits="userSpaceOnUse">
<stop stop-color="#F7B59C"/>
<stop offset="1" stop-color="#F79480"/>
</linearGradient>
<linearGradient id="paint15_linear_1403_1484" x1="304.63" y1="268.969" x2="283.428" y2="267.488" gradientUnits="userSpaceOnUse">
<stop stop-color="#F7B59C"/>
<stop offset="1" stop-color="#F79480"/>
</linearGradient>
<linearGradient id="paint16_linear_1403_1484" x1="304.239" y1="274.454" x2="283.292" y2="272.993" gradientUnits="userSpaceOnUse">
<stop stop-color="#F7B59C"/>
<stop offset="1" stop-color="#F79480"/>
</linearGradient>
<linearGradient id="paint17_linear_1403_1484" x1="304.28" y1="278.051" x2="283.327" y2="276.583" gradientUnits="userSpaceOnUse">
<stop stop-color="#F7B59C"/>
<stop offset="1" stop-color="#F79480"/>
</linearGradient>
<linearGradient id="paint18_linear_1403_1484" x1="304.958" y1="283.126" x2="284.854" y2="281.095" gradientUnits="userSpaceOnUse">
<stop stop-color="#F7B59C"/>
<stop offset="1" stop-color="#F79480"/>
</linearGradient>
<linearGradient id="paint19_linear_1403_1484" x1="185.109" y1="461.515" x2="185.109" y2="454.642" gradientUnits="userSpaceOnUse">
<stop stop-color="#F7B59C"/>
<stop offset="1" stop-color="#E3826F"/>
</linearGradient>
<linearGradient id="paint20_linear_1403_1484" x1="162.495" y1="461.774" x2="162.495" y2="454.723" gradientUnits="userSpaceOnUse">
<stop stop-color="#F7B59C"/>
<stop offset="1" stop-color="#E3826F"/>
</linearGradient>
<linearGradient id="paint21_linear_1403_1484" x1="176.974" y1="254.621" x2="202.904" y2="445.307" gradientUnits="userSpaceOnUse">
<stop stop-color="#C1210D"/>
<stop offset="0.52" stop-color="#C1210D"/>
<stop offset="1" stop-color="#9D1D06"/>
</linearGradient>
<radialGradient id="paint22_radial_1403_1484" cx="0" cy="0" r="1" gradientUnits="userSpaceOnUse" gradientTransform="translate(162.352 296.906) rotate(180) scale(26.8218 27.9044)">
<stop stop-color="#8293AD"/>
<stop offset="1" stop-color="white"/>
</radialGradient>
<radialGradient id="paint23_radial_1403_1484" cx="0" cy="0" r="1" gradientUnits="userSpaceOnUse" gradientTransform="translate(147.167 267.816) rotate(180) scale(16.4317 17.0949)">
<stop stop-color="#8293AD"/>
<stop offset="1" stop-color="white"/>
</radialGradient>
<radialGradient id="paint24_radial_1403_1484" cx="0" cy="0" r="1" gradientUnits="userSpaceOnUse" gradientTransform="translate(197.683 199.23) rotate(180) scale(59.2842 59.3049)">
<stop stop-color="#DEDEDE"/>
<stop offset="0.57" stop-color="#EEEEEE"/>
<stop offset="1" stop-color="#F5F5F5"/>
</radialGradient>
<radialGradient id="paint25_radial_1403_1484" cx="0" cy="0" r="1" gradientUnits="userSpaceOnUse" gradientTransform="translate(197.3 198.436) rotate(180) scale(63.7396 63.7619)">
<stop stop-color="#DEDEDE"/>
<stop offset="0.57" stop-color="#EEEEEE"/>
<stop offset="1" stop-color="#F5F5F5"/>
</radialGradient>
<linearGradient id="paint26_linear_1403_1484" x1="220.255" y1="212.19" x2="241.867" y2="224.601" gradientUnits="userSpaceOnUse">
<stop stop-color="#F7B59C"/>
<stop offset="1" stop-color="#E3826F"/>
</linearGradient>
<linearGradient id="paint27_linear_1403_1484" x1="163.938" y1="118.87" x2="163.938" y2="111.106" gradientUnits="userSpaceOnUse">
<stop stop-color="#F7B59C"/>
<stop offset="1" stop-color="#E3826F"/>
</linearGradient>
<linearGradient id="paint28_linear_1403_1484" x1="168.26" y1="108.886" x2="167.172" y2="121.633" gradientUnits="userSpaceOnUse">
<stop stop-color="#F7B59C"/>
<stop offset="1" stop-color="#F79480"/>
</linearGradient>
<linearGradient id="paint29_linear_1403_1484" x1="140.164" y1="94.3917" x2="131.733" y2="89.7856" gradientUnits="userSpaceOnUse">
<stop stop-color="#F7B59C"/>
<stop offset="1" stop-color="#F79480"/>
</linearGradient>
<linearGradient id="paint30_linear_1403_1484" x1="261.119" y1="210.915" x2="242.37" y2="210.915" gradientUnits="userSpaceOnUse">
<stop stop-color="#F7B59C"/>
<stop offset="1" stop-color="#E3826F"/>
</linearGradient>
<linearGradient id="paint31_linear_1403_1484" x1="256.353" y1="212.038" x2="239.34" y2="219.94" gradientUnits="userSpaceOnUse">
<stop stop-color="#F7B59C"/>
<stop offset="1" stop-color="#E3826F"/>
</linearGradient>
<linearGradient id="paint32_linear_1403_1484" x1="242.667" y1="131.542" x2="220.959" y2="132.968" gradientUnits="userSpaceOnUse">
<stop stop-color="#F7B59C"/>
<stop offset="1" stop-color="#E3826F"/>
</linearGradient>
<linearGradient id="paint33_linear_1403_1484" x1="281.941" y1="134.134" x2="287.755" y2="133.907" gradientUnits="userSpaceOnUse">
<stop stop-color="#F7B59C"/>
<stop offset="1" stop-color="#E3826F"/>
</linearGradient>
<linearGradient id="paint34_linear_1403_1484" x1="283.795" y1="131.716" x2="290.722" y2="131.453" gradientUnits="userSpaceOnUse">
<stop stop-color="#F7B59C"/>
<stop offset="1" stop-color="#E3826F"/>
</linearGradient>
<linearGradient id="paint35_linear_1403_1484" x1="286.159" y1="128.649" x2="293.385" y2="128.361" gradientUnits="userSpaceOnUse">
<stop stop-color="#F7B59C"/>
<stop offset="1" stop-color="#E3826F"/>
</linearGradient>
<linearGradient id="paint36_linear_1403_1484" x1="246.992" y1="137.381" x2="226.17" y2="140.765" gradientUnits="userSpaceOnUse">
<stop stop-color="#F7B59C"/>
<stop offset="1" stop-color="#E3826F"/>
</linearGradient>
<clipPath id="clip0_1403_1484">
<rect width="252" height="465" fill="white" transform="translate(178 22)"/>
</clipPath>
<clipPath id="clip1_1403_1484">
<rect width="171" height="448" fill="white" transform="translate(128 39)"/>
</clipPath>
<clipPath id="clip2_1403_1484">
<rect width="128" height="216" fill="white" transform="translate(3 274)"/>
</clipPath>
<clipPath id="clip3_1403_1484">
<rect width="143" height="130" fill="white" transform="translate(335 357)"/>
</clipPath>
</defs>
</svg>
