<svg width="138" height="102" viewBox="0 0 138 102" fill="none" xmlns="http://www.w3.org/2000/svg">
<g clip-path="url(#clip0_286_2004)">
<path d="M14.8972 72.6343H52.0546C57.9563 72.6343 62.7477 77.3977 62.7477 83.2649V102.003H4.2041V83.2649C4.2041 77.3977 8.99549 72.6343 14.8972 72.6343Z" fill="#3F94E8"/>
<path d="M14.8972 72.6343H45.5828C51.4845 72.6343 56.2759 77.3977 56.2759 83.2649V102.003H4.2041V83.2649C4.2041 77.3977 8.99549 72.6343 14.8972 72.6343Z" fill="#67B3FE"/>
<path d="M4.20487 8.99987C4.20487 8.99987 2.36767 32.1041 9.253 41.9491L28.8387 17.1642L25.5644 0.570312C25.5644 0.570312 20.2028 2.18131 15.7582 6.47399C15.2947 6.92149 14.8713 7.33584 14.4845 7.71704C12.0205 10.1634 8.29272 10.833 5.11847 9.41091L4.1982 8.99987H4.20487Z" fill="#212121"/>
<path d="M14.6943 42.6319C14.6943 47.2395 11.5667 50.9753 7.71223 50.9753C3.85778 50.9753 0 47.2428 0 42.6319C0 38.021 3.85445 34.2886 7.71223 34.2886C11.57 34.2886 14.6943 38.0244 14.6943 42.6319Z" fill="#FFA78F"/>
<path d="M63.6251 30.9106H57.8301V37.3745H63.6251V30.9106Z" fill="#C86D36"/>
<path d="M52.4854 42.6715C52.4854 47.2791 55.6129 51.0149 59.4674 51.0149C63.3252 51.0149 67.1796 47.2791 67.1796 42.6715C67.1796 38.0639 63.3252 34.3281 59.4674 34.3281C55.6096 34.3281 52.4854 38.0639 52.4854 42.6715Z" fill="#FFA78F"/>
<path d="M59.7309 34.3281H57.5703V35.1071H59.7309V34.3281Z" fill="#FFA78F"/>
<path d="M43.8258 61.1284V73.8141C43.8258 78.9985 39.2478 83.2017 33.6028 83.2017C27.9579 83.2017 23.3799 78.9985 23.3799 73.8141V61.1284C23.3799 55.9473 27.9579 51.7441 33.6028 51.7441C36.427 51.7441 38.9811 52.7949 40.8316 54.4921C42.6788 56.1926 43.8225 58.5395 43.8225 61.1284H43.8258Z" fill="#FFB09E"/>
<path d="M43.8258 65.1694V73.4299C40.8083 74.6531 37.4706 75.3326 33.9596 75.3326H32.826C29.475 75.3326 26.2841 74.716 23.3799 73.5956V65.1694C23.3799 59.9883 27.9579 55.7852 33.6028 55.7852C36.427 55.7852 38.9811 56.836 40.8316 58.5331C42.6788 60.2336 43.8225 62.5805 43.8225 65.1694H43.8258Z" fill="#FFA78F"/>
<path d="M35.8206 13.8525H31.7895C19.3429 13.8525 9.25293 23.8835 9.25293 36.2573V49.0857C9.25293 61.4595 19.3429 71.4904 31.7895 71.4904H35.8206C48.2672 71.4904 58.3572 61.4595 58.3572 49.0857V36.2573C58.3572 23.8835 48.2672 13.8525 35.8206 13.8525Z" fill="#FFCEBF"/>
<path d="M58.3607 36.2605V49.0855C58.3607 61.4597 48.2678 71.4903 35.8208 71.4903H31.793C29.1456 71.4903 26.6048 71.0362 24.2441 70.2008C25.0644 70.2936 25.898 70.34 26.7449 70.34H30.7727C43.2196 70.34 53.3092 60.3094 53.3092 47.9352V35.1069C53.3092 25.3647 47.0541 17.0744 38.3182 13.9883C49.5915 15.2247 58.3607 24.7216 58.3607 36.2605Z" fill="#FFB09E"/>
<path d="M29.6657 0H37.1613C51.7688 0 63.6256 11.7908 63.6256 26.3096V33.695C63.6256 34.0431 63.3388 34.3282 62.9887 34.3282H32.0664C22.477 34.3282 14.6914 26.5881 14.6914 17.0547V14.8868C14.6947 6.67271 21.4034 0 29.6657 0Z" fill="#212121"/>
<path d="M63.6251 26.3063V34.3282H53.2654C53.2654 33.874 53.3054 34.0431 53.3054 33.695V26.3096C53.3054 12.3178 42.3156 0.871795 28.4482 0.0497221C28.8517 0.016574 29.2585 0 29.6686 0H37.1641C51.7783 0 63.6251 11.7775 63.6251 26.3063Z" fill="black"/>
<path d="M22.5269 48.5256C23.6318 48.5256 24.5275 47.6352 24.5275 46.5367C24.5275 45.4383 23.6318 44.5479 22.5269 44.5479C21.4221 44.5479 20.5264 45.4383 20.5264 46.5367C20.5264 47.6352 21.4221 48.5256 22.5269 48.5256Z" fill="black"/>
<path d="M45.0865 48.5256C46.1914 48.5256 47.0871 47.6352 47.0871 46.5367C47.0871 45.4383 46.1914 44.5479 45.0865 44.5479C43.9816 44.5479 43.0859 45.4383 43.0859 46.5367C43.0859 47.6352 43.9816 48.5256 45.0865 48.5256Z" fill="black"/>
<path d="M33.8999 62.4112C30.0588 62.4112 26.9346 59.0102 26.9346 54.8269C26.9346 54.0943 27.5314 53.501 28.2683 53.501C29.0052 53.501 29.602 54.0943 29.602 54.8269C29.602 57.5484 31.5292 59.7593 33.8999 59.7593C36.2706 59.7593 38.1978 57.545 38.1978 54.8269C38.1978 54.0943 38.7947 53.501 39.5316 53.501C40.2684 53.501 40.8653 54.0943 40.8653 54.8269C40.8653 59.0102 37.741 62.4112 33.8999 62.4112Z" fill="#FFA799"/>
<path d="M67.5434 76.834H62.762V63.0908C62.762 56.4048 68.2236 50.9752 74.9488 50.9752H80.8105V63.6444C80.8105 70.9237 74.8655 76.834 67.5434 76.834Z" fill="#181818"/>
<path d="M83.4773 73.9502H116.544C122.445 73.9502 127.237 78.7136 127.237 84.5808V102H72.7842V84.5808C72.7842 78.7136 77.5756 73.9502 83.4773 73.9502Z" fill="#E45D59"/>
<path d="M83.4773 73.9502H108.014C113.916 73.9502 118.707 78.7136 118.707 84.5808V102H72.7842V84.5808C72.7842 78.7136 77.5756 73.9502 83.4773 73.9502Z" fill="#F5706C"/>
<path d="M82.0976 46.6095C82.0976 51.2171 78.97 54.9529 75.1156 54.9529C71.2611 54.9529 67.4033 51.2171 67.4033 46.6095C67.4033 42.0019 71.2578 38.2661 75.1156 38.2661C78.9733 38.2661 82.0976 42.0019 82.0976 46.6095Z" fill="#FFA78F"/>
<path d="M119.948 50.9785H125.81C132.535 50.9785 137.997 56.4082 137.997 63.0941V76.8373H133.215C125.893 76.8373 119.948 70.927 119.948 63.6477V50.9785Z" fill="#181818"/>
<path d="M138 63.0941V76.8373H133.218C132.201 76.8373 131.211 76.7246 130.257 76.5059V63.0941C130.257 57.038 125.786 52.0194 119.951 51.1211V50.9785H125.813C132.545 50.9785 138 56.4015 138 63.0941Z" fill="black"/>
<path d="M119.888 46.6495C119.888 51.2571 123.015 54.9929 126.87 54.9929C130.728 54.9929 134.582 51.2571 134.582 46.6495C134.582 42.0419 130.728 38.3062 126.87 38.3062C123.012 38.3062 119.888 42.0419 119.888 46.6495Z" fill="#FFA78F"/>
<path d="M111.229 61.1284V73.8141C111.229 78.9985 106.651 83.2017 101.006 83.2017C95.3612 83.2017 90.7832 78.9985 90.7832 73.8141V61.1284C90.7832 55.9473 95.3612 51.7441 101.006 51.7441C103.83 51.7441 106.384 52.7949 108.235 54.4921C110.082 56.1926 111.226 58.5395 111.226 61.1284H111.229Z" fill="#FFB09E"/>
<path d="M111.229 65.1694V73.4299C108.212 74.6531 104.874 75.3326 101.363 75.3326H100.229C96.8783 75.3326 93.6874 74.716 90.7832 73.5956V65.1694C90.7832 59.9883 95.3612 55.7852 101.006 55.7852C103.83 55.7852 106.384 56.836 108.235 58.5331C110.082 60.2336 111.226 62.5805 111.226 65.1694H111.229Z" fill="#FFA78F"/>
<path d="M103.02 13.8525H98.9887C86.5421 13.8525 76.4521 23.8835 76.4521 36.2573V49.0857C76.4521 61.4595 86.5421 71.4904 98.9887 71.4904H103.02C115.466 71.4904 125.556 61.4595 125.556 49.0857V36.2573C125.556 23.8835 115.466 13.8525 103.02 13.8525Z" fill="#FFCEBF"/>
<path d="M125.763 36.2605V49.0855C125.763 61.4597 115.67 71.4903 103.223 71.4903H99.1953C96.5479 71.4903 94.0072 71.0362 91.6465 70.2008C92.4667 70.2936 93.3003 70.34 94.1472 70.34H98.175C110.622 70.34 120.712 60.3094 120.712 47.9352V35.1069C120.712 25.3647 114.456 17.0744 105.721 13.9883C116.994 15.2247 125.763 24.7216 125.763 36.2605Z" fill="#FFB09E"/>
<path d="M89.9293 48.5256C91.0342 48.5256 91.9299 47.6352 91.9299 46.5367C91.9299 45.4383 91.0342 44.5479 89.9293 44.5479C88.8244 44.5479 87.9287 45.4383 87.9287 46.5367C87.9287 47.6352 88.8244 48.5256 89.9293 48.5256Z" fill="black"/>
<path d="M112.489 48.5256C113.594 48.5256 114.489 47.6352 114.489 46.5367C114.489 45.4383 113.594 44.5479 112.489 44.5479C111.384 44.5479 110.488 45.4383 110.488 46.5367C110.488 47.6352 111.384 48.5256 112.489 48.5256Z" fill="black"/>
<path d="M101.302 62.4112C97.4612 62.4112 94.3369 59.0102 94.3369 54.8269C94.3369 54.0943 94.9338 53.501 95.6706 53.501C96.4075 53.501 97.0044 54.0943 97.0044 54.8269C97.0044 57.5484 98.9316 59.7593 101.302 59.7593C103.673 59.7593 105.6 57.545 105.6 54.8269C105.6 54.0943 106.197 53.501 106.934 53.501C107.671 53.501 108.268 54.0943 108.268 54.8269C108.268 59.0102 105.143 62.4112 101.302 62.4112Z" fill="#FFA799"/>
<path d="M97.6519 7.10352H97.7719C99.0256 7.10352 100.046 8.11785 100.046 9.36422V25.6897C100.046 32.7867 94.2509 38.5478 87.1121 38.5478H72.2979V32.3093C72.2979 18.3971 83.6578 7.10352 97.6519 7.10352Z" fill="#181818"/>
<path d="M127.794 38.5513H112.98C105.841 38.5513 100.046 32.7901 100.046 25.6931V9.36769C100.046 8.12132 101.066 7.10699 102.32 7.10699H102.44C116.434 7.10699 127.794 18.4005 127.794 32.3128V38.5513Z" fill="#181818"/>
<path d="M127.797 32.3126V38.5511H120.128V32.3126C120.128 20.4158 111.839 10.4415 100.686 7.79631C101.099 7.3687 101.679 7.10352 102.319 7.10352H102.439C116.443 7.10352 127.797 18.3904 127.797 32.3126Z" fill="black"/>
</g>
<defs>
<clipPath id="clip0_286_2004">
<rect width="138" height="102" fill="white"/>
</clipPath>
</defs>
</svg>
