<svg width="90" height="107" viewBox="0 0 90 107" fill="none" xmlns="http://www.w3.org/2000/svg">
<g clip-path="url(#clip0_286_2041)">
<path d="M51.0538 19.4464C50.8549 17.6833 48.0603 17.6624 48.2627 19.4464C48.4546 21.1433 47.2055 22.7531 46.431 24.1957C45.782 25.4013 45.1819 26.4675 45.0214 27.8404C44.8121 29.6175 47.0729 51.1966 47.8126 27.8404C47.8614 26.3526 49.3338 24.7358 50.0071 23.4326C50.6665 22.1503 51.2178 20.9203 51.0538 19.4499V19.4464Z" fill="#212121"/>
<path d="M56.0987 23.2379C55.7708 23.0114 55.4463 22.9522 55.1567 23.0114C54.9195 22.3563 54.2252 21.9487 53.5414 22.102C53.5414 21.9487 53.5309 21.7953 53.5169 21.642C53.4158 20.4991 52.0341 19.7256 51.134 20.6559C49.0406 22.8198 43.0118 32.8933 49.6303 33.0152C52.1458 33.0605 54.7311 31.8863 56.1546 29.7817C57.3687 27.9907 58.1747 24.677 56.0953 23.2379H56.0987Z" fill="black"/>
<path d="M35.8628 71.2498C34.7463 72.5948 33.5217 73.8283 31.7633 74.3474C27.9778 75.4625 24.0283 73.3021 23.1003 69.3682C22.9747 68.8316 22.9328 68.2741 22.8525 67.727C22.87 65.2182 22.8874 62.706 22.9084 60.1972C24.6319 60.5282 26.324 61.023 28.0859 61.1345C28.3616 61.1519 28.6337 61.2251 28.9058 61.232C30.6747 61.2843 30.6573 61.2738 31.2295 59.6745C32.0075 57.5037 33.5322 56.1935 35.8209 55.8033C35.8942 55.8033 35.9709 55.8033 36.0442 55.7998C37.2269 55.8033 38.4132 55.8103 39.5959 55.8137C39.6622 59.6466 39.4145 63.483 39.7948 67.3089C38.7167 67.3019 37.6386 67.3159 36.5606 67.2845C36.0128 67.2671 35.8209 67.4866 35.8349 68.0197C35.8628 68.957 35.8453 69.8978 35.8453 70.8351C35.8383 70.978 35.8663 71.1139 35.8593 71.2568L35.8628 71.2498Z" fill="#FFB09E"/>
<path d="M37.4921 57.7544V64.1553C35.3429 65.1031 32.9634 65.6293 30.4619 65.6293H29.6559C27.2695 65.6293 24.9947 65.1519 22.9258 64.2843V57.7544C22.9258 53.7404 26.1879 50.4824 30.2107 50.4824C32.2203 50.4824 34.0415 51.2978 35.3638 52.6114C36.6792 53.9285 37.4956 55.7474 37.4956 57.7544H37.4921Z" fill="#FFA78F"/>
<path d="M31.229 0C32.4222 0.623714 33.8108 0.763091 34.9273 1.63072C35.803 2.31018 36.6089 3.03843 37.2649 3.91302C38.1685 5.12212 38.5976 5.26498 39.906 4.57158C40.5061 4.25449 41.005 3.75274 41.6923 3.59245C41.6923 3.89211 41.9435 3.98619 42.1389 4.1186C44.4939 5.72493 45.6662 7.95148 45.6627 10.8052C45.6627 11.8192 46.2419 12.3523 47.163 12.6694C50.6414 13.8646 52.2568 17.464 50.8822 20.9066C49.4692 19.9693 49.2703 20.039 48.4015 21.4641C46.9397 23.8614 46.2698 26.4399 46.4826 29.2414C34.7947 29.2449 23.1068 29.2518 11.4189 29.2553C9.4476 29.2553 9.04289 29.6525 9.04987 31.5446C6.56923 31.5063 4.05023 31.2867 1.95338 33.0568C0.79854 32.1369 0.201933 30.9139 0.023997 29.4679C-0.160916 27.4295 0.578737 25.8022 2.07898 24.4189C3.18148 23.4015 3.2059 22.83 2.38949 21.4432C0.484536 18.2097 2.1348 14.2897 4.97479 13.0562C6.6739 12.3175 7.75896 11.5195 7.38564 9.53341C7.37518 9.47069 7.3996 9.39752 7.41356 9.32783C8.70097 3.37642 14.7508 1.40423 19.3108 4.48795C20.4901 5.28589 21.2402 5.17438 22.0985 3.98968C23.1347 2.56106 24.45 1.50528 26.0096 0.717793C26.6097 0.414648 27.3703 0.540087 27.8762 0H31.222L31.229 0Z" fill="#212121"/>
<path d="M89.1283 62.4202C88.8143 65.0788 86.9408 66.4029 84.6206 67.2043C83.6193 67.2322 82.618 67.2845 81.6166 67.274C80.9642 67.267 80.5874 67.4064 80.57 68.18C80.5525 68.8559 80.3537 69.5284 80.2106 70.1975C79.8268 71.9641 78.9406 73.539 78.2603 75.1941C78.1277 75.3509 77.9742 75.4973 77.8626 75.6715C75.4098 79.4521 72.1756 82.2919 67.9575 83.9679C67.6784 84.0794 67.3399 84.1387 67.2178 84.4871C67.2143 86.9785 67.2108 89.4699 67.2074 91.9612C67.1166 94.0658 66.37 95.8533 64.7372 97.2506C62.9264 98.8012 60.847 99.073 58.5967 98.6339C56.4126 98.2088 53.5168 96.0241 53.3877 91.9647C53.3877 89.4594 53.3877 86.9506 53.3877 84.4453C53.8587 84.3477 54.2739 84.5603 54.7065 84.6788C55.5334 84.9053 56.3603 85.2537 57.229 85.1248C62.3787 84.3617 66.548 81.8146 69.8241 77.8702C73.1909 73.8143 74.576 69.0337 74.5341 63.7931C74.5027 59.9358 74.5411 56.0785 74.5516 52.2178C75.3191 53.8694 76.4147 55.1621 78.2952 55.5733C80.4165 56.0263 82.5622 55.6708 84.6939 55.7893C85.6254 56.2841 86.6791 56.5838 87.4432 57.3573C88.3259 58.2528 88.8178 59.333 89.076 60.5212C89.1527 60.8731 89.1842 61.2355 89.1667 61.5979L89.1318 62.4167L89.1283 62.4202Z" fill="#FFA78F"/>
<path d="M50.8861 20.9067C52.2608 17.4675 50.6454 13.8646 47.1669 12.6695C46.2459 12.3524 45.6632 11.8193 45.6667 10.8053C45.6667 7.95502 44.4979 5.72847 42.1429 4.11866C41.9475 3.98625 41.6963 3.89566 41.6963 3.59251C46.2249 1.95831 50.9908 4.12563 51.9468 9.08746C51.9852 9.28608 52.0794 9.49166 52.0584 9.6833C51.8247 11.6764 52.9795 12.3907 54.6542 13.1329C57.5849 14.4291 58.663 18.2446 57.2569 21.1575C56.8487 22.0043 56.0114 22.8405 56.9429 23.858C56.9255 24.2448 56.6708 24.4016 56.3393 24.4852C55.9765 24.3806 55.4846 24.3876 55.2717 24.1472C54.0366 22.7499 52.2712 22.0879 50.8931 20.9067H50.8861Z" fill="black"/>
<path d="M35.8242 50.3673C35.8347 51.9632 35.8452 53.5591 35.8556 55.1549C35.8452 55.3675 35.8347 55.5835 35.8242 55.7961C33.532 56.1863 32.0108 57.4965 31.2328 59.6673C30.6606 61.2666 30.6781 61.2771 28.9092 61.2248C28.6335 61.2179 28.3649 61.1447 28.0893 61.1273C26.3274 61.0192 24.6352 60.521 22.9117 60.19C21.6033 59.4478 20.1833 58.9425 18.8994 58.1307C14.4301 55.3013 11.5273 51.3256 9.89099 46.3463C9.53512 45.2592 9.2874 44.172 9.27345 43.0326C8.88618 39.2102 9.13738 35.3738 9.05713 31.5444C9.04667 29.6524 9.45487 29.2551 11.4261 29.2551C23.114 29.2517 34.802 29.2447 46.4899 29.2412C46.8632 29.729 46.6853 30.3179 46.783 30.8545C44.5675 32.2901 42.6521 34.0497 41.0541 36.1543" fill="#FFCEBF"/>
<path d="M9.0532 31.5446C9.13344 35.374 8.88573 39.2104 9.26951 43.0328C7.56691 42.8621 5.83989 43.2767 4.14427 42.6913C0.962362 41.5937 -1.1624 37.1755 1.54501 33.7503C1.71248 33.5377 1.95322 33.367 1.95671 33.0534C4.05356 31.2868 6.57257 31.5063 9.0532 31.5412V31.5446Z" fill="#FFA78F"/>
<path d="M53.3833 84.4455C53.3833 86.9508 53.3833 89.4596 53.3833 91.9649C49.5944 91.9649 45.8019 91.9405 42.0129 91.9754C37.5994 92.0137 33.5523 95.31 32.4498 99.5819C31.9613 101.47 32.1497 103.369 32.066 105.268C32.0381 105.937 32.1671 106.502 32.694 106.941C32.2788 106.962 31.8601 106.997 31.4449 106.997C22.1051 106.997 12.7687 106.997 3.42881 106.997C1.87623 106.997 1.56572 106.694 1.56572 105.087C1.56223 96.2089 1.63201 87.3306 1.53781 78.4523C1.47849 72.9085 5.21514 68.5983 10.4171 67.8247C10.93 67.7481 11.4568 67.7411 11.9767 67.7376C15.6017 67.7272 19.2232 67.7272 22.8482 67.7202C22.9285 68.2673 22.9703 68.8248 23.0959 69.3614C24.024 73.2918 27.9734 75.4557 31.7589 74.3406C33.5174 73.8215 34.742 72.588 35.8584 71.243C35.8829 71.8667 35.8724 72.4974 35.8933 73.1211C35.8829 76.0759 35.8584 79.0307 35.8724 81.982C35.8794 83.3653 36.9679 84.442 38.3705 84.4455C43.3806 84.456 48.3907 84.442 53.3973 84.435H53.3764L53.3833 84.4455Z" fill="#FFE075"/>
<path d="M32.6978 106.941C32.1709 106.502 32.0384 105.937 32.0698 105.268C32.1535 103.369 31.9651 101.47 32.4535 99.5817C33.556 95.3098 37.6067 92.0135 42.0167 91.9752C45.8057 91.9438 49.5982 91.9682 53.3871 91.9648C53.5197 96.0241 56.412 98.2089 58.5961 98.634C60.8465 99.073 62.9259 98.8047 64.7366 97.2506C66.3695 95.8534 67.1161 94.0659 67.2068 91.9613C69.5095 91.9717 71.8122 91.9857 74.1149 91.9961C74.1498 92.3933 74.4812 92.3271 74.7324 92.4073C76.2676 92.8986 77.712 93.6129 78.8494 94.7453C80.5834 96.4701 81.6824 98.5259 81.8708 101.049C82.0208 103.045 82.3313 105.024 81.6405 106.979C77.0491 106.986 72.4576 107 67.8662 107.004C56.5935 107.004 45.3242 107.004 34.0515 107.004C33.6014 107.004 33.1513 106.965 32.6978 106.948V106.941Z" fill="#FF8C93"/>
<path d="M78.2564 75.1939C78.9368 73.5388 79.823 71.9673 80.2067 70.1972C80.3533 69.5282 80.5521 68.8557 80.5661 68.1797C80.5835 67.4027 80.9603 67.2668 81.6128 67.2738C82.6141 67.2842 83.6154 67.2285 84.6167 67.2041C84.8226 69.7686 84.6726 72.3332 84.704 74.9012C84.7319 77.0546 84.7179 79.2045 84.704 81.3579C84.6935 83.5182 83.755 84.5217 81.3825 84.6193C79.9346 84.682 78.4797 84.5287 77.0283 84.473C77.0283 84.3893 77.0283 84.3057 77.0283 84.2186C77.6075 83.5043 78.3122 82.8841 78.2913 81.8283C78.2529 79.6157 78.2634 77.403 78.2529 75.1939H78.2564Z" fill="black"/>
<path d="M81.6409 106.975C82.3317 105.021 82.0212 103.041 81.8711 101.045C81.6827 98.5222 80.5837 96.4663 78.8497 94.7415C77.7123 93.6091 76.2679 92.8948 74.7328 92.4035C74.4816 92.3233 74.1501 92.3896 74.1152 91.9923C76.3307 92.0341 78.5566 91.7867 80.7477 92.3547C84.6867 93.3791 87.1499 95.8357 88.1233 99.794C88.6013 101.742 88.4757 103.721 88.4792 105.69C88.4792 106.596 87.9244 106.989 87.0696 106.989C85.2624 106.989 83.4516 106.975 81.6444 106.968L81.6409 106.975Z" fill="#FF7483"/>
<path d="M78.2568 75.1943C78.2672 77.407 78.2568 79.6196 78.2951 81.8287C78.3126 82.8845 77.6078 83.5047 77.0321 84.219C76.8402 84.226 76.6763 84.2852 76.5925 84.4769C73.4665 84.4769 70.3439 84.4838 67.2178 84.4873C67.3399 84.1389 67.6783 84.0796 67.9574 83.9681C72.1721 82.2886 75.4098 79.4488 77.8625 75.6717C77.9742 75.501 78.1242 75.3546 78.2602 75.1943H78.2568Z" fill="#212121"/>
<path d="M76.5918 84.4766C76.6755 84.285 76.8395 84.2257 77.0314 84.2188C77.0314 84.3024 77.0314 84.386 77.0314 84.4731C76.8849 84.4731 76.7383 84.4731 76.5918 84.4766Z" fill="#5F5461"/>
<path d="M39.7946 67.3017C39.4178 63.4758 39.662 59.6394 39.5957 55.8066C40.0842 55.7996 40.5691 55.7891 41.0576 55.7822C43.7301 55.7543 45.9142 53.7089 46.0851 51.0642C46.1619 49.9109 46.5457 49.5276 47.718 49.5241C50.4323 49.5137 53.1467 49.4893 55.8611 49.5311C57.466 49.559 58.7953 49.1304 59.7129 47.7262C60.0897 47.1477 60.4805 47.1338 60.8956 47.7575C61.733 49.0224 62.9506 49.5381 64.4544 49.5241C67.2036 49.4997 69.9529 49.5102 72.7022 49.5241C73.9303 49.5311 74.4781 50.0782 74.5234 51.2768C74.5339 51.5904 74.5444 51.9005 74.5548 52.2141C74.5478 56.0714 74.5095 59.9286 74.5374 63.7894C74.5792 69.03 73.1941 73.8106 69.8273 77.8665C66.5512 81.8144 62.3784 84.3615 57.2323 85.1211C56.3635 85.25 55.5401 84.9051 54.7098 84.6751C54.2771 84.5566 53.862 84.3441 53.391 84.4416L53.4119 84.4382C53.2479 84.3197 53.1014 84.1594 52.9199 84.0862C49.7415 82.8144 46.9713 80.9677 44.7244 78.3613C41.9682 75.1661 40.3354 71.4795 39.8051 67.2982L39.7946 67.3017Z" fill="#FFCEBF"/>
<path d="M39.7946 67.3017C40.325 71.483 41.9578 75.1661 44.714 78.3648C46.9644 80.9711 49.7311 82.8179 52.9095 84.0897C53.091 84.1629 53.2375 84.3232 53.4015 84.4416C48.3914 84.4486 43.3813 84.4626 38.3746 84.4521C36.9721 84.4521 35.8835 83.3719 35.8766 81.9886C35.8626 79.0338 35.8905 76.079 35.8975 73.1277C35.8835 71.8036 35.8766 71.8628 35.8452 70.828C35.8452 69.8907 35.8626 68.9499 35.8347 68.0125C35.8207 67.4794 36.0091 67.2599 36.5604 67.2773C37.6385 67.3087 38.7166 67.2982 39.7946 67.3017Z" fill="#212121"/>
<path d="M20.5563 40.8342C21.7124 40.8342 22.6496 39.8981 22.6496 38.7435C22.6496 37.5889 21.7124 36.6528 20.5563 36.6528C19.4001 36.6528 18.4629 37.5889 18.4629 38.7435C18.4629 39.8981 19.4001 40.8342 20.5563 40.8342Z" fill="black"/>
<path d="M32.4573 55.4306C28.4381 55.4306 25.1689 51.8556 25.1689 47.4582C25.1689 46.6882 25.7935 46.0645 26.5645 46.0645C27.3356 46.0645 27.9601 46.6882 27.9601 47.4582C27.9601 50.3189 29.9767 52.6431 32.4573 52.6431C34.938 52.6431 36.9546 50.3155 36.9546 47.4582C36.9546 46.6882 37.5791 46.0645 38.3501 46.0645C39.1212 46.0645 39.7457 46.6882 39.7457 47.4582C39.7457 51.8556 36.4766 55.4306 32.4573 55.4306Z" fill="#FFA799"/>
<path d="M48.402 63.7687C49.5581 63.7687 50.4953 62.8327 50.4953 61.6781C50.4953 60.5234 49.5581 59.5874 48.402 59.5874C47.2458 59.5874 46.3086 60.5234 46.3086 61.6781C46.3086 62.8327 47.2458 63.7687 48.402 63.7687Z" fill="black"/>
<path d="M72.0113 63.7687C73.1675 63.7687 74.1047 62.8327 74.1047 61.6781C74.1047 60.5234 73.1675 59.5874 72.0113 59.5874C70.8552 59.5874 69.918 60.5234 69.918 61.6781C69.918 62.8327 70.8552 63.7687 72.0113 63.7687Z" fill="black"/>
<path d="M60.3021 78.3647C56.2828 78.3647 53.0137 74.7897 53.0137 70.3923C53.0137 69.6222 53.6382 68.9985 54.4092 68.9985C55.1803 68.9985 55.8048 69.6222 55.8048 70.3923C55.8048 73.253 57.8214 75.5771 60.3021 75.5771C62.7827 75.5771 64.7993 73.2495 64.7993 70.3923C64.7993 69.6222 65.4238 68.9985 66.1949 68.9985C66.9659 68.9985 67.5904 69.6222 67.5904 70.3923C67.5904 74.7897 64.3213 78.3647 60.3021 78.3647Z" fill="#FFA799"/>
<path d="M78.2814 49.3222L78.2919 55.5733C76.4114 55.1621 75.3158 53.8694 74.5448 52.2177C74.5343 51.9041 74.5273 51.594 74.5134 51.2804C74.4715 50.0783 73.9237 49.5312 72.6956 49.5278C69.9464 49.5138 67.1971 49.5034 64.4478 49.5278C62.9441 49.5417 61.7299 49.026 60.8926 47.7612C60.4774 47.1374 60.0866 47.1514 59.7098 47.7298C58.7922 49.1305 57.4664 49.5591 55.8581 49.5347C53.1472 49.4894 50.4328 49.5138 47.7184 49.5278C46.5461 49.5312 46.1623 49.9145 46.0855 51.0679C45.9146 53.7091 43.7305 55.7579 41.058 55.7823C40.573 55.7893 40.0846 55.7997 39.5961 55.8067C38.4134 55.8032 37.2306 55.7997 36.0479 55.7928C35.7967 55.7928 35.8455 55.7997 35.856 55.1551C35.8455 53.5593 35.8351 51.9634 35.8246 50.3675C35.7827 49.019 36.32 47.7298 36.2398 46.3778C36.7841 44.4126 37.44 42.4788 38.1587 40.5693C39.1705 39.1302 39.9101 37.5134 41.0475 36.1545C42.6455 34.0534 44.5609 32.2938 46.7764 30.8547C46.7868 30.8756 46.7973 30.8965 46.8078 30.9174C50.2269 27.8581 55.0277 25.9556 60.3483 25.9556C70.7244 25.9556 79.1327 33.1927 79.1327 42.1233C79.1327 44.3011 79.0664 45.437 78.1837 46.1618C78.3233 46.8691 78.1942 47.7855 78.264 48.5208C78.2884 48.81 78.3826 48.7856 78.2814 49.3222Z" fill="#212121"/>
<path d="M84.6904 55.7895C82.5587 55.6745 80.4095 56.0264 78.2917 55.5734C78.2882 54.0716 78.2882 52.5698 78.2847 51.0681C78.2847 50.4862 78.2812 49.9043 78.2812 49.3224C78.1207 48.514 78.1138 48.622 78.0824 48.4861C78.0684 48.3467 78.0545 48.2108 78.0405 48.0749C78.0405 48.0645 78.0405 48.054 78.037 48.0436C77.5102 43.4755 77.1508 39.8064 74.2376 35.5135C73.9968 35.1581 72.6361 33.4089 72.6361 33.4089C69.5938 29.6771 65.6199 26.4923 61.8135 25.9209C62.3578 25.9662 71.0522 26.8269 77.4858 33.9177C77.4893 33.9246 77.4927 33.9316 77.4997 33.9351C79.1116 35.5519 80.4932 37.3742 81.6411 39.3987C83.1134 42.0016 83.9891 44.824 84.3694 47.8066C84.7044 50.4653 84.7358 53.1239 84.6904 55.7895Z" fill="black"/>
<path d="M78.2843 51.0678L78.2738 51.0818C78.2738 51.0818 78.1517 49.6741 78.04 48.0747C78.054 48.2106 78.068 48.3465 78.0819 48.4859C78.1133 48.6218 78.1203 48.5137 78.2808 49.3221C78.2808 49.904 78.2843 50.4859 78.2843 51.0678Z" fill="black"/>
<path d="M39.5434 55.8557C39.6237 59.6851 39.376 63.5214 39.7597 67.3439C38.0571 67.1731 36.3301 67.5878 34.6345 67.0024C31.4526 65.9048 29.3278 61.4865 32.0352 58.0613C32.2027 57.8488 32.4435 57.678 32.4469 57.3644C34.5438 55.5978 37.0628 55.8173 39.5434 55.8522V55.8557Z" fill="#FFA78F"/>
</g>
<defs>
<clipPath id="clip0_286_2041">
<rect width="89.1667" height="107" fill="white"/>
</clipPath>
</defs>
</svg>
