<svg width="143" height="111" viewBox="0 0 143 111" fill="none" xmlns="http://www.w3.org/2000/svg">
<g clip-path="url(#clip0_286_1966)">
<path d="M11.6562 78.5869H60.349C66.7823 78.5869 72.0052 83.8446 72.0052 90.3206V111.004H0V90.3206C0 83.8446 5.22293 78.5869 11.6562 78.5869Z" fill="#05739D"/>
<path d="M11.6562 78.5869H52.3892C58.8225 78.5869 64.0454 83.8446 64.0454 90.3206V111.004H0V90.3206C0 83.8446 5.22293 78.5869 11.6562 78.5869Z" fill="#0880AE"/>
<path d="M17.1262 43.1516C17.1262 47.8861 13.9532 51.7241 10.0424 51.7241C6.13154 51.7241 2.2207 47.8861 2.2207 43.1516C2.2207 38.4172 6.13154 34.5791 10.0424 34.5791C13.9532 34.5791 17.1262 38.4172 17.1262 43.1516Z" fill="#FFA78F"/>
<path d="M54.4824 43.1516C54.4824 47.8861 57.6554 51.7241 61.5663 51.7241C65.4771 51.7241 69.388 47.8861 69.388 43.1516C69.388 38.4172 65.4771 34.5791 61.5663 34.5791C57.6554 34.5791 54.4824 38.4172 54.4824 43.1516Z" fill="#FFA78F"/>
<path d="M46.3345 65.8873V79.8894C46.3345 85.6118 41.7258 90.2511 36.0413 90.2511C30.3567 90.2511 25.748 85.6118 25.748 79.8894V65.8873C25.748 60.1686 30.3567 55.5293 36.0413 55.5293C38.8835 55.5293 41.4568 56.6891 43.3214 58.5624C45.1823 60.4394 46.3345 63.0298 46.3345 65.8873Z" fill="#FFB09E"/>
<path d="M46.3345 65.8873V75.005C43.2959 76.3551 39.9339 77.1051 36.4011 77.1051H35.2598C31.8869 77.1051 28.6739 76.4246 25.748 75.1879V65.8873C25.748 60.1686 30.3567 55.5293 36.0413 55.5293C38.8835 55.5293 41.4568 56.6891 43.3214 58.5624C45.1823 60.4394 46.3345 63.0298 46.3345 65.8873Z" fill="#FFA78F"/>
<path d="M28.0661 35.6107H6.05124L4.89907 21.6707C4.27028 14.0678 10.231 7.54785 17.8092 7.54785H28.0624V35.6107H28.0661Z" fill="#181818"/>
<path d="M36.4004 13.585H35.2591C21.6514 13.585 10.6201 24.6896 10.6201 38.3878V47.9958C10.6201 61.694 21.6514 72.7986 35.2591 72.7986H36.4004C50.0081 72.7986 61.0394 61.694 61.0394 47.9958V38.3878C61.0394 24.6896 50.0081 13.585 36.4004 13.585Z" fill="#FFCEBF"/>
<path d="M51.8988 23.0505V34.3561H24.85C19.936 34.3561 15.5418 32.1242 12.6123 28.6118C16.3778 19.7759 25.1008 13.5889 35.2595 13.5889H36.4008C41.9945 13.5889 47.152 15.4658 51.2882 18.627C51.6843 20.032 51.8988 21.5174 51.8988 23.0505Z" fill="#FFCEBF"/>
<path d="M36.4005 13.585H35.2592C34.2851 13.585 33.322 13.6472 32.377 13.7606C44.6256 15.1985 54.1337 25.6736 54.1337 38.3878V47.9921C54.1337 60.71 44.6256 71.1851 32.377 72.6193C33.322 72.7291 34.2815 72.795 35.2592 72.795H36.4005C50.0084 72.795 61.0395 61.6906 61.0395 47.9921V38.3878C61.0395 24.6893 50.0084 13.585 36.4005 13.585Z" fill="#FFB09E"/>
<path d="M27.0454 0H50.4014C59.2262 0 66.39 7.21145 66.39 16.095V36.4926H31.8031C22.9783 36.4926 15.8145 29.2812 15.8145 20.3977V11.3056C15.8145 5.06741 20.8484 0 27.0454 0Z" fill="black"/>
<path d="M51.8988 23.0505V34.3561H24.85C19.936 34.3561 15.5418 32.1242 12.6123 28.6118C16.3778 19.7759 25.1008 13.5889 35.2595 13.5889H36.4008C41.9945 13.5889 47.152 15.4658 51.2882 18.627C51.6843 20.032 51.8988 21.5174 51.8988 23.0505Z" fill="#FFB09E"/>
<path d="M27.0454 0H42.8632C51.688 0 58.8518 7.21145 58.8518 16.095V36.4926H31.8031C22.9783 36.4926 15.8145 29.2812 15.8145 20.3977V11.3056C15.8145 5.06741 20.8484 0 27.0454 0Z" fill="#181818"/>
<path d="M23.4327 47.1361C24.6371 47.1361 25.6135 46.1533 25.6135 44.9409C25.6135 43.7285 24.6371 42.7456 23.4327 42.7456C22.2283 42.7456 21.252 43.7285 21.252 44.9409C21.252 46.1533 22.2283 47.1361 23.4327 47.1361Z" fill="black"/>
<path d="M48.0274 47.1361C49.2318 47.1361 50.2082 46.1533 50.2082 44.9409C50.2082 43.7285 49.2318 42.7456 48.0274 42.7456C46.823 42.7456 45.8467 43.7285 45.8467 44.9409C45.8467 46.1533 46.823 47.1361 48.0274 47.1361Z" fill="black"/>
<path d="M35.83 62.4627C31.6429 62.4627 28.2373 58.7088 28.2373 54.0914C28.2373 53.2829 28.8879 52.6279 29.6911 52.6279C30.4944 52.6279 31.145 53.2829 31.145 54.0914C31.145 57.0953 33.2458 59.5357 35.83 59.5357C38.4142 59.5357 40.515 57.0916 40.515 54.0914C40.515 53.2829 41.1656 52.6279 41.9689 52.6279C42.7721 52.6279 43.4227 53.2829 43.4227 54.0914C43.4227 58.7088 40.0171 62.4627 35.83 62.4627Z" fill="#FFA799"/>
<path d="M126.699 87.7264H93.0679C83.7997 87.7264 76.5232 78.0635 77.3228 66.8274L78.4714 50.6996L81.579 33.0276L81.6153 32.8301L140.005 34.5204V41.655C140.005 41.655 140.809 48.1421 141.437 56.3414C141.612 58.6611 141.961 62.1662 142.371 66.0079C143.593 77.522 136.236 87.73 126.699 87.73V87.7264Z" fill="black"/>
<path d="M119.746 88.1547H93.0679C83.7997 88.1547 76.5232 78.4919 77.3228 67.2558L78.4714 51.1279L80.2996 33.4194L133.052 34.9488V42.0834C133.052 42.0834 133.856 48.5704 134.481 56.7698C134.659 59.0894 135.008 62.5945 135.415 66.4362C136.64 77.9504 129.283 88.1584 119.746 88.1584V88.1547Z" fill="#212121"/>
<path d="M91.956 78.5869H127.277C133.71 78.5869 138.933 83.8446 138.933 90.3206V111.004H80.2998V90.3206C80.2998 83.8446 85.5227 78.5869 91.956 78.5869Z" fill="#AA1B17"/>
<path d="M91.956 78.5869H120.793C127.226 78.5869 132.449 83.8446 132.449 90.3206V111.004H80.2998V90.3206C80.2998 83.8446 85.5227 78.5869 91.956 78.5869Z" fill="#C21B17"/>
<path d="M90.7415 44.1834C90.7415 48.9178 87.5685 52.7559 83.6576 52.7559C79.7468 52.7559 75.8359 48.9178 75.8359 44.1834C75.8359 39.4489 79.7468 35.6108 83.6576 35.6108C87.5685 35.6108 90.7415 39.4489 90.7415 44.1834Z" fill="#FFA78F"/>
<path d="M128.095 44.1834C128.095 48.9178 131.268 52.7559 135.179 52.7559C139.089 52.7559 143 48.9178 143 44.1834C143 39.4489 139.089 35.6108 135.179 35.6108C131.268 35.6108 128.095 39.4489 128.095 44.1834Z" fill="#FFA78F"/>
<path d="M119.95 65.8873V79.8894C119.95 85.6118 115.341 90.2511 109.656 90.2511C103.972 90.2511 99.3633 85.6118 99.3633 79.8894V65.8873C99.3633 60.1686 103.972 55.5293 109.656 55.5293C112.499 55.5293 115.072 56.6891 116.937 58.5624C118.798 60.4394 119.95 63.0298 119.95 65.8873Z" fill="#FFB09E"/>
<path d="M119.95 65.8873V75.005C116.911 76.3551 113.549 77.1051 110.016 77.1051H108.875C105.502 77.1051 102.289 76.4246 99.3633 75.1879V65.8873C99.3633 60.1686 103.972 55.5293 109.656 55.5293C112.499 55.5293 115.072 56.6891 116.937 58.5624C118.798 60.4394 119.95 63.0298 119.95 65.8873Z" fill="#FFA78F"/>
<path d="M103.51 37.0376H80.0127L80.3434 22.3879C79.7147 14.3971 85.6754 7.54785 93.2536 7.54785H103.507V37.0376H103.51Z" fill="#212121"/>
<path d="M110.013 13.585H108.871C95.2637 13.585 84.2324 24.6896 84.2324 38.3878V47.9958C84.2324 61.694 95.2637 72.7986 108.871 72.7986H110.013C123.62 72.7986 134.652 61.694 134.652 47.9958V38.3878C134.652 24.6896 123.62 13.585 110.013 13.585Z" fill="#FFCEBF"/>
<path d="M125.514 23.0505V34.3561H98.4653C93.5513 34.3561 89.157 32.1242 86.2275 28.6118C89.993 19.7759 98.716 13.5889 108.875 13.5889H110.016C115.61 13.5889 120.767 15.4658 124.903 18.627C125.3 20.032 125.514 21.5174 125.514 23.0505Z" fill="#FFCEBF"/>
<path d="M110.016 13.585H108.874C107.9 13.585 106.937 13.6472 105.992 13.7606C118.241 15.1985 127.749 25.6736 127.749 38.3878V47.9921C127.749 60.71 118.241 71.1851 105.992 72.6193C106.937 72.7291 107.897 72.795 108.874 72.795H110.016C123.624 72.795 134.655 61.6906 134.655 47.9921V38.3878C134.655 24.6893 123.624 13.585 110.016 13.585Z" fill="#FFB09E"/>
<path d="M106.538 0H117.983C130.137 0 140.005 9.93358 140.005 22.1685V37.3817H105.418C96.5935 37.3817 89.4297 30.1703 89.4297 21.2868V17.2219C89.4297 7.71636 97.0951 0 106.538 0Z" fill="black"/>
<path d="M125.514 23.0505V34.3561H98.4653C93.5513 34.3561 89.157 32.1242 86.2275 28.6118C89.993 19.7759 98.716 13.5889 108.875 13.5889H110.016C115.61 13.5889 120.767 15.4658 124.903 18.627C125.3 20.032 125.514 21.5174 125.514 23.0505Z" fill="#FFB09E"/>
<path d="M106.887 0H111.535C124.129 0 134.353 10.2921 134.353 22.9698V37.3817H105.418C96.5935 37.3817 89.4297 30.1703 89.4297 21.2868V17.5731C89.4297 7.87369 97.2514 0 106.887 0Z" fill="#212121"/>
<path d="M97.044 47.1361C98.2484 47.1361 99.2248 46.1533 99.2248 44.9409C99.2248 43.7285 98.2484 42.7456 97.044 42.7456C95.8396 42.7456 94.8633 43.7285 94.8633 44.9409C94.8633 46.1533 95.8396 47.1361 97.044 47.1361Z" fill="black"/>
<path d="M121.64 47.1361C122.844 47.1361 123.821 46.1533 123.821 44.9409C123.821 43.7285 122.844 42.7456 121.64 42.7456C120.435 42.7456 119.459 43.7285 119.459 44.9409C119.459 46.1533 120.435 47.1361 121.64 47.1361Z" fill="black"/>
<path d="M109.441 62.4627C105.254 62.4627 101.849 58.7088 101.849 54.0914C101.849 53.2829 102.499 52.6279 103.302 52.6279C104.106 52.6279 104.756 53.2829 104.756 54.0914C104.756 57.0953 106.857 59.5357 109.441 59.5357C112.026 59.5357 114.126 57.0916 114.126 54.0914C114.126 53.2829 114.777 52.6279 115.58 52.6279C116.383 52.6279 117.034 53.2829 117.034 54.0914C117.034 58.7088 113.628 62.4627 109.441 62.4627Z" fill="#FFA799"/>
</g>
<defs>
<clipPath id="clip0_286_1966">
<rect width="143" height="111" fill="white"/>
</clipPath>
</defs>
</svg>
