<svg width="137" height="193" viewBox="0 0 137 193" fill="none" xmlns="http://www.w3.org/2000/svg">
<g clip-path="url(#clip0_69_7969)">
<mask id="mask0_69_7969" style="mask-type:luminance" maskUnits="userSpaceOnUse" x="100" y="64" width="18" height="30">
<path d="M103.4 68.93C98.5899 74.61 101.79 88.32 102.34 90.02C103.15 92.51 105.95 95.57 110.63 91.02C115.67 86.1 120.8 68.62 113.56 65.5C112.55 65.06 111.59 64.88 110.68 64.88C106.44 64.88 103.49 68.81 103.39 68.93" fill="white"/>
</mask>
<g mask="url(#mask0_69_7969)">
<path d="M120.81 64.88H98.5999V95.57H120.81V64.88Z" fill="url(#paint0_linear_69_7969)"/>
</g>
<mask id="mask1_69_7969" style="mask-type:luminance" maskUnits="userSpaceOnUse" x="14" y="64" width="17" height="30">
<path d="M17.7801 65.2999C10.5401 68.4199 15.6601 85.8999 20.7101 90.8199C25.3901 95.3699 28.2001 92.3199 29.0101 89.8299C29.5601 88.1299 32.7601 74.4199 27.9501 68.7399C27.8501 68.6199 24.9001 64.6899 20.6601 64.6899C19.7501 64.6899 18.7901 64.8699 17.7801 65.3099" fill="white"/>
</mask>
<g mask="url(#mask1_69_7969)">
<path d="M32.75 64.6799H10.54V95.3699H32.75V64.6799Z" fill="url(#paint1_linear_69_7969)"/>
</g>
<mask id="mask2_69_7969" style="mask-type:luminance" maskUnits="userSpaceOnUse" x="26" y="14" width="81" height="117">
<path d="M66.6699 14.61C66.6699 14.61 66.5799 14.61 66.5299 14.61C32.0999 14.82 29.3999 52.71 29.3999 52.71C29.3999 52.71 24.3799 92.65 27.9599 102.39C30.4999 109.3 38.7399 117.1 46.7099 122.54C49.9799 124.77 53.2099 126.62 55.9799 127.83C60.3499 129.75 63.68 130.48 66.2299 130.61C66.32 130.61 66.4199 130.61 66.5099 130.61C66.5399 130.61 66.5699 130.61 66.5899 130.61H66.66C66.66 130.61 66.7099 130.61 66.7299 130.61C66.7299 130.61 66.7799 130.61 66.7999 130.61C66.8999 130.61 66.9999 130.61 67.0899 130.61C69.6399 130.48 72.9599 129.74 77.3399 127.83C79.5699 126.85 82.0999 125.46 84.6999 123.8C93.2299 118.35 102.62 109.85 105.37 102.38C108.95 92.64 103.92 52.7 103.92 52.7C103.92 52.7 101.22 14.81 66.7899 14.6C66.7399 14.6 66.6899 14.6 66.6499 14.6" fill="white"/>
</mask>
<g mask="url(#mask2_69_7969)">
<path d="M108.97 14.61H24.3799V130.64H108.97V14.61Z" fill="url(#paint2_linear_69_7969)"/>
</g>
<mask id="mask3_69_7969" style="mask-type:luminance" maskUnits="userSpaceOnUse" x="25" y="122" width="81" height="62">
<path d="M45.43 147.92C43.63 153.49 36.87 156.86 25.99 161.6C26.02 163.69 27.11 181.2 56.58 183.66H67.59C103.04 183.66 105.25 164.71 105.38 161.56C94.56 156.84 87.84 153.47 86.05 147.92C84.54 143.26 84.58 130.82 84.73 123.81C82.12 125.47 79.6 126.86 77.37 127.84C72.99 129.76 69.67 130.49 67.12 130.62C67.03 130.62 66.93 130.62 66.83 130.62C66.81 130.62 66.78 130.62 66.76 130.62H66.69C66.69 130.62 66.64 130.62 66.62 130.62C66.62 130.62 66.57 130.62 66.54 130.62C66.45 130.62 66.35 130.62 66.26 130.62C63.7 130.49 60.38 129.75 56.01 127.84C53.24 126.63 50.01 124.78 46.74 122.55C46.91 129.22 47.05 142.98 45.45 147.93" fill="white"/>
</mask>
<g mask="url(#mask3_69_7969)">
<path d="M105.38 122.55H25.99V183.66H105.38V122.55Z" fill="url(#paint3_linear_69_7969)"/>
</g>
<g style="mix-blend-mode:multiply" opacity="0.2">
<mask id="mask4_69_7969" style="mask-type:luminance" maskUnits="userSpaceOnUse" x="46" y="122" width="39" height="23">
<path d="M84.7199 122.57H46.1599V144.24H84.7199V122.57Z" fill="white"/>
</mask>
<g mask="url(#mask4_69_7969)">
<mask id="mask5_69_7969" style="mask-type:luminance" maskUnits="userSpaceOnUse" x="46" y="122" width="39" height="23">
<path d="M84.7199 122.57H46.1599V144.24H84.7199V122.57Z" fill="white"/>
</mask>
<g mask="url(#mask5_69_7969)">
<path d="M84.7199 123.83C82.1199 125.49 79.5899 126.88 77.3599 127.86C72.9899 129.77 69.6599 130.51 67.1099 130.64C67.0199 130.64 66.9199 130.64 66.8199 130.65H66.7399H66.6699H66.5899H66.5099C66.4099 130.65 66.3199 130.65 66.2199 130.64C63.6699 130.51 60.3399 129.77 55.9699 127.86C53.1999 126.65 49.9699 124.8 46.6999 122.57C46.8399 127.96 46.9499 137.99 46.1399 144.24C59.3799 141.85 72.6699 137.45 84.6399 130.77C84.6399 128.22 84.6599 125.8 84.6999 123.82" fill="#ECB699"/>
</g>
</g>
</g>
<path d="M70.48 96.53C70.25 96.53 70.02 96.52 69.79 96.49C69.32 96.44 68.98 96.01 69.03 95.54C69.08 95.07 69.49 94.73 69.97 94.79C71.35 94.94 72.5 94.49 73.22 93.51C74.53 91.74 74.33 88.51 72.66 84.66C67.55 72.85 72.26 66.67 72.46 66.41C72.75 66.04 73.29 65.98 73.66 66.27C74.03 66.56 74.09 67.1 73.8 67.47C73.62 67.7 69.55 73.17 74.22 83.98C76.84 90.04 75.57 93.18 74.58 94.52C73.63 95.81 72.15 96.52 70.46 96.52" fill="#DFAC97"/>
<path d="M91.0599 74.2399C91.0599 76.2099 89.4599 77.8199 87.4799 77.8199C85.4999 77.8199 83.9099 76.2099 83.9099 74.2399C83.9099 72.2699 85.5099 70.6699 87.4799 70.6699C89.4499 70.6699 91.0599 72.2799 91.0599 74.2399Z" fill="#231F20"/>
<path d="M49.3399 74.4599C49.3399 76.4299 47.7499 78.0399 45.7599 78.0399C43.7699 78.0399 42.1899 76.4299 42.1899 74.4599C42.1899 72.4899 43.7999 70.8899 45.7599 70.8899C47.7199 70.8899 49.3399 72.4999 49.3399 74.4599Z" fill="#231F20"/>
<path d="M25.75 52.36C25.75 52.36 56.66 28.43 112.51 52.36C112.51 52.36 107.59 17.6 69.13 17.6C30.67 17.6 25.75 52.36 25.75 52.36Z" fill="white"/>
<path d="M128 58.2C124.66 26.72 102.91 10.15 87.4299 3.88996C74.6399 -1.28004 60.2699 -1.28004 47.4499 3.81996C31.7899 10.05 9.72993 26.6 6.36993 58.2C1.91993 100.13 34.9499 142.68 34.9499 142.68L66.9499 134.83L99.8399 142.68C99.8399 142.68 132.46 100.13 128 58.2ZM75.5499 128.54C69.8299 131.35 63.0599 131.33 57.3799 128.45C35.6899 117.45 27.0399 91.07 28.3799 62.12C29.1299 45.85 36.3699 34.45 46.1999 27.03C58.6399 17.64 75.7199 17.64 88.1599 27.03C97.9899 34.45 104.22 45.82 104.97 62.09C106.32 91.18 97.6599 117.67 75.5399 128.54H75.5499Z" fill="#C1210D"/>
<path d="M33.96 133.08L0 173.06C0 173.06 44.03 217.09 136.45 172.23L102.21 133.83L33.96 133.08Z" fill="#C1210D"/>
<path d="M62.37 149.74C44.47 149.74 34.42 139.35 33.96 138.87L35.94 136.99C36.05 137.11 47.39 148.74 66.87 146.78L67.14 149.5C65.49 149.66 63.9 149.74 62.36 149.74H62.37Z" fill="#A51207"/>
<path d="M67.1601 170.81C45.1201 170.81 29.81 164.79 29.55 164.68L30.57 162.15C31.01 162.33 74.75 179.48 120.67 154.66L121.97 157.06C102.29 167.7 82.9801 170.8 67.1601 170.8V170.81Z" fill="#A51207"/>
<path d="M54.3701 138.22C50.6901 138.22 48.3301 137.67 48.0801 137.61L48.7301 134.96C48.8801 134.99 63.8301 138.43 78.2201 126.65L79.9501 128.76C70.2701 136.68 60.5001 138.22 54.3701 138.22Z" fill="#A51207"/>
<path d="M88.83 145.66L88.47 142.95C96.27 141.92 98.52 137.52 98.61 137.33L101.08 138.5C100.97 138.74 98.19 144.41 88.83 145.65V145.66Z" fill="#A51207"/>
<path d="M50 102C50 102 55.0685 109.648 66.3112 109.648C66.3112 109.648 78.8718 110.234 84.7788 102.46L85 102.142C65.4265 109.229 50 102 50 102Z" fill="white"/>
</g>
<defs>
<linearGradient id="paint0_linear_69_7969" x1="102.365" y1="84.2318" x2="102.365" y2="55.7508" gradientUnits="userSpaceOnUse">
<stop stop-color="#FBDCCC"/>
<stop offset="0.19" stop-color="#FAD9C7"/>
<stop offset="0.4" stop-color="#F9D0BA"/>
<stop offset="0.62" stop-color="#F8C2A4"/>
<stop offset="0.85" stop-color="#F5AE86"/>
<stop offset="1" stop-color="#F49E6D"/>
</linearGradient>
<linearGradient id="paint1_linear_69_7969" x1="13.304" y1="82.7518" x2="13.304" y2="54.2708" gradientUnits="userSpaceOnUse">
<stop stop-color="#FBDCCC"/>
<stop offset="0.19" stop-color="#FAD9C7"/>
<stop offset="0.4" stop-color="#F9D0BA"/>
<stop offset="0.62" stop-color="#F8C2A4"/>
<stop offset="0.85" stop-color="#F5AE86"/>
<stop offset="1" stop-color="#F49E6D"/>
</linearGradient>
<linearGradient id="paint2_linear_69_7969" x1="66.6749" y1="-10.873" x2="66.6749" y2="130.64" gradientUnits="userSpaceOnUse">
<stop stop-color="#FFAE9E"/>
<stop offset="1" stop-color="#FCD7CB"/>
</linearGradient>
<linearGradient id="paint3_linear_69_7969" x1="71.0016" y1="190.449" x2="71.0016" y2="129.345" gradientUnits="userSpaceOnUse">
<stop stop-color="#FBDCCC"/>
<stop offset="0.19" stop-color="#FAD9C7"/>
<stop offset="0.4" stop-color="#F9D0BA"/>
<stop offset="0.62" stop-color="#F8C2A4"/>
<stop offset="0.85" stop-color="#F5AE86"/>
<stop offset="1" stop-color="#F49E6D"/>
</linearGradient>
<clipPath id="clip0_69_7969">
<rect width="136.45" height="192.39" fill="white"/>
</clipPath>
</defs>
</svg>
