<svg width="174" height="203" viewBox="0 0 174 203" fill="none" xmlns="http://www.w3.org/2000/svg">
<path d="M167.127 119.658C181.557 92.678 153.997 90.708 153.717 90.198C157.317 84.528 157.957 72.668 152.277 65.628C146.777 58.808 133.247 58.978 131.977 58.798C107.047 55.298 66.7174 8.80795 46.9174 58.208C45.5074 61.738 44.1374 65.648 42.2774 69.608C36.1674 69.398 30.0374 73.048 27.4974 78.638C25.1874 83.738 26.0674 90.038 29.4074 94.478C26.1074 94.938 1.34735 105.628 15.5674 124.548C-7.34265 127.718 4.16735 151.618 11.1674 150.648C16.0974 167.438 37.4874 160.458 48.2774 152.478C56.7974 161.728 66.8974 160.408 74.7874 149.038C75.8974 147.438 106.607 170.698 128.667 150.248C173.717 168.748 181.207 133.738 167.127 119.658Z" fill="black"/>
<path d="M91 122C119.719 122 143 99.6142 143 72C143 44.3858 119.719 22 91 22C62.2812 22 39 44.3858 39 72C39 99.6142 62.2812 122 91 122Z" fill="black"/>
<path d="M57.7773 33.658C53.9473 25.608 53.9073 11.738 68.0073 3.93801C85.9473 -5.97199 123.627 3.378 137.157 25.738C142.207 34.078 150.677 50.778 149.427 54.238C147.497 59.598 143.557 63.458 142.427 61.328C131.047 39.838 128.767 38.588 98.4473 26.438C81.5973 19.688 62.0773 32.128 57.7773 33.648V33.658Z" fill="#C1210D"/>
<path d="M130.437 21.888C131.187 19.568 135.797 11.518 138.447 13.228C142.017 15.538 135.577 24.308 133.967 25.578C132.527 24.748 131.087 23.918 130.447 21.888H130.437Z" fill="#C1210D"/>
<mask id="mask0_69_7674" style="mask-type:luminance" maskUnits="userSpaceOnUse" x="125" y="84" width="17" height="29">
<path d="M127.73 88.15C122.92 93.83 126.12 107.54 126.67 109.24C127.48 111.73 130.28 114.79 134.96 110.24C140 105.32 145.13 87.84 137.89 84.72C136.88 84.28 135.92 84.1 135.01 84.1C130.77 84.1 127.82 88.03 127.72 88.15" fill="white"/>
</mask>
<g mask="url(#mask0_69_7674)">
<path d="M145.14 84.1H122.93V114.79H145.14V84.1Z" fill="url(#paint0_linear_69_7674)"/>
</g>
<mask id="mask1_69_7674" style="mask-type:luminance" maskUnits="userSpaceOnUse" x="38" y="83" width="17" height="30">
<path d="M42.1099 84.52C34.8699 87.64 39.9899 105.12 45.0399 110.04C49.7199 114.59 52.5299 111.54 53.3399 109.05C53.8899 107.35 57.0899 93.64 52.2799 87.96C52.1799 87.84 49.2299 83.91 44.9899 83.91C44.0799 83.91 43.1199 84.09 42.1099 84.53" fill="white"/>
</mask>
<g mask="url(#mask1_69_7674)">
<path d="M57.0799 83.91H34.8699V114.6H57.0799V83.91Z" fill="url(#paint1_linear_69_7674)"/>
</g>
<path d="M45.9574 125.78C39.9474 125.78 35.0674 120.89 35.0674 114.89C35.0674 108.89 39.9574 104 45.9574 104C51.9574 104 56.8474 108.89 56.8474 114.89C56.8474 120.89 51.9574 125.78 45.9574 125.78ZM45.9574 107.28C41.7574 107.28 38.3474 110.69 38.3474 114.89C38.3474 119.09 41.7574 122.5 45.9574 122.5C50.1574 122.5 53.5674 119.09 53.5674 114.89C53.5674 110.69 50.1574 107.28 45.9574 107.28Z" fill="#F8AC46"/>
<path d="M90 118C116.51 118 138 97.4051 138 72C138 46.5949 116.51 26 90 26C63.4903 26 42 46.5949 42 72C42 97.4051 63.4903 118 90 118Z" fill="black"/>
<mask id="mask2_69_7674" style="mask-type:luminance" maskUnits="userSpaceOnUse" x="51" y="33" width="80" height="117">
<path d="M91 33.8299C91 33.8299 90.91 33.8299 90.86 33.8299C56.43 34.0399 53.73 71.9299 53.73 71.9299C53.73 71.9299 48.71 111.87 52.29 121.61C54.83 128.52 63.07 136.32 71.04 141.76C74.31 143.99 77.54 145.84 80.31 147.05C84.68 148.97 88.01 149.7 90.56 149.83C90.65 149.83 90.75 149.83 90.84 149.83C90.87 149.83 90.9 149.83 90.92 149.83H90.99C90.99 149.83 91.04 149.83 91.06 149.83C91.06 149.83 91.11 149.83 91.13 149.83C91.23 149.83 91.33 149.83 91.42 149.83C93.97 149.7 97.29 148.96 101.67 147.05C103.9 146.07 106.43 144.68 109.03 143.02C117.56 137.57 126.95 129.07 129.7 121.6C133.28 111.86 128.25 71.9199 128.25 71.9199C128.25 71.9199 125.55 34.0299 91.12 33.8199C91.07 33.8199 91.02 33.8199 90.98 33.8199" fill="white"/>
</mask>
<g mask="url(#mask2_69_7674)">
<path d="M133.3 33.83H48.71V149.86H133.3V33.83Z" fill="url(#paint2_linear_69_7674)"/>
</g>
<mask id="mask3_69_7674" style="mask-type:luminance" maskUnits="userSpaceOnUse" x="50" y="141" width="80" height="62">
<path d="M69.7501 167.15C67.9501 172.72 61.1901 176.09 50.3101 180.83C50.3401 182.92 51.4301 200.43 80.9001 202.89H91.9101C127.36 202.89 129.57 183.94 129.7 180.79C118.88 176.07 112.16 172.7 110.37 167.15C108.86 162.49 108.9 150.05 109.05 143.04C106.44 144.7 103.92 146.09 101.69 147.07C97.3101 148.99 93.9901 149.72 91.4401 149.85C91.3501 149.85 91.2501 149.85 91.1501 149.85C91.1301 149.85 91.1001 149.85 91.0801 149.85H91.0101C91.0101 149.85 90.9601 149.85 90.9401 149.85C90.9401 149.85 90.8901 149.85 90.8601 149.85C90.7701 149.85 90.6701 149.85 90.5801 149.85C88.0201 149.72 84.7001 148.98 80.3301 147.07C77.5601 145.86 74.3301 144.01 71.0601 141.78C71.2301 148.45 71.3701 162.21 69.7701 167.16" fill="white"/>
</mask>
<g mask="url(#mask3_69_7674)">
<path d="M129.71 141.77H50.3201V202.88H129.71V141.77Z" fill="url(#paint3_linear_69_7674)"/>
</g>
<g style="mix-blend-mode:multiply" opacity="0.2">
<mask id="mask4_69_7674" style="mask-type:luminance" maskUnits="userSpaceOnUse" x="70" y="141" width="40" height="23">
<path d="M109.05 141.8H70.49V163.47H109.05V141.8Z" fill="white"/>
</mask>
<g mask="url(#mask4_69_7674)">
<mask id="mask5_69_7674" style="mask-type:luminance" maskUnits="userSpaceOnUse" x="70" y="141" width="40" height="23">
<path d="M109.05 141.8H70.49V163.47H109.05V141.8Z" fill="white"/>
</mask>
<g mask="url(#mask5_69_7674)">
<path d="M109.05 143.06C106.45 144.72 103.92 146.11 101.69 147.09C97.32 149 93.99 149.74 91.44 149.87C91.35 149.87 91.25 149.87 91.15 149.88H91.07H91H90.92H90.84C90.74 149.88 90.65 149.88 90.55 149.87C88 149.74 84.67 149 80.3 147.09C77.53 145.88 74.3 144.03 71.03 141.8C71.17 147.19 71.28 157.22 70.47 163.47C83.71 161.08 97 156.68 108.97 150C108.97 147.45 108.99 145.03 109.03 143.05" fill="#ECB699"/>
</g>
</g>
</g>
<path d="M94.8101 115.75C94.5801 115.75 94.3501 115.74 94.1201 115.71C93.6501 115.66 93.3101 115.23 93.3601 114.76C93.4101 114.29 93.8201 113.95 94.3001 114.01C95.6801 114.16 96.8301 113.71 97.5501 112.73C98.8601 110.96 98.6601 107.73 96.9901 103.88C91.8801 92.0699 96.5901 85.8899 96.7901 85.6299C97.0801 85.2599 97.6201 85.1999 97.9901 85.4899C98.3601 85.7799 98.4201 86.3199 98.1301 86.6899C97.9501 86.9199 93.8801 92.3899 98.5501 103.2C101.17 109.26 99.9001 112.4 98.9101 113.74C97.9601 115.03 96.4801 115.74 94.7901 115.74" fill="#DFAC97"/>
<path d="M115.39 93.46C115.39 95.43 113.79 97.04 111.81 97.04C109.83 97.04 108.24 95.43 108.24 93.46C108.24 91.49 109.84 89.89 111.81 89.89C113.78 89.89 115.39 91.5 115.39 93.46Z" fill="#231F20"/>
<path d="M73.66 93.68C73.66 95.65 72.07 97.26 70.08 97.26C68.09 97.26 66.51 95.65 66.51 93.68C66.51 91.71 68.12 90.11 70.08 90.11C72.04 90.11 73.66 91.72 73.66 93.68Z" fill="#231F20"/>
<path d="M75 122C75 122 80.0685 129.648 91.3112 129.648C91.3112 129.648 103.872 130.234 109.779 122.461L110 122.142C90.4265 129.229 75 122 75 122Z" fill="white"/>
<path d="M135.957 125.78C129.947 125.78 125.067 120.89 125.067 114.89C125.067 108.89 129.957 104 135.957 104C141.957 104 146.847 108.89 146.847 114.89C146.847 120.89 141.957 125.78 135.957 125.78ZM135.957 107.28C131.757 107.28 128.347 110.69 128.347 114.89C128.347 119.09 131.757 122.5 135.957 122.5C140.157 122.5 143.567 119.09 143.567 114.89C143.567 110.69 140.157 107.28 135.957 107.28Z" fill="#F8AC46"/>
<path d="M122.238 34.7672C115.005 18.4924 95.1754 24.0612 94.1922 23.8103C73.525 18.5025 58.0367 41.0081 57.404 41.0081C50 41.0081 41 61 41.0002 72C41.7206 72.291 36.396 78.6046 38.8005 81.0428C40.2024 81.3439 43.3759 79.8488 43.8822 78.2635C49 74 62.5 70.5 63.975 44.9916C64.8122 50.3396 78.6163 53.9116 96.1587 43.2457C96.3631 43.1253 98.8552 55.0654 119.6 48.7341C121.207 48.2425 130.212 57.1292 131 96C149.5 43.2457 122.423 35.1886 122.229 34.7471L122.238 34.7672Z" fill="black"/>
<defs>
<linearGradient id="paint0_linear_69_7674" x1="134.035" y1="77.3597" x2="134.035" y2="114.79" gradientUnits="userSpaceOnUse">
<stop stop-color="#FFAE9E"/>
<stop offset="1" stop-color="#FCD7CB"/>
</linearGradient>
<linearGradient id="paint1_linear_69_7674" x1="45.9749" y1="77.1698" x2="45.9749" y2="114.6" gradientUnits="userSpaceOnUse">
<stop stop-color="#FFAE9E"/>
<stop offset="1" stop-color="#FCD7CB"/>
</linearGradient>
<linearGradient id="paint2_linear_69_7674" x1="91.005" y1="8.34698" x2="91.005" y2="149.86" gradientUnits="userSpaceOnUse">
<stop stop-color="#FFAE9E"/>
<stop offset="1" stop-color="#FCD7CB"/>
</linearGradient>
<linearGradient id="paint3_linear_69_7674" x1="90.0151" y1="128.349" x2="90.0151" y2="202.88" gradientUnits="userSpaceOnUse">
<stop stop-color="#FFAE9E"/>
<stop offset="1" stop-color="#FCD7CB"/>
</linearGradient>
</defs>
</svg>
