<svg width="147" height="220" viewBox="0 0 147 220" fill="none" xmlns="http://www.w3.org/2000/svg">
<path d="M95.4911 25.4785C96.5496 13.5241 87.7168 2.97507 75.7624 1.91659C63.808 0.858098 53.259 9.69096 52.2005 21.6453C51.142 33.5997 59.9749 44.1487 71.9293 45.2072C83.8836 46.2657 94.4326 37.4328 95.4911 25.4785Z" fill="black"/>
<path d="M77.0291 73.3733C88.9012 71.6181 97.1025 60.5709 95.3473 48.6988C93.5921 36.8267 82.5449 28.6254 70.6728 30.3806C58.8008 32.1359 50.5994 43.183 52.3546 55.0551C54.1099 66.9272 65.157 75.1285 77.0291 73.3733Z" fill="#C1210D"/>
<path d="M135.764 115.191C127.684 104.691 125.434 80.3214 125.434 80.3214L110.784 76.0814V73.8914H103.234L75.7343 65.9314V64.6514L73.5343 65.2914L71.3243 64.6514V65.9314L43.8843 73.8914L21.8043 80.2914C21.8043 80.2914 19.3643 104.681 11.2843 115.181C2.21434 126.971 0.104343 146.871 1.30434 165.791H145.744C146.944 146.871 144.824 126.971 135.764 115.191Z" fill="black"/>
<path d="M73.6144 136.951C102.416 136.951 125.764 114.181 125.764 86.0914C125.764 58.0022 102.416 35.2314 73.6144 35.2314C44.8127 35.2314 21.4644 58.0022 21.4644 86.0914C21.4644 114.181 44.8127 136.951 73.6144 136.951Z" fill="black"/>
<mask id="mask0_69_8228" style="mask-type:luminance" maskUnits="userSpaceOnUse" x="107" y="100" width="17" height="30">
<path d="M109.777 104.713C104.967 110.393 108.167 124.103 108.717 125.803C109.527 128.293 112.327 131.353 117.007 126.803C122.047 121.883 127.177 104.403 119.937 101.283C118.927 100.843 117.967 100.663 117.057 100.663C112.817 100.663 109.867 104.593 109.767 104.713" fill="white"/>
</mask>
<g mask="url(#mask0_69_8228)">
<path d="M127.177 100.663H104.967V131.353H127.177V100.663Z" fill="url(#paint0_linear_69_8228)"/>
</g>
<mask id="mask1_69_8228" style="mask-type:luminance" maskUnits="userSpaceOnUse" x="20" y="100" width="17" height="29">
<path d="M24.1473 101.083C16.9073 104.203 22.0273 121.683 27.0773 126.603C31.7573 131.153 34.5673 128.103 35.3773 125.613C35.9273 123.913 39.1273 110.203 34.3173 104.523C34.2173 104.403 31.2673 100.473 27.0273 100.473C26.1173 100.473 25.1573 100.653 24.1473 101.093" fill="white"/>
</mask>
<g mask="url(#mask1_69_8228)">
<path d="M39.1172 100.463H16.9072V131.153H39.1172V100.463Z" fill="url(#paint1_linear_69_8228)"/>
</g>
<path d="M72.9971 130.831C98.4022 130.831 118.997 110.908 118.997 86.3313C118.997 61.7546 98.4022 41.8313 72.9971 41.8313C47.592 41.8313 26.9971 61.7546 26.9971 86.3313C26.9971 110.908 47.592 130.831 72.9971 130.831Z" fill="black"/>
<mask id="mask2_69_8228" style="mask-type:luminance" maskUnits="userSpaceOnUse" x="33" y="50" width="81" height="117">
<path d="M73.0474 50.3927C73.0474 50.3927 72.9574 50.3927 72.9074 50.3927C38.4774 50.6027 35.7774 88.4927 35.7774 88.4927C35.7774 88.4927 30.7574 128.433 34.3374 138.173C36.8774 145.083 45.1174 152.883 53.0874 158.323C56.3574 160.553 59.5874 162.403 62.3574 163.613C66.7274 165.533 70.0574 166.263 72.6074 166.393C72.6974 166.393 72.7974 166.393 72.8874 166.393C72.9174 166.393 72.9474 166.393 72.9674 166.393H73.0374C73.0374 166.393 73.0874 166.393 73.1074 166.393C73.1074 166.393 73.1574 166.393 73.1774 166.393C73.2774 166.393 73.3774 166.393 73.4674 166.393C76.0174 166.263 79.3374 165.523 83.7174 163.613C85.9474 162.633 88.4774 161.243 91.0774 159.583C99.6074 154.133 108.997 145.633 111.747 138.163C115.327 128.423 110.297 88.4827 110.297 88.4827C110.297 88.4827 107.597 50.5927 73.1674 50.3827C73.1174 50.3827 73.0674 50.3827 73.0274 50.3827" fill="white"/>
</mask>
<g mask="url(#mask2_69_8228)">
<path d="M115.347 50.3827H30.7573V166.413H115.347V50.3827Z" fill="url(#paint2_linear_69_8228)"/>
</g>
<mask id="mask3_69_8228" style="mask-type:luminance" maskUnits="userSpaceOnUse" x="32" y="158" width="80" height="62">
<path d="M51.7972 183.703C49.9972 189.273 43.2372 192.643 32.3572 197.383C32.3872 199.473 33.4772 216.983 62.9472 219.443H73.9572C109.407 219.443 111.617 200.493 111.747 197.343C100.927 192.623 94.2072 189.253 92.4172 183.703C90.9072 179.043 90.9472 166.603 91.0972 159.593C88.4872 161.253 85.9672 162.643 83.7372 163.623C79.3572 165.543 76.0372 166.273 73.4872 166.403C73.3972 166.403 73.2972 166.403 73.1972 166.403C73.1772 166.403 73.1472 166.403 73.1272 166.403H73.0572C73.0572 166.403 73.0072 166.403 72.9872 166.403C72.9872 166.403 72.9372 166.403 72.9072 166.403C72.8172 166.403 72.7172 166.403 72.6272 166.403C70.0672 166.273 66.7472 165.533 62.3772 163.623C59.6072 162.413 56.3772 160.563 53.1072 158.333C53.2772 165.003 53.4172 178.763 51.8172 183.713" fill="white"/>
</mask>
<g mask="url(#mask3_69_8228)">
<path d="M111.747 158.323H32.3572V219.433H111.747V158.323Z" fill="url(#paint3_linear_69_8228)"/>
</g>
<g style="mix-blend-mode:multiply" opacity="0.2">
<mask id="mask4_69_8228" style="mask-type:luminance" maskUnits="userSpaceOnUse" x="52" y="158" width="40" height="23">
<path d="M91.0873 158.353H52.5273V180.023H91.0873V158.353Z" fill="white"/>
</mask>
<g mask="url(#mask4_69_8228)">
<mask id="mask5_69_8228" style="mask-type:luminance" maskUnits="userSpaceOnUse" x="52" y="158" width="40" height="23">
<path d="M91.0873 158.353H52.5273V180.023H91.0873V158.353Z" fill="white"/>
</mask>
<g mask="url(#mask5_69_8228)">
<path d="M91.0873 159.613C88.4873 161.273 85.9573 162.663 83.7273 163.643C79.3573 165.553 76.0273 166.293 73.4773 166.423C73.3873 166.423 73.2873 166.423 73.1873 166.433H73.1073H73.0373H72.9573H72.8773C72.7773 166.433 72.6873 166.433 72.5873 166.423C70.0373 166.293 66.7073 165.553 62.3373 163.643C59.5673 162.433 56.3373 160.583 53.0673 158.353C53.2073 163.743 53.3173 173.773 52.5073 180.023C65.7473 177.633 79.0373 173.233 91.0073 166.553C91.0073 164.003 91.0273 161.583 91.0673 159.603" fill="#ECB699"/>
</g>
</g>
</g>
<path d="M76.8572 132.313C76.6272 132.313 76.3972 132.303 76.1672 132.273C75.6972 132.223 75.3572 131.793 75.4072 131.323C75.4572 130.853 75.8672 130.513 76.3472 130.573C77.7272 130.723 78.8772 130.273 79.5972 129.293C80.9072 127.523 80.7072 124.293 79.0372 120.443C73.9272 108.633 78.6372 102.453 78.8372 102.193C79.1272 101.823 79.6672 101.763 80.0372 102.053C80.4072 102.343 80.4672 102.883 80.1772 103.253C79.9972 103.483 75.9272 108.953 80.5972 119.763C83.2172 125.823 81.9472 128.963 80.9572 130.303C80.0072 131.593 78.5272 132.303 76.8372 132.303" fill="#DFAC97"/>
<path d="M97.4374 110.023C97.4374 111.993 95.8374 113.603 93.8574 113.603C91.8774 113.603 90.2874 111.993 90.2874 110.023C90.2874 108.053 91.8874 106.453 93.8574 106.453C95.8274 106.453 97.4374 108.063 97.4374 110.023Z" fill="#231F20"/>
<path d="M55.7074 110.243C55.7074 112.213 54.1174 113.823 52.1274 113.823C50.1374 113.823 48.5574 112.213 48.5574 110.243C48.5574 108.273 50.1674 106.673 52.1274 106.673C54.0874 106.673 55.7074 108.283 55.7074 110.243Z" fill="#231F20"/>
<path opacity="0.5" d="M111.487 114.703C110.737 122.443 105.247 129.563 96.2673 130.023C87.2873 130.483 80.3773 122.463 78.7573 114.843C90.9773 114.383 96.0573 115.283 111.487 114.703Z" fill="url(#paint4_linear_69_8228)"/>
<path opacity="0.5" d="M69.4073 114.853C67.9673 122.523 58.6873 129.993 49.6973 129.863C40.7073 129.733 32.6773 122.533 31.7473 114.823C34.2873 115.163 58.4173 115.733 69.4073 114.853Z" fill="url(#paint5_linear_69_8228)"/>
<path d="M58 139C58 139 63.0685 146.648 74.3112 146.648C74.3112 146.648 86.8718 147.234 92.7788 139.461L93 139.143C73.4265 146.229 58 139 58 139Z" fill="white"/>
<path d="M43.2145 52.4614C43.2145 52.4614 57.9045 68.9714 27.3645 91.5714C27.3645 91.5714 13.7945 64.7514 43.2145 52.4614Z" fill="black"/>
<path d="M40.7344 52.6214C40.7344 52.6214 34.7244 76.2614 81.0444 79.1914C117.514 81.5014 121.914 98.1814 121.914 98.1814C121.914 98.1814 132.714 50.4514 88.0444 41.9414C43.3744 33.4314 40.7244 52.6214 40.7244 52.6214H40.7344Z" fill="black"/>
<path opacity="0.5" d="M112.484 116.081C111.734 123.821 106.244 130.941 97.2644 131.401C88.2844 131.861 81.3744 123.841 79.7544 116.221C91.9744 115.761 97.0544 116.661 112.484 116.081Z" fill="url(#paint6_linear_69_8228)"/>
<path d="M96.5244 132.831C87.3044 132.831 80.1044 124.681 78.3744 116.511C78.2844 116.101 78.3844 115.681 78.6444 115.351C78.9044 115.021 79.2844 114.821 79.7044 114.811C85.4944 114.591 89.6844 114.681 94.1244 114.771C99.1344 114.871 104.314 114.981 112.434 114.671C112.844 114.661 113.234 114.821 113.514 115.111C113.794 115.411 113.934 115.811 113.894 116.221C113.154 123.841 107.654 132.281 97.3444 132.811C97.0744 132.821 96.8044 132.831 96.5344 132.831H96.5244ZM81.5644 117.571C83.6544 124.221 89.7044 130.371 97.1844 129.991C105.114 129.581 109.654 123.531 110.834 117.551C103.584 117.791 98.7444 117.691 94.0544 117.591C90.1244 117.511 86.3944 117.431 81.5644 117.571Z" fill="black"/>
<path opacity="0.5" d="M70.4044 116.221C68.9644 123.891 59.6844 131.361 50.6944 131.231C41.7044 131.101 33.6744 123.901 32.7444 116.191C35.2844 116.531 59.4144 117.101 70.4044 116.221Z" fill="url(#paint7_linear_69_8228)"/>
<path d="M50.9344 132.641C50.8544 132.641 50.7644 132.641 50.6844 132.641C41.2544 132.501 32.4044 125.041 31.3444 116.351C31.2944 115.921 31.4444 115.481 31.7544 115.181C32.0644 114.871 32.5044 114.731 32.9344 114.791C35.2444 115.101 59.2244 115.691 70.2944 114.821C70.7344 114.781 71.1644 114.961 71.4544 115.281C71.7444 115.611 71.8744 116.051 71.7944 116.481C70.1944 125.001 60.2944 132.641 50.9344 132.641ZM34.4844 117.721C36.2544 124.231 43.4044 129.711 50.7244 129.811C58.1144 129.921 66.1844 124.271 68.5344 117.751C58.5344 118.321 40.6844 118.031 34.4944 117.711L34.4844 117.721Z" fill="black"/>
<path d="M75.0245 117.631C74.1745 117.631 73.3145 117.631 72.4345 117.631C52.7845 117.631 32.9345 117.601 32.7445 117.591C31.9645 117.591 31.3345 116.961 31.3345 116.181C31.3345 115.401 31.9645 114.771 32.7445 114.771C54.0545 114.801 109.594 114.861 112.254 114.681C112.844 114.581 113.454 114.871 113.744 115.441C114.094 116.141 113.814 116.991 113.124 117.341C112.704 117.551 112.664 117.571 99.8345 117.611C93.7045 117.631 85.3645 117.641 75.0345 117.641L75.0245 117.631Z" fill="black"/>
<path opacity="0.5" d="M112.484 116.081C111.734 123.821 106.244 130.941 97.2644 131.401C88.2844 131.861 81.3744 123.841 79.7544 116.221C91.9744 115.761 97.0544 116.661 112.484 116.081Z" fill="url(#paint8_linear_69_8228)"/>
<path d="M96.5244 132.831C87.3044 132.831 80.1044 124.681 78.3744 116.511C78.2844 116.101 78.3844 115.681 78.6444 115.351C78.9044 115.021 79.2844 114.821 79.7044 114.811C85.4944 114.591 89.6844 114.681 94.1244 114.771C99.1344 114.871 104.314 114.981 112.434 114.671C112.844 114.661 113.234 114.821 113.514 115.111C113.794 115.411 113.934 115.811 113.894 116.221C113.154 123.841 107.654 132.281 97.3444 132.811C97.0744 132.821 96.8044 132.831 96.5344 132.831H96.5244ZM81.5644 117.571C83.6544 124.221 89.7044 130.371 97.1844 129.991C105.114 129.581 109.654 123.531 110.834 117.551C103.584 117.791 98.7444 117.691 94.0544 117.591C90.1244 117.511 86.3944 117.431 81.5644 117.571Z" fill="black"/>
<path opacity="0.5" d="M70.4044 116.221C68.9644 123.891 59.6844 131.361 50.6944 131.231C41.7044 131.101 33.6744 123.901 32.7444 116.191C35.2844 116.531 59.4144 117.101 70.4044 116.221Z" fill="url(#paint9_linear_69_8228)"/>
<path d="M50.9344 132.641C50.8544 132.641 50.7644 132.641 50.6844 132.641C41.2544 132.501 32.4044 125.041 31.3444 116.351C31.2944 115.921 31.4444 115.481 31.7544 115.181C32.0644 114.871 32.5044 114.731 32.9344 114.791C35.2444 115.101 59.2244 115.691 70.2944 114.821C70.7344 114.781 71.1644 114.961 71.4544 115.281C71.7444 115.611 71.8744 116.051 71.7944 116.481C70.1944 125.001 60.2944 132.641 50.9344 132.641ZM34.4844 117.721C36.2544 124.231 43.4044 129.711 50.7244 129.811C58.1144 129.921 66.1844 124.271 68.5344 117.751C58.5344 118.321 40.6844 118.031 34.4944 117.711L34.4844 117.721Z" fill="black"/>
<path d="M75.0245 117.631C74.1745 117.631 73.3145 117.631 72.4345 117.631C52.7845 117.631 32.9345 117.601 32.7445 117.591C31.9645 117.591 31.3345 116.961 31.3345 116.181C31.3345 115.401 31.9645 114.771 32.7445 114.771C54.0545 114.801 109.594 114.861 112.254 114.681C112.844 114.581 113.454 114.871 113.744 115.441C114.094 116.141 113.814 116.991 113.124 117.341C112.704 117.551 112.664 117.571 99.8345 117.611C93.7045 117.631 85.3645 117.641 75.0345 117.641L75.0245 117.631Z" fill="black"/>
<defs>
<linearGradient id="paint0_linear_69_8228" x1="116.072" y1="93.9224" x2="116.072" y2="131.353" gradientUnits="userSpaceOnUse">
<stop stop-color="#FFAE9E"/>
<stop offset="1" stop-color="#FCD7CB"/>
</linearGradient>
<linearGradient id="paint1_linear_69_8228" x1="28.0122" y1="93.7224" x2="28.0122" y2="131.153" gradientUnits="userSpaceOnUse">
<stop stop-color="#FFAE9E"/>
<stop offset="1" stop-color="#FCD7CB"/>
</linearGradient>
<linearGradient id="paint2_linear_69_8228" x1="73.0523" y1="24.8997" x2="73.0523" y2="166.413" gradientUnits="userSpaceOnUse">
<stop stop-color="#FFAE9E"/>
<stop offset="1" stop-color="#FCD7CB"/>
</linearGradient>
<linearGradient id="paint3_linear_69_8228" x1="72.0522" y1="144.901" x2="72.0522" y2="219.433" gradientUnits="userSpaceOnUse">
<stop stop-color="#FFAE9E"/>
<stop offset="1" stop-color="#FCD7CB"/>
</linearGradient>
<linearGradient id="paint4_linear_69_8228" x1="95.0173" y1="117.823" x2="94.4573" y2="134.383" gradientUnits="userSpaceOnUse">
<stop/>
<stop offset="1" stop-color="#9E9E9E"/>
</linearGradient>
<linearGradient id="paint5_linear_69_8228" x1="50.5273" y1="116.303" x2="49.9673" y2="132.863" gradientUnits="userSpaceOnUse">
<stop/>
<stop offset="1" stop-color="#9E9E9E"/>
</linearGradient>
<linearGradient id="paint6_linear_69_8228" x1="96.0144" y1="119.191" x2="95.4544" y2="135.751" gradientUnits="userSpaceOnUse">
<stop/>
<stop offset="1" stop-color="#9E9E9E"/>
</linearGradient>
<linearGradient id="paint7_linear_69_8228" x1="51.5244" y1="117.671" x2="50.9644" y2="134.241" gradientUnits="userSpaceOnUse">
<stop/>
<stop offset="1" stop-color="#9E9E9E"/>
</linearGradient>
<linearGradient id="paint8_linear_69_8228" x1="96.0144" y1="119.191" x2="95.4544" y2="135.751" gradientUnits="userSpaceOnUse">
<stop/>
<stop offset="1" stop-color="#9E9E9E"/>
</linearGradient>
<linearGradient id="paint9_linear_69_8228" x1="51.5244" y1="117.671" x2="50.9644" y2="134.241" gradientUnits="userSpaceOnUse">
<stop/>
<stop offset="1" stop-color="#9E9E9E"/>
</linearGradient>
</defs>
</svg>
