<svg width="151" height="223" viewBox="0 0 151 223" fill="none" xmlns="http://www.w3.org/2000/svg">
<path d="M142.544 156.94C132.504 139.19 129.144 66.09 129.324 58.78C129.354 58.19 129.374 57.6 129.394 57.01C129.444 56 129.504 55.44 129.504 55.44H129.424C129.434 24.83 105.234 0 75.3742 0C45.5142 0 21.3042 24.83 21.3042 55.45C21.3042 57 21.3842 58.54 21.5042 60.06C21.5642 68.05 17.7742 140.15 8.26418 156.95C-3.55582 177.83 -4.81581 199.89 18.6542 208.77C18.6542 208.77 18.7742 208.81 18.9442 208.87C21.1542 209.69 23.5542 210.4 26.2042 210.98C26.8242 211.11 27.4242 211.21 28.0342 211.33C43.8642 215.06 83.0442 220.63 120.184 211.79C121.644 211.56 123.124 211.31 124.624 210.98C128.784 210.07 132.354 208.85 135.444 207.37C135.464 207.37 135.494 207.35 135.514 207.35H135.504C155.474 197.68 153.774 176.8 142.554 156.96L142.544 156.94Z" fill="black"/>
<path d="M104.344 16.26C104.344 16.26 86.9641 40.21 123.454 64.17C123.454 64.17 124.104 24.39 104.344 16.26Z" fill="black"/>
<mask id="mask0_69_7081" style="mask-type:luminance" maskUnits="userSpaceOnUse" x="108" y="67" width="17" height="30">
<path d="M110.784 71.88C105.974 77.56 109.174 91.27 109.724 92.97C110.534 95.46 113.334 98.52 118.014 93.97C123.054 89.05 128.184 71.57 120.944 68.45C119.934 68.01 118.974 67.83 118.064 67.83C113.824 67.83 110.874 71.76 110.774 71.88" fill="white"/>
</mask>
<g mask="url(#mask0_69_7081)">
<path d="M128.194 67.84H105.984V98.53H128.194V67.84Z" fill="url(#paint0_linear_69_7081)"/>
</g>
<mask id="mask1_69_7081" style="mask-type:luminance" maskUnits="userSpaceOnUse" x="21" y="67" width="17" height="30">
<path d="M25.1641 68.25C17.9241 71.37 23.0441 88.85 28.0941 93.77C32.7741 98.32 35.5841 95.27 36.3941 92.78C36.9441 91.08 40.1441 77.37 35.3341 71.69C35.2341 71.57 32.2841 67.64 28.0441 67.64C27.1341 67.64 26.1741 67.82 25.1641 68.26" fill="white"/>
</mask>
<g mask="url(#mask1_69_7081)">
<path d="M40.1341 67.64H17.9241V98.33H40.1341V67.64Z" fill="url(#paint1_linear_69_7081)"/>
</g>
<mask id="mask2_69_7081" style="mask-type:luminance" maskUnits="userSpaceOnUse" x="34" y="17" width="81" height="117">
<path d="M74.0542 17.56C74.0542 17.56 73.9642 17.56 73.9142 17.56C39.4842 17.77 36.7842 55.66 36.7842 55.66C36.7842 55.66 31.7642 95.6 35.3442 105.34C37.8842 112.25 46.1242 120.05 54.0942 125.49C57.3642 127.72 60.5942 129.57 63.3642 130.78C67.7342 132.7 71.0642 133.43 73.6142 133.56C73.7042 133.56 73.8042 133.56 73.8942 133.56C73.9242 133.56 73.9542 133.56 73.9742 133.56H74.0442C74.0442 133.56 74.0942 133.56 74.1142 133.56C74.1142 133.56 74.1642 133.56 74.1842 133.56C74.2842 133.56 74.3842 133.56 74.4742 133.56C77.0242 133.43 80.3442 132.69 84.7242 130.78C86.9542 129.8 89.4842 128.41 92.0842 126.75C100.614 121.3 110.004 112.8 112.754 105.33C116.334 95.59 111.304 55.65 111.304 55.65C111.304 55.65 108.604 17.76 74.1742 17.55C74.1242 17.55 74.0742 17.55 74.0342 17.55" fill="white"/>
</mask>
<g mask="url(#mask2_69_7081)">
<path d="M116.354 17.56H31.7642V133.59H116.354V17.56Z" fill="url(#paint2_linear_69_7081)"/>
</g>
<mask id="mask3_69_7081" style="mask-type:luminance" maskUnits="userSpaceOnUse" x="33" y="125" width="80" height="62">
<path d="M52.8143 150.88C51.0143 156.45 44.2543 159.82 33.3743 164.56C33.4043 166.65 34.4943 184.16 63.9643 186.62H74.9743C110.424 186.62 112.634 167.67 112.764 164.52C101.944 159.8 95.2243 156.43 93.4343 150.88C91.9243 146.22 91.9643 133.78 92.1143 126.77C89.5043 128.43 86.9843 129.82 84.7543 130.8C80.3743 132.72 77.0543 133.45 74.5043 133.58C74.4143 133.58 74.3143 133.58 74.2143 133.58C74.1943 133.58 74.1643 133.58 74.1443 133.58H74.0743C74.0743 133.58 74.0243 133.58 74.0043 133.58C74.0043 133.58 73.9543 133.58 73.9243 133.58C73.8343 133.58 73.7343 133.58 73.6443 133.58C71.0843 133.45 67.7643 132.71 63.3943 130.8C60.6243 129.59 57.3943 127.74 54.1243 125.51C54.2943 132.18 54.4343 145.94 52.8343 150.89" fill="white"/>
</mask>
<g mask="url(#mask3_69_7081)">
<path d="M112.764 125.5H33.3743V186.61H112.764V125.5Z" fill="url(#paint3_linear_69_7081)"/>
</g>
<g style="mix-blend-mode:multiply" opacity="0.2">
<mask id="mask4_69_7081" style="mask-type:luminance" maskUnits="userSpaceOnUse" x="53" y="125" width="40" height="23">
<path d="M92.1042 125.53H53.5442V147.2H92.1042V125.53Z" fill="white"/>
</mask>
<g mask="url(#mask4_69_7081)">
<mask id="mask5_69_7081" style="mask-type:luminance" maskUnits="userSpaceOnUse" x="53" y="125" width="40" height="23">
<path d="M92.1042 125.53H53.5442V147.2H92.1042V125.53Z" fill="white"/>
</mask>
<g mask="url(#mask5_69_7081)">
<path d="M92.1042 126.79C89.5042 128.45 86.9742 129.84 84.7442 130.82C80.3742 132.73 77.0442 133.47 74.4942 133.6C74.4042 133.6 74.3042 133.6 74.2042 133.61H74.1242H74.0542H73.9742H73.8942C73.7942 133.61 73.7042 133.61 73.6042 133.6C71.0542 133.47 67.7242 132.73 63.3542 130.82C60.5842 129.61 57.3542 127.76 54.0842 125.53C54.2242 130.92 54.3342 140.95 53.5242 147.2C66.7642 144.81 80.0542 140.41 92.0242 133.73C92.0242 131.18 92.0442 128.76 92.0842 126.78" fill="#ECB699"/>
</g>
</g>
</g>
<path d="M77.8643 99.49C77.6343 99.49 77.4043 99.48 77.1743 99.45C76.7043 99.4 76.3643 98.97 76.4143 98.5C76.4643 98.03 76.8743 97.69 77.3543 97.75C78.7343 97.9 79.8843 97.45 80.6043 96.47C81.9143 94.7 81.7143 91.47 80.0443 87.62C74.9343 75.81 79.6443 69.63 79.8443 69.37C80.1343 69 80.6743 68.94 81.0443 69.23C81.4143 69.52 81.4743 70.06 81.1843 70.43C81.0043 70.66 76.9343 76.13 81.6043 86.94C84.2243 93 82.9543 96.14 81.9643 97.48C81.0143 98.77 79.5343 99.48 77.8443 99.48" fill="#DFAC97"/>
<path d="M98.4442 77.2C98.4442 79.17 96.8442 80.78 94.8642 80.78C92.8842 80.78 91.2942 79.17 91.2942 77.2C91.2942 75.23 92.8942 73.63 94.8642 73.63C96.8342 73.63 98.4442 75.24 98.4442 77.2Z" fill="#231F20"/>
<path d="M56.7142 77.41C56.7142 79.38 55.1242 80.99 53.1342 80.99C51.1442 80.99 49.5642 79.38 49.5642 77.41C49.5642 75.44 51.1742 73.84 53.1342 73.84C55.0942 73.84 56.7142 75.45 56.7142 77.41Z" fill="#231F20"/>
<path d="M50.2541 98.31C38.5041 98.31 28.9541 88.75 28.9541 77.01C28.9541 65.27 38.5141 55.71 50.2541 55.71C61.9941 55.71 71.5541 65.27 71.5541 77.01C71.5541 88.75 61.9941 98.31 50.2541 98.31ZM50.2541 57.74C39.6241 57.74 30.9841 66.38 30.9841 77.01C30.9841 87.64 39.6241 96.28 50.2541 96.28C60.8841 96.28 69.5241 87.64 69.5241 77.01C69.5241 66.38 60.8841 57.74 50.2541 57.74Z" fill="#FFFFF9"/>
<path opacity="0.15" d="M56.0478 96.4549C66.7877 93.2573 72.902 81.9587 69.7043 71.2187C66.5067 60.4788 55.2081 54.3645 44.4681 57.5622C33.7282 60.7598 27.6139 72.0584 30.8116 82.7984C34.0092 93.5383 45.3078 99.6526 56.0478 96.4549Z" fill="#FFFFF9"/>
<path opacity="0.15" d="M119.464 80.4045C121.339 69.3566 113.902 58.8808 102.854 57.0062C91.8063 55.1317 81.3306 62.5682 79.456 73.6161C77.5814 84.6641 85.0179 95.1398 96.0659 97.0144C107.114 98.889 117.59 91.4525 119.464 80.4045Z" fill="#FFFFF9"/>
<path d="M99.4543 98.31C87.7043 98.31 78.1543 88.75 78.1543 77.01C78.1543 65.27 87.7143 55.71 99.4543 55.71C111.194 55.71 120.754 65.27 120.754 77.01C120.754 88.75 111.194 98.31 99.4543 98.31ZM99.4543 57.74C88.8343 57.74 80.1843 66.38 80.1843 77.01C80.1843 87.64 88.8243 96.28 99.4543 96.28C110.084 96.28 118.724 87.64 118.724 77.01C118.724 66.38 110.084 57.74 99.4543 57.74Z" fill="#FFFFF9"/>
<path d="M70.3241 82.48L69.2141 80.77C69.4441 80.62 74.7941 77.2 80.2541 80.77L79.1441 82.47C74.8241 79.64 70.5141 82.35 70.3341 82.47L70.3241 82.48Z" fill="#FFFFF9"/>
<path d="M58 106C58 106 63.0685 113.648 74.3112 113.648C74.3112 113.648 86.8718 114.234 92.7788 106.461L93 106.142C73.4265 113.229 58 106 58 106Z" fill="white"/>
<path d="M26.9942 56.11C26.9942 56.11 98.8342 55.74 110.344 20.18C110.344 20.18 92.5042 -3.74998 59.5142 6.08002C26.5342 15.91 26.9942 56.11 26.9942 56.11Z" fill="black"/>
<path d="M50.2641 98.01C38.5141 98.01 28.9641 88.45 28.9641 76.71C28.9641 64.97 38.5241 55.41 50.2641 55.41C62.0041 55.41 71.5641 64.97 71.5641 76.71C71.5641 88.45 62.0041 98.01 50.2641 98.01ZM50.2641 57.44C39.6341 57.44 30.9941 66.08 30.9941 76.71C30.9941 87.34 39.6341 95.98 50.2641 95.98C60.8941 95.98 69.5341 87.34 69.5341 76.71C69.5341 66.08 60.8941 57.44 50.2641 57.44Z" fill="#FFFFF9"/>
<path opacity="0.15" d="M56.0553 96.1558C66.7953 92.9582 72.9095 81.6595 69.7119 70.9196C66.5143 60.1796 55.2156 54.0654 44.4757 57.263C33.7357 60.4607 27.6215 71.7593 30.8191 82.4992C34.0168 93.2392 45.3154 99.3534 56.0553 96.1558Z" fill="#FFFFF9"/>
<path opacity="0.15" d="M119.471 80.1141C121.345 69.0661 113.909 58.5903 102.861 56.7158C91.8129 54.8412 81.3371 62.2777 79.4626 73.3256C77.588 84.3736 85.0245 94.8494 96.0724 96.7239C107.12 98.5985 117.596 91.162 119.471 80.1141Z" fill="#FFFFF9"/>
<path d="M99.4541 98.01C87.7041 98.01 78.1541 88.45 78.1541 76.71C78.1541 64.97 87.7141 55.41 99.4541 55.41C111.194 55.41 120.754 64.97 120.754 76.71C120.754 88.45 111.194 98.01 99.4541 98.01ZM99.4541 57.44C88.8341 57.44 80.1841 66.08 80.1841 76.71C80.1841 87.34 88.8241 95.98 99.4541 95.98C110.084 95.98 118.724 87.34 118.724 76.71C118.724 66.08 110.084 57.44 99.4541 57.44Z" fill="#FFFFF9"/>
<path d="M70.3341 82.18L69.2241 80.47C69.4541 80.32 74.8041 76.9 80.2641 80.47L79.1541 82.17C74.8341 79.34 70.5241 82.05 70.3441 82.17L70.3341 82.18Z" fill="#FFFFF9"/>
<defs>
<linearGradient id="paint0_linear_69_7081" x1="117.089" y1="61.0998" x2="117.089" y2="98.53" gradientUnits="userSpaceOnUse">
<stop stop-color="#FFAE9E"/>
<stop offset="1" stop-color="#FCD7CB"/>
</linearGradient>
<linearGradient id="paint1_linear_69_7081" x1="29.0291" y1="60.8998" x2="29.0291" y2="98.33" gradientUnits="userSpaceOnUse">
<stop stop-color="#FFAE9E"/>
<stop offset="1" stop-color="#FCD7CB"/>
</linearGradient>
<linearGradient id="paint2_linear_69_7081" x1="74.0592" y1="-7.92297" x2="74.0592" y2="133.59" gradientUnits="userSpaceOnUse">
<stop stop-color="#FFAE9E"/>
<stop offset="1" stop-color="#FCD7CB"/>
</linearGradient>
<linearGradient id="paint3_linear_69_7081" x1="73.0693" y1="112.079" x2="73.0693" y2="186.61" gradientUnits="userSpaceOnUse">
<stop stop-color="#FFAE9E"/>
<stop offset="1" stop-color="#FCD7CB"/>
</linearGradient>
</defs>
</svg>
