<svg width="250" height="770" viewBox="0 0 250 770" fill="none" xmlns="http://www.w3.org/2000/svg">
<g clip-path="url(#clip0_69_4462)">
<path d="M201.544 156.94C191.504 139.19 188.144 66.09 188.324 58.78C188.354 58.19 188.374 57.6 188.394 57.01C188.444 56 188.504 55.44 188.504 55.44H188.424C188.434 24.83 164.234 0 134.374 0C104.514 0 80.3042 24.83 80.3042 55.45C80.3042 57 80.3842 58.54 80.5042 60.06C80.5642 68.05 76.7742 140.15 67.2642 156.95C55.4442 177.83 54.1842 199.89 77.6542 208.77C77.6542 208.77 77.7742 208.81 77.9442 208.87C80.1542 209.69 82.5542 210.4 85.2042 210.98C85.8242 211.11 86.4242 211.21 87.0342 211.33C102.864 215.06 142.044 220.63 179.184 211.79C180.644 211.56 182.124 211.31 183.624 210.98C187.784 210.07 191.354 208.85 194.444 207.37C194.464 207.37 194.494 207.35 194.514 207.35H194.504C214.474 197.68 212.774 176.8 201.554 156.96L201.544 156.94Z" fill="black"/>
<path d="M163.344 16.26C163.344 16.26 145.964 40.21 182.454 64.17C182.454 64.17 183.104 24.39 163.344 16.26Z" fill="black"/>
<mask id="mask0_69_4462" style="mask-type:luminance" maskUnits="userSpaceOnUse" x="167" y="67" width="17" height="30">
<path d="M169.784 71.88C164.974 77.56 168.174 91.27 168.724 92.97C169.534 95.46 172.334 98.52 177.014 93.97C182.054 89.05 187.184 71.57 179.944 68.45C178.934 68.01 177.974 67.83 177.064 67.83C172.824 67.83 169.874 71.76 169.774 71.88" fill="white"/>
</mask>
<g mask="url(#mask0_69_4462)">
<path d="M187.194 67.84H164.984V98.53H187.194V67.84Z" fill="url(#paint0_linear_69_4462)"/>
</g>
<mask id="mask1_69_4462" style="mask-type:luminance" maskUnits="userSpaceOnUse" x="80" y="67" width="17" height="30">
<path d="M84.1641 68.25C76.9241 71.37 82.0441 88.85 87.0941 93.77C91.7741 98.32 94.5841 95.27 95.3941 92.78C95.9441 91.08 99.1441 77.37 94.3341 71.69C94.2341 71.57 91.2841 67.64 87.0441 67.64C86.1341 67.64 85.1741 67.82 84.1641 68.26" fill="white"/>
</mask>
<g mask="url(#mask1_69_4462)">
<path d="M99.1343 67.64H76.9243V98.33H99.1343V67.64Z" fill="url(#paint1_linear_69_4462)"/>
</g>
<mask id="mask2_69_4462" style="mask-type:luminance" maskUnits="userSpaceOnUse" x="93" y="17" width="81" height="117">
<path d="M133.054 17.56C133.054 17.56 132.964 17.56 132.914 17.56C98.484 17.77 95.784 55.66 95.784 55.66C95.784 55.66 90.764 95.6 94.344 105.34C96.884 112.25 105.124 120.05 113.094 125.49C116.364 127.72 119.594 129.57 122.364 130.78C126.734 132.7 130.064 133.43 132.614 133.56C132.704 133.56 132.804 133.56 132.894 133.56C132.924 133.56 132.954 133.56 132.974 133.56H133.044C133.044 133.56 133.094 133.56 133.114 133.56C133.114 133.56 133.164 133.56 133.184 133.56C133.284 133.56 133.384 133.56 133.474 133.56C136.024 133.43 139.344 132.69 143.724 130.78C145.954 129.8 148.484 128.41 151.084 126.75C159.614 121.3 169.004 112.8 171.754 105.33C175.334 95.59 170.304 55.65 170.304 55.65C170.304 55.65 167.604 17.76 133.174 17.55C133.124 17.55 133.074 17.55 133.034 17.55" fill="white"/>
</mask>
<g mask="url(#mask2_69_4462)">
<path d="M175.354 17.56H90.7642V133.59H175.354V17.56Z" fill="url(#paint2_linear_69_4462)"/>
</g>
<mask id="mask3_69_4462" style="mask-type:luminance" maskUnits="userSpaceOnUse" x="92" y="125" width="80" height="62">
<path d="M111.814 150.88C110.014 156.45 103.254 159.82 92.374 164.56C92.404 166.65 93.494 184.16 122.964 186.62H133.974C169.424 186.62 171.634 167.67 171.764 164.52C160.944 159.8 154.224 156.43 152.434 150.88C150.924 146.22 150.964 133.78 151.114 126.77C148.504 128.43 145.984 129.82 143.754 130.8C139.374 132.72 136.054 133.45 133.504 133.58C133.414 133.58 133.314 133.58 133.214 133.58C133.194 133.58 133.164 133.58 133.144 133.58H133.074C133.074 133.58 133.024 133.58 133.004 133.58C133.004 133.58 132.954 133.58 132.924 133.58C132.834 133.58 132.734 133.58 132.644 133.58C130.084 133.45 126.764 132.71 122.394 130.8C119.624 129.59 116.394 127.74 113.124 125.51C113.294 132.18 113.434 145.94 111.834 150.89" fill="white"/>
</mask>
<g mask="url(#mask3_69_4462)">
<path d="M171.764 125.5H92.374V186.61H171.764V125.5Z" fill="url(#paint3_linear_69_4462)"/>
</g>
<g style="mix-blend-mode:multiply" opacity="0.2">
<mask id="mask4_69_4462" style="mask-type:luminance" maskUnits="userSpaceOnUse" x="112" y="125" width="40" height="23">
<path d="M151.104 125.53H112.544V147.2H151.104V125.53Z" fill="white"/>
</mask>
<g mask="url(#mask4_69_4462)">
<mask id="mask5_69_4462" style="mask-type:luminance" maskUnits="userSpaceOnUse" x="112" y="125" width="40" height="23">
<path d="M151.104 125.53H112.544V147.2H151.104V125.53Z" fill="white"/>
</mask>
<g mask="url(#mask5_69_4462)">
<path d="M151.104 126.79C148.504 128.45 145.974 129.84 143.744 130.82C139.374 132.73 136.044 133.47 133.494 133.6C133.404 133.6 133.304 133.6 133.204 133.61H133.124H133.054H132.974H132.894C132.794 133.61 132.704 133.61 132.604 133.6C130.054 133.47 126.724 132.73 122.354 130.82C119.584 129.61 116.354 127.76 113.084 125.53C113.224 130.92 113.334 140.95 112.524 147.2C125.764 144.81 139.054 140.41 151.024 133.73C151.024 131.18 151.044 128.76 151.084 126.78" fill="#ECB699"/>
</g>
</g>
</g>
<g clip-path="url(#clip1_69_4462)">
<path d="M117 106C117 106 122.068 113.648 133.311 113.648C133.311 113.648 145.872 114.234 151.779 106.461L152 106.142C132.427 113.229 117 106 117 106Z" fill="white"/>
</g>
<path d="M136.864 99.49C136.634 99.49 136.404 99.48 136.174 99.45C135.704 99.4 135.364 98.97 135.414 98.5C135.464 98.03 135.874 97.69 136.354 97.75C137.734 97.9 138.884 97.45 139.604 96.47C140.914 94.7 140.714 91.47 139.044 87.62C133.934 75.81 138.644 69.63 138.844 69.37C139.134 69 139.674 68.94 140.044 69.23C140.414 69.52 140.474 70.06 140.184 70.43C140.004 70.66 135.934 76.13 140.604 86.94C143.224 93 141.954 96.14 140.964 97.48C140.014 98.77 138.534 99.48 136.844 99.48" fill="#DFAC97"/>
<path d="M157.444 77.2C157.444 79.17 155.844 80.78 153.864 80.78C151.884 80.78 150.294 79.17 150.294 77.2C150.294 75.23 151.894 73.63 153.864 73.63C155.834 73.63 157.444 75.24 157.444 77.2Z" fill="#231F20"/>
<path d="M115.714 77.41C115.714 79.38 114.124 80.99 112.134 80.99C110.144 80.99 108.564 79.38 108.564 77.41C108.564 75.44 110.174 73.84 112.134 73.84C114.094 73.84 115.714 75.45 115.714 77.41Z" fill="#231F20"/>
<path d="M109.254 98.31C97.5041 98.31 87.9541 88.75 87.9541 77.01C87.9541 65.27 97.5141 55.71 109.254 55.71C120.994 55.71 130.554 65.27 130.554 77.01C130.554 88.75 120.994 98.31 109.254 98.31ZM109.254 57.74C98.6241 57.74 89.9841 66.38 89.9841 77.01C89.9841 87.64 98.6241 96.28 109.254 96.28C119.884 96.28 128.524 87.64 128.524 77.01C128.524 66.38 119.884 57.74 109.254 57.74Z" fill="#FFFFF9"/>
<path opacity="0.15" d="M115.048 96.4549C125.787 93.2573 131.902 81.9587 128.704 71.2187C125.506 60.4788 114.208 54.3645 103.468 57.5622C92.7279 60.7598 86.6137 72.0584 89.8113 82.7984C93.0089 93.5383 104.308 99.6526 115.048 96.4549Z" fill="#FFFFF9"/>
<path opacity="0.15" d="M178.464 80.4045C180.338 69.3566 172.902 58.8808 161.854 57.0062C150.806 55.1317 140.33 62.5682 138.456 73.6161C136.581 84.6641 144.018 95.1398 155.066 97.0144C166.114 98.889 176.589 91.4525 178.464 80.4045Z" fill="#FFFFF9"/>
<path d="M158.454 98.31C146.704 98.31 137.154 88.75 137.154 77.01C137.154 65.27 146.714 55.71 158.454 55.71C170.194 55.71 179.754 65.27 179.754 77.01C179.754 88.75 170.194 98.31 158.454 98.31ZM158.454 57.74C147.834 57.74 139.184 66.38 139.184 77.01C139.184 87.64 147.824 96.28 158.454 96.28C169.084 96.28 177.724 87.64 177.724 77.01C177.724 66.38 169.084 57.74 158.454 57.74Z" fill="#FFFFF9"/>
<path d="M129.324 82.48L128.214 80.77C128.444 80.62 133.794 77.2 139.254 80.77L138.144 82.47C133.824 79.64 129.514 82.35 129.334 82.47L129.324 82.48Z" fill="#FFFFF9"/>
<path d="M85.994 56.11C85.994 56.11 157.834 55.74 169.344 20.18C169.344 20.18 151.504 -3.74998 118.514 6.08002C85.534 15.91 85.994 56.11 85.994 56.11Z" fill="black"/>
<path d="M109.264 98.01C97.5139 98.01 87.9639 88.45 87.9639 76.71C87.9639 64.97 97.5239 55.41 109.264 55.41C121.004 55.41 130.564 64.97 130.564 76.71C130.564 88.45 121.004 98.01 109.264 98.01ZM109.264 57.44C98.6339 57.44 89.9939 66.08 89.9939 76.71C89.9939 87.34 98.6339 95.98 109.264 95.98C119.894 95.98 128.534 87.34 128.534 76.71C128.534 66.08 119.894 57.44 109.264 57.44Z" fill="#FFFFF9"/>
<path opacity="0.15" d="M115.055 96.1558C125.795 92.9582 131.91 81.6595 128.712 70.9196C125.514 60.1796 114.216 54.0654 103.476 57.263C92.7357 60.4607 86.6215 71.7593 89.8191 82.4992C93.0168 93.2392 104.315 99.3534 115.055 96.1558Z" fill="#FFFFF9"/>
<path opacity="0.15" d="M178.471 80.1141C180.345 69.0661 172.909 58.5903 161.861 56.7158C150.813 54.8412 140.337 62.2777 138.463 73.3256C136.588 84.3736 144.024 94.8494 155.072 96.7239C166.12 98.5985 176.596 91.162 178.471 80.1141Z" fill="#FFFFF9"/>
<path d="M158.454 98.01C146.704 98.01 137.154 88.45 137.154 76.71C137.154 64.97 146.714 55.41 158.454 55.41C170.194 55.41 179.754 64.97 179.754 76.71C179.754 88.45 170.194 98.01 158.454 98.01ZM158.454 57.44C147.834 57.44 139.184 66.08 139.184 76.71C139.184 87.34 147.824 95.98 158.454 95.98C169.084 95.98 177.724 87.34 177.724 76.71C177.724 66.08 169.084 57.44 158.454 57.44Z" fill="#FFFFF9"/>
<path d="M129.334 82.18L128.224 80.47C128.454 80.32 133.804 76.9 139.264 80.47L138.154 82.17C133.834 79.34 129.524 82.05 129.344 82.17L129.334 82.18Z" fill="#FFFFF9"/>
<path d="M214.159 172.12C202.659 166.73 158.589 148.56 158.589 148.56L133.169 166.87L106.299 149.32L42.7092 177.1C42.7092 177.1 61.4292 208.08 67.4892 236.09C78.8292 288.51 79.7892 276.2 79.0592 316.26C118.229 344.1 189.149 320.04 187.829 318.6C178.009 257.58 183.459 263.82 214.159 172.11V172.12Z" fill="#E1EFFF"/>
<path d="M131.649 154.74L133.129 166.72L136.679 154.58L139.069 163.22L133.049 167.51L126.709 163.55L131.649 154.74Z" fill="#E6E6E6"/>
<path d="M131.649 154.74C131.649 154.74 126.949 170.97 118.959 168.42C110.969 165.87 102.259 154.59 102.259 154.59L111.299 140.49L131.649 154.74Z" fill="white"/>
<path d="M136.679 154.58C136.679 154.58 136.269 168.99 146.319 169.56C156.369 170.14 164.999 152.33 164.999 152.33L153.809 139L136.669 154.58H136.679Z" fill="white"/>
<path d="M134.12 372.45C134.73 372.43 135.49 372.33 136.33 372.2C137.12 326.68 141.78 287.54 139.39 266.71C136.94 245.33 139.36 192.52 135.22 164.95L132.06 166.73L131.81 166.57C135.98 194.4 133.38 246.07 135.8 267.12C138.14 287.5 133.48 326.98 132.7 372.4C133.2 372.45 133.68 372.47 134.12 372.45Z" fill="#B6C7DD"/>
<path d="M43.6993 176.42C43.6993 176.42 26.8593 190.29 5.06935 262.47C4.52935 276.71 7.12935 289.1 13.3493 301.18C20.5393 315.16 49.3593 329.42 52.3493 295.64C53.5493 282.05 44.9893 279.26 49.0793 268.77C59.1593 242.9 69.1093 237.78 68.4393 228.61C66.4193 200.91 63.1093 175.87 43.7093 176.41L43.6993 176.42Z" fill="#E1EFFF"/>
<path d="M52.6693 289.14C56.0793 304.38 45.3193 311.84 34.5293 314.26C23.7393 316.68 13.1293 308.83 11.5393 298.09C9.94926 287.35 18.6093 278.83 29.0093 275.71C47.0393 270.31 52.6593 289.14 52.6593 289.14H52.6693Z" fill="#CFDDF1"/>
<path d="M94.5791 579.06C94.5791 579.06 112.829 658.46 113.279 665.51C113.729 672.56 113.529 678.97 114.829 683.24C116.129 687.51 116.989 692.64 116.779 693.7C116.569 694.76 113.559 722.99 113.659 723.84C115.919 741.75 128.859 738.42 131.399 733.5C133.939 728.58 137.669 679.54 137.669 679.54L133.859 639.86L133.949 578.75L94.5791 579.06Z" fill="url(#paint4_linear_69_4462)"/>
<path d="M113.469 723.84C113.469 723.84 111.119 733.67 111.549 735.59C111.979 737.51 121.809 748.41 123.519 749.05C125.229 749.69 135.489 737.08 135.699 735.59C135.909 734.1 133.559 722.98 133.559 722.98C133.559 722.98 126.719 743.28 113.479 723.83L113.469 723.84Z" fill="#342825"/>
<path d="M137.859 578.81C137.859 578.81 136.979 639.87 136.549 645.86C136.119 651.84 135.269 675.99 134.409 679.41C133.549 682.83 128.639 693.94 128.429 702.06C128.219 710.18 123.089 745.01 123.089 745.01C123.089 745.01 123.319 759.82 154.929 749.28C155.569 749.07 156.639 716.8 155.569 715.09C154.499 713.38 157.919 706.12 157.919 705.05C157.919 703.98 158.559 681.12 158.559 678.77C158.559 676.42 179.289 587.53 180.139 577.92L137.859 578.82V578.81Z" fill="url(#paint5_linear_69_4462)"/>
<path d="M123.44 742.39C123.44 742.39 118.24 749.13 117.88 751.46C117.45 754.2 120.58 768.64 128.47 769.78C134.94 770.72 153.79 761.51 154.43 759.38C155.07 757.25 155.3 750.2 155.47 745.59C155.54 743.68 155.4 744.03 155.4 744.03C155.4 744.03 137.76 753.5 123.44 742.39Z" fill="#342825"/>
<path d="M244.979 575.05C244.559 582.98 217.849 579.23 208.659 579.65C199.479 580.07 203.449 584.86 198.639 588.21C193.839 591.55 179.219 585.71 174.009 590.29C169.589 594.19 165.759 596.57 155.809 596.2C154.019 596.13 152.019 595.97 149.789 595.72C137.439 594.31 118.969 592.15 105.109 592.53C102.569 592.59 100.199 592.75 98.0293 593.01C84.0393 594.68 69.4293 590.29 69.4293 590.29L69.2193 571.3C69.2193 571.3 21.8293 582.36 19.1193 563.58C16.4093 544.79 40.4093 464.89 42.4993 446.31C44.5793 427.73 56.8993 379.72 59.8193 364.9C60.6393 360.77 62.4593 355.27 64.6893 349.45C70.4193 334.39 77.8493 317.2 78.2993 314.94C78.9293 311.81 79.1293 298.42 79.1293 298.42C95.2093 296.75 135.809 299.78 144.569 299.37C153.339 298.95 184.789 297.32 184.789 297.32L187.819 318.53C187.819 318.53 192.159 324 192.779 325.89C193.409 327.77 204.679 360.53 208.429 374.73C212.189 388.92 226.389 454.05 230.349 493.5C234.319 532.95 245.379 567.14 244.959 575.07L244.979 575.05Z" fill="#C1210D"/>
<path d="M155.809 596.19C154.019 596.12 152.019 595.96 149.789 595.71C137.439 594.3 118.969 592.14 105.109 592.52L104.949 591.29C104.949 591.29 104.669 431.95 105.239 418.29C105.809 404.62 105.239 330.32 112.069 352.81C118.899 375.31 127.719 445.9 133.989 423.41C140.259 400.92 142.249 387.26 142.249 387.26C142.249 387.26 153.059 407.18 153.059 441.92C153.059 472.77 155.309 557.27 155.809 596.2V596.19Z" fill="url(#paint6_linear_69_4462)"/>
<path d="M69.2293 571.3C69.2293 571.3 21.8393 582.36 19.1293 563.58C16.4193 544.79 40.4193 464.89 42.5093 446.31C44.5893 427.73 56.9093 379.72 59.8293 364.9C60.6493 360.77 62.4693 355.27 64.6993 349.45C66.8993 349.45 68.5593 350.6 69.0893 351.39C70.2293 353.1 69.2293 571.3 69.2293 571.3Z" fill="url(#paint7_linear_69_4462)"/>
<path d="M27.4093 282.43C35.6593 277.8 47.9393 281.37 50.4993 294.8C53.0593 308.23 51.5493 321.38 57.4293 327.62C63.1993 326.55 72.5793 324.64 72.5793 324.64L81.5093 326.89C81.5093 326.89 79.3093 330.62 73.1393 330.21C66.9693 329.8 67.1893 333.07 71.1593 336.16L72.7093 337.02L63.6193 360.83C63.6193 360.83 49.9593 350.72 47.1793 347.16C44.3993 343.61 43.1393 339.5 39.1893 331.82C35.2493 324.14 1.20933 297.15 27.4093 282.43Z" fill="url(#paint8_linear_69_4462)"/>
<path style="mix-blend-mode:multiply" d="M88.0396 256.86C88.0396 256.86 139.25 246.84 174.31 253.24C172.08 274.39 123.38 298.6 88.0396 256.86Z" fill="url(#paint9_radial_69_4462)"/>
<path d="M153.739 217.12H177.799C177.799 217.12 175.629 242.28 165.759 239.93C155.889 237.58 153.739 217.12 153.739 217.12Z" fill="#CFDDF1"/>
<path d="M73.0194 334.17L62.6394 364.19L77.5394 335.37L73.0194 334.17Z" fill="#AD1409"/>
<path d="M228.159 433.46C228.159 433.46 207.179 447.13 206.549 443.39C206.189 441.22 212.279 435.61 216.949 431.37C219.939 426.85 218.769 420.82 218.769 420.82C218.769 420.82 210.599 433.5 209.449 430.52C208.429 427.87 211.159 420.61 216.899 413.59C218.419 411.74 218.679 411.58 219.809 409.08C220.879 406.72 221.149 405.21 221.149 405.21C221.149 405.21 221.369 404.18 221.399 403.63C222.059 363.28 216.479 351.08 215.719 339.03C214.749 323.64 213.189 309.37 215.719 305.27C215.719 305.27 238.789 310.21 242.679 320.9C246.259 330.72 236.119 390.81 233.209 406.99C233.299 407.5 233.319 408.09 233.299 408.76C233.409 419.3 228.159 433.47 228.159 433.47V433.46Z" fill="url(#paint10_linear_69_4462)"/>
<path d="M213.819 172.16C213.819 172.16 234.379 177.72 246.599 269.96C249.189 296.57 249.159 294.4 246.599 330.07C246.219 335.39 211.489 328.75 211.659 323.08C212.699 287.89 212.919 282.86 211.519 278.04C196.149 225.22 182.529 214.56 213.819 172.16Z" fill="#E1EFFF"/>
<path d="M209.569 311.97L210.569 329.69L246.209 341.91L250.139 320.02L209.569 311.97Z" fill="#CFDDF1"/>
<path d="M236.099 403.41C235.539 406.49 233.769 408.74 232.159 408.44C230.549 408.14 229.679 405.41 230.239 402.34C230.799 399.27 232.569 397.01 234.189 397.31C235.809 397.61 236.669 400.34 236.109 403.41H236.099Z" fill="#303030"/>
<path d="M236.099 403.41C235.589 406.21 234.209 408.3 233.009 408.08C231.809 407.86 231.259 405.42 231.769 402.62C232.279 399.82 233.659 397.73 234.859 397.95C236.059 398.17 236.609 400.61 236.099 403.41Z" fill="#454545"/>
<path d="M231.389 399.95L221.419 399.18V402.46L230.509 403.85L231.389 399.95Z" fill="#EDEDED"/>
<path d="M233.909 406.15L233.359 402.73L234.489 400.72L234.819 400.91L233.759 402.8L234.289 406.09L233.909 406.15Z" fill="#7D7D7D"/>
</g>
<defs>
<linearGradient id="paint0_linear_69_4462" x1="176.089" y1="61.0998" x2="176.089" y2="98.53" gradientUnits="userSpaceOnUse">
<stop stop-color="#FFAE9E"/>
<stop offset="1" stop-color="#FCD7CB"/>
</linearGradient>
<linearGradient id="paint1_linear_69_4462" x1="88.0293" y1="60.8998" x2="88.0293" y2="98.33" gradientUnits="userSpaceOnUse">
<stop stop-color="#FFAE9E"/>
<stop offset="1" stop-color="#FCD7CB"/>
</linearGradient>
<linearGradient id="paint2_linear_69_4462" x1="133.059" y1="-7.92297" x2="133.059" y2="133.59" gradientUnits="userSpaceOnUse">
<stop stop-color="#FFAE9E"/>
<stop offset="1" stop-color="#FCD7CB"/>
</linearGradient>
<linearGradient id="paint3_linear_69_4462" x1="132.069" y1="112.079" x2="132.069" y2="186.61" gradientUnits="userSpaceOnUse">
<stop stop-color="#FFAE9E"/>
<stop offset="1" stop-color="#FCD7CB"/>
</linearGradient>
<linearGradient id="paint4_linear_69_4462" x1="116.124" y1="543.906" x2="116.124" y2="737.403" gradientUnits="userSpaceOnUse">
<stop stop-color="#FFAE9E"/>
<stop offset="1" stop-color="#FCD7CB"/>
</linearGradient>
<linearGradient id="paint5_linear_69_4462" x1="151.614" y1="539.454" x2="151.614" y2="753.066" gradientUnits="userSpaceOnUse">
<stop stop-color="#FFAE9E"/>
<stop offset="1" stop-color="#FCD7CB"/>
</linearGradient>
<linearGradient id="paint6_linear_69_4462" x1="134.069" y1="178.79" x2="130.079" y2="545.86" gradientUnits="userSpaceOnUse">
<stop stop-color="#C1210D"/>
<stop offset="0.52" stop-color="#C1210D"/>
<stop offset="1" stop-color="#9D1D06"/>
</linearGradient>
<linearGradient id="paint7_linear_69_4462" x1="14.8793" y1="184.16" x2="49.7893" y2="510.46" gradientUnits="userSpaceOnUse">
<stop stop-color="#C1210D"/>
<stop offset="0.52" stop-color="#C1210D"/>
<stop offset="1" stop-color="#9D1D06"/>
</linearGradient>
<linearGradient id="paint8_linear_69_4462" x1="49.5458" y1="262.864" x2="49.5458" y2="360.83" gradientUnits="userSpaceOnUse">
<stop stop-color="#FFAE9E"/>
<stop offset="1" stop-color="#FCD7CB"/>
</linearGradient>
<radialGradient id="paint9_radial_69_4462" cx="0" cy="0" r="1" gradientUnits="userSpaceOnUse" gradientTransform="translate(131.06 236.63) scale(43.16 43.16)">
<stop stop-color="#DBDBDB"/>
<stop offset="0.17" stop-color="#E3E3E3"/>
<stop offset="0.67" stop-color="#F7F7F7"/>
<stop offset="1" stop-color="white"/>
</radialGradient>
<linearGradient id="paint10_linear_69_4462" x1="224.985" y1="274.793" x2="224.985" y2="444.038" gradientUnits="userSpaceOnUse">
<stop stop-color="#FFAE9E"/>
<stop offset="1" stop-color="#FCD7CB"/>
</linearGradient>
<clipPath id="clip0_69_4462">
<rect width="250" height="770" fill="white"/>
</clipPath>
<clipPath id="clip1_69_4462">
<rect width="35" height="7.65625" fill="white" transform="translate(117 106)"/>
</clipPath>
</defs>
</svg>
