<svg width="152" height="185" viewBox="0 0 152 185" fill="none" xmlns="http://www.w3.org/2000/svg">
<path d="M143.544 102.09C133.504 84.3398 130.144 66.1598 130.324 58.8598C130.354 58.2698 130.374 57.6798 130.394 57.0898C130.444 56.0798 130.504 55.5198 130.504 55.5198H130.424C130.424 24.8998 106.214 0.0698242 76.3642 0.0698242C46.5142 0.0698242 22.3042 24.8998 22.3042 55.5198C22.3042 57.0698 22.3842 58.6098 22.5042 60.1298C22.5642 68.1198 18.7742 85.2998 9.26418 102.09C-2.55582 122.97 -3.81581 145.03 19.6542 153.91C19.6542 153.91 19.7742 153.95 19.9442 154.01C22.1542 154.83 24.5542 155.54 27.2042 156.12C27.8242 156.25 28.4242 156.35 29.0342 156.47C44.8642 160.2 84.0442 165.77 121.184 156.93C122.644 156.7 124.124 156.45 125.624 156.12C129.784 155.21 133.354 153.99 136.444 152.51C136.464 152.51 136.494 152.49 136.514 152.49H136.504C156.474 142.82 154.774 121.94 143.554 102.1L143.544 102.09Z" fill="black"/>
<path d="M76.09 105.6C104.859 105.6 128.18 82.856 128.18 54.8C128.18 26.7439 104.859 4 76.09 4C47.3215 4 24 26.7439 24 54.8C24 82.856 47.3215 105.6 76.09 105.6Z" fill="black"/>
<mask id="mask0_69_7415" style="mask-type:luminance" maskUnits="userSpaceOnUse" x="109" y="65" width="17" height="29">
<path d="M111.78 69.5C106.97 75.18 110.17 88.89 110.72 90.59C111.53 93.08 114.33 96.14 119.01 91.59C124.05 86.67 129.18 69.19 121.94 66.07C120.93 65.63 119.97 65.45 119.06 65.45C114.82 65.45 111.87 69.38 111.77 69.5" fill="white"/>
</mask>
<g mask="url(#mask0_69_7415)">
<path d="M129.19 65.45H106.98V96.14H129.19V65.45Z" fill="url(#paint0_linear_69_7415)"/>
</g>
<mask id="mask1_69_7415" style="mask-type:luminance" maskUnits="userSpaceOnUse" x="22" y="65" width="17" height="29">
<path d="M26.1599 65.87C18.9199 68.99 24.0399 86.47 29.0899 91.39C33.7699 95.94 36.5799 92.89 37.3899 90.4C37.9399 88.7 41.14 74.99 36.33 69.31C36.23 69.19 33.28 65.26 29.04 65.26C28.13 65.26 27.1699 65.44 26.1599 65.88" fill="white"/>
</mask>
<g mask="url(#mask1_69_7415)">
<path d="M41.1299 65.26H18.9199V95.95H41.1299V65.26Z" fill="url(#paint1_linear_69_7415)"/>
</g>
<mask id="mask2_69_7415" style="mask-type:luminance" maskUnits="userSpaceOnUse" x="35" y="15" width="81" height="117">
<path d="M75.0501 15.18C75.0501 15.18 74.9601 15.18 74.9101 15.18C40.4801 15.39 37.7801 53.28 37.7801 53.28C37.7801 53.28 32.7601 93.22 36.3401 102.96C38.8801 109.87 47.1201 117.67 55.0901 123.11C58.3601 125.34 61.5901 127.19 64.3601 128.4C68.7301 130.32 72.0601 131.05 74.6101 131.18C74.7001 131.18 74.8001 131.18 74.8901 131.18C74.9201 131.18 74.9501 131.18 74.9701 131.18H75.0401C75.0401 131.18 75.0901 131.18 75.1101 131.18C75.1101 131.18 75.1601 131.18 75.1801 131.18C75.2801 131.18 75.3801 131.18 75.4701 131.18C78.0201 131.05 81.3401 130.31 85.7201 128.4C87.9501 127.42 90.4801 126.03 93.0801 124.37C101.61 118.92 111 110.42 113.75 102.95C117.33 93.21 112.3 53.27 112.3 53.27C112.3 53.27 109.6 15.38 75.1701 15.17C75.1201 15.17 75.0701 15.17 75.0301 15.17" fill="white"/>
</mask>
<g mask="url(#mask2_69_7415)">
<path d="M117.35 15.18H32.76V131.21H117.35V15.18Z" fill="url(#paint2_linear_69_7415)"/>
</g>
<mask id="mask3_69_7415" style="mask-type:luminance" maskUnits="userSpaceOnUse" x="34" y="123" width="80" height="62">
<path d="M53.8101 148.5C52.0101 154.07 45.2501 157.44 34.3701 162.18C34.4001 164.27 35.4901 181.78 64.9601 184.24H75.9701C111.42 184.24 113.63 165.29 113.76 162.14C102.94 157.42 96.2201 154.05 94.4301 148.5C92.9201 143.84 92.9601 131.4 93.1101 124.39C90.5001 126.05 87.9801 127.44 85.7501 128.42C81.3701 130.34 78.0501 131.07 75.5001 131.2C75.4101 131.2 75.3101 131.2 75.2101 131.2C75.1901 131.2 75.1601 131.2 75.1401 131.2H75.0701C75.0701 131.2 75.0201 131.2 75.0001 131.2C75.0001 131.2 74.9501 131.2 74.9201 131.2C74.8301 131.2 74.7301 131.2 74.6401 131.2C72.0801 131.07 68.7601 130.33 64.3901 128.42C61.6201 127.21 58.3901 125.36 55.1201 123.13C55.2901 129.8 55.4301 143.56 53.8301 148.51" fill="white"/>
</mask>
<g mask="url(#mask3_69_7415)">
<path d="M113.76 123.12H34.3701V184.23H113.76V123.12Z" fill="url(#paint3_linear_69_7415)"/>
</g>
<g style="mix-blend-mode:multiply" opacity="0.2">
<mask id="mask4_69_7415" style="mask-type:luminance" maskUnits="userSpaceOnUse" x="54" y="123" width="40" height="22">
<path d="M93.1 123.14H54.54V144.81H93.1V123.14Z" fill="white"/>
</mask>
<g mask="url(#mask4_69_7415)">
<mask id="mask5_69_7415" style="mask-type:luminance" maskUnits="userSpaceOnUse" x="54" y="123" width="40" height="22">
<path d="M93.1 123.14H54.54V144.81H93.1V123.14Z" fill="white"/>
</mask>
<g mask="url(#mask5_69_7415)">
<path d="M93.1 124.4C90.5 126.06 87.97 127.45 85.74 128.43C81.37 130.34 78.04 131.08 75.49 131.21C75.4 131.21 75.3 131.21 75.2 131.22H75.12H75.05H74.97H74.89C74.79 131.22 74.7 131.22 74.6 131.21C72.05 131.08 68.72 130.34 64.35 128.43C61.58 127.22 58.35 125.37 55.08 123.14C55.22 128.53 55.33 138.56 54.52 144.81C67.76 142.42 81.05 138.02 93.02 131.34C93.02 128.79 93.04 126.37 93.08 124.39" fill="#ECB699"/>
</g>
</g>
</g>
<path d="M78.8601 97.1C78.6301 97.1 78.4001 97.09 78.1701 97.06C77.7001 97.01 77.3602 96.58 77.4102 96.11C77.4602 95.64 77.8701 95.3 78.3501 95.36C79.7301 95.51 80.8801 95.06 81.6001 94.08C82.9101 92.31 82.7101 89.08 81.0401 85.23C75.9301 73.42 80.6401 67.24 80.8401 66.98C81.1301 66.61 81.6701 66.55 82.0401 66.84C82.4101 67.13 82.4701 67.67 82.1801 68.04C82.0001 68.27 77.9301 73.74 82.6001 84.55C85.2201 90.61 83.9501 93.75 82.9601 95.09C82.0101 96.38 80.5301 97.09 78.8401 97.09" fill="#DFAC97"/>
<path d="M99.44 74.81C99.44 76.78 97.84 78.39 95.86 78.39C93.88 78.39 92.29 76.78 92.29 74.81C92.29 72.84 93.89 71.24 95.86 71.24C97.83 71.24 99.44 72.85 99.44 74.81Z" fill="#231F20"/>
<path d="M57.7101 75.03C57.7101 77 56.1201 78.61 54.1301 78.61C52.1401 78.61 50.5601 77 50.5601 75.03C50.5601 73.06 52.1701 71.46 54.1301 71.46C56.0901 71.46 57.7101 73.07 57.7101 75.03Z" fill="#231F20"/>
<path d="M59 104C59 104 64.0685 111.648 75.3112 111.648C75.3112 111.648 87.8718 112.234 93.7788 104.461L94 104.142C74.4265 111.229 59 104 59 104Z" fill="white"/>
<path d="M95.1366 20C95.1366 20 77.7566 43.95 114.247 67.91C114.247 67.91 114.897 28.13 95.1366 20Z" fill="black"/>
<path d="M27.994 65.3997C27.994 65.3997 99.834 65.0298 111.344 29.4698C111.344 29.4698 93.504 5.53975 60.514 15.3697C27.534 25.2097 27.994 65.3997 27.994 65.3997Z" fill="black"/>
<defs>
<linearGradient id="paint0_linear_69_7415" x1="118.085" y1="58.7098" x2="118.085" y2="96.14" gradientUnits="userSpaceOnUse">
<stop stop-color="#FFAE9E"/>
<stop offset="1" stop-color="#FCD7CB"/>
</linearGradient>
<linearGradient id="paint1_linear_69_7415" x1="30.0249" y1="58.5197" x2="30.0249" y2="95.95" gradientUnits="userSpaceOnUse">
<stop stop-color="#FFAE9E"/>
<stop offset="1" stop-color="#FCD7CB"/>
</linearGradient>
<linearGradient id="paint2_linear_69_7415" x1="75.055" y1="-10.303" x2="75.055" y2="131.21" gradientUnits="userSpaceOnUse">
<stop stop-color="#FFAE9E"/>
<stop offset="1" stop-color="#FCD7CB"/>
</linearGradient>
<linearGradient id="paint3_linear_69_7415" x1="74.0651" y1="109.699" x2="74.0651" y2="184.23" gradientUnits="userSpaceOnUse">
<stop stop-color="#FFAE9E"/>
<stop offset="1" stop-color="#FCD7CB"/>
</linearGradient>
</defs>
</svg>
