<svg width="126" height="242" viewBox="0 0 126 242" fill="none" xmlns="http://www.w3.org/2000/svg">
<g clip-path="url(#clip0_2178_652)">
<path d="M98.0898 98.2199L92.9398 66.4599L67.2598 57.2799L40.9898 51.0699L25.8798 55.4499L15.6798 73.5199L14.5898 90.5299V114.32L19.8098 119.54L19.3898 125.33L27.7198 137.33L53.6998 146.93C53.6998 146.93 63.0798 148.2 63.4698 147.49C63.8598 146.78 78.8198 137.89 78.8198 137.89L90.8298 130.55L95.8598 122.36L98.0898 114.31L100.56 111.77L102.51 104.71L98.0798 98.2199H98.0898Z" fill="black"/>
<path d="M89.57 184.82C89.57 184.82 78.82 181.75 78.82 176.23V147.88C76.8 149.2 74.75 150.37 72.75 151.43C68.85 153.48 65.25 154.58 62.16 155.15C62.16 155.15 60.17 155.7 56.87 155.67C53.58 155.7 51.59 155.16 51.59 155.16C48.49 154.59 44.89 153.49 40.99 151.44C39.25 150.53 37.48 149.51 35.71 148.4V176.24C35.71 181.76 24.97 184.83 24.97 184.83C23.98 185.01 23.24 185.46 22.69 186.1C20.59 188.52 21.27 193.79 22.69 198.95C24.36 205.04 27.04 210.94 27.32 211.71C28.29 214.35 43.63 243.63 58.55 241.54C73.46 239.45 87.13 207.38 89.49 199.02C90.29 196.2 90.68 194.01 90.83 192.33C91.84 189.37 91.63 186.77 89.57 184.84V184.82Z" fill="url(#paint0_linear_2178_652)"/>
<g style="mix-blend-mode:multiply" opacity="0.25">
<path d="M62.1499 153.18C62.1499 153.18 60.1599 153.78 56.8599 153.75C53.5599 153.78 51.5699 153.19 51.5699 153.19C48.4699 152.56 44.8699 151.34 40.9699 149.07C39.2299 148.05 37.4599 146.93 35.6899 145.7V165.23C50.3399 167.55 65.1499 162.25 78.7999 153.51V145.13C76.7799 146.58 74.7299 147.89 72.7199 149.07C68.8199 151.34 65.2199 152.56 62.1299 153.18H62.1499Z" fill="#ECB699"/>
</g>
<mask id="mask0_2178_652" style="mask-type:luminance" maskUnits="userSpaceOnUse" x="95" y="87" width="15" height="30">
<path d="M99.7999 87.81C97.4999 88.45 96.3699 89.99 95.8499 90.69C95.8899 90.88 95.9099 91.08 95.9399 91.28C97.3799 100.21 97.9399 108.91 98.0599 115.89C100.47 116.82 104.07 116.1 107.1 108.9C110.88 99.89 109.37 88.49 103.62 87.65C103.05 87.57 102.52 87.53 102.03 87.53C101.19 87.53 100.45 87.64 99.8099 87.82" fill="white"/>
</mask>
<g mask="url(#mask0_2178_652)">
<path d="M110.88 87.52H95.8499V116.82H110.88V87.52Z" fill="url(#paint1_linear_2178_652)"/>
</g>
<mask id="mask1_2178_652" style="mask-type:luminance" maskUnits="userSpaceOnUse" x="4" y="87" width="14" height="30">
<path d="M10.1599 87.61C4.40991 88.45 2.89991 99.85 6.67991 108.86C9.69991 116.04 13.2899 116.78 15.6999 115.85C15.8199 109.12 16.3399 100.79 17.6699 92.2C17.7499 91.68 17.8299 91.16 17.9099 90.64C17.2799 89.78 15.7599 87.74 12.3999 87.51C12.1799 87.5 11.9599 87.48 11.7199 87.48C11.2299 87.48 10.7099 87.52 10.1499 87.6" fill="white"/>
</mask>
<g mask="url(#mask1_2178_652)">
<path d="M17.9199 87.49H2.8999V116.78H17.9199V87.49Z" fill="url(#paint2_linear_2178_652)"/>
</g>
<path d="M95.8699 129.18C97.3099 125.63 98.1298 121.69 98.0898 117.32C98.0898 116.85 98.0798 116.37 98.0698 115.88C97.9498 108.9 97.3898 100.21 95.9498 91.27C95.9198 91.1 95.8998 90.94 95.8699 90.77V90.76V42.77H17.9398V90.55V90.53C17.9398 90.57 17.9298 90.61 17.9198 90.65C17.8398 91.17 17.7598 91.69 17.6798 92.21C16.3498 100.8 15.8298 109.13 15.7098 115.86C15.6898 116.36 15.6898 116.85 15.6898 117.33C15.6498 121.74 16.4898 125.71 17.9498 129.29C17.9498 129.29 22.2898 142.89 41.0098 151.68C44.9998 153.55 48.5098 154.84 51.5998 155.39C51.5998 155.39 53.5898 155.94 56.8898 155.9C60.1798 155.93 62.1698 155.4 62.1698 155.4C65.2698 154.83 68.8698 153.73 72.7698 151.68C89.8298 144.02 95.8699 129.19 95.8699 129.19V129.18Z" fill="url(#paint3_linear_2178_652)"/>
<path d="M76.5301 35.49C60.0101 39.48 69.6301 29.47 44.9101 30.4C25.0101 31.15 20.3201 42.66 19.2401 47.13C11.2501 53.26 10.0401 64.95 10.5701 74.38C10.9001 80.27 11.9201 85.28 12.3901 87.51C15.7501 87.75 17.2701 89.78 17.8901 90.64C18.2301 88.64 18.6001 86.64 19.0201 84.65C19.0201 84.65 19.7001 80.79 20.3701 79.03C21.0001 76.66 21.7201 74.34 22.5201 72.06C37.0101 65.39 37.7301 57.13 37.7301 57.13C60.1901 72.1 81.1401 73.7 91.6601 73.43C92.2701 75.27 92.8401 77.14 93.3501 79.04C94.0101 80.8 94.6901 84.66 94.6901 84.66C95.1201 86.68 95.4901 88.7 95.8301 90.71C96.3501 90 97.4801 88.46 99.7801 87.82C100.26 85.6 101.49 79.76 101.74 73C101.74 72.77 101.76 72.53 101.77 72.3C110.29 48.45 83.3901 33.85 76.5201 35.51L76.5301 35.49Z" fill="black"/>
<path d="M44.6699 128.84C44.6699 128.84 48.0799 134.51 55.6599 134.51C55.6599 134.51 64.1199 134.94 68.0999 129.18L68.2499 128.94C55.0699 134.2 44.6799 128.84 44.6799 128.84" fill="white"/>
<path d="M59.6499 115.61C59.2599 115.61 58.9099 115.35 58.7999 114.96C58.6699 114.49 58.9498 114.01 59.4198 113.89C60.4998 113.6 63.0199 112.43 63.4699 110.83C63.7799 109.73 62.2198 106.12 60.8498 102.94C59.9998 100.96 59.1198 98.92 58.4198 96.97C56.3098 91.06 59.2898 85.86 59.4198 85.64C59.6698 85.22 60.1999 85.08 60.6199 85.33C61.0399 85.57 61.1798 86.11 60.9398 86.53C60.9098 86.58 58.2499 91.26 60.0799 96.39C60.7599 98.29 61.6199 100.3 62.4599 102.25C64.4299 106.81 65.6099 109.69 65.1499 111.31C64.4399 113.84 61.0999 115.25 59.8699 115.58C59.7899 115.6 59.7199 115.61 59.6399 115.61" fill="#DFAC97"/>
<path d="M79.78 95.97C79.78 97.76 78.33 99.22 76.53 99.22C74.73 99.22 73.29 97.76 73.29 95.97C73.29 94.18 74.75 92.73 76.53 92.73C78.31 92.73 79.78 94.19 79.78 95.97Z" fill="#231F20"/>
<path d="M41.9199 96.1699C41.9199 97.9599 40.4799 99.4199 38.6699 99.4199C36.8599 99.4199 35.4299 97.9599 35.4299 96.1699C35.4299 94.3799 36.8899 92.9299 38.6699 92.9299C40.4499 92.9299 41.9199 94.3899 41.9199 96.1699Z" fill="#231F20"/>
<path d="M10.53 69.89C9.19996 70.86 -2.90004 45.76 0.639964 31.75C31.63 -8.01001 65.7 -1.04001 73.58 3.69999C88.58 22.53 92.51 50.14 92.51 50.14C92.51 50.14 59.73 33.94 10.54 69.89H10.53Z" fill="url(#paint4_linear_2178_652)"/>
<path d="M125.16 38.26C125.25 37.53 124.53 36.29 124.25 35.81C120.73 29.79 85.2501 23.35 62.6501 29.97C34.0201 38.35 17.8101 65.12 17.8101 65.12C19.2001 63.94 20.6601 62.82 22.1601 61.76C21.7101 62.27 21.4601 62.56 21.4601 62.56C46.5901 48.01 68.5701 45 82.4301 47.45C96.3001 49.9 102.81 58.8 102.81 58.8C102.81 58.8 125.69 44.89 125.15 38.27L125.16 38.26Z" fill="#7C1313"/>
<path d="M38.5999 118.47C37.9699 118.47 37.3299 118.44 36.6699 118.39C31.2499 117.94 27.1399 115.95 24.4499 112.49C21.3199 108.46 20.1699 102.58 21.0299 95.0099C21.6599 89.4499 23.1599 85.0999 23.2299 84.9199L23.4699 84.2299L57.5799 83.9099L57.6699 84.8299C57.7499 85.6899 59.5699 106.11 49.4299 114.73C46.4999 117.22 42.8599 118.48 38.5899 118.48L38.5999 118.47ZM25.1999 86.1799C24.1899 89.4699 20.3399 103.65 26.3499 111.38C28.6399 114.33 32.1899 116.02 36.8899 116.42C41.2899 116.79 44.9699 115.74 47.8299 113.31C56.0499 106.32 55.6899 89.0499 55.4699 84.9999L25.1999 86.1699V86.1799Z" fill="#C1210D"/>
<path opacity="0.5" d="M25.2 86.18C24.19 89.47 20.34 103.65 26.35 111.38C28.64 114.33 32.19 116.02 36.89 116.42C41.29 116.79 44.97 115.74 47.83 113.31C56.05 106.32 55.69 89.05 55.47 85L25.2 86.17V86.18Z" fill="url(#paint5_linear_2178_652)"/>
<path d="M56.75 96.7099L55.2 94.6899C56.59 93.6199 60.0399 91.2599 62.0999 92.4999C63.1399 93.1299 62.24 94.3799 61.93 96.2099L61.33 95.7799C61.44 95.1299 60.76 94.8099 60.7299 94.6799C60.7099 94.6799 60.7 94.6799 60.68 94.6799C60 94.6799 58.19 95.5999 56.75 96.7099Z" fill="#C1210D"/>
<path d="M24.9399 84.77L3.34985 83.34L3.59985 88.02L23.7499 87.25L24.9399 84.77Z" fill="#C1210D"/>
<path d="M69.3898 114.72C59.2598 106.1 61.0698 85.68 61.1498 84.82L61.2398 83.9L95.3498 84.22L95.5898 84.91C95.6498 85.09 97.1598 89.44 97.7898 95C98.6498 102.57 97.4998 108.45 94.3698 112.48C91.6798 115.95 87.5698 117.93 82.1498 118.38C81.4898 118.43 80.8498 118.46 80.2198 118.46C75.9498 118.46 72.3198 117.2 69.3798 114.71L69.3898 114.72ZM63.3598 85.01C63.1298 89.06 62.7698 106.33 70.9998 113.32C73.8598 115.75 77.5398 116.8 81.9398 116.43C86.6398 116.04 90.1898 114.34 92.4798 111.39C98.4898 103.66 94.6398 89.48 93.6298 86.19L63.3598 85.02V85.01Z" fill="#C1210D"/>
<path opacity="0.5" d="M93.6299 86.18C94.6399 89.47 98.49 103.65 92.48 111.38C90.19 114.33 86.64 116.02 81.94 116.42C77.54 116.79 73.86 115.74 71 113.31C62.78 106.32 63.14 89.05 63.36 85L93.6299 86.17V86.18Z" fill="url(#paint6_linear_2178_652)"/>
<path d="M93.8799 84.77L109.56 83.34L109.31 88.02L95.0699 87.25L93.8799 84.77Z" fill="#C1210D"/>
</g>
<defs>
<linearGradient id="paint0_linear_2178_652" x1="56.3881" y1="127.287" x2="56.3881" y2="241.647" gradientUnits="userSpaceOnUse">
<stop stop-color="#FFAE9E"/>
<stop offset="1" stop-color="#FCD7CB"/>
</linearGradient>
<linearGradient id="paint1_linear_2178_652" x1="103.365" y1="81.085" x2="103.365" y2="116.82" gradientUnits="userSpaceOnUse">
<stop stop-color="#FFAE9E"/>
<stop offset="1" stop-color="#FCD7CB"/>
</linearGradient>
<linearGradient id="paint2_linear_2178_652" x1="10.4099" y1="81.0572" x2="10.4099" y2="116.78" gradientUnits="userSpaceOnUse">
<stop stop-color="#FFAE9E"/>
<stop offset="1" stop-color="#FCD7CB"/>
</linearGradient>
<linearGradient id="paint3_linear_2178_652" x1="56.8899" y1="17.9235" x2="56.8899" y2="155.902" gradientUnits="userSpaceOnUse">
<stop stop-color="#FFAE9E"/>
<stop offset="1" stop-color="#FCD7CB"/>
</linearGradient>
<linearGradient id="paint4_linear_2178_652" x1="54.289" y1="19.8861" x2="37.8575" y2="64.7501" gradientUnits="userSpaceOnUse">
<stop stop-color="#C1210D"/>
<stop offset="0.52" stop-color="#C1210D"/>
<stop offset="1" stop-color="#9D1D06"/>
</linearGradient>
<linearGradient id="paint5_linear_2178_652" x1="39.54" y1="85.51" x2="38.54" y2="122.14" gradientUnits="userSpaceOnUse">
<stop/>
<stop offset="1" stop-color="#9E9E9E"/>
</linearGradient>
<linearGradient id="paint6_linear_2178_652" x1="79.28" y1="85.51" x2="80.29" y2="122.14" gradientUnits="userSpaceOnUse">
<stop/>
<stop offset="1" stop-color="#9E9E9E"/>
</linearGradient>
<clipPath id="clip0_2178_652">
<rect width="125.17" height="241.63" fill="white"/>
</clipPath>
</defs>
</svg>
