<svg width="339" height="823" viewBox="0 0 339 823" fill="none" xmlns="http://www.w3.org/2000/svg">
<g clip-path="url(#clip0_71_1796)">
<path d="M199.339 72.4181L193.856 38.5398L166.517 28.7475L138.55 22.1233L122.464 26.7954L111.605 46.0706L110.445 64.2152V89.5919L116.002 95.16L115.555 101.336L124.423 114.137L152.081 124.377C152.081 124.377 162.067 125.732 162.483 124.974C162.898 124.217 178.824 114.734 178.824 114.734L191.61 106.904L196.965 98.1681L199.339 89.5812L201.969 86.8718L204.045 79.3409L199.328 72.4181H199.339Z" fill="black"/>
<path d="M190.269 165.05C190.269 165.05 178.824 161.775 178.824 155.887V125.646C176.674 127.054 174.491 128.302 172.362 129.433C168.21 131.62 164.378 132.793 161.088 133.401C161.088 133.401 158.969 133.988 155.456 133.956C151.954 133.988 149.835 133.412 149.835 133.412C146.535 132.804 142.702 131.63 138.55 129.444C136.698 128.473 134.814 127.385 132.929 126.201V155.898C132.929 161.786 121.496 165.061 121.496 165.061C120.442 165.253 119.654 165.733 119.068 166.415C116.833 168.997 117.557 174.618 119.068 180.122C120.846 186.619 123.699 192.912 123.997 193.734C125.03 196.55 141.361 227.782 157.245 225.553C173.118 223.324 187.671 189.115 190.183 180.197C191.035 177.189 191.45 174.853 191.61 173.061C192.685 169.904 192.462 167.13 190.269 165.071V165.05Z" fill="url(#paint0_linear_71_1796)"/>
<g style="mix-blend-mode:multiply" opacity="0.25">
<path d="M161.077 131.044C161.077 131.044 158.959 131.684 155.446 131.652C151.932 131.684 149.814 131.055 149.814 131.055C146.514 130.383 142.681 129.081 138.529 126.66C136.677 125.572 134.792 124.377 132.908 123.065V143.898C148.504 146.372 164.271 140.719 178.803 131.396V122.457C176.652 124.004 174.47 125.401 172.33 126.66C168.178 129.081 164.346 130.383 161.056 131.044H161.077Z" fill="#ECB699"/>
</g>
<mask id="mask0_71_1796" style="mask-type:luminance" maskUnits="userSpaceOnUse" x="196" y="61" width="16" height="31">
<path d="M201.16 61.3138C198.711 61.9965 197.508 63.6392 196.954 64.3859C196.997 64.5886 197.018 64.8019 197.05 65.0153C198.583 74.5409 199.179 83.8211 199.307 91.2667C201.873 92.2587 205.705 91.4907 208.931 83.8105C212.955 74.1995 211.348 62.0392 205.226 61.1431C204.619 61.0578 204.055 61.0151 203.534 61.0151C202.639 61.0151 201.852 61.1325 201.17 61.3245" fill="white"/>
</mask>
<g mask="url(#mask0_71_1796)">
<path d="M212.955 61.0051H196.954V92.2594H212.955V61.0051Z" fill="url(#paint1_linear_71_1796)"/>
</g>
<mask id="mask1_71_1796" style="mask-type:luminance" maskUnits="userSpaceOnUse" x="99" y="60" width="15" height="32">
<path d="M105.729 61.1006C99.6075 61.9966 97.9999 74.157 102.024 83.7679C105.239 91.4268 109.061 92.2161 111.627 91.2241C111.755 84.0452 112.308 75.1596 113.724 65.9967C113.809 65.442 113.894 64.8874 113.98 64.3327C113.309 63.4153 111.691 61.2393 108.114 60.9939C107.879 60.9832 107.645 60.9619 107.39 60.9619C106.868 60.9619 106.314 61.0046 105.718 61.0899" fill="white"/>
</mask>
<g mask="url(#mask1_71_1796)">
<path d="M113.99 60.9727H98V92.2162H113.99V60.9727Z" fill="url(#paint2_linear_71_1796)"/>
</g>
<mask id="mask2_71_1796" style="mask-type:luminance" maskUnits="userSpaceOnUse" x="114" y="13" width="83" height="97">
<path d="M148.781 13.8886C147.834 14.0486 146.886 14.2406 145.928 14.4966C129.97 18.6674 121.272 34.4971 116.63 51.9376C115.928 53.815 115.193 57.9431 115.193 57.9431C114.746 60.0339 114.363 62.1353 114.011 64.2047C115.385 77.3677 117.61 97.1656 118.845 100.526C119.164 101.411 119.941 102.339 120.995 103.278C124.423 105.561 129.193 108.483 132.259 109.315C137.496 110.723 138.572 106.755 139.509 103.214C140.445 99.6617 142.862 95.7042 148.909 95.1282C149.409 95.0855 149.888 95.0535 150.357 95.0215C150.463 95.0109 150.548 95.0002 150.644 94.9895C154.019 94.7335 162.078 94.4135 165.666 96.1522C169.136 97.6349 170.744 100.622 171.478 103.352C172.415 106.905 173.491 110.873 178.718 109.454C181.794 108.611 186.564 105.689 189.992 103.416C191.056 102.478 191.823 101.55 192.142 100.664C193.377 97.3149 195.592 77.645 196.965 64.4927V64.4607C196.965 64.4607 196.965 64.4073 196.954 64.3753C196.603 62.2313 196.209 60.0765 195.741 57.9218C195.741 57.9218 195.017 53.8044 194.314 51.9163C190.301 36.8865 183.285 23.0835 171.212 16.8753C171.116 16.822 171.031 16.7686 170.936 16.7153C170.755 16.63 170.574 16.534 170.382 16.4486C166.39 14.4752 162.546 13.7819 160.343 13.5472C158.725 13.3339 157.149 13.2485 155.669 13.2485C153.008 13.2485 150.634 13.5365 148.771 13.8672" fill="white"/>
</mask>
<g mask="url(#mask2_71_1796)">
<path d="M196.976 13.2698H114.011V110.883H196.976V13.2698Z" fill="url(#paint3_linear_71_1796)"/>
</g>
<path d="M113.724 65.9966C112.308 75.1596 111.754 84.0452 111.627 91.224C111.605 91.7574 111.605 92.2801 111.605 92.7921C111.424 111.385 125.871 122.724 138.561 129.433C142.713 131.631 146.546 132.804 149.835 133.391C149.835 133.391 151.954 133.977 155.467 133.935C158.969 133.967 161.088 133.401 161.088 133.401C164.388 132.793 168.221 131.62 172.373 129.433C185.052 122.734 199.509 111.395 199.328 92.7921C199.328 92.2907 199.318 91.7787 199.307 91.256C199.179 83.8105 198.583 74.5409 197.05 65.0046C197.018 64.8233 196.997 64.6526 196.965 64.4713C195.592 77.6236 193.377 97.3149 192.142 100.664C191.812 101.55 191.046 102.478 189.981 103.416C186.553 105.699 181.784 108.622 178.707 109.454C173.48 110.873 172.394 106.904 171.468 103.363C170.744 100.622 169.126 97.6455 165.655 96.1628C162.057 94.4241 154.008 94.7441 150.623 95.0001C150.527 95.0001 150.442 95.0108 150.336 95.0215C149.867 95.0535 149.388 95.0855 148.888 95.1281C142.851 95.7042 140.435 99.6723 139.487 103.214C138.55 106.755 137.475 110.734 132.237 109.315C129.171 108.483 124.402 105.56 120.974 103.278C119.909 102.339 119.143 101.411 118.823 100.526C117.588 97.1655 115.363 77.3676 113.99 64.2046C113.99 64.2473 113.979 64.2899 113.969 64.3326C113.884 64.8873 113.799 65.442 113.713 65.9966" fill="black"/>
<path d="M213.7 0.82143C212.37 1.25878 209.101 2.14413 201.788 3.90419C184.211 8.14964 169.041 -0.917286 142.734 0.0747424C121.549 0.874765 116.556 13.1524 115.406 17.9206C106.9 24.4594 105.612 36.9291 106.176 46.9881C106.527 53.2709 107.613 58.6151 108.114 60.9938C111.691 61.2498 113.309 63.4152 113.969 64.3326C114.331 62.1992 114.725 60.0658 115.172 57.9431C115.172 57.9431 115.896 53.8256 116.609 51.9482C117.28 49.4202 118.046 46.9454 118.898 44.5133C134.324 37.3985 135.09 28.5876 135.09 28.5876C159.001 44.556 181.305 46.2627 192.504 45.9747C193.154 47.9374 193.76 49.9322 194.303 51.9589C195.006 53.8363 195.73 57.9537 195.73 57.9537C196.188 60.1085 196.582 62.2632 196.944 64.4072C197.497 63.6499 198.7 62.0072 201.149 61.3245C201.66 58.9564 202.969 52.7269 203.235 45.516C203.235 45.2707 203.257 45.0147 203.267 44.7694C222.27 31.6383 214.648 4.00019 213.7 0.82143Z" fill="black"/>
<path d="M142.468 105.08C142.468 105.08 146.098 111.128 154.168 111.128C154.168 111.128 163.175 111.587 167.412 105.443L167.571 105.187C153.54 110.798 142.479 105.08 142.479 105.08" fill="white"/>
<path d="M160.545 90.9681C160.13 90.9681 159.757 90.6907 159.64 90.2747C159.502 89.7734 159.8 89.2614 160.3 89.1334C161.45 88.824 164.133 87.576 164.612 85.8693C164.942 84.6959 163.281 80.8451 161.823 77.453C160.918 75.341 159.981 73.1649 159.236 71.0848C156.989 64.7807 160.162 59.2338 160.3 58.9992C160.566 58.5512 161.131 58.4018 161.578 58.6685C162.025 58.9245 162.174 59.5005 161.918 59.9485C161.886 60.0019 159.055 64.994 161.003 70.4662C161.727 72.4929 162.642 74.6369 163.537 76.717C165.634 81.5811 166.89 84.6532 166.4 86.3813C165.644 89.08 162.089 90.5841 160.779 90.9361C160.694 90.9574 160.62 90.9681 160.534 90.9681" fill="#DFAC97"/>
<path d="M179.846 70.0181C179.846 71.9275 178.303 73.4849 176.386 73.4849C174.47 73.4849 172.937 71.9275 172.937 70.0181C172.937 68.1087 174.491 66.562 176.386 66.562C178.281 66.562 179.846 68.1194 179.846 70.0181Z" fill="#231F20"/>
<path d="M139.541 70.2315C139.541 72.1409 138.008 73.6983 136.081 73.6983C134.154 73.6983 132.631 72.1409 132.631 70.2315C132.631 68.3221 134.186 66.7754 136.081 66.7754C137.976 66.7754 139.541 68.3328 139.541 70.2315Z" fill="#231F20"/>
</g>
<g clip-path="url(#clip1_71_1796)">
<mask id="mask3_71_1796" style="mask-type:luminance" maskUnits="userSpaceOnUse" x="216" y="326" width="41" height="170">
<path d="M224.204 355.842C225.558 369.974 231.172 419.076 231.457 428.086C229.417 435.321 218.728 438.88 217.639 445.767C217.11 449.115 217.861 453.297 217.491 456.867C217.015 461.251 214.404 468.074 221.234 465.676C223.39 464.937 228.18 451.977 230.083 452.41C232.821 453.023 235.496 464.799 236.257 466.954C238.657 473.756 238.509 480.959 239.101 488.046C239.249 489.853 239.154 495.577 241.649 495.926C243.879 496.243 246.015 491.257 246.861 489.779C249.768 484.709 253.373 478.097 254.674 471.834C255.921 465.834 256.566 459.202 256.038 453.223C255.604 448.428 255.086 444.922 253.289 440.369C252.274 437.803 251.513 436.356 251.439 433.853C251.47 433.367 252.993 413.743 254.42 387.116C255.868 360.14 251.047 335.943 249.969 332.573C248.891 329.215 244.281 326.226 244.281 326.226" fill="white"/>
</mask>
<g mask="url(#mask3_71_1796)">
<path d="M240.743 287.912L128.814 311.803L171.563 511.698L283.492 487.808L240.743 287.912Z" fill="url(#paint4_linear_71_1796)"/>
</g>
<path d="M135.122 510.491C104.357 619.628 96.4385 774.457 96.4385 774.457L60.9685 774.964C60.9685 774.964 57.0251 667.4 57.8709 617.727C58.7166 568.054 78.3916 561.283 88.4987 495.809C98.5953 430.335 135.133 510.491 135.133 510.491H135.122Z" fill="url(#paint5_linear_71_1796)"/>
<path d="M268.682 772.471C268.682 772.471 256.08 760.388 253.141 744.609C251.787 737.3 251.978 626.821 251.809 607.936C251.65 589.062 251.46 558.949 245.465 548.588C239.46 538.205 213.442 515.254 213.442 515.254L180.773 522.098C182.021 522.743 199.719 579.619 199.719 579.619L196.653 612.858C196.801 646.097 212.818 696.868 216.317 714.486C219.827 732.082 219.521 776.126 219.521 776.126L268.682 772.471Z" fill="url(#paint6_linear_71_1796)"/>
<mask id="mask4_71_1796" style="mask-type:luminance" maskUnits="userSpaceOnUse" x="207" y="746" width="123" height="47">
<path d="M263.184 747.006C265.626 748.39 268.999 755.752 270.638 759.966C279.043 762.68 309.047 772.461 318.446 773.633C323.785 774.32 327.221 774.52 329.335 774.552C307.313 806.872 261.398 784.977 227.862 791.166C221.202 792.856 214.932 792.032 208.885 789.909L209.192 789.392C205.174 781.755 209.657 769.947 211.644 764.983C213.896 759.364 213.854 747.746 216.867 747.027C219.891 746.299 220.99 749.045 220.99 749.045C220.99 749.045 220.039 760.505 225.98 764.001C231.489 767.243 244.736 764.74 250.572 762.025C246.512 754.389 247.262 751.094 250.001 749.351C252.697 747.629 257.803 745.823 261.324 746.373C262.011 746.478 262.645 746.689 263.184 746.996" fill="white"/>
</mask>
<g mask="url(#mask4_71_1796)">
<path d="M211.993 738.631L203.786 790.577L323.828 809.507L332.035 757.561L211.993 738.631Z" fill="url(#paint7_linear_71_1796)"/>
</g>
<mask id="mask5_71_1796" style="mask-type:luminance" maskUnits="userSpaceOnUse" x="203" y="774" width="132" height="31">
<path d="M334.79 779.463C335.689 783.519 326.671 795.074 313.625 800.883C300.843 806.555 285.989 803.555 270.765 800.471C265.933 799.795 260.774 799.246 257.972 799.447C251.925 799.859 241.152 803.112 234.29 804.421C227.418 805.721 211.063 804.337 203.525 799.056L208.885 789.92C214.943 792.043 221.212 792.867 227.862 791.177C261.398 784.987 307.313 806.872 329.335 774.563C331.534 774.615 332.327 774.468 332.327 774.468C332.327 774.468 333.892 775.397 334.79 779.474" fill="white"/>
</mask>
<g mask="url(#mask5_71_1796)">
<path d="M210.466 755.268L202.913 803.071L329.461 823.027L337.014 775.224L210.466 755.268Z" fill="url(#paint8_linear_71_1796)"/>
</g>
<path d="M79.6708 390.421C79.6708 390.421 56.6021 562.678 55.7458 573.071C54.8894 583.464 103.131 598.557 119.454 590.223C138.104 580.696 147.925 458.884 156.478 459.212C161.194 459.391 178.522 567.599 183.755 584.541C188.988 601.482 245.338 580.189 250.233 569.258C258.12 551.64 227.958 443.094 232.884 408.356C237.811 373.607 79.6814 390.421 79.6814 390.421H79.6708Z" fill="url(#paint9_linear_71_1796)"/>
<path d="M60.5561 579.778L57.8813 591.913C57.8813 591.913 118.196 600.976 118.207 599.941C118.207 598.905 119.444 590.223 119.444 590.223L60.5561 579.778Z" fill="url(#paint10_linear_71_1796)"/>
<path d="M194.359 590.815L197.721 598.198L253.024 580.823L250.212 569.258L194.359 590.815Z" fill="url(#paint11_linear_71_1796)"/>
<path d="M209.858 168.841C238.297 160.877 270.225 247.232 274.137 318.505C264.506 340.875 237.769 334.01 237.769 334.01L209.858 168.841Z" fill="url(#paint12_linear_71_1796)"/>
<path d="M235.739 320.184C249.81 321.071 275.078 312.474 275.078 312.474C275.078 312.474 280.734 334.686 273.26 346.673C270.289 351.448 231.51 353.687 231.51 353.687L235.739 320.184Z" fill="#116C8C"/>
<path d="M60.0698 375.656C60.0698 375.656 82.5571 318.737 106.493 269.455C130.428 220.172 111.441 280.555 111.441 280.555C111.441 280.555 77.2815 356.211 73.9407 372.867C68.4008 374.948 60.0698 375.645 60.0698 375.645V375.656Z" fill="url(#paint13_linear_71_1796)"/>
<path d="M243.816 378.296C241.881 398.079 233.053 402.24 233.053 402.24C233.053 402.24 233.117 411.091 231.616 418.897C216.085 431.909 88.9639 421.865 88.9639 421.865L88.8264 404.163C88.8264 404.163 78.2859 388.541 88.541 367.724C91.5541 361.598 93.4994 350.708 94.5777 337.073C97.1574 304.235 92.5901 285.794 87.8961 250.105L63.9816 185.793L108.618 161.944C108.618 161.944 141.275 172.897 168.594 172.464C179.79 172.284 183.099 157.275 193.873 159.092C227.048 163.127 239.132 214.247 242.093 232.34C247.559 265.79 244.017 277.471 240.951 312.875C235.411 376.881 245.74 358.514 243.805 378.296H243.816Z" fill="url(#paint14_linear_71_1796)"/>
<path style="mix-blend-mode:multiply" d="M93.8165 345.1C96.3961 312.262 92.6112 285.783 87.9172 250.094L75.2727 205.459L112.836 212.177C173.69 256.738 136.909 334.158 93.8165 345.089V345.1Z" fill="url(#paint15_radial_71_1796)"/>
<path style="mix-blend-mode:multiply" opacity="0.6" d="M78.2435 178.177C139.404 203.685 168.457 196.048 164.101 171.059C159.735 146.069 113.1 159.884 113.1 159.884L78.2435 178.167V178.177Z" fill="url(#paint16_radial_71_1796)"/>
<path d="M195.807 362.812L199.856 393.009L195.712 396.125L190.278 366.974L195.807 362.812Z" fill="#116C8C"/>
<path d="M161.743 360.383L165.243 363.509C165.243 363.509 165.412 385.721 148.095 392.661C146.699 391.615 142.851 388.848 142.851 388.848C142.851 388.848 159.491 384.338 161.733 360.394L161.743 360.383Z" fill="#116C8C"/>
<path d="M114.147 449.928L97.2631 450.203L71.065 450.615L61.7297 410.363L49.6561 377.737L74.5961 368.717C74.5961 368.717 133.685 371.484 136.507 377.737C139.33 383.979 114.136 449.928 114.136 449.928H114.147Z" fill="url(#paint17_linear_71_1796)"/>
<path d="M49.6667 377.737C49.6667 377.737 44.4123 417.302 70.8324 419.383C97.2525 421.463 112.223 380.514 112.223 380.514L49.6667 377.737Z" fill="#3E3E45"/>
<path d="M114.147 449.928L97.2631 450.203L112.212 380.504L136.518 377.737C139.341 383.979 114.147 449.928 114.147 449.928Z" fill="url(#paint18_linear_71_1796)"/>
<path d="M119.222 386.756L129.033 397.857C129.033 397.857 165.549 357.595 185.764 276.394C205.978 195.182 193.894 159.092 193.894 159.092L182.824 164.647C182.824 164.647 193.619 212.536 175.371 278.485C157.123 344.424 119.232 386.767 119.232 386.767L119.222 386.756Z" fill="#3E3E45"/>
<path d="M201.178 159.778C199.666 167.003 193.524 169.4 185.637 171.65C182.391 172.59 178.881 173.509 175.234 174.713L165.835 172.632C165.835 172.632 170.402 171.038 175.73 164.352C177.771 161.785 177.94 155.364 177.845 152.026C177.549 141.337 177.845 140.894 177.845 140.894C177.845 140.894 205.026 141.401 201.167 159.789L201.178 159.778Z" fill="#116C8C"/>
<path style="mix-blend-mode:multiply" d="M185.637 171.65C182.391 172.59 178.881 173.509 175.234 174.713L165.835 172.632C165.835 172.632 176.693 167.33 177.845 157.803C178.511 159.968 184.643 168.07 185.626 171.65H185.637Z" fill="url(#paint19_radial_71_1796)"/>
<path d="M168.33 178.177L175.255 174.702C175.255 174.702 150.801 167.805 135.683 152.829C131.179 148.361 133.558 142.425 132.955 135.908C129.646 134.704 118.492 132.898 120.66 143.661C104.685 143.661 100.456 160.475 108.501 166.718C116.536 172.96 168.341 178.167 168.341 178.167L168.33 178.177Z" fill="#116C8C"/>
<path d="M170.857 221.894C170.857 221.894 172.062 217.194 168.626 205.016C165.19 192.838 160.2 172.126 160.2 172.126C160.136 170.583 158.847 169.337 157.314 169.337C155.781 169.337 154.586 170.583 154.649 172.126C153.37 179.265 161.342 196.313 163.625 205.713C165.909 215.113 166.004 221.894 166.004 221.894C166.004 221.894 164.312 227.46 164.873 228.506C165.433 229.551 173.267 229.9 173.51 227.291C173.754 224.682 170.867 221.894 170.867 221.894H170.857Z" fill="#116C8C"/>
<path d="M184.04 188.243C184.167 182.339 184.579 168.809 184.579 168.809C184.569 167.278 183.311 166.031 181.778 166.031C180.245 166.031 179.008 167.278 179.018 168.809C180.488 179.392 176.143 201.256 175.508 209.41C174.874 217.563 175.953 222.601 175.953 222.601C175.953 222.601 175.117 227.291 175.308 229.023C175.498 230.755 182.951 228.854 183.29 227.978C183.628 227.111 180.647 222.601 180.647 222.601C180.647 222.601 179.896 215.145 180.372 209.938C180.847 204.731 183.903 194.147 184.03 188.243H184.04Z" fill="#116C8C"/>
<path d="M42.1604 765.711C42.2767 765.405 42.3718 765.099 42.5304 764.782C46.3047 756.353 57.9977 753.924 73.8455 756.353C82.4408 757.674 86.2996 760.23 88.0441 762.289C89.4819 763.757 90.6977 765.585 91.4589 767.961C94.2817 770.253 99.2084 774.098 101.746 777.414C105.34 782.114 110.732 792.645 99.7582 797.186C89.3973 801.474 50.227 802.573 37.054 798.327C31.9582 797.376 27.9301 796.204 25.6148 794.915C18.0662 790.743 32.1062 772.577 42.171 765.701" fill="url(#paint20_linear_71_1796)"/>
<path d="M192.075 329.225C192.35 328.929 192.826 328.327 193.429 327.218C194.422 325.349 194.972 323.722 194.253 320.121C193.915 318.452 193.006 317.163 191.695 316.339C190.204 315.399 188.206 315.061 185.965 315.399C183.406 315.801 177.517 315.473 173.51 315.178L164.873 315.072C164.873 315.072 164.492 315.009 164.63 314.977C165.338 314.85 171.724 307.383 168.964 304.996C166.205 302.609 164.291 302.767 160.496 304.024C156.722 305.281 154.449 306.01 150.653 311.227C147.111 316.107 138.368 328.792 136.962 330.852C136.55 331.084 136.137 331.295 135.693 331.464C125.142 332.288 77.0384 317.47 52.9759 329.669C47.7109 313.519 50.0157 323.332 47.7109 313.519C47.7109 313.519 46.5162 310.763 25.8369 317.005C13.7527 320.649 5.17863 348.987 11.7969 356.465C11.7969 356.465 21.6397 363.34 26.6615 365.305C30.5309 366.815 59.5836 368.621 90.8563 363.467C114.285 359.602 132.987 356.201 140.905 354.743C143.58 355.873 146.033 357.447 148.507 358.228C152.672 359.517 162.684 360.689 166.448 360.246C167.082 360.172 167.875 360.045 168.711 359.918C171.787 359.781 175.318 359.295 177.549 358.133C180.996 356.338 183.607 352.187 183.945 351.923C184.284 351.638 185.669 350.508 188.629 346.589C191.6 342.66 192.794 337.622 193.355 333.83C193.746 331.19 192.699 329.838 192.033 329.246L192.075 329.225Z" fill="url(#paint21_linear_71_1796)"/>
<path d="M63.9921 185.793C35.9227 206.801 -0.266147 327.197 -2 358.493C16.3535 373.586 61.8777 319.381 61.8777 319.381C61.8777 319.381 67.3858 304.51 80.7281 278.485C91.8289 256.833 99.885 229.731 81.5315 195.151C78.677 189.764 68.8342 182.17 63.9921 185.803V185.793Z" fill="url(#paint22_linear_71_1796)"/>
<path d="M13.9324 326.437C-5.19285 342.692 -2.0846 357.246 1.12937 359.865C2.81036 361.228 4.68165 361.883 6.29921 362.189C16.1314 367.111 34.0409 368.727 34.0409 368.727C34.0409 368.727 53.7476 335.214 64.4256 326.014L62.1843 317.628C63.6749 317.702 31.2604 311.724 13.9324 326.437Z" fill="#116C8C"/>
</g>
<defs>
<linearGradient id="paint0_linear_71_1796" x1="154.943" y1="103.679" x2="154.943" y2="225.667" gradientUnits="userSpaceOnUse">
<stop stop-color="#FFAE9E"/>
<stop offset="1" stop-color="#FCD7CB"/>
</linearGradient>
<linearGradient id="paint1_linear_71_1796" x1="204.955" y1="54.1409" x2="204.955" y2="92.2594" gradientUnits="userSpaceOnUse">
<stop stop-color="#FFAE9E"/>
<stop offset="1" stop-color="#FCD7CB"/>
</linearGradient>
<linearGradient id="paint2_linear_71_1796" x1="105.995" y1="54.1108" x2="105.995" y2="92.2162" gradientUnits="userSpaceOnUse">
<stop stop-color="#FFAE9E"/>
<stop offset="1" stop-color="#FCD7CB"/>
</linearGradient>
<linearGradient id="paint3_linear_71_1796" x1="155.494" y1="-8.16848" x2="155.494" y2="110.883" gradientUnits="userSpaceOnUse">
<stop stop-color="#FFAE9E"/>
<stop offset="1" stop-color="#FCD7CB"/>
</linearGradient>
<linearGradient id="paint4_linear_71_1796" x1="151.519" y1="411.316" x2="261.223" y2="387.855" gradientUnits="userSpaceOnUse">
<stop stop-color="#FBDCCC"/>
<stop offset="0.35" stop-color="#F8C6AA"/>
<stop offset="0.91" stop-color="#F49E6D"/>
<stop offset="1" stop-color="#F49E6D"/>
</linearGradient>
<linearGradient id="paint5_linear_71_1796" x1="98.5847" y1="541.078" x2="72.3629" y2="791.984" gradientUnits="userSpaceOnUse">
<stop stop-color="#FBDCCC"/>
<stop offset="0.35" stop-color="#F8C6AA"/>
<stop offset="0.91" stop-color="#F49E6D"/>
<stop offset="1" stop-color="#F49E6D"/>
</linearGradient>
<linearGradient id="paint6_linear_71_1796" x1="157.567" y1="645.695" x2="293.685" y2="645.695" gradientUnits="userSpaceOnUse">
<stop stop-color="#FBDCCC"/>
<stop offset="0.35" stop-color="#F8C6AA"/>
<stop offset="0.91" stop-color="#F49E6D"/>
<stop offset="1" stop-color="#F49E6D"/>
</linearGradient>
<linearGradient id="paint7_linear_71_1796" x1="324.717" y1="783.663" x2="206.882" y2="765.045" gradientUnits="userSpaceOnUse">
<stop stop-color="#C1210D"/>
<stop offset="0.52" stop-color="#C1210D"/>
<stop offset="0.87" stop-color="#931B03"/>
<stop offset="1" stop-color="#811900"/>
</linearGradient>
<linearGradient id="paint8_linear_71_1796" x1="338.226" y1="798.899" x2="212.847" y2="779.089" gradientUnits="userSpaceOnUse">
<stop stop-color="#C1210D"/>
<stop offset="0.22" stop-color="#C1210D"/>
<stop offset="0.78" stop-color="#931B03"/>
<stop offset="1" stop-color="#811900"/>
</linearGradient>
<linearGradient id="paint9_linear_71_1796" x1="153.862" y1="562.976" x2="162.265" y2="380.984" gradientUnits="userSpaceOnUse">
<stop stop-color="#C1210D"/>
<stop offset="0.52" stop-color="#C1210D"/>
<stop offset="1" stop-color="#9D1D06"/>
</linearGradient>
<linearGradient id="paint10_linear_71_1796" x1="57.9048" y1="591.639" x2="119.372" y2="588.22" gradientUnits="userSpaceOnUse">
<stop stop-color="#333333"/>
<stop offset="1" stop-color="#2E2E2E"/>
</linearGradient>
<linearGradient id="paint11_linear_71_1796" x1="194.086" y1="585.381" x2="253.125" y2="582.098" gradientUnits="userSpaceOnUse">
<stop stop-color="#333333"/>
<stop offset="1" stop-color="#2E2E2E"/>
</linearGradient>
<linearGradient id="paint12_linear_71_1796" x1="209.858" y1="251.668" x2="274.137" y2="251.668" gradientUnits="userSpaceOnUse">
<stop stop-color="#0E93B8"/>
<stop offset="0.25" stop-color="#0E93B8"/>
<stop offset="0.58" stop-color="#1485B7"/>
<stop offset="0.92" stop-color="#1E72B7"/>
<stop offset="1" stop-color="#1E72B7"/>
</linearGradient>
<linearGradient id="paint13_linear_71_1796" x1="58.2197" y1="312.875" x2="117.699" y2="312.875" gradientUnits="userSpaceOnUse">
<stop stop-color="#444147"/>
<stop offset="1" stop-color="#191921"/>
</linearGradient>
<linearGradient id="paint14_linear_71_1796" x1="63.9921" y1="292.258" x2="244.947" y2="292.258" gradientUnits="userSpaceOnUse">
<stop stop-color="#0E93B8"/>
<stop offset="0.25" stop-color="#0E93B8"/>
<stop offset="0.58" stop-color="#1485B7"/>
<stop offset="0.92" stop-color="#1E72B7"/>
<stop offset="1" stop-color="#1E72B7"/>
</linearGradient>
<radialGradient id="paint15_radial_71_1796" cx="0" cy="0" r="1" gradientUnits="userSpaceOnUse" gradientTransform="translate(32.9307 250.538) scale(73.9848 73.9131)">
<stop stop-color="#7588B5"/>
<stop offset="1" stop-color="white"/>
</radialGradient>
<radialGradient id="paint16_radial_71_1796" cx="0" cy="0" r="1" gradientUnits="userSpaceOnUse" gradientTransform="translate(103.924 156.557) scale(29.7927 29.7638)">
<stop stop-color="#7588B5"/>
<stop offset="1" stop-color="white"/>
</radialGradient>
<linearGradient id="paint17_linear_71_1796" x1="92.4844" y1="454.713" x2="91.4925" y2="389.534" gradientUnits="userSpaceOnUse">
<stop stop-color="#444147"/>
<stop offset="1" stop-color="#191921"/>
</linearGradient>
<linearGradient id="paint18_linear_71_1796" x1="94.842" y1="413.964" x2="134.858" y2="413.964" gradientUnits="userSpaceOnUse">
<stop stop-color="#444147"/>
<stop offset="1" stop-color="#191921"/>
</linearGradient>
<radialGradient id="paint19_radial_71_1796" cx="0" cy="0" r="1" gradientUnits="userSpaceOnUse" gradientTransform="translate(164.524 172.178) scale(19.2521 19.2335)">
<stop stop-color="#DBB63D"/>
<stop offset="1" stop-color="white"/>
</radialGradient>
<linearGradient id="paint20_linear_71_1796" x1="23.458" y1="778.238" x2="106.281" y2="778.238" gradientUnits="userSpaceOnUse">
<stop stop-color="#C1210D"/>
<stop offset="0.52" stop-color="#C1210D"/>
<stop offset="0.87" stop-color="#931B03"/>
<stop offset="1" stop-color="#811900"/>
</linearGradient>
<linearGradient id="paint21_linear_71_1796" x1="-0.466963" y1="335.003" x2="194.655" y2="335.003" gradientUnits="userSpaceOnUse">
<stop stop-color="#FBDCCC"/>
<stop offset="0.35" stop-color="#F8C6AA"/>
<stop offset="0.91" stop-color="#F49E6D"/>
<stop offset="1" stop-color="#F49E6D"/>
</linearGradient>
<linearGradient id="paint22_linear_71_1796" x1="-2" y1="273.003" x2="92.421" y2="273.003" gradientUnits="userSpaceOnUse">
<stop stop-color="#0E93B8"/>
<stop offset="0.25" stop-color="#0E93B8"/>
<stop offset="0.58" stop-color="#1485B7"/>
<stop offset="0.92" stop-color="#1E72B7"/>
<stop offset="1" stop-color="#1E72B7"/>
</linearGradient>
<clipPath id="clip0_71_1796">
<rect width="118" height="225.649" fill="white" transform="translate(98)"/>
</clipPath>
<clipPath id="clip1_71_1796">
<rect width="339" height="688" fill="white" transform="translate(0 135)"/>
</clipPath>
</defs>
</svg>
