<svg width="113" height="213" viewBox="0 0 113 213" fill="none" xmlns="http://www.w3.org/2000/svg">
<g clip-path="url(#clip0_2178_862)">
<path d="M86.6701 168.11C86.6701 168.11 75.9201 165.04 75.9201 159.52V131.17C73.9001 132.49 71.8501 133.66 69.8501 134.72C65.9501 136.77 62.3501 137.87 59.2601 138.44C59.2601 138.44 57.2701 138.99 53.9701 138.96C50.6801 138.99 48.6901 138.45 48.6901 138.45C45.5901 137.88 41.9901 136.78 38.0901 134.73C36.3501 133.82 34.5801 132.8 32.8101 131.69V159.53C32.8101 165.05 22.0701 168.12 22.0701 168.12C21.0801 168.3 20.3401 168.75 19.7901 169.39C17.6901 171.81 18.3701 177.08 19.7901 182.24C21.4601 188.33 24.1401 194.23 24.4201 195C25.3901 197.64 40.7301 226.92 55.6501 224.83C70.5601 222.74 84.2301 190.67 86.5901 182.31C87.3901 179.49 87.7801 177.3 87.9301 175.62C88.9401 172.66 88.7301 170.06 86.6701 168.13V168.11Z" fill="url(#paint0_linear_2178_862)"/>
<g style="mix-blend-mode:multiply" opacity="0.25">
<path d="M59.25 136.46C59.25 136.46 57.26 137.06 53.96 137.03C50.66 137.06 48.67 136.47 48.67 136.47C45.57 135.84 41.97 134.62 38.07 132.35C36.33 131.33 34.56 130.21 32.79 128.98V148.51C47.44 150.83 62.25 145.53 75.9 136.79V128.41C73.88 129.86 71.83 131.17 69.82 132.35C65.92 134.62 62.32 135.84 59.23 136.46H59.25Z" fill="#ECB699"/>
</g>
<path d="M32.8 130.39C32.8 130.39 45.4 153.38 60.39 150.08C76.05 146.64 76.63 126.6 76.63 126.6L32.79 130.38L32.8 130.39Z" fill="black"/>
<path d="M95.1899 81.5L90.0399 49.74L64.3599 40.56L38.0899 34.35L22.9799 38.73L12.7799 56.8L11.6899 73.81V97.6L16.9099 102.82L16.4899 108.61L24.8199 120.61L50.7999 130.21C50.7999 130.21 60.1799 131.48 60.5699 130.77C60.9599 130.06 75.9199 121.17 75.9199 121.17L87.9299 113.83L92.9599 105.64L95.1899 97.59L97.6599 95.05L99.6099 87.99L95.1799 81.5H95.1899Z" fill="black"/>
<mask id="mask0_2178_862" style="mask-type:luminance" maskUnits="userSpaceOnUse" x="92" y="70" width="15" height="30">
<path d="M96.9 71.0899C94.6 71.7299 93.47 73.2699 92.95 73.9699C92.99 74.1599 93.01 74.3599 93.04 74.5599C94.48 83.4899 95.04 92.1899 95.16 99.1699C97.57 100.1 101.17 99.3799 104.2 92.1799C107.98 83.1699 106.47 71.7699 100.72 70.9299C100.15 70.8499 99.62 70.8099 99.13 70.8099C98.29 70.8099 97.55 70.9199 96.91 71.0999" fill="white"/>
</mask>
<g mask="url(#mask0_2178_862)">
<path d="M107.98 70.8099H92.95V100.11H107.98V70.8099Z" fill="url(#paint1_linear_2178_862)"/>
</g>
<mask id="mask1_2178_862" style="mask-type:luminance" maskUnits="userSpaceOnUse" x="1" y="70" width="15" height="30">
<path d="M7.26001 70.89C1.51001 71.73 8.58307e-06 83.13 3.78001 92.14C6.80001 99.32 10.39 100.06 12.8 99.13C12.92 92.4 13.44 84.07 14.77 75.48C14.85 74.96 14.93 74.44 15.01 73.92C14.38 73.06 12.86 71.02 9.50001 70.79C9.28001 70.78 9.06001 70.76 8.82001 70.76C8.33001 70.76 7.81001 70.8 7.25001 70.88" fill="white"/>
</mask>
<g mask="url(#mask1_2178_862)">
<path d="M15.02 70.77H0V100.06H15.02V70.77Z" fill="url(#paint2_linear_2178_862)"/>
</g>
<path d="M92.9699 112.47C94.4099 108.92 95.2299 104.98 95.1899 100.61C95.1899 100.14 95.1799 99.6599 95.1699 99.1699C95.0499 92.1899 94.4899 83.4999 93.0499 74.5599C93.0199 74.3899 92.9999 74.2299 92.9699 74.0599V74.0499V37.6599H15.0399V73.8299V73.8099C15.0399 73.8499 15.0299 73.8899 15.0199 73.9299C14.9399 74.4499 14.8599 74.9699 14.7799 75.4899C13.4499 84.0799 12.9299 92.4099 12.8099 99.1399C12.7899 99.6399 12.7899 100.13 12.7899 100.61C12.7499 105.02 13.5899 108.99 15.0499 112.57C15.0499 112.57 19.3899 126.17 38.1099 134.96C42.0999 136.83 45.6099 138.12 48.6999 138.67C48.6999 138.67 50.6899 139.22 53.9899 139.18C57.2799 139.21 59.2699 138.68 59.2699 138.68C62.3699 138.11 65.9699 137.01 69.8699 134.96C86.9299 127.3 92.9699 112.47 92.9699 112.47Z" fill="url(#paint3_linear_2178_862)"/>
<path d="M73.6399 18.7799C57.1199 22.7699 66.7399 12.7599 42.0199 13.6899C22.1199 14.4399 17.4299 25.9499 16.3499 30.4199C8.35994 36.5499 7.14994 48.2399 7.67994 57.6699C8.00994 63.5599 9.02994 68.5699 9.49994 70.7999C12.8599 71.0399 14.3799 73.0699 14.9999 73.9299C15.3399 71.9299 15.7099 69.9299 16.1299 67.9399C16.1299 67.9399 16.8099 64.0799 17.4799 62.3199C18.1099 59.9499 18.8299 57.6299 19.6299 55.3499C26.7699 25.3899 80.9899 17.9099 88.7699 56.7099C89.3799 58.5499 89.9499 60.4199 90.4599 62.3199C91.1199 64.0799 91.7999 67.9399 91.7999 67.9399C92.2299 69.9599 92.5999 71.9799 92.9399 73.9899C93.4599 73.2799 94.5899 71.7399 96.8899 71.0999C97.3699 68.8799 98.5999 63.0399 98.8499 56.2799C98.8499 56.0499 98.8699 55.8099 98.8799 55.5799C107.4 31.7299 80.4999 17.1299 73.6299 18.7899L73.6399 18.7799Z" fill="black"/>
<path d="M41.77 112.13C41.77 112.13 45.18 117.8 52.76 117.8C52.76 117.8 61.22 118.23 65.2 112.47L65.35 112.23C52.17 117.49 41.78 112.13 41.78 112.13" fill="white"/>
<path d="M56.7499 98.8899C56.3599 98.8899 56.0099 98.6299 55.8999 98.2399C55.7699 97.7699 56.0499 97.2899 56.5199 97.1699C57.5999 96.8799 60.1199 95.7099 60.5699 94.1099C60.8799 93.0099 59.3199 89.3999 57.9499 86.2199C57.0999 84.2399 56.2199 82.1999 55.5199 80.2499C53.4099 74.3399 56.3899 69.1399 56.5199 68.9199C56.7699 68.4999 57.2999 68.3599 57.7199 68.6099C58.1399 68.8499 58.2799 69.3899 58.0399 69.8099C58.0099 69.8599 55.3499 74.5399 57.1799 79.6699C57.8599 81.5699 58.7199 83.5799 59.5599 85.5299C61.5299 90.0899 62.7099 92.9699 62.2499 94.5899C61.5399 97.1199 58.1999 98.5299 56.9699 98.8599C56.8899 98.8799 56.8199 98.8899 56.7399 98.8899" fill="#DFAC97"/>
<path d="M76.8799 79.2599C76.8799 81.0499 75.4299 82.5099 73.6299 82.5099C71.8299 82.5099 70.3899 81.0499 70.3899 79.2599C70.3899 77.4699 71.8499 76.0199 73.6299 76.0199C75.4099 76.0199 76.8799 77.4799 76.8799 79.2599Z" fill="#231F20"/>
<path d="M39.02 79.46C39.02 81.25 37.58 82.71 35.77 82.71C33.96 82.71 32.53 81.25 32.53 79.46C32.53 77.67 33.99 76.22 35.77 76.22C37.55 76.22 39.02 77.68 39.02 79.46Z" fill="#231F20"/>
<path d="M12.2002 35.39C12.2002 35.39 78.1702 69.24 103.73 42.42C103.73 42.42 124.68 21.33 101.62 5.01995C78.5702 -11.29 25.7002 17.39 25.7002 17.39C25.7002 17.39 13.8902 20.2 12.2002 35.39Z" fill="black"/>
<path d="M12.2001 35.3899C12.2001 35.3899 -0.109873 13.5699 34.9301 2.81995C34.9301 2.81995 43.4401 11.5599 31.2501 23.0599C19.0601 34.5599 12.2001 35.3899 12.2001 35.3899Z" fill="black"/>
<path d="M78.41 112.86C78.41 112.86 77.19 107.57 71.74 104.79C65.55 101.63 57.94 102.16 55.08 102.51C52.23 102.16 44.61 101.63 38.42 104.79C32.97 107.58 31.75 112.86 31.75 112.86L55.08 107.81L78.41 112.86Z" fill="black"/>
</g>
<defs>
<linearGradient id="paint0_linear_2178_862" x1="53.4882" y1="110.577" x2="53.4882" y2="224.937" gradientUnits="userSpaceOnUse">
<stop stop-color="#FFAE9E"/>
<stop offset="1" stop-color="#FCD7CB"/>
</linearGradient>
<linearGradient id="paint1_linear_2178_862" x1="100.465" y1="64.375" x2="100.465" y2="100.11" gradientUnits="userSpaceOnUse">
<stop stop-color="#FFAE9E"/>
<stop offset="1" stop-color="#FCD7CB"/>
</linearGradient>
<linearGradient id="paint2_linear_2178_862" x1="7.51" y1="64.3372" x2="7.51" y2="100.06" gradientUnits="userSpaceOnUse">
<stop stop-color="#FFAE9E"/>
<stop offset="1" stop-color="#FCD7CB"/>
</linearGradient>
<linearGradient id="paint3_linear_2178_862" x1="53.99" y1="15.3632" x2="53.99" y2="139.182" gradientUnits="userSpaceOnUse">
<stop stop-color="#FFAE9E"/>
<stop offset="1" stop-color="#FCD7CB"/>
</linearGradient>
<clipPath id="clip0_2178_862">
<rect width="112.45" height="224.92" fill="white"/>
</clipPath>
</defs>
</svg>
