<svg width="108" height="240" viewBox="0 0 108 240" fill="none" xmlns="http://www.w3.org/2000/svg">
<g clip-path="url(#clip0_2178_418)">
<path d="M95.1899 95.7301L90.0399 63.9701L64.3599 54.7901L38.0899 48.5801L22.9799 52.9601L12.7799 71.0301L11.6899 88.0401V111.83L16.9099 117.05L16.4899 122.84L24.8199 134.84L50.7999 144.44C50.7999 144.44 60.1799 145.71 60.5699 145C60.9599 144.29 75.9199 135.4 75.9199 135.4L87.9299 128.06L92.9599 119.87L95.1899 111.82L97.6599 109.28L99.6099 102.22L95.1799 95.7301H95.1899Z" fill="black"/>
<path d="M86.6701 182.58C86.6701 182.58 75.9201 179.51 75.9201 173.99V145.64C73.9001 146.96 71.8501 148.13 69.8501 149.19C65.9501 151.24 62.3501 152.34 59.2601 152.91C59.2601 152.91 57.2701 153.46 53.9701 153.43C50.6801 153.46 48.6901 152.92 48.6901 152.92C45.5901 152.35 41.9901 151.25 38.0901 149.2C36.3501 148.29 34.5801 147.27 32.8101 146.16V174C32.8101 179.52 22.0701 182.59 22.0701 182.59C21.0801 182.77 20.3401 183.22 19.7901 183.86C17.6901 186.28 18.3701 191.55 19.7901 196.71C21.4601 202.8 24.1401 208.7 24.4201 209.47C25.3901 212.11 40.7301 241.39 55.6501 239.3C70.5601 237.21 84.2301 205.14 86.5901 196.78C87.3901 193.96 87.7801 191.77 87.9301 190.09C88.9401 187.13 88.7301 184.53 86.6701 182.6V182.58Z" fill="url(#paint0_linear_2178_418)"/>
<g style="mix-blend-mode:multiply" opacity="0.25">
<path d="M59.25 150.69C59.25 150.69 57.26 151.29 53.96 151.26C50.66 151.29 48.67 150.7 48.67 150.7C45.57 150.07 41.97 148.85 38.07 146.58C36.33 145.56 34.56 144.44 32.79 143.21V162.74C47.44 165.06 62.25 159.76 75.9 151.02V142.64C73.88 144.09 71.83 145.4 69.82 146.58C65.92 148.85 62.32 150.07 59.23 150.69H59.25Z" fill="#ECB699"/>
</g>
<mask id="mask0_2178_418" style="mask-type:luminance" maskUnits="userSpaceOnUse" x="92" y="85" width="15" height="29">
<path d="M96.9 85.33C94.6 85.97 93.47 87.51 92.95 88.21C92.99 88.4 93.01 88.6 93.04 88.8C94.48 97.73 95.04 106.43 95.16 113.41C97.57 114.34 101.17 113.62 104.2 106.42C107.98 97.41 106.47 86.01 100.72 85.17C100.15 85.09 99.62 85.05 99.13 85.05C98.29 85.05 97.55 85.16 96.91 85.34" fill="white"/>
</mask>
<g mask="url(#mask0_2178_418)">
<path d="M107.98 85.04H92.95V114.34H107.98V85.04Z" fill="url(#paint1_linear_2178_418)"/>
</g>
<mask id="mask1_2178_418" style="mask-type:luminance" maskUnits="userSpaceOnUse" x="1" y="84" width="15" height="30">
<path d="M7.26001 85.1202C1.51001 85.9602 8.58307e-06 97.3602 3.78001 106.37C6.80001 113.55 10.39 114.29 12.8 113.36C12.92 106.63 13.44 98.3002 14.77 89.7102C14.85 89.1902 14.93 88.6702 15.01 88.1502C14.38 87.2902 12.86 85.2502 9.50001 85.0202C9.28001 85.0102 9.06001 84.9902 8.82001 84.9902C8.33001 84.9902 7.81001 85.0302 7.25001 85.1102" fill="white"/>
</mask>
<g mask="url(#mask1_2178_418)">
<path d="M15.02 85.0002H0V114.29H15.02V85.0002Z" fill="url(#paint2_linear_2178_418)"/>
</g>
<mask id="mask2_2178_418" style="mask-type:luminance" maskUnits="userSpaceOnUse" x="15" y="40" width="78" height="91">
<path d="M47.7 40.8703C46.81 41.0203 45.92 41.2003 45.02 41.4403C30.03 45.3503 21.86 60.1903 17.5 76.5403C16.84 78.3003 16.15 82.1703 16.15 82.1703C15.73 84.1303 15.37 86.1003 15.04 88.0403C16.33 100.38 18.42 118.94 19.58 122.09C19.88 122.92 20.61 123.79 21.6 124.67C24.82 126.81 29.3 129.55 32.18 130.33C37.1 131.65 38.11 127.93 38.99 124.61C39.87 121.28 42.14 117.57 47.82 117.03C48.29 116.99 48.74 116.96 49.18 116.93C49.28 116.92 49.36 116.91 49.45 116.9C52.62 116.66 60.19 116.36 63.56 117.99C66.82 119.38 68.33 122.18 69.02 124.74C69.9 128.07 70.91 131.79 75.82 130.46C78.71 129.67 83.19 126.93 86.41 124.8C87.41 123.92 88.13 123.05 88.43 122.22C89.59 119.08 91.67 100.64 92.96 88.3103V88.2803C92.96 88.2803 92.96 88.2303 92.95 88.2003C92.62 86.1903 92.25 84.1703 91.81 82.1503C91.81 82.1503 91.13 78.2903 90.47 76.5203C86.7 62.4303 80.11 49.4903 68.77 43.6703C68.68 43.6203 68.6 43.5703 68.51 43.5203C68.34 43.4403 68.17 43.3503 67.99 43.2703C64.24 41.4203 60.63 40.7703 58.56 40.5503C57.04 40.3503 55.56 40.2703 54.17 40.2703C51.67 40.2703 49.44 40.5403 47.69 40.8503" fill="white"/>
</mask>
<g mask="url(#mask2_2178_418)">
<path d="M92.97 40.2903H15.04V131.8H92.97V40.2903Z" fill="url(#paint3_linear_2178_418)"/>
</g>
<path d="M14.7699 89.72C13.4399 98.31 12.9199 106.64 12.7999 113.37C12.7799 113.87 12.7799 114.36 12.7799 114.84C12.6099 132.27 26.1799 142.9 38.0999 149.19C41.9999 151.25 45.5999 152.35 48.6899 152.9C48.6899 152.9 50.6799 153.45 53.9799 153.41C57.2699 153.44 59.2599 152.91 59.2599 152.91C62.3599 152.34 65.9599 151.24 69.8599 149.19C81.7699 142.91 95.3499 132.28 95.1799 114.84C95.1799 114.37 95.1699 113.89 95.1599 113.4C95.0399 106.42 94.4799 97.73 93.0399 88.79C93.0099 88.62 92.9899 88.46 92.9599 88.29C91.6699 100.62 89.5899 119.08 88.4299 122.22C88.1199 123.05 87.3999 123.92 86.3999 124.8C83.1799 126.94 78.6999 129.68 75.8099 130.46C70.8999 131.79 69.8799 128.07 69.0099 124.75C68.3299 122.18 66.8099 119.39 63.5499 118C60.1699 116.37 52.6099 116.67 49.4299 116.91C49.3399 116.91 49.2599 116.92 49.1599 116.93C48.7199 116.96 48.2699 116.99 47.7999 117.03C42.1299 117.57 39.8599 121.29 38.9699 124.61C38.0899 127.93 37.0799 131.66 32.1599 130.33C29.2799 129.55 24.7999 126.81 21.5799 124.67C20.5799 123.79 19.8599 122.92 19.5599 122.09C18.3999 118.94 16.3099 100.38 15.0199 88.04C15.0199 88.08 15.0099 88.12 14.9999 88.16C14.9199 88.68 14.8399 89.2 14.7599 89.72" fill="black"/>
<path d="M42.0199 27.9202C22.1199 28.6702 17.4299 40.1802 16.3499 44.6502C8.35994 50.7802 7.14994 62.4702 7.67994 71.9002C8.00994 77.7902 9.02994 82.8002 9.49994 85.0302C12.8599 85.2702 14.3799 87.3002 14.9999 88.1602C15.3399 86.1602 15.7099 84.1602 16.1299 82.1702C16.1299 82.1702 16.8099 78.3102 17.4799 76.5502C18.1099 74.1802 18.8299 71.8602 19.6299 69.5802C34.1199 62.9102 34.8399 54.6502 34.8399 54.6502C57.2999 69.6202 78.2499 71.2202 88.7699 70.9502C89.3799 72.7902 89.9499 74.6602 90.4599 76.5602C91.1199 78.3202 91.7999 82.1802 91.7999 82.1802C92.2299 84.2002 92.5999 86.2202 92.9399 88.2302C93.4599 87.5202 94.5899 85.9802 96.8899 85.3402C99.5999 77.6402 100.46 69.2202 100.46 68.9802C105.68 22.5802 66.7199 27.0002 41.9999 27.9302L42.0199 27.9202Z" fill="black"/>
<path d="M41.77 126.36C41.77 126.36 45.18 132.03 52.76 132.03C52.76 132.03 61.22 132.46 65.2 126.7L65.35 126.46C52.17 131.72 41.78 126.36 41.78 126.36" fill="white"/>
<path d="M58.7499 113.13C58.3599 113.13 58.0099 112.87 57.8999 112.48C57.7699 112.01 58.0499 111.53 58.5199 111.41C59.5999 111.12 62.1199 109.95 62.5699 108.35C62.8799 107.25 61.3199 103.64 59.9499 100.46C59.0999 98.4802 58.2199 96.4402 57.5199 94.4902C55.4099 88.5802 58.3899 83.3802 58.5199 83.1602C58.7699 82.7402 59.2999 82.6002 59.7199 82.8502C60.1399 83.0902 60.2799 83.6302 60.0399 84.0502C60.0099 84.1002 57.3499 88.7802 59.1799 93.9102C59.8599 95.8102 60.7199 97.8202 61.5599 99.7702C63.5299 104.33 64.7099 107.21 64.2499 108.83C63.5399 111.36 60.1999 112.77 58.9699 113.1C58.8899 113.12 58.8199 113.13 58.7399 113.13" fill="#DE9279"/>
<path d="M76.8799 93.4902C76.8799 95.2802 75.4299 96.7402 73.6299 96.7402C71.8299 96.7402 70.3899 95.2802 70.3899 93.4902C70.3899 91.7002 71.8499 90.2502 73.6299 90.2502C75.4099 90.2502 76.8799 91.7102 76.8799 93.4902Z" fill="#231F20"/>
<path d="M39.02 93.6902C39.02 95.4802 37.58 96.9402 35.77 96.9402C33.96 96.9402 32.53 95.4802 32.53 93.6902C32.53 91.9002 33.99 90.4502 35.77 90.4502C37.55 90.4502 39.02 91.9102 39.02 93.6902Z" fill="#231F20"/>
<path d="M39.5199 106.67H30.2599C24.5499 106.67 19.8999 102.02 19.8999 96.3101V85.9001C19.8999 85.1801 20.4799 84.6001 21.1999 84.6001H48.5799C49.2999 84.6001 49.8799 85.1801 49.8799 85.9001V96.3101C49.8799 102.02 45.2299 106.67 39.5199 106.67ZM22.4999 87.2001V96.3101C22.4999 100.59 25.9799 104.07 30.2599 104.07H39.5199C43.7999 104.07 47.2799 100.59 47.2799 96.3101V87.2001H22.4999Z" fill="black"/>
<path d="M20.78 93.8402H9.07002C8.35002 93.8402 7.77002 93.2602 7.77002 92.5402C7.77002 91.8202 8.35002 91.2402 9.07002 91.2402H20.78C21.5 91.2402 22.08 91.8202 22.08 92.5402C22.08 93.2602 21.5 93.8402 20.78 93.8402Z" fill="black"/>
<path d="M81.0499 105.95H71.7899C66.0799 105.95 61.4299 101.3 61.4299 95.5901V85.1801C61.4299 84.4601 62.0099 83.8801 62.7299 83.8801H90.1099C90.8299 83.8801 91.4099 84.4601 91.4099 85.1801V95.5901C91.4099 101.3 86.7599 105.95 81.0499 105.95ZM64.0299 86.4801V95.5901C64.0299 99.8701 67.5099 103.35 71.7899 103.35H81.0499C85.3299 103.35 88.8099 99.8701 88.8099 95.5901V86.4801H64.0299Z" fill="black"/>
<path d="M102.23 93.12H90.52C89.8 93.12 89.22 92.54 89.22 91.82C89.22 91.1 89.8 90.52 90.52 90.52H102.23C102.95 90.52 103.53 91.1 103.53 91.82C103.53 92.54 102.95 93.12 102.23 93.12Z" fill="black"/>
<path d="M62.73 94.7301H48.58C47.86 94.7301 47.28 94.1501 47.28 93.4301C47.28 92.7101 47.86 92.1301 48.58 92.1301H62.73C63.45 92.1301 64.03 92.7101 64.03 93.4301C64.03 94.1501 63.45 94.7301 62.73 94.7301Z" fill="black"/>
<path d="M63.5454 42.2807C74.8527 38.1451 80.6664 25.6262 76.5308 14.3189C72.3952 3.01169 59.8763 -2.80205 48.569 1.33357C37.2618 5.46919 31.448 17.9881 35.5837 29.2953C39.7193 40.6026 52.2382 46.4163 63.5454 42.2807Z" fill="black"/>
<path d="M55.89 26.8501C65.75 26.8501 74.07 33.4001 76.76 42.3801C76.81 41.8001 76.85 41.2301 76.85 40.6401C76.85 28.6001 67.09 18.8401 55.05 18.8401C43.01 18.8401 33.25 28.6001 33.25 40.6401C33.25 42.8201 33.58 44.9201 34.17 46.9001C35.06 35.6801 44.43 26.8401 55.88 26.8401L55.89 26.8501Z" fill="url(#paint4_linear_2178_418)"/>
<path d="M16.35 44.65C16.35 44.65 14.49 46.19 48.1 51.23C81.71 56.27 96.96 68.97 96.96 68.97C96.96 68.97 107.86 28.5 62.08 26.24C29.91 24.65 23.68 30.33 16.36 44.64L16.35 44.65Z" fill="black"/>
</g>
<defs>
<linearGradient id="paint0_linear_2178_418" x1="53.4882" y1="125.047" x2="53.4882" y2="239.407" gradientUnits="userSpaceOnUse">
<stop stop-color="#FFAE9E"/>
<stop offset="1" stop-color="#FCD7CB"/>
</linearGradient>
<linearGradient id="paint1_linear_2178_418" x1="100.465" y1="78.6051" x2="100.465" y2="114.34" gradientUnits="userSpaceOnUse">
<stop stop-color="#FFAE9E"/>
<stop offset="1" stop-color="#FCD7CB"/>
</linearGradient>
<linearGradient id="paint2_linear_2178_418" x1="7.51" y1="78.5675" x2="7.51" y2="114.29" gradientUnits="userSpaceOnUse">
<stop stop-color="#FFAE9E"/>
<stop offset="1" stop-color="#FCD7CB"/>
</linearGradient>
<linearGradient id="paint3_linear_2178_418" x1="54.005" y1="20.1925" x2="54.005" y2="131.8" gradientUnits="userSpaceOnUse">
<stop stop-color="#FFAE9E"/>
<stop offset="1" stop-color="#FCD7CB"/>
</linearGradient>
<linearGradient id="paint4_linear_2178_418" x1="33.26" y1="32.8801" x2="76.85" y2="32.8801" gradientUnits="userSpaceOnUse">
<stop stop-color="#C1210D"/>
<stop offset="0.52" stop-color="#C1210D"/>
<stop offset="1" stop-color="#9D1D06"/>
</linearGradient>
<clipPath id="clip0_2178_418">
<rect width="107.98" height="239.39" fill="white"/>
</clipPath>
</defs>
</svg>
