<svg width="111" height="212" viewBox="0 0 111 212" fill="none" xmlns="http://www.w3.org/2000/svg">
<g clip-path="url(#clip0_2178_250)">
<path d="M95.1899 67.89L90.0399 36.13L64.3599 26.95L38.0899 20.74L22.9799 25.12L12.7799 43.19L11.6899 60.2V83.99L16.9099 89.21L16.4899 95L24.8199 107L50.7999 116.6C50.7999 116.6 60.1799 117.87 60.5699 117.16C60.9599 116.45 75.9199 107.56 75.9199 107.56L87.9299 100.22L92.9599 92.03L95.1899 83.98L97.6599 81.44L99.6099 74.38L95.1799 67.89H95.1899Z" fill="black"/>
<path d="M86.6701 154.49C86.6701 154.49 75.9201 151.42 75.9201 145.9V117.55C73.9001 118.87 71.8501 120.04 69.8501 121.1C65.9501 123.15 62.3501 124.25 59.2601 124.82C59.2601 124.82 57.2701 125.37 53.9701 125.34C50.6801 125.37 48.6901 124.83 48.6901 124.83C45.5901 124.26 41.9901 123.16 38.0901 121.11C36.3501 120.2 34.5801 119.18 32.8101 118.07V145.91C32.8101 151.43 22.0701 154.5 22.0701 154.5C21.0801 154.68 20.3401 155.13 19.7901 155.77C17.6901 158.19 18.3701 163.46 19.7901 168.62C21.4601 174.71 24.1401 180.61 24.4201 181.38C25.3901 184.02 40.7301 213.3 55.6501 211.21C70.5601 209.12 84.2301 177.05 86.5901 168.69C87.3901 165.87 87.7801 163.68 87.9301 162C88.9401 159.04 88.7301 156.44 86.6701 154.51V154.49Z" fill="url(#paint0_linear_2178_250)"/>
<g style="mix-blend-mode:multiply" opacity="0.25">
<path d="M59.25 122.85C59.25 122.85 57.26 123.45 53.96 123.42C50.66 123.45 48.67 122.86 48.67 122.86C45.57 122.23 41.97 121.01 38.07 118.74C36.33 117.72 34.56 116.6 32.79 115.37V134.9C47.44 137.22 62.25 131.92 75.9 123.18V114.8C73.88 116.25 71.83 117.56 69.82 118.74C65.92 121.01 62.32 122.23 59.23 122.85H59.25Z" fill="#ECB699"/>
</g>
<mask id="mask0_2178_250" style="mask-type:luminance" maskUnits="userSpaceOnUse" x="92" y="57" width="15" height="29">
<path d="M96.9 57.4799C94.6 58.1199 93.47 59.66 92.95 60.36C92.99 60.55 93.01 60.75 93.04 60.95C94.48 69.88 95.04 78.5799 95.16 85.5599C97.57 86.4899 101.17 85.77 104.2 78.57C107.98 69.5599 106.47 58.16 100.72 57.32C100.15 57.24 99.62 57.2 99.13 57.2C98.29 57.2 97.55 57.31 96.91 57.49" fill="white"/>
</mask>
<g mask="url(#mask0_2178_250)">
<path d="M107.98 57.1899H92.95V86.4899H107.98V57.1899Z" fill="url(#paint1_linear_2178_250)"/>
</g>
<mask id="mask1_2178_250" style="mask-type:luminance" maskUnits="userSpaceOnUse" x="1" y="57" width="15" height="29">
<path d="M7.26001 57.2799C1.51001 58.1199 8.58307e-06 69.5199 3.78001 78.5299C6.80001 85.7099 10.39 86.4499 12.8 85.5199C12.92 78.7899 13.44 70.4599 14.77 61.8699C14.85 61.3499 14.93 60.8299 15.01 60.3099C14.38 59.4499 12.86 57.4099 9.50001 57.1799C9.28001 57.1699 9.06001 57.1499 8.82001 57.1499C8.33001 57.1499 7.81001 57.1899 7.25001 57.2699" fill="white"/>
</mask>
<g mask="url(#mask1_2178_250)">
<path d="M15.02 57.1599H0V86.4499H15.02V57.1599Z" fill="url(#paint2_linear_2178_250)"/>
</g>
<path d="M92.9699 98.8499C94.4099 95.2999 95.2299 91.3599 95.1899 86.9899C95.1899 86.5199 95.1799 86.0399 95.1699 85.5499C95.0499 78.5699 94.4899 69.8799 93.0499 60.9399C93.0199 60.7699 92.9999 60.6099 92.9699 60.4399V60.4299V23.1299H15.0399V60.2099V60.1899C15.0399 60.2299 15.0299 60.2699 15.0199 60.3099C14.9399 60.8299 14.8599 61.3499 14.7799 61.8699C13.4499 70.4599 12.9299 78.7899 12.8099 85.5199C12.7899 86.0199 12.7899 86.5099 12.7899 86.9899C12.7499 91.3999 13.5899 95.3699 15.0499 98.9499C15.0499 98.9499 19.3899 112.55 38.1099 121.34C42.0999 123.21 45.6099 124.5 48.6999 125.05C48.6999 125.05 50.6899 125.6 53.9899 125.56C57.2799 125.59 59.2699 125.06 59.2699 125.06C62.3699 124.49 65.9699 123.39 69.8699 121.34C86.9299 113.68 92.9699 98.8499 92.9699 98.8499Z" fill="url(#paint3_linear_2178_250)"/>
<path d="M108.68 0.769962C107.43 1.17996 104.36 2.00996 97.4899 3.65996C80.9799 7.63996 66.7299 -0.860038 42.0199 0.0699622C22.1199 0.819962 17.4299 12.33 16.3499 16.8C8.35994 22.93 7.14994 34.62 7.67994 44.05C8.00994 49.94 9.02994 54.95 9.49994 57.18C12.8599 57.42 14.3799 59.45 14.9999 60.31C15.3399 58.31 15.7099 56.31 16.1299 54.32C16.1299 54.32 16.8099 50.46 17.4799 48.7C18.1099 46.33 18.8299 44.01 19.6299 41.73C34.1199 35.06 34.8399 26.8 34.8399 26.8C57.2999 41.77 78.2499 43.37 88.7699 43.1C89.3799 44.94 89.9499 46.81 90.4599 48.71C91.1199 50.47 91.7999 54.33 91.7999 54.33C92.2299 56.35 92.5999 58.37 92.9399 60.38C93.4599 59.67 94.5899 58.13 96.8899 57.49C97.3699 55.27 98.5999 49.43 98.8499 42.67C98.8499 42.44 98.8699 42.2 98.8799 41.97C116.73 29.66 109.57 3.74996 108.68 0.769962Z" fill="black"/>
<path d="M41.77 98.51C41.77 98.51 45.18 104.18 52.76 104.18C52.76 104.18 61.22 104.61 65.2 98.85L65.35 98.61C52.17 103.87 41.78 98.51 41.78 98.51" fill="white"/>
<path d="M56.7499 85.2801C56.3599 85.2801 56.0099 85.0201 55.8999 84.6301C55.7699 84.1601 56.0499 83.6801 56.5199 83.5601C57.5999 83.2701 60.1199 82.1001 60.5699 80.5001C60.8799 79.4001 59.3199 75.7901 57.9499 72.6101C57.0999 70.6301 56.2199 68.5901 55.5199 66.6401C53.4099 60.7301 56.3899 55.5301 56.5199 55.3101C56.7699 54.8901 57.2999 54.7501 57.7199 55.0001C58.1399 55.2401 58.2799 55.7801 58.0399 56.2001C58.0099 56.2501 55.3499 60.9301 57.1799 66.0601C57.8599 67.9601 58.7199 69.9701 59.5599 71.9201C61.5299 76.4801 62.7099 79.3601 62.2499 80.9801C61.5399 83.5101 58.1999 84.9201 56.9699 85.2501C56.8899 85.2701 56.8199 85.2801 56.7399 85.2801" fill="#DFAC97"/>
<path d="M76.8799 65.6399C76.8799 67.4299 75.4299 68.8899 73.6299 68.8899C71.8299 68.8899 70.3899 67.4299 70.3899 65.6399C70.3899 63.8499 71.8499 62.3999 73.6299 62.3999C75.4099 62.3999 76.8799 63.8599 76.8799 65.6399Z" fill="#231F20"/>
<path d="M39.02 65.8399C39.02 67.6299 37.58 69.0899 35.77 69.0899C33.96 69.0899 32.53 67.6299 32.53 65.8399C32.53 64.0499 33.99 62.5999 35.77 62.5999C37.55 62.5999 39.02 64.0599 39.02 65.8399Z" fill="#231F20"/>
<path d="M62.7701 70.78C62.7701 70.78 58.6401 65.1499 55.1501 70.8399L55.3401 73.53C55.3401 73.53 58.7901 66.24 63.4001 72.47C63.4001 70.84 62.7701 70.7699 62.7701 70.7699V70.78Z" fill="#171717"/>
<path d="M18.64 83.7599L18.26 83.3999V82.9399C18.25 82.8299 18.22 82.5399 18.17 82.0999C16.8 70.1499 16.45 61.8299 17.13 57.3799L17.24 56.6299L17.98 56.4399C32.2 52.7599 54.63 51.7299 54.85 51.7199L55.96 51.6699L56.05 52.7799C56.12 53.6799 57.82 74.8599 54.86 85.3899L54.64 86.1699L53.83 86.2299C51.32 86.4099 48.68 86.4899 46.03 86.4899C32.98 86.4899 19.51 84.5899 18.63 83.7799L18.64 83.7599ZM53.84 54.0699C49.24 54.3199 31.49 55.4599 19.31 58.4699C18.95 61.7099 18.91 68.3299 20.46 81.8299C20.46 81.8999 20.48 81.9699 20.48 82.0299C23.84 82.7699 39.64 85.5899 53.18 84.7299C55.39 75.7299 54.13 58.4899 53.83 54.0699H53.84Z" fill="#171717"/>
<path d="M73.09 86.4799C70.44 86.4799 67.8 86.3999 65.29 86.2199L64.48 86.1599L64.26 85.3799C61.31 74.8599 63 53.6699 63.07 52.7699L63.16 51.6599L64.27 51.7099C64.49 51.7199 86.92 52.7499 101.14 56.4299L101.88 56.6199L101.99 57.3699C102.67 61.8199 102.32 70.1299 100.95 82.0899C100.9 82.5299 100.87 82.8199 100.86 82.9299V83.3899L100.48 83.7499C99.6 84.5699 86.13 86.4599 73.08 86.4599L73.09 86.4799ZM65.95 84.7299C79.49 85.5899 95.29 82.7799 98.65 82.0299C98.65 81.9699 98.66 81.8999 98.67 81.8299C100.21 68.3299 100.18 61.7099 99.82 58.4699C87.65 55.4599 69.89 54.3199 65.29 54.0699C64.99 58.4899 63.73 75.7299 65.94 84.7299H65.95Z" fill="#171717"/>
</g>
<defs>
<linearGradient id="paint0_linear_2178_250" x1="53.4882" y1="96.9566" x2="53.4882" y2="211.317" gradientUnits="userSpaceOnUse">
<stop stop-color="#FFAE9E"/>
<stop offset="1" stop-color="#FCD7CB"/>
</linearGradient>
<linearGradient id="paint1_linear_2178_250" x1="100.465" y1="50.755" x2="100.465" y2="86.4899" gradientUnits="userSpaceOnUse">
<stop stop-color="#FFAE9E"/>
<stop offset="1" stop-color="#FCD7CB"/>
</linearGradient>
<linearGradient id="paint2_linear_2178_250" x1="7.51" y1="50.7271" x2="7.51" y2="86.4499" gradientUnits="userSpaceOnUse">
<stop stop-color="#FFAE9E"/>
<stop offset="1" stop-color="#FCD7CB"/>
</linearGradient>
<linearGradient id="paint3_linear_2178_250" x1="53.99" y1="0.633341" x2="53.99" y2="125.562" gradientUnits="userSpaceOnUse">
<stop stop-color="#FFAE9E"/>
<stop offset="1" stop-color="#FCD7CB"/>
</linearGradient>
<clipPath id="clip0_2178_250">
<rect width="110.84" height="211.3" fill="white"/>
</clipPath>
</defs>
</svg>
