<svg width="311" height="801" viewBox="0 0 311 801" fill="none" xmlns="http://www.w3.org/2000/svg">
<g clip-path="url(#clip0_71_479)">
<path d="M168.339 72.4181L162.856 38.5398L135.517 28.7475L107.55 22.1233L91.4644 26.7955L80.6055 46.0707L79.4451 64.2152V89.5919L85.0023 95.1601L84.5551 101.336L93.4232 114.137L121.081 124.377C121.081 124.377 131.067 125.732 131.483 124.974C131.898 124.217 147.824 114.734 147.824 114.734L160.61 106.904L165.965 98.1682L168.339 89.5813L170.969 86.8718L173.045 79.341L168.328 72.4181H168.339Z" fill="black"/>
<path d="M159.269 165.05C159.269 165.05 147.824 161.775 147.824 155.887V125.646C145.674 127.054 143.491 128.302 141.362 129.433C137.21 131.62 133.378 132.793 130.088 133.401C130.088 133.401 127.969 133.988 124.456 133.956C120.954 133.988 118.835 133.412 118.835 133.412C115.535 132.804 111.702 131.63 107.55 129.444C105.698 128.473 103.814 127.385 101.929 126.201V155.898C101.929 161.786 90.4956 165.061 90.4956 165.061C89.4416 165.253 88.6538 165.733 88.0683 166.415C85.8326 168.997 86.5566 174.618 88.0683 180.122C89.8462 186.619 92.6993 192.912 92.9974 193.734C94.03 196.55 110.361 227.782 126.245 225.553C142.118 223.324 156.671 189.115 159.183 180.197C160.035 177.189 160.45 174.853 160.61 173.061C161.685 169.904 161.462 167.13 159.269 165.071V165.05Z" fill="url(#paint0_linear_71_479)"/>
<g style="mix-blend-mode:multiply" opacity="0.25">
<path d="M130.077 131.044C130.077 131.044 127.959 131.684 124.446 131.652C120.932 131.684 118.814 131.054 118.814 131.054C115.514 130.382 111.681 129.081 107.529 126.66C105.677 125.572 103.792 124.377 101.908 123.065V143.897C117.504 146.372 133.271 140.719 147.803 131.396V122.457C145.652 124.004 143.47 125.401 141.33 126.66C137.178 129.081 133.346 130.382 130.056 131.044H130.077Z" fill="#ECB699"/>
</g>
<mask id="mask0_71_479" style="mask-type:luminance" maskUnits="userSpaceOnUse" x="165" y="61" width="16" height="31">
<path d="M170.16 61.3137C167.711 61.9964 166.508 63.6392 165.954 64.3858C165.997 64.5885 166.018 64.8019 166.05 65.0152C167.583 74.5408 168.179 83.8211 168.307 91.2666C170.873 92.2586 174.705 91.4906 177.931 83.8104C181.955 74.1995 180.348 62.0391 174.226 61.1431C173.619 61.0577 173.055 61.0151 172.534 61.0151C171.639 61.0151 170.852 61.1324 170.17 61.3244" fill="white"/>
</mask>
<g mask="url(#mask0_71_479)">
<path d="M181.955 61.0049H165.954V92.2592H181.955V61.0049Z" fill="url(#paint1_linear_71_479)"/>
</g>
<mask id="mask1_71_479" style="mask-type:luminance" maskUnits="userSpaceOnUse" x="68" y="60" width="15" height="32">
<path d="M74.7289 61.1004C68.6075 61.9964 66.9999 74.1568 71.0241 83.7677C74.2392 91.4266 78.0611 92.216 80.6268 91.2239C80.7545 84.0451 81.3081 75.1595 82.7241 65.9965C82.8092 65.4419 82.8944 64.8872 82.9796 64.3325C82.3089 63.4151 80.6907 61.2391 77.1136 60.9937C76.8794 60.9831 76.6452 60.9617 76.3897 60.9617C75.868 60.9617 75.3145 61.0044 74.7183 61.0897" fill="white"/>
</mask>
<g mask="url(#mask1_71_479)">
<path d="M82.9903 60.9724H67V92.216H82.9903V60.9724Z" fill="url(#paint2_linear_71_479)"/>
</g>
<mask id="mask2_71_479" style="mask-type:luminance" maskUnits="userSpaceOnUse" x="83" y="13" width="83" height="97">
<path d="M117.781 13.8884C116.834 14.0484 115.886 14.2404 114.928 14.4964C98.9698 18.6672 90.272 34.497 85.6304 51.9375C84.9278 53.8149 84.1932 57.943 84.1932 57.943C83.746 60.0337 83.3628 62.1351 83.0115 64.2045C84.3848 77.3675 86.6098 97.1654 87.8447 100.526C88.1641 101.411 88.9413 102.339 89.9952 103.278C93.4232 105.56 98.1926 108.483 101.259 109.315C106.496 110.723 107.572 106.755 108.509 103.214C109.445 99.6615 111.862 95.7041 117.909 95.1281C118.409 95.0854 118.888 95.0534 119.357 95.0214C119.463 95.0107 119.548 95.0001 119.644 94.9894C123.019 94.7334 131.078 94.4134 134.666 96.1521C138.136 97.6348 139.744 100.622 140.478 103.352C141.415 106.904 142.491 110.873 147.718 109.454C150.794 108.611 155.564 105.688 158.992 103.416C160.056 102.478 160.823 101.55 161.142 100.664C162.377 97.3148 164.592 77.6449 165.965 64.4925V64.4605C165.965 64.4605 165.965 64.4072 165.954 64.3752C165.603 62.2311 165.209 60.0764 164.741 57.9217C164.741 57.9217 164.017 53.8042 163.314 51.9162C159.301 36.8864 152.285 23.0833 140.212 16.8752C140.116 16.8218 140.031 16.7685 139.936 16.7151C139.755 16.6298 139.574 16.5338 139.382 16.4485C135.39 14.4751 131.546 13.7817 129.343 13.5471C127.725 13.3337 126.149 13.2484 124.669 13.2484C122.008 13.2484 119.634 13.5364 117.771 13.8671" fill="white"/>
</mask>
<g mask="url(#mask2_71_479)">
<path d="M165.976 13.2697H83.0115V110.883H165.976V13.2697Z" fill="url(#paint3_linear_71_479)"/>
</g>
<path d="M82.724 65.9966C81.3081 75.1595 80.7545 84.0451 80.6267 91.224C80.6054 91.7573 80.6054 92.28 80.6054 92.792C80.4245 111.385 94.871 122.724 107.561 129.433C111.713 131.63 115.546 132.804 118.835 133.391C118.835 133.391 120.954 133.977 124.467 133.935C127.969 133.967 130.088 133.401 130.088 133.401C133.388 132.793 137.221 131.62 141.373 129.433C154.052 122.734 168.509 111.395 168.328 92.792C168.328 92.2907 168.318 91.7787 168.307 91.256C168.179 83.8104 167.583 74.5408 166.05 65.0046C166.018 64.8232 165.997 64.6525 165.965 64.4712C164.592 77.6236 162.377 97.3148 161.142 100.664C160.812 101.55 160.046 102.478 158.981 103.416C155.553 105.699 150.784 108.622 147.707 109.454C142.48 110.873 141.394 106.904 140.468 103.363C139.744 100.622 138.126 97.6455 134.655 96.1628C131.057 94.4241 123.008 94.7441 119.623 95.0001C119.527 95.0001 119.442 95.0107 119.336 95.0214C118.867 95.0534 118.388 95.0854 117.888 95.1281C111.851 95.7041 109.435 99.6722 108.487 103.214C107.55 106.755 106.475 110.734 101.237 109.315C98.1713 108.483 93.4019 105.56 89.9739 103.278C88.9093 102.339 88.1428 101.411 87.8234 100.526C86.5885 97.1655 84.3635 77.3676 82.9901 64.2045C82.9901 64.2472 82.9795 64.2899 82.9689 64.3325C82.8837 64.8872 82.7985 65.4419 82.7133 65.9966" fill="black"/>
<path d="M182.7 0.821369C181.37 1.25872 178.101 2.14407 170.788 3.90412C153.211 8.14958 138.041 -0.917347 111.734 0.0746814C90.5488 0.874704 85.5558 13.1524 84.4061 17.9205C75.8999 24.4594 74.6118 36.9291 75.176 46.988C75.5273 53.2709 76.6132 58.615 77.1136 60.9938C80.6906 61.2498 82.3088 63.4152 82.9689 64.3325C83.3308 62.1991 83.7247 60.0657 84.1719 57.943C84.1719 57.943 84.8958 53.8256 85.6091 51.9482C86.2798 49.4201 87.0463 46.9454 87.898 44.5133C103.324 37.3984 104.09 28.5875 104.09 28.5875C128.001 44.556 150.305 46.2627 161.504 45.9747C162.154 47.9374 162.76 49.9321 163.303 51.9588C164.006 53.8362 164.73 57.9537 164.73 57.9537C165.188 60.1084 165.582 62.2631 165.944 64.4072C166.497 63.6498 167.7 62.0071 170.149 61.3244C170.66 58.9564 171.969 52.7268 172.235 45.516C172.235 45.2706 172.257 45.0146 172.267 44.7693C191.27 31.6383 183.648 4.00013 182.7 0.821369Z" fill="black"/>
<path d="M111.468 105.08C111.468 105.08 115.098 111.129 123.168 111.129C123.168 111.129 132.175 111.587 136.412 105.443L136.571 105.187C122.54 110.798 111.479 105.08 111.479 105.08" fill="white"/>
<path d="M129.545 90.968C129.13 90.968 128.757 90.6906 128.64 90.2746C128.502 89.7733 128.8 89.2612 129.3 89.1332C130.45 88.8239 133.133 87.5759 133.612 85.8691C133.942 84.6958 132.281 80.845 130.823 77.4529C129.918 75.3408 128.981 73.1648 128.236 71.0847C125.989 64.7805 129.162 59.2337 129.3 58.999C129.566 58.551 130.131 58.4017 130.578 58.6684C131.025 58.9244 131.174 59.5004 130.918 59.9484C130.886 60.0017 128.055 64.9939 130.003 70.466C130.727 72.4928 131.642 74.6368 132.537 76.7169C134.634 81.581 135.89 84.6531 135.4 86.3812C134.644 89.0799 131.089 90.584 129.779 90.936C129.694 90.9573 129.62 90.968 129.534 90.968" fill="#DFAC97"/>
<path d="M148.846 70.018C148.846 71.9274 147.303 73.4848 145.386 73.4848C143.47 73.4848 141.937 71.9274 141.937 70.018C141.937 68.1086 143.491 66.5619 145.386 66.5619C147.281 66.5619 148.846 68.1193 148.846 70.018Z" fill="#231F20"/>
<path d="M108.541 70.2314C108.541 72.1408 107.008 73.6981 105.081 73.6981C103.154 73.6981 101.631 72.1408 101.631 70.2314C101.631 68.322 103.186 66.7753 105.081 66.7753C106.976 66.7753 108.541 68.3326 108.541 70.2314Z" fill="#231F20"/>
</g>
<mask id="mask3_71_479" style="mask-type:luminance" maskUnits="userSpaceOnUse" x="190" y="745" width="45" height="29">
<path d="M195.486 745.285C196.456 745.391 197.448 745.496 198.45 745.496C203.884 745.496 209.254 746.309 214.676 746.351C217.156 746.372 219.624 746.351 222.083 746.024C222.79 745.929 223.454 745.728 224.182 745.792C224.077 747.998 226.187 750.995 227.347 752.821C228.655 754.847 231.525 759.713 234.479 759.976L234.637 773.876C231.219 773.676 227.79 773.676 224.351 773.686C220.068 773.697 215.784 773.718 211.543 773.306C206.542 772.821 201.805 771.459 197.205 769.654C193.597 768.251 191.835 767.1 191.297 763.628C190.379 757.581 191.329 751.132 191.793 745.085C192.046 745.063 192.299 745.063 192.553 745.063C193.534 745.063 194.515 745.169 195.486 745.275" fill="white"/>
</mask>
<g mask="url(#mask3_71_479)">
<path d="M223.567 725.902L177.91 752.271L201.443 793.045L247.099 766.676L223.567 725.902Z" fill="url(#paint4_linear_71_479)"/>
</g>
<mask id="mask4_71_479" style="mask-type:luminance" maskUnits="userSpaceOnUse" x="25" y="750" width="44" height="30">
<path d="M25.6055 779.966C25.6688 779.786 25.7215 779.607 25.7848 779.427H25.7426C25.6266 779.607 25.5844 779.776 25.616 779.966M34.4571 750.541C33.5076 750.573 32.4842 750.604 31.5242 750.235C30.6801 753.992 29.4036 757.771 28.3485 761.496C27.3568 765.011 26.3545 768.536 26.1541 772.177C26.038 774.383 26.4073 777.211 25.7848 779.427L66.6881 773.823C66.3821 773.222 66.4349 772.261 66.3294 771.586C66.0129 769.264 65.9074 766.9 65.9074 764.557C65.9074 760.673 66.7092 755.934 68.545 752.367C59.9149 751.871 51.2426 750.456 42.5597 750.362C39.8483 750.34 37.1369 750.478 34.4466 750.541" fill="white"/>
</mask>
<g mask="url(#mask4_71_479)">
<path d="M57.8068 731.619L12.7076 757.666L36.3191 798.577L81.4182 772.53L57.8068 731.619Z" fill="url(#paint5_linear_71_479)"/>
</g>
<path d="M215.109 758.647C198.513 758.974 197.511 758.963 188.143 759.048C186.201 759.069 125.516 455.999 125.516 455.999C126.107 454.183 124.725 445.022 125.39 439.524C161.345 530.827 197.807 661.898 215.109 758.636V758.647Z" fill="url(#paint6_linear_71_479)"/>
<path d="M124.324 462.088C101.261 538.584 65.7069 764.23 65.7069 766.013C65.7069 766.889 58.9336 766.742 50.6833 766.235C65.8757 680.62 93.5806 541.011 124.324 462.088Z" fill="url(#paint7_linear_71_479)"/>
<path d="M33.782 565.032C42.2749 480.273 57.0453 358.416 57.0453 358.416C57.0453 358.416 105.292 358.88 128.597 358.88C159.193 358.88 199.495 355.682 199.495 355.682C199.495 355.682 207.724 481.497 216.217 566.257C224.594 649.866 233.994 756.388 233.994 757.866C233.994 757.866 222.378 758.446 215.098 759.079C197.796 662.341 124.092 448.589 125.506 456.442C124.461 461.244 125.506 456.442 124.314 462.099C93.5702 541.022 65.8758 680.631 50.6729 766.245C37.7278 765.443 23.6643 759.48 23.6643 759.48C23.6643 759.48 25.2785 649.792 33.7714 565.032H33.782Z" fill="url(#paint8_linear_71_479)"/>
<path style="mix-blend-mode:multiply" opacity="0.27" d="M140.097 376.073L135.244 423.914C135.244 423.914 117.994 422.416 132.564 380.168L140.097 376.073Z" fill="url(#paint9_linear_71_479)"/>
<path d="M54.7241 373.519L55.2411 385.381L202.438 386.954L201.193 372.917L54.7241 373.519Z" fill="#707070"/>
<path d="M100.354 373.36H104.679L105.101 385.941H100.259L100.354 373.36Z" fill="url(#paint10_linear_71_479)"/>
<path d="M182.403 372.938L181.264 384.052H185.589L186.486 372.864L182.403 372.938Z" fill="url(#paint11_linear_71_479)"/>
<path d="M159.963 371.197H144.338L144.486 383.756L160.627 382.996V381.086L147.26 381.371L146.269 373.804L160.585 373.118L159.963 371.197Z" fill="url(#paint12_linear_71_479)"/>
<path d="M155.342 376.316L142.344 376.073V377.265L155.342 378.743C155.342 378.743 156.945 377.624 155.342 376.316Z" fill="url(#paint13_linear_71_479)"/>
<path d="M236.494 755.871C236.494 755.871 261.72 769.749 272.196 773.296C282.673 776.842 304.617 781.116 309.196 784.81C313.785 788.504 308.869 793.971 302.317 795.881C295.765 797.802 258.27 797.654 243.046 795.438C227.811 793.222 222.737 788.061 222.737 788.061C222.737 788.061 219.139 787.026 217.008 787.47C214.877 787.913 216.512 792.641 214.708 793.96C212.914 795.29 189.166 792.778 186.053 790.71C182.941 788.641 186.053 765.908 188.512 759.997C190.97 754.087 197.184 762.657 214.223 763.1C231.251 763.544 221.27 762.657 236.484 755.86" fill="black"/>
<path d="M18.1254 766.731C18.2414 766.435 18.3364 766.14 18.4841 765.834C22.145 757.654 33.4865 755.29 48.8371 757.654C57.1718 758.931 60.9171 761.412 62.6052 763.417C63.9978 764.842 65.1794 766.615 65.918 768.926C68.661 771.153 73.4297 774.889 75.8879 778.098C79.3695 782.657 84.6024 792.873 73.9572 797.285C63.9134 801.443 25.9431 802.52 13.1773 798.393C8.22924 797.464 4.32565 796.325 2.089 795.079C-5.23286 791.026 8.3875 773.401 18.1359 766.731" fill="black"/>
<path d="M203.894 174.543C211.807 180.622 221.028 180.875 224.731 185.002C228.434 189.118 244.329 247.153 248 257C251.672 266.847 264.912 307.437 264.5 323.5C264.089 339.563 265.972 347.45 245.346 355.598C224.731 363.746 208.874 338.416 204.548 308.959C200.223 279.503 196.076 168.538 203.884 174.543H203.894Z" fill="url(#paint14_linear_71_479)"/>
<path d="M171.906 168.664L138.641 155.852L82.5768 158.511L168.983 267.514C168.983 267.514 174.575 192.664 171.906 168.664Z" fill="#F7F7F7"/>
<path d="M164.7 159.229C158.359 183.767 130.264 169.414 130.264 169.414L82.3342 150.321C82.3342 150.321 31.5665 178.606 24.846 184.126C18.1255 189.646 28.1271 221.53 41.7263 257.54C55.3256 293.54 67.8276 280.727 59.2186 321.92C50.6835 362.753 55.2834 374.711 55.2834 374.711L200.286 373.17C200.286 373.17 203.778 338.563 191.54 303.693C189.271 288.949 218.897 228.748 213.79 209.466C208.684 190.184 211.796 186.68 203.894 174.553L164.71 159.239L164.7 159.229Z" fill="#E1EFFF"/>
<path d="M138.63 155.841L157.241 175.071L153.443 196.116C153.443 196.116 165.523 227.039 171.336 262.553C182.509 330.796 188.311 394.289 188.311 394.838C188.311 395.672 171.631 417.181 171.631 417.181L152.124 396.242C152.124 396.242 162.305 332.115 158.95 262.29C157.273 227.408 148.336 197.287 148.284 197.287C148.115 197.287 123.997 176.823 123.997 176.823L138.641 155.852L138.63 155.841Z" fill="url(#paint15_linear_71_479)"/>
<path d="M104.901 245.741C104.901 245.741 97.5477 247.778 99.3201 262.268C101.093 276.759 108.53 279.165 108.53 279.165C108.53 279.165 118.268 272.084 115.494 260.084C112.719 248.084 104.912 245.751 104.912 245.751L104.901 245.741Z" fill="#ADADAD"/>
<path d="M105.081 247.208C105.081 247.208 100.185 246.669 98.1068 246.564C96.0284 246.458 84.3071 251.894 84.3071 251.894C84.3071 251.894 84.8241 280.231 100.597 283.461C102.01 281.857 103.783 279.155 104.933 277.16C107.233 276.959 108.119 276.411 108.119 276.411C108.119 276.411 114.681 256.896 105.091 247.197L105.081 247.208Z" fill="url(#paint16_linear_71_479)"/>
<path d="M46 171C36.6947 177.691 21.5 179.5 19.8134 196.485C18.1465 202.406 17.5077 293.826 50.0001 352.5C80.121 367.328 105.197 346.543 107.56 330.511C111.622 302.986 93.6862 277.508 85.668 257.139C72.8073 224.474 46 171 46 171Z" fill="url(#paint17_linear_71_479)"/>
<path d="M224.731 289.741C224.731 289.741 224.72 268.917 208.336 264.928C190.5 271 125.487 290.652 112.5 295C91.8848 301.902 58.4485 301.24 51 322C41.3043 349.039 52.076 360.949 65.9496 362.469C80.741 364.094 120.22 362.68 161.904 346.827C203.588 330.975 224.72 289.741 224.72 289.741H224.731Z" fill="#DAE8FA"/>
<path d="M210.15 268.073C210.013 267.661 217.261 251.936 217.81 250.975C218.358 250.015 226.788 242.574 226.788 242.574L242.624 240.442C242.624 240.442 244.407 242.69 244.006 245.909C243.943 246.416 231.114 249.498 231.093 250.036C240.06 249.952 249.524 250.975 249.524 250.975C249.524 250.975 252.858 255.197 252.446 258.205C253.786 260.949 253.554 264.284 252.446 267.134L249.777 266.88C249.777 266.88 250.294 270.69 247.836 273.477C243.057 272.263 237.644 271.461 237.644 271.461C237.644 271.461 230.998 274.025 229.331 274.553C227.748 275.524 227.305 285.287 223.528 286.912C216.407 286.247 210.14 268.062 210.14 268.062L210.15 268.073Z" fill="url(#paint18_linear_71_479)"/>
<path d="M243.5 297.5C202.882 271.516 155.004 246.553 104.901 245.73C110.303 248.062 117.382 261.329 108.52 279.155C162.706 310.986 187.003 359.566 236.969 357.139C277.218 355.186 267.386 312.793 243.5 297.5Z" fill="url(#paint19_linear_71_479)"/>
<path d="M106.927 247.007L101.989 246.553C101.989 246.553 106.325 250.754 106.684 261.276C106.969 269.783 104.922 277.149 104.922 277.149L108.952 278.258C108.952 278.258 112.497 271.44 112.867 263.113C113.341 252.558 106.916 246.996 106.916 246.996L106.927 247.007Z" fill="#C2D8F0"/>
<path d="M138.63 155.841L158.929 176.812L172.623 165.16L151.322 143.313L138.63 155.841Z" fill="#CFDDF1"/>
<path d="M138.63 155.841C138.63 155.841 129.451 170.828 123.986 179.43C87.2611 162.395 76.8796 151.894 76.8796 151.894L99.0457 135.567C99.0457 135.567 108.245 146.733 138.63 155.841Z" fill="#CFDDF1"/>
<path d="M95.1316 357.951L99.0141 355.682C100.227 357.751 100.881 358.954 102.179 361.402L97.326 361.93C96.06 359.534 96.3027 359.967 95.121 357.951H95.1316ZM86.934 345.497L90.5317 342.796C92.0298 344.79 93.5174 346.922 94.9628 349.128L91.2069 351.598C89.8143 349.466 88.3689 347.418 86.934 345.497ZM77.1856 334.363L80.3085 331.123C82.1231 332.875 83.9272 334.774 85.668 336.759L82.2814 339.714C80.625 337.814 78.9159 336.02 77.1962 334.352L77.1856 334.363ZM65.6542 325.329L68.0069 321.497C70.1803 322.838 72.3431 324.347 74.432 325.983L71.6467 329.519C69.695 327.978 67.6799 326.574 65.6542 325.329ZM52.4137 319.408L53.6691 315.091C56.1695 315.819 58.6488 316.738 61.0649 317.814L59.2186 321.92C56.9925 320.917 54.7031 320.073 52.4137 319.408ZM38.0864 317.36L38.1075 312.864C40.7556 312.864 43.3932 313.065 45.9675 313.434L45.3344 317.888C42.9712 317.55 40.5341 317.381 38.097 317.371L38.0864 317.36Z" fill="#C2D8F0"/>
<path d="M225.49 352.168L229.985 351.914C230.111 354.226 230.175 354.754 230.565 357.234L226.007 356.843C225.585 354.215 225.638 354.637 225.49 352.168ZM225.533 344.389C225.722 341.698 226.123 339.091 226.704 336.632L231.082 337.677C230.554 339.893 230.196 342.258 230.027 344.717L225.543 344.389H225.533ZM229.246 329.149C230.343 326.722 231.704 324.421 233.276 322.3L236.885 324.981C235.503 326.849 234.31 328.875 233.34 331.007L229.246 329.149ZM238.647 316.453C240.556 314.754 242.698 313.192 245.008 311.788L247.34 315.64C245.262 316.896 243.341 318.3 241.632 319.82L238.647 316.453ZM251.993 308.263C254.303 307.302 256.772 306.448 259.336 305.73L260.559 310.057C258.164 310.733 255.875 311.524 253.733 312.421L252.003 308.263H251.993Z" fill="#C2D8F0"/>
<defs>
<linearGradient id="paint0_linear_71_479" x1="123.943" y1="103.679" x2="123.943" y2="225.667" gradientUnits="userSpaceOnUse">
<stop stop-color="#FFAE9E"/>
<stop offset="1" stop-color="#FCD7CB"/>
</linearGradient>
<linearGradient id="paint1_linear_71_479" x1="173.955" y1="54.1408" x2="173.955" y2="92.2592" gradientUnits="userSpaceOnUse">
<stop stop-color="#FFAE9E"/>
<stop offset="1" stop-color="#FCD7CB"/>
</linearGradient>
<linearGradient id="paint2_linear_71_479" x1="74.9951" y1="54.1106" x2="74.9951" y2="92.216" gradientUnits="userSpaceOnUse">
<stop stop-color="#FFAE9E"/>
<stop offset="1" stop-color="#FCD7CB"/>
</linearGradient>
<linearGradient id="paint3_linear_71_479" x1="124.494" y1="-8.16854" x2="124.494" y2="110.883" gradientUnits="userSpaceOnUse">
<stop stop-color="#FFAE9E"/>
<stop offset="1" stop-color="#FCD7CB"/>
</linearGradient>
<linearGradient id="paint4_linear_71_479" x1="200.728" y1="742.421" x2="223.894" y2="782.531" gradientUnits="userSpaceOnUse">
<stop stop-color="#5E5B55"/>
<stop offset="0.23" stop-color="#6C6A66"/>
<stop offset="0.69" stop-color="#939493"/>
<stop offset="0.92" stop-color="#A9ABAC"/>
<stop offset="1" stop-color="#A9ABAC"/>
</linearGradient>
<linearGradient id="paint5_linear_71_479" x1="37.0416" y1="744.648" x2="56.0484" y2="777.557" gradientUnits="userSpaceOnUse">
<stop stop-color="#5E5B55"/>
<stop offset="0.23" stop-color="#6C6A66"/>
<stop offset="0.69" stop-color="#939493"/>
<stop offset="0.92" stop-color="#A9ABAC"/>
<stop offset="1" stop-color="#A9ABAC"/>
</linearGradient>
<linearGradient id="paint6_linear_71_479" x1="125.2" y1="599.291" x2="215.109" y2="599.291" gradientUnits="userSpaceOnUse">
<stop stop-color="#3D3D3D"/>
<stop offset="1" stop-color="#262626"/>
</linearGradient>
<linearGradient id="paint7_linear_71_479" x1="50.6833" y1="614.362" x2="124.324" y2="614.362" gradientUnits="userSpaceOnUse">
<stop stop-color="#3D3D3D"/>
<stop offset="1" stop-color="#262626"/>
</linearGradient>
<linearGradient id="paint8_linear_71_479" x1="23.6749" y1="560.958" x2="234.004" y2="560.958" gradientUnits="userSpaceOnUse">
<stop stop-color="#454545"/>
<stop offset="1" stop-color="#2E2E2E"/>
</linearGradient>
<linearGradient id="paint9_linear_71_479" x1="126.708" y1="399.988" x2="140.097" y2="399.988" gradientUnits="userSpaceOnUse">
<stop stop-color="#3D3D3D"/>
<stop offset="1" stop-color="#262626"/>
</linearGradient>
<linearGradient id="paint10_linear_71_479" x1="100.259" y1="379.651" x2="105.101" y2="379.651" gradientUnits="userSpaceOnUse">
<stop stop-color="#3D3D3D"/>
<stop offset="1" stop-color="#262626"/>
</linearGradient>
<linearGradient id="paint11_linear_71_479" x1="181.264" y1="378.458" x2="186.486" y2="378.458" gradientUnits="userSpaceOnUse">
<stop stop-color="#3D3D3D"/>
<stop offset="1" stop-color="#262626"/>
</linearGradient>
<linearGradient id="paint12_linear_71_479" x1="144.338" y1="377.476" x2="160.627" y2="377.476" gradientUnits="userSpaceOnUse">
<stop stop-color="#3D3D3D"/>
<stop offset="1" stop-color="#262626"/>
</linearGradient>
<linearGradient id="paint13_linear_71_479" x1="142.344" y1="377.403" x2="156.059" y2="377.403" gradientUnits="userSpaceOnUse">
<stop stop-color="#3D3D3D"/>
<stop offset="1" stop-color="#262626"/>
</linearGradient>
<linearGradient id="paint14_linear_71_479" x1="236.516" y1="174.308" x2="222" y2="301" gradientUnits="userSpaceOnUse">
<stop stop-color="#E1EFFF"/>
<stop offset="1" stop-color="#CFDDF1"/>
</linearGradient>
<linearGradient id="paint15_linear_71_479" x1="122.119" y1="161.857" x2="139.993" y2="229.769" gradientUnits="userSpaceOnUse">
<stop stop-color="#C1210D"/>
<stop offset="0.52" stop-color="#C1210D"/>
<stop offset="1" stop-color="#9D1D06"/>
</linearGradient>
<linearGradient id="paint16_linear_71_479" x1="97.3085" y1="238.458" x2="97.3085" y2="283.461" gradientUnits="userSpaceOnUse">
<stop stop-color="#FFAE9E"/>
<stop offset="1" stop-color="#FCD7CB"/>
</linearGradient>
<linearGradient id="paint17_linear_71_479" x1="91" y1="223" x2="54" y2="342" gradientUnits="userSpaceOnUse">
<stop stop-color="#DAE8FA"/>
<stop offset="1" stop-color="#DAE8FA"/>
</linearGradient>
<linearGradient id="paint18_linear_71_479" x1="231.753" y1="230.237" x2="231.753" y2="286.912" gradientUnits="userSpaceOnUse">
<stop stop-color="#FFAE9E"/>
<stop offset="1" stop-color="#FCD7CB"/>
</linearGradient>
<linearGradient id="paint19_linear_71_479" x1="237" y1="288.5" x2="202.5" y2="342.5" gradientUnits="userSpaceOnUse">
<stop stop-color="#E1EFFF"/>
<stop offset="1" stop-color="#CFDDF1"/>
</linearGradient>
<clipPath id="clip0_71_479">
<rect width="118" height="225.649" fill="white" transform="translate(67)"/>
</clipPath>
</defs>
</svg>
