<svg width="111" height="212" viewBox="0 0 111 212" fill="none" xmlns="http://www.w3.org/2000/svg">
<g clip-path="url(#clip0_69_843)">
<path d="M95.1899 67.89L90.0399 36.13L64.3599 26.95L38.0899 20.74L22.9799 25.12L12.7799 43.19L11.6899 60.2V83.99L16.9099 89.21L16.4899 95L24.8199 107L50.7999 116.6C50.7999 116.6 60.1799 117.87 60.5699 117.16C60.9599 116.45 75.9199 107.56 75.9199 107.56L87.9299 100.22L92.9599 92.03L95.1899 83.98L97.6599 81.44L99.6099 74.38L95.1799 67.89H95.1899Z" fill="black"/>
<path d="M86.6701 154.73C86.6701 154.73 75.9201 151.66 75.9201 146.14V117.79C73.9001 119.11 71.8501 120.28 69.8501 121.34C65.9501 123.39 62.3501 124.49 59.2601 125.06C59.2601 125.06 57.2701 125.61 53.9701 125.58C50.6801 125.61 48.6901 125.07 48.6901 125.07C45.5901 124.5 41.9901 123.4 38.0901 121.35C36.3501 120.44 34.5801 119.42 32.8101 118.31V146.15C32.8101 151.67 22.0701 154.74 22.0701 154.74C21.0801 154.92 20.3401 155.37 19.7901 156.01C17.6901 158.43 18.3701 163.7 19.7901 168.86C21.4601 174.95 24.1401 180.85 24.4201 181.62C25.3901 184.26 40.7301 213.54 55.6501 211.45C70.5601 209.36 84.2301 177.29 86.5901 168.93C87.3901 166.11 87.7801 163.92 87.9301 162.24C88.9401 159.28 88.7301 156.68 86.6701 154.75V154.73Z" fill="url(#paint0_linear_69_843)"/>
<g style="mix-blend-mode:multiply" opacity="0.25">
<path d="M59.25 122.85C59.25 122.85 57.26 123.45 53.96 123.42C50.66 123.45 48.67 122.86 48.67 122.86C45.57 122.23 41.97 121.01 38.07 118.74C36.33 117.72 34.56 116.6 32.79 115.37V134.9C47.44 137.22 62.25 131.92 75.9 123.18V114.8C73.88 116.25 71.83 117.56 69.82 118.74C65.92 121.01 62.32 122.23 59.23 122.85H59.25Z" fill="#ECB699"/>
</g>
<mask id="mask0_69_843" style="mask-type:luminance" maskUnits="userSpaceOnUse" x="92" y="57" width="15" height="29">
<path d="M96.9 57.48C94.6 58.12 93.47 59.66 92.95 60.36C92.99 60.55 93.01 60.75 93.04 60.95C94.48 69.88 95.04 78.58 95.16 85.56C97.57 86.49 101.17 85.77 104.2 78.57C107.98 69.56 106.47 58.16 100.72 57.32C100.15 57.24 99.62 57.2 99.13 57.2C98.29 57.2 97.55 57.31 96.91 57.49" fill="white"/>
</mask>
<g mask="url(#mask0_69_843)">
<path d="M107.98 57.19H92.95V86.49H107.98V57.19Z" fill="url(#paint1_linear_69_843)"/>
</g>
<mask id="mask1_69_843" style="mask-type:luminance" maskUnits="userSpaceOnUse" x="1" y="57" width="15" height="29">
<path d="M7.26001 57.28C1.51001 58.12 8.58307e-06 69.52 3.78001 78.53C6.80001 85.71 10.39 86.45 12.8 85.52C12.92 78.79 13.44 70.46 14.77 61.87C14.85 61.35 14.93 60.83 15.01 60.31C14.38 59.45 12.86 57.41 9.50001 57.18C9.28001 57.17 9.06001 57.15 8.82001 57.15C8.33001 57.15 7.81001 57.19 7.25001 57.27" fill="white"/>
</mask>
<g mask="url(#mask1_69_843)">
<path d="M15.02 57.16H0V86.45H15.02V57.16Z" fill="url(#paint2_linear_69_843)"/>
</g>
<mask id="mask2_69_843" style="mask-type:luminance" maskUnits="userSpaceOnUse" x="15" y="12" width="78" height="91">
<path d="M47.7 13.02C46.81 13.17 45.92 13.35 45.02 13.59C30.03 17.5 21.86 32.34 17.5 48.69C16.84 50.45 16.15 54.32 16.15 54.32C15.73 56.28 15.37 58.25 15.04 60.19C16.33 72.53 18.42 91.09 19.58 94.24C19.88 95.07 20.61 95.94 21.6 96.82C24.82 98.96 29.3 101.7 32.18 102.48C37.1 103.8 38.11 100.08 38.99 96.76C39.87 93.43 42.14 89.72 47.82 89.18C48.29 89.14 48.74 89.11 49.18 89.08C49.28 89.07 49.36 89.06 49.45 89.05C52.62 88.81 60.19 88.51 63.56 90.14C66.82 91.53 68.33 94.33 69.02 96.89C69.9 100.22 70.91 103.94 75.82 102.61C78.71 101.82 83.19 99.08 86.41 96.95C87.41 96.07 88.13 95.2 88.43 94.37C89.59 91.23 91.67 72.79 92.96 60.46V60.43C92.96 60.43 92.96 60.38 92.95 60.35C92.62 58.34 92.25 56.32 91.81 54.3C91.81 54.3 91.13 50.44 90.47 48.67C86.7 34.58 80.11 21.64 68.77 15.82C68.68 15.77 68.6 15.72 68.51 15.67C68.34 15.59 68.17 15.5 67.99 15.42C64.24 13.57 60.63 12.92 58.56 12.7C57.04 12.5 55.56 12.42 54.17 12.42C51.67 12.42 49.44 12.69 47.69 13" fill="white"/>
</mask>
<g mask="url(#mask2_69_843)">
<path d="M92.97 12.44H15.04V103.95H92.97V12.44Z" fill="url(#paint3_linear_69_843)"/>
</g>
<path d="M14.7699 61.87C13.4399 70.46 12.9199 78.79 12.7999 85.52C12.7799 86.02 12.7799 86.51 12.7799 86.99C12.6099 104.42 26.1799 115.05 38.0999 121.34C41.9999 123.4 45.5999 124.5 48.6899 125.05C48.6899 125.05 50.6799 125.6 53.9799 125.56C57.2699 125.59 59.2599 125.06 59.2599 125.06C62.3599 124.49 65.9599 123.39 69.8599 121.34C81.7699 115.06 95.3499 104.43 95.1799 86.99C95.1799 86.52 95.1699 86.04 95.1599 85.55C95.0399 78.57 94.4799 69.88 93.0399 60.94C93.0099 60.77 92.9899 60.61 92.9599 60.44C91.6699 72.77 89.5899 91.23 88.4299 94.37C88.1199 95.2 87.3999 96.07 86.3999 96.95C83.1799 99.09 78.6999 101.83 75.8099 102.61C70.8999 103.94 69.8799 100.22 69.0099 96.9C68.3299 94.33 66.8099 91.54 63.5499 90.15C60.1699 88.52 52.6099 88.82 49.4299 89.06C49.3399 89.06 49.2599 89.07 49.1599 89.08C48.7199 89.11 48.2699 89.14 47.7999 89.18C42.1299 89.72 39.8599 93.44 38.9699 96.76C38.0899 100.08 37.0799 103.81 32.1599 102.48C29.2799 101.7 24.7999 98.96 21.5799 96.82C20.5799 95.94 19.8599 95.07 19.5599 94.24C18.3999 91.09 16.3099 72.53 15.0199 60.19C15.0199 60.23 15.0099 60.27 14.9999 60.31C14.9199 60.83 14.8399 61.35 14.7599 61.87" fill="black"/>
<path d="M108.68 0.769993C107.43 1.17999 104.36 2.00999 97.4899 3.65999C80.9799 7.63999 66.7299 -0.860007 42.0199 0.0699927C22.1199 0.819993 17.4299 12.33 16.3499 16.8C8.35994 22.93 7.14994 34.62 7.67994 44.05C8.00994 49.94 9.02994 54.95 9.49994 57.18C12.8599 57.42 14.3799 59.45 14.9999 60.31C15.3399 58.31 15.7099 56.31 16.1299 54.32C16.1299 54.32 16.8099 50.46 17.4799 48.7C18.1099 46.33 18.8299 44.01 19.6299 41.73C34.1199 35.06 34.8399 26.8 34.8399 26.8C57.2999 41.77 78.2499 43.37 88.7699 43.1C89.3799 44.94 89.9499 46.81 90.4599 48.71C91.1199 50.47 91.7999 54.33 91.7999 54.33C92.2299 56.35 92.5999 58.37 92.9399 60.38C93.4599 59.67 94.5899 58.13 96.8899 57.49C97.3699 55.27 98.5999 49.43 98.8499 42.67C98.8499 42.44 98.8699 42.2 98.8799 41.97C116.73 29.66 109.57 3.74999 108.68 0.769993Z" fill="black"/>
<path d="M41.77 98.51C41.77 98.51 45.18 104.18 52.76 104.18C52.76 104.18 61.22 104.61 65.2 98.85L65.35 98.61C52.17 103.87 41.78 98.51 41.78 98.51" fill="white"/>
<path d="M58.7499 85.28C58.3599 85.28 58.0099 85.02 57.8999 84.63C57.7699 84.16 58.0499 83.68 58.5199 83.56C59.5999 83.27 62.1199 82.1 62.5699 80.5C62.8799 79.4 61.3199 75.79 59.9499 72.61C59.0999 70.63 58.2199 68.59 57.5199 66.64C55.4099 60.73 58.3899 55.53 58.5199 55.31C58.7699 54.89 59.2999 54.75 59.7199 55C60.1399 55.24 60.2799 55.78 60.0399 56.2C60.0099 56.25 57.3499 60.93 59.1799 66.06C59.8599 67.96 60.7199 69.97 61.5599 71.92C63.5299 76.48 64.7099 79.36 64.2499 80.98C63.5399 83.51 60.1999 84.92 58.9699 85.25C58.8899 85.27 58.8199 85.28 58.7399 85.28" fill="#DFAC97"/>
<path d="M76.8799 65.64C76.8799 67.43 75.4299 68.89 73.6299 68.89C71.8299 68.89 70.3899 67.43 70.3899 65.64C70.3899 63.85 71.8499 62.4 73.6299 62.4C75.4099 62.4 76.8799 63.86 76.8799 65.64Z" fill="#231F20"/>
<path d="M39.02 65.84C39.02 67.63 37.58 69.09 35.77 69.09C33.96 69.09 32.53 67.63 32.53 65.84C32.53 64.05 33.99 62.6 35.77 62.6C37.55 62.6 39.02 64.06 39.02 65.84Z" fill="#231F20"/>
</g>
<defs>
<linearGradient id="paint0_linear_69_843" x1="53.4882" y1="97.1966" x2="53.4882" y2="211.557" gradientUnits="userSpaceOnUse">
<stop stop-color="#FFAE9E"/>
<stop offset="1" stop-color="#FCD7CB"/>
</linearGradient>
<linearGradient id="paint1_linear_69_843" x1="100.465" y1="50.755" x2="100.465" y2="86.49" gradientUnits="userSpaceOnUse">
<stop stop-color="#FFAE9E"/>
<stop offset="1" stop-color="#FCD7CB"/>
</linearGradient>
<linearGradient id="paint2_linear_69_843" x1="7.51" y1="50.7272" x2="7.51" y2="86.45" gradientUnits="userSpaceOnUse">
<stop stop-color="#FFAE9E"/>
<stop offset="1" stop-color="#FCD7CB"/>
</linearGradient>
<linearGradient id="paint3_linear_69_843" x1="54.005" y1="-7.65782" x2="54.005" y2="103.95" gradientUnits="userSpaceOnUse">
<stop stop-color="#FFAE9E"/>
<stop offset="1" stop-color="#FCD7CB"/>
</linearGradient>
<clipPath id="clip0_69_843">
<rect width="110.84" height="211.54" fill="white"/>
</clipPath>
</defs>
</svg>
