<svg width="665" height="634" viewBox="0 0 665 634" fill="none" xmlns="http://www.w3.org/2000/svg">
<g clip-path="url(#clip0_1463_1563)">
<path d="M277.377 125.688C277.377 125.688 322.826 122.16 341.426 124.721C345.948 134.433 344.548 142.04 344.548 142.04H276.033L277.377 125.688Z" fill="#CCCCCC"/>
<path d="M283.243 63.7926C283.243 63.7926 284.927 107.175 283.678 123.545C282.921 133.598 249.07 148.925 249.07 162.716C285.494 165.447 372.439 188.001 372.439 172.959C372.439 157.917 336.62 148.774 335.031 136.558C333.442 124.342 331.228 102.167 331.228 102.167L298.531 96.8555L283.243 63.7926Z" fill="url(#paint0_linear_1463_1563)"/>
<path d="M277.244 68.1934C277.244 68.1934 270.035 62.5786 264.718 69.2557C258.89 76.5587 270.754 97.8609 282.997 88.3764L277.263 68.1934H277.244Z" fill="#FFC2B3"/>
<path d="M278.55 84.6586C278.247 84.6586 277.963 84.4878 277.812 84.2033C273.706 76.1794 268.37 75.857 268.313 75.857C267.859 75.838 267.5 75.4586 267.519 75.0033C267.538 74.5481 267.916 74.1877 268.37 74.2066C268.635 74.2066 274.709 74.5671 279.269 83.4635C279.477 83.8619 279.326 84.374 278.91 84.5827C278.796 84.6396 278.664 84.6775 278.531 84.6775L278.55 84.6586Z" fill="#F48073"/>
<path d="M355.088 68.1934C355.088 68.1934 362.297 62.5786 367.614 69.2557C373.442 76.5587 361.578 97.8609 349.335 88.3764L355.069 68.1934H355.088Z" fill="#FFC2B3"/>
<path d="M353.782 84.6586C353.65 84.6586 353.536 84.6206 353.404 84.5637C353.007 84.355 352.836 83.8619 353.044 83.4445C357.586 74.5671 363.678 74.2066 363.943 74.1877C364.397 74.1497 364.776 74.5291 364.795 74.9844C364.814 75.4396 364.473 75.819 364.019 75.838C363.792 75.838 358.588 76.2363 354.52 84.1843C354.369 84.4689 354.085 84.6396 353.782 84.6396V84.6586Z" fill="#F48073"/>
<path d="M316.337 95.9261C341.929 95.9261 362.675 75.6456 362.675 50.6282C362.675 25.6109 341.929 5.33032 316.337 5.33032C290.744 5.33032 269.998 25.6109 269.998 50.6282C269.998 75.6456 290.744 95.9261 316.337 95.9261Z" fill="black"/>
<path d="M277.169 45.5634C277.169 45.5634 269.941 119.22 314.728 119.258C363.981 119.315 355.826 45.5634 355.826 45.5634C355.826 45.5634 355.561 14.075 316.147 14.075C280.007 14.075 277.169 45.5634 277.169 45.5634Z" fill="url(#paint1_linear_1463_1563)"/>
<path d="M314.406 88.9834H317.547C318.002 88.9834 318.38 88.623 318.38 88.1488C318.38 87.6935 318.02 87.3142 317.547 87.3142H314.406C314.123 87.3142 313.858 87.2003 313.668 86.9917C313.479 86.783 313.385 86.4985 313.422 86.214L314.16 75.6103C314.198 75.155 313.858 74.7567 313.404 74.7377C312.931 74.7188 312.552 75.0412 312.533 75.4965L311.795 86.0622C311.72 86.783 311.966 87.5228 312.457 88.0729C312.949 88.623 313.668 88.9455 314.425 88.9455L314.406 88.9834Z" fill="#F48073"/>
<path d="M297.907 68.6677C297.907 70.5266 296.412 72.0252 294.558 72.0252C292.703 72.0252 291.208 70.5266 291.208 68.6677C291.208 66.8087 292.703 65.3102 294.558 65.3102C296.412 65.3102 297.907 66.8087 297.907 68.6677Z" fill="#2B232A"/>
<path d="M330.66 69.5023C330.66 71.3612 329.165 72.8598 327.311 72.8598C325.457 72.8598 323.962 71.3612 323.962 69.5023C323.962 67.6433 325.457 66.1448 327.311 66.1448C329.165 66.1448 330.66 67.6433 330.66 69.5023Z" fill="#2B232A"/>
<path d="M315.031 97.0264C321.937 97.0264 325.419 93.574 325.589 93.4033C325.911 93.0808 325.911 92.5497 325.589 92.2272C325.267 91.9047 324.738 91.9047 324.435 92.2272C324.265 92.3979 320.083 96.4952 311.511 95.0536C311.076 94.9777 310.641 95.2812 310.565 95.7365C310.49 96.1917 310.792 96.609 311.246 96.6849C312.628 96.9125 313.895 97.0264 315.069 97.0264H315.031Z" fill="#F48073"/>
<path d="M287.859 60.3782C290.962 59.3729 299.629 58.2727 306.648 58.3296C307.481 58.3296 307.954 57.457 307.443 56.85C305.929 55.01 301.294 51.2921 294.558 52.7717C294.558 52.7717 289.6 54.2512 286.327 58.4623C286.119 58.7469 286.024 59.0883 286.1 59.4298C286.251 60.1885 287.084 60.6438 287.859 60.3782Z" fill="#2B232A"/>
<path d="M342.675 60.3782C339.572 59.3729 330.906 58.2727 323.886 58.3296C323.054 58.3296 322.581 57.457 323.091 56.85C324.605 55.01 329.241 51.2921 335.977 52.7717C335.977 52.7717 340.934 54.2512 344.208 58.4623C344.416 58.7469 344.511 59.0883 344.435 59.4298C344.284 60.1885 343.451 60.6438 342.675 60.3782Z" fill="#2B232A"/>
<path d="M274.387 57.6847L281.804 45.9808C281.804 45.9808 282.315 30.7298 289.638 18.1344C289.638 18.1344 270.205 31.811 274.387 57.6847Z" fill="black"/>
<path d="M357.207 57.6847L349.79 45.9808C349.79 45.9808 349.279 30.7298 341.956 18.1344C341.956 18.1344 361.389 31.811 357.207 57.6847Z" fill="black"/>
<path d="M278.758 27.5429C278.758 27.5429 328.257 56.1292 356.658 19.7277C356.658 19.7277 310.073 -29.4968 278.758 27.5429Z" fill="black"/>
<path d="M311.152 133.94L312.268 133.997L315.485 136.178L311.795 137.999L307.784 136.747L311.152 133.94Z" fill="#CCCCCC"/>
<path d="M352.06 141.945C352.06 141.945 312.268 311.641 311.474 308.815C310.679 305.989 263.205 144.771 263.205 144.771L277.036 131.853L312.287 136.994L340.424 131.815L352.079 141.945H352.06Z" fill="white"/>
<path d="M351.795 138.834L315.069 195.229L264.624 139.574L217.584 173.794C217.584 173.794 236.866 263.669 237.925 265.547C238.985 267.425 255.371 378.507 255.371 378.507C255.371 378.507 291.776 382.908 312.798 382.661C333.82 382.415 359.705 378.716 360.972 377.293C364.87 372.93 382.6 251.168 382.6 251.168L402.467 175.634L351.776 138.834H351.795Z" fill="#C7DADB"/>
<path d="M319.78 204.675C319.78 204.675 341.332 164.632 354.198 140.522L351.814 138.834L315.087 195.229L264.642 139.574L260.801 142.267C274.538 155.849 319.799 204.694 319.799 204.694L319.78 204.675Z" fill="#A7C8C9"/>
<path d="M312.268 133.997L329.127 160.933L356.696 140.693L341.426 124.702L312.268 133.997Z" fill="#F2F2F2"/>
<path d="M311.152 133.94C310.357 134.888 298.171 163.494 298.171 163.494L262.391 140.389L277.358 125.688L311.152 133.94Z" fill="#F2F2F2"/>
<path d="M210.754 178.308C210.754 178.308 186.856 244.548 190.357 272.034C195.219 310.313 209.411 334.366 209.411 334.366C209.411 334.366 231.227 289.922 247.765 261.943C242.183 197.827 231.019 164.101 231.019 164.101L210.754 178.308Z" fill="#C7DADB"/>
<path opacity="0.37" d="M239.477 271.541C238.872 228.14 213.138 176.715 213.138 176.715L210.773 178.27C210.773 178.27 236.033 229.354 238.853 275.259L239.477 271.541Z" fill="#A7C8C9"/>
<path d="M208.786 342.011C208.786 342.011 193.857 334.271 192.778 322.624C191.7 310.977 209.543 241.361 209.543 241.361C209.543 241.361 240.158 252.818 244.529 286.071C248.9 319.324 208.786 342.011 208.786 342.011Z" fill="white"/>
<path d="M134.765 188.191C151.756 205.7 191.151 217.972 217.831 243.675C239.893 264.94 239.988 289.846 235.73 302.669C227.783 326.646 207.216 338.16 207.216 338.16C207.216 338.16 192.078 331.654 165.21 302.384C138.341 273.115 122.542 192.952 122.542 192.952C122.542 192.952 123.185 191.074 127.253 188.874C131.34 186.655 130.772 184.094 134.746 188.191H134.765Z" fill="url(#paint2_linear_1463_1563)"/>
<path d="M402.486 175.634C402.486 175.634 426.611 217.005 442.865 246.691C459.119 276.378 446.195 315.985 429.923 332.697C345.154 326.854 359.042 223.644 359.042 223.644L402.505 175.634H402.486Z" fill="#C7DADB"/>
<path d="M424.473 240.887C424.473 240.887 383.716 269.208 416.394 329.396C420.632 332.526 430.509 331.976 430.509 331.976C430.509 331.976 461.711 294.626 424.473 240.887Z" fill="white"/>
<path d="M425.609 330.193C425.609 330.193 394.823 281.234 424.473 240.906C439.989 219.794 466.914 232.654 500.935 195.817C504.02 192.478 515.183 202.835 515.183 202.835C515.183 202.835 503.736 270.137 477.075 297.585C450.415 325.033 425.609 330.193 425.609 330.193Z" fill="url(#paint3_linear_1463_1563)"/>
<path d="M532.232 202.418C534.635 202.039 538.268 201.659 541.73 201.242C547.539 200.54 552.97 197.903 552.383 196.025C551.853 194.47 547.899 196.481 543.793 196.936C539.99 197.372 538.703 197.619 538.514 196.86C538.343 196.329 543.112 195.058 548.069 193.54C554.105 191.757 557.587 189.785 556.943 187.888C556.319 185.991 552.818 187.983 547.104 189.026C541.787 189.993 539.422 190.676 538.495 188.665C538.003 187.698 541.617 186.731 546.536 184.341C551.967 181.723 554.597 178.934 553.556 177.379C551.986 175.084 550.472 177.929 543.528 180.091C533.764 183.164 533.254 185.517 525.855 183.809C518.305 182.064 534.635 165.884 528.637 166.453C523.717 166.946 498.816 195.703 499.1 201.64C502.336 211.713 511.513 201.545 532.251 202.418H532.232Z" fill="url(#paint4_linear_1463_1563)"/>
<path d="M102.769 193.578C100.366 193.199 96.7326 192.82 93.2699 192.402C87.461 191.7 82.0305 189.064 82.6171 187.186C83.1469 185.63 87.1015 187.641 91.2075 188.096C95.0107 188.533 96.2974 188.779 96.4866 188.02C96.6569 187.489 91.8887 186.218 86.9312 184.701C80.8952 182.918 77.4136 180.945 78.057 179.048C78.6814 177.151 82.1819 179.143 87.8962 180.186C93.2132 181.154 95.5784 181.837 96.5055 179.826C96.9975 178.858 93.3835 177.891 88.4638 175.501C83.0333 172.883 80.4032 170.095 81.4439 168.539C83.0144 166.244 84.5282 169.089 91.4724 171.252C101.236 174.325 101.747 176.677 109.145 174.97C116.695 173.225 100.366 157.044 106.364 157.613C111.283 158.106 136.184 186.863 135.9 192.801C132.665 202.873 123.488 192.706 102.75 193.578H102.769Z" fill="url(#paint5_linear_1463_1563)"/>
<path opacity="0.37" d="M400.462 174.154C400.462 174.154 375.637 273.571 374.956 303.029C374.956 303.029 397.075 200.312 402.486 175.634C400.632 174.287 400.462 174.154 400.462 174.154Z" fill="#A7C8C9"/>
</g>
<path d="M48.7321 413.129C68.5752 411.921 83.6858 394.801 82.4826 374.889C81.2794 354.977 64.2179 339.814 44.3749 341.021C24.5318 342.229 9.42121 359.349 10.6244 379.261C11.8277 399.173 28.8891 414.336 48.7321 413.129Z" fill="#D79A00"/>
<path d="M80.6619 376.136C80.8369 356.781 65.3423 340.947 46.0537 340.772C26.7651 340.596 10.9867 356.144 10.8116 375.5C10.6365 394.856 26.1311 410.689 45.4197 410.864C64.7084 411.04 80.4868 395.492 80.6619 376.136Z" fill="#FFB700"/>
<path d="M45.6974 411.988C37.7171 411.988 30.0057 409.341 23.6215 404.316C16.0613 398.381 11.2563 389.849 10.0971 380.271C8.93783 370.71 11.5419 361.268 17.4725 353.663C23.3863 346.075 31.8873 341.253 41.43 340.089C61.1035 337.678 79.0632 351.775 81.4657 371.52C82.6249 381.08 80.0208 390.523 74.0902 398.128C68.1765 405.716 59.6754 410.538 50.1327 411.701C48.6543 411.887 47.1758 411.971 45.6974 411.971V411.988ZM45.7982 341.422C44.4205 341.422 43.0093 341.506 41.6148 341.674C32.509 342.787 24.3775 347.407 18.7157 354.658C13.054 361.909 10.5675 370.947 11.6763 380.086C13.978 398.954 31.1313 412.443 49.9479 410.133C59.0538 409.02 67.1852 404.4 72.847 397.15C78.5088 389.899 80.9953 380.861 79.8864 371.722C77.7696 354.27 62.9179 341.422 45.815 341.422H45.7982Z" fill="#FFB700"/>
<path d="M59.8121 401.656C74.0142 393.854 79.2241 375.976 71.4486 361.724C63.6732 347.473 45.8568 342.245 31.6547 350.048C17.4526 357.85 12.2427 375.728 20.0181 389.98C27.7936 404.231 45.6099 409.459 59.8121 401.656Z" fill="white"/>
<path d="M45.5199 397.035L44.9329 392.181C41.5283 392.452 38.1238 391.928 36.061 391.048L36.8492 384.893C39.1133 385.806 42.2327 386.499 45.5199 386.11C48.4045 385.755 50.2325 384.385 49.9977 382.356C49.7629 380.411 48.002 379.397 44.0943 378.585C38.4593 377.418 34.451 375.321 33.864 370.366C33.3273 365.885 36.0275 361.979 41.3103 360.237L40.7233 355.383L45.6876 354.775L46.2242 359.256C49.6288 358.985 51.9935 359.425 53.7544 360.034L52.983 365.969C51.6077 365.564 49.1256 364.684 45.4863 365.141C42.1992 365.547 41.3103 367.103 41.478 368.54C41.6793 370.231 43.5744 371.077 48.0858 372.176C54.3582 373.579 57.1254 376.082 57.6956 380.665C58.2491 385.197 55.5322 389.475 49.83 391.2L50.4673 396.409L45.5031 397.018L45.5199 397.035Z" fill="#F2AC57"/>
<path d="M84.3114 410.337C100.818 414.034 117.185 403.603 120.869 387.04C124.553 370.476 114.158 354.052 97.652 350.355C81.1457 346.659 64.7782 357.089 61.0943 373.653C57.4104 390.217 67.8051 406.641 84.3114 410.337Z" fill="#D79A00"/>
<path d="M119.088 387.63C123.768 371.846 114.812 355.244 99.0828 350.547C83.354 345.851 66.8092 354.838 62.1288 370.622C57.4485 386.405 66.405 403.007 82.1338 407.704C97.8626 412.401 114.408 403.413 119.088 387.63Z" fill="#FFB700"/>
<path d="M82.0978 408.688C75.5733 406.805 69.8892 402.82 65.8475 397.205C61.0577 390.568 59.1293 382.458 60.4266 374.354C61.72 366.264 66.0626 359.158 72.6939 354.341C79.3076 349.533 87.3884 347.597 95.463 348.898C112.113 351.571 123.492 367.335 120.828 384.045C119.534 392.135 115.192 399.241 108.56 404.058C101.947 408.866 93.8659 410.802 85.7913 409.501C84.539 409.304 83.3105 409.024 82.1018 408.675L82.0978 408.688ZM98.7221 351.018C97.5957 350.693 96.4222 350.429 95.2426 350.238C87.5369 348.998 79.8058 350.856 73.4772 355.448C67.1486 360.039 62.9971 366.841 61.7613 374.575C59.2201 390.545 70.0822 405.622 86.0078 408.175C93.7134 409.415 101.445 407.557 107.773 402.965C114.102 398.374 118.253 391.572 119.489 383.838C121.849 369.07 112.719 355.059 98.7358 351.022L98.7221 351.018Z" fill="#FFB700"/>
<path d="M96.0593 403.573C109.5 400.546 117.95 387.159 114.934 373.672C111.917 360.185 98.5766 351.706 85.1363 354.732C71.6959 357.759 63.2455 371.146 66.2618 384.633C69.2781 398.12 82.6189 406.6 96.0593 403.573Z" fill="white"/>
<path d="M85.4579 396.421L86.1157 392.314C83.2688 391.732 80.6082 390.5 79.1278 389.294L81.2152 384.447C82.8522 385.728 85.2401 387.031 88.0187 387.489C90.4604 387.88 92.276 387.191 92.5598 385.477C92.8237 383.831 91.6218 382.586 88.6173 381C84.2837 378.716 81.4981 376.056 82.1797 371.866C82.7914 368.075 85.9147 365.519 90.6422 365.342L91.3 361.235L95.5014 361.909L94.8897 365.7C97.7365 366.282 99.5668 367.2 100.864 368.113L98.8417 372.784C97.8125 372.128 95.9893 370.823 92.9068 370.337C90.1242 369.893 89.0328 370.955 88.8329 372.17C88.6011 373.6 89.9523 374.739 93.383 376.702C98.1822 379.33 99.8579 382.03 99.2498 385.911C98.6399 389.747 95.4157 392.604 90.3494 392.668L89.6495 397.077L85.4481 396.403L85.4579 396.421Z" fill="#F2AC57"/>
<path d="M160.323 398.162C176.901 394.805 187.628 378.597 184.282 361.961C180.937 345.326 164.785 334.561 148.207 337.919C131.629 341.276 120.902 357.483 124.247 374.119C127.593 390.755 143.744 401.519 160.323 398.162Z" fill="#D79A00"/>
<path d="M182.894 363.227C180.775 346.898 165.865 335.384 149.592 337.51C133.319 339.637 121.845 354.598 123.964 370.928C126.083 387.257 140.993 398.771 157.266 396.645C173.539 394.518 185.013 379.557 182.894 363.227Z" fill="#FFB700"/>
<path d="M157.632 397.559C150.908 398.5 144.1 397.179 138.133 393.697C131.067 389.588 126.019 382.965 123.921 375.032C121.825 367.113 122.913 358.85 127.02 351.743C131.114 344.652 137.712 339.586 145.616 337.481C161.911 333.129 178.694 342.889 183.031 359.243C185.127 367.162 184.039 375.425 179.932 382.532C175.838 389.623 169.24 394.689 161.336 396.794C160.112 397.125 158.876 397.37 157.63 397.544L157.632 397.559ZM149.453 338.088C148.292 338.25 147.113 338.488 145.958 338.794C138.416 340.806 132.105 345.658 128.184 352.435C124.262 359.212 123.225 367.12 125.23 374.69C129.379 390.317 145.412 399.66 160.996 395.495C168.538 393.483 174.849 388.631 178.77 381.854C182.692 375.078 183.728 367.169 181.724 359.599C177.896 345.144 163.878 336.069 149.467 338.086L149.453 338.088Z" fill="#FFB700"/>
<path d="M168.315 387.189C179.368 378.94 181.664 363.262 173.444 352.17C165.223 341.079 149.599 338.775 138.546 347.024C127.493 355.273 125.197 370.951 133.418 382.043C141.638 393.134 157.262 395.438 168.315 387.189Z" fill="white"/>
<path d="M155.731 384.98L154.668 380.96C151.831 381.589 148.901 381.549 147.06 381.051L147.003 375.772C149.018 376.274 151.727 376.491 154.452 375.775C156.841 375.136 158.22 373.766 157.785 372.084C157.359 370.473 155.757 369.826 152.369 369.603C147.485 369.284 143.862 367.99 142.787 363.884C141.81 360.171 143.627 356.561 147.875 354.471L146.812 350.451L150.923 349.352L151.9 353.065C154.737 352.435 156.781 352.527 158.336 352.832L158.381 357.925C157.175 357.745 154.981 357.297 151.968 358.111C149.246 358.84 148.679 360.256 148.988 361.447C149.356 362.848 151.052 363.337 154.982 363.732C160.431 364.175 163.056 365.957 164.073 369.751C165.07 373.505 163.282 377.43 158.679 379.556L159.826 383.869L155.715 384.968L155.731 384.98Z" fill="#F2AC57"/>
<path d="M15.6418 378.927C11.3017 378.927 7.63166 382.206 7.19475 386.54C6.96173 388.765 6.84521 391.049 6.84521 393.332C6.84521 437.338 47.6531 473 97.9856 473C148.318 473 189.126 437.338 189.126 393.332C189.126 391.049 189.01 388.765 188.777 386.54C188.34 382.206 184.67 378.927 180.33 378.927H15.6418Z" fill="url(#paint6_linear_1463_1563)"/>
<path d="M184.116 370.875H11.8841C5.32068 370.875 0 376.224 0 382.821V389.438C0 396.036 5.32068 401.384 11.8841 401.384H184.116C190.679 401.384 196 396.036 196 389.438V382.821C196 376.224 190.679 370.875 184.116 370.875Z" fill="url(#paint7_linear_1463_1563)"/>
<path d="M112.928 432.332V433.034C112.928 433.034 112.899 433.093 112.87 433.152C112.578 434.586 111.53 435.435 110.103 435.465C109.986 435.465 109.87 435.465 109.724 435.465V435.874C109.724 438.685 109.724 441.525 109.724 444.336C109.724 446.327 108.355 447.703 106.374 447.703C104.889 447.703 103.432 447.703 101.947 447.703C101.189 447.703 100.869 447.381 100.869 446.62C100.869 444.365 100.869 442.14 100.869 439.886C100.869 438.919 100.257 438.305 99.2962 438.305C98.4515 438.305 97.6359 438.305 96.7912 438.305C95.7426 438.305 95.1601 438.89 95.1601 439.944C95.1601 442.199 95.1601 444.424 95.1601 446.678C95.1601 447.352 94.8105 447.703 94.1406 447.703C92.626 447.703 91.1405 447.703 89.6258 447.703C89.3345 447.703 89.0724 447.703 88.7811 447.615C87.2956 447.264 86.3053 446.005 86.3053 444.424C86.3053 441.555 86.3053 438.714 86.3053 435.845C86.3053 435.728 86.3053 435.611 86.3053 435.465C86.1014 435.465 85.9266 435.465 85.781 435.465C84.7615 435.406 84.0042 434.967 83.4799 434.088C82.8099 432.976 83.043 431.629 84.0042 430.663C87.849 426.798 91.6939 422.962 95.5096 419.098C96.1213 418.483 96.733 417.897 97.6068 417.722H98.4224C99.2962 417.897 99.9079 418.454 100.49 419.068C104.19 422.787 107.889 426.505 111.588 430.224C112.2 430.838 112.753 431.453 112.928 432.361V432.332Z" fill="#E85754"/>
<g clip-path="url(#clip1_1463_1563)">
<path d="M247.595 401.17C262.759 404.487 277.741 394.884 281.058 379.722C284.375 364.56 274.771 349.581 259.607 346.264C244.442 342.948 229.46 352.551 226.143 367.712C222.826 382.874 232.43 397.854 247.595 401.17Z" fill="#D79A00"/>
<path d="M279.426 380.268C283.66 365.816 275.375 350.668 260.921 346.434C246.466 342.201 231.315 350.484 227.081 364.936C222.846 379.389 231.131 394.537 245.586 398.77C260.041 403.004 275.191 394.721 279.426 380.268Z" fill="#FFB700"/>
<path d="M245.556 399.671C239.561 397.973 234.328 394.352 230.597 389.232C226.175 383.181 224.373 375.772 225.533 368.356C226.688 360.953 230.646 354.438 236.714 350.006C242.766 345.584 250.175 343.782 257.591 344.94C272.884 347.319 283.389 361.692 281.008 376.984C279.853 384.387 275.894 390.902 269.827 395.334C263.775 399.756 256.366 401.558 248.949 400.399C247.799 400.224 246.671 399.972 245.56 399.658L245.556 399.671ZM260.591 346.867C259.556 346.574 258.478 346.336 257.394 346.166C250.317 345.063 243.228 346.792 237.437 351.015C231.647 355.239 227.863 361.476 226.758 368.553C224.488 383.167 234.516 396.914 249.143 399.186C256.22 400.29 263.309 398.561 269.1 394.337C274.891 390.113 278.675 383.877 279.779 376.799C281.888 363.285 273.453 350.508 260.603 346.87L260.591 346.867Z" fill="#FFB700"/>
<path d="M258.351 394.938C270.675 392.118 278.379 379.843 275.559 367.52C272.738 355.198 260.46 347.496 248.136 350.316C235.812 353.136 228.108 365.412 230.928 377.734C233.749 390.056 246.027 397.759 258.351 394.938Z" fill="white"/>
<path d="M248.593 388.439L249.181 384.681C246.566 384.159 244.119 383.043 242.755 381.946L244.652 377.505C246.16 378.671 248.357 379.853 250.909 380.261C253.151 380.609 254.815 379.972 255.069 378.403C255.305 376.897 254.197 375.763 251.433 374.324C247.447 372.252 244.88 369.83 245.489 365.996C246.036 362.527 248.892 360.177 253.231 359.997L253.819 356.239L257.677 356.839L257.131 360.308C259.746 360.829 261.429 361.661 262.623 362.492L260.785 366.771C259.838 366.175 258.16 364.989 255.329 364.556C252.773 364.161 251.775 365.137 251.597 366.248C251.389 367.557 252.634 368.593 255.79 370.375C260.205 372.76 261.754 375.222 261.211 378.774C260.666 382.285 257.718 384.91 253.068 384.988L252.443 389.023L248.584 388.423L248.593 388.439Z" fill="#F2AC57"/>
<path d="M313.639 398.488C331.432 394.588 342.693 377.005 338.793 359.216C334.892 341.426 317.306 330.167 299.514 334.067C281.721 337.967 270.46 355.549 274.361 373.339C278.261 391.128 295.847 402.388 313.639 398.488Z" fill="#D79A00"/>
<path d="M337.321 360.599C334.746 343.116 318.484 331.03 300.998 333.604C283.513 336.178 271.424 352.437 273.999 369.92C276.573 387.403 292.835 399.489 310.321 396.915C327.807 394.341 339.895 378.082 337.321 360.599Z" fill="#FFB700"/>
<path d="M310.731 397.889C303.507 399.019 296.152 397.724 289.663 394.096C281.981 389.814 276.427 382.799 274.025 374.324C271.626 365.865 272.65 356.979 276.945 349.28C281.227 341.599 288.242 336.045 296.716 333.643C314.185 328.682 332.434 338.852 337.396 356.321C339.796 364.78 338.771 373.666 334.476 381.365C330.194 389.047 323.18 394.601 314.705 397.002C313.393 397.379 312.067 397.664 310.728 397.874L310.731 397.889ZM300.859 334.226C299.612 334.421 298.346 334.697 297.107 335.047C289.021 337.341 282.313 342.66 278.211 350.001C274.11 357.343 273.135 365.847 275.429 373.933C280.177 390.626 297.609 400.363 314.317 395.614C322.403 393.32 329.111 388.001 333.213 380.659C337.315 373.318 338.289 364.813 335.995 356.727C331.615 341.286 316.356 331.801 300.874 334.224L300.859 334.226Z" fill="#FFB700"/>
<path d="M322.049 386.571C333.804 377.521 335.996 360.658 326.945 348.905C317.895 337.152 301.028 334.961 289.273 344.01C277.518 353.059 275.326 369.923 284.377 381.676C293.428 393.428 310.295 395.62 322.049 386.571Z" fill="white"/>
<path d="M308.459 384.426L307.242 380.132C304.199 380.858 301.043 380.868 299.051 380.367L298.895 374.703C301.074 375.206 303.996 375.39 306.916 374.573C309.478 373.844 310.939 372.35 310.44 370.553C309.953 368.832 308.215 368.166 304.563 367.988C299.298 367.733 295.373 366.41 294.142 362.024C293.024 358.058 294.916 354.152 299.453 351.832L298.236 347.538L302.644 346.286L303.762 350.252C306.806 349.525 309.009 349.587 310.689 349.887L310.829 355.35C309.526 355.178 307.155 354.737 303.925 355.664C301.007 356.496 300.422 358.025 300.777 359.298C301.198 360.795 303.033 361.289 307.272 361.641C313.148 362.019 316.006 363.884 317.17 367.937C318.311 371.946 316.455 376.19 311.537 378.554L312.849 383.161L308.441 384.414L308.459 384.426Z" fill="#F2AC57"/>
<path d="M381.851 406.292C398.123 403.009 408.651 387.158 405.368 370.889C402.084 354.62 386.231 344.093 369.959 347.377C353.687 350.66 343.158 366.51 346.442 382.779C349.726 399.048 365.579 409.575 381.851 406.292Z" fill="#D79A00"/>
<path d="M404.005 372.127C401.925 356.158 387.29 344.898 371.318 346.977C355.346 349.057 344.084 363.689 346.164 379.658C348.244 395.628 362.878 406.888 378.851 404.808C394.823 402.728 406.085 388.097 404.005 372.127Z" fill="#FFB700"/>
<path d="M379.21 405.702C372.61 406.622 365.928 405.33 360.071 401.926C353.136 397.907 348.181 391.43 346.122 383.672C344.064 375.928 345.132 367.846 349.163 360.896C353.182 353.962 359.658 349.007 367.416 346.948C383.409 342.692 399.883 352.237 404.139 368.23C406.197 375.975 405.129 384.056 401.098 391.006C397.079 397.941 390.603 402.895 382.845 404.954C381.643 405.277 380.43 405.517 379.208 405.688L379.21 405.702ZM371.182 347.542C370.043 347.701 368.885 347.933 367.751 348.233C360.348 350.2 354.155 354.945 350.306 361.572C346.457 368.2 345.439 375.934 347.407 383.337C351.479 398.619 367.216 407.757 382.512 403.683C389.915 401.716 396.108 396.971 399.957 390.344C403.806 383.716 404.824 375.982 402.856 368.579C399.1 354.443 385.34 345.568 371.196 347.54L371.182 347.542Z" fill="#FFB700"/>
<path d="M389.695 395.561C400.544 387.494 402.797 372.161 394.729 361.314C386.66 350.467 371.325 348.214 360.476 356.281C349.628 364.348 347.374 379.681 355.442 390.528C363.511 401.375 378.846 403.628 389.695 395.561Z" fill="white"/>
<path d="M377.344 393.4L376.3 389.469C373.516 390.084 370.64 390.045 368.833 389.558L368.777 384.395C370.755 384.886 373.414 385.098 376.088 384.398C378.433 383.773 379.787 382.434 379.36 380.789C378.942 379.213 377.369 378.58 374.044 378.362C369.25 378.05 365.694 376.785 364.639 372.769C363.68 369.139 365.464 365.608 369.633 363.564L368.589 359.632L372.625 358.558L373.584 362.189C376.368 361.573 378.375 361.663 379.901 361.961L379.945 366.941C378.761 366.766 376.607 366.327 373.65 367.123C370.978 367.837 370.422 369.221 370.726 370.386C371.087 371.757 372.751 372.235 376.608 372.62C381.957 373.054 384.533 374.797 385.532 378.507C386.51 382.178 384.755 386.017 380.238 388.096L381.363 392.314L377.328 393.388L377.344 393.4Z" fill="#F2AC57"/>
<path d="M230.642 378.401C226.302 378.401 222.632 381.699 222.195 386.056C221.962 388.294 221.845 390.591 221.845 392.887C221.845 437.139 262.653 473 312.986 473C363.318 473 404.126 437.139 404.126 392.887C404.126 390.591 404.01 388.294 403.777 386.056C403.34 381.699 399.67 378.401 395.33 378.401H230.642Z" fill="url(#paint8_linear_1463_1563)"/>
<path d="M399.116 370.305H226.884C220.321 370.305 215 375.683 215 382.317V388.971C215 395.606 220.321 400.984 226.884 400.984H399.116C405.679 400.984 411 395.606 411 388.971V382.317C411 375.683 405.679 370.305 399.116 370.305Z" fill="url(#paint9_linear_1463_1563)"/>
<path d="M331.132 431.957V432.428C331.132 432.428 331.103 432.458 331.103 432.487C331.103 432.634 331.074 432.811 331.045 432.958C331.045 433.105 330.986 433.223 330.928 433.37C330.812 433.753 330.55 433.959 330.142 433.959C329.122 433.959 328.074 433.959 327.054 433.959H326.938C326.938 433.959 326.996 434.106 327.083 434.136C327.491 434.313 327.782 434.578 327.986 434.99C328.103 435.255 328.161 435.52 328.161 435.814C328.161 439.465 328.161 443.145 328.161 446.796C328.161 446.914 328.161 447.002 328.161 447.12C328.132 447.473 327.87 447.768 327.52 447.827C327.404 447.827 327.287 447.827 327.142 447.827C325.86 447.827 324.608 447.827 323.326 447.827C322.976 447.827 322.714 447.709 322.539 447.385C322.452 447.208 322.423 447.032 322.423 446.826C322.423 445.589 322.423 444.352 322.423 443.086V442.998H303.636C303.636 442.998 303.636 443.057 303.636 443.086C303.636 444.323 303.636 445.53 303.636 446.767C303.636 446.885 303.636 446.973 303.636 447.091C303.577 447.503 303.257 447.797 302.849 447.797C301.742 447.797 300.665 447.797 299.558 447.797C299.266 447.797 298.946 447.797 298.655 447.797C298.276 447.797 297.985 447.444 297.956 447.15C297.956 446.973 297.927 446.767 297.927 446.59C297.927 442.969 297.927 439.377 297.927 435.755C297.927 435.579 297.927 435.402 297.985 435.225C298.13 434.666 298.48 434.283 299.004 434.077C299.092 434.048 299.121 433.989 299.121 433.9C299.092 433.9 299.033 433.9 299.004 433.9C297.985 433.9 296.936 433.9 295.917 433.9C295.567 433.9 295.276 433.724 295.189 433.4C295.014 432.899 294.897 432.399 294.956 431.869C294.985 431.545 295.072 431.221 295.189 430.897C295.305 430.573 295.567 430.456 295.917 430.456C296.383 430.456 296.849 430.456 297.315 430.456C297.868 430.456 298.451 430.456 299.004 430.456C299.441 430.456 299.703 430.662 299.82 431.074C299.878 431.221 299.907 431.398 299.966 431.545C299.995 431.545 300.024 431.486 300.024 431.457C300.286 430.721 300.519 430.014 300.781 429.278C301.247 428.012 301.713 426.716 302.15 425.45C302.383 424.773 302.82 424.243 303.461 423.919C303.869 423.713 304.306 423.654 304.772 423.654C310.277 423.654 315.811 423.654 321.316 423.654C321.491 423.654 321.695 423.654 321.87 423.684C322.831 423.861 323.501 424.39 323.879 425.303C324.229 426.216 324.549 427.129 324.87 428.041C325.277 429.16 325.685 430.308 326.093 431.457C326.093 431.486 326.122 431.516 326.151 431.545C326.21 431.339 326.268 431.133 326.326 430.956C326.384 430.75 326.501 430.603 326.705 430.515C326.85 430.456 326.996 430.426 327.142 430.426C327.812 430.426 328.452 430.426 329.122 430.426C329.53 430.426 329.938 430.426 330.346 430.426C330.637 430.426 330.841 430.603 330.957 430.868C331.074 431.192 331.19 431.516 331.19 431.839C331.19 431.898 331.19 431.928 331.19 431.987C331.19 431.957 331.19 431.898 331.19 431.869L331.132 431.957ZM302.237 433.989H323.734C323.734 433.989 323.734 433.93 323.734 433.9C323.413 433.017 323.093 432.134 322.772 431.221C322.452 430.279 322.103 429.366 321.782 428.424C321.607 427.894 321.403 427.394 321.229 426.864C321.229 426.775 321.17 426.775 321.083 426.775C317.646 426.775 314.209 426.775 310.801 426.775C308.849 426.775 306.898 426.775 304.946 426.775C304.888 426.775 304.859 426.775 304.859 426.864C304.684 427.335 304.539 427.776 304.364 428.247C304.131 428.925 303.869 429.602 303.606 430.308C303.344 431.044 303.082 431.751 302.82 432.487C302.645 432.988 302.441 433.488 302.267 434.018L302.237 433.989ZM303.577 439.082C303.84 439.082 304.073 439.082 304.335 439.082C304.597 439.082 304.83 439.082 305.092 439.082C305.267 439.082 305.442 439.082 305.587 439.053C306.228 438.935 306.694 438.287 306.636 437.64C306.578 436.933 306.024 436.403 305.354 436.403C304.189 436.403 303.024 436.403 301.83 436.403C301.102 436.403 300.432 437.051 300.548 437.963C300.635 438.611 301.189 439.112 301.83 439.112C302.412 439.112 302.995 439.112 303.577 439.112V439.082ZM322.423 436.374C321.87 436.374 321.287 436.374 320.734 436.374C320.646 436.374 320.588 436.374 320.501 436.374C319.976 436.432 319.51 436.845 319.394 437.375C319.248 437.905 319.481 438.493 319.918 438.817C320.209 439.023 320.559 439.082 320.908 439.082C321.899 439.082 322.918 439.082 323.908 439.082C324.083 439.082 324.258 439.082 324.404 439.053C325.132 438.906 325.598 438.17 325.423 437.404C325.277 436.786 324.753 436.374 324.141 436.374C323.559 436.374 322.976 436.374 322.423 436.374Z" fill="#E85754"/>
</g>
<g clip-path="url(#clip2_1463_1563)">
<path d="M494.27 386.934C512.834 384.771 526.149 367.796 524.011 349.019C521.873 330.242 505.091 316.773 486.528 318.936C467.964 321.099 454.649 338.074 456.787 356.851C458.925 375.628 475.707 389.096 494.27 386.934Z" fill="#D79A00"/>
<path d="M522.365 350.292C521.549 331.97 506.204 317.787 488.091 318.613C469.978 319.438 455.956 334.96 456.772 353.282C457.588 371.603 472.934 385.786 491.047 384.961C509.16 384.135 523.182 368.613 522.365 350.292Z" fill="#FFB700"/>
<path d="M491.363 386.01C483.873 386.42 476.501 384.312 470.254 379.886C462.857 374.66 457.915 366.834 456.342 357.833C454.769 348.847 456.735 339.779 461.916 332.279C467.082 324.796 474.817 319.796 483.715 318.205C502.058 314.912 519.629 327.325 522.885 345.883C524.457 354.869 522.491 363.937 517.31 371.436C512.144 378.919 504.409 383.919 495.511 385.511C494.133 385.762 492.75 385.918 491.362 385.994L491.363 386.01ZM487.882 319.241C486.589 319.311 485.269 319.464 483.969 319.695C475.478 321.216 468.08 326.005 463.134 333.157C458.187 340.308 456.311 348.986 457.815 357.576C460.931 375.309 477.714 387.19 495.258 384.037C503.749 382.515 511.147 377.726 516.094 370.575C521.04 363.424 522.916 354.745 521.413 346.156C518.542 329.753 503.951 318.36 487.898 319.24L487.882 319.241Z" fill="#FFB700"/>
<path d="M504.088 375.509C517.023 367.397 521.007 350.214 512.987 337.131C504.967 324.047 487.98 320.017 475.045 328.129C462.111 336.241 458.126 353.424 466.146 366.508C474.166 379.591 491.154 383.622 504.088 375.509Z" fill="white"/>
<path d="M490.439 371.872L489.642 367.31C486.46 367.741 483.238 367.42 481.258 366.694L481.686 360.83C483.857 361.577 486.82 362.073 489.886 361.536C492.575 361.051 494.221 359.662 493.898 357.754C493.579 355.926 491.875 355.056 488.166 354.489C482.818 353.675 478.95 351.897 478.148 347.24C477.417 343.027 479.753 339.193 484.624 337.273L483.827 332.711L488.455 331.88L489.186 336.092C492.368 335.661 494.61 335.956 496.293 336.441L495.87 342.097C494.559 341.783 492.184 341.079 488.792 341.698C485.727 342.251 484.972 343.769 485.202 345.12C485.476 346.71 487.298 347.412 491.588 348.22C497.546 349.226 500.27 351.451 501.038 355.758C501.787 360.017 499.454 364.205 494.189 366.13L495.051 371.025L490.422 371.856L490.439 371.872Z" fill="#F2AC57"/>
<path d="M543.398 375.956C558.648 374.18 569.585 360.235 567.829 344.811C566.073 329.386 552.287 318.322 537.038 320.099C521.789 321.875 510.851 335.82 512.607 351.244C514.364 366.669 528.149 377.733 543.398 375.956Z" fill="#D79A00"/>
<path d="M566.477 345.856C565.806 330.806 553.201 319.155 538.322 319.833C523.443 320.512 511.924 333.262 512.595 348.313C513.266 363.363 525.871 375.014 540.75 374.336C555.629 373.657 567.148 360.907 566.477 345.856Z" fill="#FFB700"/>
<path d="M541.01 375.197C534.857 375.534 528.801 373.803 523.67 370.167C517.594 365.873 513.534 359.445 512.242 352.051C510.95 344.669 512.565 337.221 516.821 331.06C521.065 324.913 527.419 320.806 534.728 319.498C549.796 316.793 564.23 326.99 566.904 342.235C568.195 349.616 566.581 357.065 562.324 363.226C558.081 369.373 551.727 373.48 544.418 374.787C543.286 374.994 542.149 375.122 541.009 375.184L541.01 375.197ZM538.151 320.349C537.089 320.407 536.004 320.533 534.936 320.722C527.962 321.972 521.884 325.906 517.821 331.78C513.757 337.655 512.216 344.784 513.452 351.84C516.011 366.407 529.798 376.166 544.21 373.576C551.184 372.327 557.262 368.392 561.325 362.518C565.389 356.644 566.93 349.515 565.695 342.459C563.336 328.985 551.351 319.626 538.164 320.348L538.151 320.349Z" fill="#FFB700"/>
<path d="M551.463 366.571C562.088 359.908 565.361 345.793 558.773 335.045C552.185 324.297 538.231 320.987 527.606 327.651C516.98 334.315 513.707 348.429 520.295 359.177C526.884 369.925 540.838 373.235 551.463 366.571Z" fill="white"/>
<path d="M540.251 363.583L539.596 359.836C536.983 360.19 534.336 359.926 532.709 359.33L533.06 354.513C534.844 355.127 537.278 355.534 539.796 355.093C542.006 354.695 543.358 353.553 543.093 351.986C542.831 350.485 541.431 349.77 538.384 349.305C533.991 348.636 530.813 347.175 530.154 343.349C529.554 339.889 531.473 336.739 535.474 335.162L534.819 331.415L538.622 330.732L539.222 334.192C541.835 333.838 543.677 334.08 545.06 334.479L544.712 339.124C543.635 338.867 541.685 338.288 538.898 338.797C536.38 339.251 535.76 340.498 535.949 341.608C536.174 342.914 537.671 343.491 541.195 344.155C546.089 344.981 548.327 346.809 548.957 350.347C549.573 353.845 547.656 357.285 543.331 358.867L544.039 362.888L540.237 363.571L540.251 363.583Z" fill="#F2AC57"/>
<path d="M462.398 400.771C477.47 404.106 492.362 394.45 495.658 379.204C498.955 363.958 489.409 348.895 474.337 345.56C459.264 342.226 444.373 351.882 441.076 367.128C437.779 382.374 447.325 397.436 462.398 400.771Z" fill="#D79A00"/>
<path d="M494.035 379.753C498.244 365.221 490.009 349.989 475.642 345.731C461.275 341.474 446.216 349.804 442.008 364.336C437.799 378.869 446.034 394.101 460.401 398.358C474.768 402.615 489.826 394.286 494.035 379.753Z" fill="#FFB700"/>
<path d="M460.371 399.263C454.412 397.556 449.211 393.915 445.502 388.767C441.107 382.682 439.316 375.232 440.469 367.775C441.617 360.33 445.551 353.779 451.582 349.323C457.597 344.876 464.962 343.064 472.333 344.229C487.533 346.621 497.974 361.073 495.608 376.45C494.459 383.895 490.525 390.446 484.494 394.902C478.479 399.349 471.115 401.161 463.743 399.996C462.6 399.819 461.479 399.567 460.374 399.25L460.371 399.263ZM475.314 346.166C474.286 345.871 473.214 345.633 472.137 345.461C465.103 344.352 458.057 346.091 452.301 350.338C446.546 354.585 442.784 360.856 441.687 367.973C439.43 382.668 449.398 396.491 463.936 398.776C470.97 399.886 478.016 398.147 483.772 393.9C489.527 389.653 493.289 383.381 494.386 376.265C496.482 362.675 488.099 349.827 475.327 346.169L475.314 346.166Z" fill="#FFB700"/>
<path d="M473.089 394.505C485.339 391.669 492.996 379.325 490.192 366.935C487.389 354.544 475.185 346.798 462.936 349.634C450.686 352.47 443.029 364.814 445.832 377.205C448.636 389.595 460.839 397.341 473.089 394.505Z" fill="white"/>
<path d="M463.389 387.969L463.973 384.191C461.374 383.666 458.942 382.543 457.587 381.44L459.472 376.975C460.971 378.147 463.154 379.336 465.691 379.746C467.92 380.096 469.573 379.456 469.825 377.878C470.06 376.364 468.959 375.223 466.212 373.777C462.249 371.693 459.698 369.257 460.304 365.402C460.847 361.914 463.686 359.551 467.999 359.37L468.583 355.591L472.418 356.194L471.875 359.682C474.474 360.207 476.147 361.043 477.334 361.878L475.507 366.181C474.566 365.582 472.898 364.389 470.084 363.954C467.543 363.557 466.552 364.538 466.374 365.656C466.168 366.972 467.405 368.013 470.543 369.806C474.931 372.204 476.47 374.679 475.93 378.251C475.389 381.781 472.458 384.421 467.837 384.5L467.215 388.557L463.38 387.953L463.389 387.969Z" fill="#F2AC57"/>
<path d="M527.617 409.348C545.212 401.58 553.25 380.854 545.57 363.056C537.89 345.258 517.4 337.128 499.804 344.897C482.209 352.665 474.171 373.391 481.851 391.189C489.532 408.987 510.022 417.117 527.617 409.348Z" fill="#D79A00"/>
<path d="M544.331 364.808C538.084 347.056 518.793 337.787 501.243 344.105C483.693 350.423 474.529 369.936 480.776 387.688C487.022 405.44 506.313 414.709 523.863 408.391C541.413 402.073 550.577 382.56 544.331 364.808Z" fill="#FFB700"/>
<path d="M524.487 409.325C517.25 412.005 509.381 412.175 501.929 409.726C493.108 406.84 485.928 400.655 481.707 392.289C477.492 383.939 476.729 374.432 479.591 365.489C482.443 356.566 488.556 349.302 496.825 345.034C513.868 336.221 534.82 343.075 543.533 360.318C547.748 368.668 548.511 378.174 545.649 387.118C542.797 396.041 536.684 403.304 528.415 407.573C527.135 408.239 525.822 408.813 524.482 409.309L524.487 409.325ZM501.227 344.784C499.978 345.247 498.726 345.798 497.517 346.42C489.628 350.496 483.782 357.451 481.047 365.98C478.312 374.51 479.048 383.607 483.078 391.589C491.409 408.064 511.428 414.634 527.728 406.202C535.618 402.126 541.463 395.171 544.198 386.642C546.933 378.112 546.197 369.015 542.167 361.033C534.473 345.791 516.752 339.034 501.242 344.778L501.227 344.784Z" fill="#FFB700"/>
<path d="M533.869 395.14C544.166 383.237 542.975 365.144 531.208 354.728C519.44 344.312 501.553 345.517 491.256 357.42C480.959 369.323 482.15 387.415 493.917 397.831C505.685 408.247 523.572 407.042 533.869 395.14Z" fill="white"/>
<path d="M519.378 395.715L517.24 391.475C514.242 392.866 510.981 393.53 508.819 393.419L507.497 387.528C509.853 387.602 512.911 387.188 515.763 385.728C518.262 384.435 519.466 382.569 518.582 380.793C517.725 379.094 515.793 378.758 511.98 379.328C506.484 380.154 502.155 379.584 499.983 375.251C498.013 371.335 499.169 366.857 503.384 363.491L501.246 359.251L505.546 357.027L507.516 360.943C510.513 359.553 512.803 359.16 514.602 359.125L515.866 364.81C514.485 364.901 511.943 364.931 508.794 366.571C505.947 368.046 505.656 369.767 506.284 371.024C507.026 372.503 509.024 372.639 513.479 372.129C519.632 371.305 522.969 372.663 525.003 376.661C527.005 380.618 525.957 385.442 521.356 388.934L523.658 393.481L519.357 395.705L519.378 395.715Z" fill="#F2AC57"/>
<path d="M572.736 395.666C588.664 402.484 607.04 394.95 613.78 378.839C620.521 362.727 613.073 344.14 597.145 337.322C581.217 330.504 562.841 338.038 556.1 354.149C549.36 370.26 556.808 388.848 572.736 395.666Z" fill="#D79A00"/>
<path d="M611.879 379.106C619.479 363.972 613.511 345.471 598.548 337.783C583.585 330.096 565.295 336.134 557.695 351.268C550.095 366.403 556.064 384.904 571.027 392.591C585.989 400.279 604.28 394.241 611.879 379.106Z" fill="#FFB700"/>
<path d="M570.811 393.582C564.592 390.459 559.604 385.361 556.567 378.916C552.964 371.295 552.51 362.712 555.3 354.736C558.083 346.773 563.753 340.375 571.307 336.723C578.841 333.077 587.324 332.616 595.209 335.437C611.469 341.243 620.028 359.345 614.287 375.795C611.504 383.758 605.833 390.156 598.28 393.808C590.746 397.453 582.262 397.914 574.377 395.093C573.154 394.66 571.969 394.148 570.817 393.569L570.811 393.582ZM598.099 338.193C597.026 337.654 595.894 337.168 594.742 336.755C587.217 334.065 579.099 334.511 571.892 337.991C564.684 341.47 559.262 347.596 556.602 355.208C551.12 370.93 559.285 388.239 574.838 393.789C582.363 396.479 590.481 396.032 597.688 392.553C604.896 389.074 610.318 382.948 612.978 375.335C618.058 360.799 611.439 344.894 598.112 338.2L598.099 338.193Z" fill="#FFB700"/>
<path d="M585.792 390.992C599.868 390.421 610.821 378.418 610.257 364.18C609.694 349.943 597.827 338.864 583.751 339.434C569.676 340.004 558.723 352.008 559.286 366.245C559.85 380.482 571.717 391.562 585.792 390.992Z" fill="white"/>
<path d="M576.438 381.767L577.852 377.725C575.095 376.605 572.644 374.861 571.376 373.363L574.364 368.836C575.776 370.44 577.939 372.205 580.651 373.186C583.035 374.036 584.988 373.676 585.588 371.99C586.155 370.371 585.174 368.884 582.442 366.718C578.501 363.595 576.186 360.38 577.639 356.258C578.949 352.528 582.559 350.516 587.347 351.216L588.761 347.174L592.864 348.639L591.554 352.369C594.312 353.489 595.985 354.759 597.122 355.927L594.232 360.287C593.317 359.43 591.722 357.768 588.71 356.702C585.992 355.735 584.7 356.609 584.276 357.803C583.781 359.21 584.932 360.616 588.023 363.245C592.37 366.803 593.561 369.852 592.238 373.675C590.922 377.451 587.155 379.748 582.047 378.871L580.535 383.212L576.432 381.747L576.438 381.767Z" fill="#F2AC57"/>
<path d="M547.761 399.584C562.703 403.139 577.665 393.769 581.18 378.655C584.695 363.541 575.431 348.407 560.489 344.851C545.547 341.296 530.584 350.667 527.07 365.781C523.555 380.895 532.819 396.029 547.761 399.584Z" fill="#D79A00"/>
<path d="M579.558 379.175C583.969 364.785 576.012 349.503 561.786 345.042C547.56 340.58 532.452 348.629 528.041 363.018C523.63 377.408 531.587 392.69 545.813 397.152C560.039 401.613 575.147 393.565 579.558 379.175Z" fill="#FFB700"/>
<path d="M545.769 398.052C539.867 396.26 534.749 392.555 531.139 387.376C526.861 381.254 525.195 373.815 526.456 366.414C527.713 359.027 531.728 352.572 537.796 348.235C543.848 343.906 551.202 342.22 558.516 343.495C573.599 346.114 583.763 360.655 581.173 375.914C579.915 383.302 575.901 389.756 569.833 394.094C563.781 398.423 556.427 400.109 549.112 398.834C547.978 398.64 546.866 398.371 545.772 398.039L545.769 398.052ZM561.452 345.468C560.433 345.159 559.371 344.905 558.302 344.718C551.322 343.503 544.286 345.122 538.495 349.256C532.704 353.389 528.866 359.569 527.665 366.631C525.194 381.213 534.896 395.121 549.322 397.623C556.303 398.838 563.338 397.22 569.129 393.086C574.92 388.952 578.758 382.772 579.96 375.71C582.255 362.225 574.113 349.312 561.465 345.472L561.452 345.468Z" fill="#FFB700"/>
<path d="M558.493 393.519C570.722 390.891 578.53 378.733 575.932 366.363C573.333 353.993 561.314 346.096 549.085 348.724C536.856 351.352 529.048 363.51 531.646 375.88C534.244 388.249 546.264 396.147 558.493 393.519Z" fill="white"/>
<path d="M548.945 386.865L549.585 383.115C547.007 382.552 544.605 381.397 543.274 380.278L545.218 375.866C546.691 377.056 548.844 378.273 551.361 378.721C553.573 379.104 555.228 378.493 555.504 376.928C555.76 375.425 554.682 374.273 551.972 372.791C548.062 370.656 545.562 368.193 546.224 364.367C546.818 360.906 549.679 358.6 553.971 358.488L554.611 354.738L558.417 355.398L557.822 358.86C560.4 359.422 562.052 360.281 563.219 361.13L561.336 365.382C560.409 364.771 558.767 363.558 555.975 363.081C553.454 362.646 552.453 363.606 552.259 364.715C552.034 366.021 553.248 367.077 556.341 368.909C560.67 371.364 562.163 373.851 561.571 377.395C560.977 380.898 558.022 383.478 553.423 383.483L552.742 387.509L548.936 386.848L548.945 386.865Z" fill="#F2AC57"/>
<path d="M445.641 377.876C441.301 377.876 437.631 381.192 437.194 385.573C436.961 387.823 436.844 390.133 436.844 392.442C436.844 436.94 477.652 473 527.985 473C578.317 473 619.125 436.94 619.125 392.442C619.125 390.133 619.009 387.823 618.776 385.573C618.339 381.192 614.669 377.876 610.329 377.876H445.641Z" fill="url(#paint10_linear_1463_1563)"/>
<path d="M614.116 369.735H441.884C435.321 369.735 430 375.143 430 381.814V388.505C430 395.176 435.321 400.584 441.884 400.584H614.116C620.679 400.584 626 395.176 626 388.505V381.814C626 375.143 620.679 369.735 614.116 369.735Z" fill="url(#paint11_linear_1463_1563)"/>
<path d="M518.2 421.072C519.074 421.368 519.627 422.019 520.122 422.73C521.142 424.121 521.841 425.661 522.452 427.259C522.482 427.348 522.452 427.467 522.452 427.555C522.103 428.325 521.928 429.124 521.928 429.953C521.928 430.694 521.928 431.404 521.928 432.085C521.462 432.085 521.025 432.026 520.588 432.085C520.064 432.144 519.627 432.44 519.278 432.825C519.19 432.914 519.103 433.032 519.015 433.121C518.782 433.358 518.578 433.358 518.345 433.121C518.025 432.825 517.705 432.559 517.384 432.292C517.326 432.233 517.268 432.144 517.268 432.085C516.743 429.805 516.365 427.496 516.365 425.128C516.365 424.239 516.452 423.322 516.714 422.463C516.889 421.871 517.18 421.368 517.763 421.131H518.229L518.2 421.072ZM518.491 428.029C518.666 428.029 518.811 427.881 518.899 427.674C518.986 427.407 519.074 427.141 519.161 426.874C519.423 426.075 519.685 425.276 519.947 424.447C520.035 424.18 519.918 423.914 519.656 423.855C519.423 423.766 519.161 423.855 519.074 424.151C519.044 424.239 519.015 424.328 518.986 424.417C518.666 425.394 518.345 426.342 518.025 427.319C517.909 427.703 518.083 428.029 518.491 428.029ZM519.511 431.7C519.773 431.7 519.918 431.552 520.006 431.286C520.18 430.723 520.384 430.161 520.559 429.598C520.705 429.124 520.88 428.651 521.025 428.177C521.113 427.851 521.025 427.615 520.763 427.526C520.501 427.437 520.268 427.555 520.151 427.881C520.122 427.999 520.064 428.118 520.035 428.207C519.714 429.154 519.423 430.072 519.103 431.019C518.986 431.375 519.19 431.7 519.511 431.7Z" fill="#E85754"/>
<path d="M516.334 447.658V432.973C516.713 432.973 517.004 433.121 517.267 433.358C517.412 433.506 517.558 433.684 517.733 433.832C518.315 434.394 519.072 434.394 519.655 433.832C519.801 433.713 519.917 433.565 520.034 433.417C520.645 432.825 521.432 432.825 522.014 433.417C522.16 433.565 522.306 433.713 522.451 433.861C522.976 434.365 523.704 434.365 524.257 433.861C524.403 433.713 524.548 433.565 524.723 433.388C525.335 432.796 526.092 432.796 526.704 433.388C526.85 433.536 526.966 433.684 527.112 433.802C527.665 434.335 528.422 434.335 528.976 433.802C529.151 433.654 529.296 433.477 529.442 433.329C529.995 432.796 530.753 432.796 531.306 433.329C531.452 433.477 531.597 433.625 531.743 433.773C532.326 434.365 533.083 434.365 533.665 433.773C533.928 433.506 534.219 433.269 534.481 433.003L534.539 433.062V447.628H516.334V447.658Z" fill="#E85754"/>
<path d="M539.695 432.974V447.688H535.5V433.033C535.704 433.181 535.879 433.299 536.025 433.418C536.2 433.566 536.316 433.743 536.491 433.862C537.015 434.335 537.743 434.335 538.268 433.862C538.442 433.714 538.588 433.536 538.763 433.358C539.025 433.122 539.316 432.944 539.695 432.944V432.974Z" fill="#E85754"/>
<path d="M535.006 428.266C535.326 428.206 535.646 428.118 535.996 428.118C536.753 428.118 537.336 428.532 537.714 429.183C538.326 430.22 538.443 431.345 538.181 432.499C538.122 432.795 537.744 433.032 537.481 433.239C537.423 433.299 537.219 433.239 537.103 433.151C536.957 433.062 536.87 432.914 536.753 432.795C535.821 431.729 534.219 431.729 533.287 432.795C532.763 433.417 532.588 433.417 532.064 432.795C531.248 431.848 530.025 431.759 528.831 432.558C528.831 432.174 528.831 431.818 528.889 431.463C529.093 429.983 529.617 428.68 530.782 427.703C531.743 426.904 532.879 426.904 533.666 427.644C533.782 427.762 533.899 427.91 534.044 428.058C534.19 427.496 534.394 426.993 534.773 426.578C535.355 425.927 536.083 425.719 536.928 425.838C537.248 425.867 537.423 426.104 537.394 426.371C537.365 426.637 537.132 426.815 536.812 426.756C535.792 426.608 535.093 427.348 534.977 428.236L535.006 428.266Z" fill="#E85754"/>
<path d="M528.48 424.417C528.48 424.831 528.48 425.216 528.48 425.601C528.48 425.779 528.538 425.868 528.684 425.927C529.266 426.164 529.762 426.489 530.199 426.993C528.334 428.68 527.723 430.812 527.927 433.328C527.752 433.18 527.577 433.032 527.431 432.855C526.587 431.878 525.189 431.759 524.198 432.559C524.024 432.707 523.849 432.914 523.703 433.092C523.557 433.24 523.383 433.358 523.179 433.269C522.975 433.18 522.858 433.032 522.858 432.766C522.858 431.789 522.858 430.812 522.858 429.864C522.858 428.088 523.849 426.637 525.451 425.957C525.626 425.897 525.655 425.808 525.655 425.631C525.655 425.246 525.655 424.861 525.655 424.476H528.451L528.48 424.417Z" fill="#E85754"/>
<path d="M528.917 422.049V423.441H525.218V422.049H528.917Z" fill="#E85754"/>
</g>
<g clip-path="url(#clip3_1463_1563)">
<path d="M626.771 120.027C653.315 101.934 660.147 65.7627 642.031 39.235C623.915 12.7073 587.711 5.8691 561.167 23.9615C534.623 42.0538 527.791 78.2255 545.907 104.753C564.023 131.281 600.227 138.119 626.771 120.027Z" fill="#D79A00"/>
<path d="M640.325 106.721C660.158 82.6858 656.729 47.1309 632.667 27.307C608.606 7.48306 573.022 10.897 553.19 34.9322C533.357 58.9675 536.786 94.5224 560.847 114.346C584.909 134.17 620.492 130.756 640.325 106.721Z" fill="#FFB700"/>
<path d="M586.117 127.378C585.685 127.297 585.253 127.215 584.823 127.119C553.748 120.532 533.827 89.9161 540.416 58.8705C546.997 27.831 577.609 7.9321 608.699 14.5215C623.751 17.7115 636.659 26.566 645.047 39.456C653.434 52.346 656.295 67.7243 653.107 82.7622C649.92 97.8001 641.062 110.695 628.164 119.071C615.635 127.208 600.749 130.134 586.111 127.37L586.117 127.378ZM607.006 16.4998C577.589 10.9436 548.876 29.9366 542.642 59.345C536.316 89.16 555.454 118.571 585.297 124.895C599.761 127.966 614.537 125.219 626.925 117.171C639.313 109.123 647.82 96.7402 650.887 82.2966C653.948 67.8516 651.203 53.0815 643.144 40.7008C635.085 28.3201 622.689 19.8169 608.233 16.747C607.824 16.6621 607.416 16.5773 607.006 16.4998Z" fill="#FFB700"/>
<path d="M643.187 80.2675C648.403 54.6479 631.843 29.6478 606.201 24.4283C580.558 19.2088 555.543 35.7464 550.327 61.366C545.112 86.9856 561.671 111.986 587.314 117.205C612.956 122.425 637.972 105.887 643.187 80.2675Z" fill="white"/>
<path d="M585.577 102.613L587.193 94.9984C581.873 93.6158 576.959 91.068 574.288 88.6587L578.679 79.7941C581.654 82.3534 586.032 85.039 591.249 86.1478C595.821 87.1192 599.325 86.0151 600.007 82.8123C600.653 79.7646 598.494 77.2978 592.981 74.0355C585.009 69.3292 580.003 64.0803 581.656 56.3103C583.15 49.2584 589.298 44.7822 598.234 44.9199L599.85 37.3049L607.709 38.9743L606.215 46.0263C611.534 47.4089 614.906 49.2951 617.282 51.1399L613.034 59.6997C611.137 58.3776 607.836 55.7489 602.062 54.5271C596.845 53.4184 594.689 55.3094 594.211 57.5558C593.649 60.2028 596.098 62.4778 602.373 66.4856C611.204 71.8784 614.123 77.1032 612.592 84.3101C611.082 91.444 604.732 96.4603 595.172 96.1122L593.436 104.283L585.577 102.613Z" fill="#F2AC57"/>
</g>
<g clip-path="url(#clip4_1463_1563)">
<path d="M200.022 112.157C210.672 88.8964 200.441 61.4237 177.171 50.7949C153.901 40.1661 126.403 50.4062 115.754 73.6668C105.104 96.9273 115.335 124.4 138.605 135.029C161.875 145.658 189.373 135.417 200.022 112.157Z" fill="#D79A00"/>
<path d="M203.786 97.5065C207.414 72.9568 190.442 50.128 165.878 46.5169C141.314 42.9058 118.459 59.88 114.832 84.4297C111.204 108.979 128.176 131.808 152.74 135.419C177.304 139.03 200.158 122.056 203.786 97.5065Z" fill="#FFB700"/>
<path d="M175.332 133.903C175.004 134.025 174.675 134.147 174.343 134.258C150.446 142.559 124.262 129.886 115.976 106.008C107.686 82.1375 120.366 55.9706 144.274 47.666C155.849 43.6454 168.294 44.3688 179.318 49.7044C190.342 55.04 198.622 64.3466 202.639 75.9109C206.655 87.4753 205.924 99.9125 200.579 110.932C195.386 121.637 186.442 129.759 175.324 133.899L175.332 133.903ZM143.934 49.7118C121.591 58.0322 109.834 82.7994 117.689 105.415C125.648 128.346 150.802 140.52 173.751 132.547C184.876 128.687 193.819 120.733 198.952 110.147C204.085 99.5606 204.787 87.6171 200.934 76.5073C197.074 65.3996 189.123 56.4596 178.533 51.336C167.943 46.2125 155.992 45.5177 144.872 49.3753C144.559 49.4856 144.245 49.5959 143.934 49.7118Z" fill="#FFB700"/>
<path d="M194.849 78.2933C187.859 58.68 166.279 48.452 146.649 55.4484C127.018 62.4448 116.77 84.0162 123.76 103.629C130.75 123.243 152.33 133.471 171.96 126.474C191.591 119.478 201.839 97.9065 194.849 78.2933Z" fill="white"/>
<path d="M164.77 117.241L162.737 111.385C158.541 112.632 154.142 112.917 151.329 112.374L150.674 104.523C153.756 105.044 157.846 105.072 161.86 103.681C165.376 102.461 167.311 100.266 166.458 97.8018C165.643 95.4584 163.156 94.6651 158.055 94.7101C150.682 94.783 145.109 93.2652 143.037 87.2876C141.153 81.8648 143.503 76.2824 149.651 72.6982L147.618 66.8415L153.664 64.7448L155.548 70.1675C159.743 68.9205 162.819 68.8185 165.198 69.0981L165.825 76.6827C163.988 76.5618 160.655 76.1285 156.215 77.6724C152.202 79.0639 151.511 81.2404 152.11 82.9688C152.816 85.0047 155.423 85.5475 161.35 85.697C169.59 85.7388 173.731 88.0994 175.654 93.643C177.561 99.1279 175.296 105.162 168.635 108.86L170.815 115.145L164.77 117.241Z" fill="#F2AC57"/>
</g>
<defs>
<linearGradient id="paint0_linear_1463_1563" x1="338.626" y1="81.908" x2="306.048" y2="181.352" gradientUnits="userSpaceOnUse">
<stop stop-color="#F7C3AF"/>
<stop offset="1" stop-color="#F79480"/>
</linearGradient>
<linearGradient id="paint1_linear_1463_1563" x1="316.526" y1="80.3715" x2="316.526" y2="125.802" gradientUnits="userSpaceOnUse">
<stop stop-color="#F7C3AF"/>
<stop offset="1" stop-color="#F79480"/>
</linearGradient>
<linearGradient id="paint2_linear_1463_1563" x1="185.463" y1="282.731" x2="191.631" y2="333.75" gradientUnits="userSpaceOnUse">
<stop stop-color="#F7C0AB"/>
<stop offset="1" stop-color="#F7A18F"/>
</linearGradient>
<linearGradient id="paint3_linear_1463_1563" x1="448.186" y1="277.266" x2="467.168" y2="239.891" gradientUnits="userSpaceOnUse">
<stop stop-color="#F7C0AB"/>
<stop offset="1" stop-color="#F7A18F"/>
</linearGradient>
<linearGradient id="paint4_linear_1463_1563" x1="532.823" y1="186.711" x2="502.179" y2="206.753" gradientUnits="userSpaceOnUse">
<stop stop-color="#F7C0AB"/>
<stop offset="1" stop-color="#F7A18F"/>
</linearGradient>
<linearGradient id="paint5_linear_1463_1563" x1="120.12" y1="196.519" x2="81.9401" y2="160.326" gradientUnits="userSpaceOnUse">
<stop stop-color="#F7C0AB"/>
<stop offset="1" stop-color="#F7A18F"/>
</linearGradient>
<linearGradient id="paint6_linear_1463_1563" x1="98.0148" y1="473.41" x2="98.0148" y2="412.832" gradientUnits="userSpaceOnUse">
<stop stop-color="#C1210D"/>
<stop offset="0.52" stop-color="#C1210D"/>
<stop offset="1" stop-color="#9D1D06"/>
</linearGradient>
<linearGradient id="paint7_linear_1463_1563" x1="48.7888" y1="386.13" x2="187.903" y2="386.13" gradientUnits="userSpaceOnUse">
<stop stop-color="#C1210D"/>
<stop offset="0.52" stop-color="#C1210D"/>
<stop offset="1" stop-color="#9D1D06"/>
</linearGradient>
<linearGradient id="paint8_linear_1463_1563" x1="313.015" y1="473.412" x2="313.015" y2="412.496" gradientUnits="userSpaceOnUse">
<stop stop-color="#C1210D"/>
<stop offset="0.52" stop-color="#C1210D"/>
<stop offset="1" stop-color="#9D1D06"/>
</linearGradient>
<linearGradient id="paint9_linear_1463_1563" x1="263.789" y1="385.644" x2="402.903" y2="385.644" gradientUnits="userSpaceOnUse">
<stop stop-color="#C1210D"/>
<stop offset="0.52" stop-color="#C1210D"/>
<stop offset="1" stop-color="#9D1D06"/>
</linearGradient>
<linearGradient id="paint10_linear_1463_1563" x1="528.014" y1="473.414" x2="528.014" y2="412.159" gradientUnits="userSpaceOnUse">
<stop stop-color="#C1210D"/>
<stop offset="0.52" stop-color="#C1210D"/>
<stop offset="1" stop-color="#9D1D06"/>
</linearGradient>
<linearGradient id="paint11_linear_1463_1563" x1="478.789" y1="385.159" x2="617.903" y2="385.159" gradientUnits="userSpaceOnUse">
<stop stop-color="#C1210D"/>
<stop offset="0.52" stop-color="#C1210D"/>
<stop offset="1" stop-color="#9D1D06"/>
</linearGradient>
<clipPath id="clip0_1463_1563">
<rect width="479" height="634" fill="white" transform="translate(78)"/>
</clipPath>
<clipPath id="clip1_1463_1563">
<rect width="196" height="141" fill="white" transform="translate(215 332)"/>
</clipPath>
<clipPath id="clip2_1463_1563">
<rect width="196" height="155" fill="white" transform="translate(430 318)"/>
</clipPath>
<clipPath id="clip3_1463_1563">
<rect width="118.323" height="117.361" fill="white" transform="translate(547.781 3) rotate(10.696)"/>
</clipPath>
<clipPath id="clip4_1463_1563">
<rect width="94.2302" height="93.4641" fill="white" transform="translate(98 64.8857) rotate(-20.4255)"/>
</clipPath>
</defs>
</svg>
