<svg width="522" height="489" viewBox="0 0 522 489" fill="none" xmlns="http://www.w3.org/2000/svg">
<g clip-path="url(#clip0_1_29213)">
<path d="M178.291 439.494C177.262 440.17 177.262 441.774 178.291 442.425C188.931 449.315 237.588 478.077 308.578 478.077C379.568 478.077 430.784 453.173 443.783 446.384C445.038 445.732 444.962 443.828 443.683 443.227L425.364 434.884C419.542 432.228 412.918 432.529 407.297 435.636C392.642 443.703 359.518 458.434 312.844 458.434C266.169 458.434 221.227 442.25 202.532 434.132C196.258 431.401 189.107 432.128 183.385 435.986L178.266 439.444L178.291 439.494Z" fill="#DB7B62"/>
<path d="M75.5576 449.49C74.4535 450.167 74.4535 451.77 75.5576 452.421C86.9752 459.311 139.145 488.073 215.28 488.073C291.414 488.073 346.344 463.17 360.296 456.38C361.626 455.729 361.576 453.824 360.196 453.223L340.548 444.88C334.299 442.225 327.198 442.525 321.15 445.632C305.441 453.699 269.909 468.431 219.872 468.431C169.835 468.431 121.605 452.246 101.58 444.129C94.8296 441.398 87.2011 442.124 81.028 445.983L75.5325 449.44L75.5576 449.49Z" fill="#E7956E"/>
<path d="M178.517 368.366L134.227 457.232" stroke="#E7956E" stroke-width="4" stroke-miterlimit="10"/>
<path d="M249.131 380.041L230.335 443.878" stroke="#DB7B62" stroke-width="4" stroke-miterlimit="10"/>
<path d="M279.645 371.698L303.886 456.38" stroke="#E7956E" stroke-width="4" stroke-miterlimit="10"/>
<path d="M346.495 322.468L412.115 433.857" stroke="#DB7B62" stroke-width="4" stroke-miterlimit="10"/>
<path d="M67.5775 177.531C67.5775 177.531 64.2401 195.62 67.2011 214.085C70.1622 232.549 142.984 299.719 172.57 306.734C202.155 313.749 226.546 260.96 226.546 260.96C226.546 260.96 67.9289 150.598 67.5775 177.531Z" fill="#B82D28"/>
<path d="M419.417 473.091C418.313 472.991 417.635 472.966 417.635 472.966L410.659 463.57L393.821 466.126C399.267 478.001 394.072 484.165 394.072 484.165L393.871 486.269L415.628 486.845C415.603 484.039 417.886 477.25 419.417 473.041V473.091Z" fill="url(#paint0_linear_1_29213)"/>
<path d="M419.417 473.091C417.886 477.3 415.603 484.089 415.628 486.895L393.872 486.319L393.596 489.025C393.596 489.025 416.28 488.724 426.594 488.349C432.466 488.148 437.635 487.071 440.973 486.194C443.382 485.568 444.185 482.536 442.428 480.782C436.631 475.045 424.059 473.492 419.417 473.116V473.091Z" fill="#EA4956"/>
<path d="M489.855 363.556C489.855 363.556 487.948 358.344 487.948 347.296C487.948 343.037 489.855 340.155 492.189 338.176C482.553 337.75 473.594 338.076 473.594 338.076L472.44 359.221C476.229 359.347 481.273 359.672 481.624 360.549C482.201 361.952 489.855 363.556 489.855 363.556Z" fill="url(#paint1_linear_1_29213)"/>
<path d="M511.461 340.882C506.969 339.254 499.366 338.502 492.164 338.176C489.83 340.156 487.923 343.062 487.923 347.296C487.923 358.345 489.83 363.556 489.83 363.556C489.83 363.556 482.176 361.952 481.599 360.549C481.248 359.672 476.204 359.347 472.415 359.221L472.039 366.362C472.039 366.362 494.623 366.562 507.069 365.159C519.516 363.756 522 355.739 522 353.108C522 350.478 522 344.69 511.486 340.857L511.461 340.882Z" fill="#EA4956"/>
<path d="M294.726 320.714C294.927 320.638 285.166 320.037 285.442 320.037C295.002 319.536 305.291 321.916 312.618 330.635C318.616 337.8 321.426 346.619 323.961 354.712C325.943 361.05 328.578 366.888 332.292 372.876C336.056 378.989 340.246 384.927 343.458 391.24C346.871 397.904 365.039 426.29 369.154 433.33C373.496 440.771 384.537 461.541 388.326 469.132C389.079 470.636 394.399 471.713 395.929 471.512C406.168 470.16 407.196 471.387 416.657 468.556C403.006 427.468 391.162 370.946 376.507 329.958C370.459 313.022 364.939 293.881 350.886 279.525C335.93 264.242 315.027 259.758 296.508 257.954C272.945 255.674 250.687 259.232 228.905 262.864C226.622 261.261 223.761 260.885 222.256 263.315C217.563 271.007 212.569 278.548 208.178 286.44C204.389 293.205 202.105 301.848 207.726 310.542C212.946 318.634 222.431 322.067 230.838 322.543C241.402 323.169 251.791 321.54 262.13 321.165C272.669 320.789 273.271 320.087 283.936 320.137C284.212 320.137 294.5 320.689 294.776 320.689L294.726 320.714Z" fill="url(#paint2_linear_1_29213)"/>
<path style="mix-blend-mode:multiply" d="M378.439 326.852C376.582 309.59 355.829 294.608 345.315 279.976C344.612 278.999 343.885 278.072 343.107 277.17C334.474 278.723 325.993 282.231 317.586 284.185C303.735 287.417 288.979 287.918 275.228 284.06C268.076 282.056 261.075 279.4 253.773 277.922C246.697 276.494 239.444 276.669 232.293 277.446C222.857 278.473 213.623 280.628 204.363 282.732C203.184 284.16 202.005 285.588 200.875 287.041C195.43 293.931 190.988 302.75 194.451 311.594C197.688 319.837 206.296 323.344 214.602 323.845C225.016 324.472 235.806 322.818 246.245 322.442C256.885 322.066 267.524 321.891 278.164 321.966C278.44 321.966 278.716 321.966 279.017 321.966C279.243 321.891 279.494 321.841 279.77 321.816C289.481 321.29 304.011 314.575 309.18 323.47C311.263 327.077 318.189 337.224 318.941 341.358C324.663 339.83 339.995 337.374 346.193 337.049C354.273 336.623 366.419 334.894 373.696 331.011C376.833 329.332 378.464 326.902 378.464 326.852H378.439Z" fill="url(#paint3_linear_1_29213)"/>
<path d="M477.76 329.482C476.807 328.631 402.68 284.185 391.262 275.617C377.511 265.295 372.918 260.434 361.526 256.927C353.27 254.396 344.788 256.025 337.812 258.731C334.851 258.781 331.89 258.831 328.929 258.856C285.994 259.457 240.248 265.67 197.463 269.629C173.8 271.809 150.212 274.89 126.799 279.074C124.014 279.575 123.587 282.306 124.691 284.26C124.34 300.846 130.814 333.266 142.734 345.692C154.101 357.518 263.434 342.861 302.656 336.823C319.544 334.218 337.511 331.687 354.173 326.376C370.384 333.14 430.182 359.647 439.793 363.13C444.511 364.833 473.042 374.98 478.011 376.458C480.596 359.823 478.864 340.907 477.735 329.457L477.76 329.482Z" fill="url(#paint4_linear_1_29213)"/>
<path d="M143.561 103.597C140.55 101.969 137.514 100.29 134.251 99.1629C130.989 98.0355 128.028 98.0104 124.641 97.9102C118.267 97.7348 113.474 92.5487 107.652 90.3941C103.988 89.0412 106.197 83.379 109.885 84.7319C113.022 85.9094 125.594 85.8593 127.928 88.3647C131.215 91.8973 137.087 92.4986 141.353 94.4277C143.185 95.2545 145.092 96.3318 146.246 98.0104C149.107 102.194 145.795 104.8 143.586 103.597H143.561Z" fill="#FFAA8C"/>
<path d="M163.712 79.3453C163.386 79.22 161.88 78.0425 159.546 77.6917C161.88 78.0676 165.619 75.7626 159.12 72.9566C159.973 71.7791 160.023 70.2007 158.417 69.1985C155.105 67.119 151.541 65.0145 147.351 64.6387C142.482 64.2128 138.016 66.2171 133.424 67.3946C123.788 69.875 113.499 68.6473 104.566 73.4577C104.24 73.633 103.964 73.8585 103.738 74.084C97.3388 76.6896 90.965 79.4455 84.8422 82.5772C83.0354 83.5042 81.2538 84.4563 80.6515 86.3353C79.9489 88.515 85.7957 96.7827 87.8283 96.0812C94.9298 93.6761 102.006 91.2709 109.108 88.8657C109.534 89.3167 110.137 89.6424 110.94 89.7677C118.945 91.0204 127.251 90.7698 135.205 88.8156C139.873 87.6632 143.06 87.0368 147.752 88.1642C151.717 89.0912 153.624 89.0912 157.564 90.0433C161.529 90.9953 166.046 86.4856 162.056 85.5336C154.804 83.8049 146.372 80.3976 138.643 82.001C139.647 81.7004 140.651 81.3997 141.654 81.0991C145.193 80.0468 147.702 79.7211 151.14 80.9487C153.448 81.7755 155.757 82.6524 158.066 83.5042C161.88 84.9072 167.476 80.7483 163.687 79.3453H163.712Z" fill="#FFAA8C"/>
<path d="M158.467 77.4413C155.531 76.4141 152.52 75.3368 149.358 75.3618C146.046 75.3618 142.784 76.6897 139.647 77.6417C139.145 77.7921 138.919 77.0154 139.421 76.84C142.633 75.8629 145.945 74.5351 149.358 74.51C152.57 74.51 155.657 75.5873 158.668 76.6396C159.17 76.815 158.969 77.6167 158.467 77.4413Z" fill="#CC6654"/>
<path d="M157.639 72.9317C151.516 70.301 144.565 70.4764 138.593 73.3826C138.116 73.6081 137.69 72.9066 138.166 72.6811C144.44 69.6246 151.642 69.4492 158.041 72.2051C158.517 72.4055 158.116 73.1321 157.639 72.9317Z" fill="#CC6654"/>
<path d="M251.715 259.332C250.461 249.235 238.391 231.472 234.275 222.202C228.755 209.725 225.116 199.478 222.657 187.377C219.47 171.619 218.165 159.943 216.559 146.941C213.924 125.444 204.715 125.545 192.82 120.609C168.078 110.337 156.987 111.715 133.9 110.688C121.855 110.137 109.785 109.936 97.7151 110.086C87.5521 110.237 75.3566 109.034 66.6741 115.398C59.3719 120.759 61.0531 132.384 62.082 140.176C63.5374 151.4 68.1547 162.574 70.0367 173.673C74.5034 200.03 109.333 225.935 114.402 270.28C114.704 272.911 123.11 311.243 129.107 312.145C146.322 314.726 178.743 293.831 181.127 292.077C183.686 290.198 185.242 287.066 186.898 284.461C189.558 280.327 192.243 276.193 194.903 272.059C200.524 271.408 206.145 270.807 211.766 270.205C220.072 269.303 251.74 259.307 251.74 259.307L251.715 259.332Z" fill="white"/>
<path d="M163.085 109.034C163.085 112.191 159.797 127.474 159.396 130.756C158.342 131.182 156.535 128.877 155.431 129.203C150.011 130.706 145.293 132.535 140.299 130.004C132.922 126.246 131.441 118.354 126.874 111.941C131.918 95.43 106.749 75.387 107.226 58.0999C107.276 55.82 109.208 54.7928 110.965 54.9682C111.793 54.8679 112.696 55.0934 113.524 55.7949C120.676 62.2338 126.423 66.6432 133.399 71.8043C136.31 73.9339 139.446 76.2138 142.985 78.8194C144.114 79.6462 159.371 85.183 160.073 90.6698C161.203 99.3384 161.88 99.9397 162.633 105.151C162.783 106.228 162.934 107.481 163.085 109.034Z" fill="url(#paint5_linear_1_29213)"/>
<path d="M191.566 265.245C181.302 230.194 171.19 195.094 161.177 159.969C158.342 149.997 155.506 140.051 152.696 130.079C152.545 129.578 151.767 129.779 151.893 130.305C161.83 165.455 171.892 200.556 182.08 235.631C184.966 245.577 187.877 255.524 190.763 265.47C190.913 265.971 191.716 265.771 191.566 265.245Z" fill="#3B291E"/>
<path d="M170.612 115.423C169.684 112.216 162.808 103.698 162.608 104.525C160.976 111.69 157.413 120.634 152.771 126.246C152.369 126.747 151.642 126.822 151.09 126.472C142.482 120.985 130.789 113.995 127.552 103.698C127.301 102.921 126.322 102.996 126.021 103.547C125.946 103.598 121.479 107.581 120.074 110.061C119.045 111.84 120.149 114.421 120.751 116.175C122.382 120.86 123.838 125.495 126.422 129.754C128.856 133.737 131.868 137.32 135.004 140.727C136.861 142.757 138.794 144.936 140.927 146.84C141.88 147.692 143.386 147.517 144.139 146.49C147.426 141.955 150.387 136.869 152.143 131.733C152.219 131.533 152.344 131.432 152.495 131.432C152.67 131.282 152.972 131.257 153.097 131.533C155.732 136.919 159.646 141.529 164.088 145.513C164.766 146.114 165.845 145.913 166.221 145.087C170.487 135.241 171.566 118.655 170.638 115.423H170.612Z" fill="#FFEBDE"/>
<path d="M88.7818 114.245C74.3278 94.7034 29.0336 57.3482 24.1403 56.2458C18.8958 55.0433 14.1028 57.4234 10.0628 60.6052C1.65635 67.2695 -2.50921 76.1135 1.55598 86.5609C3.76423 92.2231 7.62866 97.2339 11.0916 102.195C14.3287 106.804 17.5909 111.389 20.9283 115.949C28.2055 125.87 35.7337 135.591 43.5378 145.112C51.091 154.331 59.3218 165.405 67.6278 173.974C74.3278 180.863 81.4294 185.849 91.517 184.822C91.9436 184.772 95.1054 183.87 96.1594 182.818C115.532 163.075 101.555 131.558 88.8069 114.295L88.7818 114.245Z" fill="white"/>
<path d="M83.1357 100.466C73.7005 101.768 63.9892 101.368 54.4786 100.015C53.5 99.7892 25.2946 98.1356 16.562 93.0748C8.5822 88.4649 2.73536 71.4784 4.31626 66.9186C7.45298 57.8491 23.6384 53.114 34.3786 52.9386C46.6745 52.7382 125.042 67.1692 125.092 68.3216C124.189 73.8335 119.246 90.7448 118.417 96.2566C106.448 94.8035 94.9298 98.8371 83.1608 100.466H83.1357Z" fill="white"/>
<path d="M197.689 160.269C198.893 160.946 202.206 160.745 202.607 160.645C212.369 158.741 215.43 159.092 219.796 151.676C225.217 142.456 229.859 131.182 234.401 121.611C239.068 111.74 243.46 101.769 247.525 91.722C249.407 87.1121 251.214 82.4772 252.945 77.8422C254.827 72.8816 257.061 67.7455 257.562 62.5093C258.466 52.8886 252.117 46.8256 242.356 43.6688C237.663 42.1656 232.519 41.5393 227.927 43.9194C223.636 46.1492 193.272 88.5402 185.142 108.383C177.965 125.895 168.379 144.059 197.714 160.244L197.689 160.269Z" fill="white"/>
<path d="M194.653 86.636C203.787 86.16 212.795 84.0054 221.377 80.9488C222.231 80.573 248.253 73.7834 255.254 67.3195C261.653 61.4319 263.158 43.9945 260.624 39.8856C255.58 31.7432 239.319 30.1147 229.232 31.9185C217.689 33.9729 147.677 62.2336 147.903 63.336C150.036 68.472 158.593 83.855 160.651 89.0161C171.541 85.4334 183.235 87.2123 194.627 86.611L194.653 86.636Z" fill="white"/>
<path d="M89.5597 149.822C85.6702 160.495 78.393 169.288 70.7896 177.205C70.5136 177.506 70.1121 177.03 70.4132 176.729C77.9413 168.888 85.1432 160.194 89.0077 149.621C90.9148 144.385 91.9185 138.848 91.6425 133.311C91.3665 128 90.1118 122.864 88.8571 117.803C88.7567 117.402 89.3339 117.252 89.4343 117.653C90.6889 122.764 91.9687 127.925 92.2447 133.286C92.5208 138.873 91.517 144.485 89.5848 149.797L89.5597 149.822Z" fill="#3B291E"/>
<path d="M82.0819 101.944C69.3092 99.3384 54.7297 95.8058 48.1803 83.2789C47.9293 82.8029 48.6319 82.402 48.8829 82.853C55.332 95.1794 69.7358 98.5868 82.2827 101.142C82.8096 101.242 82.6089 102.044 82.0819 101.944Z" fill="#3B291E"/>
<path d="M198.391 83.0033C203.812 71.1779 210.537 57.7741 224.238 54.2165C224.74 54.0912 224.991 54.8679 224.489 54.9932C211.014 58.5007 204.464 71.7291 199.144 83.3791C198.918 83.8551 198.191 83.4793 198.416 83.0033H198.391Z" fill="#3B291E"/>
<g style="mix-blend-mode:multiply" opacity="0.5">
<path d="M126.473 92.4735C126.473 92.4735 134.754 103.848 145.092 103.723C155.431 103.597 161.077 97.4091 161.077 97.4091L159.722 88.8157L126.473 92.4735Z" fill="#CC6654"/>
</g>
<path d="M135.76 86.209C157.4 81.774 171.154 59.7521 166.481 37.0217C161.808 14.2913 140.477 -0.540104 118.837 3.89485C97.1969 8.32981 83.4428 30.3517 88.1161 53.0821C92.7894 75.8125 114.12 90.6439 135.76 86.209Z" fill="#656565"/>
<path d="M169.132 51.3101L163.812 40.5871C163.812 40.5871 164.766 27.4339 159.596 15.9592C159.596 15.9592 175.104 29.4883 169.132 51.3352V51.3101Z" fill="#656565"/>
<path d="M104.892 66.543C104.892 66.543 97.7906 63.0355 94.428 69.6246C90.7392 76.8151 104.541 92.7743 113.273 82.6275L104.892 66.543Z" fill="#FFC2B3"/>
<path d="M108.857 80.2472C108.606 80.2974 108.33 80.2222 108.154 79.9967C103.261 73.9086 98.6686 74.5851 98.6435 74.5851C98.242 74.6603 97.8907 74.3847 97.8154 73.9838C97.7653 73.5829 98.0162 73.2322 98.4177 73.157C98.6435 73.132 103.863 72.3553 109.283 79.0948C109.534 79.3954 109.484 79.8464 109.183 80.0969C109.083 80.1721 108.982 80.2222 108.882 80.2472H108.857Z" fill="#F48073"/>
<path d="M133.388 77.1768C155.027 72.7418 169.057 52.0605 164.724 30.9836C160.39 9.90683 139.335 -3.58405 117.695 0.850906C96.0553 5.28586 82.0256 25.9672 86.3589 47.044C90.6923 68.1209 111.748 81.6117 133.388 77.1768Z" fill="#656565"/>
<path d="M100.877 47.4018C100.877 47.4018 102.985 99.163 141.655 99.8895C181.077 100.641 167.702 33.6974 167.702 33.6974C167.702 33.6974 162.006 7.09026 128.505 13.955C97.8157 20.2435 100.877 47.3768 100.877 47.3768V47.4018Z" fill="url(#paint6_linear_1_29213)"/>
<path d="M148.103 76.3138L145.443 76.865C145.067 76.9401 144.69 76.6896 144.59 76.3138C144.49 75.938 144.766 75.5622 145.142 75.462L147.802 74.9108C148.053 74.8607 148.254 74.7103 148.379 74.5099C148.505 74.3095 148.53 74.0589 148.455 73.8084L145.995 64.9644C145.895 64.5886 146.121 64.1877 146.497 64.0875C146.899 63.9873 147.275 64.2128 147.376 64.5886L149.835 73.4075C150.035 74.0088 149.935 74.6853 149.609 75.2365C149.283 75.7877 148.731 76.1885 148.103 76.3138Z" fill="#F48073"/>
<path d="M148.982 83.2036C143.11 84.4062 139.546 82.1013 139.396 81.976C139.07 81.7505 138.969 81.3246 139.195 80.9738C139.421 80.6481 139.847 80.573 140.174 80.7734C140.349 80.8987 144.615 83.6295 151.642 80.9237C151.993 80.7734 152.419 80.9738 152.57 81.3246C152.721 81.7004 152.52 82.1013 152.169 82.2516C151.039 82.6775 149.985 83.0032 148.982 83.2036Z" fill="#F48073"/>
<path d="M119.622 58.0246C122.081 56.6216 129.258 54.1913 135.23 53.0389C135.933 52.8885 136.184 52.0618 135.657 51.6359C134.051 50.3581 129.459 48.0031 123.988 50.4333C123.988 50.4333 120.049 52.5378 117.991 56.6717C117.865 56.9473 117.84 57.2479 117.991 57.5235C118.242 58.1248 119.045 58.3753 119.647 58.0246H119.622Z" fill="#2B232A"/>
<path d="M164.565 48.4792C161.755 48.1535 154.201 48.7547 148.254 50.0325C147.552 50.1828 146.999 49.5064 147.326 48.9051C148.304 47.1012 151.592 43.1427 157.564 43.2179C157.564 43.2179 162.031 43.6187 165.544 46.6001C165.77 46.8005 165.895 47.0761 165.895 47.3768C165.895 48.0282 165.268 48.5794 164.565 48.5042V48.4792Z" fill="#2B232A"/>
<path d="M129.81 66.7434C127.828 66.7434 126.297 66.2173 126.272 66.2173C125.946 66.092 125.77 65.7413 125.896 65.4156C126.021 65.0899 126.372 64.9145 126.699 65.0398C126.95 65.1149 132.847 67.0942 135.657 62.4843C135.833 62.1836 136.234 62.1085 136.51 62.2838C136.811 62.4592 136.912 62.8601 136.711 63.1357C134.929 66.067 132.069 66.7685 129.81 66.7685V66.7434Z" fill="#2B232A"/>
<path d="M155.631 60.2294C154.678 60.1542 153.624 59.9287 152.495 59.4527C152.168 59.3274 152.018 58.9516 152.168 58.6259C152.294 58.3002 152.67 58.1499 152.997 58.3002C158.04 60.4047 161.252 57.1728 161.378 57.0475C161.629 56.797 162.005 56.797 162.256 57.0475C162.507 57.2981 162.507 57.6739 162.256 57.9244C162.231 57.9495 159.697 60.5551 155.606 60.2294H155.631Z" fill="#2B232A"/>
<path d="M100.626 58.1498L104.892 46.9507C104.892 46.9507 102.684 33.9478 106.699 22.0222C106.699 22.0222 92.5711 36.9793 100.626 58.1498Z" fill="#656565"/>
<path d="M98.8193 34.6493C98.8193 34.6493 151.366 52.0367 171.215 12.1009C171.215 12.1009 117.439 -25.3545 98.8193 34.6493Z" fill="#656565"/>
<path d="M216.233 206.268C214.853 199.027 213.473 191.762 212.092 184.521C211.365 180.638 211.013 177.055 211.842 173.172C212.494 170.065 213.272 167.009 213.699 163.877C214.727 156.135 215.781 156.311 213.949 148.694C213.849 148.243 213.046 148.444 213.146 148.895C214.853 156.01 213.824 155.284 213.021 162.524C212.293 169.113 209.709 175.377 210.788 182.041C213.121 196.422 216.233 210.753 218.968 225.083C220.524 233.276 222.08 241.444 223.636 249.636C223.711 250.087 224.514 249.887 224.439 249.436C221.703 235.055 218.968 220.674 216.208 206.293L216.233 206.268Z" fill="#3B291E"/>
<path d="M66.0972 205.592C66.0972 205.592 84.7167 365.31 228.228 383.223C228.228 383.223 292.267 398.105 353.471 325.424C353.471 325.424 320.322 328.38 290.009 292.578C259.695 256.777 222.858 257.628 184.414 269.078C145.971 280.528 140.048 272.761 140.048 272.761C140.048 272.761 104.315 256.025 96.7868 235.105C91.6175 220.699 72.22 203.863 66.0972 205.567V205.592Z" fill="#FCA04B"/>
</g>
<defs>
<linearGradient id="paint0_linear_1_29213" x1="393.328" y1="476.303" x2="419.513" y2="474.883" gradientUnits="userSpaceOnUse">
<stop stop-color="#F7C3AF"/>
<stop offset="1" stop-color="#F79480"/>
</linearGradient>
<linearGradient id="paint1_linear_1_29213" x1="472.44" y1="350.778" x2="492.189" y2="350.778" gradientUnits="userSpaceOnUse">
<stop stop-color="#F7C3AF"/>
<stop offset="1" stop-color="#F79480"/>
</linearGradient>
<linearGradient id="paint2_linear_1_29213" x1="130.714" y1="363.991" x2="301.778" y2="363.991" gradientUnits="userSpaceOnUse">
<stop stop-color="#454545"/>
<stop offset="1" stop-color="#2E2E2E"/>
</linearGradient>
<linearGradient id="paint3_linear_1_29213" x1="193.222" y1="309.114" x2="378.439" y2="309.114" gradientUnits="userSpaceOnUse">
<stop stop-color="#454545"/>
<stop offset="1" stop-color="#2E2E2E"/>
</linearGradient>
<linearGradient id="paint4_linear_1_29213" x1="344.788" y1="411.634" x2="261.568" y2="237.532" gradientUnits="userSpaceOnUse">
<stop stop-color="#454545"/>
<stop offset="1" stop-color="#2E2E2E"/>
</linearGradient>
<linearGradient id="paint5_linear_1_29213" x1="138.668" y1="67.5953" x2="124.334" y2="139.007" gradientUnits="userSpaceOnUse">
<stop stop-color="#F7C3AF"/>
<stop offset="1" stop-color="#F79480"/>
</linearGradient>
<linearGradient id="paint6_linear_1_29213" x1="139.551" y1="68.0592" x2="147.147" y2="105.122" gradientUnits="userSpaceOnUse">
<stop stop-color="#F7C3AF"/>
<stop offset="1" stop-color="#F79480"/>
</linearGradient>
<clipPath id="clip0_1_29213">
<rect width="522" height="489" fill="white"/>
</clipPath>
</defs>
</svg>
