<svg width="682" height="547" viewBox="0 0 682 547" fill="none" xmlns="http://www.w3.org/2000/svg">
<g clip-path="url(#clip0_1461_1562)">
<path d="M162.526 456.697C176.508 430.606 191.177 366.325 176.987 362.09C164.794 358.437 135.456 355.594 115.044 357.649C105.659 358.603 89.6795 358.396 82.6675 365.827C77.9442 370.808 79.4423 382.016 79.5464 388.243C79.7544 400.801 81.8352 413.233 84.2904 425.5C86.8705 438.328 93.0087 452.027 99.8959 462.052C98.1481 465.352 96.754 468.839 95.776 472.451C95.0062 475.315 98.2729 478.221 100.978 476.457C103.932 474.526 106.18 471.6 108.136 468.445C114.399 470.022 125.78 472.409 131.773 472.285C135.996 472.202 153.183 468.237 155.847 465.996C156.055 465.809 156.263 465.622 156.492 465.414C157.366 468.59 158.531 471.683 159.987 474.713C161.798 478.532 167.228 475.709 166.521 471.973C165.543 466.763 164.211 461.678 162.567 456.655L162.526 456.697Z" fill="#E8D5D5"/>
<path d="M162.526 456.697C174.844 433.699 187.723 381.02 180.857 365.951C180.711 369.687 180.045 373.423 179.13 376.806C176.529 386.479 171.057 395.155 161.423 398.912C157.053 400.614 152.413 401.548 147.981 403.105C141.781 405.305 137.016 409.061 133.104 414.334C129.671 418.962 126.966 424.11 123.387 428.655C119.309 433.824 114.294 437.788 108.177 440.299C102.309 442.728 96.1713 443.537 89.9707 443.62C92.7797 450.345 96.2337 456.718 99.8958 462.052C98.148 465.352 96.7539 468.839 95.7759 472.451C95.0061 475.315 98.2728 478.221 100.978 476.457C103.932 474.526 106.18 471.6 108.135 468.445C114.398 470.022 125.78 472.409 131.773 472.285C135.996 472.202 153.183 468.237 155.847 465.996C156.055 465.809 156.263 465.622 156.492 465.414C157.365 468.59 158.531 471.683 159.987 474.713C161.797 478.532 167.228 475.709 166.521 471.973C165.543 466.764 164.211 461.678 162.567 456.655L162.526 456.697Z" fill="#F7EBEB"/>
<path d="M175.239 365.515C176.591 360.762 144.007 359.973 139.638 359.766C130.191 359.309 120.599 359.309 111.09 360.202C105.472 360.741 98.585 360.97 93.5912 363.087C81.9808 367.964 98.148 370.019 103.371 370.497C110.299 371.119 117.332 371.431 124.386 371.431C177.153 371.431 175.135 365.889 175.239 365.515Z" fill="#A66359"/>
<path d="M57.9898 189.42C66.0214 193.426 70.6407 201.521 77.1117 207.374C80.2952 210.239 83.8949 212.356 88.0772 213.414C92.9044 214.639 99.5003 215.345 104.099 217.296C103.599 216.445 103.724 216.507 103.204 215.698C103.1 215.531 100.874 213.996 100.978 213.892C88.5765 202.766 80.753 187.303 67.6236 176.821C61.2982 171.757 54.0781 168.249 45.9216 167.46C40.803 166.962 35.8093 166.796 31.1485 164.451C27.1743 162.437 23.7619 159.511 20.4951 156.543C17.5821 153.907 14.5234 150.191 10.7989 148.697C7.82349 147.514 4.59837 148.593 2.47603 150.918C-3.51647 157.477 2.58006 166.215 7.61542 170.927C13.92 176.821 20.9737 183.007 29.7544 184.646C39.2009 186.411 49.1051 184.999 57.9898 189.42Z" fill="#2E6857"/>
<path d="M212.9 264.495C212.734 262.855 212.089 260.884 210.611 259.95C209.092 258.995 207.199 259.472 205.701 260.219C201.706 262.233 199.355 266.425 197.024 270.037C194.09 274.583 191.115 279.149 187.349 283.051C183.146 287.389 177.923 290.71 172.18 292.62C168.768 293.761 163.941 294.01 160.757 295.671C159.675 296.833 158.26 298.888 157.449 300.237C158.676 299.801 161.569 299.905 162.692 300.299C163.878 300.715 165.085 301.026 166.313 301.254C168.622 301.669 170.973 301.752 173.304 301.545C177.861 301.15 182.293 299.698 186.308 297.539C195.193 292.807 201.768 284.815 207.615 276.824C210.258 273.233 213.379 269.186 212.9 264.474V264.495Z" fill="#697B5F"/>
<path d="M74.8646 152.039C74.9686 152.661 75.4472 152.744 75.5928 153.346C75.6136 150.731 75.7801 144.732 76.113 142.159C76.7164 137.53 77.7152 132.943 79.1093 128.48C79.4214 127.443 79.7751 126.425 80.1288 125.408C83.3747 116.317 88.743 108.43 93.2998 99.9822C95.443 96.0178 97.3156 91.8873 98.564 87.57C99.8333 83.2112 100.291 78.7487 100.458 74.2446C100.832 64.3647 101.248 54.6093 102.497 44.7917C103.329 38.1705 103.641 28.7679 96.0256 25.8413C87.9523 22.7487 83.0834 32.338 81.3772 38.5441C76.7372 55.4188 82.3968 72.8124 81.7726 89.8739C81.5853 95.146 80.649 100.231 79.0676 105.275C77.4655 110.443 75.6969 115.508 74.8438 120.863C73.4081 129.85 73.5537 140.913 74.1987 149.942C74.3652 149.735 74.8021 151.665 74.8438 151.997L74.8646 152.039Z" fill="#2E6857"/>
<path d="M164.481 289.195C167.561 283.051 170.432 276.804 172.534 270.265C180.503 265.637 185.018 257.334 189.575 249.655C192.925 244.009 196.316 238.384 199.75 232.78C203.079 227.363 206.803 222.07 209.862 216.486C210.882 214.618 212.525 211.277 211.069 209.284C208.905 206.274 204.41 211.007 202.975 212.584C199.916 215.947 197.773 219.994 195.775 224.042C193.424 228.795 191.239 233.631 189.034 238.446C184.394 248.638 179.629 258.85 173.22 268.107C173.574 266.924 173.907 265.761 174.219 264.578C176.591 255.529 177.756 248.098 177.798 238.778C177.798 238.239 179.504 232.095 179.962 230.787C180.94 228.068 181.876 225.328 182.646 222.526C184.165 217.088 185.122 211.463 184.685 205.818C184.435 202.704 183.79 199.674 182.896 196.706C180.794 189.794 177.382 183.214 174.76 176.427C171.14 167.087 168.913 157.103 163.774 148.51C162.9 147.057 161.319 145.459 159.779 146.185C158.801 146.642 158.426 147.846 158.26 148.925C157.781 151.873 157.885 154.882 158.01 157.85C158.26 163.787 158.51 169.827 160.299 175.493C162.962 183.982 168.872 191.143 171.452 199.674C175.114 211.712 171.743 224.913 176.217 236.765C176.737 238.156 177.153 238.986 177.028 240.48C176.903 242.141 176.862 243.822 176.737 245.503C176.466 248.845 176.029 252.166 175.468 255.466C174.386 261.652 172.783 267.733 170.682 273.649C170.245 275.039 169.704 276.388 169.121 277.738C167.686 281.349 166.063 284.878 164.232 288.302C159.03 298.058 152.684 307.149 146.774 316.489C146.004 312.151 145.359 307.647 146.421 303.288C147.419 299.199 149.687 295.401 150.936 291.354C153.391 283.466 154.577 274.645 153.495 266.426C153.308 265.014 152.247 260.759 149.916 262.005C148.855 262.565 148.335 264.018 147.939 265.056C147.19 267.09 146.712 269.248 146.337 271.386C145.588 275.558 145.359 279.813 145.339 284.048C145.339 286.455 145.484 288.884 145.047 291.271C144.673 293.305 143.924 295.256 143.195 297.165C141.739 300.922 140.449 304.638 141.031 308.685C141.531 312.255 143.237 315.514 145.796 318.005C141.864 324.294 138.181 330.707 135.205 337.536C131.564 345.921 129.13 354.888 129.026 364.021C124.448 345.652 121.702 326.826 120.932 307.876C120.453 296.356 121.036 284.732 120.744 273.171C120.744 272.756 126.799 268.335 127.528 267.546C129.442 265.408 131.044 263.001 132.209 260.386C133.832 256.753 134.581 253.1 134.831 249.468C135.33 242.079 133.77 234.627 133.187 226.989C130.836 197.079 135.33 166.9 131.647 137.073C130.919 131.137 129.858 125.222 128.36 119.431C127.091 114.553 125.53 109.177 121.535 105.815C117.748 102.639 112.359 101.933 108.426 105.358C105.368 108.015 104.598 112.415 104.785 116.255C105.077 122.15 106.97 128.003 108.905 133.524C110.923 139.336 113.212 145.065 115.002 150.959C118.684 163.185 120.682 175.846 122.138 188.528C123.616 201.355 124.823 214.245 125.53 227.155C126.196 239.256 126.342 251.626 123.22 263.457C122.555 266.01 121.702 268.501 120.724 270.95C120.515 264.931 120.058 258.912 119.059 252.955C117.623 244.445 114.877 236.35 111.007 228.649C109.134 224.913 104.369 216.652 104.078 216.424C102.184 213.352 100.228 210.301 98.2933 207.271C97.8356 206.544 97.357 205.818 96.8992 205.091C100.541 202.933 102.704 199.051 103.308 194.921C104.14 189.275 102.226 183.712 100.291 178.503C98.0645 172.504 96.3166 166.734 96.2542 160.258C96.1918 154.176 97.5859 148.24 97.7315 142.2C97.8356 137.945 96.8992 131.905 92.176 130.39C87.7857 128.979 84.7894 133.151 84.1652 136.99C83.3537 142.034 84.1444 147.493 85.0599 152.454C86.0587 157.83 87.5984 163.081 89.2006 168.291C92.7378 179.831 96.7536 191.558 96.1086 203.804C92.3841 197.93 88.7844 191.994 85.7882 185.726C81.8556 177.486 79.1923 168.706 77.0699 159.843C76.737 158.452 76.4249 157.082 76.1128 155.692C75.8839 154.654 75.7383 153.595 75.655 152.537C75.1348 151.167 74.7187 149.755 74.4898 148.282C71.5768 134.5 68.9343 120.738 64.211 107.434C58.4058 91.0986 50.4574 75.4278 40.4699 61.2721C35.9131 54.8169 30.7945 48.6731 24.6564 43.6502C21.681 41.2009 18.4558 38.98 15.0018 37.2573C12.1304 35.8251 9.00932 35.1609 6.13792 37.029C0.24946 40.7858 -0.0210342 48.8807 1.85162 54.7132C4.30688 62.3929 10.1537 68.2462 16.3751 73.1031C23.2207 78.4374 30.4824 83.1075 36.4125 89.5212C42.0721 95.6442 46.5456 102.701 49.8332 110.34C55.2223 122.855 58.0729 137.26 67.2073 147.804C69.3296 150.254 71.8057 152.391 74.5522 154.135C74.6979 154.218 74.8227 154.197 74.9268 154.135C74.9892 154.426 75.0516 154.716 75.114 155.007C75.8215 158.203 76.5705 161.4 77.382 164.575C72.201 160.196 66.8119 155.941 62.0679 151.105C57.303 146.248 53.7033 140.477 50.2285 134.666C44.2985 124.724 37.869 112.893 26.7995 107.849C22.9086 106.085 16.5416 105.358 15.522 110.9C14.5024 116.4 17.2282 121.901 21.14 125.595C25.2182 129.435 30.3784 131.864 35.0184 134.936C40.5323 138.589 45.5469 142.927 50.3118 147.514C55.6176 152.62 60.5489 158.099 65.7091 163.351C67.8107 165.489 70.1619 167.689 73.0125 168.81C74.8643 169.536 77.382 169.411 78.1727 167.419C79.4003 171.819 80.8152 176.178 82.5422 180.412C85.5177 187.781 89.4294 194.692 93.6117 201.417C94.4024 202.684 95.193 203.95 95.9837 205.195C98.002 208.371 100.02 211.505 101.997 214.681C102.621 215.532 103.287 216.403 103.662 217.379C108.926 225.972 113.67 234.835 116.375 244.652C118.913 253.868 120.079 267.297 119.954 273.483C119.995 275.185 119.995 276.887 119.995 278.589C112.213 276.97 105.846 271.199 99.9371 266.28C93.8198 261.174 87.8689 255.819 81.4186 251.128C70.1203 242.93 56.2002 236.371 41.8016 238.986C35.7467 240.086 29.8374 242.764 25.4055 247.102C24.0114 248.472 21.0151 251.087 21.8474 253.287C22.9918 256.317 27.6734 255.217 30.0455 255.051C46.3792 253.91 64.0238 253.079 78.1727 262.503C85.3096 267.256 91.1356 273.773 98.6471 277.987C105.097 281.598 113.087 283.217 119.995 279.792C119.995 285.936 119.87 292.059 119.912 298.162C120.016 314.995 121.639 331.787 124.76 348.288C117.894 339.923 112.255 330.686 106.824 321.346C104.036 316.552 101.29 311.757 98.439 307.004C95.8797 302.749 93.3828 298.245 90.012 294.592C88.0561 292.474 83.2497 288.033 80.1286 290.503C78.8385 291.52 78.8385 293.367 79.0674 294.82C79.4628 297.477 80.4615 300.03 81.3978 302.52C83.2705 307.377 85.5385 312.11 88.3891 316.489C91.4269 321.159 95.1931 325.186 99.1048 329.13C103.849 333.924 108.531 338.802 113.358 343.514C115.459 345.569 117.623 347.54 119.975 349.325C121.389 350.405 123.47 352.065 125.28 350.924C125.384 351.401 125.468 351.878 125.572 352.377C126.487 356.839 127.507 361.26 128.63 365.661C128.672 365.847 128.838 365.91 128.984 365.91C128.984 366.325 128.984 366.74 129.026 367.134C129.026 367.591 129.775 367.591 129.733 367.134C127.965 344.738 148.376 315.202 149.23 313.853C151.747 309.889 161.735 294.778 164.502 289.278L164.481 289.195Z" fill="#6FC183"/>
<path d="M154.203 231.016C156.429 236.08 158.281 241.124 159.446 246.562C161.568 256.67 163.067 268.584 169.621 276.97C169.891 276.305 169.912 276.575 170.141 275.911C166.937 266.052 165.127 253.993 164.169 243.656C163.295 234.025 162.318 224.166 158.219 215.303C157.282 213.29 156.221 211.318 154.889 209.533C154.14 208.537 152.933 206.689 151.415 207.374C150.333 207.852 149.979 209.284 149.771 210.322C149.375 212.46 149.355 214.66 149.625 216.798C150.229 221.8 152.205 226.449 154.203 231.016Z" fill="#697B5F"/>
<path d="M205.992 446.215C205.659 443.641 202.975 443.309 200.894 442.998C186.121 440.901 171.41 438.577 157.053 443.537C152.143 445.239 151.831 453.127 152.122 456.469C152.497 460.682 153.079 464.875 154.182 468.943C155.93 475.357 158.864 481.355 163.4 486.088C163.025 487.769 162.63 489.429 162.255 491.11C161.818 492.999 162.588 494.95 164.523 495.49C166.229 495.967 168.601 494.909 169.038 492.999C169.371 491.505 170.037 488.807 170.37 487.333C175.551 487.312 181.46 488.869 187.89 486.793C188.16 488.952 188.389 490.488 188.764 492.626C189.534 497.088 196.504 496.445 195.734 491.982C195.172 488.724 195.068 487.333 194.735 484.033C196.816 483.472 208.135 462.55 206.013 446.194L205.992 446.215Z" fill="#FFC46B"/>
<path d="M202.371 446.049C203.204 443.683 185.955 443.164 183.645 443.039C178.651 442.769 173.574 442.728 168.518 443.143C165.543 443.392 161.881 443.475 159.176 444.513C152.913 446.9 161.423 448 164.19 448.249C167.852 448.581 171.577 448.768 175.301 448.809C203.245 449.017 202.309 446.236 202.371 446.049Z" fill="#A66359"/>
<path d="M214.065 413.524C205.597 418.153 197.378 423.383 189.908 429.527C191.697 423.072 192.904 416.409 194.798 410.058C198.98 396.068 212.567 361.592 205.722 366.013C191.011 375.478 183.583 393.225 173.99 407.837C169.933 414.022 165.751 420.976 166.063 428.489C166.375 435.858 170.849 441.586 175.322 446.879C176.154 447.855 177.174 448.145 178.152 447.979C178.901 448.291 179.712 448.332 180.482 448.042C181.127 448.353 181.897 448.477 182.792 448.291C198.938 444.99 204.223 428.136 214.814 417.053C218.185 413.524 217.602 411.573 214.086 413.503L214.065 413.524Z" fill="#6FC183"/>
<path d="M273.803 520.75C275.988 518.716 276.258 513.133 276.883 510.663C278.152 505.64 279.421 500.617 280.69 495.594C283.166 485.672 285.601 475.751 288.056 465.83C288.764 463.027 286.059 461.637 283.853 462.197C283.499 461.99 283.125 461.865 282.709 461.824C280.961 461.658 279.379 461.824 277.694 462.343C276.841 462.592 276.175 463.318 275.842 464.148C274.511 464.273 273.325 465.145 273.116 466.888C272.076 476.145 270.994 485.423 269.871 494.681C269.288 499.371 268.705 504.062 268.102 508.774C267.811 511.119 267.498 513.465 267.186 515.81C266.895 518.031 266.541 520.979 269.454 521.58C270.391 521.767 271.369 521.643 272.326 521.497C272.888 521.414 273.366 521.165 273.782 520.771L273.803 520.75Z" fill="#3B291E"/>
<path d="M497.419 515.789C495.234 513.755 494.963 508.172 494.339 505.702C493.07 500.679 491.801 495.656 490.531 490.633C488.055 480.712 485.621 470.79 483.166 460.869C482.458 458.067 485.163 456.676 487.369 457.236C487.722 457.029 488.097 456.904 488.513 456.863C490.261 456.697 491.842 456.863 493.528 457.382C494.381 457.631 495.047 458.357 495.379 459.188C496.711 459.312 497.897 460.184 498.105 461.927C499.146 471.185 500.228 480.463 501.351 489.72C501.934 494.411 502.516 499.102 503.12 503.813C503.411 506.159 503.723 508.504 504.035 510.849C504.327 513.07 504.68 516.018 501.767 516.62C500.831 516.806 499.853 516.682 498.896 516.537C498.334 516.454 497.856 516.205 497.439 515.81L497.419 515.789Z" fill="#3B291E"/>
<path d="M415.168 492.418C412.983 490.384 412.712 484.801 412.088 482.331C410.819 477.308 409.55 472.285 408.28 467.262C405.804 457.34 403.37 447.419 400.915 437.497C400.207 434.695 402.912 433.305 405.118 433.865C405.471 433.658 405.846 433.533 406.262 433.492C408.01 433.325 409.591 433.492 411.277 434.01C412.13 434.28 412.796 434.986 413.128 435.816C414.46 435.941 415.646 436.812 415.854 438.556C416.895 447.813 417.977 457.091 419.1 466.348C419.683 471.039 420.265 475.73 420.869 480.442C421.16 482.787 421.472 485.133 421.784 487.478C422.076 489.699 422.429 492.646 419.516 493.248C418.58 493.435 417.602 493.311 416.645 493.165C416.083 493.082 415.605 492.833 415.188 492.439L415.168 492.418Z" fill="#3B291E"/>
<path d="M225.821 492.418C228.006 490.384 228.276 484.801 228.901 482.331C230.17 477.308 231.439 472.285 232.708 467.262C235.184 457.34 237.619 447.419 240.074 437.497C240.782 434.695 238.077 433.305 235.871 433.865C235.517 433.658 235.143 433.533 234.727 433.492C232.979 433.325 231.398 433.492 229.712 434.01C228.859 434.28 228.193 434.986 227.86 435.816C226.529 435.941 225.343 436.812 225.135 438.556C224.094 447.813 223.012 457.091 221.889 466.348C221.306 471.039 220.723 475.73 220.12 480.442C219.829 482.787 219.517 485.133 219.204 487.478C218.913 489.699 218.559 492.646 221.472 493.248C222.409 493.435 223.387 493.311 224.344 493.165C224.906 493.082 225.384 492.833 225.8 492.439L225.821 492.418Z" fill="#3B291E"/>
<path d="M511.255 103.615C511.255 103.615 518.871 96.3499 528.213 97.2217C537.556 98.1142 546.503 104.403 546.503 104.403L547.481 110.194L507.76 111.066L511.255 103.615Z" fill="#033845"/>
<path d="M500.665 465.082L507.156 500.264H510.777L508.093 462.01L500.665 465.082Z" fill="url(#paint0_linear_1461_1562)"/>
<path d="M528.963 462.695L525.217 501.219H528.047L537.036 462.01L528.963 462.695Z" fill="url(#paint1_linear_1461_1562)"/>
<path d="M514.814 502.153C514.814 501.862 479.233 502.153 479.233 502.153C479.233 502.153 501.788 494.577 507.427 495.552C513.066 496.528 514.814 502.153 514.814 502.153Z" fill="black"/>
<path d="M497.252 236.599C497.252 236.599 497.065 252.374 495.359 258.351C487.494 285.916 473.012 368.151 472.658 372.676C479.108 385.358 485.163 404.765 500.478 468.299L508.696 465.996C499.125 410.245 521.992 409.871 499.104 373.672C507.344 337.806 526.674 306.547 530.461 269.103C533.145 242.514 529.129 230.6 529.129 230.6L497.252 236.578V236.599Z" fill="url(#paint2_linear_1461_1562)"/>
<path style="mix-blend-mode:multiply" d="M524.01 259.659C511.797 252.498 504.202 257.646 498.771 270.95C491.01 289.942 508.925 314.683 515.584 324.211C522.325 303.081 528.359 289.672 530.44 269.124C530.44 269.124 529.732 257.148 524.01 259.659Z" fill="url(#paint3_radial_1461_1562)"/>
<path d="M503.994 242.784C503.994 242.203 509.404 270.95 520.577 273.752C522.72 306.838 524.864 352.19 525.03 355.116C526.445 380.314 520.848 379.92 525.217 409.311C529.108 435.546 527.943 465.082 527.943 465.082H536.932C536.932 465.082 546.878 419.772 550.998 385.15C552.725 370.663 548.355 363.315 549.916 353.497C555.242 320.225 571.534 253.91 569.766 239.837C567.997 225.764 554.66 208.329 554.66 208.329L503.973 242.784H503.994Z" fill="url(#paint4_linear_1461_1562)"/>
<path style="mix-blend-mode:multiply" d="M546.232 235.416C545.962 235.52 545.608 256.193 561.359 258.351C560.444 246.313 556.095 224.976 556.095 224.976L546.212 235.416H546.232Z" fill="url(#paint5_radial_1461_1562)"/>
<path d="M513.794 245.96L516.978 261.153C516.978 261.153 510.923 263.291 508.53 248.388L513.794 245.96Z" fill="url(#paint6_linear_1461_1562)"/>
<path d="M505.575 131.013C497.71 130.494 507.656 107.641 494.63 119.223C479.94 132.279 445.9 150.004 443.091 155.152C440.282 160.279 450.519 169.827 458.613 166.298C468.143 162.126 505.554 137.551 505.575 131.033V131.013Z" fill="url(#paint7_linear_1461_1562)"/>
<path d="M505.097 12.848C511.651 7.86657 522.159 0 533.436 0C544.714 0 569.287 15.318 569.287 30.636C569.287 45.954 568.372 142.345 568.372 142.345C568.372 142.345 513.274 150.731 498.75 137.447V27.7094L505.097 12.8688V12.848Z" fill="#747575"/>
<path d="M542.3 98.2387C542.3 98.2387 538.887 93.0497 530.668 93.0497C521.513 93.0497 516.041 98.3632 516.041 98.3632L513.398 106.562C513.398 106.562 542.757 106.334 542.612 106.562C542.466 106.79 542.3 98.2387 542.3 98.2387Z" fill="#B0B0B0"/>
<path d="M535.849 76.4448C535.849 76.4448 535.933 91.0779 535.849 95.6027C535.725 101.892 551.517 110.63 554.763 113.764C558.092 117.002 547.293 118.372 547.293 118.372L518.538 119.618L508.946 115.466C508.946 115.466 503.661 113.764 503.661 112.706C503.661 111.647 518.351 104.154 518.351 97.5123V86.8644L535.87 76.4241L535.849 76.4448Z" fill="url(#paint8_linear_1461_1562)"/>
<path d="M546.503 104.341C546.503 104.341 560.548 113.889 562.4 116.981C564.252 120.074 544.589 178.42 545.15 184.024C545.712 189.628 569.911 232.116 569.911 232.116C569.911 232.116 516.041 253.432 509.487 252.872C502.932 252.311 496.024 249.053 496.024 249.053C496.024 249.053 498.584 174.953 497.086 172.068C495.588 169.183 487.452 160.237 489.657 151.333C491.842 142.47 498.188 116.836 498.23 116.649L511.255 104.818L518.538 119.638L546.524 104.362L546.503 104.341Z" fill="#CFDDF1"/>
<path d="M514.481 92.3232C505.284 92.3232 487.369 71.1312 487.369 66.1497C487.369 61.1682 489.866 57.8888 489.866 57.8888C489.866 57.8888 486.848 26.0697 503.265 16.7709C519.682 7.47217 531.584 6.87024 548.043 28.7472C555.138 38.1705 561.963 50.292 557.094 61.4381C552.246 72.5634 528.817 92.3232 514.501 92.3232H514.481Z" fill="url(#paint9_linear_1461_1562)"/>
<path d="M540.219 26.3188C540.219 26.3188 544.526 50.1468 556.907 52.5961C565.146 50.1261 564.543 46.9711 564.543 46.9711L545.359 17.9956L540.219 26.3188Z" fill="#747575"/>
<path d="M541.988 43.4218C541.988 43.4218 531.002 37.8592 523.719 40.9311C525.425 36.6761 530.149 35.7006 530.149 35.7006C530.149 35.7006 536.453 36.8837 542.3 42.8407L541.988 43.4218Z" fill="#450B00"/>
<path d="M500.686 41.1387C500.686 41.1387 500.29 37.9215 497.856 36.0949C494.11 35.9704 489.325 37.8592 489.907 44.8125C490.948 37.278 500.665 41.1387 500.665 41.1387H500.686Z" fill="#450B00"/>
<path d="M528.11 0.560393C539.637 -2.78134 552.517 19.9051 540.219 26.3187C540.219 26.3187 496.732 36.5723 491.343 35.6797C486.849 34.9325 498.751 9.0704 528.11 0.560393Z" fill="#747575"/>
<path d="M551.83 55.917C551.83 55.917 559.57 48.5901 563.773 53.8206C567.976 59.0511 553.931 78.8317 548.022 71.8992C550.519 58.2832 551.83 55.917 551.83 55.917Z" fill="url(#paint10_linear_1461_1562)"/>
<path d="M526.923 110.838L538.992 122.17C538.992 122.17 547.273 113.121 547.959 107.06C546.212 103.448 542.279 98.2386 542.279 98.2386C542.279 98.2386 531.771 105.898 526.923 110.838Z" fill="white"/>
<path d="M514.834 110.194L505.076 122.15C505.076 122.15 507.926 106.562 516.041 98.3425C514.855 101.29 514.834 110.174 514.834 110.174V110.194Z" fill="white"/>
<path d="M502.051 54.5076C502.476 52.6998 501.352 50.89 499.54 50.4653C497.728 50.0406 495.913 51.1618 495.488 52.9697C495.062 54.7775 496.186 56.5873 497.998 57.012C499.811 57.4367 501.625 56.3154 502.051 54.5076Z" fill="#2B232A"/>
<path d="M532.325 53.8445C532.54 51.9999 531.214 50.3309 529.365 50.1168C527.516 49.9027 525.843 51.2246 525.628 53.0692C525.414 54.9139 526.739 56.5829 528.588 56.7969C530.437 57.011 532.11 55.6892 532.325 53.8445Z" fill="#2B232A"/>
<path d="M509.862 65.2157H512.379C512.754 65.2157 513.045 64.9251 513.045 64.5515C513.045 64.1779 512.754 63.8873 512.379 63.8873H509.862C509.633 63.8873 509.425 63.7835 509.258 63.6174C509.113 63.4514 509.029 63.2231 509.05 62.9948L509.633 57.3698C509.674 57.017 509.404 56.6849 509.05 56.6434C508.696 56.6019 508.364 56.8717 508.322 57.2246L507.739 62.8495C507.677 63.4514 507.864 64.0326 508.28 64.4892C508.676 64.9251 509.258 65.1949 509.862 65.1949V65.2157Z" fill="#F48073"/>
<path d="M510.361 71.6709C515.937 71.6709 518.725 68.8896 518.871 68.7651C519.141 68.4952 519.141 68.0594 518.871 67.7895C518.6 67.5197 518.164 67.5197 517.893 67.7895C517.747 67.9348 514.397 71.1935 507.531 70.0312C507.156 69.9689 506.803 70.218 506.72 70.5916C506.657 70.9652 506.907 71.3181 507.281 71.4011C508.384 71.5879 509.404 71.6709 510.361 71.6709Z" fill="#FF6058"/>
<path d="M587.327 206.067C585.288 202.683 574.218 138.111 570.931 130.328C567.643 122.523 562.837 116.38 557.843 112.685C556.22 114.511 540.614 122.15 543.902 139.813C547.252 157.871 556.116 178.731 572.907 202.538L587.306 206.046L587.327 206.067Z" fill="url(#paint11_linear_1461_1562)"/>
<path d="M514.835 110.194C514.835 110.194 518.809 120.261 518.517 119.617C518.226 118.974 526.924 110.817 526.924 110.817L533.457 116.961C533.457 116.961 523.407 120.033 518.497 119.617C510.527 118.933 512.691 112.768 512.691 112.768L514.814 110.173L514.835 110.194Z" fill="#E0E0E0"/>
<path d="M520.099 502.153C520.099 502.153 540.781 501.758 540.781 502.153C540.781 502.547 536.744 495.365 531.376 495.448C526.008 495.531 520.099 502.153 520.099 502.153Z" fill="#454545"/>
<path d="M555.409 68.08C555.409 68.08 555.2 68.1423 555.096 68.1215C554.722 68.1008 554.451 67.7687 554.493 67.4158C555.117 59.4662 559.528 57.3076 559.716 57.2246C560.007 57.0793 560.444 57.2246 560.59 57.5359C560.735 57.868 560.59 58.2624 560.277 58.4077C560.111 58.4907 556.366 60.3795 555.804 67.4989C555.804 67.7479 555.617 67.9555 555.409 68.0593V68.08Z" fill="#DD7E68"/>
<path d="M528.692 71.3388C521.95 70.5086 517.019 67.748 514.023 63.1402C507.926 53.7169 512.109 40.0594 512.296 39.4989L512.525 38.731L552.495 42.3425L552.537 43.1935C552.537 43.3596 552.724 47.1787 551.85 52.0149C550.706 58.4908 548.209 63.6383 544.651 66.9385C541.343 70.0104 537.098 71.5671 532.042 71.5671C530.96 71.5671 529.836 71.5049 528.692 71.3596V71.3388ZM513.96 40.8273C513.191 43.7747 510.86 54.6094 515.687 62.0608C518.351 66.1705 522.803 68.6198 528.921 69.367C534.893 70.0934 539.72 68.7858 543.299 65.4856C550.082 59.1965 550.56 47.3863 550.56 44.1275L513.94 40.8273H513.96Z" fill="#C1210D"/>
<path d="M491.842 70.5292C488.721 70.3632 486.245 69.0971 484.456 66.7724C479.025 59.653 482.209 44.8747 482.334 44.252L482.479 43.6293L506.595 38.6063L506.782 39.6026C506.824 39.7894 507.614 44.2312 507.552 49.7316C507.469 57.2453 505.846 62.8287 502.745 66.3572C500.29 69.1386 496.961 70.55 492.82 70.55C492.487 70.55 492.155 70.55 491.822 70.5292H491.842ZM484.165 45.3105C483.624 48.1334 481.73 59.9436 486.037 65.5893C487.473 67.4573 489.387 68.4329 491.946 68.5574C495.9 68.765 499.042 67.5819 501.268 65.0496C507.032 58.5114 505.534 44.7709 504.993 40.9518L484.144 45.2898L484.165 45.3105Z" fill="#C1210D"/>
<path d="M512.608 60.2342L513.94 58.7813C513.565 58.4492 510.215 55.5226 507.281 56.2075C506.387 56.4151 505.138 57.0793 504.389 58.9888L506.22 59.7153C506.574 58.802 507.073 58.2831 507.718 58.1171C509.362 57.7227 511.859 59.57 512.587 60.2342H512.608Z" fill="#C1210D"/>
<path d="M564.543 49.449L550.394 50.7733L550.579 52.7365L564.728 51.4123L564.543 49.449Z" fill="#C1210D"/>
<path d="M489.678 53.6957L482.273 53.8788L482.322 55.85L489.727 55.6669L489.678 53.6957Z" fill="#C1210D"/>
<path opacity="0.3" d="M504.992 40.9518L484.143 45.2898C483.602 48.1126 481.709 59.9229 486.016 65.5685C487.452 67.4366 489.366 68.4121 491.925 68.5367C495.879 68.7442 499.021 67.5611 501.247 65.0289C507.011 58.4907 505.513 44.7502 504.972 40.931" fill="white"/>
<path opacity="0.3" d="M513.961 40.848C513.191 43.7954 510.86 54.6301 515.688 62.0815C518.351 66.1912 522.804 68.6405 528.921 69.3877C534.893 70.1141 539.72 68.8065 543.299 65.5063C550.082 59.2172 550.561 47.407 550.561 44.1482L513.94 40.848H513.961Z" fill="white"/>
<path d="M574.114 241.082C574.114 241.082 574.323 244.673 574.26 246.915C574.198 249.156 573.615 258.268 573.49 263.229C571.846 266.052 569.766 267.733 568.892 269.228C567.831 269.56 566.957 270.805 566.957 270.805C566.957 270.805 565.958 271.573 565.23 272.133C564.501 272.715 563.461 273.628 563.461 273.628C563.461 273.628 558.176 273.358 557.406 273.835C556.636 274.313 561.797 271.864 561.797 271.864L555.721 274.603C555.721 274.603 555.45 271.158 558.551 270.909C558.488 270.12 560.361 269.103 560.361 269.103C560.361 269.103 560.611 265.118 560.881 263.229C561.256 261.216 561.318 258.206 561.318 258.206L560.111 261.672C560.111 261.672 560.402 266.239 556.574 266.633C557.157 264.952 557.385 260.116 558.01 257.957C558.051 257.791 559.966 251.523 560.611 249.966C562.358 248.222 567.331 242.12 568.538 239.795C572.741 238.031 574.114 241.062 574.114 241.062V241.082Z" fill="url(#paint12_linear_1461_1562)"/>
<path d="M566.956 270.805L570.576 264.163L572.803 264.329L568.891 269.228C568.891 269.228 567.747 270.348 566.956 270.805Z" fill="url(#paint13_linear_1461_1562)"/>
<path d="M563.46 273.649L567.081 266.529L570.077 265.305L566.977 270.826C566.977 270.826 565.604 272.922 563.481 273.649H563.46Z" fill="url(#paint14_linear_1461_1562)"/>
<path d="M557.406 273.856L559.965 272.694L561.796 271.864L564.085 267.027L567.061 266.509L563.44 273.628C563.44 273.628 559.175 275.039 557.385 273.835L557.406 273.856Z" fill="url(#paint15_linear_1461_1562)"/>
<path d="M586.37 210.156C579.69 226.159 574.093 246.375 574.093 246.375C574.093 246.375 564.668 244.632 565.333 243.22C565.916 241.996 568.871 229.666 571.326 204.469C571.867 198.989 579.67 197.764 583.81 200.359C586.827 202.248 587.909 206.44 586.37 210.156Z" fill="url(#paint16_linear_1461_1562)"/>
<path d="M589.886 201.044C589.72 202.663 589.408 204.946 588.097 208.142C587.826 208.806 586.848 209.844 586.557 210.55C586.224 211.359 586.307 213.331 585.954 214.182C585.413 215.511 584.435 215.76 583.914 217.171C584.331 216.071 583.665 210.903 577.984 209.761C572.991 208.744 569.953 212.792 570.161 214.141C569.932 212.833 568.767 211.92 568.746 210.841C568.746 210.322 570.078 208.765 570.057 208.225C570.036 207.021 568.413 206.752 568.496 205.485C568.559 204.593 569.911 203.368 570.078 202.497C570.723 199.113 572.346 196.062 576.299 194.589C584.164 191.683 590.177 198.055 589.886 201.064V201.044Z" fill="url(#paint17_linear_1461_1562)"/>
<path d="M471.701 424.712L434.477 229.044C430.149 206.274 410.195 189.794 386.974 189.794H223.637C193.32 189.794 170.474 217.317 176.134 247.039L213.358 442.707C213.795 445.053 215.21 447.066 217.207 448.291C234.061 458.606 250.769 469.192 267.686 479.425C270.432 481.085 273.595 481.957 276.799 481.957H424.198C454.514 481.957 477.361 454.434 471.701 424.712Z" fill="#FFC46B"/>
<path d="M506.449 328.984C501.892 317.589 450.852 314.559 450.852 314.559C417.852 314.787 359.258 308.934 326.279 309.515C309.529 309.806 292.738 309.889 276.009 310.802C263.337 311.487 250.52 312.608 238.014 314.787C228.526 316.448 219.517 320.391 216.396 329.794C214.648 335.024 214.752 340.878 214.898 346.316C215.064 352.48 215.751 358.624 216.687 364.706C218.56 376.869 221.618 388.845 224.656 400.78C229.546 419.917 246.795 454.58 255.597 471.558C259.779 474.132 263.982 476.706 268.185 479.238C270.578 480.691 273.324 481.438 276.113 481.438C282.792 481.438 289.492 481.438 296.171 481.438C324.552 481.459 351.643 481.459 376.674 481.417C405.721 481.355 434.768 481.272 463.815 480.981C478.443 480.836 500.831 480.587 518.226 479.861C524.759 479.591 529.608 473.717 528.63 467.262L506.428 329.005L506.449 328.984Z" fill="#FFC46B"/>
<path d="M506.699 474.755C499.166 458.44 495.379 440.818 489.512 423.902C483.582 406.778 476.299 389.779 465.438 375.125C453.64 359.205 437.452 346.793 420.411 336.934C410.423 331.143 398.854 327.303 389.158 320.89C395.754 326.743 401.996 332.99 407.156 340.172C416.707 353.456 419.391 368.898 421.784 384.756C423.074 393.328 424.322 401.755 427.256 409.954C430.024 417.675 433.727 425.002 437.556 432.246C441.488 439.677 445.567 447.045 449.042 454.725C452.475 462.301 455.055 470.188 458.904 477.598C459.591 478.927 460.319 480.234 461.047 481.542C461.963 481.542 462.899 481.542 463.815 481.521C476.091 481.397 493.881 481.21 509.549 480.712C508.571 478.761 507.614 476.789 506.699 474.796V474.755Z" fill="#EAA449"/>
<path d="M470.827 389.613C470.473 385.254 468.143 381.311 464.502 378.882C449.749 369.064 411.693 343.95 409.237 338.511C405.804 330.936 400.02 276.264 396.503 268.729C390.885 256.67 409.05 242.245 400.769 231.763C392.279 221.011 380.232 215.386 367.124 212.211C349.021 207.81 298.376 207.54 261.735 208.371C257.115 208.474 252.85 210.799 250.249 214.597C249.084 216.299 248.002 218.064 247.045 219.953C244.714 224.498 242.946 229.293 240.594 233.818C238.326 238.176 235.413 242.079 232.23 245.815C227.548 251.274 222.388 256.338 217.727 261.797C214.669 265.367 213.524 270.203 214.731 274.749C215.688 278.402 216.52 281.515 217.041 283.798C220.911 300.735 223.096 321.554 238.41 330.769C244.277 334.298 259.487 335.751 266.146 336.768C283.395 339.363 289.013 345.506 293.695 361.322C297.149 373.008 303.287 409.601 303.786 412.279C304.785 417.572 386.349 411.511 403.245 412.279C412.192 412.694 438.971 413.254 457.552 412.798C465.792 412.59 472.159 405.554 471.493 397.376L470.869 389.655L470.827 389.613Z" fill="#EAA449"/>
<path d="M496.503 412.777H303.745C303.453 412.777 303.204 412.528 303.204 412.237C303.204 411.947 303.453 411.698 303.745 411.698H496.503C496.794 411.698 497.044 411.947 497.044 412.237C497.044 412.528 496.794 412.777 496.503 412.777Z" fill="#3B291E"/>
<path d="M290.865 473.011C296.399 473.364 301.081 468.922 300.915 463.38C299.853 426.87 287.099 359.994 276.154 332.534C272.45 323.256 236.662 312.961 223.491 309.453C220.328 308.623 217.082 308.208 213.836 308.27H213.607C203.661 308.436 196.608 317.963 199.354 327.49C200.873 332.741 202.392 337.993 203.932 343.223C208.842 360.098 213.441 377.076 218.705 393.827C223.511 409.165 228.131 424.753 233.79 439.781C236.225 446.257 239.367 452.587 243.778 457.984C247.336 462.322 251.664 465.933 256.241 469.192C267.748 469.067 279.358 472.264 290.885 472.99L290.865 473.011Z" fill="#FFC46B"/>
<path d="M315.854 482.476C315.584 482.476 315.355 482.289 315.313 482.019C315.147 481.023 298.501 381.082 291.947 356.715C284.04 327.282 192.363 328.154 191.448 328.175C191.136 328.216 190.907 327.947 190.907 327.635C190.907 327.345 191.136 327.096 191.448 327.096C195.276 327.054 284.893 326.203 293.008 356.445C299.562 380.875 316.229 480.836 316.395 481.853C316.437 482.144 316.25 482.434 315.958 482.476C315.938 482.476 315.896 482.476 315.875 482.476H315.854Z" fill="#3B291E"/>
<path d="M291.364 353.767C285.809 353.497 280.232 353.684 274.718 354.369C270.848 354.847 266.957 355.656 264.419 358.915C262.38 361.53 261.61 364.892 261.277 368.13C260.819 372.738 261.131 377.45 261.402 382.058C262.692 403.333 267.061 424.4 270.661 445.364C272.763 457.569 274.864 469.794 276.986 481.998C277.07 482.434 277.715 482.248 277.631 481.812C274.073 461.429 270.557 441.026 267.082 420.623C265.355 410.431 263.691 400.24 262.692 389.945C262.213 385.13 261.901 380.294 261.776 375.457C261.672 371.493 261.631 367.445 262.796 363.606C263.42 361.551 264.44 359.558 266.063 358.084C268.123 356.216 270.848 355.573 273.532 355.179C279.421 354.328 285.393 354.12 291.344 354.411C291.78 354.431 291.78 353.746 291.344 353.726L291.364 353.767Z" fill="#3B291E"/>
<path d="M407.427 332.762L478.172 337.702C485.475 338.221 490.844 344.738 489.928 351.982C485.184 389.073 472.492 492.086 474.864 513.465L456.886 521.56L445.13 380.999L375.155 395.695C375.155 395.695 328.048 407.858 337.203 368.649C341.073 352.086 383.978 339.923 383.978 339.923L407.427 332.783V332.762Z" fill="url(#paint18_linear_1461_1562)"/>
<path d="M491.634 355.469C493.965 355.511 495.442 354.079 495.442 354.079L492.758 342.912C492.758 342.912 486.807 337.432 486.079 337.121C485.351 336.809 468.393 330.001 468.101 330.147L437.619 318.295L429.92 329.192C429.92 329.192 444.984 331.787 458.904 340.961C460.34 343.534 469.204 346.046 470.016 347.105C470.515 348.267 472.845 352.812 472.845 352.812C472.845 352.812 472.679 356.735 472.159 360.243C474.343 361.8 477.028 361.156 477.028 361.156V363.087C479.171 363.668 481.564 363.585 483.436 362.423C485.621 362.485 488.409 359.807 488.409 359.807C488.409 359.807 488.451 352.958 487.723 346.565C488.118 346.544 491.26 355.49 491.634 355.49V355.469Z" fill="url(#paint19_linear_1461_1562)"/>
<path d="M308.593 316.469L356.491 344.448L352.475 357.649C352.475 357.649 349.687 360.43 347.773 359.392C345.858 358.354 339.928 355.054 339.928 355.054L320.931 351.048L317.456 349.824L310.132 323.588L308.572 316.469H308.593Z" fill="#E5E5E5"/>
<path d="M336.891 221.073C341.385 223.294 345.193 221.717 349.666 220.368C350.561 220.098 357.032 221.634 357.885 221.239C357.885 218.354 356.824 211.36 356.533 208.557C357.074 200.608 353.953 197.142 355.056 189.317C355.056 189.234 356.179 188.694 356.179 188.611C356.574 187.843 356.533 186.847 355.742 185.83C348.002 175.97 338.222 167.398 328.672 159.386C327.923 158.743 327.132 158.556 326.425 158.639C324.927 158.494 323.387 159.407 323.574 161.4C324.927 176.635 326.758 190.915 324.594 205.963C329.13 211.629 330.253 217.752 336.912 221.053L336.891 221.073Z" fill="url(#paint20_linear_1461_1562)"/>
<g style="mix-blend-mode:multiply" opacity="0.5">
<path d="M337.452 187.884C340.448 192.181 343.986 196.208 347.731 199.84C349.479 201.542 354.431 202.808 356.387 204.199C356.116 198.864 353.64 193.987 355.055 189.317C355.076 189.234 355.055 189.151 355.055 189.047C355.45 188.279 355.409 187.282 354.618 186.265C346.878 176.406 338.222 167.398 328.671 159.386C327.922 158.743 327.132 158.556 326.424 158.639C325.8 158.577 325.197 158.701 324.697 159.013C327.236 169.121 331.335 179.105 337.452 187.884Z" fill="#CC6654"/>
</g>
<path d="M380.565 335.875C371.847 306.132 363.253 276.368 354.764 246.562C352.35 238.114 349.957 229.646 347.565 221.198C347.44 220.762 346.774 220.949 346.899 221.385C355.347 251.211 363.878 280.996 372.533 310.761C374.989 319.208 377.444 327.635 379.92 336.062C380.045 336.498 380.711 336.311 380.586 335.875H380.565Z" fill="#3B291E"/>
<path d="M340.681 184.937C359.41 183.765 373.591 166.89 372.356 147.246C371.12 127.602 354.936 112.628 336.207 113.8C317.478 114.972 303.297 131.847 304.532 151.491C305.768 171.135 321.952 186.109 340.681 184.937Z" fill="#878787"/>
<path d="M372.908 159.552L369.704 149.901C369.704 149.901 372.076 138.962 369.08 128.709C369.08 128.709 380.524 141.91 372.908 159.552Z" fill="#878787"/>
<path d="M317.082 164.783C317.082 164.783 311.526 161.005 307.906 166.132C303.953 171.736 313.649 186.784 322.221 179.271L317.082 164.783Z" fill="#FFC2B3"/>
<path d="M318.788 176.759C318.559 176.759 318.351 176.676 318.226 176.468C314.835 170.781 310.902 170.802 310.861 170.802C310.528 170.802 310.257 170.553 310.236 170.2C310.236 169.868 310.486 169.577 310.84 169.577C311.027 169.577 315.521 169.557 319.267 175.846C319.433 176.136 319.35 176.51 319.059 176.676C318.975 176.718 318.871 176.759 318.788 176.759Z" fill="#F48073"/>
<path d="M339.771 177.07C358.5 175.898 372.754 160.183 371.609 141.969C370.463 123.755 354.352 109.94 335.623 111.112C316.894 112.285 302.64 128 303.786 146.214C304.931 164.428 321.043 178.242 339.771 177.07Z" fill="#878787"/>
<path d="M315.979 148.219C315.979 148.219 311.61 191.953 344.048 197.142C377.111 202.414 373.782 144.608 373.782 144.608C373.782 144.608 372.138 121.589 343.174 123.395C316.603 125.056 315.979 148.219 315.979 148.219Z" fill="url(#paint21_linear_1461_1562)"/>
<path d="M352.267 178.088L349.958 178.233C349.625 178.254 349.334 178.005 349.313 177.672C349.292 177.34 349.542 177.05 349.875 177.029L352.184 176.884C352.392 176.884 352.579 176.78 352.704 176.614C352.829 176.448 352.892 176.24 352.85 176.033L351.83 168.311C351.789 167.979 352.018 167.668 352.351 167.626C352.704 167.585 352.996 167.813 353.037 168.145L354.057 175.846C354.14 176.365 353.994 176.925 353.661 177.361C353.329 177.797 352.808 178.067 352.267 178.088Z" fill="#F48073"/>
<path d="M341.78 164.928C341.863 166.277 340.823 167.46 339.471 167.543C338.118 167.626 336.932 166.589 336.849 165.239C336.766 163.89 337.806 162.707 339.159 162.624C340.511 162.541 341.697 163.579 341.78 164.928Z" fill="#2B232A"/>
<path d="M366.395 163.371C366.479 164.72 365.438 165.904 364.086 165.987C362.733 166.07 361.547 165.032 361.464 163.683C361.381 162.334 362.421 161.15 363.774 161.067C365.126 160.984 366.312 162.022 366.395 163.371Z" fill="#2B232A"/>
<path d="M352.184 183.982C347.107 184.293 344.381 181.927 344.256 181.824C344.007 181.595 343.986 181.222 344.215 180.973C344.443 180.723 344.818 180.703 345.068 180.931C345.213 181.056 348.459 183.858 354.701 182.405C355.034 182.322 355.347 182.529 355.43 182.861C355.513 183.193 355.305 183.505 354.972 183.588C353.973 183.816 353.037 183.961 352.184 184.003V183.982Z" fill="#F48073"/>
<path d="M330.461 159.345C332.688 158.452 339.013 157.269 344.173 156.979C344.777 156.937 345.089 156.273 344.694 155.858C343.487 154.592 339.929 152.08 335.039 153.471C335.039 153.471 331.46 154.778 329.255 158.016C329.109 158.224 329.067 158.494 329.13 158.743C329.275 159.282 329.92 159.573 330.482 159.365L330.461 159.345Z" fill="#2B232A"/>
<path d="M370.432 156.48C368.101 155.878 361.672 155.484 356.532 155.858C355.929 155.899 355.534 155.277 355.887 154.799C356.928 153.388 360.153 150.461 365.167 151.229C365.167 151.229 368.871 152.08 371.472 155.007C371.639 155.194 371.722 155.463 371.68 155.712C371.597 156.273 371.014 156.646 370.432 156.501V156.48Z" fill="#2B232A"/>
<path d="M314.481 157.228L319.391 148.323C319.391 148.323 319.059 137.136 323.865 127.609C323.865 127.609 310.215 138.506 314.481 157.228Z" fill="#878787"/>
<path d="M315.75 137.26C315.75 137.26 357.864 158.079 379.317 126.861C379.317 126.861 338.534 89.0437 315.75 137.26Z" fill="#A5A5A5"/>
<path d="M267.915 445.758C268.872 446.132 284.394 452.255 285.143 452.898L267.915 445.758Z" fill="#454545"/>
<path d="M397.19 356.632L352.975 356.299L324.177 372.178C324.177 372.178 326.216 407.173 368.746 397.355C411.276 387.537 397.211 356.611 397.211 356.611L397.19 356.632Z" fill="url(#paint22_linear_1461_1562)"/>
<path d="M368.58 363.813L377.028 358.562C391.593 353.601 393.819 356.528 406.803 359.517C408.884 359.994 410.236 362.007 409.799 364.062C409.799 364.062 402.517 481.812 411.63 524.466L391.593 532C391.593 532 383.041 436.709 362.359 381.726C359.862 375.063 362.484 367.591 368.58 363.813Z" fill="url(#paint23_linear_1461_1562)"/>
<path d="M429.629 531.855C429.629 531.855 391.447 531.44 391.447 531.855C391.447 532.27 392.176 530.589 392.176 530.589C392.176 530.589 404.847 519.858 406.324 519.629C407.802 519.38 410.215 521.726 411.173 522.099C412.13 522.473 427.652 528.596 428.401 529.239C429.129 529.883 429.629 531.855 429.629 531.855Z" fill="#454545"/>
<path d="M494.568 521.373C494.568 521.373 456.387 520.958 456.387 521.373C456.387 521.788 457.115 520.107 457.115 520.107C457.115 520.107 469.787 509.376 471.264 509.148C472.741 508.898 475.155 511.244 476.112 511.618C477.069 511.991 492.591 518.114 493.34 518.758C494.069 519.401 494.568 521.373 494.568 521.373Z" fill="#454545"/>
<path d="M395.089 309.225C413.711 329.441 440.365 339.923 467.914 347.665C465.271 345.589 463.565 338.844 471.056 330.313C445.796 304.907 444.797 289.548 416.853 283.612C394.36 278.817 384.144 297.311 395.089 309.204V309.225Z" fill="#E1EFFF"/>
<path d="M387.244 222.983C392.03 226.262 408.239 238.426 410.486 240.646C412.733 242.867 420.473 256.089 422.679 261.382C424.905 266.675 433.353 282.283 433.103 290.938C432.854 299.594 428.547 311.529 416.104 315.908C403.661 320.288 394.09 306.672 391.468 290.835C388.867 274.998 382.521 219.787 387.244 223.004V222.983Z" fill="#E1EFFF"/>
<path d="M363.149 208.724C358.593 223.626 338.347 214.909 338.347 214.909L319.6 203.161C319.6 203.161 283.853 214.992 279.005 218.354C274.157 221.717 264.793 246.603 274.594 268.48C284.394 290.357 303.682 301.213 310.798 330.956C314.793 347.665 324.656 375.25 324.656 375.25C324.656 375.25 361.755 341.729 391.801 341.438C415.23 341.21 425.009 335.357 425.009 335.357C425.009 335.357 404.348 322.135 399.937 303.807C398.314 294.841 409.321 282.096 405.659 270.369C401.976 258.642 392.55 230.434 386.849 223.066L363.191 208.724H363.149Z" fill="#9DA6C4"/>
<path d="M289.179 213.809C280.981 214.722 271.472 221.738 268.622 225.121C265.771 228.504 237.91 312.919 254.972 330.001C272.034 347.084 290.24 338.076 297.357 328.881C309.591 313.064 306.325 291.25 304.077 275.683C299.479 243.677 289.179 213.788 289.179 213.788V213.809Z" fill="#E1EFFF"/>
<path d="M386.807 369.812C389.117 369.438 390.324 367.778 390.324 367.778L385.704 357.254C385.704 357.254 378.88 352.895 378.11 352.709C377.34 352.522 359.446 348.807 359.175 348.993L327.09 342.683L321.431 354.743C321.431 354.743 336.724 354.66 352.038 361.239C353.911 363.523 363.087 364.436 364.065 365.328C364.751 366.387 367.852 370.455 367.852 370.455C367.852 370.455 368.372 374.357 368.476 377.886C370.89 379.027 373.428 377.927 373.428 377.927L373.782 379.816C375.967 380.003 378.318 379.505 379.962 378.031C382.125 377.72 384.394 374.586 384.394 374.586C384.394 374.586 383.228 367.84 381.376 361.675C381.751 361.572 386.433 369.832 386.807 369.77V369.812Z" fill="url(#paint24_linear_1461_1562)"/>
<path d="M349.978 362.547C349.978 362.547 358.426 352.812 352.912 343.659C345.755 337.557 310.611 309.847 303.183 306.09C291.427 300.154 275.863 291.146 264.19 297.539C249.001 305.862 247.607 318.482 253.017 325.373C258.78 332.7 274.927 350.156 299.479 361.281C324.032 372.406 349.958 362.547 349.958 362.547H349.978Z" fill="#E1EFFF"/>
<path d="M362.775 208.786C361.984 206.067 356.283 200.795 356.137 201.5C354.764 207.582 351.581 213.207 347.627 217.96C347.273 218.375 346.67 218.458 346.191 218.147C338.888 213.497 328.942 207.561 326.196 198.823C325.988 198.159 325.155 198.242 324.885 198.698C324.822 198.74 321.035 202.123 319.829 204.24C318.955 205.755 319.891 207.956 320.411 209.429C321.805 213.394 323.033 217.337 325.218 220.949C327.278 224.311 329.837 227.362 332.521 230.268C334.102 231.991 335.746 233.838 337.536 235.457C338.347 236.184 339.616 236.039 340.261 235.146C343.05 231.306 345.567 226.968 347.065 222.63C347.128 222.464 347.232 222.381 347.377 222.381C347.523 222.256 347.773 222.236 347.877 222.464C350.124 227.03 353.453 230.933 357.219 234.337C357.802 234.855 358.717 234.669 359.03 233.963C362.65 225.619 363.566 211.526 362.775 208.806V208.786Z" fill="#CFDDF1"/>
<path d="M403.162 190.147C403.162 190.147 400.103 192.015 398.293 193.343C396.482 194.672 389.387 200.296 385.392 203.202C384.019 206.129 383.811 208.786 383.103 210.342C383.436 211.401 382.916 212.812 382.916 212.812C382.916 212.812 382.854 214.058 382.812 214.971C382.75 215.884 382.604 217.254 382.604 217.254C382.604 217.254 385.829 221.405 385.871 222.298C385.912 223.19 384.997 217.607 384.997 217.607L386.204 224.104C386.204 224.104 389.158 222.36 387.619 219.703C388.284 219.309 388.055 217.213 388.055 217.213C388.055 217.213 391.177 214.763 392.571 213.456C394.006 212.024 396.441 210.259 396.441 210.259L395.775 213.311C395.775 213.311 391.884 215.656 393.715 218.998C394.755 217.566 398.584 214.639 399.999 212.916C400.103 212.792 402.912 207.125 403.807 205.714C404.244 203.306 406.179 196.228 407.406 193.945C406.47 189.524 403.203 190.126 403.203 190.126L403.162 190.147Z" fill="url(#paint25_linear_1461_1562)"/>
<path d="M382.916 212.709L386.287 205.984L384.893 204.261L383.104 210.218C383.104 210.218 382.833 211.775 382.916 212.688V212.709Z" fill="url(#paint26_linear_1461_1562)"/>
<path d="M382.584 217.15L386.37 210.176L385.684 207.042L382.916 212.688C382.916 212.688 381.98 214.992 382.584 217.13V217.15Z" fill="url(#paint27_linear_1461_1562)"/>
<path d="M385.829 222.194L385.33 219.454L384.976 217.503L387.64 212.895L386.37 210.176L382.583 217.15C382.583 217.15 383.832 221.426 385.85 222.194H385.829Z" fill="url(#paint28_linear_1461_1562)"/>
<path d="M455.971 168.498C454.056 170.013 451.268 172.068 446.67 174.31C445.713 174.787 443.819 175.078 442.779 175.576C441.614 176.136 439.491 178.191 438.264 178.793C436.37 179.727 435.33 179.229 433.353 180.267C434.893 179.478 440.115 173.77 436.932 168.311C434.123 163.496 427.256 165.281 425.925 166.796C427.215 165.302 427.298 163.517 428.463 162.396C429.025 161.856 431.792 161.317 432.396 160.756C433.707 159.511 432.75 158.037 434.227 156.792C435.267 155.941 437.702 155.712 438.805 154.965C443.049 152.039 447.752 150.191 452.475 151.727C461.88 154.758 459.529 165.738 455.95 168.54L455.971 168.498Z" fill="url(#paint29_linear_1461_1562)"/>
<path d="M401.268 192.181C401.268 192.181 418.621 175.265 425.966 166.755C427.298 165.26 434.164 163.475 436.973 168.27C440.157 173.729 434.934 179.437 433.394 180.225C427.152 183.443 411.568 191.039 405.929 195.294C400.852 194.838 401.289 192.16 401.289 192.16L401.268 192.181Z" fill="url(#paint30_linear_1461_1562)"/>
<path d="M178.547 108.098C172.18 101.954 168.31 86.1171 168.31 86.1171L158.198 84.7472L157.989 83.315L152.996 84.0415L134.04 81.4677L133.915 80.6167L132.521 81.2601L131.002 81.0526L131.127 81.9036L113.774 89.8324L99.8123 96.2045C99.8123 96.2045 100.582 112.519 96.2751 120.24C91.427 128.895 91.9888 142.221 94.6313 154.571L190.116 140.498C189.055 127.899 185.726 114.989 178.568 108.098H178.547Z" fill="black"/>
<path d="M163.524 515.167H136.995V509.625C136.995 509.625 139.638 507.01 140.303 509.625C146.13 512.344 151.498 511.742 155.867 510.849C158.947 510.227 161.548 509.459 163.504 509.625C167.665 509.957 170.141 515.167 163.504 515.167H163.524Z" fill="black"/>
<path d="M163.524 515.167H154.036C153.87 513.942 154.119 512.344 155.888 510.849C158.967 510.227 161.568 509.459 163.524 509.625C167.686 509.957 170.162 515.167 163.524 515.167Z" fill="#454545"/>
<path d="M116.375 513.257C115.251 516.225 109.009 515.582 107.865 512.261C107.449 511.057 107.823 506.179 108.489 500.388C109.654 490.259 111.652 477.37 111.839 476.54L115.251 476.872C115.251 476.872 116.292 492.045 116.604 502.858C116.749 508.089 116.749 512.282 116.375 513.257Z" fill="black"/>
<path d="M116.375 513.257C115.251 516.225 109.009 515.582 107.865 512.261C107.449 511.057 107.823 506.179 108.489 500.388C111.069 496.86 114.461 500.036 116.604 502.858C116.749 508.089 116.749 512.282 116.375 513.257Z" fill="#454545"/>
<path d="M201.976 304.098C201.976 304.098 201.477 310.096 200.436 319.395C200.374 319.852 200.332 320.308 200.27 320.786C197.44 345.797 190.948 392.249 180.087 412.984C172.825 426.85 131.439 471.828 117.915 483.929C115.48 486.108 111.86 485.921 109.633 483.534C107.948 481.729 106.679 479.508 108.135 477.702C111.111 473.945 109.467 470.168 110.133 464.688C110.798 459.208 114.773 464.003 119.413 460.931C124.053 457.859 124.719 445.862 126.716 442.105C128.714 438.348 160.861 421.557 161.86 398.621C162.858 375.686 160.861 349.305 160.528 348.288C160.195 347.25 168.809 297.601 168.809 297.601L201.976 304.098Z" fill="#347F91"/>
<path d="M173.47 290.316L134.353 280.726C122.076 294.28 116.937 311.01 123.075 345.548C127.715 371.68 134.353 403.104 132.022 422.615C129.692 442.126 126.383 448.083 127.382 462.965C128.381 477.847 132.688 507.612 134.02 510.268C135.351 512.904 140.99 512.593 142.301 509.936C143.633 507.3 147.274 502.319 145.276 499.351C143.279 496.382 137.328 497.69 143.612 490.093C149.916 482.476 140.969 475.211 142.613 455.701C144.278 436.19 154.556 393.183 160.195 366.055C165.834 338.927 167.499 325.373 167.499 325.373L167.811 323.588C179.629 320.474 184.519 311.944 186.412 301.898C188.41 291.312 173.47 290.316 173.47 290.316Z" fill="#398DA5"/>
<g style="mix-blend-mode:multiply" opacity="0.3">
<path d="M171.827 315.14L174.178 299.49L175.489 299.677L173.491 313.044C175.738 311.964 180.899 308.976 182.896 303.413L184.145 303.87C181.336 311.612 173.221 314.621 172.867 314.746L171.827 315.119V315.14Z" fill="#374B6B"/>
</g>
<g style="mix-blend-mode:multiply" opacity="0.3">
<path d="M200.437 318.648C200.374 319.084 200.332 319.54 200.27 319.997C198.98 319.603 197.586 318.855 196.317 317.652C194.111 315.576 191.552 311.425 191.843 303.517L193.175 303.579C192.904 311.01 195.235 314.808 197.232 316.697C198.273 317.672 199.375 318.295 200.437 318.669V318.648Z" fill="#374B6B"/>
</g>
<g style="mix-blend-mode:multiply" opacity="0.3">
<path d="M139.034 310.823C138.264 310.823 137.536 310.698 136.891 310.449L137.37 309.204C139.138 309.868 141.698 309.328 144.215 307.73C148.085 305.281 152.455 299.926 153.079 292.225L154.39 292.329C153.724 300.507 149.063 306.215 144.902 308.83C142.863 310.117 140.824 310.781 139.013 310.781L139.034 310.823Z" fill="#374B6B"/>
</g>
<g style="mix-blend-mode:multiply" opacity="0.3">
<path d="M143.362 286.642L142.239 285.936C142.592 285.376 142.946 284.815 143.342 284.255L144.444 285.002C144.07 285.542 143.716 286.102 143.383 286.642H143.362Z" fill="#374B6B"/>
<path d="M135.872 497.42C135.622 496.113 135.393 494.805 135.185 493.518L136.496 493.311C136.704 494.597 136.933 495.884 137.182 497.171L135.872 497.42ZM134.145 485.652C133.999 484.323 133.874 483.016 133.791 481.708L135.102 481.604C135.206 482.891 135.331 484.199 135.455 485.527L134.145 485.672V485.652ZM133.354 473.779C133.312 472.451 133.292 471.122 133.292 469.815H134.623C134.623 471.122 134.644 472.43 134.686 473.738L133.354 473.779ZM134.748 461.927L133.416 461.886C133.479 460.557 133.541 459.25 133.604 457.921L134.935 458.004C134.852 459.312 134.79 460.62 134.748 461.927ZM135.518 450.138L134.207 450.013C134.332 448.685 134.457 447.377 134.582 446.07L135.892 446.215C135.768 447.523 135.622 448.83 135.518 450.138ZM136.787 438.369L135.476 438.203C135.643 436.895 135.809 435.588 135.976 434.28L137.287 434.446C137.12 435.733 136.954 437.041 136.787 438.369ZM138.306 426.621L136.995 426.455C137.162 425.148 137.328 423.84 137.495 422.532L138.805 422.698C138.639 424.006 138.473 425.314 138.306 426.621ZM139.721 414.832L138.41 414.707C138.535 413.4 138.639 412.092 138.722 410.784L140.054 410.867C139.971 412.175 139.867 413.503 139.742 414.832H139.721ZM140.366 402.959H139.034C139.034 401.963 139.055 401.008 139.055 400.053V398.995H140.387V400.074C140.387 401.029 140.387 402.004 140.366 402.98V402.959ZM138.847 391.128C138.785 389.821 138.701 388.513 138.618 387.205L139.95 387.122C140.033 388.43 140.116 389.758 140.179 391.087L138.847 391.149V391.128ZM137.994 379.339C137.869 378.031 137.744 376.723 137.599 375.416L138.909 375.271C139.055 376.578 139.18 377.886 139.305 379.214L137.994 379.339ZM136.704 367.57C136.537 366.262 136.392 364.955 136.225 363.647L137.536 363.481C137.703 364.789 137.848 366.096 138.015 367.404L136.704 367.57ZM135.268 355.801C135.102 354.494 134.956 353.186 134.79 351.878L136.101 351.733C136.246 353.041 136.413 354.348 136.579 355.656L135.268 355.822V355.801ZM133.916 343.991C133.791 342.663 133.666 341.355 133.562 340.047L134.873 339.944C134.977 341.251 135.102 342.559 135.227 343.867L133.916 343.991ZM133.042 332.139C132.979 330.811 132.938 329.483 132.917 328.175H134.249C134.269 329.441 134.311 330.769 134.374 332.077L133.042 332.139ZM134.311 320.288L132.979 320.225C133.042 318.897 133.104 317.569 133.208 316.261L134.54 316.365C134.436 317.652 134.374 318.959 134.311 320.288ZM135.476 308.581L134.165 308.374C134.394 307.045 134.644 305.717 134.914 304.451L136.205 304.741C135.934 305.987 135.684 307.274 135.476 308.581ZM138.348 297.207L137.099 296.771C137.536 295.505 138.036 294.259 138.556 293.056L139.783 293.575C139.284 294.758 138.805 295.982 138.368 297.207H138.348Z" fill="#374B6B"/>
<path d="M138.077 507.155C137.911 506.511 137.744 505.868 137.578 505.225L138.868 504.913C139.034 505.557 139.201 506.179 139.367 506.823L138.077 507.155Z" fill="#374B6B"/>
</g>
<path d="M186.912 232.012C178.734 235.582 175.801 234.44 175.801 234.44L175.509 229.583L166.25 157.311C166.916 157.435 187.765 168.685 189.679 175.721C189.741 175.95 189.804 176.219 189.866 176.551C190.074 177.818 190.22 179.623 190.282 181.865C190.366 185.061 190.324 189.13 190.158 193.551C190.095 195.689 189.991 197.93 189.866 200.193C189.7 203.597 189.471 207.063 189.221 210.425C189.055 212.667 188.868 214.847 188.701 216.922C188.41 220.181 188.118 223.17 187.806 225.743C187.515 228.359 187.203 230.517 186.912 232.012Z" fill="url(#paint31_linear_1461_1562)"/>
<g style="mix-blend-mode:multiply" opacity="0.4">
<path d="M179.733 182.861L180.815 178.274C180.815 178.274 186.246 178.44 189.867 176.572C190.075 177.838 190.22 179.644 190.283 181.886C186.204 183.692 179.733 182.882 179.733 182.882V182.861Z" fill="#962A2A"/>
</g>
<g style="mix-blend-mode:multiply" opacity="0.4">
<path d="M189.887 200.193C185.83 201.293 181.273 199.508 181.273 199.508L181.918 195.274C181.918 195.274 187.161 195.211 190.158 193.551C190.095 195.689 189.991 197.93 189.866 200.193H189.887Z" fill="#962A2A"/>
</g>
<g style="mix-blend-mode:multiply" opacity="0.4">
<path d="M181.398 218.085L183.604 211.629C183.604 211.629 186.808 211.692 189.242 210.426C189.076 212.667 188.889 214.847 188.722 216.922C184.457 219.849 181.419 218.085 181.419 218.085H181.398Z" fill="#962A2A"/>
</g>
<g style="mix-blend-mode:multiply" opacity="0.4">
<path d="M186.912 232.012C178.734 235.582 175.801 234.44 175.801 234.44L175.509 229.583C176.508 228.732 177.84 228.13 179.629 228.006C182.896 227.757 185.663 226.802 187.806 225.744C187.515 228.359 187.203 230.517 186.912 232.012Z" fill="#962A2A"/>
</g>
<path d="M186.995 236.205C183.811 236.869 181.002 245.752 181.231 248.907C177.86 248.804 171.951 241.912 171.951 241.912C171.951 241.912 174.323 236.433 179.816 230.766C185.309 225.1 188.576 229.936 188.576 229.936L186.995 236.184V236.205Z" fill="url(#paint32_linear_1461_1562)"/>
<path d="M168.165 153.554C171.473 155.546 173.137 162.811 173.137 162.811L163.857 159.013C163.857 159.013 164.19 152.89 168.165 153.554Z" fill="#E23023"/>
<path d="M130.857 152.059C136.329 148.759 145.11 146.6 145.11 146.6L144.277 156.854L135.996 165.447C135.996 165.447 127.215 164.949 127.049 159.988C126.883 155.027 130.857 152.059 130.857 152.059Z" fill="#99170D"/>
<path d="M168.747 253.868C168.747 253.868 170.62 260.323 174.469 260.655C178.318 260.987 222.95 246.873 222.95 246.873L223.678 241.062C223.678 241.062 182.709 246.168 176.404 245.296C170.079 244.403 168.144 252.187 168.768 253.868H168.747Z" fill="#D17869"/>
<path d="M167.166 165.115C166.001 155.692 168.164 153.533 168.164 153.533C168.164 153.533 158.052 146.912 148.606 146.746C140.054 146.6 167.166 165.094 167.166 165.094V165.115Z" fill="#99170D"/>
<path d="M178.11 177.112C177.819 182.301 176.092 187.241 171.972 188.59C163.524 191.413 130.69 165.426 130.69 165.426C130.69 165.426 135.663 158.66 135.996 156.667C136.329 154.675 133.666 143.279 128.859 133.503L145.776 139.792C145.776 139.792 151.082 151.042 154.889 154.508C155.68 155.235 156.887 155.858 158.343 156.439C158.739 156.605 159.134 156.75 159.571 156.895C159.696 156.937 159.821 156.978 159.945 157.02C159.945 157.02 159.945 157.02 159.966 157.02C161.111 157.414 162.338 157.809 163.587 158.162C170.287 161.773 174.053 166.236 178.027 172.483C178.152 173.957 178.193 175.514 178.11 177.029V177.112Z" fill="url(#paint33_linear_1461_1562)"/>
<path d="M160.861 167.274L143.133 169.411L142.301 167.107L159.55 166.443C159.55 166.443 159.113 159.22 158.364 156.46C158.759 156.626 159.155 156.771 159.592 156.916L160.882 167.253L160.861 167.274Z" fill="#272727"/>
<path d="M144.111 171.404C144.777 171.736 165.168 182.82 167.644 183.484C170.12 184.148 171.618 183.65 172.118 180.993C172.617 178.357 171.951 166.111 171.951 166.111C171.951 166.111 183.395 179.665 188.535 194.713C193.674 209.761 199.313 269.311 199.313 269.311C199.313 269.311 202.621 278.236 203.121 284.193C203.62 290.15 203.121 301.732 203.121 301.732C203.121 301.732 190.199 304.056 171.452 299.573C152.725 295.11 139.617 285.023 139.617 285.023C139.617 285.023 157.199 249.966 159.675 231.929C162.172 213.892 148.231 181.491 146.088 179.665C143.924 177.838 144.09 171.404 144.09 171.404H144.111Z" fill="#707070"/>
<path d="M137.328 285.355C137.328 284.857 138.826 282.387 138.826 282.387C138.826 282.387 161.548 299.262 204.806 299.926C203.974 304.056 203.474 306.215 203.474 306.215C203.474 306.215 171.473 308.374 137.328 285.376V285.355Z" fill="#272727"/>
<path d="M127.881 206.627C127.153 208.308 126.446 210.218 125.759 212.294C125.052 214.431 124.386 216.715 123.741 219.06C122.929 222.049 122.18 225.142 121.493 228.151C121.077 230.04 120.661 231.887 120.287 233.652C118.518 242.099 117.436 248.804 117.436 248.804L113.628 248.056L109.55 247.226L106.679 246.666C106.679 246.666 106.741 240.044 106.908 231.348C106.949 229.521 106.991 227.591 107.032 225.619C107.116 222.028 107.199 218.292 107.303 214.66C107.365 212.563 107.428 210.488 107.49 208.516C107.761 201.189 108.094 195.004 108.489 192.43C109.821 184.169 116.77 177.88 116.77 177.88C118.913 177.05 133.853 188.299 127.881 206.648V206.627Z" fill="url(#paint34_linear_1461_1562)"/>
<g style="mix-blend-mode:multiply" opacity="0.4">
<path d="M125.884 188.113C125.884 188.113 115.439 192.264 114.607 202.995C114.398 205.486 114.253 209.325 114.107 213.746C114.086 215.179 114.045 216.652 114.003 218.188C113.92 221.551 113.858 225.1 113.795 228.525C113.774 230.538 113.733 232.531 113.712 234.42C113.649 240.439 113.608 245.566 113.587 248.056L109.509 247.226C109.613 244.798 109.821 239.754 110.05 233.486C110.112 231.659 110.175 229.729 110.258 227.736C110.383 224.311 110.487 220.679 110.612 217.005C110.653 215.49 110.695 213.954 110.736 212.439C110.736 212.273 110.736 212.086 110.736 211.92C111.069 200.006 112.068 187.781 121.681 182.633L125.842 188.092L125.884 188.113Z" fill="#962A2A"/>
</g>
<g style="mix-blend-mode:multiply" opacity="0.4">
<path d="M125.759 212.293C125.052 214.431 124.386 216.715 123.741 219.06C121.265 219.143 117.519 219.06 114.024 218.167C112.859 217.877 111.714 217.483 110.653 216.984C109.363 216.382 108.219 215.614 107.282 214.639C107.345 212.543 107.407 210.467 107.469 208.495C108.281 210.322 109.425 211.588 110.778 212.439C111.797 213.103 112.942 213.518 114.128 213.746C118.289 214.577 123.075 213.248 125.759 212.293Z" fill="#962A2A"/>
</g>
<g style="mix-blend-mode:multiply" opacity="0.4">
<path d="M121.493 228.151C121.077 230.04 120.661 231.887 120.287 233.652C118.705 234.15 116.312 234.669 113.753 234.42C112.546 234.295 111.319 234.025 110.091 233.486C108.988 232.987 107.906 232.302 106.887 231.348C106.928 229.521 106.97 227.591 107.012 225.619C107.885 226.594 109.03 227.279 110.299 227.736C111.402 228.151 112.609 228.4 113.836 228.525C116.687 228.857 119.621 228.525 121.493 228.151Z" fill="#962A2A"/>
</g>
<path d="M171.369 218.562C171.265 222.111 171.036 226.262 170.744 230.725C170.62 232.759 170.474 234.876 170.307 237.035C169.995 241.352 169.621 245.856 169.225 250.339C169.08 252.104 168.913 253.868 168.768 255.591C168.352 260.199 167.915 264.703 167.498 268.833C167.332 270.639 167.145 272.362 166.978 274.022C165.98 283.923 165.189 290.835 165.189 290.835C165.189 290.835 164.565 290.835 163.462 290.772C161.548 290.689 158.177 290.44 154.203 289.859C151.747 289.506 149.063 289.029 146.379 288.344C142.01 287.285 137.557 285.729 133.936 283.529C132.563 282.698 131.294 281.764 130.191 280.726C131.356 276.243 134.103 271.947 137.12 267.65C138.015 266.384 138.93 265.118 139.825 263.831C140.678 262.627 141.552 261.403 142.363 260.178C143.82 257.998 145.131 255.778 146.171 253.515C146.92 251.875 147.523 250.215 147.898 248.492C148.064 247.828 148.168 247.164 148.252 246.479C148.668 242.93 148.814 239.982 148.314 237.056C148.085 235.665 147.711 234.274 147.17 232.842C146.088 229.978 144.298 226.906 141.552 223.149C140.47 221.675 139.263 220.077 137.869 218.375C136.121 216.196 134.124 213.829 131.814 211.173C130.586 209.741 129.275 208.246 127.861 206.648C128.027 205.174 128.069 203.68 127.985 202.185C127.819 199.113 127.132 196.062 126.154 193.198C125.447 191.143 124.615 189.171 123.699 187.386C121.327 182.654 118.518 179.084 116.75 177.88C117.415 177.091 118.144 176.261 118.872 175.472C120.911 173.251 123.096 171.113 124.677 169.619C126.092 168.291 127.028 167.46 127.028 167.46C127.028 167.46 128.506 166.9 130.732 166.173C133.25 165.343 136.704 164.285 139.929 163.641C140.865 163.454 141.76 163.288 142.613 163.185C144.465 165.364 147.544 169.64 151.04 174.725C151.976 176.053 152.933 177.465 153.87 178.897C156.512 182.861 159.28 187.054 161.776 191.039C162.858 192.783 163.92 194.443 164.877 196.062C167.727 200.753 169.933 204.697 170.786 206.855C170.994 207.374 171.161 208.288 171.244 209.471C171.431 211.609 171.452 214.784 171.327 218.603L171.369 218.562Z" fill="url(#paint35_linear_1461_1562)"/>
<g style="mix-blend-mode:multiply" opacity="0.4">
<path d="M165.168 290.814C165.168 290.814 164.544 290.814 163.441 290.752C164.377 281.059 170.474 215.822 168.476 209.097C166.624 202.829 145.692 172.006 139.929 163.579C140.865 163.392 141.76 163.226 142.613 163.122C148.585 170.221 167.81 199.342 170.807 206.793C173.782 214.224 165.168 290.814 165.168 290.814Z" fill="#962A2A"/>
</g>
<g style="mix-blend-mode:multiply" opacity="0.4">
<path d="M154.202 289.859C151.747 289.506 149.063 289.029 146.379 288.344C155.721 253.847 155.493 223.481 151.581 214.909C147.856 206.71 127.424 179.644 124.698 169.598C126.113 168.27 127.049 167.44 127.049 167.44C127.049 167.44 128.526 166.879 130.753 166.153C132.23 177.34 156.616 203.908 159.862 214.93C163.15 226.076 159.758 269.975 154.182 289.88L154.202 289.859Z" fill="#962A2A"/>
</g>
<g style="mix-blend-mode:multiply" opacity="0.4">
<path d="M127.882 206.627C129.359 194.236 120.578 180.495 116.771 177.859C117.436 177.07 118.165 176.24 118.893 175.451C129.401 179.52 133.874 193.032 131.856 211.173C130.628 209.741 129.296 208.246 127.882 206.627Z" fill="#962A2A"/>
</g>
<g style="mix-blend-mode:multiply" opacity="0.4">
<path d="M142.363 260.199C139.658 267.401 135.289 273.462 133.936 283.529C132.563 282.698 131.294 281.764 130.191 280.726C132.022 273.649 137.806 267.069 142.363 260.199Z" fill="#962A2A"/>
</g>
<g style="mix-blend-mode:multiply" opacity="0.4">
<path d="M153.891 178.876C148.522 182.944 134.478 193.011 126.175 193.198C125.468 191.143 124.636 189.171 123.72 187.386C135.039 185.954 146.026 178.544 151.061 174.704C151.997 176.033 152.954 177.444 153.891 178.876Z" fill="#962A2A"/>
</g>
<g style="mix-blend-mode:multiply" opacity="0.4">
<path d="M164.898 196.021C155.264 203.161 136.641 207.188 127.902 206.648C128.069 205.174 128.11 203.68 128.027 202.185C143.82 201.687 156.783 195.045 161.818 191.019C162.9 192.762 163.961 194.423 164.918 196.042L164.898 196.021Z" fill="#962A2A"/>
</g>
<g style="mix-blend-mode:multiply" opacity="0.4">
<path d="M171.369 218.562C164.752 222.589 149.105 224.394 141.573 223.17C140.491 221.696 139.284 220.098 137.89 218.396C150.353 220.679 164.939 213.746 171.265 209.429C171.452 211.567 171.473 214.743 171.348 218.562H171.369Z" fill="#962A2A"/>
</g>
<g style="mix-blend-mode:multiply" opacity="0.4">
<path d="M170.744 230.704C170.619 232.738 170.474 234.855 170.307 237.014C164.752 237.637 154.202 238.529 148.335 237.076C148.106 235.686 147.731 234.295 147.19 232.863C157.157 234.959 166.042 232.51 170.765 230.725L170.744 230.704Z" fill="#962A2A"/>
</g>
<g style="mix-blend-mode:multiply" opacity="0.4">
<path d="M169.225 250.34C169.08 252.104 168.913 253.847 168.768 255.57C163.857 255.944 150.728 256.629 146.171 253.536C146.92 251.896 147.523 250.236 147.898 248.513C156.138 252.664 165.043 251.336 169.205 250.34H169.225Z" fill="#962A2A"/>
</g>
<g style="mix-blend-mode:multiply" opacity="0.4">
<path d="M167.478 268.812C167.311 270.618 167.124 272.341 166.958 274.001C159.509 275.89 143.258 272.092 137.12 267.65C138.015 266.384 138.93 265.118 139.825 263.831C147.898 270.639 161.569 269.643 167.478 268.812Z" fill="#962A2A"/>
</g>
<path d="M205.305 281.868C203.807 288.323 194.36 289.319 194.36 289.319C194.36 289.319 194.028 283.632 193.528 274.479C193.445 272.715 193.32 270.847 193.216 268.833C193.008 264.973 192.779 260.676 192.529 256.068C192.446 254.408 192.363 252.685 192.259 250.941C191.968 245.192 191.656 239.069 191.364 232.759C191.302 231.617 191.239 230.476 191.198 229.314C191.177 228.691 191.135 228.089 191.115 227.487C190.719 220.347 190.012 214.245 189.117 208.931C188.909 207.873 188.742 206.855 188.534 205.859C187.015 198.283 185.06 192.368 182.937 187.324C182.375 185.933 181.772 184.605 181.189 183.339C180.17 181.159 179.13 179.125 178.131 177.133C177.507 175.929 176.903 174.746 176.321 173.583C176.258 173.48 176.217 173.376 176.154 173.272C175.239 171.466 174.198 169.806 173.075 168.311C169.038 162.852 164.044 159.365 160.008 157.124H159.987C157.989 156.003 156.221 155.193 154.931 154.592C158.322 155.733 161.173 156.958 163.628 158.286C168.663 161.005 172.055 164.202 175.093 168.291C176.092 169.619 177.07 171.072 178.048 172.608C178.172 172.774 178.276 172.961 178.401 173.148C179.962 175.638 181.585 178.42 183.437 181.533C183.707 181.969 183.957 182.405 184.206 182.82C185.122 184.294 185.996 185.601 186.828 186.826C191.281 193.239 194.881 196.436 197.003 199.279C198.085 200.712 198.772 202.061 199.021 203.701C199.105 204.261 199.146 205.029 199.188 205.942C199.333 210.529 198.917 219.06 198.564 226.885C198.48 229.085 198.376 231.202 198.314 233.195C198.168 236.827 198.106 239.961 198.189 241.913C198.251 243.345 198.605 245.441 199.105 247.953C199.437 249.53 199.812 251.294 200.249 253.142C201.123 256.961 202.163 261.174 203.079 265.222C203.578 267.443 204.057 269.622 204.431 271.635C205.284 276.181 205.763 279.958 205.284 281.93L205.305 281.868Z" fill="url(#paint36_linear_1461_1562)"/>
<g style="mix-blend-mode:multiply" opacity="0.4">
<path d="M186.808 186.784C185.726 186.971 184.269 187.179 182.917 187.303C182.355 185.912 181.752 184.584 181.169 183.318C182.397 183.235 183.395 183.007 184.186 182.778C185.102 184.252 185.975 185.56 186.808 186.784Z" fill="#962A2A"/>
</g>
<g style="mix-blend-mode:multiply" opacity="0.4">
<path d="M199.167 205.901C196.837 207.499 191.926 208.723 189.096 208.91C188.888 207.852 188.722 206.835 188.514 205.838C192.654 204.801 195.547 201.355 196.982 199.238C198.064 200.67 198.751 202.019 199.001 203.659C199.084 204.219 199.125 204.987 199.167 205.901Z" fill="#962A2A"/>
</g>
<g style="mix-blend-mode:multiply" opacity="0.4">
<path d="M198.543 226.844C198.46 229.044 198.356 231.161 198.293 233.153C196.483 233.319 193.674 233.382 191.364 232.759C191.302 231.617 191.24 230.476 191.198 229.314C191.177 228.691 191.136 228.089 191.115 227.487C194.007 228.006 196.67 227.487 198.564 226.844H198.543Z" fill="#962A2A"/>
</g>
<g style="mix-blend-mode:multiply" opacity="0.4">
<path d="M200.249 253.079C198.585 254.262 195.484 256.151 192.53 256.068C192.447 254.408 192.363 252.685 192.259 250.941C195.36 251.294 197.836 249.239 199.084 247.89C199.417 249.468 199.792 251.232 200.228 253.079H200.249Z" fill="#962A2A"/>
</g>
<g style="mix-blend-mode:multiply" opacity="0.4">
<path d="M204.431 271.573C201.872 272.798 197.17 274.77 193.507 274.479C193.424 272.715 193.299 270.847 193.195 268.833C197.461 269.58 201.456 267.505 203.079 265.159C203.578 267.38 204.057 269.56 204.431 271.573Z" fill="#962A2A"/>
</g>
<g style="mix-blend-mode:multiply" opacity="0.4">
<path d="M178.381 173.106C177.694 173.127 176.904 173.168 176.134 173.231C175.218 171.425 174.178 169.764 173.054 168.27C173.678 168.187 174.386 168.187 175.093 168.228C176.092 169.557 177.07 171.01 178.048 172.546C178.173 172.712 178.277 172.898 178.402 173.085L178.381 173.106Z" fill="#962A2A"/>
</g>
<path d="M223.429 248.451C227.049 249.8 233 247.454 233 247.454L227.59 236.973C227.59 236.973 220.661 241.56 220.183 243.594C219.704 245.628 223.429 248.451 223.429 248.451Z" fill="#D17869"/>
<path d="M180.919 196.394C180.919 195.398 180.607 194.153 179.588 192.928C180.69 188.549 175.78 181.99 172.555 181.471C169.642 180.993 165.293 185.311 166.479 189.732C167.644 194.111 177.174 197.1 179.109 194.07C179.733 195.024 179.879 195.938 179.837 196.623C177.382 197.868 174.76 202.995 175.53 207.706C176.362 212.854 183.791 213.788 184.977 209.761C186.787 203.597 183.645 196.519 180.919 196.353V196.394Z" fill="#272727"/>
<g style="mix-blend-mode:screen" opacity="0.9">
<path d="M181.148 211.256C179.171 211.256 176.966 209.99 176.591 207.582C175.905 203.244 178.339 198.615 180.337 197.598L180.649 197.432H180.857C181.19 197.474 181.793 197.806 182.438 198.74C184.082 201.065 185.143 205.506 183.957 209.491C183.479 211.11 181.689 211.235 181.148 211.235V211.256ZM176.009 194.277C172.825 194.277 168.164 192.036 167.499 189.503C167.082 187.926 167.499 186.162 168.643 184.667C169.621 183.401 171.015 182.529 172.097 182.529C172.201 182.529 172.284 182.529 172.388 182.55C173.657 182.758 175.489 184.335 176.841 186.411C178.339 188.694 178.984 191.039 178.568 192.7L178.443 193.219L178.235 193.551C177.944 194.028 177.132 194.298 176.03 194.298L176.009 194.277Z" fill="#090C17"/>
</g>
<path d="M223.137 218.583L226.737 248.16L238.784 248.928L242.654 219.039L223.137 218.583Z" fill="#707070"/>
<path d="M221.119 216.445C221.243 215.926 225.301 211.09 225.301 211.09L242.467 213.248L243.695 217.794L221.119 216.445Z" fill="url(#paint37_linear_1461_1562)"/>
<path d="M219.142 214.784L220.328 220.658L245.838 221.094L245.463 216.798L219.142 214.784Z" fill="url(#paint38_linear_1461_1562)"/>
<path d="M130.191 280.726C135.33 285.687 141.302 282.719 141.302 282.719L141.136 334.153L131.689 337.951L130.191 280.726Z" fill="#707070"/>
<path d="M102.829 349.201C102.829 349.201 142.613 336.623 142.779 336.145C142.946 335.647 142.447 279.087 142.447 279.087L140.449 278.589L141.115 334.153C141.115 334.153 134.81 335.979 134.81 335.481C134.81 334.983 133.312 277.26 133.312 277.26H131.148L86.8911 307.357L102.809 349.201H102.829Z" fill="#272727"/>
<path d="M106.595 252.83C105.93 261.88 105.264 273.773 105.722 284.795C106.179 295.816 114.336 331.766 114.336 331.766L117.644 330.894C117.644 330.894 116.978 287.68 116.978 276.658C116.978 265.637 117.207 253.059 117.207 253.059L106.595 252.83Z" fill="#DD7E68"/>
<path d="M135.497 176.199C135.996 167.108 141.802 163.454 141.802 163.454C141.802 163.454 132.355 161.462 130.025 158.992C127.694 156.501 130.857 152.039 130.857 152.039C130.857 152.039 123.45 156.19 124.053 165.426C124.219 167.917 135.497 176.178 135.497 176.178V176.199Z" fill="#E23023"/>
<path d="M236.162 233.403C234.498 233.091 234.519 230.683 236.183 230.434C238.118 230.144 240.241 230.621 240.719 231.244C241.551 232.344 240.844 234.316 240.844 234.316L236.162 233.423V233.403Z" fill="#D17869"/>
<path d="M235.372 236.35C234.02 235.997 233.812 234.108 235.102 233.548C237.848 232.344 240.948 233.029 241.739 234.793C242.821 237.18 241.427 237.886 241.427 237.886L235.372 236.35Z" fill="#D17869"/>
<path d="M234.456 237.139C238.493 234.731 243.757 237.595 241.468 241.56C239.346 241.228 236.579 240.314 234.706 239.629C233.603 239.235 233.458 237.741 234.477 237.139H234.456Z" fill="#D17869"/>
<path d="M236.454 240.812C234.81 241.062 234.456 243.303 235.954 244.03C237.619 244.839 239.492 245.171 240.033 244.715C240.99 243.905 242.259 241.746 240.574 240.854C239.762 240.439 238.035 240.563 236.454 240.812Z" fill="#D17869"/>
<path d="M220.182 243.573C218.976 239.359 222.825 237.699 223.033 232.531C223.116 230.455 222.95 228.608 222.742 227.155C222.43 225.183 225.488 225.951 226.258 229.417C226.82 231.95 225.218 234.17 224.906 234.938C224.365 236.308 227.403 244.424 220.162 243.573H220.182Z" fill="#D17869"/>
<path d="M161.673 165.738C158.135 164.907 157.553 170.345 161.256 170.989C164.502 171.549 165.127 166.547 161.673 165.738Z" fill="#272727"/>
<path d="M162.962 167.066C161.339 165.198 159.28 167.46 159.446 168.291C159.612 169.121 161.735 170.034 162.588 169.91C163.462 169.785 162.484 167.46 161.797 167.066C161.111 166.651 160.694 168.166 160.944 168.726C161.194 169.287 161.964 168.851 162.151 168.643C162.338 168.436 161.277 168.332 161.277 168.332C161.277 168.332 161.444 167.523 161.756 167.357C162.068 167.191 162.754 169.391 162.671 169.661C162.588 169.93 160.07 168.623 159.758 168.394C159.446 168.166 160.903 165.821 162.962 167.087V167.066Z" fill="#D6BBC8"/>
<path d="M103.495 243.677C102.829 246.313 105.16 250.464 104.827 253.266C109.8 256.732 118.913 254.761 118.913 254.761C118.913 254.761 121.722 246.5 121.722 246.001C121.722 245.503 103.495 243.677 103.495 243.677Z" fill="#E23023"/>
<path d="M114.336 331.766C114.336 331.766 109.259 341.791 109.259 343.119C109.259 344.448 114.461 349.678 115.938 350.01C117.436 350.343 120.578 347.042 120.578 347.042L117.644 330.894C117.644 330.894 115.043 329.4 114.336 331.766Z" fill="#DD7E68"/>
<path d="M112.942 343.41C112.942 343.41 116.916 349.533 118.414 349.865C119.912 350.197 123.054 347.063 123.054 347.063L118.081 341.106L112.942 343.431V343.41Z" fill="#DD7E68"/>
<path d="M115.522 341.334C115.522 341.334 118.019 347.956 120.661 348.454C121.556 348.62 122.534 348.412 123.408 348.059C125.093 347.374 125.551 345.195 124.303 343.867L119.579 338.366L115.522 341.334Z" fill="#DD7E68"/>
<path d="M117.686 336.125C117.686 336.125 122.742 346.71 124.906 346.876C127.07 347.042 123.741 337.287 122.409 335.792C121.078 334.298 117.686 336.125 117.686 336.125Z" fill="#DD7E68"/>
<path d="M117.104 330.832C120.911 330.998 124.24 334.132 126.716 336.457C127.507 337.183 127.299 339.155 127.466 340.587C127.715 342.974 127.965 344.469 127.341 344.593C125.218 344.967 123.408 340.421 123.408 338.449C123.408 335.647 117.436 337.287 117.436 337.287L117.104 330.832Z" fill="#DD7E68"/>
<path d="M129.512 68.1428C137.52 67.6752 143.631 60.8209 143.162 52.8332C142.694 44.8455 135.822 38.7492 127.815 39.2168C119.808 39.6843 113.696 46.5387 114.165 54.5264C114.634 62.5141 121.505 68.6103 129.512 68.1428Z" fill="black"/>
<path d="M135.637 86.2424C143.315 83.9271 147.658 75.8412 145.337 68.1822C143.016 60.5231 134.91 56.1911 127.232 58.5065C119.554 60.8218 115.212 68.9076 117.533 76.5667C119.854 84.2258 127.959 88.5577 135.637 86.2424Z" fill="#C1210D"/>
<path d="M107.47 112.249C107.47 112.249 101.477 108.887 98.252 114.408C94.7147 120.448 105.888 134.936 113.941 126.55L107.449 112.249H107.47Z" fill="#FFC2B3"/>
<path d="M110.237 124.308C110.008 124.35 109.779 124.246 109.633 124.059C105.722 118.6 101.81 118.912 101.643 118.912C101.311 118.933 100.998 118.704 100.978 118.351C100.936 118.019 101.227 117.708 101.519 117.687C101.706 117.687 106.283 117.272 110.632 123.333C110.84 123.603 110.757 123.997 110.487 124.184C110.403 124.246 110.32 124.288 110.216 124.288L110.237 124.308Z" fill="#C1513C"/>
<path d="M165.397 103.718C165.397 103.718 170.141 98.7783 174.843 103.116C179.983 107.89 173.491 124.952 163.337 119.285L165.397 103.718Z" fill="#FFC2B3"/>
<path d="M166.229 116.047C166.229 116.047 166.042 116.047 165.938 116.027C165.605 115.923 165.438 115.57 165.543 115.238C167.956 108.16 172.451 107.226 172.638 107.205C172.95 107.143 173.304 107.351 173.366 107.703C173.428 108.036 173.22 108.368 172.887 108.43C172.721 108.471 168.892 109.322 166.729 115.653C166.645 115.881 166.458 116.027 166.229 116.068V116.047Z" fill="#C1513C"/>
<path d="M139.583 128.48C158.624 125.672 171.835 108.383 169.091 89.8647C166.346 71.3464 148.685 58.611 129.644 61.4192C110.603 64.2275 97.3914 81.516 100.136 100.034C102.881 118.553 120.542 131.288 139.583 128.48Z" fill="black"/>
<path d="M104.931 95.5197C104.931 95.5197 109.384 150.627 140.969 145.957C175.114 140.913 163.462 86.8852 163.462 86.8852C163.462 86.8852 159.821 63.5968 130.483 67.9141C103.6 71.8785 104.931 95.4989 104.931 95.4989V95.5197Z" fill="url(#paint39_linear_1461_1562)"/>
<path d="M138.556 124.246L136.225 124.599C135.892 124.64 135.58 124.412 135.518 124.08C135.455 123.748 135.705 123.437 136.038 123.374L138.369 123.021C138.577 122.98 138.764 122.876 138.889 122.689C139.014 122.503 139.034 122.295 138.993 122.087L137.682 116.961C137.599 116.629 137.807 116.297 138.119 116.213C138.452 116.13 138.785 116.317 138.868 116.649L140.179 121.776C140.324 122.316 140.22 122.897 139.908 123.354C139.596 123.831 139.097 124.142 138.535 124.225L138.556 124.246Z" fill="#C1513C"/>
<path d="M126.674 112.976C126.883 114.346 125.925 115.632 124.552 115.819C123.179 116.006 121.889 115.072 121.702 113.702C121.514 112.332 122.451 111.045 123.824 110.858C125.197 110.672 126.487 111.606 126.674 112.976Z" fill="#2E282F"/>
<path d="M149.105 112.166C150.496 112.166 151.623 111.042 151.623 109.655C151.623 108.268 150.496 107.143 149.105 107.143C147.715 107.143 146.587 108.268 146.587 109.655C146.587 111.042 147.715 112.166 149.105 112.166Z" fill="#2E282F"/>
<path d="M114.398 106.956L129.858 103.137C129.858 103.137 127.715 99.0274 121.057 100.729C114.253 102.473 114.398 106.956 114.398 106.956Z" fill="#2E282F"/>
<path d="M156.512 100.75L140.616 101.56C140.616 101.56 141.469 97.0141 148.335 96.7235C155.368 96.4122 156.512 100.75 156.512 100.75Z" fill="#2E282F"/>
<path d="M138.972 130.245C133.832 131.013 130.857 128.833 130.732 128.709C130.462 128.501 130.399 128.107 130.607 127.837C130.815 127.567 131.211 127.505 131.481 127.712C131.627 127.816 135.206 130.39 141.406 128.377C141.718 128.273 142.072 128.439 142.176 128.771C142.28 129.103 142.114 129.435 141.781 129.539C140.782 129.871 139.846 130.079 138.972 130.203V130.245Z" fill="#C1513C"/>
<path d="M111.048 74.4106C111.048 74.4106 122.721 84.1453 104.203 102.556C104.203 102.556 92.2594 85.702 111.048 74.4106Z" fill="black"/>
<path d="M109.613 76.092C109.613 76.092 107.948 92.261 138.868 89.6872C163.212 87.6531 167.748 98.218 167.748 98.218C167.748 98.218 170.224 65.6932 139.867 64.427C109.509 63.1817 109.634 76.092 109.634 76.092H109.613Z" fill="black"/>
<path d="M614.734 307.824C615.792 293.683 609.72 281.703 601.171 281.067C592.622 280.43 584.834 291.377 583.776 305.518C582.717 319.659 588.79 331.638 597.339 332.275C605.887 332.912 613.676 321.964 614.734 307.824Z" fill="black"/>
<path d="M651.85 400.136C651.85 400.136 658.342 415.683 659.049 442.043C661.858 444.43 664.043 449.1 663.252 452.193C662.836 452.67 662.42 451.695 662.274 451.363C662.129 451.03 660.485 447.211 659.569 447.294C659.424 450.013 657.322 454.102 655.2 453.355C654.014 452.774 657.197 449.494 655.907 447.564C655.346 449.183 651.309 453.417 650.456 451.342C649.603 449.266 653.931 448.726 652.766 445.551C650.56 446.838 648.625 446.983 648.438 445.987C648.25 444.99 652.557 442.769 652.641 440.839C652.87 437.788 650.373 417.655 646.294 402.98C648.001 399.701 651.829 400.136 651.829 400.136H651.85Z" fill="url(#paint40_linear_1461_1562)"/>
<path d="M595.858 311.695C589.22 300.341 583.144 285.106 599.103 270.245C615.937 254.594 635.079 261.942 632.333 274.728C632.333 274.728 655.762 261.527 660.048 272.175C664.209 282.553 658.696 285.812 658.696 285.812C658.696 285.812 683.831 276.658 681.875 301.898C681.479 307.024 671.201 320.599 665.187 324.377C665.187 324.377 671.013 327.843 668.995 335.668C667.913 339.881 652.391 351.546 618.891 353.954C611.692 346.399 598.25 340.753 598.25 340.753L595.837 311.695H595.858Z" fill="black"/>
<path d="M666.415 284.255C659.778 300.175 644.838 292.827 622.366 293.491C613.565 293.761 601.476 311.446 594.131 308.623C594.693 309.661 595.254 310.698 595.837 311.695L598.251 340.753C598.251 340.753 611.713 346.399 618.892 353.954C652.412 351.546 667.913 339.861 668.995 335.668C671.014 327.864 665.188 324.377 665.188 324.377C671.18 320.599 681.48 307.004 681.875 301.898C683.103 286.04 673.615 283.757 666.415 284.255Z" fill="black"/>
<path d="M637.93 437.996C637.93 437.996 646.003 471.288 637.763 508.027C636.536 508.815 631.854 508.587 631.854 508.587C631.854 508.587 635.246 488.225 631.417 473.198C629.919 467.282 626.423 447.17 626.423 447.17L637.93 437.996Z" fill="url(#paint41_linear_1461_1562)"/>
<path d="M620.743 448.104C620.743 448.104 616.02 476.457 618.683 508.587C616.436 509.625 611.921 508.857 611.921 508.857C611.921 508.857 605.283 469.607 608.904 440.673C618.309 446.63 620.722 448.104 620.722 448.104H620.743Z" fill="url(#paint42_linear_1461_1562)"/>
<path d="M625.903 365.328C625.903 365.328 648.084 369.231 658.529 400.759L641.842 404.557L625.466 369.625L625.903 365.328Z" fill="#00B4CA"/>
<path d="M619.724 365.515C619.724 365.515 597.814 370.725 589.283 402.814L606.157 405.616L620.41 369.791L619.724 365.536V365.515Z" fill="#00B4CA"/>
<path d="M604.222 450.283L603.265 482.517L623.864 483.867L624.676 459.852L627.984 484.053L646.815 485.236L643.548 449.723L604.222 450.283Z" fill="#E23023"/>
<path d="M618.787 453.812C618.787 453.812 620.743 478.428 617.081 478.159C610.547 477.681 603.598 477.806 603.598 477.806L604.201 451.902L618.808 453.832L618.787 453.812Z" fill="url(#paint43_linear_1461_1562)"/>
<path d="M631.188 453.812C631.188 453.812 627.443 476.021 632.811 477.764C638.18 479.508 646.086 478.74 646.086 478.74L643.839 454.351L631.188 453.812Z" fill="url(#paint44_linear_1461_1562)"/>
<path d="M598.396 445.385L597.959 449.661C597.959 449.661 611.962 457.299 645.92 455.078C645.462 448.083 645.171 446.651 645.171 446.651L598.396 445.385Z" fill="#FF4C3B"/>
<path d="M606.324 389.634C605.845 402.44 604.181 417.592 597.98 447.813C621.575 453.563 645.982 450.304 645.982 450.304C645.982 450.304 649.291 409.331 640.115 387.06C634.185 375.333 632.041 371.431 628.088 369.521C624.135 367.612 607.26 364.436 606.324 389.634Z" fill="#398DA5"/>
<path d="M593.194 403.437C593.194 403.437 588.513 416.824 589.387 443.185C586.723 445.738 584.83 450.532 585.808 453.563C586.265 454.019 586.619 453.023 586.744 452.67C586.869 452.338 588.284 448.436 589.199 448.436C589.511 451.134 591.842 455.099 593.923 454.227C595.067 453.563 591.696 450.491 592.861 448.498C593.527 450.076 597.813 454.061 598.521 451.944C599.228 449.827 594.9 449.536 595.858 446.298C598.126 447.46 600.061 447.481 600.206 446.464C600.331 445.447 595.899 443.496 595.712 441.586C595.296 438.556 595.774 419.253 598.979 404.391C596.149 403.81 593.215 403.437 593.215 403.437H593.194Z" fill="url(#paint45_linear_1461_1562)"/>
<path d="M615.791 368.919L619.203 352.895L625.133 352.273C625.133 352.812 626.59 367.923 626.59 367.923L629.128 370.019C629.128 370.019 625.279 373.506 618.641 372.987C615.187 371.929 615.812 368.94 615.812 368.94L615.791 368.919Z" fill="url(#paint46_linear_1461_1562)"/>
<path d="M616.311 366.698C616.311 366.698 615.52 369.189 615.895 370.165C616.269 371.14 626.007 370.995 627.63 368.836L626.59 367.902L626.34 365.37C626.34 365.37 631.022 366.719 631.396 367.196C631.771 367.674 630.897 372.033 623.968 373.07C617.039 374.108 611.546 373.382 613.232 368.296L616.332 366.678L616.311 366.698Z" fill="#FF4C3B"/>
<path d="M595.4 292.537C588.388 300.32 584.268 306.028 584.435 320.827C584.559 331.89 584.705 333.572 584.705 333.572C584.705 333.572 579.711 346.108 585.912 351.671C595.733 360.513 608.176 363.336 610.007 363.107C621.68 359.994 638.846 355.345 647.585 345.714C656.781 336.54 663.086 308.498 643.486 293.408C623.885 278.298 601.767 285.438 595.379 292.516L595.4 292.537Z" fill="url(#paint47_linear_1461_1562)"/>
<path d="M641.197 338.221C641.197 338.221 654.493 331.849 656.511 339.259C658.529 346.669 649.603 355.511 640.344 351.214C641.176 344.531 641.197 338.221 641.197 338.221Z" fill="url(#paint48_linear_1461_1562)"/>
<path d="M619.703 332.098C621.047 332.098 622.137 331.011 622.137 329.669C622.137 328.328 621.047 327.241 619.703 327.241C618.358 327.241 617.269 328.328 617.269 329.669C617.269 331.011 618.358 332.098 619.703 332.098Z" fill="#2B232A"/>
<path d="M595.631 331.762C596.968 331.622 597.938 330.427 597.798 329.093C597.658 327.759 596.46 326.791 595.123 326.931C593.786 327.071 592.815 328.266 592.956 329.6C593.096 330.934 594.294 331.902 595.631 331.762Z" fill="#2B232A"/>
<path d="M628.255 322.28L612.94 320.64C612.94 320.64 614.459 316.427 621.055 317.195C627.818 317.963 628.255 322.28 628.255 322.28Z" fill="#2B232A"/>
<path d="M587.077 321.824L602.412 320.516C602.412 320.516 600.997 316.282 594.381 316.884C587.618 317.506 587.077 321.824 587.077 321.824Z" fill="#2B232A"/>
<path d="M606.178 340.982L608.737 341.065C609.112 341.065 609.424 340.795 609.424 340.421C609.424 340.047 609.153 339.736 608.779 339.736L606.22 339.653C605.991 339.653 605.783 339.549 605.637 339.363C605.491 339.176 605.429 338.968 605.45 338.74L606.324 330.168C606.365 329.794 606.095 329.462 605.72 329.441C605.346 329.4 605.013 329.669 604.992 330.043L604.118 338.595C604.035 339.176 604.222 339.778 604.617 340.255C605.013 340.712 605.575 341.002 606.199 341.023L606.178 340.982Z" fill="#F48073"/>
<path d="M612.275 350.322C606.47 352.273 602.558 350.363 602.37 350.259C601.996 350.073 601.85 349.616 602.038 349.242C602.225 348.869 602.683 348.724 603.057 348.91C603.244 349.014 607.905 351.235 614.647 347.623C615.021 347.416 615.479 347.561 615.687 347.935C615.895 348.308 615.75 348.765 615.375 348.973C614.293 349.554 613.253 349.99 612.254 350.322H612.275Z" fill="#FF6058"/>
<path d="M641.717 344.904C641.946 341.812 645.358 335.543 658.196 335.855L661.629 313.044C661.629 313.044 651.33 311.57 645.316 319.935C639.303 328.3 637.68 342.185 637.68 342.185L641.717 344.904Z" fill="black"/>
<path d="M644.193 349.222C644.089 349.222 643.964 349.222 643.86 349.201C643.485 349.076 643.277 348.661 643.402 348.288C646.19 339.902 651.496 338.781 651.725 338.719C652.079 338.657 652.516 338.906 652.578 339.3C652.661 339.695 652.391 340.068 652.016 340.151C651.808 340.193 647.293 341.231 644.796 348.744C644.713 349.014 644.484 349.201 644.213 349.242L644.193 349.222Z" fill="#DD7E68"/>
<path d="M619.432 511.078L606.053 511.327C606.053 511.327 614.168 505.328 617.331 506.532C620.473 507.736 619.453 511.078 619.453 511.078H619.432Z" fill="#454545"/>
<path d="M630.377 510.683L643.756 510.144C643.756 510.144 635.287 504.623 632.229 506.013C629.17 507.404 630.377 510.663 630.377 510.663V510.683Z" fill="#454545"/>
<path d="M628.774 280.643C628.774 280.643 600.518 262.503 591.509 280.166C578.358 305.945 591.217 303.454 598.396 304.928C599.519 305.156 632.478 305.53 637.347 309.764C640.759 312.712 644.151 316.718 641.259 327.822C641.259 327.822 660.381 335.211 661.941 317.257C662.212 314.227 651.954 283.902 628.795 280.664L628.774 280.643Z" fill="black"/>
</g>
<g style="mix-blend-mode:multiply">
<path fill-rule="evenodd" clip-rule="evenodd" d="M372 487C536.034 487 669 500.439 669 517C669 533.561 536.034 547 372 547C207.966 547 75 533.577 75 517C75 500.423 207.966 487 372 487Z" fill="#E2E2F2"/>
</g>
<defs>
<linearGradient id="paint0_linear_1461_1562" x1="505.721" y1="473.592" x2="505.721" y2="465.892" gradientUnits="userSpaceOnUse">
<stop stop-color="#F7B59C"/>
<stop offset="1" stop-color="#E3826F"/>
</linearGradient>
<linearGradient id="paint1_linear_1461_1562" x1="531.127" y1="473.883" x2="531.127" y2="465.996" gradientUnits="userSpaceOnUse">
<stop stop-color="#F7B59C"/>
<stop offset="1" stop-color="#E3826F"/>
</linearGradient>
<linearGradient id="paint2_linear_1461_1562" x1="514.855" y1="241.684" x2="485.866" y2="455.45" gradientUnits="userSpaceOnUse">
<stop stop-color="#C1210D"/>
<stop offset="0.52" stop-color="#C1210D"/>
<stop offset="1" stop-color="#9D1D06"/>
</linearGradient>
<radialGradient id="paint3_radial_1461_1562" cx="0" cy="0" r="1" gradientUnits="userSpaceOnUse" gradientTransform="translate(531.293 289.019) scale(30.1497 31.2786)">
<stop stop-color="#8293AD"/>
<stop offset="1" stop-color="white"/>
</radialGradient>
<linearGradient id="paint4_linear_1461_1562" x1="537.473" y1="241.041" x2="507.903" y2="459.041" gradientUnits="userSpaceOnUse">
<stop stop-color="#C1210D"/>
<stop offset="0.52" stop-color="#C1210D"/>
<stop offset="1" stop-color="#9D1D06"/>
</linearGradient>
<radialGradient id="paint5_radial_1461_1562" cx="0" cy="0" r="1" gradientUnits="userSpaceOnUse" gradientTransform="translate(548.355 256.424) scale(18.4769 19.1687)">
<stop stop-color="#8293AD"/>
<stop offset="1" stop-color="white"/>
</radialGradient>
<linearGradient id="paint6_linear_1461_1562" x1="508.53" y1="253.598" x2="516.978" y2="253.598" gradientUnits="userSpaceOnUse">
<stop stop-color="#3D3D3D"/>
<stop offset="1" stop-color="#262626"/>
</linearGradient>
<linearGradient id="paint7_linear_1461_1562" x1="466.031" y1="133.016" x2="484.9" y2="152.782" gradientUnits="userSpaceOnUse">
<stop stop-color="#CFDDF1"/>
<stop offset="1" stop-color="#EAEEF7"/>
</linearGradient>
<linearGradient id="paint8_linear_1461_1562" x1="529.503" y1="89.5212" x2="529.503" y2="80.8244" gradientUnits="userSpaceOnUse">
<stop stop-color="#F7B59C"/>
<stop offset="1" stop-color="#E3826F"/>
</linearGradient>
<linearGradient id="paint9_linear_1461_1562" x1="523.448" y1="62.7457" x2="528.708" y2="108.703" gradientUnits="userSpaceOnUse">
<stop stop-color="#F7C3AF"/>
<stop offset="0.41" stop-color="#F7B29E"/>
<stop offset="1" stop-color="#F79480"/>
</linearGradient>
<linearGradient id="paint10_linear_1461_1562" x1="556.948" y1="56.7057" x2="553.18" y2="99.8593" gradientUnits="userSpaceOnUse">
<stop stop-color="#F7C3AF"/>
<stop offset="0.41" stop-color="#F7B29E"/>
<stop offset="1" stop-color="#F79480"/>
</linearGradient>
<linearGradient id="paint11_linear_1461_1562" x1="536.524" y1="140.098" x2="602.826" y2="180.7" gradientUnits="userSpaceOnUse">
<stop stop-color="#CFDDF1"/>
<stop offset="1" stop-color="#EAEEF7"/>
</linearGradient>
<linearGradient id="paint12_linear_1461_1562" x1="570.074" y1="219.311" x2="572.679" y2="197.693" gradientUnits="userSpaceOnUse">
<stop stop-color="#F7B59C"/>
<stop offset="1" stop-color="#E3826F"/>
</linearGradient>
<linearGradient id="paint13_linear_1461_1562" x1="570.105" y1="264.358" x2="568.669" y2="271.015" gradientUnits="userSpaceOnUse">
<stop stop-color="#F7B59C"/>
<stop offset="1" stop-color="#E3826F"/>
</linearGradient>
<linearGradient id="paint14_linear_1461_1562" x1="567.148" y1="265.384" x2="565.372" y2="273.785" gradientUnits="userSpaceOnUse">
<stop stop-color="#F7B59C"/>
<stop offset="1" stop-color="#E3826F"/>
</linearGradient>
<linearGradient id="paint15_linear_1461_1562" x1="562.595" y1="266.269" x2="560.853" y2="274.506" gradientUnits="userSpaceOnUse">
<stop stop-color="#F7B59C"/>
<stop offset="1" stop-color="#E3826F"/>
</linearGradient>
<linearGradient id="paint16_linear_1461_1562" x1="590.774" y1="176.499" x2="597.853" y2="151.354" gradientUnits="userSpaceOnUse">
<stop stop-color="#F7B59C"/>
<stop offset="1" stop-color="#E3826F"/>
</linearGradient>
<linearGradient id="paint17_linear_1461_1562" x1="581.52" y1="182.624" x2="583.758" y2="159.661" gradientUnits="userSpaceOnUse">
<stop offset="0.06" stop-color="#CFDDF1"/>
<stop offset="0.32" stop-color="#D8E2F3"/>
<stop offset="0.9" stop-color="#EAEEF7"/>
</linearGradient>
<linearGradient id="paint18_linear_1461_1562" x1="336.038" y1="427.161" x2="490.032" y2="427.161" gradientUnits="userSpaceOnUse">
<stop stop-color="#454545"/>
<stop offset="1" stop-color="#2E2E2E"/>
</linearGradient>
<linearGradient id="paint19_linear_1461_1562" x1="458.759" y1="333.655" x2="470.218" y2="344.393" gradientUnits="userSpaceOnUse">
<stop stop-color="#F7B59C"/>
<stop offset="1" stop-color="#F79480"/>
</linearGradient>
<linearGradient id="paint20_linear_1461_1562" x1="322.346" y1="168.329" x2="309.083" y2="231.95" gradientUnits="userSpaceOnUse">
<stop stop-color="#F7C3AF"/>
<stop offset="1" stop-color="#F79480"/>
</linearGradient>
<linearGradient id="paint21_linear_1461_1562" x1="346.029" y1="170.177" x2="348.034" y2="202.203" gradientUnits="userSpaceOnUse">
<stop stop-color="#F7C3AF"/>
<stop offset="1" stop-color="#F79480"/>
</linearGradient>
<linearGradient id="paint22_linear_1461_1562" x1="378.859" y1="375.208" x2="329.527" y2="380.464" gradientUnits="userSpaceOnUse">
<stop stop-color="#454545"/>
<stop offset="1" stop-color="#2E2E2E"/>
</linearGradient>
<linearGradient id="paint23_linear_1461_1562" x1="384.955" y1="361.841" x2="390.65" y2="429.592" gradientUnits="userSpaceOnUse">
<stop stop-color="#454545"/>
<stop offset="1" stop-color="#2E2E2E"/>
</linearGradient>
<linearGradient id="paint24_linear_1461_1562" x1="350.595" y1="354.103" x2="363.77" y2="362.66" gradientUnits="userSpaceOnUse">
<stop stop-color="#F7B59C"/>
<stop offset="1" stop-color="#F79480"/>
</linearGradient>
<linearGradient id="paint25_linear_1461_1562" x1="424.057" y1="182.478" x2="440.228" y2="168.07" gradientUnits="userSpaceOnUse">
<stop stop-color="#F7B59C"/>
<stop offset="1" stop-color="#E3826F"/>
</linearGradient>
<linearGradient id="paint26_linear_1461_1562" x1="386.843" y1="207.458" x2="382.233" y2="212.393" gradientUnits="userSpaceOnUse">
<stop stop-color="#F7B59C"/>
<stop offset="1" stop-color="#E3826F"/>
</linearGradient>
<linearGradient id="paint27_linear_1461_1562" x1="387.675" y1="210.421" x2="381.837" y2="216.678" gradientUnits="userSpaceOnUse">
<stop stop-color="#F7B59C"/>
<stop offset="1" stop-color="#E3826F"/>
</linearGradient>
<linearGradient id="paint28_linear_1461_1562" x1="389.547" y1="214.627" x2="383.812" y2="220.747" gradientUnits="userSpaceOnUse">
<stop stop-color="#F7B59C"/>
<stop offset="1" stop-color="#E3826F"/>
</linearGradient>
<linearGradient id="paint29_linear_1461_1562" x1="429.324" y1="175.147" x2="456.39" y2="153.742" gradientUnits="userSpaceOnUse">
<stop stop-color="#CFDDF1"/>
<stop offset="1" stop-color="#EAEEF7"/>
</linearGradient>
<linearGradient id="paint30_linear_1461_1562" x1="413.979" y1="189.839" x2="443.247" y2="159.185" gradientUnits="userSpaceOnUse">
<stop stop-color="#F7B59C"/>
<stop offset="1" stop-color="#E3826F"/>
</linearGradient>
<linearGradient id="paint31_linear_1461_1562" x1="178.074" y1="173.637" x2="176.764" y2="218.742" gradientUnits="userSpaceOnUse">
<stop stop-color="#C1210D"/>
<stop offset="0.52" stop-color="#C1210D"/>
<stop offset="1" stop-color="#9D1D06"/>
</linearGradient>
<linearGradient id="paint32_linear_1461_1562" x1="189.715" y1="233.428" x2="175.082" y2="243.319" gradientUnits="userSpaceOnUse">
<stop offset="0.31" stop-color="#DE6666"/>
<stop offset="1" stop-color="#C24747"/>
</linearGradient>
<linearGradient id="paint33_linear_1461_1562" x1="144.423" y1="145.812" x2="160.668" y2="183.907" gradientUnits="userSpaceOnUse">
<stop stop-color="#F7C3AF"/>
<stop offset="0.41" stop-color="#F7B29E"/>
<stop offset="1" stop-color="#F79480"/>
</linearGradient>
<linearGradient id="paint34_linear_1461_1562" x1="106.658" y1="213.311" x2="129.275" y2="213.311" gradientUnits="userSpaceOnUse">
<stop stop-color="#C1210D"/>
<stop offset="0.52" stop-color="#C1210D"/>
<stop offset="1" stop-color="#9D1D06"/>
</linearGradient>
<linearGradient id="paint35_linear_1461_1562" x1="116.77" y1="226.989" x2="171.431" y2="226.989" gradientUnits="userSpaceOnUse">
<stop stop-color="#C1210D"/>
<stop offset="0.52" stop-color="#C1210D"/>
<stop offset="1" stop-color="#9D1D06"/>
</linearGradient>
<linearGradient id="paint36_linear_1461_1562" x1="154.91" y1="221.924" x2="205.492" y2="221.924" gradientUnits="userSpaceOnUse">
<stop stop-color="#C1210D"/>
<stop offset="0.52" stop-color="#C1210D"/>
<stop offset="1" stop-color="#9D1D06"/>
</linearGradient>
<linearGradient id="paint37_linear_1461_1562" x1="221.119" y1="214.431" x2="243.715" y2="214.431" gradientUnits="userSpaceOnUse">
<stop stop-color="#3D3D3D"/>
<stop offset="1" stop-color="#262626"/>
</linearGradient>
<linearGradient id="paint38_linear_1461_1562" x1="219.142" y1="217.939" x2="245.838" y2="217.939" gradientUnits="userSpaceOnUse">
<stop stop-color="#3D3D3D"/>
<stop offset="1" stop-color="#262626"/>
</linearGradient>
<linearGradient id="paint39_linear_1461_1562" x1="135.185" y1="100.211" x2="138.767" y2="156.357" gradientUnits="userSpaceOnUse">
<stop stop-color="#F7C3AF"/>
<stop offset="0.41" stop-color="#F7B29E"/>
<stop offset="1" stop-color="#F79480"/>
</linearGradient>
<linearGradient id="paint40_linear_1461_1562" x1="652.673" y1="451.905" x2="657.381" y2="398.52" gradientUnits="userSpaceOnUse">
<stop stop-color="#F7B59C"/>
<stop offset="1" stop-color="#E3826F"/>
</linearGradient>
<linearGradient id="paint41_linear_1461_1562" x1="634.971" y1="504.218" x2="633.787" y2="450.533" gradientUnits="userSpaceOnUse">
<stop stop-color="#F7B59C"/>
<stop offset="1" stop-color="#E3826F"/>
</linearGradient>
<linearGradient id="paint42_linear_1461_1562" x1="615.504" y1="508.265" x2="614.237" y2="451.115" gradientUnits="userSpaceOnUse">
<stop stop-color="#F7B59C"/>
<stop offset="1" stop-color="#E3826F"/>
</linearGradient>
<linearGradient id="paint43_linear_1461_1562" x1="611.652" y1="475.823" x2="610.901" y2="455.475" gradientUnits="userSpaceOnUse">
<stop stop-color="#C1210D"/>
<stop offset="0.52" stop-color="#C1210D"/>
<stop offset="1" stop-color="#9D1D06"/>
</linearGradient>
<linearGradient id="paint44_linear_1461_1562" x1="638.135" y1="476.654" x2="637.412" y2="457.239" gradientUnits="userSpaceOnUse">
<stop stop-color="#C1210D"/>
<stop offset="0.52" stop-color="#C1210D"/>
<stop offset="1" stop-color="#9D1D06"/>
</linearGradient>
<linearGradient id="paint45_linear_1461_1562" x1="593.147" y1="445.953" x2="597.654" y2="394.879" gradientUnits="userSpaceOnUse">
<stop stop-color="#F7B59C"/>
<stop offset="1" stop-color="#E3826F"/>
</linearGradient>
<linearGradient id="paint46_linear_1461_1562" x1="622.259" y1="371.867" x2="623.96" y2="351.777" gradientUnits="userSpaceOnUse">
<stop stop-color="#F7B59C"/>
<stop offset="1" stop-color="#E3826F"/>
</linearGradient>
<linearGradient id="paint47_linear_1461_1562" x1="619.927" y1="341.225" x2="620.99" y2="372.051" gradientUnits="userSpaceOnUse">
<stop stop-color="#F7B59C"/>
<stop offset="1" stop-color="#E3826F"/>
</linearGradient>
<linearGradient id="paint48_linear_1461_1562" x1="665.181" y1="337.738" x2="622.217" y2="353.04" gradientUnits="userSpaceOnUse">
<stop stop-color="#F7C3AF"/>
<stop offset="0.1" stop-color="#F7C0AC"/>
<stop offset="0.59" stop-color="#F7A995"/>
<stop offset="1" stop-color="#F79480"/>
</linearGradient>
<clipPath id="clip0_1461_1562">
<rect width="682" height="532" fill="white"/>
</clipPath>
</defs>
</svg>
