<svg width="328" height="449" viewBox="0 0 328 449" fill="none" xmlns="http://www.w3.org/2000/svg">
<g clip-path="url(#clip0_1_28897)">
<path d="M1.81007 79.2333C-9.99016 118.196 40.0319 147.587 29.8394 219.065C23.1557 265.949 -2.6188 279.84 7.149 302.275C23.8028 340.563 109.954 342.12 166.801 329.195C201.464 321.315 279.677 303.542 313.48 228.845C340.983 168.08 328.091 92.1794 285.926 46.9149C200.897 -44.3511 21.3558 14.6692 1.81007 79.2333Z" fill="url(#paint0_linear_1_28897)"/>
<mask id="mask0_1_28897" style="mask-type:alpha" maskUnits="userSpaceOnUse" x="-1" y="0" width="329" height="337">
<path d="M1.81007 79.2333C-9.99016 118.196 40.0319 147.587 29.8394 219.065C23.1557 265.949 -2.6188 279.84 7.149 302.275C23.8028 340.563 109.954 342.12 166.801 329.195C201.464 321.315 279.677 303.542 313.48 228.845C340.983 168.08 328.091 92.1794 285.926 46.9149C200.897 -44.3511 21.3558 14.6692 1.81007 79.2333Z" fill="url(#paint1_linear_1_28897)"/>
</mask>
<g mask="url(#mask0_1_28897)">
<path d="M280.981 268.019H168.995C163.278 268.019 158.643 272.774 158.643 278.64V324.238C158.643 330.104 163.278 334.859 168.995 334.859H280.981C286.699 334.859 291.333 330.104 291.333 324.238V278.64C291.333 272.774 286.699 268.019 280.981 268.019Z" fill="#CAD2EA"/>
<path d="M286.394 273.841H163.59V299.489H286.394V273.841Z" fill="#B2BFDF"/>
<path d="M286.394 304.125H163.59V329.773H286.394V304.125Z" fill="#B2BFDF"/>
<path d="M170.467 334.859V368.642H175.965L181.816 334.859H170.467Z" fill="#8296C9"/>
<path d="M279.508 334.859V368.642H274.01L268.158 334.859H279.508Z" fill="#8296C9"/>
<path d="M236.003 306.658H213.975V311.381H236.003V306.658Z" fill="#8296C9"/>
<path d="M236.003 277.951H213.975V282.674H236.003V277.951Z" fill="#8296C9"/>
<path d="M216.702 222.028C215.845 223.787 214.988 225.546 213.804 227.095C212.621 228.643 211.083 229.953 209.248 230.517C206.592 231.339 203.62 230.441 201.486 228.615C199.352 226.789 198.019 224.15 197.274 221.416C199.464 221.512 201.793 221.455 203.974 221.177C205.586 220.977 207.319 220.594 208.363 219.332C208.978 218.577 209.276 217.612 209.555 216.675C209.602 216.531 209.639 216.379 209.62 216.226C209.574 215.824 209.136 215.623 208.754 215.528C205.614 214.792 202.567 216.962 199.37 217.354C198.55 217.459 197.637 217.411 197.004 216.876C196.407 216.379 196.174 215.566 196.016 214.792C195.792 213.692 195.662 212.583 195.615 211.465C197.432 211.723 199.398 212.086 201.215 211.847C203.033 211.608 204.859 210.815 205.968 209.314C206.201 208.999 206.396 208.549 206.163 208.234C206.052 208.09 205.875 208.014 205.698 207.966C204.896 207.727 204.03 207.708 203.219 207.928C202.623 208.09 202.063 208.368 201.486 208.568C200.218 209.018 198.858 209.094 197.516 209.027C197.367 209.027 197.209 209.008 197.115 208.893C197.013 208.779 197.022 208.607 197.032 208.454C197.209 206.293 197.479 204.152 197.833 202.011C198.867 202.393 199.985 202.68 201.066 202.89C201.56 202.986 202.166 203.014 202.445 202.594C202.65 202.297 202.585 201.886 202.464 201.542C202.166 200.73 201.579 200.08 201.141 199.344C200.358 198.005 200.097 196.399 200.153 194.841C200.209 193.283 200.554 191.753 200.899 190.233C202.66 190.587 204.384 190.864 206.154 191.218C207.17 191.428 208.213 191.639 209.136 192.117C210.058 192.604 210.878 193.407 211.149 194.44C211.633 196.294 210.245 198.196 210.468 200.108C210.524 200.605 210.813 201.189 211.298 201.179C211.568 201.179 211.801 200.997 211.997 200.806C213.674 199.248 214.69 196.954 214.708 194.631C216.078 195.386 217.541 196.265 218.594 197.441C219.647 198.617 220.308 200.271 219.926 201.819C219.302 204.324 216.404 205.404 214.978 207.536C214.764 207.852 214.587 208.234 214.699 208.597C214.811 208.96 215.211 209.161 215.575 209.171C215.948 209.171 216.302 209.018 216.628 208.846C219.162 207.536 221.203 205.242 222.247 202.527C223.337 203.301 224.408 204.018 225.368 204.955C226.048 205.615 226.71 206.341 226.99 207.249C227.185 207.88 227.176 208.568 227.139 209.228C227.083 210.155 226.971 211.111 226.477 211.895C225.685 213.147 224.157 213.625 222.75 214.017C222.06 214.209 221.371 214.4 220.69 214.591C220.094 214.753 219.339 215.184 219.516 215.786C219.656 216.245 220.225 216.359 220.7 216.369C223.551 216.398 226.403 215.346 228.592 213.453C228.732 214.983 228.816 216.665 228.63 218.185C228.518 219.122 228.322 220.078 227.819 220.871C227.157 221.913 226.02 222.554 224.846 222.831C223.672 223.108 222.442 223.061 221.24 222.965C219.656 222.841 218.23 222.468 216.684 222.057L216.702 222.028Z" fill="#A6C4A8"/>
<path d="M221.727 244.828C221.355 242.658 220.917 240.449 220.451 238.27C219.976 236.09 219.472 233.911 218.913 231.76C218.354 229.599 217.739 227.458 217.05 225.345C216.714 224.284 216.332 223.242 215.95 222.2C215.55 221.158 215.149 220.116 214.73 219.084C213.052 214.945 211.244 210.834 209.418 206.752C207.582 202.661 205.719 198.588 203.809 194.535C205.915 198.483 207.983 202.46 210.024 206.446C212.055 210.442 214.068 214.448 215.96 218.52C216.435 219.533 216.901 220.566 217.348 221.598C217.786 222.64 218.233 223.692 218.625 224.753C219.435 226.865 220.171 229.016 220.852 231.167C221.532 233.327 222.156 235.497 222.743 237.687C223.33 239.876 223.88 242.055 224.383 244.292L221.727 244.828Z" fill="#668C68"/>
<path d="M238.405 224.074C236.747 224.074 235.023 224.055 233.541 223.3C232.069 222.545 230.988 221.111 230.42 219.524C229.851 217.937 229.767 216.207 229.916 214.524C231.361 216.322 233.485 217.947 235.638 218.702C235.88 218.788 236.141 218.864 236.374 218.769C236.7 218.644 236.849 218.224 236.784 217.88C236.719 217.536 236.495 217.23 236.271 216.962C235.563 216.111 234.725 215.385 234.044 214.505C233.364 213.635 232.824 212.574 232.852 211.456C232.898 209.812 234.128 208.483 235.396 207.469C236.598 206.513 237.911 205.691 239.291 205.032C239.169 206.523 239.384 208.053 239.887 209.458C240.269 210.538 240.856 211.59 241.751 212.278C241.984 212.459 242.282 212.622 242.571 212.555C243.074 212.431 243.176 211.752 243.176 211.217C243.148 209.133 243.046 207.058 242.887 204.984C242.869 204.688 242.841 204.391 242.934 204.114C243.092 203.655 243.53 203.378 243.94 203.149C245.478 202.307 247.136 201.705 248.851 201.37C248.283 202.556 247.947 203.875 247.873 205.194C247.845 205.73 247.91 206.37 248.366 206.619C248.972 206.953 249.643 206.351 250.081 205.797C251.227 204.343 252.401 202.881 253.864 201.762C255.327 200.644 257.126 199.889 258.943 200.051C258.971 201.848 258.971 203.588 258.915 205.385C258.896 206.169 258.859 206.963 258.607 207.699C258.244 208.779 257.424 209.659 256.464 210.242C255.514 210.834 254.423 211.159 253.333 211.389C255.225 212.479 257.349 213.196 259.502 213.463C259.362 214.821 258.803 216.226 257.88 217.211C256.958 218.195 255.635 218.797 254.302 218.711C253.473 218.664 252.69 218.358 251.907 218.061C251.097 217.755 250.286 217.44 249.475 217.134C249.075 217.316 248.935 217.631 248.991 218.08C249.047 218.53 249.317 218.922 249.615 219.256C250.621 220.365 252.084 220.92 253.529 221.206C254.973 221.493 256.464 221.56 257.908 221.876C255.169 226.397 249.913 229.189 244.732 228.959C244.108 228.93 243.484 228.864 242.906 228.634C242.235 228.376 241.657 227.917 241.136 227.43C240.232 226.588 239.058 225.116 238.396 224.065L238.405 224.074Z" fill="#A6C4A8"/>
<path d="M223.822 245.086C224.903 243.116 226.002 241.195 227.13 239.274C228.257 237.352 229.413 235.45 230.605 233.567C231.808 231.693 233.028 229.829 234.333 228.013C234.994 227.114 235.656 226.206 236.373 225.345C236.718 224.906 237.1 224.485 237.473 224.064C237.846 223.634 238.228 223.242 238.6 222.841C241.601 219.629 244.545 216.35 247.481 213.071C250.416 209.783 253.342 206.485 256.258 203.177C253.519 206.638 250.761 210.088 247.993 213.52C245.226 216.962 242.449 220.394 239.597 223.778C239.243 224.198 238.871 224.619 238.545 225.04C238.209 225.46 237.874 225.871 237.557 226.32C236.914 227.19 236.308 228.099 235.712 229.016C234.519 230.852 233.41 232.754 232.329 234.666C230.167 238.499 228.136 242.428 226.217 246.376L223.812 245.086H223.822Z" fill="#668C68"/>
<path d="M203.415 235.048C193.752 237.562 184.304 240.927 175.209 245.114C176.681 246.032 178.601 246.959 180.176 246.223C181.34 245.688 182.17 244.292 183.446 244.283C182.533 246.108 181.219 247.724 179.644 248.986C180.278 249.454 180.828 250.181 181.545 250.496C182.263 250.812 183.083 250.946 183.828 250.716C184.509 250.506 185.077 250.009 185.561 249.483C186.596 248.345 187.444 246.911 188.851 246.338C189 246.28 189.186 246.233 189.298 246.357C189.401 246.462 189.363 246.644 189.326 246.787C188.683 248.919 187.285 250.793 185.44 251.968C187.798 253.096 190.789 252.657 192.746 250.898C193.258 250.439 193.706 249.894 194.041 249.282C194.777 247.925 194.908 246.338 195.262 244.827C195.299 244.665 195.346 244.502 195.448 244.378C195.681 244.091 196.147 244.13 196.426 244.378C196.706 244.617 196.818 245 196.883 245.372C197.191 247.265 196.277 249.11 195.401 250.802C197.358 251.423 199.464 250.487 201.197 249.368C202.176 248.737 203.136 248.001 203.741 246.988C204.72 245.344 204.636 243.288 204.505 241.367C204.403 239.837 204.31 238.308 204.207 236.778C204.17 236.186 203.853 235.478 203.424 235.077L203.415 235.048Z" fill="#A6C4A8"/>
<path d="M216.973 243.594C216.889 243.288 216.787 242.925 216.675 242.591C216.563 242.246 216.442 241.912 216.312 241.577C216.06 240.908 215.771 240.249 215.454 239.618C214.811 238.365 214.019 237.17 213.013 236.386C212.761 236.195 212.491 236.042 212.221 235.909C211.969 235.794 211.606 235.708 211.289 235.603C210.618 235.45 209.929 235.335 209.23 235.287C207.823 235.172 206.378 235.239 204.934 235.373C202.055 235.689 199.185 236.3 196.361 237.094C193.538 237.878 190.743 238.824 187.984 239.857C190.677 238.652 193.417 237.534 196.203 236.568C198.989 235.593 201.85 234.79 204.794 234.274C206.267 234.035 207.767 233.882 209.286 233.901C210.05 233.901 210.823 233.987 211.597 234.111C211.988 234.207 212.361 234.264 212.789 234.417C213.19 234.58 213.581 234.771 213.936 235.01C214.634 235.488 215.231 236.071 215.743 236.692C216.256 237.314 216.703 237.973 217.104 238.662C217.504 239.34 217.858 240.048 218.185 240.755C218.343 241.109 218.501 241.472 218.641 241.835C218.79 242.208 218.921 242.552 219.051 242.963L216.973 243.585V243.594Z" fill="#668C68"/>
<path d="M243.792 237.228C242.655 235.861 242.804 233.767 243.568 232.142C243.792 231.655 244.071 231.196 244.453 230.823C245.553 229.771 247.221 229.743 248.721 229.771C247.761 230.699 247.249 232.018 247.333 233.366C247.873 233.433 248.404 233.117 248.796 232.725C249.187 232.333 249.504 231.865 249.914 231.482C250.976 230.507 252.56 230.326 253.949 230.66C255.337 230.995 256.576 231.769 257.797 232.544C256.809 232.754 255.896 233.356 255.486 234.303C255.402 234.494 255.346 234.742 255.486 234.905C255.561 234.991 255.682 235.029 255.794 235.048C256.819 235.239 257.76 234.455 258.785 234.293C259.316 234.207 259.856 234.293 260.378 234.417C262.54 234.943 264.506 236.262 265.848 238.069C265.056 239.293 263.984 240.22 262.68 240.832C262.214 241.051 261.729 241.224 261.226 241.281C259.716 241.463 258.282 240.65 256.968 239.866C256.464 240.545 256.483 241.51 256.828 242.285C257.173 243.059 257.778 243.671 258.375 244.263C257.182 244.541 255.915 244.847 254.713 244.617C253.557 244.397 252.523 243.699 251.712 242.83C250.892 241.96 250.277 240.918 249.709 239.866C249.597 239.656 249.112 239.914 248.963 240.105C248.814 240.296 248.796 240.554 248.796 240.793C248.796 241.262 248.87 241.73 249.019 242.17C249.467 243.508 250.547 244.502 251.582 245.439C250.333 246.08 248.833 246.433 247.444 246.261C246.056 246.089 244.705 245.372 243.904 244.197C243.233 243.221 242.972 242.007 243.009 240.813C243.046 239.627 243.419 238.308 243.82 237.189L243.792 237.228Z" fill="#A6C4A8"/>
<path d="M227.672 244.426C227.691 244.301 227.709 244.244 227.718 244.177C227.737 244.11 227.756 244.053 227.774 243.996C227.812 243.881 227.849 243.766 227.896 243.661C227.979 243.441 228.073 243.25 228.175 243.059C228.278 242.868 228.389 242.695 228.501 242.514L228.865 242.017C229.377 241.376 229.955 240.851 230.561 240.373C230.868 240.143 231.185 239.933 231.502 239.723C231.828 239.531 232.145 239.34 232.48 239.168L233.477 238.681L234.493 238.269C237.223 237.247 240.056 236.788 242.861 236.501C245.675 236.224 248.489 236.185 251.284 236.233C254.089 236.291 256.884 236.453 259.671 236.74C256.875 236.635 254.08 236.654 251.293 236.788C248.507 236.922 245.731 237.151 242.991 237.6C240.261 238.05 237.558 238.7 235.098 239.809C233.868 240.353 232.704 241.042 231.735 241.892C231.259 242.323 230.821 242.782 230.477 243.279L230.234 243.661C230.169 243.795 230.095 243.919 230.039 244.043C229.983 244.168 229.927 244.301 229.89 244.426C229.862 244.493 229.852 244.55 229.843 244.598C229.843 244.627 229.824 244.655 229.824 244.674C229.824 244.693 229.824 244.732 229.824 244.693L227.672 244.435V244.426Z" fill="#668C68"/>
<path d="M233.094 267.981H216.368L213.656 240.44H235.796L233.094 267.981Z" fill="#F1B873"/>
<mask id="mask1_1_28897" style="mask-type:luminance" maskUnits="userSpaceOnUse" x="213" y="240" width="23" height="28">
<path d="M233.094 267.981H216.368L213.656 240.44H235.796L233.094 267.981Z" fill="white"/>
</mask>
<g mask="url(#mask1_1_28897)">
<path opacity="0.49" d="M219.051 239.388C219.051 239.388 222.294 257.331 235.209 259.587L233.709 266.757H214.895L212.184 239.952L219.051 239.388Z" fill="#E5A251"/>
</g>
<path d="M232.814 267.98H216.041C214.718 267.98 213.646 266.881 213.646 265.523H235.199C235.199 266.881 234.128 267.98 232.805 267.98H232.814Z" fill="#E5A251"/>
<path d="M203.584 88.4727H126.15V137.57H203.584V88.4727Z" fill="#E6C7CC"/>
<path d="M181.843 86.8576C181.843 86.8576 177.622 95.203 175.581 95.5281C173.541 95.8531 152.892 98.415 152.892 98.415C152.892 98.415 141.784 100.987 139.902 100.499C138.02 100.011 124.564 98.7305 124.564 98.7305L124.723 103.061C124.723 103.061 134.116 103.539 135.523 104.189C136.93 104.839 143.033 105.795 146.006 104.992C148.978 104.189 154.457 101.617 157.113 101.617C159.769 101.617 172.758 101.942 175.265 102.095C177.771 102.248 181.368 99.2085 182.775 95.6714L184.182 92.144L185.282 86.6855L181.843 86.8481V86.8576Z" fill="#FCEDEB"/>
<path d="M166.487 114.905C165.825 113.873 164.66 113.49 163.505 113.605C162.107 113.739 160.747 114.322 159.386 114.676C159.153 114.733 158.92 114.79 158.697 114.848C157.821 114.666 156.908 114.8 156.032 114.924C154.709 115.115 153.562 115.182 152.435 114.322C151.457 113.576 150.59 112.869 149.369 112.573C148.232 112.295 147.049 112.324 145.903 112.534C144.477 112.792 143.126 113.337 141.775 113.854C140.452 114.36 139.11 114.819 137.74 115.211C134.926 116.004 132.047 116.53 129.139 116.76C127.723 116.874 126.307 116.913 124.89 116.893C124.229 116.893 124.173 117.821 124.695 118.021C124.667 118.337 124.834 118.662 125.226 118.633C131.124 118.146 136.995 117.209 142.753 115.823C144.132 115.488 145.549 114.962 146.965 114.838C147.692 114.771 148.335 114.896 148.969 115.268C149.5 115.584 149.984 115.966 150.543 116.224C152.882 117.314 155.584 116.76 157.989 116.224C158.212 116.176 158.445 116.11 158.669 116.052C158.734 116.071 158.809 116.09 158.874 116.119C159.684 116.463 159.368 117.123 158.846 117.591C157.849 118.499 156.209 118.844 154.932 119.111C152.36 119.656 149.686 119.322 147.124 119.924C144.272 120.603 142.576 122.753 140.741 124.923C138.691 127.323 136.65 129.732 134.6 132.131C133.547 133.364 132.494 134.607 131.441 135.84C130.686 136.729 129.466 137.8 129.54 139.1C129.605 140.18 130.658 140.773 131.627 140.63C132.774 140.458 133.649 139.387 134.423 138.593C136.333 136.634 138.048 134.464 139.539 132.15C141.002 129.885 142.054 127.466 143.229 125.048C143.853 123.767 144.654 122.715 145.977 122.17C147.254 121.645 148.661 121.53 150.003 121.367C152.892 121.014 155.789 120.717 158.65 120.172C160.067 119.905 161.483 119.57 162.862 119.149C163.962 118.805 165.35 118.49 166.198 117.639C166.934 116.903 167.037 115.813 166.477 114.934L166.487 114.905ZM147.589 113.634C146.276 113.576 144.962 114.035 143.694 114.37C145.884 113.586 148.307 112.993 150.394 114.226C151.028 114.599 151.559 115.106 152.155 115.517C151.783 115.44 151.419 115.335 151.065 115.173C149.854 114.609 148.997 113.71 147.589 113.643V113.634Z" fill="#FCEDEB"/>
<path d="M203.983 99.677C203.852 99.5336 203.61 99.4571 203.433 99.524C200.88 100.442 198.345 101.417 195.829 102.449C195.475 101.914 194.86 101.598 194.068 101.876C190.481 103.128 187.145 105.135 184.927 108.357C183.762 110.049 183.324 112.181 181.88 113.682C180.389 115.23 178.376 116.11 176.419 116.846C174.379 117.611 172.301 118.308 170.372 119.35C168.434 120.402 166.663 121.74 164.911 123.079C161.212 125.899 157.559 128.126 153.208 129.722C151.232 130.449 148.94 130.965 147.412 132.533C145.725 134.254 145.502 136.729 145.436 139.043C145.39 140.649 147.104 141.108 148.12 140.429C149.891 140.591 151.726 140.591 153.348 139.817C154.382 139.32 155.118 138.498 155.761 137.552C156.451 136.519 157.149 135.601 158.156 134.865C160.159 133.384 162.517 132.466 164.641 131.185C166.84 129.856 168.918 128.336 170.875 126.644C172.823 124.962 174.5 122.782 176.746 121.492C178.898 120.259 181.367 119.771 183.548 118.576C187.629 116.349 190.825 112.821 193.938 109.399C195.708 107.458 197.46 105.288 199.575 103.73C200.153 103.3 200.777 102.927 201.467 102.698C202.054 102.507 202.697 102.478 203.265 102.229C204.234 101.799 204.784 100.585 203.992 99.7056L203.983 99.677Z" fill="#FCEDEB"/>
<path d="M204.533 117.4C202.12 116.846 199.492 116.511 197.023 116.874C194.656 117.218 193.771 119.255 192.606 121.109C191.283 123.222 189.764 125.21 188.087 127.036C187.276 127.925 186.419 128.776 185.543 129.588C184.704 130.353 183.689 131.061 183.148 132.103C182.682 133.02 182.598 134.139 182.543 135.162C182.496 136.07 182.543 137.016 182.878 137.867C183.558 139.578 185.487 140.18 186.922 138.995C187.612 138.431 187.984 137.59 187.863 136.682C187.789 136.127 187.546 135.601 187.528 135.037C187.509 134.397 187.826 133.814 188.18 133.307C188.86 132.332 189.755 131.481 190.556 130.602C191.32 129.77 192.084 128.929 192.802 128.049C194.386 126.109 195.607 124.034 196.306 121.597C196.483 120.966 196.688 120.306 197.293 119.972C197.89 119.637 198.719 119.589 199.381 119.513C200.927 119.331 202.474 119.331 204.021 119.484C204.58 119.541 204.701 118.863 204.403 118.509C204.971 118.461 205.167 117.524 204.524 117.381L204.533 117.4Z" fill="#FCEDEB"/>
<path d="M121.137 83.1675V142.885H208.606V83.1675H121.137ZM203.593 137.57H126.15V88.473H203.584V137.57H203.593Z" fill="#B3898D"/>
</g>
<g clip-path="url(#clip1_1_28897)">
<path d="M47.5022 375.687H42.8027L55.3567 350.256L65.9177 351.082L47.5022 375.687ZM44.9429 374.344H46.855L63.4098 352.238L56.1437 351.667L44.9502 374.344H44.9429Z" fill="#CEDFE0"/>
<path d="M128.519 375.687H123.496L118.076 345.79L126.659 347.321L128.519 375.695V375.687ZM124.592 374.343H127.115L125.416 348.454L119.716 347.441L124.592 374.343Z" fill="#CEDFE0"/>
<path d="M217.911 375.687H213.336L195.752 351.187H205.041L217.904 375.687H217.911ZM214.006 374.343H215.712L204.261 352.53H198.355L214.013 374.343H214.006Z" fill="#CEDFE0"/>
<path d="M16.8867 247.172C16.8867 247.172 106.478 243.764 143.405 247.247C152.245 248.08 158.048 254.198 159.798 260.443C163.446 273.466 180.501 344.799 180.501 344.799L39.8767 342.044L16.8867 247.172Z" fill="#8C9EA3"/>
<path d="M6.52344 250.948L35.4116 353.371L228.296 354.129C228.296 354.129 228.296 334.477 206.556 334.477C161.312 334.477 46.4947 336.624 46.4947 336.624C46.4947 336.624 31.4476 262.958 24.7551 252.276C18.0625 241.587 6.52344 250.948 6.52344 250.948Z" fill="#7A898E"/>
<path d="M81.135 296.143C80.4289 296.143 79.7229 295.813 79.164 295.205C78.5683 294.567 78.1785 293.674 78.0608 292.698C77.9431 291.722 78.1049 290.761 78.5241 289.988C78.9728 289.162 79.6861 288.629 80.4878 288.524C81.2894 288.419 82.1131 288.757 82.7456 289.44C83.3413 290.078 83.7311 290.971 83.8487 291.947C84.1061 294.041 83.0177 295.91 81.4218 296.121C81.3262 296.136 81.2306 296.136 81.135 296.136V296.143ZM80.7746 289.853C80.7305 289.853 80.6863 289.853 80.6496 289.86C80.1274 289.928 79.8112 290.378 79.6714 290.641C79.392 291.159 79.2816 291.842 79.3625 292.533C79.4508 293.216 79.7229 293.861 80.12 294.289C80.3186 294.507 80.7378 294.86 81.26 294.799C82.1205 294.687 82.7088 293.463 82.547 292.127C82.4588 291.444 82.1866 290.799 81.7895 290.371C81.6056 290.168 81.2379 289.853 80.7819 289.853H80.7746Z" fill="#A6B4B5"/>
<path d="M123.254 295.49C123.158 295.49 123.055 295.49 122.959 295.467C122.158 295.362 121.444 294.822 120.996 293.996C120.584 293.223 120.422 292.262 120.547 291.286C120.812 289.192 122.334 287.661 123.93 287.879C124.732 287.984 125.445 288.524 125.894 289.35C126.306 290.123 126.467 291.084 126.342 292.06C126.092 294.026 124.739 295.49 123.261 295.49H123.254ZM123.629 289.2C122.812 289.2 122.018 290.19 121.856 291.459C121.768 292.142 121.878 292.833 122.158 293.351C122.297 293.613 122.614 294.064 123.136 294.139C123.996 294.251 124.872 293.223 125.041 291.887C125.129 291.204 125.019 290.513 124.739 289.995C124.599 289.733 124.283 289.282 123.761 289.207C123.717 289.207 123.673 289.2 123.629 289.2Z" fill="#A6B4B5"/>
</g>
<g clip-path="url(#clip2_1_28897)">
<path d="M146.144 271.527C146.018 269.917 145.293 268.412 144.709 266.928C144.034 265.22 143.373 263.504 142.712 261.789C141.396 258.358 140.44 256.459 139.194 253C137.837 249.239 137.71 248.627 136.184 244.929C135.058 242.194 131.977 239.571 128.924 239.128C127.764 238.959 128.657 248.655 129.283 256.023C129.607 259.813 130.022 263.589 130.486 267.357C130.781 269.741 131.084 272.532 132.927 274.283C133.954 275.26 135.311 275.64 136.676 275.837C138.35 276.083 140.06 276.139 141.748 276.012C143.007 275.921 144.351 275.71 145.223 274.705C145.976 273.84 146.229 272.631 146.137 271.513L146.144 271.527Z" fill="white"/>
<path d="M209.251 404.102C209.251 404.102 200.633 392.873 198.502 389.527L196.546 386.131C195.4 385.069 190.581 385.878 189.976 387.002C189.674 387.558 187.704 388.662 186.649 387.073C186.318 386.574 185.552 386.693 185.39 387.277C184.94 388.908 184.096 391.601 184.103 393.682L184.328 395.489C184.792 396.733 187.831 397.886 189.421 398.702C189.512 398.751 189.611 398.765 189.716 398.751C190.026 398.709 190.722 398.611 190.947 398.561C191.489 399.363 192.009 400.052 192.009 400.052C193.986 401.423 201.773 404.924 203.918 405.859C204.228 405.993 204.573 406.035 204.903 405.972L208.99 405.515C209.448 405.248 209.743 405.037 209.251 404.109V404.102Z" fill="#3B291E"/>
<path d="M160.002 321.924C160.101 321.896 155.957 321.629 156.07 321.622C160.248 321.397 164.42 322.445 166.636 326.283C168.458 329.433 168.725 333.314 168.957 336.858C169.14 339.649 169.646 342.209 170.603 344.845C171.574 347.524 172.741 350.139 173.459 352.91C174.212 355.834 179.016 368.307 180.036 371.401C181.112 374.663 183.645 383.803 184.475 387.136C184.637 387.797 186.81 388.275 187.493 388.184C192.044 387.586 192.353 388.128 196.736 386.89C195.237 368.842 196.159 344.001 194.217 325.988C193.416 318.549 193.085 310.14 188.555 303.834C183.736 297.119 175.225 295.143 167.438 294.349C157.526 293.344 147.565 294.918 137.795 296.507C136.979 295.804 135.783 295.643 134.889 296.711C132.04 300.093 129.093 303.405 126.357 306.871C124.007 309.845 122.101 313.642 123.592 317.46C124.985 321.01 128.692 322.522 132.266 322.74C136.746 323.014 141.403 322.297 145.891 322.135C150.471 321.973 150.801 321.664 155.388 321.685C155.507 321.685 159.883 321.924 160.002 321.924Z" fill="url(#paint2_linear_1_28897)"/>
<path style="mix-blend-mode:multiply" d="M194.21 325.988C193.408 318.549 193.078 310.14 188.547 303.834C188.245 303.412 187.928 303.011 187.598 302.624C183.877 303.299 180.226 304.804 176.603 305.655C170.645 307.054 164.279 307.265 158.363 305.606C155.282 304.741 152.271 303.595 149.127 302.955C146.081 302.336 142.958 302.414 139.884 302.744C135.818 303.18 131.843 304.115 127.855 305.022C127.348 305.641 126.842 306.252 126.349 306.878C124 309.852 122.094 313.649 123.585 317.467C124.978 321.017 128.685 322.529 132.258 322.747C136.739 323.021 141.396 322.304 145.884 322.142C150.463 321.981 155.05 321.91 159.629 321.931C159.749 321.931 159.868 321.931 159.995 321.931C160.093 321.903 160.199 321.875 160.318 321.868C164.497 321.643 164.588 321.917 166.804 325.756C167.705 327.31 168.246 330.453 168.577 332.246C171.039 331.585 177.637 330.523 180.31 330.39C183.792 330.214 187.148 329.933 190.285 328.259C191.643 327.535 192.902 326.733 194.217 326.066C194.217 326.044 194.217 326.023 194.21 325.995V325.988Z" fill="url(#paint3_linear_1_28897)"/>
<path d="M195.294 294.574C190.7 294.574 186.1 294.672 181.506 294.735C163.013 294.996 143.317 297.674 124.901 299.383C114.708 300.325 104.55 301.647 94.4768 303.461C93.2739 303.679 93.091 304.86 93.5694 305.697C93.4146 312.854 96.2073 326.825 101.335 332.175C106.224 337.273 153.312 330.959 170.202 328.35C179.649 326.895 189.884 325.496 198.649 321.439C206.443 317.832 205.634 294.574 195.301 294.574H195.294Z" fill="url(#paint4_linear_1_28897)"/>
<path d="M145.223 295.692C144.688 291.34 140.263 284.351 139.279 280.09C138.083 274.901 137.147 269.621 136.605 264.32C136.036 258.709 135.853 250.617 134.551 245.125C133.531 240.808 132.758 240.654 127.637 238.523C116.979 234.101 107.455 231.296 97.5083 230.846C92.3169 230.614 87.1185 230.522 81.9201 230.592C77.5447 230.649 72.29 230.135 68.5547 232.885C65.4103 235.198 66.1349 240.204 66.571 243.565C67.2041 248.409 69.1878 253.218 69.9968 258.006C71.9172 269.361 86.9215 280.54 89.1022 299.65C89.2288 300.782 92.8515 317.312 95.4331 317.699C102.847 318.81 116.804 309.803 117.831 309.051C118.928 308.242 119.596 306.892 120.321 305.774C121.474 303.988 122.621 302.21 123.775 300.424C126.188 300.135 128.614 299.889 131.041 299.622C134.622 299.228 145.223 295.685 145.223 295.685V295.692Z" fill="white"/>
<path d="M100.231 301.542C104.81 301.942 109.277 301.352 113.821 300.761C115.566 300.536 117.388 300.353 118.95 299.482C120.631 298.539 121.855 296.979 123.212 295.615C116.79 294.679 110.361 296.205 104.001 297.19C100.667 297.71 97.2836 298.118 93.9071 297.942C90.8612 297.787 87.8927 297.281 84.8608 297.295C85.8527 298.603 86.8656 299.714 87.8856 300.55C88.2655 300.86 88.8634 303.995 89.6302 307.504C90.2422 306.126 90.9526 304.804 91.8671 303.63C93.9633 300.923 97.1148 301.26 100.231 301.528V301.542Z" fill="#3B291E"/>
<path d="M100.267 239.163C102.413 240.253 104.446 239.473 106.788 238.819C107.259 238.685 108.04 239.684 108.49 239.494C108.659 238.081 108.673 236.583 108.68 235.219C109.419 231.331 110.291 227.464 111.311 223.639C111.325 223.597 111.325 223.555 111.332 223.512C111.579 223.14 111.614 222.648 111.269 222.155C107.914 217.332 104.045 212.924 99.6693 209.001C99.3246 208.691 98.9307 208.593 98.572 208.635C97.8193 208.565 96.9892 209.015 96.9681 209.992C96.7641 217.445 95.5472 224.785 93.3735 231.893C95.3432 234.664 97.0947 237.56 100.267 239.17V239.163Z" fill="url(#paint5_linear_1_28897)"/>
<path d="M132.969 269.227C132.371 265.634 131.78 262.035 131.182 258.442C130.866 256.515 130.718 254.744 131.07 252.81C131.351 251.27 131.689 249.759 131.872 248.198C132.315 244.366 132.772 244.45 131.977 240.675C131.928 240.45 131.59 240.548 131.632 240.766C132.371 244.289 131.921 243.937 131.583 247.523C131.274 250.792 130.155 253.893 130.627 257.197C131.632 264.327 132.969 271.428 134.151 278.536C134.819 282.593 135.494 286.657 136.163 290.714C136.198 290.939 136.542 290.84 136.507 290.622C135.325 283.493 134.144 276.357 132.969 269.227Z" fill="#3B291E"/>
<g style="mix-blend-mode:multiply" opacity="0.5">
<path d="M102.475 222.936C103.748 225.038 105.303 227 106.991 228.786C107.779 229.615 108.623 230.396 109.53 231.085C110.072 228.589 110.663 226.107 111.317 223.639C111.331 223.597 111.331 223.555 111.338 223.512C111.584 223.14 111.619 222.648 111.275 222.155C107.919 217.332 104.05 212.924 99.675 209.001C99.3303 208.691 98.9364 208.593 98.5776 208.635C98.2681 208.607 97.9516 208.67 97.6772 208.818C98.3807 213.761 99.879 218.647 102.475 222.936Z" fill="#CC6654"/>
</g>
<path d="M120.209 212.115C120.068 212.741 119.484 213.135 118.901 213.008C118.317 212.875 117.965 212.263 118.106 211.637C118.246 211.012 118.83 210.618 119.414 210.744C119.998 210.878 120.35 211.49 120.209 212.115Z" fill="black"/>
<path d="M122.348 297.478C117.931 282.368 113.569 267.238 109.257 252.093C108.033 247.797 106.816 243.501 105.606 239.205C105.543 238.987 105.205 239.079 105.262 239.297C109.539 254.448 113.872 269.586 118.261 284.71C119.506 288.998 120.751 293.287 122.004 297.569C122.067 297.787 122.412 297.696 122.348 297.478Z" fill="#3B291E"/>
<path d="M110.156 210.435C109.994 211.131 109.34 211.581 108.686 211.433C108.032 211.285 107.631 210.596 107.793 209.9C107.954 209.204 108.609 208.754 109.263 208.902C109.917 209.049 110.318 209.739 110.156 210.435Z" fill="black"/>
<path d="M113.322 232.899C112.921 231.514 110.03 228.835 109.953 229.193C109.256 232.28 107.638 235.149 105.64 237.56C105.465 237.771 105.155 237.806 104.916 237.659C101.209 235.296 96.1721 232.273 94.7723 227.836C94.6668 227.506 94.2377 227.541 94.1111 227.773C94.0759 227.794 92.1625 229.517 91.5435 230.586C91.1003 231.352 91.5716 232.47 91.8389 233.222C92.5424 235.24 93.1614 237.244 94.2799 239.079C95.328 240.794 96.6223 242.341 97.98 243.811C98.7749 244.683 99.6119 245.618 100.526 246.447C100.934 246.82 101.582 246.736 101.905 246.293C103.319 244.338 104.599 242.144 105.352 239.937C105.38 239.845 105.436 239.81 105.507 239.81C105.584 239.74 105.711 239.733 105.767 239.852C106.9 242.173 108.588 244.162 110.501 245.885C110.79 246.145 111.261 246.061 111.416 245.695C113.252 241.455 113.716 234.298 113.315 232.906L113.322 232.899Z" fill="#FFEBDE"/>
<path d="M169.639 294.975C159.432 295.439 149.253 296.472 139.166 298.061C138.941 298.096 139.039 298.441 139.257 298.406C149.317 296.824 159.46 295.797 169.639 295.333C169.864 295.326 169.864 294.968 169.639 294.982V294.975Z" fill="#573226"/>
<path d="M140.932 272.518L153.601 264.981C153.826 264.833 154.129 264.805 154.382 264.911L155.676 265.424L144.133 273.544L140.925 272.518H140.932Z" fill="#D5B099"/>
<path d="M76.0329 231.38C75.5123 231.007 74.0984 230.86 73.9155 230.874C69.5683 231.197 66.9233 233.848 64.609 237.279C61.7319 241.54 59.087 246.862 56.5757 251.341C53.9871 255.967 51.5321 260.664 49.1966 265.417C48.1274 267.596 47.0793 269.79 46.0593 271.991C44.969 274.353 43.7028 276.765 43.1963 279.338C42.2607 284.077 44.6946 287.515 48.7675 289.709C50.7231 290.763 52.9319 291.403 55.0633 290.503C57.047 289.666 73.4372 270.395 78.0799 261.008C82.1809 252.726 85.7263 238.298 76.0258 231.373L76.0329 231.38Z" fill="white"/>
<path d="M144.969 273.165C144.969 273.165 120.869 264.201 120.468 264.081C120.067 263.962 117.929 265.705 117.929 265.705L141.163 273.137L144.969 273.165Z" fill="#D5B099"/>
<path d="M114.286 282.994C113.224 284.021 112.154 285.068 110.938 285.912C109.714 286.763 108.49 287.107 107.09 287.536C104.466 288.345 103.073 291.052 100.914 292.619C99.5489 293.611 101.125 295.699 102.489 294.708C103.657 293.857 108.883 292.43 109.559 291.115C110.508 289.266 112.879 288.338 114.42 287.051C115.081 286.496 115.749 285.835 116.03 284.998C116.734 282.931 115.06 282.235 114.279 282.987L114.286 282.994Z" fill="#FFAA8C"/>
<path d="M249.79 364.335C248.925 364.349 235.798 366.697 235.369 366.669C235.369 366.669 229.805 366.543 229.552 366.88C229.383 367.098 229.383 367.4 229.397 367.682C229.446 368.75 225.261 369.207 222.841 369.84C221.997 370.058 220.752 370.473 220.576 371.492C220.471 372.104 220.414 375.873 220.52 376.498C220.639 377.195 221.927 381.645 223.003 382.404C223.137 382.503 230.044 378.277 230.044 378.277C230.044 378.277 230.03 377.75 229.84 377.103C230.699 376.787 231.697 377.124 232.591 376.92C232.809 376.871 247.673 368.223 250.929 366.261C251.26 366.058 250.381 364.335 249.79 364.342V364.335Z" fill="#3B291E"/>
<path d="M217.129 366.022C218.261 368.096 219.394 370.255 220.66 372.322C225.183 369.735 226.048 370.269 230.48 367.52C230.389 366.901 230.171 366.198 229.868 365.361C229.186 363.456 216.559 325.102 215.011 318.402C213.147 310.323 212.908 307.089 210.01 302.322C205.304 294.574 194.598 294.455 193.803 294.581C191.685 294.904 192.051 297.836 191.137 299.664C190.11 301.703 189.456 303.925 188.977 306.147C187.943 310.949 188.112 315.92 189.463 320.638C189.61 321.144 189.871 321.524 190.194 321.784C190.539 322.578 187.549 323.942 187.95 324.709C188.232 324.673 191.608 329.722 193.458 331.887C195.132 333.856 196.982 335.754 198.678 338.06C200.183 340.113 214.47 361.143 217.136 366.029L217.129 366.022Z" fill="url(#paint6_linear_1_28897)"/>
<path d="M117.514 264.418L111.113 292.437C111.022 292.837 111.261 293.245 111.69 293.407L133.834 301.605C133.954 301.647 134.08 301.675 134.214 301.675H137.788C138.013 301.675 138.224 301.605 138.4 301.485L149.704 293.47C149.866 293.358 149.978 293.196 150.034 293.02L158.609 264.918C158.841 264.144 157.871 263.533 157.118 263.975L144.337 271.548C144.203 271.625 144.048 271.674 143.886 271.688L140.264 271.998C140.095 272.012 139.926 271.991 139.778 271.927L118.865 263.8C118.295 263.575 117.634 263.877 117.514 264.418Z" fill="#E1674F"/>
<path d="M122.643 289.659C121.784 290.278 120.933 290.911 120.068 291.523C118.781 292.43 117.698 292.584 116.115 292.556C115.665 292.549 115.214 292.535 114.764 292.528C118.148 292.303 121.25 289.912 124.064 288.359C125.611 287.508 123.212 286.158 121.679 287.002C120.145 287.845 119.351 288.07 117.824 288.914C116.002 289.912 114.609 290.025 112.541 290.088C109.01 290.187 105.542 291.051 102.37 292.493C102.053 292.64 101.842 292.851 101.715 293.083C98.4936 292.901 95.2789 292.725 92.0571 292.542C91.1286 292.493 89.6584 296.592 90.2001 297.422C90.6714 298.139 91.5155 298.328 92.3737 298.504C95.2719 299.109 98.2333 299.517 101.195 299.854C101.314 299.925 101.455 299.981 101.61 300.016C105.88 300.986 110.009 299.285 114.286 299.207C116.326 299.172 118.415 299.489 120.385 298.743C122.073 298.103 123.311 296.817 124.443 295.572C124.992 294.975 124.788 294.321 124.303 293.927C126.666 292.015 124.859 291.494 123.93 291.916C124.859 291.494 125.337 290.834 125.463 290.742C126.877 289.723 124.078 288.633 122.657 289.659H122.643Z" fill="#FFAA8C"/>
<path d="M80.0005 283.894C76.6028 281.602 72.7761 279.908 68.8439 278.614C68.4289 278.515 57.209 273.798 52.8758 274.086C48.9155 274.353 43.4216 279.809 43.1613 281.876C42.6478 285.975 47.994 290.89 52.102 292.999C56.8151 295.418 89.8416 304.734 90.0737 304.298C90.7701 301.999 92.0855 294.511 92.8171 292.219C87.9141 290.496 84.2352 286.749 80.0005 283.887V283.894Z" fill="white"/>
<path d="M154.334 279.064C153.18 280.069 152.976 280.329 151.59 280.983C150.901 281.314 149.649 282.854 150.007 283.472C150.422 284.175 151.253 284.309 151.942 283.978C151.97 283.964 151.991 283.95 152.019 283.943C151.316 284.815 150.57 285.645 149.754 286.432C149.079 287.086 149.283 287.93 149.818 288.422C149.649 288.542 149.48 288.654 149.304 288.76C148.572 289.202 148.502 289.969 148.79 290.573C148.601 290.876 148.523 291.248 148.636 291.649C148.826 292.331 149.663 292.915 150.38 292.641C151.661 292.148 152.786 291.488 153.834 290.595C154.418 290.102 154.341 289.104 153.834 288.591C153.82 288.577 153.806 288.57 153.792 288.556C154.116 288.162 154.418 287.747 154.692 287.304C155.128 286.601 154.868 285.926 154.355 285.539C154.91 284.836 155.445 284.112 155.93 283.353C156.374 282.671 156.134 282.01 155.642 281.623C155.874 281.44 156.099 281.25 156.324 281.054C157.696 279.851 155.691 277.855 154.32 279.05L154.334 279.064Z" fill="#FFAA8C"/>
<path d="M79.6913 251.095C79.4521 244.915 76.9338 239.149 74.0638 233.764C73.9583 233.56 73.6487 233.743 73.7613 233.94C76.6032 239.262 79.1004 244.971 79.3466 251.088C79.4662 254.125 79.0019 257.156 77.8201 259.968C76.6806 262.675 74.9994 265.115 73.3463 267.533C73.2197 267.723 73.5221 267.899 73.6487 267.709C75.3159 265.276 77.0042 262.816 78.1508 260.088C79.3466 257.24 79.8179 254.168 79.6983 251.095H79.6913Z" fill="#3B291E"/>
<path d="M65.3054 277.292C59.9593 275.583 53.7409 273.847 48.6339 277.179C48.444 277.306 48.6199 277.608 48.8098 277.482C53.8394 274.205 59.9593 275.956 65.214 277.636C65.4321 277.707 65.5235 277.362 65.3054 277.292Z" fill="#3B291E"/>
<path d="M123.495 292.134C122.397 292.901 121.272 293.688 119.963 294.054C118.585 294.433 117.079 294.258 115.665 294.223C115.44 294.223 115.44 294.567 115.665 294.574C117.114 294.609 118.641 294.785 120.055 294.391C121.391 294.019 122.545 293.217 123.671 292.437C123.853 292.31 123.678 292.001 123.495 292.134Z" fill="#CC6654"/>
<path d="M123.677 294.103C121.44 295.903 118.542 296.634 115.721 296.114C115.496 296.072 115.405 296.416 115.63 296.459C118.584 297.007 121.595 296.248 123.93 294.356C124.106 294.216 123.853 293.963 123.677 294.103Z" fill="#CC6654"/>
<path d="M155.226 281.658C154.263 282.389 153.214 282.973 152.075 283.388C151.864 283.465 151.955 283.81 152.166 283.732C153.334 283.303 154.417 282.72 155.402 281.968C155.578 281.834 155.402 281.525 155.226 281.665V281.658Z" fill="#CC6654"/>
<path d="M153.538 285.87C152.567 286.812 151.448 287.536 150.182 288.028C149.971 288.113 150.063 288.45 150.274 288.373C151.596 287.859 152.771 287.114 153.784 286.123C153.946 285.961 153.699 285.715 153.531 285.87H153.538Z" fill="#CC6654"/>
<path d="M153.236 288.555C152.118 289.371 150.894 289.976 149.564 290.355C149.346 290.419 149.438 290.763 149.656 290.7C151.013 290.306 152.273 289.694 153.412 288.858C153.595 288.724 153.412 288.415 153.236 288.555Z" fill="#CC6654"/>
<path d="M134.172 300.599C134.172 300.599 134.129 300.599 134.108 300.599C133.954 300.564 133.862 300.417 133.89 300.262L139.687 274.015C139.722 273.861 139.87 273.769 140.024 273.798C140.179 273.833 140.271 273.98 140.242 274.135L134.446 300.381C134.418 300.515 134.298 300.606 134.172 300.606V300.599Z" fill="#3B291E"/>
<path d="M138.273 300.508C138.273 300.508 138.231 300.508 138.209 300.508C138.055 300.473 137.963 300.325 137.991 300.17L143.788 273.924C143.823 273.769 143.971 273.678 144.125 273.706C144.28 273.741 144.372 273.889 144.343 274.043L138.547 300.29C138.519 300.424 138.399 300.515 138.273 300.515V300.508Z" fill="#3B291E"/>
<path d="M126.172 205.121C127.684 195.233 121.286 186.053 111.881 184.616C102.475 183.179 93.6254 190.03 92.1133 199.918C90.6012 209.806 96.9998 218.987 106.405 220.423C115.81 221.86 124.66 215.009 126.172 205.121Z" fill="black"/>
<path d="M125.118 211.286L124.577 206.153C124.577 206.153 126.933 200.978 126.56 195.564C126.56 195.564 130.802 203.348 125.118 211.286Z" fill="black"/>
<path d="M96.8837 207.861C96.8837 207.861 94.5342 205.387 92.1988 207.545C89.6382 209.907 92.8178 218.415 97.8685 215.617L96.8837 207.868V207.861Z" fill="#FFC2B3"/>
<path d="M96.4392 213.992C96.3266 213.978 96.2282 213.901 96.193 213.788C95.1238 210.596 93.1752 210.181 93.1541 210.174C92.9853 210.139 92.8798 209.978 92.915 209.816C92.9501 209.647 93.1049 209.542 93.2737 209.577C93.3652 209.598 95.5951 210.069 96.7768 213.599C96.8331 213.76 96.7417 213.936 96.5799 213.985C96.5306 213.999 96.4814 214.006 96.4392 213.999V213.992Z" fill="#F48073"/>
<path d="M126.375 202.401C127.776 193.235 121.288 184.64 111.883 183.203C102.478 181.766 93.7175 188.032 92.3158 197.198C90.9141 206.365 97.4022 214.96 106.807 216.397C116.212 217.834 124.973 211.568 126.375 202.401Z" fill="black"/>
<path d="M98.1284 199.523C98.1284 199.523 91.2347 220.77 106.753 226.838C122.27 232.906 127.166 203.959 127.166 203.959C127.166 203.959 128.841 192.351 114.286 190.13C100.942 188.091 98.1214 199.523 98.1214 199.523H98.1284Z" fill="url(#paint7_linear_1_28897)"/>
<path d="M112.885 218.261L111.725 218.085C111.556 218.057 111.443 217.902 111.464 217.733C111.486 217.564 111.647 217.452 111.816 217.473L112.977 217.649C113.082 217.663 113.188 217.635 113.265 217.571C113.35 217.501 113.399 217.41 113.399 217.304L113.722 213.36C113.737 213.191 113.884 213.065 114.053 213.079C114.229 213.093 114.349 213.24 114.334 213.409L114.011 217.339C113.997 217.607 113.87 217.867 113.652 218.043C113.434 218.218 113.153 218.296 112.878 218.253L112.885 218.261Z" fill="#F48073"/>
<path d="M108.897 211.166C108.792 211.848 108.151 212.319 107.469 212.214C106.787 212.108 106.316 211.468 106.421 210.786C106.527 210.104 107.167 209.633 107.849 209.739C108.531 209.844 109.003 210.484 108.897 211.166Z" fill="#2B232A"/>
<path d="M121.256 213.05C121.151 213.732 120.511 214.203 119.829 214.098C119.146 213.992 118.675 213.353 118.78 212.671C118.886 211.989 119.526 211.517 120.208 211.623C120.891 211.728 121.362 212.368 121.256 213.05Z" fill="#2B232A"/>
<path d="M112.196 221.178C109.642 220.791 108.559 219.322 108.503 219.252C108.404 219.111 108.432 218.921 108.573 218.823C108.714 218.724 108.904 218.752 109.002 218.893C109.058 218.97 110.374 220.707 113.617 220.665C113.785 220.665 113.926 220.798 113.926 220.967C113.926 221.136 113.793 221.276 113.624 221.276C113.103 221.284 112.625 221.248 112.196 221.185V221.178Z" fill="#F48073"/>
<path d="M104.107 206.61C105.31 206.413 108.574 206.504 111.155 206.919C111.465 206.968 111.683 206.673 111.535 206.42C111.078 205.661 109.58 204.029 107.005 204.191C107.005 204.191 105.092 204.458 103.643 205.815C103.544 205.907 103.502 206.033 103.502 206.16C103.516 206.448 103.797 206.659 104.1 206.61H104.107Z" fill="#2B232A"/>
<path d="M124.345 209.704C123.255 209.155 120.118 208.269 117.522 207.897C117.212 207.855 117.093 207.503 117.311 207.306C117.972 206.715 119.893 205.612 122.298 206.533C122.298 206.533 124.043 207.355 125.021 209.092C125.084 209.204 125.091 209.338 125.049 209.465C124.95 209.732 124.613 209.851 124.345 209.718V209.704Z" fill="#2B232A"/>
<path d="M96.4191 203.833L99.8167 199.945C99.8167 199.945 100.865 194.355 104.277 190.137C104.277 190.137 96.3347 194.074 96.4191 203.833Z" fill="black"/>
<path d="M99.2051 194.053C99.2051 194.053 117.825 208.923 131.824 195.747C131.824 195.747 115.708 172.573 99.2051 194.053Z" fill="black"/>
</g>
<g style="mix-blend-mode:multiply">
<path fill-rule="evenodd" clip-rule="evenodd" d="M140 399C211.799 399 270 403.48 270 409C270 414.52 211.799 419 140 419C68.2008 419 10 414.526 10 409C10 403.474 68.2008 399 140 399Z" fill="#E2E2F2"/>
</g>
</g>
<defs>
<linearGradient id="paint0_linear_1_28897" x1="132.705" y1="443.446" x2="184.234" y2="-47.8033" gradientUnits="userSpaceOnUse">
<stop stop-color="#96D9E3"/>
<stop offset="1" stop-color="#FFE0CC"/>
</linearGradient>
<linearGradient id="paint1_linear_1_28897" x1="132.705" y1="443.446" x2="184.234" y2="-47.8033" gradientUnits="userSpaceOnUse">
<stop stop-color="#96D9E3"/>
<stop offset="1" stop-color="#FFE0CC"/>
</linearGradient>
<linearGradient id="paint2_linear_1_28897" x1="123.065" y1="341.112" x2="196.729" y2="341.112" gradientUnits="userSpaceOnUse">
<stop stop-color="#454545"/>
<stop offset="1" stop-color="#2E2E2E"/>
</linearGradient>
<linearGradient id="paint3_linear_1_28897" x1="42.9988" y1="317.361" x2="194.217" y2="317.361" gradientUnits="userSpaceOnUse">
<stop stop-color="#454545"/>
<stop offset="1" stop-color="#2E2E2E"/>
</linearGradient>
<linearGradient id="paint4_linear_1_28897" x1="93.3161" y1="314.338" x2="203.855" y2="314.338" gradientUnits="userSpaceOnUse">
<stop stop-color="#454545"/>
<stop offset="1" stop-color="#2E2E2E"/>
</linearGradient>
<linearGradient id="paint5_linear_1_28897" x1="105.079" y1="213.029" x2="98.81" y2="244.206" gradientUnits="userSpaceOnUse">
<stop stop-color="#F7C3AF"/>
<stop offset="1" stop-color="#F79480"/>
</linearGradient>
<linearGradient id="paint6_linear_1_28897" x1="222.243" y1="361.916" x2="193.748" y2="302.367" gradientUnits="userSpaceOnUse">
<stop stop-color="#454545"/>
<stop offset="1" stop-color="#2E2E2E"/>
</linearGradient>
<linearGradient id="paint7_linear_1_28897" x1="110.656" y1="213.648" x2="108.194" y2="229.766" gradientUnits="userSpaceOnUse">
<stop stop-color="#F7C3AF"/>
<stop offset="1" stop-color="#F79480"/>
</linearGradient>
<clipPath id="clip0_1_28897">
<rect width="328" height="449" fill="white"/>
</clipPath>
<clipPath id="clip1_1_28897">
<rect width="221.773" height="130.009" fill="white" transform="translate(6.52344 245.678)"/>
</clipPath>
<clipPath id="clip2_1_28897">
<rect width="208" height="223" fill="white" transform="translate(43 183)"/>
</clipPath>
</defs>
</svg>
