<svg width="318" height="423" viewBox="0 0 318 423" fill="none" xmlns="http://www.w3.org/2000/svg">
<g clip-path="url(#clip0_1_28989)">
<path d="M114.212 17.0974C96.5882 23.9783 22.559 52.7501 4.08908 123.586C-16.9782 204.359 46.0346 299.453 133.14 316.98C223.5 335.155 325.562 292.432 317.551 226.23C313.889 196.03 273.217 186.892 275.098 151.319C276.939 116.605 320.178 99.588 315.65 58.2828C315.362 55.6862 314.456 47.9165 310.595 40.1469C288.682 -3.98458 188.271 -11.8342 114.212 17.0974Z" fill="url(#paint0_linear_1_28989)"/>
<g clip-path="url(#clip1_1_28989)">
<path d="M24.8833 296.193H198.902C203.691 296.193 207.52 292.222 207.459 287.332L204.297 39.3732C204.085 32.7353 200.912 28.9263 195.507 28.9263L21.4989 29.684C17.1951 29.684 13.5683 32.8868 12.9419 37.2515L16.104 287.332C16.1646 292.222 20.0946 296.193 24.8833 296.193Z" fill="#C2D8F0"/>
<path d="M30.9553 292.646H204.994C209.783 292.646 213.602 288.736 213.541 283.907L210.035 39.4439C209.813 32.8969 206.631 29.1687 201.226 29.1687H27.187C22.8833 29.1687 19.2665 32.3311 18.6401 36.6351L22.1761 283.907C22.2468 288.736 26.1868 292.646 30.9654 292.646H30.9553Z" fill="white"/>
<path d="M77.2665 49.8603H157.179C159.553 49.8603 161.452 47.9306 161.422 45.5462L161.169 27.6328C161.139 25.2484 159.179 23.3186 156.805 23.3186H76.8826C74.5085 23.3186 72.6092 25.2484 72.6395 27.6328L72.8921 45.5462C72.9224 47.9306 74.8823 49.8603 77.2564 49.8603H77.2665Z" fill="#FD5B5B"/>
<path d="M115.091 1.10132C106.715 1.10132 100.068 7.94135 100.189 16.3777L100.512 39.2721C100.543 41.3332 102.22 43.0003 104.261 43.0003H127.113C129.154 43.0003 130.79 41.3332 130.76 39.2721L130.437 16.3777C130.315 7.94135 123.466 1.10132 115.091 1.10132ZM116.232 22.0255C112.211 22.5408 108.776 19.1259 109.221 15.0643C109.524 12.2959 111.716 10.0631 114.454 9.71956C118.475 9.20428 121.91 12.6192 121.455 16.6808C121.152 19.4492 118.97 21.682 116.222 22.0255H116.232Z" fill="#AA1B17"/>
<path d="M116.192 0C107.817 0 101.169 6.84003 101.291 15.2764L101.614 38.1708C101.644 40.2319 103.321 41.899 105.362 41.899H128.214C130.255 41.899 131.892 40.2319 131.861 38.1708L131.538 15.2764C131.417 6.84003 124.567 0 116.192 0ZM117.334 20.9242C113.313 21.4395 109.878 18.0245 110.322 13.963C110.626 11.1946 112.818 8.96175 115.556 8.61824C119.577 8.10296 123.011 11.5179 122.557 15.5795C122.254 18.3479 120.072 20.5807 117.324 20.9242H117.334Z" fill="#FD5B5B"/>
<path d="M144.185 212.789H47.6034C44.7039 212.789 42.2591 210.414 42.1682 207.495L39.5516 130.173C39.5415 129.87 39.7839 129.617 40.087 129.607C40.3901 129.587 40.6427 129.839 40.6528 130.143L43.2694 207.464C43.3502 209.798 45.2899 211.687 47.6034 211.687H144.185C144.488 211.687 144.741 211.93 144.741 212.243C144.741 212.556 144.498 212.799 144.185 212.799V212.789Z" fill="#707070"/>
<path d="M171.1 212.789H159.633C159.33 212.789 159.078 212.546 159.078 212.233C159.078 211.92 159.32 211.677 159.633 211.677H171.1C171.403 211.677 171.655 211.92 171.655 212.233C171.655 212.546 171.413 212.789 171.1 212.789Z" fill="#707070"/>
<path d="M193.194 212.789C192.901 212.789 192.659 212.556 192.649 212.253L189.638 123.03C189.628 122.726 189.87 122.474 190.173 122.464C190.477 122.444 190.729 122.696 190.739 122.999L193.75 212.223C193.76 212.526 193.517 212.778 193.214 212.789C193.214 212.789 193.204 212.789 193.194 212.789Z" fill="#707070"/>
<path d="M47.0996 123.565C46.7965 123.565 46.5439 123.323 46.5439 123.01C46.5439 122.707 46.7864 122.454 47.0996 122.454L143.237 122.363C143.54 122.363 143.792 122.606 143.792 122.919C143.792 123.222 143.55 123.474 143.237 123.474L47.0996 123.565Z" fill="#707070"/>
<path d="M105.069 63.2475C104.766 63.2475 104.514 63.005 104.514 62.6918C104.514 62.3887 104.756 62.1361 105.069 62.1361L201.206 62.0452C201.51 62.0452 201.762 62.2876 201.762 62.6009C201.762 62.904 201.52 63.1565 201.206 63.1565L105.069 63.2475Z" fill="#707070"/>
<path d="M108.503 106.803C108.2 106.803 107.947 106.561 107.947 106.248C107.947 105.934 108.19 105.692 108.503 105.692L204.64 105.601C204.943 105.601 205.196 105.844 205.196 106.157C205.196 106.46 204.953 106.712 204.64 106.712L108.503 106.803Z" fill="#707070"/>
<path d="M109.978 231.389C109.675 231.389 109.422 231.147 109.422 230.833C109.422 230.52 109.665 230.278 109.978 230.278L206.115 230.187C206.418 230.187 206.671 230.429 206.671 230.742C206.671 231.046 206.428 231.298 206.115 231.298L109.978 231.389Z" fill="#707070"/>
<path d="M190.93 145.884H98.501C98.1979 145.884 97.9453 145.641 97.9453 145.328C97.9453 145.015 98.1878 144.772 98.501 144.772H190.93C191.233 144.772 191.486 145.015 191.486 145.328C191.486 145.641 191.244 145.884 190.93 145.884Z" fill="#707070"/>
<path d="M40.623 145.884C40.3301 145.884 40.0775 145.641 40.0674 145.348C40.0674 145.045 40.2997 144.793 40.6028 144.782L84.9031 143.681C85.2062 143.681 85.4587 143.914 85.4688 144.217C85.4688 144.52 85.2365 144.772 84.9334 144.782L40.6331 145.884H40.623Z" fill="#707070"/>
<path d="M191.688 168.212H103.37C103.067 168.212 102.814 167.97 102.814 167.657C102.814 167.344 103.057 167.101 103.37 167.101H191.688C191.991 167.101 192.243 167.344 192.243 167.657C192.243 167.97 192.001 168.212 191.688 168.212Z" fill="#707070"/>
<path d="M41.3711 168.212C41.068 168.212 40.8255 167.97 40.8154 167.667C40.8154 167.363 41.0579 167.111 41.361 167.111L78.7106 166.656C79.0137 166.656 79.2561 166.899 79.2662 167.202C79.2662 167.505 79.0238 167.758 78.7207 167.758L41.3711 168.212Z" fill="#707070"/>
<path d="M191.709 190.541H180.839C180.536 190.541 180.283 190.298 180.283 189.985C180.283 189.672 180.526 189.429 180.839 189.429H191.709C192.012 189.429 192.265 189.672 192.265 189.985C192.265 190.298 192.023 190.541 191.709 190.541Z" fill="#707070"/>
<path d="M144.884 190.541H42.1294C41.8263 190.541 41.5737 190.298 41.5737 189.985C41.5737 189.672 41.8162 189.429 42.1294 189.429H144.884C145.187 189.429 145.439 189.672 145.439 189.985C145.439 190.298 145.197 190.541 144.884 190.541Z" fill="#707070"/>
<path d="M193.102 270.914L145.114 271.843C142.831 271.883 140.922 270.156 140.841 267.973C140.76 265.791 142.538 263.993 144.821 263.942L192.809 263.013C195.092 262.972 197.002 264.7 197.083 266.882C197.163 269.065 195.385 270.863 193.102 270.914Z" fill="#C2D8F0"/>
<path d="M94.5908 244.342L48.1084 244.625C46.1788 244.635 44.5624 243.059 44.4916 241.099C44.4209 239.139 45.9363 237.542 47.8659 237.532L94.3484 237.249C96.278 237.239 97.8944 238.815 97.9651 240.775C98.0359 242.735 96.5204 244.332 94.5908 244.342Z" fill="#C2D8F0"/>
<path d="M100.844 259.042L47.4819 259.365C45.5523 259.376 43.9359 257.799 43.8652 255.839C43.7945 253.879 45.3099 252.283 47.2395 252.273L100.602 251.95C102.531 251.939 104.148 253.516 104.219 255.476C104.289 257.436 102.774 259.032 100.844 259.042Z" fill="#C2D8F0"/>
<path d="M88.5104 273.743L47.8774 273.995C45.9478 274.005 44.3314 272.429 44.2607 270.469C44.19 268.509 45.7054 266.913 47.635 266.903L88.268 266.65C90.1976 266.64 91.814 268.216 91.8847 270.176C91.9554 272.136 90.44 273.733 88.5104 273.743Z" fill="#C2D8F0"/>
<path d="M63.6473 94.0126H50.7058C50.4027 94.0126 50.1502 93.7701 50.1502 93.4569C50.1502 93.1437 50.3926 92.9012 50.7058 92.9012H63.6473C64.5061 92.9012 65.3042 92.5678 65.8901 91.9515C66.4963 91.3251 66.8095 90.4966 66.7792 89.6075L65.8497 62.2272C65.7891 60.3883 64.2636 58.9031 62.4552 58.9031H42.9368C42.0781 58.9031 41.28 59.2365 40.694 59.8529C40.0879 60.4793 39.7747 61.3077 39.805 62.1969L40.3404 77.9481C40.3506 78.2512 40.1081 78.5038 39.805 78.5139C39.4918 78.5341 39.2494 78.2815 39.2393 77.9784L38.7038 62.2272C38.6634 61.035 39.0877 59.9135 39.8959 59.0749C40.694 58.2464 41.775 57.7917 42.9368 57.7917H62.4552C64.8496 57.7917 66.8701 59.7619 66.9509 62.1867L67.8804 89.5671C67.9208 90.7593 67.4965 91.8808 66.6882 92.7193C65.8901 93.5478 64.8091 94.0025 63.6473 94.0025V94.0126Z" fill="#707070"/>
<g clip-path="url(#clip2_1_28989)">
<path d="M115.269 145.102C126.922 136.815 129.652 120.645 121.366 108.984C113.079 97.3235 96.9153 94.5881 85.2621 102.875C73.6089 111.161 70.8794 127.331 79.1657 138.992C87.4519 150.653 103.616 153.388 115.269 145.102Z" fill="#D79A00"/>
<path d="M121.185 139.059C129.802 128.183 127.973 112.375 117.099 103.752C106.225 95.128 90.4248 96.9538 81.8081 107.83C73.1913 118.706 75.021 134.513 85.8947 143.137C96.7685 151.761 112.569 149.935 121.185 139.059Z" fill="#FFB700"/>
<path d="M97.248 148.725C97.055 148.692 96.862 148.66 96.6701 148.621C82.7899 145.953 73.6656 132.487 76.331 118.602C78.9926 104.72 92.4403 95.5938 106.327 98.2623C113.05 99.5541 118.868 103.387 122.71 109.057C126.552 114.727 127.956 121.552 126.667 128.277C125.378 135.003 121.548 140.823 115.882 144.664C110.378 148.396 103.781 149.827 97.2453 148.721L97.248 148.725ZM105.591 99.158C92.4569 96.9354 79.8467 105.642 77.3254 118.794C74.7665 132.129 83.5319 145.065 96.862 147.626C103.323 148.87 109.872 147.52 115.314 143.829C120.756 140.138 124.434 134.549 125.675 128.089C126.913 121.629 125.565 115.073 121.874 109.628C118.183 104.182 112.596 100.501 106.139 99.2576C105.956 99.2233 105.774 99.189 105.591 99.158Z" fill="#FFB700"/>
<path d="M122.231 127.251C124.332 115.795 116.751 104.801 105.299 102.696C93.847 100.591 82.8604 108.172 80.7597 119.629C78.659 131.085 86.2397 142.078 97.6917 144.183C109.144 146.288 120.13 138.708 122.231 127.251Z" fill="white"/>
<path d="M96.7938 137.699L97.4474 134.293C95.0691 133.723 92.8611 132.63 91.6522 131.58L93.5298 127.594C94.875 128.708 96.846 129.867 99.1763 130.316C101.218 130.709 102.768 130.188 103.044 128.755C103.305 127.392 102.323 126.312 99.843 124.906C96.2561 122.878 93.9842 120.583 94.6529 117.108C95.2571 113.954 97.9539 111.907 101.93 111.892L102.584 108.486L106.094 109.163L105.49 112.316C107.868 112.887 109.384 113.698 110.457 114.499L108.64 118.348C107.786 117.776 106.295 116.633 103.715 116.139C101.385 115.689 100.442 116.55 100.249 117.555C100.021 118.739 101.131 119.731 103.956 121.462C107.931 123.789 109.274 126.091 108.655 129.314C108.044 132.505 105.262 134.794 101.007 134.721L100.304 138.375L96.7938 137.699Z" fill="#F2AC57"/>
</g>
<g clip-path="url(#clip3_1_28989)">
<path d="M72.4804 105.19C80.9807 95.612 80.1113 80.9552 70.5385 72.4525C60.9656 63.9498 46.3144 64.8212 37.8141 74.3987C29.3137 83.9761 30.1832 98.633 39.756 107.136C49.3288 115.638 63.9801 114.767 72.4804 105.19Z" fill="#D79A00"/>
<path d="M76.4263 98.7257C81.7572 87.501 76.9833 74.0795 65.7637 68.7477C54.544 63.416 41.1272 68.1931 35.7964 79.4177C30.4655 90.6423 35.2394 104.064 46.459 109.396C57.6787 114.727 71.0955 109.95 76.4263 98.7257Z" fill="#FFB700"/>
<path d="M57.4869 111.983C57.312 111.993 57.1371 112.004 56.9618 112.008C44.3167 112.478 33.6498 102.569 33.1839 89.9193C32.7152 77.2722 42.6122 66.6007 55.2634 66.1299C61.3881 65.9019 67.2345 68.0735 71.7255 72.2453C76.2164 76.4172 78.8139 82.0884 79.0411 88.2155C79.2683 94.3427 77.097 100.192 72.9263 104.685C68.8752 109.05 63.4074 111.628 57.4837 111.98L57.4869 111.983ZM54.801 67.0597C42.8964 67.7677 33.6456 77.9043 34.09 89.8866C34.5382 102.035 44.7855 111.554 56.9292 111.101C62.8155 110.885 68.2577 108.387 72.2633 104.07C76.2689 99.7533 78.3541 94.1366 78.1382 88.2511C77.9192 82.3657 75.4259 76.9184 71.1112 72.9116C66.7965 68.9049 61.1823 66.8195 55.299 67.0362C55.1329 67.043 54.9669 67.0499 54.801 67.0597Z" fill="#FFB700"/>
<path d="M74.9665 88.2136C74.4962 77.7959 65.6729 69.733 55.2593 70.2047C44.8456 70.6763 36.785 79.5038 37.2553 89.9215C37.7256 100.339 46.5489 108.402 56.9625 107.93C67.3762 107.459 75.4369 98.6313 74.9665 88.2136Z" fill="white"/>
<path d="M54.8743 102.454L54.7599 99.3516C52.5704 99.3334 50.4246 98.8251 49.1589 98.1525L49.9956 94.2967C51.3931 94.9978 53.3455 95.6114 55.4687 95.5336C57.3291 95.4653 58.576 94.6978 58.5288 93.3925C58.4824 92.1508 57.4091 91.4062 54.9628 90.6796C51.426 89.6334 48.9826 88.0891 48.8674 84.9227C48.7606 82.0495 50.7018 79.7206 54.1675 78.9059L54.0531 75.803L57.2515 75.6855L57.3583 78.5587C59.5478 78.5768 61.0335 78.979 62.1306 79.4618L61.3194 83.186C60.4586 82.8587 58.9281 82.1624 56.5785 82.2507C54.4553 82.3285 53.8059 83.2694 53.839 84.1849C53.8788 85.2635 55.0459 85.9057 57.859 86.8466C61.7941 88.0751 63.4287 89.8128 63.5363 92.7495C63.6451 95.6559 61.6781 98.2134 57.9508 99.0074L58.0727 102.337L54.8743 102.454Z" fill="#F2AC57"/>
</g>
</g>
<g clip-path="url(#clip4_1_28989)">
<path d="M255.009 204.827C257.36 203.155 268.893 198.75 277.346 201.066C278.61 204.52 278.887 206.104 278.887 206.104L255 209.983V204.827H255.009Z" fill="#B8B8B8"/>
<path d="M252.837 209.142C256.797 206.074 264.005 202.561 268.982 202.482C273.969 202.402 275.835 202.551 280.891 206.104C285.947 209.647 265.378 228.402 265.378 228.402L248.907 222.493L252.837 209.142Z" fill="#401C00"/>
<path d="M233.305 411.438C233.305 411.438 251.356 411.24 251.356 411.438C251.356 411.636 251.01 410.835 251.01 410.835C251.01 410.835 245.016 405.738 244.315 405.619C243.624 405.5 242.478 406.608 242.024 406.796C241.57 406.985 234.223 409.884 233.878 410.191C233.532 410.498 233.295 411.428 233.295 411.428L233.305 411.438Z" fill="#454545"/>
<path d="M305.983 411.438C305.983 411.438 292.968 411.24 292.968 411.438C292.968 411.636 293.234 410.834 293.234 410.834C293.234 410.834 294.795 407.895 296.236 407.054C296.71 406.777 299.13 406.658 299.485 406.836C299.841 407.014 305.262 409.884 305.538 410.191C305.805 410.498 305.993 411.428 305.993 411.428L305.983 411.438Z" fill="#454545"/>
<path d="M233.71 312.072C233.71 323.443 242.113 369.94 243.486 383.162C245.095 398.582 242.034 406.797 242.034 406.797C242.034 406.797 243.555 406.272 243.989 406.272C244.424 406.272 251.01 410.835 251.01 410.835C251.01 410.835 253.588 385.696 254.891 369.049C255.997 354.896 258.041 337.804 258.041 337.804C258.041 337.804 266.435 352.818 275.727 372.305C277.968 377.006 293.225 410.825 293.225 410.825L299.466 406.826C299.466 406.826 296.148 396.355 294.963 391.575C286.954 359.33 285.621 337.458 285.206 328.798C285.078 325.987 283.597 312.26 283.597 312.26C281.059 303.55 266.227 305.411 256.313 304.966C241.669 304.303 233.69 302.293 233.69 312.062L233.71 312.072Z" fill="url(#paint1_linear_1_28989)"/>
<path d="M250.961 310.884L252.61 327.214C252.61 327.214 258.485 326.7 253.518 312.28L250.951 310.884H250.961Z" fill="url(#paint2_linear_1_28989)"/>
<path d="M276.477 177.501C276.477 177.501 275.805 194.98 276.299 201.571C276.605 205.629 290.242 211.795 290.242 217.347C275.568 218.446 240.523 227.531 240.523 221.474C240.523 215.417 254.96 211.725 255.602 206.807C256.244 201.888 257.132 192.951 257.132 192.951L270.315 190.813L276.477 177.491V177.501Z" fill="url(#paint3_linear_1_28989)"/>
<path d="M240.908 215.991C234.954 220.87 212.34 223.622 212.34 223.622C212.34 223.622 201.399 228.917 198.615 233.687C195.682 238.715 191.228 245.356 201.251 257.658C202.732 258.093 227.952 253.63 247.267 239.061C262.307 227.719 245.48 212.24 240.908 215.991Z" fill="#E1EFFF"/>
<path d="M214.434 252.521C201.399 257.093 199.286 266.664 167.321 237.468C166.768 236.963 166.996 235.369 166.462 234.825C166.018 234.37 165.939 233.875 165.495 233.4C168.852 229.629 171.064 227.867 171.064 227.867C171.064 227.867 172.407 229.045 173.019 228.946C175.656 228.204 182.015 231.391 190.004 229.154C202.792 225.571 209.003 227.194 212.755 232.776C216.745 238.724 217.9 248.245 214.454 252.521H214.434Z" fill="#E1EFFF"/>
<path d="M171.193 227.531C171.538 227.749 173.345 229.075 173.691 229.293C174.037 229.51 173.661 231.787 171.933 233.43C170.205 235.082 168.043 235.864 167.124 235.459C166.206 235.043 165.386 233.964 165.169 233.499C164.952 233.034 166.117 231.391 167.944 229.728C169.771 228.065 170.778 227.264 171.183 227.521L171.193 227.531Z" fill="#C2D8F0"/>
<path d="M170.837 228.095C171.182 228.253 171.617 229.342 169.691 231.371C167.766 233.4 165.988 233.301 165.811 233.123C165.633 232.945 165.485 232.45 167.825 230.174C170.165 227.887 170.62 227.996 170.847 228.095H170.837Z" fill="#ADADAD"/>
<path d="M176.663 228.633C189.205 227.87 198.756 217.062 197.995 204.491C197.235 191.921 186.451 182.348 173.908 183.111C161.366 183.873 151.815 194.681 152.576 207.252C153.336 219.822 164.12 229.395 176.663 228.633Z" fill="#D79A00"/>
<path d="M198.244 205.285C198.354 193.063 188.559 183.066 176.365 182.955C164.171 182.844 154.196 192.662 154.086 204.883C153.975 217.105 163.77 227.102 175.964 227.213C188.158 227.324 198.133 217.506 198.244 205.285Z" fill="#FFB700"/>
<path d="M176.12 227.719C171.103 227.719 166.265 226.056 162.256 222.909C157.506 219.188 154.484 213.833 153.754 207.836C153.023 201.838 154.662 195.91 158.385 191.149C162.098 186.389 167.44 183.36 173.424 182.628C185.777 181.114 197.064 189.962 198.565 202.343C199.296 208.341 197.657 214.269 193.934 219.029C190.221 223.79 184.879 226.818 178.895 227.551C177.966 227.67 177.038 227.719 176.11 227.719H176.12ZM176.179 183.459C175.31 183.459 174.431 183.509 173.543 183.618C167.825 184.32 162.71 187.21 159.165 191.763C155.61 196.316 154.04 201.977 154.741 207.707C156.183 219.544 166.966 227.996 178.776 226.551C184.494 225.848 189.609 222.959 193.154 218.406C196.709 213.853 198.279 208.192 197.578 202.462C196.245 191.516 186.913 183.459 176.179 183.459Z" fill="#FFB700"/>
<path d="M185.06 221.369C194.034 216.445 197.326 205.162 192.413 196.167C187.5 187.173 176.242 183.873 167.268 188.798C158.294 193.722 155.001 205.005 159.915 214C164.828 222.994 176.086 226.294 185.06 221.369Z" fill="white"/>
<path d="M176.071 218.307L175.705 215.278C173.562 215.447 171.42 215.12 170.126 214.566L170.63 210.716C172.052 211.29 174.017 211.725 176.081 211.468C177.897 211.25 179.053 210.389 178.895 209.112C178.747 207.905 177.631 207.262 175.182 206.747C171.637 206.015 169.119 204.708 168.744 201.61C168.398 198.8 170.106 196.365 173.434 195.276L173.069 192.248L176.189 191.862L176.535 194.673C178.678 194.504 180.169 194.781 181.275 195.158L180.791 198.879C179.922 198.631 178.371 198.077 176.081 198.354C174.017 198.612 173.454 199.582 173.562 200.472C173.691 201.521 174.886 202.056 177.72 202.749C181.67 203.629 183.408 205.193 183.763 208.063C184.109 210.904 182.4 213.576 178.816 214.655L179.211 217.911L176.09 218.297L176.071 218.307Z" fill="#F2AC57"/>
<path d="M166.749 233.162C166.354 232.806 159.076 225.027 157.506 223.443C157.25 223.186 157.003 220.534 157.862 220.623C158.721 220.712 164.498 222.77 166.009 224.275C166.986 225.255 167.203 226.977 167.203 226.977C167.203 226.977 170.413 228.313 171.133 228.62C171.44 229.411 169.573 232.687 166.749 233.162Z" fill="url(#paint4_linear_1_28989)"/>
<path d="M157.397 223.186C157.17 222.068 156.351 216.872 156.301 216.684C156.252 216.496 160.32 212.834 160.32 212.834C160.32 212.834 161.248 213.665 161.021 214.496C160.577 216.09 159.866 216.941 158.187 217.921C157.496 220.237 159.224 221.771 159.718 222.889C160.212 224.008 157.634 224.304 157.407 223.186H157.397Z" fill="url(#paint5_linear_1_28989)"/>
<path d="M158.356 222.978C158.652 221.543 159.59 217.891 160.133 217.396C160.676 216.902 164.211 214.853 164.517 214.774C164.814 214.695 166.611 216.209 166.107 216.793C165.475 217.545 163.402 218.742 162.622 219C161.348 219.425 161.476 219.534 161.002 220.484C160.528 221.425 160.785 223.79 160.4 224.582C160.015 225.374 158.059 224.413 158.356 222.978Z" fill="url(#paint6_linear_1_28989)"/>
<path d="M161.199 225.542C161.18 224.493 162.76 219.693 163.313 219.208C163.866 218.723 168.25 217.406 168.556 217.327C168.852 217.248 169.257 219.534 168.744 220.108C168.092 220.841 166.561 220.623 165.771 220.86C164.498 221.256 164.428 220.9 163.935 221.83C163.441 222.761 163.53 224.691 163.737 226.007C163.945 227.323 161.219 226.571 161.199 225.522V225.542Z" fill="url(#paint7_linear_1_28989)"/>
<path d="M162.77 224.691C162.77 224.691 166.117 222.127 166.759 221.88C167.391 221.632 168.991 220.276 169.988 220.128C170.985 219.98 171.41 221.553 171.637 221.82C171.864 222.088 168.448 223.889 168.448 223.889C168.448 223.889 165.722 225.274 164.488 225.542C163.095 225.849 163.076 226.779 162.592 226.472C162.108 226.165 162.118 225.235 162.77 224.681V224.691Z" fill="url(#paint8_linear_1_28989)"/>
<path d="M261.428 212.28V214.605L259.117 214.734L259.601 211.983L255.967 214.605L260.855 215.852L264.647 213.289L261.428 212.28Z" fill="#B8B8B8"/>
<path d="M252.837 209.142C254.999 217.515 264.568 212.616 264.568 212.616L280.901 206.094C280.901 206.094 290.351 212.656 292.642 214.536C294.933 216.417 299.367 230.401 294.735 242.683C290.104 254.976 284.693 269.683 283.597 284.004C282.856 293.614 283.616 312.27 283.616 312.27C283.616 312.27 265.17 312.636 250.97 312.478C239.891 312.359 233.719 312.072 233.719 312.072C233.719 312.072 233.374 272.82 235.457 262.527C236.227 257.499 231.014 250.334 232.751 243.752C234.489 237.171 238.953 221.326 241.649 217.189L252.847 209.132L252.837 209.142Z" fill="#9DA6C4"/>
<path d="M283.616 312.299L283.863 314.615L233.709 315.15V312.092L283.616 312.299Z" fill="#707070"/>
<path d="M268.064 312.24H266.592L266.454 316.535H268.103L268.064 312.24Z" fill="url(#paint9_linear_1_28989)"/>
<path d="M247.761 311.508H253.084L253.034 315.793L247.534 315.536V314.882L252.086 314.972L252.422 312.388L247.544 312.161L247.761 311.508Z" fill="url(#paint10_linear_1_28989)"/>
<path d="M249.331 313.25L253.755 313.17V313.576L249.331 314.081C249.331 314.081 248.788 313.705 249.331 313.25Z" fill="url(#paint11_linear_1_28989)"/>
<path d="M259.601 211.983L251.859 219.792L249.42 211.735L255.01 204.827L259.601 211.983Z" fill="#CFDDF1"/>
<path d="M261.428 212.28C261.428 212.28 268.952 216.674 270.809 219.604C283.32 213.784 282.757 206.628 282.757 206.628L277.346 201.056C277.346 201.056 271.776 209.172 261.428 212.28Z" fill="#CFDDF1"/>
<path d="M278.896 179.273C278.896 179.273 281.799 177.006 283.952 179.698C286.302 182.638 281.523 191.228 276.585 187.398L278.896 179.273Z" fill="#FFC2B3"/>
<path d="M278.373 185.904C278.491 185.904 278.61 185.834 278.669 185.726C280.328 182.489 282.471 182.361 282.5 182.361C282.688 182.361 282.826 182.202 282.816 182.014C282.816 181.826 282.658 181.688 282.471 181.698C282.372 181.698 279.913 181.846 278.077 185.429C277.998 185.597 278.057 185.795 278.225 185.874C278.274 185.904 278.323 185.914 278.373 185.914V185.904Z" fill="#F48073"/>
<path d="M248.413 179.273C248.413 179.273 245.51 177.006 243.357 179.698C241.007 182.638 245.786 191.228 250.724 187.398L248.413 179.273Z" fill="#FFC2B3"/>
<path d="M248.936 185.904C248.986 185.904 249.035 185.894 249.084 185.864C249.252 185.785 249.312 185.577 249.233 185.419C247.396 181.836 244.947 181.698 244.838 181.688C244.651 181.668 244.503 181.826 244.493 182.004C244.493 182.183 244.631 182.341 244.809 182.351C244.898 182.351 247.001 182.509 248.64 185.716C248.699 185.835 248.818 185.894 248.936 185.894V185.904Z" fill="#F48073"/>
<path d="M263.146 190.447C273.459 190.447 281.819 182.276 281.819 172.196C281.819 162.117 273.459 153.946 263.146 153.946C252.833 153.946 244.473 162.117 244.473 172.196C244.473 182.276 252.833 190.447 263.146 190.447Z" fill="#878787"/>
<path d="M278.926 170.158C278.926 170.158 281.839 199.829 263.788 199.849C243.94 199.869 247.228 170.158 247.228 170.158C247.228 170.158 247.337 157.47 263.215 157.47C277.781 157.47 278.926 170.158 278.926 170.158Z" fill="url(#paint12_linear_1_28989)"/>
<path d="M260.677 187.151H261.941C262.129 187.151 262.277 187.003 262.277 186.814C262.277 186.626 262.129 186.478 261.941 186.478H260.677C260.559 186.478 260.46 186.428 260.381 186.349C260.302 186.26 260.273 186.151 260.283 186.042L260.579 181.767C260.589 181.579 260.45 181.421 260.273 181.411C260.085 181.401 259.927 181.539 259.917 181.717L259.621 185.973C259.591 186.26 259.69 186.557 259.888 186.785C260.085 187.012 260.381 187.141 260.677 187.141V187.151Z" fill="#F48073"/>
<path d="M266.089 180.213C266.089 180.965 266.691 181.569 267.442 181.569C268.192 181.569 268.795 180.965 268.795 180.213C268.795 179.461 268.192 178.857 267.442 178.857C266.691 178.857 266.089 179.461 266.089 180.213Z" fill="#2B232A"/>
<path d="M252.59 180.213C252.59 180.965 253.192 181.569 253.943 181.569C254.693 181.569 255.296 180.965 255.296 180.213C255.296 179.461 254.693 178.857 253.943 178.857C253.192 178.857 252.59 179.461 252.59 180.213Z" fill="#2B232A"/>
<path d="M260.924 190.387C263.709 190.387 265.111 188.992 265.18 188.922C265.309 188.794 265.309 188.576 265.18 188.447C265.052 188.319 264.845 188.319 264.716 188.447C264.647 188.517 262.959 190.169 259.502 189.585C259.325 189.556 259.147 189.675 259.117 189.863C259.088 190.041 259.206 190.219 259.394 190.249C259.947 190.338 260.46 190.387 260.934 190.387H260.924Z" fill="#F48073"/>
<path d="M271.935 176.126C270.681 175.72 267.185 175.284 264.361 175.304C264.025 175.304 263.837 174.948 264.045 174.71C264.657 173.968 266.523 172.474 269.239 173.067C269.239 173.067 271.234 173.661 272.557 175.354C272.646 175.463 272.675 175.611 272.646 175.74C272.586 176.046 272.251 176.225 271.935 176.126Z" fill="#2B232A"/>
<path d="M249.845 176.126C251.099 175.72 254.594 175.284 257.419 175.304C257.754 175.304 257.942 174.948 257.735 174.71C257.122 173.968 255.256 172.474 252.54 173.067C252.54 173.067 250.546 173.661 249.223 175.354C249.134 175.463 249.104 175.611 249.134 175.74C249.193 176.046 249.529 176.225 249.845 176.126Z" fill="#2B232A"/>
<path d="M280.042 175.047L277.05 170.326C277.05 170.326 276.842 164.18 273.89 159.113C273.89 159.113 281.72 164.625 280.032 175.047H280.042Z" fill="#878787"/>
<path d="M246.675 175.047L249.667 170.326C249.667 170.326 249.874 164.18 252.827 159.113C252.827 159.113 244.996 164.625 246.685 175.047H246.675Z" fill="#878787"/>
<path d="M278.284 162.903C278.284 162.903 258.337 174.423 246.893 159.756C246.893 159.756 265.664 139.922 278.284 162.903Z" fill="#A5A5A5"/>
<path d="M224.911 298.958C225.049 295.247 228.16 292.337 231.863 292.475C235.566 292.614 238.469 295.732 238.331 299.443L234.361 412.626" stroke="#606060" stroke-width="5" stroke-miterlimit="10" stroke-linecap="round"/>
<path d="M301.737 224.473C298.083 209.964 280.496 211.755 277.109 219.198C275.549 222.632 277.86 235.518 267.461 254.768C263.235 262.586 268.479 270.623 274.858 272.523C281.237 274.413 288.751 270.158 292.208 260.468C294.686 253.531 305.262 238.447 301.737 224.473Z" fill="#E1EFFF"/>
<path d="M237.383 285.874C237.383 285.874 234.647 287.22 232.426 288.527C231.843 288.982 236.01 295.781 238.923 297.394C238.923 297.394 241.451 295.316 241.688 295.217C243.002 294.673 243.209 291.347 243.12 291.09C241.925 287.953 238.637 285.508 237.393 285.874H237.383Z" fill="url(#paint13_linear_1_28989)"/>
<path d="M232.426 288.527C232.426 288.527 228.417 289.823 228.042 290.318C227.844 290.585 227.291 291.615 226.847 292.565C226.472 293.366 226.738 294.544 226.807 294.702C227.647 295.247 228.417 294.524 228.417 294.524C228.417 294.524 228.605 294 229.039 293.327C229.325 292.881 229.908 292.268 229.957 292.07C230.698 289.12 234.421 290.625 234.421 290.625C234.421 290.625 234.806 289.596 234.174 288.982C233.542 288.378 232.426 288.527 232.426 288.527Z" fill="url(#paint14_linear_1_28989)"/>
<path d="M234.282 290.516C234.282 290.516 231.577 292.614 230.806 293.416C230.026 294.217 228.831 296.87 228.762 297.414C229.483 298.78 230.727 298.77 230.727 298.77C230.727 298.77 230.826 297.187 233.156 295.336C233.788 292.763 236.524 292.96 236.524 292.96C236.524 292.96 237.116 290.249 234.282 290.506V290.516Z" fill="url(#paint15_linear_1_28989)"/>
<path d="M235.852 292.861C235.852 292.861 233.838 294.782 233.077 295.553C232.317 296.325 230.915 298.691 230.806 299.186C231.349 300.354 232.475 300.255 232.475 300.255C232.475 300.255 234.025 297.77 235.23 297.236C235.576 294.692 237.965 295.069 237.965 295.069C237.965 295.069 238.104 292.664 235.842 292.871L235.852 292.861Z" fill="url(#paint16_linear_1_28989)"/>
<path d="M237.255 295.286C237.255 295.286 236.011 296.454 235.339 297.127C234.668 297.8 233.334 299.849 233.246 300.294C233.789 301.383 234.826 301.324 234.826 301.324C234.826 301.324 236.909 299.018 237.284 298.661C236.998 297.107 238.963 297.325 238.963 297.325C238.963 297.325 239.625 294.97 237.245 295.296L237.255 295.286Z" fill="url(#paint17_linear_1_28989)"/>
<path d="M262.969 257.588C258.071 262.002 236.998 285.231 236.998 285.231C236.998 285.231 238.657 290.724 244.355 291.347C248.897 286.557 267.817 283.885 272.527 283.222C277.889 278.857 280.072 277.392 283.419 274.265C286.757 271.137 289.413 261.963 283.232 256.015C279.627 252.541 271.589 249.809 262.969 257.588Z" fill="#E1EFFF"/>
<path d="M245.648 290.288C243.614 288.843 240.622 286.231 238.993 283.103C237.749 284.439 236.998 285.241 236.998 285.241C236.998 285.241 238.657 290.734 244.355 291.357C244.7 290.991 245.135 290.635 245.648 290.288Z" fill="#C2D8F0"/>
</g>
<g style="mix-blend-mode:multiply">
<path fill-rule="evenodd" clip-rule="evenodd" d="M265.77 404.488C294.617 404.488 318 408.634 318 413.744C318 418.854 294.617 423 265.77 423C236.924 423 213.541 418.859 213.541 413.744C213.541 408.629 236.924 404.488 265.77 404.488Z" fill="#E2E2F2"/>
</g>
<g clip-path="url(#clip5_1_28989)">
<path d="M135.149 343.969L135.141 352.585C135.141 355.197 138.134 357.813 144.152 359.841C156.189 363.892 175.829 364.061 188.409 360.275C188.617 360.212 188.818 360.152 189.022 360.084C195.398 358.06 198.598 355.373 198.602 352.675L198.61 344.059C198.606 346.757 195.405 349.444 189.03 351.468C188.825 351.532 188.624 351.596 188.416 351.659C175.836 355.448 156.193 355.276 144.16 351.224C138.141 349.201 135.149 346.581 135.149 343.969Z" fill="#D79A00"/>
<path d="M145.346 336.368C145.138 336.432 144.933 336.492 144.732 336.559C132.182 340.539 131.926 347.106 144.16 351.224C156.197 355.276 175.836 355.445 188.416 351.659C188.625 351.596 188.825 351.536 189.03 351.468C201.576 347.488 201.833 340.922 189.602 336.803C177.569 332.755 157.929 332.583 145.346 336.368Z" fill="#FFB700"/>
<path d="M139.609 332.725L139.602 341.342C139.602 343.954 142.595 346.57 148.613 348.597C160.65 352.649 180.29 352.817 192.87 349.032C193.078 348.968 193.279 348.908 193.483 348.841C199.859 346.817 203.059 344.13 203.063 341.431L203.07 332.815C203.067 335.514 199.866 338.201 193.491 340.225C193.286 340.288 193.085 340.352 192.877 340.416C180.297 344.205 160.654 344.032 148.621 339.981C142.602 337.957 139.609 335.338 139.609 332.725Z" fill="#D79A00"/>
<path d="M149.807 325.125C149.599 325.188 149.394 325.248 149.193 325.316C136.643 329.296 136.387 335.862 148.621 339.981C160.658 344.032 180.297 344.201 192.877 340.416C193.086 340.352 193.286 340.292 193.491 340.225C206.037 336.245 206.294 329.678 194.063 325.56C182.03 321.512 162.39 321.339 149.807 325.125Z" fill="#FFB700"/>
<path d="M136.368 320.773L136.36 329.39C136.36 332.002 139.353 334.618 145.372 336.645C157.409 340.697 177.048 340.865 189.628 337.08C189.836 337.016 190.037 336.956 190.241 336.889C196.617 334.865 199.818 332.178 199.821 329.48L199.829 320.863C199.825 323.562 196.624 326.249 190.249 328.273C190.044 328.337 189.844 328.4 189.635 328.464C177.056 332.253 157.412 332.081 145.379 328.029C139.36 326.005 136.368 323.386 136.368 320.773Z" fill="#D79A00"/>
<path d="M146.565 313.173C146.357 313.237 146.152 313.297 145.952 313.364C133.401 317.344 133.145 323.91 145.379 328.026C157.416 332.077 177.056 332.246 189.636 328.46C189.844 328.397 190.045 328.337 190.249 328.269C202.796 324.289 203.052 317.723 190.822 313.604C178.788 309.556 159.149 309.384 146.565 313.169V313.173Z" fill="#FFB700"/>
<path d="M141.398 308.732L141.39 317.348C141.39 319.96 144.383 322.576 150.401 324.604C162.438 328.655 182.078 328.824 194.658 325.038C194.866 324.975 195.067 324.915 195.271 324.847C201.647 322.823 204.847 320.136 204.851 317.438L204.859 308.822C204.855 311.52 201.654 314.207 195.279 316.231C195.074 316.295 194.873 316.358 194.665 316.422C182.085 320.211 162.442 320.039 150.409 315.987C144.39 313.964 141.398 311.344 141.398 308.732Z" fill="#D79A00"/>
<path d="M151.595 301.131C151.387 301.195 151.182 301.255 150.981 301.323C138.431 305.303 138.175 311.869 150.409 315.988C162.446 320.039 182.086 320.208 194.665 316.422C194.874 316.359 195.074 316.299 195.279 316.231C207.825 312.251 208.082 305.685 195.851 301.566C183.818 297.518 164.178 297.346 151.595 301.131Z" fill="#FFB700"/>
<path d="M135.164 298.811L135.156 307.427C135.156 310.04 138.149 312.656 144.167 314.683C156.205 318.735 175.844 318.903 188.424 315.118C188.632 315.054 188.833 314.994 189.037 314.927C195.413 312.903 198.613 310.216 198.617 307.517L198.625 298.901C198.621 301.6 195.42 304.287 189.045 306.311C188.84 306.374 188.64 306.438 188.431 306.502C175.851 310.291 156.208 310.118 144.175 306.067C138.156 304.043 135.164 301.423 135.164 298.811Z" fill="#D79A00"/>
<path d="M145.36 291.211C145.152 291.274 144.948 291.334 144.747 291.402C132.197 295.382 131.94 301.948 144.175 306.067C156.212 310.118 175.851 310.287 188.431 306.502C188.639 306.438 188.84 306.378 189.044 306.311C201.591 302.33 201.847 295.764 189.617 291.645C177.583 287.598 157.944 287.425 145.36 291.211Z" fill="#FFB700"/>
<path d="M142.539 288.985L142.532 297.601C142.532 300.213 145.524 302.829 151.543 304.857C163.58 308.908 183.219 309.077 195.799 305.291C196.008 305.228 196.208 305.168 196.413 305.1C202.788 303.076 205.989 300.389 205.993 297.691L206 289.075C205.996 291.773 202.796 294.46 196.42 296.484C196.216 296.548 196.015 296.611 195.807 296.675C183.227 300.464 163.584 300.292 151.55 296.24C145.532 294.217 142.535 291.597 142.539 288.985Z" fill="#D79A00"/>
<path d="M152.736 281.384C152.528 281.448 152.323 281.508 152.123 281.575C139.572 285.555 139.316 292.122 151.55 296.24C163.587 300.292 183.227 300.46 195.807 296.675C196.015 296.611 196.215 296.551 196.42 296.484C208.966 292.504 209.223 285.938 196.992 281.819C184.959 277.771 165.32 277.599 152.736 281.384Z" fill="#FFB700"/>
<path d="M200.621 277.906L200.628 286.522C200.628 289.134 197.636 291.75 191.617 293.778C179.58 297.829 159.94 297.998 147.36 294.213C147.152 294.149 146.951 294.089 146.747 294.022C140.372 291.998 137.171 289.311 137.167 286.612L137.16 277.996C137.163 280.694 140.364 283.382 146.74 285.405C146.944 285.469 147.145 285.533 147.353 285.596C159.933 289.386 179.576 289.213 191.609 285.162C197.628 283.138 200.621 280.518 200.621 277.906Z" fill="#D79A00"/>
<path d="M168.777 297.522C161.071 297.522 153.357 296.604 147.204 294.752C146.996 294.689 146.788 294.625 146.584 294.561C140.16 292.522 136.617 289.7 136.613 286.616L136.606 278C136.606 277.689 136.855 277.438 137.164 277.438C137.472 277.438 137.721 277.689 137.721 278C137.721 280.514 141.074 283.022 146.911 284.873C147.112 284.937 147.312 284.997 147.517 285.061C159.929 288.797 179.632 288.606 191.439 284.633C196.926 282.786 200.071 280.338 200.067 277.913C200.067 277.602 200.316 277.351 200.625 277.351C200.933 277.351 201.182 277.602 201.182 277.913L201.19 286.53C201.193 289.513 197.859 292.279 191.799 294.318C185.461 296.45 177.123 297.526 168.777 297.526V297.522ZM137.721 280.923V286.612C137.729 289.127 141.078 291.634 146.915 293.486C147.115 293.549 147.316 293.609 147.52 293.673C159.933 297.41 179.636 297.218 191.442 293.246C196.929 291.398 200.074 288.951 200.071 286.526V280.833C198.621 282.673 195.803 284.345 191.788 285.694C179.595 289.798 160.007 289.989 147.193 286.132C146.985 286.069 146.777 286.005 146.572 285.941C142.249 284.57 139.23 282.842 137.717 280.923H137.721Z" fill="#D79A00"/>
<path d="M190.424 270.309C190.632 270.373 190.837 270.433 191.037 270.5C203.587 274.481 203.844 281.047 191.61 285.166C179.573 289.217 159.933 289.386 147.353 285.6C147.145 285.537 146.944 285.477 146.74 285.409C134.193 281.429 133.937 274.863 146.167 270.744C158.201 266.696 177.84 266.524 190.424 270.309Z" fill="white"/>
<path d="M168.77 288.902C161.063 288.902 153.35 287.984 147.197 286.132C146.989 286.069 146.781 286.005 146.576 285.941C140.171 283.91 136.632 281.099 136.606 278.026C136.58 275.031 139.915 272.254 145.996 270.208C158.19 266.104 177.777 265.913 190.588 269.77C190.799 269.833 191.004 269.897 191.208 269.961C197.614 271.992 201.153 274.803 201.182 277.876C201.208 280.871 197.874 283.648 191.792 285.694C185.454 287.826 177.115 288.902 168.77 288.902ZM169.041 268.166C160.766 268.166 152.487 269.207 146.35 271.276C140.844 273.128 137.699 275.586 137.721 278.018C137.744 280.526 141.093 283.026 146.911 284.873C147.112 284.937 147.312 284.997 147.517 285.061C159.93 288.797 179.632 288.606 191.439 284.633C196.944 282.782 200.089 280.323 200.067 277.895C200.045 275.388 196.695 272.888 190.874 271.04C190.673 270.976 190.472 270.916 190.268 270.853C184.312 269.061 176.677 268.173 169.041 268.173V268.166Z" fill="#FFB700"/>
<path d="M176.677 271.85L175.152 273.191C176.528 273.371 177.569 273.581 178.372 273.798C178.929 273.948 179.375 274.106 179.743 274.256L176.755 275.867C176.372 275.729 175.851 275.515 175.078 275.309C174.368 275.118 173.446 274.927 172.219 274.792C169.907 274.541 168.677 274.885 168.19 275.313C167.621 275.815 168.502 276.272 170.974 277.089C174.48 278.191 175.238 279.214 173.68 280.59C172.141 281.946 168.584 282.864 164.145 282.722L162.379 284.277L158.892 283.899L160.535 282.448C159.223 282.276 158.011 282.036 157.033 281.77C156.275 281.564 155.654 281.347 155.23 281.137L158.323 279.469C158.874 279.728 159.58 279.994 160.442 280.226C161.301 280.458 162.312 280.657 163.468 280.784C165.498 281.006 167.264 280.822 167.955 280.211C168.613 279.63 167.888 279.143 165.688 278.476C162.502 277.513 160.773 276.467 162.45 274.987C163.974 273.645 167.372 272.832 171.543 272.925L173.186 271.475L176.673 271.853L176.677 271.85Z" fill="#FFB700"/>
<path d="M130.974 344.752L130.981 352.963C130.981 355.452 128.13 357.944 122.398 359.874C110.929 363.735 92.212 363.896 80.2231 360.287C80.0261 360.227 79.8328 360.167 79.6395 360.107C73.5652 358.18 70.5131 355.617 70.5094 353.046L70.502 344.834C70.502 347.405 73.5577 349.965 79.6321 351.895C79.8254 351.955 80.0187 352.015 80.2157 352.075C92.2046 355.684 110.922 355.519 122.39 351.663C128.126 349.733 130.978 347.24 130.974 344.752Z" fill="#D79A00"/>
<path d="M121.256 337.511C121.453 337.571 121.647 337.631 121.844 337.691C133.803 341.484 134.044 347.743 122.39 351.663C110.922 355.523 92.2043 355.684 80.2154 352.075C80.0184 352.015 79.8251 351.955 79.6318 351.895C67.6764 348.102 67.431 341.844 79.089 337.923C90.5574 334.063 109.271 333.902 121.26 337.511H121.256Z" fill="#FFB700"/>
<path d="M124.472 335.053L124.48 343.264C124.48 345.753 121.628 348.245 115.896 350.175C104.428 354.035 85.71 354.197 73.7212 350.587C73.5242 350.527 73.3309 350.467 73.1375 350.407C67.0595 348.481 64.0112 345.921 64.0074 343.35L64 335.139C64 337.71 67.0558 340.27 73.1301 342.2C73.3234 342.26 73.5167 342.32 73.7138 342.38C85.7026 345.989 104.42 345.824 115.888 341.967C121.625 340.037 124.476 337.545 124.472 335.056V335.053Z" fill="#D79A00"/>
<path d="M114.755 327.812C114.952 327.872 115.145 327.932 115.342 327.992C127.301 331.785 127.543 338.043 115.889 341.964C104.42 345.824 85.7028 345.985 73.714 342.376C73.5169 342.316 73.3236 342.256 73.1303 342.196C61.1749 338.403 60.9296 332.144 72.5876 328.224C84.056 324.364 102.77 324.203 114.759 327.812H114.755Z" fill="#FFB700"/>
<path d="M129.914 323.221L129.922 331.432C129.922 333.921 127.071 336.413 121.338 338.343C109.87 342.203 91.1524 342.364 79.1636 338.755C78.9665 338.695 78.7732 338.635 78.5799 338.575C72.5056 336.649 69.4535 334.086 69.4498 331.515L69.4424 323.303C69.4424 325.874 72.4981 328.434 78.5725 330.364C78.7658 330.424 78.9591 330.484 79.1561 330.544C91.145 334.153 109.862 333.988 121.331 330.132C127.063 328.202 129.918 325.709 129.914 323.221Z" fill="#D79A00"/>
<path d="M99.5688 341.934C92.2231 341.934 84.8699 341.057 79.0037 339.291C78.803 339.231 78.606 339.171 78.4126 339.108C72.2788 337.159 68.8959 334.464 68.8922 331.511L68.8848 323.299C68.8848 322.988 69.1338 322.737 69.4424 322.737C69.7509 322.737 70 322.988 70 323.299C70 325.683 73.1896 328.063 78.7398 329.824C78.9294 329.884 79.1227 329.944 79.316 330.001C91.1413 333.561 109.907 333.377 121.152 329.592C126.368 327.838 129.361 325.511 129.357 323.213C129.357 322.902 129.606 322.651 129.915 322.651C130.223 322.651 130.472 322.902 130.472 323.213L130.48 331.425C130.48 334.281 127.297 336.923 121.513 338.872C115.472 340.903 107.524 341.93 99.5688 341.93V341.934ZM70.0037 326.167V331.515C70.0112 333.898 73.197 336.278 78.7472 338.04C78.9368 338.1 79.1301 338.16 79.3234 338.216C91.1487 341.776 109.915 341.593 121.16 337.807C126.375 336.053 129.368 333.726 129.364 331.428V326.08C127.967 327.816 125.294 329.39 121.506 330.664C109.881 334.577 91.2082 334.76 78.9963 331.084C78.7955 331.024 78.5985 330.964 78.4052 330.9C74.3234 329.607 71.4647 327.977 70.0037 326.167Z" fill="#D79A00"/>
<path d="M120.197 315.976C120.394 316.036 120.588 316.096 120.785 316.156C132.744 319.949 132.985 326.208 121.331 330.128C109.863 333.988 91.1452 334.149 79.1564 330.54C78.9593 330.48 78.766 330.42 78.5727 330.36C66.6173 326.568 66.372 320.309 78.03 316.388C89.4984 312.528 108.212 312.367 120.201 315.976H120.197Z" fill="white"/>
<path d="M99.5615 333.726C92.2158 333.726 84.8626 332.849 78.9964 331.084C78.7957 331.024 78.5987 330.964 78.4054 330.9C72.2901 328.959 68.9109 326.272 68.8849 323.333C68.8589 320.466 72.0448 317.813 77.8515 315.86C89.4723 311.947 108.145 311.764 120.357 315.44C120.558 315.5 120.755 315.56 120.952 315.624C127.067 317.562 130.446 320.253 130.472 323.191C130.498 326.058 127.312 328.711 121.506 330.664C115.465 332.695 107.517 333.722 99.5615 333.722V333.726ZM99.8217 313.964C91.937 313.964 84.0559 314.957 78.2046 316.925C72.9704 318.686 69.9816 321.017 70.0002 323.322C70.0188 325.702 73.2046 328.071 78.7399 329.828C78.9295 329.888 79.1228 329.948 79.3162 330.004C91.1414 333.565 109.907 333.381 121.153 329.596C126.387 327.834 129.376 325.503 129.357 323.198C129.338 320.819 126.153 318.45 120.617 316.692C120.424 316.632 120.234 316.572 120.041 316.512C114.368 314.803 107.093 313.96 99.8217 313.96V313.964Z" fill="#FFB700"/>
<path d="M116.517 320.684L117.561 321.954L113.922 322.467C114.509 323.352 114.409 324.019 114.1 324.54L109.119 324.825C109.297 324.424 109.758 323.693 108.992 322.76C108.676 322.374 108.212 322.141 107.691 322.018C107.078 321.875 106.387 321.883 105.762 321.973C104.398 322.168 103.903 322.741 103.483 324.03C103.015 325.818 101.253 326.759 97.5315 327.283C95.0928 327.628 92.5984 327.579 90.5947 327.111C89.5724 326.871 88.6802 326.523 87.9887 326.058L83.7731 326.654L82.7285 325.383L86.6579 324.829C86.0668 323.944 86.1188 322.996 86.6244 322.374L91.7806 322.081C91.2787 322.76 91.0371 323.648 91.7285 324.488C92.0445 324.874 92.5575 325.158 93.2081 325.312C93.8066 325.451 94.5203 325.481 95.3122 325.368C96.8846 325.147 97.5352 324.592 97.7806 323.487C98.13 321.89 99.42 320.654 103.431 320.088C105.836 319.747 108.189 319.807 110.085 320.253C111.056 320.481 111.907 320.811 112.587 321.238L116.513 320.684H116.517Z" fill="#FFB700"/>
</g>
</g>
<defs>
<linearGradient id="paint0_linear_1_28989" x1="177.942" y1="327.306" x2="142.686" y2="-50.35" gradientUnits="userSpaceOnUse">
<stop stop-color="#96D9E3"/>
<stop offset="1" stop-color="#FFE0CC"/>
</linearGradient>
<linearGradient id="paint1_linear_1_28989" x1="299.475" y1="357.588" x2="233.71" y2="357.588" gradientUnits="userSpaceOnUse">
<stop stop-color="#454545"/>
<stop offset="1" stop-color="#2E2E2E"/>
</linearGradient>
<linearGradient id="paint2_linear_1_28989" x1="255.523" y1="319.049" x2="250.961" y2="319.049" gradientUnits="userSpaceOnUse">
<stop stop-color="#3D3D3D"/>
<stop offset="1" stop-color="#262626"/>
</linearGradient>
<linearGradient id="paint3_linear_1_28989" x1="254.16" y1="184.805" x2="267.278" y2="224.871" gradientUnits="userSpaceOnUse">
<stop stop-color="#F7C3AF"/>
<stop offset="1" stop-color="#F79480"/>
</linearGradient>
<linearGradient id="paint4_linear_1_28989" x1="164.516" y1="225.708" x2="166.445" y2="231.874" gradientUnits="userSpaceOnUse">
<stop stop-color="#F7B59C"/>
<stop offset="1" stop-color="#F79480"/>
</linearGradient>
<linearGradient id="paint5_linear_1_28989" x1="161.715" y1="225.605" x2="163.366" y2="230.893" gradientUnits="userSpaceOnUse">
<stop stop-color="#F7B59C"/>
<stop offset="1" stop-color="#F79480"/>
</linearGradient>
<linearGradient id="paint6_linear_1_28989" x1="164.231" y1="225.292" x2="166.152" y2="231.428" gradientUnits="userSpaceOnUse">
<stop stop-color="#F7B59C"/>
<stop offset="1" stop-color="#F79480"/>
</linearGradient>
<linearGradient id="paint7_linear_1_28989" x1="166.545" y1="225.405" x2="169.33" y2="231.416" gradientUnits="userSpaceOnUse">
<stop stop-color="#F7B59C"/>
<stop offset="1" stop-color="#F79480"/>
</linearGradient>
<linearGradient id="paint8_linear_1_28989" x1="167.341" y1="224.115" x2="169.273" y2="230.302" gradientUnits="userSpaceOnUse">
<stop stop-color="#F7B59C"/>
<stop offset="1" stop-color="#F79480"/>
</linearGradient>
<linearGradient id="paint9_linear_1_28989" x1="268.103" y1="314.388" x2="266.454" y2="314.388" gradientUnits="userSpaceOnUse">
<stop stop-color="#3D3D3D"/>
<stop offset="1" stop-color="#262626"/>
</linearGradient>
<linearGradient id="paint10_linear_1_28989" x1="253.084" y1="313.645" x2="247.534" y2="313.645" gradientUnits="userSpaceOnUse">
<stop stop-color="#3D3D3D"/>
<stop offset="1" stop-color="#262626"/>
</linearGradient>
<linearGradient id="paint11_linear_1_28989" x1="253.765" y1="313.626" x2="249.094" y2="313.626" gradientUnits="userSpaceOnUse">
<stop stop-color="#3D3D3D"/>
<stop offset="1" stop-color="#262626"/>
</linearGradient>
<linearGradient id="paint12_linear_1_28989" x1="263.067" y1="184.182" x2="263.067" y2="202.491" gradientUnits="userSpaceOnUse">
<stop stop-color="#F7C3AF"/>
<stop offset="1" stop-color="#F79480"/>
</linearGradient>
<linearGradient id="paint13_linear_1_28989" x1="234.522" y1="291.932" x2="246.357" y2="291.101" gradientUnits="userSpaceOnUse">
<stop stop-color="#F7B59C"/>
<stop offset="1" stop-color="#F79480"/>
</linearGradient>
<linearGradient id="paint14_linear_1_28989" x1="234.482" y1="291.443" x2="246.471" y2="290.605" gradientUnits="userSpaceOnUse">
<stop stop-color="#F7B59C"/>
<stop offset="1" stop-color="#F79480"/>
</linearGradient>
<linearGradient id="paint15_linear_1_28989" x1="234.705" y1="294.543" x2="246.541" y2="293.713" gradientUnits="userSpaceOnUse">
<stop stop-color="#F7B59C"/>
<stop offset="1" stop-color="#F79480"/>
</linearGradient>
<linearGradient id="paint16_linear_1_28989" x1="234.682" y1="296.569" x2="246.518" y2="295.739" gradientUnits="userSpaceOnUse">
<stop stop-color="#F7B59C"/>
<stop offset="1" stop-color="#F79480"/>
</linearGradient>
<linearGradient id="paint17_linear_1_28989" x1="236.51" y1="296.752" x2="247.858" y2="295.599" gradientUnits="userSpaceOnUse">
<stop stop-color="#F7B59C"/>
<stop offset="1" stop-color="#F79480"/>
</linearGradient>
<clipPath id="clip0_1_28989">
<rect width="318" height="423" fill="white"/>
</clipPath>
<clipPath id="clip1_1_28989">
<rect width="200.599" height="296.193" fill="white" transform="translate(12.9419)"/>
</clipPath>
<clipPath id="clip2_1_28989">
<rect width="52.6481" height="52.2832" fill="white" transform="matrix(0.985981 0.166855 -0.166441 0.986051 79.1279 93.6526)"/>
</clipPath>
<clipPath id="clip3_1_28989">
<rect width="47.1345" height="46.8108" fill="white" transform="matrix(0.998236 -0.0593658 0.0592146 0.998245 30.6089 67.5898)"/>
</clipPath>
<clipPath id="clip4_1_28989">
<rect width="153.453" height="263.797" fill="white" transform="translate(152.529 151.799)"/>
</clipPath>
<clipPath id="clip5_1_28989">
<rect width="142" height="96" fill="white" transform="translate(64 267)"/>
</clipPath>
</defs>
</svg>
