<svg width="203" height="196" viewBox="0 0 203 196" fill="none" xmlns="http://www.w3.org/2000/svg">
<path d="M4.39023 12.92C4.39023 13.52 4.4569 14.1067 4.59023 14.68C4.7369 15.24 4.96357 15.7467 5.27023 16.2C5.5769 16.6533 5.9769 17.02 6.47023 17.3C6.96357 17.5667 7.56357 17.7 8.27023 17.7C8.9769 17.7 9.5769 17.5667 10.0702 17.3C10.5636 17.02 10.9636 16.6533 11.2702 16.2C11.5769 15.7467 11.7969 15.24 11.9302 14.68C12.0769 14.1067 12.1502 13.52 12.1502 12.92C12.1502 12.2933 12.0769 11.6867 11.9302 11.1C11.7969 10.5133 11.5769 9.99333 11.2702 9.54C10.9636 9.07333 10.5636 8.70667 10.0702 8.44C9.5769 8.16 8.9769 8.02 8.27023 8.02C7.56357 8.02 6.96357 8.16 6.47023 8.44C5.9769 8.70667 5.5769 9.07333 5.27023 9.54C4.96357 9.99333 4.7369 10.5133 4.59023 11.1C4.4569 11.6867 4.39023 12.2933 4.39023 12.92ZM1.25023 12.92C1.25023 11.8533 1.41023 10.8667 1.73023 9.96C2.05023 9.04 2.51023 8.24 3.11023 7.56C3.71023 6.88 4.44357 6.34667 5.31023 5.96C6.19023 5.57333 7.1769 5.38 8.27023 5.38C9.3769 5.38 10.3636 5.57333 11.2302 5.96C12.0969 6.34667 12.8302 6.88 13.4302 7.56C14.0302 8.24 14.4902 9.04 14.8102 9.96C15.1302 10.8667 15.2902 11.8533 15.2902 12.92C15.2902 13.96 15.1302 14.9333 14.8102 15.84C14.4902 16.7333 14.0302 17.5133 13.4302 18.18C12.8302 18.8467 12.0969 19.3733 11.2302 19.76C10.3636 20.1333 9.3769 20.32 8.27023 20.32C7.1769 20.32 6.19023 20.1333 5.31023 19.76C4.44357 19.3733 3.71023 18.8467 3.11023 18.18C2.51023 17.5133 2.05023 16.7333 1.73023 15.84C1.41023 14.9333 1.25023 13.96 1.25023 12.92ZM20.7366 9.66H22.8166V11.56H20.7366V16.68C20.7366 17.16 20.8166 17.48 20.9766 17.64C21.1366 17.8 21.4566 17.88 21.9366 17.88C22.0966 17.88 22.25 17.8733 22.3966 17.86C22.5433 17.8467 22.6833 17.8267 22.8166 17.8V20C22.5766 20.04 22.31 20.0667 22.0166 20.08C21.7233 20.0933 21.4366 20.1 21.1566 20.1C20.7166 20.1 20.2966 20.0667 19.8966 20C19.51 19.9467 19.1633 19.8333 18.8566 19.66C18.5633 19.4867 18.33 19.24 18.1566 18.92C17.9833 18.6 17.8966 18.18 17.8966 17.66V11.56H16.1766V9.66H17.8966V6.56H20.7366V9.66ZM24.1679 5.72H27.0079V11.1H27.0679C27.4279 10.5 27.8879 10.0667 28.4479 9.8C29.0079 9.52 29.5546 9.38 30.0879 9.38C30.8479 9.38 31.4679 9.48667 31.9479 9.7C32.4412 9.9 32.8279 10.1867 33.1079 10.56C33.3879 10.92 33.5812 11.3667 33.6879 11.9C33.8079 12.42 33.8679 13 33.8679 13.64V20H31.0279V14.16C31.0279 13.3067 30.8946 12.6733 30.6279 12.26C30.3612 11.8333 29.8879 11.62 29.2079 11.62C28.4346 11.62 27.8746 11.8533 27.5279 12.32C27.1812 12.7733 27.0079 13.5267 27.0079 14.58V20H24.1679V5.72ZM42.9834 13.72C42.85 13 42.61 12.4533 42.2634 12.08C41.93 11.7067 41.4167 11.52 40.7234 11.52C40.27 11.52 39.89 11.6 39.5834 11.76C39.29 11.9067 39.05 12.0933 38.8634 12.32C38.69 12.5467 38.5634 12.7867 38.4834 13.04C38.4167 13.2933 38.3767 13.52 38.3634 13.72H42.9834ZM38.3634 15.52C38.4034 16.44 38.6367 17.1067 39.0634 17.52C39.49 17.9333 40.1034 18.14 40.9034 18.14C41.4767 18.14 41.97 18 42.3834 17.72C42.7967 17.4267 43.05 17.12 43.1434 16.8H45.6434C45.2434 18.04 44.63 18.9267 43.8034 19.46C42.9767 19.9933 41.9767 20.26 40.8034 20.26C39.99 20.26 39.2567 20.1333 38.6034 19.88C37.95 19.6133 37.3967 19.24 36.9434 18.76C36.49 18.28 36.1367 17.7067 35.8834 17.04C35.6434 16.3733 35.5234 15.64 35.5234 14.84C35.5234 14.0667 35.65 13.3467 35.9034 12.68C36.1567 12.0133 36.5167 11.44 36.9834 10.96C37.45 10.4667 38.0034 10.08 38.6434 9.8C39.2967 9.52 40.0167 9.38 40.8034 9.38C41.6834 9.38 42.45 9.55333 43.1034 9.9C43.7567 10.2333 44.29 10.6867 44.7034 11.26C45.13 11.8333 45.4367 12.4867 45.6234 13.22C45.81 13.9533 45.8767 14.72 45.8234 15.52H38.3634ZM47.5077 9.66H50.2077V11.58H50.2477C50.3811 11.26 50.5611 10.9667 50.7877 10.7C51.0144 10.42 51.2744 10.1867 51.5677 10C51.8611 9.8 52.1744 9.64667 52.5077 9.54C52.8411 9.43333 53.1877 9.38 53.5477 9.38C53.7344 9.38 53.9411 9.41333 54.1677 9.48V12.12C54.0344 12.0933 53.8744 12.0733 53.6877 12.06C53.5011 12.0333 53.3211 12.02 53.1477 12.02C52.6277 12.02 52.1877 12.1067 51.8277 12.28C51.4677 12.4533 51.1744 12.6933 50.9477 13C50.7344 13.2933 50.5811 13.64 50.4877 14.04C50.3944 14.44 50.3477 14.8733 50.3477 15.34V20H47.5077V9.66ZM57.4812 16.64C57.4812 16.9467 57.5412 17.2133 57.6612 17.44C57.7945 17.6533 57.9612 17.8333 58.1612 17.98C58.3612 18.1133 58.5878 18.2133 58.8412 18.28C59.1078 18.3467 59.3812 18.38 59.6612 18.38C59.8612 18.38 60.0678 18.36 60.2812 18.32C60.5078 18.2667 60.7078 18.1933 60.8812 18.1C61.0678 17.9933 61.2212 17.86 61.3412 17.7C61.4612 17.5267 61.5212 17.3133 61.5212 17.06C61.5212 16.6333 61.2345 16.3133 60.6612 16.1C60.1012 15.8867 59.3145 15.6733 58.3012 15.46C57.8878 15.3667 57.4812 15.26 57.0812 15.14C56.6945 15.0067 56.3478 14.84 56.0412 14.64C55.7345 14.4267 55.4878 14.1667 55.3012 13.86C55.1145 13.54 55.0212 13.1533 55.0212 12.7C55.0212 12.0333 55.1478 11.4867 55.4012 11.06C55.6678 10.6333 56.0145 10.3 56.4412 10.06C56.8678 9.80667 57.3478 9.63333 57.8812 9.54C58.4145 9.43333 58.9612 9.38 59.5212 9.38C60.0812 9.38 60.6212 9.43333 61.1412 9.54C61.6745 9.64667 62.1478 9.82667 62.5612 10.08C62.9745 10.3333 63.3145 10.6733 63.5812 11.1C63.8612 11.5133 64.0278 12.04 64.0812 12.68H61.3812C61.3412 12.1333 61.1345 11.7667 60.7612 11.58C60.3878 11.38 59.9478 11.28 59.4412 11.28C59.2812 11.28 59.1078 11.2933 58.9212 11.32C58.7345 11.3333 58.5612 11.3733 58.4012 11.44C58.2545 11.5067 58.1278 11.6067 58.0212 11.74C57.9145 11.86 57.8612 12.0267 57.8612 12.24C57.8612 12.4933 57.9545 12.7 58.1412 12.86C58.3278 13.02 58.5678 13.1533 58.8612 13.26C59.1678 13.3533 59.5145 13.44 59.9012 13.52C60.2878 13.6 60.6812 13.6867 61.0812 13.78C61.4945 13.8733 61.8945 13.9867 62.2812 14.12C62.6812 14.2533 63.0345 14.4333 63.3412 14.66C63.6478 14.8733 63.8945 15.1467 64.0812 15.48C64.2678 15.8 64.3612 16.2 64.3612 16.68C64.3612 17.36 64.2212 17.9333 63.9412 18.4C63.6745 18.8533 63.3212 19.22 62.8812 19.5C62.4412 19.78 61.9345 19.9733 61.3612 20.08C60.8012 20.2 60.2278 20.26 59.6412 20.26C59.0412 20.26 58.4545 20.2 57.8812 20.08C57.3078 19.96 56.7945 19.76 56.3412 19.48C55.9012 19.2 55.5345 18.8333 55.2412 18.38C54.9612 17.9133 54.8078 17.3333 54.7812 16.64H57.4812ZM69.3034 12.92H66.1634V9.84H69.3034V12.92ZM66.1634 16.92H69.3034V20H66.1634V16.92Z" fill="black"/>
<line y1="68" x2="203" y2="68" stroke="black" stroke-width="4"/>
<line y1="110" x2="203" y2="110" stroke="black" stroke-width="4"/>
<line y1="152" x2="203" y2="152" stroke="black" stroke-width="4"/>
<line y1="194" x2="203" y2="194" stroke="black" stroke-width="4"/>
</svg>
