<svg width="168" height="283" viewBox="0 0 168 283" fill="none" xmlns="http://www.w3.org/2000/svg">
<g clip-path="url(#clip0_1_27621)">
<path d="M123.16 217.8C120.03 242.32 97.1298 280 97.1298 280H94.0698L94.1198 217.18L123.16 217.79V217.8Z" fill="url(#paint0_linear_1_27621)"/>
<path d="M54.54 218.48C58.86 242.73 84.15 280.01 84.15 280.01H87.33L84.49 217.88L54.55 218.49L54.54 218.48Z" fill="url(#paint1_linear_1_27621)"/>
<path d="M28.3599 232.97C28.3599 232.97 32.8499 107.88 86.0299 102.16C139.21 96.4398 150.07 223.01 150.49 225.39C120.2 254.27 61.0299 253.79 28.3699 232.97H28.3599Z" fill="#398DA5"/>
<path d="M127.56 135.63C125.06 136.61 122.29 137.83 119.21 138.89C107.24 143.02 100.8 150.4 104.46 155.66C109.48 162.84 118.99 166.28 129.55 155.77C131.13 154.2 132.73 152.64 134.22 151.11C132.44 143.98 129.99 138.2 127.55 135.63H127.56Z" fill="#347F91"/>
<path d="M131.53 134.56C127.73 130.16 110.52 126.38 109.4 128.89C108.27 131.41 109.15 135.01 110.47 135.18C111.79 135.35 133.02 136.28 131.53 134.55V134.56Z" fill="#347F91"/>
<path d="M113.85 149.49C110.6 152.67 92.4701 149.37 89.3401 145.08C87.4301 142.46 88.4801 135.72 92.7201 136.01C94.6701 136.14 98.5301 139.68 102.5 142.44C108.66 146.7 117.96 145.46 113.84 149.49H113.85Z" fill="#347F91"/>
<path d="M115.01 153.78C113.94 158.2 96.8198 165.02 91.8898 163.04C88.8798 161.83 86.1998 155.57 89.9498 153.56C91.6698 152.64 96.8198 153.6 101.65 153.82C109.13 154.17 116.36 148.19 115.01 153.78Z" fill="#347F91"/>
<path d="M83.53 177.39C83.53 177.39 48.8 191.67 45.04 154.5L65.92 142.81L83.53 177.4V177.39Z" fill="#347F91"/>
<path d="M138.96 222.72C138.78 220.67 136.97 219.15 134.92 219.33C132.87 219.51 131.35 221.31 131.53 223.36C131.7 225.41 133.51 226.93 135.56 226.75C137.61 226.57 139.13 224.77 138.95 222.72H138.96Z" fill="#C1210D"/>
<path d="M136.63 216.45C136.54 215.38 135.59 214.58 134.52 214.68C133.45 214.78 132.65 215.72 132.74 216.79C132.83 217.87 133.94 220.51 135.01 220.41C136.09 220.32 136.72 217.52 136.63 216.45Z" fill="#C1210D"/>
<path d="M133.88 229.96C133.97 231.03 134.92 231.83 135.99 231.73C137.06 231.64 137.86 230.69 137.76 229.62C137.67 228.54 136.56 225.9 135.49 226C134.42 226.09 133.78 228.88 133.87 229.96H133.88Z" fill="#C1210D"/>
<path d="M142.01 224.58C143.08 224.49 143.88 223.54 143.79 222.47C143.7 221.4 142.75 220.6 141.68 220.69C140.6 220.78 137.96 221.89 138.06 222.96C138.15 224.03 140.94 224.67 142.02 224.58H142.01Z" fill="#C1210D"/>
<path d="M128.5 221.83C127.43 221.92 126.63 222.87 126.73 223.94C126.82 225.01 127.77 225.81 128.84 225.71C129.92 225.62 132.55 224.51 132.46 223.44C132.37 222.37 129.58 221.73 128.5 221.82V221.83Z" fill="#C1210D"/>
<path d="M139.06 228.95C139.89 229.65 141.12 229.53 141.81 228.71C142.51 227.89 142.4 226.66 141.57 225.96C140.75 225.27 138.1 224.18 137.4 225.01C136.71 225.83 138.23 228.26 139.06 228.95Z" fill="#C1210D"/>
<path d="M131.45 217.46C130.63 216.76 129.39 216.87 128.7 217.7C128.01 218.52 128.11 219.75 128.94 220.45C129.77 221.14 132.42 222.23 133.11 221.4C133.8 220.57 132.28 218.15 131.45 217.46Z" fill="#C1210D"/>
<path d="M129.51 227.01C128.81 227.84 128.92 229.06 129.75 229.76C130.57 230.45 131.81 230.35 132.5 229.52C133.19 228.7 134.28 226.05 133.45 225.35C132.63 224.66 130.2 226.18 129.51 227.01Z" fill="#C1210D"/>
<path d="M141.01 219.4C141.7 218.57 141.59 217.35 140.77 216.65C139.95 215.96 138.72 216.06 138.02 216.89C137.33 217.71 136.24 220.36 137.06 221.06C137.89 221.75 140.31 220.23 141 219.4H141.01Z" fill="#C1210D"/>
<path d="M44.2901 223.24C44.6801 221.29 43.7301 219.2 42.1701 218.57C40.6201 217.94 39.0301 219.01 38.6501 220.96C38.2601 222.91 39.2101 225.01 40.7601 225.63C42.3201 226.26 43.8901 225.19 44.2901 223.24Z" fill="#C1210D"/>
<path d="M44.1702 216.59C44.3802 215.57 43.8802 214.47 43.0602 214.15C42.2502 213.82 41.4202 214.38 41.2102 215.4C41.0102 216.42 41.1502 219.27 41.9602 219.6C42.7702 219.93 43.9502 217.61 44.1602 216.59H44.1702Z" fill="#C1210D"/>
<path d="M38.7102 227.93C38.5102 228.95 39.0002 230.05 39.8202 230.38C40.6302 230.71 41.4602 230.15 41.6702 229.13C41.8802 228.11 41.7302 225.26 40.9102 224.93C40.1002 224.6 38.9202 226.92 38.7102 227.94V227.93Z" fill="#C1210D"/>
<path d="M46.07 226.13C46.89 226.46 47.71 225.9 47.91 224.88C48.11 223.86 47.62 222.76 46.81 222.44C45.99 222.11 43.76 222.11 43.56 223.13C43.35 224.15 45.25 225.81 46.07 226.14V226.13Z" fill="#C1210D"/>
<path d="M36.8098 218.4C35.9898 218.07 35.1698 218.63 34.9698 219.66C34.7598 220.68 35.2598 221.77 36.0698 222.1C36.8898 222.43 39.1198 222.43 39.3198 221.41C39.5298 220.39 37.6298 218.73 36.8098 218.4Z" fill="#C1210D"/>
<path d="M42.7802 229.01C43.2102 229.97 44.1502 230.34 44.8702 229.85C45.5902 229.36 45.8302 228.19 45.3902 227.23C44.9602 226.28 43.2802 224.26 42.5602 224.74C41.8402 225.23 42.3502 228.04 42.7802 229V229.01Z" fill="#C1210D"/>
<path d="M40.0901 215.52C39.6601 214.56 38.7201 214.19 38.0001 214.68C37.2801 215.17 37.0401 216.34 37.4801 217.3C37.9101 218.26 39.5901 220.27 40.3101 219.79C41.0301 219.3 40.5301 216.49 40.0901 215.53V215.52Z" fill="#C1210D"/>
<path d="M36.2299 223.54C35.4999 224.03 35.2699 225.2 35.6999 226.15C36.1299 227.11 37.0699 227.48 37.7899 226.99C38.5099 226.5 39.9799 224.49 39.5499 223.53C39.1199 222.57 36.9399 223.04 36.2199 223.53L36.2299 223.54Z" fill="#C1210D"/>
<path d="M46.64 220.99C47.36 220.5 47.6 219.33 47.16 218.37C46.73 217.41 45.79 217.03 45.07 217.53C44.34 218.02 42.87 220.03 43.3 220.99C43.73 221.95 45.91 221.48 46.63 220.99H46.64Z" fill="#C1210D"/>
<path d="M56.49 184.2C56.82 182.29 55.63 180.51 53.83 180.22C52.04 179.93 50.31 181.23 49.99 183.14C49.66 185.04 50.85 186.83 52.64 187.12C54.43 187.42 56.15 186.11 56.49 184.2Z" fill="#C1210D"/>
<path d="M55.9702 177.99C56.1402 176.99 55.5202 176.06 54.5802 175.9C53.6402 175.75 52.7402 176.43 52.5702 177.43C52.4002 178.43 52.7302 181.08 53.6602 181.23C54.6002 181.39 55.8002 178.98 55.9702 177.99Z" fill="#C1210D"/>
<path d="M50.4402 189.67C50.2702 190.67 50.8902 191.6 51.8302 191.76C52.7702 191.91 53.6702 191.23 53.8402 190.23C54.0102 189.23 53.6902 186.58 52.7502 186.43C51.8102 186.27 50.6102 188.67 50.4402 189.67Z" fill="#C1210D"/>
<path d="M58.66 186.58C59.6 186.73 60.5 186.05 60.67 185.05C60.85 184.06 60.22 183.12 59.29 182.97C58.36 182.82 55.83 183.24 55.66 184.23C55.49 185.23 57.73 186.43 58.67 186.58H58.66Z" fill="#C1210D"/>
<path d="M47.7598 181.08C46.8198 180.93 45.9198 181.61 45.7498 182.61C45.5698 183.61 46.1898 184.54 47.1298 184.69C48.0698 184.85 50.5898 184.43 50.7598 183.43C50.9298 182.44 48.6998 181.23 47.7598 181.08Z" fill="#C1210D"/>
<path d="M55.1101 189.9C55.6501 190.72 56.7301 190.89 57.5201 190.3C58.3101 189.7 58.5101 188.56 57.9601 187.75C57.4201 186.94 55.4101 185.36 54.6201 185.95C53.8301 186.55 54.5701 189.09 55.1101 189.9Z" fill="#C1210D"/>
<path d="M51.2998 177.75C50.7598 176.94 49.6798 176.76 48.8898 177.36C48.1098 177.96 47.8998 179.1 48.4498 179.91C48.9898 180.73 51.0098 182.3 51.7898 181.71C52.5798 181.11 51.8398 178.57 51.2998 177.75Z" fill="#C1210D"/>
<path d="M47.3998 186.01C46.6098 186.61 46.4098 187.75 46.9598 188.56C47.4998 189.38 48.5798 189.55 49.3698 188.95C50.1498 188.35 51.7098 186.19 51.1598 185.37C50.6198 184.55 48.1898 185.41 47.3998 186V186.01Z" fill="#C1210D"/>
<path d="M59.0102 181.64C59.8002 181.04 60.0002 179.9 59.4602 179.08C58.9102 178.27 57.8402 178.09 57.0502 178.69C56.2602 179.29 54.7202 181.46 55.2502 182.27C55.8002 183.09 58.2302 182.23 59.0102 181.64Z" fill="#C1210D"/>
<path d="M92.1798 223.59C92.5698 221.5 91.1698 219.52 89.1098 219.16C87.0698 218.81 85.1398 220.18 84.7698 222.22C84.3998 224.25 85.7298 226.22 87.7498 226.62C89.7998 227.03 91.7998 225.68 92.1898 223.59H92.1798Z" fill="#C1210D"/>
<path d="M91.5801 216.75C91.7801 215.66 91.0601 214.64 89.9701 214.47C88.8901 214.31 87.8701 215.05 87.6701 216.12C87.4701 217.2 87.8401 220.07 88.9201 220.25C89.9901 220.44 91.3801 217.84 91.5901 216.75H91.5801Z" fill="#C1210D"/>
<path d="M85.2702 229.24C85.0802 230.31 85.7702 231.35 86.8302 231.58C87.9002 231.81 88.9302 231.13 89.1302 230.05C89.3302 228.97 88.9602 226.07 87.8802 225.86C86.8202 225.65 85.4602 228.18 85.2702 229.24Z" fill="#C1210D"/>
<path d="M94.7501 226.3C95.8701 226.52 96.9601 225.79 97.1601 224.69C97.3701 223.59 96.6201 222.52 95.5001 222.32C94.3801 222.12 91.4201 222.5 91.2101 223.59C91.0101 224.68 93.6301 226.09 94.7501 226.31V226.3Z" fill="#C1210D"/>
<path d="M82.3202 219.96C81.2902 219.78 80.3202 220.49 80.1302 221.53C79.9402 222.57 80.6002 223.58 81.6202 223.78C82.6502 223.98 85.4402 223.62 85.6302 222.55C85.8302 221.48 83.3502 220.14 82.3202 219.96Z" fill="#C1210D"/>
<path d="M90.5701 229.77C91.2101 230.7 92.4601 230.96 93.3901 230.36C94.3201 229.74 94.5601 228.49 93.9101 227.56C93.2701 226.63 90.9201 224.81 90.0101 225.42C89.1001 226.04 89.9501 228.85 90.5701 229.77Z" fill="#C1210D"/>
<path d="M86.25 216.46C85.64 215.58 84.44 215.39 83.57 216.02C82.71 216.64 82.4801 217.86 83.0801 218.73C83.6801 219.61 85.9101 221.34 86.7901 220.72C87.6801 220.09 86.86 217.33 86.25 216.45V216.46Z" fill="#C1210D"/>
<path d="M81.9202 225.19C81.0602 225.79 80.8402 226.99 81.4302 227.88C82.0202 228.78 83.2102 229.02 84.0702 228.43C84.9402 227.83 86.6802 225.57 86.0802 224.67C85.4702 223.77 82.7902 224.59 81.9202 225.19Z" fill="#C1210D"/>
<path d="M95.1702 220.84C96.1202 220.19 96.3502 218.92 95.7002 218.01C95.0502 217.1 93.7802 216.89 92.8502 217.54C91.9302 218.19 90.1302 220.53 90.7502 221.43C91.3802 222.34 94.2402 221.47 95.1702 220.84Z" fill="#C1210D"/>
<path d="M133.3 177.93C133.23 175.67 131.64 173.86 129.8 173.89C127.98 173.92 126.58 175.73 126.66 177.94C126.74 180.14 128.26 181.94 130.08 181.96C131.92 181.99 133.37 180.19 133.3 177.93Z" fill="#C1210D"/>
<path d="M131.45 170.88C131.41 169.7 130.59 168.77 129.62 168.8C128.66 168.84 127.93 169.81 127.97 170.98C128.01 172.14 128.89 175.08 129.84 175.07C130.8 175.07 131.49 172.07 131.45 170.88Z" fill="#C1210D"/>
<path d="M128.46 185.2C128.5 186.36 129.3 187.32 130.26 187.35C131.22 187.38 131.97 186.47 131.94 185.3C131.9 184.13 131.01 181.16 130.05 181.15C129.09 181.14 128.42 184.05 128.47 185.2H128.46Z" fill="#C1210D"/>
<path d="M136.03 180.27C137.04 180.27 137.83 179.31 137.79 178.11C137.76 176.91 136.9 175.94 135.89 175.95C134.89 175.95 132.41 176.94 132.45 178.12C132.49 179.3 135.02 180.27 136.02 180.28L136.03 180.27Z" fill="#C1210D"/>
<path d="M124.11 176.04C123.19 176.04 122.49 176.98 122.54 178.11C122.58 179.24 123.35 180.17 124.26 180.18C125.18 180.18 127.51 179.27 127.47 178.11C127.43 176.95 125.04 176.03 124.11 176.04Z" fill="#C1210D"/>
<path d="M133.12 184.72C133.85 185.57 134.98 185.6 135.66 184.78C136.34 183.96 136.3 182.59 135.56 181.74C134.83 180.89 132.45 179.44 131.79 180.26C131.13 181.08 132.41 183.87 133.12 184.71V184.72Z" fill="#C1210D"/>
<path d="M126.81 171.61C126.12 170.81 125.05 170.84 124.42 171.68C123.8 172.5 123.85 173.81 124.53 174.62C125.22 175.42 127.47 176.8 128.11 175.99C128.76 175.16 127.51 172.43 126.81 171.62V171.61Z" fill="#C1210D"/>
<path d="M124.79 181.61C124.16 182.41 124.22 183.7 124.89 184.52C125.57 185.34 126.64 185.37 127.27 184.58C127.91 183.78 128.96 181.08 128.26 180.25C127.56 179.43 125.41 180.81 124.79 181.61Z" fill="#C1210D"/>
<path d="M135.33 174.46C136.02 173.6 135.98 172.22 135.23 171.39C134.5 170.57 133.36 170.59 132.69 171.46C132.02 172.32 130.94 175.12 131.65 175.94C132.37 176.77 134.66 175.3 135.33 174.46Z" fill="#C1210D"/>
<path d="M97.3598 181.31C97.2698 179.04 95.2798 177.2 92.9598 177.18C90.6798 177.16 88.9198 178.93 89.0298 181.14C89.1298 183.34 91.0398 185.18 93.3098 185.26C95.6198 185.34 97.4398 183.58 97.3598 181.32V181.31Z" fill="#C1210D"/>
<path d="M95.0401 174.21C94.9901 173.03 93.9601 172.07 92.7401 172.08C91.5401 172.09 90.6101 173.04 90.6601 174.21C90.7101 175.37 91.8101 178.34 93.0101 178.35C94.2201 178.37 95.0801 175.4 95.0301 174.21H95.0401Z" fill="#C1210D"/>
<path d="M91.29 188.45C91.34 189.61 92.35 190.59 93.54 190.65C94.74 190.71 95.69 189.81 95.64 188.64C95.58 187.47 94.4799 184.48 93.2699 184.44C92.0699 184.4 91.23 187.3 91.28 188.45H91.29Z" fill="#C1210D"/>
<path d="M100.79 183.73C102.05 183.77 103.04 182.82 103 181.62C102.96 180.42 101.88 179.42 100.62 179.4C99.3602 179.38 96.2602 180.29 96.3102 181.47C96.3602 182.65 99.5302 183.7 100.79 183.73Z" fill="#C1210D"/>
<path d="M85.8298 179.17C84.6798 179.15 83.7998 180.06 83.8598 181.2C83.9098 182.33 84.8798 183.28 86.0198 183.32C87.1798 183.35 90.0898 182.5 90.0398 181.34C89.9898 180.18 86.9898 179.2 85.8298 179.17Z" fill="#C1210D"/>
<path d="M97.1402 188.1C98.0502 188.97 99.4802 189.03 100.32 188.23C101.17 187.43 101.12 186.06 100.19 185.19C99.2702 184.32 96.2902 182.8 95.4602 183.6C94.6402 184.41 96.2302 187.22 97.1302 188.09L97.1402 188.1Z" fill="#C1210D"/>
<path d="M89.2101 174.81C88.3401 173.99 87.0001 173.99 86.2201 174.81C85.4401 175.62 85.5001 176.93 86.3601 177.75C87.2201 178.57 90.0501 180.02 90.8501 179.21C91.6601 178.4 90.0901 175.63 89.2201 174.81H89.2101Z" fill="#C1210D"/>
<path d="M86.6802 184.75C85.8902 185.53 85.9602 186.83 86.8102 187.67C87.6602 188.51 89.0002 188.57 89.7902 187.79C90.5902 187.01 91.9102 184.33 91.0302 183.49C90.1602 182.65 87.4602 183.97 86.6802 184.75Z" fill="#C1210D"/>
<path d="M99.9 177.9C100.77 177.06 100.71 175.68 99.78 174.83C98.86 173.98 97.44 173.98 96.59 174.83C95.75 175.67 94.39 178.44 95.28 179.28C96.19 180.13 99.05 178.73 99.9 177.9Z" fill="#C1210D"/>
<path d="M104.43 122.88C103.77 120.76 101.58 119.31 99.58 119.62C97.6 119.93 96.55 121.85 97.2 123.91C97.85 125.96 99.97 127.43 101.95 127.17C103.96 126.91 105.09 124.99 104.43 122.88Z" fill="#C1210D"/>
<path d="M100.61 116.53C100.27 115.43 99.1299 114.67 98.0799 114.86C97.0499 115.04 96.4899 116.07 96.8299 117.16C97.1699 118.25 98.8799 120.87 99.9199 120.72C100.97 120.56 100.95 117.64 100.6 116.53H100.61Z" fill="#C1210D"/>
<path d="M101.03 130.47C101.37 131.55 102.49 132.33 103.54 132.21C104.6 132.09 105.18 131.11 104.84 130.02C104.49 128.93 102.77 126.27 101.72 126.41C100.67 126.54 100.69 129.39 101.03 130.47Z" fill="#C1210D"/>
<path d="M108.02 124.66C109.12 124.51 109.73 123.48 109.38 122.36C109.03 121.24 107.85 120.46 106.76 120.62C105.67 120.79 103.23 122.09 103.57 123.19C103.92 124.29 106.92 124.82 108.02 124.67V124.66Z" fill="#C1210D"/>
<path d="M93.93 122.53C92.93 122.68 92.41 123.66 92.75 124.72C93.08 125.78 94.16 126.53 95.15 126.4C96.16 126.26 98.45 125.04 98.12 123.96C97.78 122.88 94.94 122.38 93.93 122.53Z" fill="#C1210D"/>
<path d="M105.98 129.3C106.99 129.99 108.24 129.84 108.76 128.97C109.29 128.09 108.9 126.81 107.87 126.13C106.86 125.44 103.9 124.45 103.38 125.32C102.88 126.2 104.98 128.62 105.97 129.3H105.98Z" fill="#C1210D"/>
<path d="M95.7402 117.94C94.7802 117.29 93.6302 117.49 93.1602 118.37C92.7002 119.24 93.0802 120.47 94.0302 121.12C94.9902 121.77 97.8002 122.72 98.2802 121.85C98.7702 120.97 96.7002 118.59 95.7402 117.94Z" fill="#C1210D"/>
<path d="M96.1002 127.66C95.6202 128.51 96.0102 129.72 96.9602 130.38C97.9202 131.05 99.0802 130.92 99.5702 130.07C100.06 129.22 100.51 126.51 99.5402 125.84C98.5702 125.17 96.5802 126.8 96.1102 127.65L96.1002 127.66Z" fill="#C1210D"/>
<path d="M105.76 119.31C106.29 118.39 105.89 117.11 104.87 116.44C103.85 115.78 102.63 115.98 102.11 116.9C101.6 117.81 101.14 120.62 102.12 121.28C103.12 121.95 105.24 120.22 105.75 119.32L105.76 119.31Z" fill="#C1210D"/>
<path d="M72.82 140.93C67.73 150.15 52.77 165.16 47.2 157.64C41.63 150.12 57.23 119.49 61.96 117.82C66.69 116.15 81.73 124.78 72.82 140.93Z" fill="url(#paint2_linear_1_27621)"/>
<path d="M97.0999 87.2598H79.1099V103.98C84.5299 107.46 91.6699 107.46 97.0999 103.98V87.2598Z" fill="url(#paint3_linear_1_27621)"/>
<path d="M98.3799 103.64C103.02 102.32 137.61 87.16 148.03 106.95C158.55 126.94 135.33 156.11 134.18 157.47L130.78 154.58C130.78 154.58 144.83 122.45 134.89 115.59C128.07 110.88 119.05 119.72 119.05 119.72C111.9 111.79 107.31 107.62 98.3899 103.65L98.3799 103.64Z" fill="url(#paint4_linear_1_27621)"/>
<path d="M112.37 141.29C109.21 144.56 91 141.82 87.74 137.63C85.75 135.07 86.59 128.31 90.85 128.46C92.8 128.53 96.77 131.96 100.82 134.59C107.1 138.66 116.36 137.14 112.37 141.29Z" fill="#69B75C"/>
<path d="M90.8502 128.47C86.6002 128.31 85.7502 135.07 87.7402 137.64C88.1002 138.11 88.6702 138.55 89.3602 138.97C90.5202 137.92 91.5302 136.5 92.2002 134.78C92.9502 132.86 93.1402 130.92 92.8802 129.22C92.0802 128.78 91.3802 128.49 90.8402 128.47H90.8502Z" fill="#82CE72"/>
<path d="M105.3 148.23C101.77 143.04 108 135.53 119.87 131.04C129.5 127.4 136.38 122.2 140.95 127.51C145.96 133.33 137.71 140.66 130.15 148.15C119.43 158.77 110.13 155.33 105.29 148.22L105.3 148.23Z" fill="#69B75C"/>
<path d="M108.13 144.5C105.65 140.86 110.02 135.6 118.35 132.46C125.1 129.91 129.92 126.27 133.13 129.99C136.64 134.07 130.86 139.2 125.56 144.45C118.05 151.89 111.53 149.48 108.14 144.5H108.13Z" fill="#82CE72"/>
<path d="M92.9102 282.52H105.82L106.52 280.98L99.4902 275.97L94.2202 275.05L92.9702 279.53L92.9102 282.52Z" fill="#454545"/>
<path d="M88.4699 282.52H74.6699L73.9199 280.98L81.4299 275.97L87.0699 275.05L88.4099 279.53L88.4699 282.52Z" fill="#454545"/>
<path d="M114.92 151.38C113.18 155.58 95.1999 159.72 90.6399 157.01C87.8499 155.35 86.17 148.75 90.19 147.34C92.03 146.69 96.98 148.42 101.72 149.38C109.06 150.87 117.13 146.06 114.93 151.38H114.92Z" fill="#69B75C"/>
<path d="M90.19 147.33C86.17 148.74 87.8499 155.34 90.6399 157C91.1499 157.3 91.8399 157.5 92.6399 157.65C93.3399 156.25 93.76 154.55 93.76 152.71C93.76 150.64 93.22 148.77 92.36 147.29C91.45 147.17 90.7 147.16 90.19 147.34V147.33Z" fill="#82CE72"/>
<path d="M141.25 130.32C145.23 136.3 145.4 160.21 142.35 161.22C139.3 162.23 135.52 160.33 135.63 158.52C135.75 156.71 139.68 127.97 141.25 130.32Z" fill="#69B75C"/>
<path d="M137.72 126.34C133.2 122.17 113.12 119.26 111.88 121.81C110.64 124.36 111.75 127.89 113.29 128C114.83 128.11 139.5 127.97 137.72 126.34Z" fill="#69B75C"/>
<path d="M158.23 131.77C162.35 126.79 160.21 118.23 153.46 112.64C146.71 107.05 137.89 106.55 133.77 111.53C129.65 116.5 128.71 124.89 135.46 130.48C142.21 136.07 154.1 136.75 158.22 131.77H158.23Z" fill="#69B75C"/>
<path d="M147.85 107.21C147.44 102.85 144.62 99.5402 141.55 99.8202C138.47 100.1 136.31 103.86 136.72 108.23C137.13 112.59 139.95 115.9 143.02 115.62C146.09 115.34 148.26 111.58 147.85 107.21Z" fill="#69B75C"/>
<path d="M161.21 129.69C165.49 128.78 168.45 125.6 167.82 122.58C167.18 119.56 163.2 117.85 158.91 118.75C154.62 119.66 151.66 122.84 152.3 125.87C152.93 128.89 156.92 130.6 161.21 129.7V129.69Z" fill="#69B75C"/>
<path d="M165.37 122.91C164.93 120.78 162.12 119.57 159.1 120.21C158.98 120.23 158.87 120.28 158.75 120.31C159.62 121.62 159.82 123.65 159.11 125.69C158.8 126.58 158.34 127.34 157.81 127.98C158.69 128.14 159.66 128.15 160.67 127.94C163.7 127.3 165.81 125.05 165.37 122.91Z" fill="#82CE72"/>
<path d="M142.69 102.08C144.85 102.38 146.23 105.06 145.77 108.08C145.76 108.2 145.72 108.31 145.69 108.42C144.33 107.65 142.28 107.58 140.3 108.4C139.43 108.76 138.7 109.26 138.09 109.82C137.87 108.96 137.81 108.01 137.96 107C138.42 103.98 140.53 101.77 142.69 102.07V102.08Z" fill="#82CE72"/>
<path d="M76.0202 104.17C75.8802 106.12 78.6702 114.47 81.8702 114.33C85.0702 114.19 88.9702 106.53 88.9702 106.53L78.5302 101.94L76.0202 104.17Z" fill="#C1210D"/>
<path d="M100.49 102.92C100.63 104.87 99.26 113.49 95.99 113.35C92.72 113.21 87.71 106.28 87.71 106.28L97.45 102.09L100.49 102.92Z" fill="#C1210D"/>
<path d="M165.66 62.5701L158.32 61.1501L164.24 58.7801L158.56 37.2401C144.83 38.6601 134.42 52.3901 134.42 52.3901C130.87 37.0101 116.59 7.82012 107.83 4.50012C99.0801 1.19012 94.1101 7.10012 94.1101 7.10012C94.1101 7.10012 93.6401 1.89012 85.59 0.24012C66.5301 -3.67988 33.8401 40.5501 33.8401 40.5501C26.2701 29.1901 9.94006 24.4601 9.94006 24.4601L1.88006 35.3501L9.93006 40.5501L1.64006 38.6601C-1.90994 49.5501 1.40006 60.2001 1.40006 60.2001L9.68006 60.9101L4.00006 63.0401C4.24006 73.4501 12.2801 80.5501 12.2801 80.5501C26.4801 76.5301 33.3401 67.3001 33.3401 67.3001C38.3101 81.5001 57.0101 91.9101 66.2401 94.2801L98.1901 95.2201C123.51 91.9101 134.4 75.3401 134.4 75.3401C137.71 82.9101 152.62 86.4601 152.62 86.4601L159.96 76.9901L155.94 74.6201L161.86 75.3301L165.65 62.5501L165.66 62.5701Z" fill="black"/>
<path d="M131.81 61.1502C131.81 38.8002 111.26 19.4902 85.9002 19.4902C60.5402 19.4902 41.4102 35.7202 41.4102 58.0702C41.4102 80.4202 51.4902 98.4102 83.2802 98.4102C115.07 98.4102 131.82 83.5002 131.82 61.1502H131.81Z" fill="url(#paint5_linear_1_27621)"/>
<path d="M48.5099 83.86C41.6999 85.9 30.0599 79.38 32.0499 72.13C34.3799 63.65 48.9099 74.77 48.5099 83.86Z" fill="url(#paint6_linear_1_27621)"/>
<path d="M123.86 82.7802C131.11 84.3002 143.19 76.8002 140.87 69.6402C138.17 61.2702 123.18 73.6402 123.86 82.7802Z" fill="url(#paint7_linear_1_27621)"/>
<path d="M123.07 80.7801C123.07 80.7801 135.46 56.9701 125.44 36.6401C125.44 36.6401 134.88 49.7101 134.77 59.0601C134.64 69.5901 123.07 80.7801 123.07 80.7801Z" fill="black"/>
<path d="M48.7301 80.7801C48.7301 80.7801 36.6301 56.9701 46.4201 36.6401C46.4201 36.6401 37.2001 49.7101 37.3101 59.0601C37.4401 69.5901 48.7301 80.7801 48.7301 80.7801Z" fill="black"/>
<path d="M134.11 146.96C136.05 146.49 137.21 145.87 137.08 145.16C136.95 144.45 135.79 145.07 133.98 145.29C132.29 145.49 131.53 145.67 131.31 144.91C131.19 144.54 132.36 144.29 133.97 143.57C135.76 142.77 136.68 141.83 136.41 141.23C136 140.35 135.43 141.34 133.19 141.93C130.04 142.76 129.8 143.61 127.55 142.77C125.27 141.91 130.93 136.49 129.04 136.52C127.78 136.55 121.74 143 119.45 146.59C111.82 151.3 91.14 163.43 87.75 158.86C83.57 153.24 81.3 125.18 74.58 118.64C69.42 113.62 60.95 114.41 58.23 122.97C55.51 131.53 62.34 169.94 78.54 177.29C92.48 183.62 116.96 157.3 123.51 149.85C124.96 149.62 126.74 149.44 128.88 149.75C129.64 149.69 130.78 149.66 131.88 149.6C133.72 149.51 135.5 148.71 135.38 148C135.27 147.42 133.97 148.03 132.67 148.08C131.47 148.13 131.06 148.18 131.03 147.89C131 147.69 132.53 147.37 134.13 146.96H134.11Z" fill="url(#paint8_linear_1_27621)"/>
<path d="M133 162.89C132.74 163.65 132.41 164.82 132.07 165.93C131.51 167.79 130.26 169.42 129.61 169.12C129.07 168.86 130.01 167.68 130.39 166.36C130.75 165.14 130.91 164.73 130.64 164.62C130.46 164.54 129.75 166.02 128.93 167.56C127.97 169.43 127.07 170.47 126.41 170.14C125.76 169.82 126.67 168.79 127.34 166.98C127.97 165.29 128.35 164.56 127.67 164.14C127.34 163.92 126.8 165.05 125.68 166.53C124.44 168.16 123.29 168.86 122.78 168.43C122.04 167.78 123.14 167.45 124.3 165.3C125.93 162.28 126.81 162.25 126.59 159.72C126.36 157.15 119.63 161.57 120.15 159.63C120.59 158.05 132.32 151.54 134.46 151.98C137.94 153.62 133.76 156.04 132.98 162.89H133Z" fill="url(#paint9_linear_1_27621)"/>
<path d="M145.49 130.47C148.18 128.2 147.65 123.77 144.29 120.58C140.94 117.4 136.04 116.66 133.34 118.93C130.65 121.2 131.18 125.63 134.53 128.81C137.88 131.99 142.78 132.74 145.48 130.46L145.49 130.47Z" fill="#82CE72"/>
<path d="M142.5 123.41C143.58 122.51 143.36 120.74 142 119.46C140.64 118.18 138.66 117.88 137.58 118.79C136.5 119.69 136.72 121.46 138.08 122.74C139.44 124.02 141.42 124.32 142.5 123.41Z" fill="#707070"/>
<path d="M142.02 114.53C142.51 113.91 142.43 113.02 141.86 112.55C141.29 112.08 140.43 112.2 139.95 112.82C139.46 113.44 139.53 114.33 140.11 114.8C140.68 115.27 141.54 115.15 142.02 114.53Z" fill="#707070"/>
<path d="M151.39 124.98C151.88 124.36 151.81 123.48 151.23 123C150.66 122.53 149.81 122.65 149.32 123.27C148.83 123.89 148.9 124.78 149.47 125.25C150.04 125.72 150.9 125.6 151.38 124.98H151.39Z" fill="#707070"/>
<path d="M65.1002 76.1999L64.2202 76.2399C64.2202 76.2399 86.0902 89.7699 111.65 74.3999L110.52 74.4399C90.1302 84.1099 72.3502 79.1099 65.1002 76.1999Z" fill="#FF6058"/>
<path d="M84.7 74.1501H88.07C88.56 74.1501 88.95 73.7601 88.95 73.2701C88.95 72.7801 88.56 72.3901 88.07 72.3901H84.7C84.39 72.3901 84.11 72.2601 83.91 72.0401C83.71 71.8101 83.61 71.5201 83.64 71.2201L84.42 63.6901C84.47 63.2001 84.12 62.7701 83.63 62.7201C83.15 62.6701 82.71 63.0201 82.66 63.5101L81.88 71.0401C81.8 71.8401 82.06 72.6301 82.59 73.2301C83.13 73.8201 83.89 74.1701 84.69 74.1701L84.7 74.1501Z" fill="#F48073"/>
<path d="M103.501 63.1712C105.431 62.7177 106.628 60.7855 106.174 58.8553C105.721 56.9251 103.789 55.728 101.859 56.1814C99.9285 56.6349 98.7313 58.5671 99.1848 60.4973C99.6382 62.4275 101.57 63.6246 103.501 63.1712Z" fill="#2B232A"/>
<path d="M67.2 63.2583C69.1694 63.0297 70.5807 61.2478 70.3521 59.2784C70.1236 57.3089 68.3417 55.8976 66.3722 56.1262C64.4027 56.3547 62.9914 58.1366 63.22 60.1061C63.4486 62.0756 65.2305 63.4869 67.2 63.2583Z" fill="#2B232A"/>
<path d="M115.17 48.6498L92.5801 46.4798C92.5801 46.4798 94.7401 40.2398 104.48 41.2498C114.45 42.2898 115.17 48.6498 115.17 48.6498Z" fill="#2B232A"/>
<path d="M54.46 48.6498L77.05 46.4798C77.05 46.4798 74.89 40.2398 65.15 41.2498C55.18 42.2898 54.46 48.6498 54.46 48.6498Z" fill="#2B232A"/>
</g>
<defs>
<linearGradient id="paint0_linear_1_27621" x1="94.0598" y1="248.6" x2="123.16" y2="248.6" gradientUnits="userSpaceOnUse">
<stop stop-color="#F7C3AF"/>
<stop offset="1" stop-color="#F79480"/>
</linearGradient>
<linearGradient id="paint1_linear_1_27621" x1="54.54" y1="248.94" x2="87.32" y2="248.94" gradientUnits="userSpaceOnUse">
<stop stop-color="#F7C3AF"/>
<stop offset="1" stop-color="#F79480"/>
</linearGradient>
<linearGradient id="paint2_linear_1_27621" x1="46.01" y1="138.64" x2="75.58" y2="138.64" gradientUnits="userSpaceOnUse">
<stop stop-color="#F7C3AF"/>
<stop offset="1" stop-color="#F79480"/>
</linearGradient>
<linearGradient id="paint3_linear_1_27621" x1="88.9799" y1="104.33" x2="88.5599" y2="100.1" gradientUnits="userSpaceOnUse">
<stop stop-color="#F7C3AF"/>
<stop offset="1" stop-color="#F79480"/>
</linearGradient>
<linearGradient id="paint4_linear_1_27621" x1="98.3799" y1="127.16" x2="150.76" y2="127.16" gradientUnits="userSpaceOnUse">
<stop stop-color="#F7C3AF"/>
<stop offset="1" stop-color="#F79480"/>
</linearGradient>
<linearGradient id="paint5_linear_1_27621" x1="90.1102" y1="38.1002" x2="77.8202" y2="114.15" gradientUnits="userSpaceOnUse">
<stop stop-color="#F7C3AF"/>
<stop offset="1" stop-color="#F79480"/>
</linearGradient>
<linearGradient id="paint6_linear_1_27621" x1="31.8299" y1="76.67" x2="48.5199" y2="76.67" gradientUnits="userSpaceOnUse">
<stop stop-color="#F7C3AF"/>
<stop offset="1" stop-color="#F79480"/>
</linearGradient>
<linearGradient id="paint7_linear_1_27621" x1="123.84" y1="74.9202" x2="141.16" y2="74.9202" gradientUnits="userSpaceOnUse">
<stop stop-color="#F7C3AF"/>
<stop offset="1" stop-color="#F79480"/>
</linearGradient>
<linearGradient id="paint8_linear_1_27621" x1="57.63" y1="146.89" x2="137.08" y2="146.89" gradientUnits="userSpaceOnUse">
<stop stop-color="#F7C3AF"/>
<stop offset="1" stop-color="#F79480"/>
</linearGradient>
<linearGradient id="paint9_linear_1_27621" x1="120.14" y1="161.08" x2="135.84" y2="161.08" gradientUnits="userSpaceOnUse">
<stop stop-color="#F7C3AF"/>
<stop offset="1" stop-color="#F79480"/>
</linearGradient>
<clipPath id="clip0_1_27621">
<rect width="167.9" height="282.52" fill="white"/>
</clipPath>
</defs>
</svg>
