<svg width="548" height="566" viewBox="0 0 548 566" fill="none" xmlns="http://www.w3.org/2000/svg">
<g clip-path="url(#clip0_1_29561)">
<path d="M281.649 279.171C280.505 279.408 258.174 285.837 253.449 287.045C252.694 287.239 247.279 293.97 249.005 294.768C250.731 295.566 265.834 296.127 270.343 294.984C273.256 294.25 275.586 291.273 275.586 291.273C275.586 291.273 283.094 292.373 284.799 292.589C286.266 291.446 286.395 283.227 281.627 279.192L281.649 279.171Z" fill="url(#paint0_linear_1_29561)"/>
<path d="M412.505 115.586C417.64 111.94 442.84 102.34 461.309 107.388C464.071 114.917 464.675 118.369 464.675 118.369L412.483 126.825V115.586H412.505Z" fill="#B8B8B8"/>
<path d="M407.758 124.992C416.41 118.304 432.16 110.646 443.034 110.473C453.93 110.301 458.008 110.624 469.054 118.369C480.101 126.092 435.159 166.972 435.159 166.972L399.171 154.093L407.758 124.992Z" fill="#401C00"/>
<path d="M365.082 565.935C365.082 565.935 404.522 565.504 404.522 565.935C404.522 566.367 403.767 564.619 403.767 564.619C403.767 564.619 390.67 553.509 389.138 553.251C387.628 552.992 385.125 555.408 384.133 555.818C383.14 556.228 367.088 562.548 366.333 563.217C365.578 563.886 365.06 565.914 365.06 565.914L365.082 565.935Z" fill="#454545"/>
<path d="M523.879 565.935C523.879 565.935 495.442 565.504 495.442 565.935C495.442 566.367 496.024 564.619 496.024 564.619C496.024 564.619 499.433 558.212 502.583 556.379C503.619 555.775 508.905 555.516 509.682 555.904C510.459 556.292 522.304 562.548 522.908 563.217C523.49 563.886 523.9 565.914 523.9 565.914L523.879 565.935Z" fill="#454545"/>
<path d="M365.966 349.347C365.966 374.133 384.327 475.481 387.326 504.302C390.843 537.913 384.154 555.818 384.154 555.818C384.154 555.818 387.477 554.674 388.426 554.674C389.376 554.674 403.767 564.619 403.767 564.619C403.767 564.619 409.398 509.825 412.246 473.54C414.662 442.691 419.128 405.435 419.128 405.435C419.128 405.435 437.468 438.161 457.77 480.637C462.668 490.884 496.002 564.598 496.002 564.598L509.638 555.882C509.638 555.882 502.389 533.059 499.8 522.639C482.302 452.356 479.389 404.68 478.483 385.804C478.203 379.678 474.966 349.756 474.966 349.756C469.421 330.773 437.015 334.828 415.353 333.857C383.356 332.412 365.923 328.033 365.923 349.325L365.966 349.347Z" fill="url(#paint1_linear_1_29561)"/>
<path d="M403.659 346.758L407.262 382.353C407.262 382.353 420.099 381.231 409.247 349.8L403.637 346.758H403.659Z" fill="url(#paint2_linear_1_29561)"/>
<path d="M459.41 56.024C459.41 56.024 457.943 94.1212 459.022 108.489C459.691 117.333 489.487 130.773 489.487 142.875C457.425 145.27 380.854 165.073 380.854 151.871C380.854 138.669 412.397 130.622 413.8 119.9C415.202 109.179 417.144 89.6988 417.144 89.6988L445.947 85.0391L459.41 56.0024V56.024Z" fill="url(#paint3_linear_1_29561)"/>
<path d="M175.453 360.758C175.453 360.758 160.846 364.361 160.372 385.481C159.897 406.6 159.595 414.474 159.595 414.474L131.935 413.762C131.935 413.762 142.248 378.513 151.634 365.936C161.019 353.359 169.455 349.282 179.294 350.231L175.432 360.758H175.453Z" fill="#99E6FC"/>
<path d="M291.099 302.167L285.942 295.113C277.031 282.903 260.03 279.689 247.278 287.8C234.57 295.868 230.255 312.026 237.203 325.358L239.36 329.5C235.174 331.7 232.434 333.124 232.175 333.167L250.062 365.893L188.183 354.438L182.4 359.529L262.338 388.156L274.226 410.505C286.136 404.227 334.746 380.066 334.746 380.066L291.099 302.167ZM245.056 326.458L242.92 322.359C237.526 312.026 240.892 299.492 250.73 293.236C260.634 286.959 273.795 289.439 280.699 298.91L285.122 304.972C275.866 309.955 257.527 319.814 245.035 326.436L245.056 326.458Z" fill="url(#paint4_linear_1_29561)"/>
<path d="M188.183 354.438L181.193 353.165L183.307 347.017L179.92 345.852L173.771 363.671L177.158 364.814L179.359 358.429L184.472 360.284L188.183 354.438Z" fill="black"/>
<path d="M376.344 150.943C376.732 167.727 351.079 210.397 351.079 210.397C351.079 210.397 345.469 236.349 349.935 247.545C354.639 259.346 360.076 275.913 394.683 275.137C397.423 273.152 423.616 223.751 424.544 170.941C425.256 129.824 376.042 138.086 376.344 150.965V150.943Z" fill="#E1EFFF"/>
<path d="M394.727 265.084C377.488 289.828 385.989 309.459 292.091 298.824C290.473 298.629 288.833 295.544 287.194 295.264C285.834 295.027 285.058 294.25 283.655 293.991C284.799 283.032 286.439 277.1 286.439 277.1C286.439 277.1 290.322 277.467 291.271 276.517C294.982 271.836 310.323 269.334 321.607 255.139C339.666 232.445 352.74 227.332 366.506 232.402C381.177 237.795 395.396 253.133 394.727 265.106V265.084Z" fill="#E1EFFF"/>
<path d="M283.784 294.897C284.604 295.221 289.265 296.731 290.106 297.076C290.948 297.4 294.464 293.84 295.176 288.663C295.888 283.507 294.508 278.675 292.609 277.574C290.71 276.474 287.754 276.41 286.632 276.604C285.511 276.798 284.13 280.961 283.526 286.333C282.921 291.705 282.814 294.487 283.784 294.897Z" fill="#C2D8F0"/>
<path d="M284.324 293.517C285.036 293.926 287.539 293.301 288.639 287.304C289.761 281.307 287.301 278.286 286.762 278.179C286.223 278.092 285.165 278.459 284.13 285.513C283.094 292.567 283.849 293.236 284.324 293.517Z" fill="#ADADAD"/>
<path d="M426.529 131.83V136.9L421.48 137.18L422.537 131.183L414.598 136.9L425.278 139.618L433.563 134.03L426.529 131.83Z" fill="#B8B8B8"/>
<path d="M407.758 124.992C412.483 143.242 433.39 132.564 433.39 132.564L469.076 118.347C469.076 118.347 489.724 132.65 494.73 136.749C499.735 140.847 509.423 171.329 499.304 198.101C489.185 224.894 477.361 256.951 474.966 288.167C473.348 309.114 475.009 349.778 475.009 349.778C475.009 349.778 434.706 350.576 403.68 350.231C379.472 349.972 365.988 349.346 365.988 349.346C365.988 349.346 365.232 263.79 369.785 241.354C371.468 230.395 360.076 214.777 363.873 200.431C367.671 186.085 377.423 151.547 383.313 142.53L407.78 124.97L407.758 124.992Z" fill="#9DA6C4"/>
<path d="M475.01 349.843L475.549 354.891L365.966 356.056V349.39L475.01 349.843Z" fill="#707070"/>
<path d="M441.028 349.713H437.813L437.511 359.076H441.114L441.028 349.713Z" fill="url(#paint5_linear_1_29561)"/>
<path d="M396.668 348.117H408.297L408.19 357.458L396.172 356.897V355.473L406.118 355.667L406.852 350.037L396.215 349.541L396.668 348.117Z" fill="url(#paint6_linear_1_29561)"/>
<path d="M400.099 351.914L409.765 351.741V352.626L400.099 353.726C400.099 353.726 398.912 352.906 400.099 351.914Z" fill="url(#paint7_linear_1_29561)"/>
<path d="M422.537 131.183L405.622 148.204L400.293 130.644L412.505 115.586L422.537 131.183Z" fill="#CFDDF1"/>
<path d="M426.529 131.83C426.529 131.83 442.97 141.408 447.026 147.794C474.363 135.109 473.133 119.512 473.133 119.512L461.309 107.367C461.309 107.367 449.141 125.056 426.529 131.83Z" fill="#CFDDF1"/>
<path d="M464.696 59.8855C464.696 59.8855 471.039 54.9454 475.743 60.8131C480.878 67.2202 470.435 85.9452 459.647 77.5966L464.696 59.8855Z" fill="#FFC2B3"/>
<path d="M463.553 74.3391C463.812 74.3391 464.071 74.1881 464.2 73.9508C467.825 66.8966 472.507 66.6162 472.572 66.6162C472.981 66.6162 473.284 66.271 473.262 65.8611C473.262 65.4512 472.917 65.1492 472.507 65.1708C472.291 65.1708 466.919 65.4944 462.906 73.3037C462.733 73.6704 462.862 74.1018 463.229 74.2744C463.337 74.3391 463.445 74.3607 463.553 74.3607V74.3391Z" fill="#F48073"/>
<path d="M398.093 59.8855C398.093 59.8855 391.749 54.9454 387.046 60.8131C381.911 67.2202 392.353 85.9452 403.141 77.5966L398.093 59.8855Z" fill="#FFC2B3"/>
<path d="M399.236 74.3391C399.344 74.3391 399.452 74.3176 399.56 74.2528C399.926 74.0803 400.056 73.6272 399.883 73.2821C395.87 65.4728 390.519 65.1708 390.282 65.1492C389.872 65.1061 389.548 65.4512 389.527 65.8395C389.527 66.2278 389.829 66.573 390.217 66.5946C390.411 66.5946 395.007 66.9397 398.589 73.9293C398.718 74.1881 398.977 74.3176 399.236 74.3176V74.3391Z" fill="#F48073"/>
<path d="M430.283 84.241C452.816 84.241 471.083 66.4309 471.083 44.4611C471.083 22.4913 452.816 4.68125 430.283 4.68125C407.75 4.68125 389.484 22.4913 389.484 44.4611C389.484 66.4309 407.75 84.241 430.283 84.241Z" fill="#878787"/>
<path d="M464.761 40.0172C464.761 40.0172 471.126 104.692 431.686 104.735C388.318 104.778 395.503 40.0172 395.503 40.0172C395.503 40.0172 395.74 12.3611 430.434 12.3611C462.258 12.3611 464.761 40.0172 464.761 40.0172Z" fill="url(#paint8_linear_1_29561)"/>
<path d="M424.889 77.0573H427.651C428.061 77.0573 428.384 76.7337 428.384 76.3238C428.384 75.9139 428.061 75.5904 427.651 75.5904H424.889C424.63 75.5904 424.415 75.4825 424.242 75.3099C424.069 75.1158 424.005 74.8785 424.026 74.6412L424.673 65.3218C424.695 64.9119 424.393 64.5668 424.005 64.5452C423.595 64.5236 423.249 64.8256 423.228 65.2139L422.581 74.4901C422.516 75.1158 422.732 75.7629 423.163 76.2591C423.595 76.7553 424.242 77.0357 424.889 77.0357V77.0573Z" fill="#F48073"/>
<path d="M435.44 62.992C435.44 64.6315 436.756 65.9474 438.396 65.9474C440.036 65.9474 441.352 64.6315 441.352 62.992C441.352 61.3524 440.036 60.0365 438.396 60.0365C436.756 60.0365 435.44 61.3524 435.44 62.992Z" fill="#2B232A"/>
<path d="M405.946 62.992C405.946 64.6315 407.262 65.9474 408.902 65.9474C410.541 65.9474 411.858 64.6315 411.858 62.992C411.858 61.3524 410.541 60.0365 408.902 60.0365C407.262 60.0365 405.946 61.3524 405.946 62.992Z" fill="#2B232A"/>
<path d="M425.45 84.1115C431.535 84.1115 434.598 81.0698 434.75 80.9188C435.03 80.6383 435.03 80.1637 434.75 79.8833C434.469 79.6028 434.016 79.6028 433.735 79.8833C433.584 80.0343 429.895 83.6369 422.344 82.3641C421.955 82.2994 421.567 82.5583 421.502 82.9682C421.437 83.3565 421.696 83.7448 422.106 83.8095C423.314 84.0037 424.436 84.1115 425.472 84.1115H425.45Z" fill="#F48073"/>
<path d="M449.291 55.3553C446.551 54.4708 438.913 53.5216 432.743 53.5647C432.009 53.5647 431.599 52.7881 432.052 52.2704C433.39 50.6524 437.468 47.395 443.401 48.6893C443.401 48.6893 447.759 49.9837 450.651 53.6726C450.845 53.9099 450.91 54.2335 450.845 54.5139C450.715 55.1827 449.982 55.571 449.291 55.3553Z" fill="#2B232A"/>
<path d="M401.005 55.3553C403.745 54.4708 411.383 53.5216 417.553 53.5647C418.287 53.5647 418.697 52.7881 418.244 52.2704C416.906 50.6524 412.828 47.395 406.895 48.6893C406.895 48.6893 402.537 49.9837 399.646 53.6726C399.452 53.9099 399.387 54.2335 399.452 54.5139C399.581 55.1827 400.315 55.571 401.005 55.3553Z" fill="#2B232A"/>
<path d="M467.221 50.674L460.683 40.3839C460.683 40.3839 460.23 26.9873 453.779 15.9421C453.779 15.9421 470.889 27.9581 467.199 50.674H467.221Z" fill="#878787"/>
<path d="M394.295 50.674L400.832 40.3839C400.832 40.3839 401.285 26.9873 407.737 15.9421C407.737 15.9421 390.627 27.9581 394.317 50.674H394.295Z" fill="#878787"/>
<path d="M463.359 24.2044C463.359 24.2044 419.776 49.3149 394.77 17.3444C394.77 17.3444 435.785 -25.8871 463.359 24.2044Z" fill="#A5A5A5"/>
<path d="M502.54 141.236C473.241 122.295 457.598 171.847 466.401 188.372C470.565 196.16 481.375 191.672 488.3 244.288C490.997 264.868 525.432 271.75 538.809 266.033C552.186 260.338 546.36 241.721 537.773 219.177C531.624 203.02 530.567 159.357 502.519 141.236H502.54Z" fill="#E1EFFF"/>
<path d="M463.078 331.118C463.078 331.118 458.677 336.123 455.289 340.61C454.491 342.012 468.601 352.194 475.829 353.014C475.829 353.014 479.195 346.693 479.583 346.305C481.784 344.104 479.411 337.223 479.001 336.813C473.974 331.506 465.279 329.327 463.078 331.139V331.118Z" fill="url(#paint9_linear_1_29561)"/>
<path d="M455.311 340.61C455.311 340.61 448.321 346.585 447.975 347.88C447.781 348.591 447.544 351.137 447.458 353.402C447.371 355.322 448.882 357.479 449.162 357.738C451.32 358.127 452.269 356.034 452.269 356.034C452.269 356.034 452.226 354.826 452.528 353.1C452.722 351.978 453.391 350.253 453.326 349.8C452.355 343.241 461.115 343.134 461.115 343.134C461.115 343.134 461.029 340.739 459.238 340.049C457.447 339.358 455.333 340.61 455.333 340.61H455.311Z" fill="url(#paint10_linear_1_29561)"/>
<path d="M460.726 343.069C460.726 343.069 457.037 349.562 456.131 351.827C455.225 354.092 455.052 360.435 455.354 361.6C457.943 363.757 460.467 362.678 460.467 362.678C460.467 362.678 459.324 359.421 462.496 353.726C461.611 348.009 467.307 346.132 467.307 346.132C467.307 346.132 466.228 340.178 460.726 343.09V343.069Z" fill="url(#paint11_linear_1_29561)"/>
<path d="M465.861 346.477C465.861 346.477 463.402 352.043 462.517 354.222C461.632 356.422 460.769 362.355 460.964 363.433C463.035 365.332 465.236 364.188 465.236 364.188C465.236 364.188 466.271 357.889 468.278 355.797C466.832 350.382 471.989 349.131 471.989 349.131C471.989 349.131 470.241 344.169 465.861 346.477Z" fill="url(#paint12_linear_1_29561)"/>
<path d="M470.737 350.166C470.737 350.166 469.206 353.553 468.407 355.495C467.609 357.436 466.638 362.657 466.832 363.606C468.839 365.332 470.888 364.339 470.888 364.339C470.888 364.339 473.154 357.954 473.629 356.918C471.752 354.049 475.894 352.82 475.894 352.82C475.894 352.82 475.247 347.534 470.737 350.166Z" fill="url(#paint13_linear_1_29561)"/>
<path d="M491.019 252.723C484.826 265.731 461.784 330.147 461.784 330.147C461.784 330.147 469.724 339.811 481.741 336.274C486.898 322.812 522.821 301.563 531.754 296.278C538.917 282.989 542.11 278.222 546.209 269.118C550.33 260.014 548 239.326 530.545 232.531C520.362 228.583 501.871 229.813 490.976 252.723H491.019Z" fill="#E1EFFF"/>
<path d="M483.467 333.059C478.138 331.851 469.939 329.111 464.028 324.171C462.625 327.903 461.784 330.147 461.784 330.147C461.784 330.147 469.724 339.811 481.741 336.274C482.13 335.238 482.712 334.159 483.446 333.038L483.467 333.059Z" fill="#C2D8F0"/>
<path d="M163.651 563.26L80.5202 563.605C75.493 563.605 71.2642 559.852 70.7248 554.847L57.8657 436.651L185.594 436.133L173.382 554.459C172.864 559.442 168.678 563.239 163.651 563.26Z" fill="#C21B17"/>
<g style="mix-blend-mode:multiply" opacity="0.33">
<path d="M57.8657 436.629L60.3253 459.194C100.456 457.921 143.823 459.28 181.71 473.799L185.594 436.111L57.8657 436.629Z" fill="#707070"/>
</g>
<path d="M177.956 420.881H65.4822C57.2841 420.881 50.6382 427.526 50.6382 435.723C50.6382 443.92 57.2841 450.565 65.4822 450.565H177.956C186.154 450.565 192.8 443.92 192.8 435.723C192.8 427.526 186.154 420.881 177.956 420.881Z" fill="#C21B17"/>
<path d="M159.573 312.695L158.883 314.118C158.193 315.521 142.788 346.672 130.791 358.213C127.922 340.523 123.067 323.761 116.314 308.315C126.822 282.752 131.245 257.922 129.454 234.472C143.197 225.283 160.976 189.343 163.004 185.179L163.694 183.755L157.955 181.016L157.265 182.439C156.553 183.885 140.695 215.942 128.634 227.03C126.627 212.123 122.096 197.929 115.128 184.705L115.041 183.259C113.747 163.607 124.837 149.476 124.966 149.347L125.959 148.117L121.039 144.105L120.047 145.335C119.637 145.852 110.683 156.984 108.914 174.091C97.4787 156.639 85.6552 147.729 85.5258 147.621L84.2528 146.672L80.4771 151.785L81.75 152.734C81.9442 152.885 101.254 167.533 113.596 196.138C98.6869 189.019 85.0942 190.4 83.4761 190.594L81.8795 190.788L82.6993 197.087L84.2528 196.893C84.4254 196.871 101.427 194.951 117.134 205.457C126.908 234.537 125.398 266.421 112.625 300.29C107.943 290.799 102.484 281.846 96.3999 273.648L95.4506 272.376L90.3371 276.172L91.2865 277.445C100.542 289.936 108.18 304.022 113.984 319.361C98.3417 311.724 83.8429 313.536 83.174 313.622L81.599 313.838L82.462 320.094L84.0155 319.922C84.7275 319.835 101.643 318.088 117.199 328.529C131.05 371.523 126.843 409.016 126.8 409.383L126.606 410.958L132.906 411.713L133.1 410.138C133.122 409.965 135.236 391.629 131.892 365.591C145.83 355.344 163.867 318.455 164.644 316.858L165.334 315.434L159.617 312.695H159.573Z" fill="#244F42"/>
<path d="M91.0492 316.513C91.0492 316.513 80.5419 300.787 61.3611 297.486C42.1804 294.185 29.2134 306.007 28.5877 309.437C27.962 312.867 39.7208 327.321 60.8433 326.523C81.9659 325.725 91.0492 316.513 91.0492 316.513Z" fill="#B5B5B5"/>
<path d="M118.386 153.554C118.386 153.554 110.446 136.382 117.652 118.304C124.837 100.226 141.709 95.3293 144.945 96.5805C148.203 97.8533 154.395 115.413 142.68 133.017C130.964 150.62 118.386 153.554 118.386 153.554Z" fill="#40947E"/>
<path d="M91.2866 193.549C91.2866 193.549 80.8224 177.78 61.6632 174.436C42.504 171.071 29.4723 182.849 28.8466 186.279C28.2209 189.709 39.9149 204.206 61.0375 203.473C82.1601 202.739 91.265 193.571 91.265 193.571L91.2866 193.549Z" fill="#B5B5B5"/>
<path d="M99.5284 282.493C99.5284 282.493 100.844 263.617 87.7049 249.293C74.5653 234.947 57.0675 236.349 54.4784 238.679C51.8893 241.009 52.3424 259.626 69.5382 271.922C86.734 284.219 99.5499 282.493 99.5499 282.493H99.5284Z" fill="#2E6857"/>
<path d="M155.862 192.341C155.862 192.341 149.26 174.609 157.804 157.135C166.348 139.661 183.544 136.058 186.672 137.568C189.822 139.078 194.655 157.048 181.645 173.724C168.635 190.378 155.841 192.341 155.841 192.341H155.862Z" fill="#B5B5B5"/>
<path d="M157.481 324.042C157.481 324.042 150.878 306.309 159.422 288.835C167.966 271.362 185.162 267.759 188.291 269.269C191.441 270.779 196.274 288.749 183.263 305.425C170.253 322.079 157.459 324.042 157.459 324.042H157.481Z" fill="#B5B5B5"/>
<path d="M30.9394 89.8714C30.9394 89.8714 29.688 114.464 43.1728 134.268C56.787 154.287 93.6166 160.09 93.6166 160.09C93.6166 160.09 94.2423 136.598 83.2387 119.555C72.2352 102.535 40.4974 89.4615 30.9394 89.8714Z" fill="#6FC183"/>
<path d="M182.228 420.881C182.228 420.881 174.159 407.032 162.119 402.264C150.08 397.496 140.997 402.264 140.997 402.264C140.997 402.264 129.195 393.635 108.525 394.088C87.856 394.541 80.8223 405.09 80.8223 405.09C80.8223 405.09 64.0149 403.839 60.1528 420.881H182.249H182.228Z" fill="#4F330B"/>
<path d="M93.617 160.759C93.3797 160.759 93.1423 160.63 93.0129 160.392C80.0243 135.131 39.6779 99.9027 39.2679 99.5575C38.9874 99.3202 38.9659 98.8888 39.2032 98.6083C39.4405 98.3279 39.8721 98.3063 40.1525 98.5436C40.5625 98.8888 81.1031 134.289 94.1995 159.767C94.3721 160.09 94.2427 160.5 93.9191 160.673C93.8112 160.716 93.7249 160.737 93.617 160.737V160.759Z" fill="#244F42"/>
<path d="M43.1731 121.842C42.8494 121.842 42.5474 121.605 42.5042 121.26C42.4611 120.893 42.72 120.548 43.0867 120.504L59.8295 118.218C60.1962 118.175 60.5415 118.434 60.5846 118.8C60.6278 119.167 60.3688 119.512 60.0021 119.555L43.2594 121.842C43.2594 121.842 43.1946 121.842 43.1731 121.842Z" fill="#244F42"/>
<path d="M69.107 128.357C69.107 128.357 69.0854 128.357 69.0639 128.357C68.6971 128.335 68.4166 128.012 68.4382 127.645L69.517 110.56C69.5385 110.193 69.8622 109.912 70.229 109.934C70.5957 109.955 70.8762 110.279 70.8547 110.646L69.7759 127.731C69.7543 128.076 69.4522 128.357 69.107 128.357Z" fill="#244F42"/>
<path d="M61.5983 145.464C61.2747 145.464 60.9727 145.227 60.9295 144.882C60.8864 144.515 61.1453 144.191 61.512 144.126L81.2106 141.667C81.5774 141.624 81.901 141.883 81.9658 142.25C82.0089 142.616 81.75 142.94 81.3832 143.005L61.6846 145.464C61.6846 145.464 61.6199 145.464 61.5983 145.464Z" fill="#244F42"/>
<path d="M120.284 148.765C120.284 148.765 120.198 148.765 120.155 148.765C119.788 148.7 119.551 148.333 119.637 147.988C123.089 130.277 141.364 101.823 141.536 101.521C141.73 101.219 142.14 101.111 142.464 101.326C142.766 101.521 142.874 101.93 142.658 102.254C142.486 102.535 124.34 130.795 120.931 148.247C120.867 148.57 120.586 148.786 120.284 148.786V148.765Z" fill="#244F42"/>
<path d="M133.381 118.045C133.057 118.045 132.777 117.808 132.712 117.484C132.647 117.118 132.906 116.772 133.273 116.729L143.78 115.176C144.147 115.111 144.492 115.37 144.536 115.737C144.6 116.104 144.341 116.449 143.975 116.492L133.467 118.045C133.467 118.045 133.403 118.045 133.359 118.045H133.381Z" fill="#244F42"/>
<path d="M129.389 124.948C129.108 124.948 128.85 124.776 128.763 124.517L125.117 114.399C124.988 114.054 125.182 113.666 125.527 113.537C125.872 113.407 126.261 113.601 126.39 113.946L130.036 124.064C130.166 124.409 129.972 124.797 129.626 124.927C129.562 124.948 129.475 124.97 129.411 124.97L129.389 124.948Z" fill="#244F42"/>
<path d="M124.599 135.907C124.276 135.907 123.995 135.67 123.93 135.346C123.866 134.98 124.125 134.635 124.491 134.591L136.789 132.628C137.156 132.564 137.501 132.822 137.545 133.189C137.609 133.556 137.35 133.901 136.984 133.944L124.685 135.907C124.685 135.907 124.621 135.907 124.578 135.907H124.599Z" fill="#244F42"/>
<path d="M85.4826 192.471C85.4826 192.471 85.3316 192.471 85.2453 192.427C68.5457 186.322 34.974 187.229 34.6504 187.229C34.2836 187.229 33.9815 186.948 33.96 186.581C33.96 186.215 34.2404 185.913 34.6072 185.891C34.9524 185.891 68.7615 184.963 85.6984 191.155C86.0436 191.284 86.2162 191.672 86.0867 192.018C85.9789 192.298 85.7415 192.449 85.461 192.449L85.4826 192.471Z" fill="#878787"/>
<path d="M45.6323 195.987C45.4813 195.987 45.3303 195.944 45.2008 195.836C44.9203 195.599 44.8772 195.189 45.1145 194.887L51.8677 186.711C52.105 186.43 52.5149 186.387 52.817 186.624C53.0975 186.862 53.1406 187.272 52.9033 187.574L46.1501 195.75C46.0207 195.901 45.8265 195.987 45.6323 195.987Z" fill="#878787"/>
<path d="M60.3687 187.94C60.1745 187.94 59.9803 187.854 59.8509 187.703L53.0761 179.355C52.8388 179.074 52.8819 178.643 53.184 178.405C53.4645 178.168 53.896 178.211 54.1333 178.513L60.9081 186.862C61.1454 187.142 61.1023 187.574 60.8002 187.811C60.6707 187.919 60.5197 187.962 60.3687 187.962V187.94Z" fill="#878787"/>
<path d="M64.1875 199.029C64.0365 199.029 63.8854 198.986 63.756 198.878C63.4755 198.64 63.4323 198.209 63.6697 197.928L71.7174 188.415C71.9547 188.135 72.3862 188.091 72.6667 188.329C72.9472 188.566 72.9904 188.997 72.753 189.278L64.7053 198.791C64.5759 198.942 64.3817 199.029 64.1875 199.029Z" fill="#878787"/>
<path d="M159.725 189.299C159.725 189.299 159.638 189.299 159.574 189.299C159.207 189.213 158.991 188.868 159.056 188.501C162.853 170.876 181.667 142.746 181.84 142.465C182.055 142.163 182.465 142.077 182.767 142.293C183.07 142.509 183.156 142.918 182.94 143.22C182.746 143.501 164.083 171.416 160.35 188.782C160.286 189.105 160.005 189.299 159.703 189.299H159.725Z" fill="#878787"/>
<path d="M173.425 158.839C173.101 158.839 172.799 158.602 172.756 158.257C172.713 157.89 172.972 157.545 173.339 157.501L183.868 156.142C184.234 156.099 184.58 156.358 184.623 156.725C184.666 157.092 184.407 157.437 184.04 157.48L173.511 158.839C173.511 158.839 173.447 158.839 173.425 158.839Z" fill="#878787"/>
<path d="M169.283 165.677C169.002 165.677 168.743 165.505 168.657 165.224L165.205 155.042C165.097 154.697 165.27 154.309 165.615 154.201C165.96 154.093 166.348 154.266 166.456 154.611L169.908 164.793C170.016 165.138 169.844 165.526 169.498 165.634C169.434 165.656 169.347 165.677 169.283 165.677Z" fill="#878787"/>
<path d="M164.298 176.55C163.975 176.55 163.694 176.313 163.63 175.968C163.586 175.601 163.824 175.256 164.191 175.213L176.532 173.487C176.899 173.444 177.244 173.681 177.287 174.048C177.33 174.414 177.093 174.76 176.726 174.803L164.385 176.528C164.385 176.528 164.32 176.528 164.298 176.528V176.55Z" fill="#878787"/>
<path d="M158.624 319.425C158.624 319.425 158.495 319.425 158.43 319.404C158.085 319.296 157.869 318.929 157.977 318.562C160.156 311.292 165.27 301.671 173.166 289.957C179.035 281.242 184.343 274.576 184.386 274.511C184.623 274.231 185.033 274.166 185.335 274.403C185.616 274.641 185.68 275.05 185.443 275.353C185.4 275.417 180.114 282.062 174.267 290.734C166.564 302.167 161.365 311.94 159.25 318.972C159.164 319.253 158.905 319.447 158.603 319.447L158.624 319.425Z" fill="#878787"/>
<path d="M174.72 290.151C174.374 290.151 174.072 289.871 174.051 289.504C174.051 289.137 174.31 288.814 174.676 288.814L185.27 288.296C185.637 288.296 185.961 288.555 185.961 288.922C185.961 289.288 185.702 289.612 185.335 289.612L174.741 290.13C174.741 290.13 174.72 290.13 174.698 290.13L174.72 290.151Z" fill="#878787"/>
<path d="M170.038 296.623C169.736 296.623 169.477 296.429 169.39 296.127L166.78 285.707C166.693 285.341 166.909 284.995 167.276 284.888C167.643 284.801 167.988 285.017 168.096 285.384L170.706 295.803C170.793 296.17 170.577 296.515 170.21 296.623C170.145 296.623 170.102 296.623 170.038 296.623Z" fill="#878787"/>
<path d="M164.191 307.064C163.845 307.064 163.543 306.784 163.522 306.439C163.5 306.072 163.781 305.748 164.147 305.727L176.575 304.993C176.942 304.972 177.265 305.252 177.287 305.619C177.309 305.986 177.028 306.309 176.661 306.331L164.234 307.064C164.234 307.064 164.212 307.064 164.191 307.064Z" fill="#878787"/>
<path d="M96.9392 278.351C96.7234 278.351 96.4861 278.243 96.3782 278.028C87.036 262.884 60.1096 242.843 59.8507 242.627C59.5486 242.411 59.4839 241.98 59.7212 241.699C59.937 241.397 60.3685 241.333 60.649 241.57C60.9294 241.764 88.05 261.978 97.5217 277.337C97.7159 277.661 97.608 278.071 97.306 278.265C97.1981 278.33 97.0686 278.373 96.9608 278.373L96.9392 278.351Z" fill="#244F42"/>
<path d="M63.4756 256.455C63.1735 256.455 62.893 256.239 62.8283 255.937C62.742 255.57 62.9793 255.225 63.3461 255.139L73.724 252.895C74.0908 252.809 74.436 253.046 74.5223 253.413C74.6086 253.78 74.3713 254.125 74.0045 254.211L63.6266 256.455C63.6266 256.455 63.5403 256.455 63.4756 256.455Z" fill="#244F42"/>
<path d="M80.024 259.281C79.6572 259.281 79.3551 258.979 79.3551 258.612L79.2041 247.869C79.2041 247.502 79.4846 247.2 79.8729 247.2C80.2397 247.2 80.5418 247.481 80.5418 247.869L80.6928 258.612C80.6928 258.979 80.4123 259.281 80.024 259.281Z" fill="#244F42"/>
<path d="M76.1621 270.348C75.86 270.348 75.5796 270.132 75.5148 269.808C75.4501 269.442 75.6659 269.096 76.0326 269.01L88.2445 266.508C88.6113 266.443 88.9565 266.659 89.0428 267.026C89.1291 267.392 88.8917 267.737 88.5249 267.824L76.3131 270.326C76.3131 270.326 76.2268 270.326 76.1837 270.326L76.1621 270.348Z" fill="#244F42"/>
<path d="M85.72 315.089C85.72 315.089 85.569 315.089 85.5042 315.046C68.6321 309.394 35.1035 311.249 34.7799 311.271C34.4131 311.271 34.0894 311.012 34.0679 310.645C34.0679 310.279 34.3268 309.955 34.6936 309.933C35.0388 309.933 68.8047 308.057 85.9142 313.795C86.2594 313.903 86.4536 314.291 86.3457 314.636C86.2594 314.917 86.0005 315.089 85.72 315.089Z" fill="#878787"/>
<path d="M45.9993 319.706C45.8483 319.706 45.7189 319.663 45.5894 319.555C45.3089 319.317 45.2442 318.908 45.4815 318.627L52.0189 310.257C52.2563 309.977 52.6662 309.912 52.9467 310.149C53.2272 310.386 53.2919 310.796 53.0546 311.077L46.5172 319.447C46.3877 319.619 46.1935 319.706 45.9993 319.706Z" fill="#878787"/>
<path d="M60.5197 311.271C60.3255 311.271 60.1529 311.185 60.0019 311.034L52.9898 302.879C52.7525 302.599 52.7741 302.167 53.0546 301.93C53.335 301.693 53.7666 301.714 54.0039 301.995L61.016 310.149C61.2533 310.43 61.2317 310.861 60.9512 311.098C60.8218 311.206 60.6708 311.249 60.5197 311.249V311.271Z" fill="#878787"/>
<path d="M64.6405 322.251C64.4894 322.251 64.3384 322.208 64.2305 322.1C63.95 321.863 63.8853 321.453 64.1226 321.151L71.8899 311.422C72.1272 311.141 72.5371 311.077 72.8392 311.314C73.1197 311.551 73.1844 311.961 72.9471 312.263L65.1798 321.992C65.0504 322.165 64.8562 322.251 64.662 322.251H64.6405Z" fill="#878787"/>
<path d="M186.61 209.371C211.563 207.858 230.566 186.405 229.052 161.455C227.539 136.505 206.084 117.505 181.13 119.018C156.176 120.531 137.174 141.983 138.687 166.934C140.2 191.884 161.656 210.883 186.61 209.371Z" fill="#D79A00"/>
<path d="M229.537 163.008C229.757 138.752 210.269 118.909 186.009 118.689C161.749 118.469 141.904 137.954 141.684 162.211C141.464 186.467 160.952 206.309 185.212 206.529C209.472 206.749 229.317 187.264 229.537 163.008Z" fill="#FFB700"/>
<path d="M185.529 207.55C175.561 207.55 165.917 204.249 157.934 198.015C148.484 190.615 142.486 180.002 141.018 168.094C139.573 156.186 142.831 144.428 150.231 134.98C157.632 125.531 168.247 119.534 180.157 118.067C204.753 115.068 227.192 132.628 230.191 157.199C231.636 169.108 228.378 180.865 220.978 190.313C213.577 199.762 202.962 205.759 191.052 207.226C189.197 207.442 187.363 207.571 185.507 207.571L185.529 207.55ZM185.658 119.706C183.932 119.706 182.185 119.814 180.416 120.03C169.024 121.411 158.861 127.149 151.806 136.188C144.751 145.227 141.622 156.466 143.003 167.835C145.873 191.327 167.319 208.111 190.815 205.242C202.207 203.861 212.369 198.123 219.424 189.084C226.48 180.045 229.608 168.806 228.227 157.437C225.573 135.692 207.018 119.706 185.637 119.706H185.658Z" fill="#FFB700"/>
<path d="M203.352 194.973C221.214 185.195 227.767 162.79 217.988 144.93C208.208 127.07 185.8 120.519 167.938 130.297C150.075 140.075 143.523 162.48 153.302 180.34C163.081 198.199 185.489 204.751 203.352 194.973Z" fill="white"/>
<path d="M185.421 188.868L184.688 182.849C180.416 183.173 176.165 182.547 173.598 181.447L174.59 173.81C177.438 174.932 181.322 175.817 185.443 175.32C189.046 174.889 191.355 173.185 191.053 170.661C190.751 168.245 188.55 166.993 183.674 165.979C176.618 164.534 171.613 161.924 170.858 155.776C170.167 150.21 173.576 145.356 180.178 143.199L179.445 137.18L185.659 136.425L186.349 141.991C190.621 141.667 193.577 142.206 195.778 142.962L194.807 150.339C193.081 149.843 189.995 148.743 185.421 149.304C181.3 149.8 180.2 151.742 180.416 153.511C180.675 155.603 183.048 156.66 188.679 158.019C196.533 159.767 200.006 162.873 200.697 168.568C201.387 174.199 197.978 179.506 190.858 181.663L191.657 188.113L185.443 188.868H185.421Z" fill="#F2AC57"/>
<path d="M176.437 331.522C198.655 330.175 215.575 311.074 214.227 288.859C212.88 266.644 193.777 249.727 171.559 251.074C149.34 252.421 132.421 271.522 133.768 293.737C135.116 315.952 154.219 332.869 176.437 331.522Z" fill="#D79A00"/>
<path d="M214.617 290.275C214.813 268.688 197.47 251.029 175.879 250.833C154.288 250.637 136.626 267.978 136.43 289.566C136.235 311.153 153.578 328.813 175.169 329.008C196.76 329.204 214.421 311.863 214.617 290.275Z" fill="#FFB700"/>
<path d="M175.475 329.91C166.586 329.91 158.02 326.976 150.922 321.41C142.507 314.83 137.156 305.36 135.862 294.768C134.567 284.176 137.48 273.691 144.061 265.3C150.641 256.886 160.113 251.536 170.706 250.242C192.584 247.567 212.563 263.186 215.239 285.082C216.533 295.674 213.62 306.158 207.04 314.55C200.459 322.963 190.988 328.313 180.394 329.608C178.754 329.802 177.093 329.91 175.475 329.91ZM175.583 251.709C174.051 251.709 172.497 251.795 170.922 251.989C160.782 253.219 151.741 258.332 145.463 266.378C139.184 274.425 136.401 284.413 137.631 294.552C140.177 315.456 159.271 330.406 180.2 327.839C190.34 326.609 199.38 321.496 205.659 313.45C211.938 305.403 214.721 295.415 213.491 285.276C211.118 265.925 194.612 251.687 175.583 251.687V251.709Z" fill="#FFB700"/>
<path d="M191.281 318.714C207.179 310.011 213.01 290.071 204.307 274.176C195.603 258.28 175.66 252.45 159.762 261.152C143.865 269.854 138.033 289.795 146.737 305.69C155.44 321.585 175.384 327.416 191.281 318.714Z" fill="white"/>
<path d="M175.367 313.277L174.719 307.927C170.922 308.229 167.125 307.647 164.838 306.676L165.722 299.881C168.247 300.894 171.72 301.671 175.388 301.218C178.603 300.83 180.653 299.32 180.372 297.055C180.113 294.919 178.15 293.776 173.792 292.891C167.513 291.597 163.047 289.288 162.378 283.809C161.774 278.847 164.795 274.533 170.685 272.613L170.038 267.263L175.561 266.594L176.165 271.556C179.962 271.254 182.595 271.75 184.558 272.419L183.695 278.977C182.163 278.545 179.401 277.553 175.345 278.049C171.677 278.502 170.685 280.228 170.879 281.803C171.116 283.658 173.231 284.607 178.236 285.815C185.227 287.368 188.312 290.13 188.938 295.199C189.542 300.204 186.521 304.929 180.178 306.849L180.89 312.587L175.367 313.256V313.277Z" fill="#F2AC57"/>
<path d="M50.0369 367.065C75.6805 365.511 95.2082 343.465 93.6533 317.825C92.0983 292.185 70.0495 272.66 44.4059 274.215C18.7624 275.77 -0.765341 297.815 0.789611 323.455C2.34456 349.095 24.3933 368.62 50.0369 367.065Z" fill="#D79A00"/>
<path d="M91.3025 319.432C91.5287 294.508 71.5047 274.12 46.5777 273.894C21.6506 273.668 1.2599 293.689 1.03366 318.613C0.807425 343.536 20.8314 363.924 45.7584 364.15C70.6854 364.376 91.0762 344.355 91.3025 319.432Z" fill="#FFB700"/>
<path d="M46.0638 365.202C35.8154 365.202 25.9122 361.815 17.7134 355.387C8.00439 347.793 1.83376 336.878 0.345035 324.624C-1.14368 312.393 2.20054 300.312 9.81675 290.583C17.4114 280.875 28.3287 274.705 40.5836 273.217C65.8487 270.132 88.9131 288.167 91.9984 313.428C93.4871 325.66 90.1429 337.74 82.5267 347.47C74.9321 357.177 64.0148 363.347 51.7598 364.836C49.8612 365.073 47.9625 365.181 46.0638 365.181V365.202ZM46.1933 274.921C44.4241 274.921 42.6117 275.029 40.821 275.245C29.127 276.668 18.6843 282.579 11.4133 291.856C4.14235 301.132 0.949153 312.695 2.37315 324.387C5.32901 348.527 27.3578 365.785 51.5225 362.829C63.2165 361.406 73.6591 355.495 80.9301 346.218C88.2011 336.942 91.3943 325.379 89.9703 313.687C87.2518 291.359 68.1789 274.921 46.2149 274.921H46.1933Z" fill="#FFB700"/>
<path d="M64.3574 352.293C82.7111 342.246 89.4439 319.225 79.3956 300.874C69.3472 282.523 46.3228 275.791 27.9691 285.838C9.61542 295.885 2.88261 318.906 12.931 337.257C22.9793 355.608 46.0037 362.34 64.3574 352.293Z" fill="white"/>
<path d="M45.9559 346.024L45.2008 339.833C40.8209 340.178 36.4411 339.509 33.7873 338.388L34.8013 330.535C37.714 331.7 41.7271 332.585 45.9559 332.088C49.6669 331.635 52.0187 329.888 51.7166 327.299C51.4146 324.818 49.1491 323.524 44.122 322.489C36.8726 321 31.716 318.325 30.9609 312.004C30.2704 306.288 33.7441 301.304 40.5404 299.082L39.7853 292.891L46.1717 292.114L46.8621 297.831C51.242 297.486 54.2841 298.047 56.5496 298.824L55.5571 306.395C53.7879 305.878 50.5947 304.756 45.9128 305.338C41.684 305.856 40.5404 307.841 40.7562 309.675C41.0151 311.832 43.4532 312.91 49.257 314.313C57.3263 316.103 60.8863 319.296 61.6199 325.142C62.3319 330.924 58.8366 336.381 51.5009 338.582L52.3207 345.226L45.9344 346.003L45.9559 346.024Z" fill="#F2AC57"/>
<path d="M61.6855 230.555C81.1918 229.372 96.0459 212.603 94.8631 193.1C93.6803 173.596 76.9085 158.744 57.4022 159.927C37.896 161.109 23.0419 177.879 24.2247 197.382C25.4075 216.886 42.1793 231.738 61.6855 230.555Z" fill="#D79A00"/>
<path d="M92.7784 194.33C92.9504 175.375 77.7219 159.87 58.7644 159.698C39.807 159.526 24.2995 174.752 24.1275 193.707C23.9554 212.661 39.184 228.167 58.1414 228.339C77.0988 228.511 92.6063 213.284 92.7784 194.33Z" fill="#FFB700"/>
<path d="M58.3839 229.122C50.5951 229.122 43.0652 226.534 36.8299 221.658C29.451 215.877 24.7475 207.571 23.604 198.274C22.4605 188.976 25.028 179.786 30.8103 172.387C36.5925 165.009 44.8992 160.306 54.1983 159.184C73.4222 156.833 90.9416 170.553 93.2934 189.774C94.4369 199.072 91.8694 208.262 86.0871 215.661C80.3048 223.039 71.9982 227.742 62.6991 228.885C61.2535 229.058 59.8079 229.144 58.3624 229.144L58.3839 229.122ZM58.4703 160.478C57.111 160.478 55.7517 160.565 54.3709 160.737C45.4817 161.816 37.5419 166.303 32.0185 173.357C26.4951 180.412 24.0571 189.192 25.1359 198.101C27.3797 216.459 44.144 229.575 62.5049 227.332C71.3941 226.253 79.3339 221.766 84.8573 214.712C90.3806 207.658 92.8187 198.878 91.7399 189.968C89.6686 172.991 75.1698 160.478 58.4487 160.478H58.4703Z" fill="#FFB700"/>
<path d="M72.2875 219.288C86.2409 211.65 91.3595 194.148 83.7203 180.196C76.081 166.245 58.5767 161.127 44.6233 168.765C30.6699 176.403 25.5513 193.905 33.1905 207.857C40.8298 221.808 58.3341 226.926 72.2875 219.288Z" fill="white"/>
<path d="M58.2976 214.518L57.7151 209.815C54.3708 210.074 51.0482 209.578 49.0416 208.715L49.8184 202.739C52.0407 203.624 55.0828 204.314 58.2976 203.904C61.124 203.559 62.9148 202.243 62.6775 200.258C62.4401 198.382 60.7141 197.389 56.9168 196.591C51.415 195.448 47.4882 193.42 46.9057 188.631C46.3663 184.273 49.0201 180.498 54.1982 178.794L53.6157 174.091L58.4702 173.508L59.0096 177.866C62.3538 177.607 64.6624 178.039 66.3885 178.621L65.6333 184.381C64.2741 183.993 61.8576 183.13 58.2976 183.561C55.0828 183.949 54.2198 185.46 54.3708 186.862C54.565 188.501 56.4205 189.321 60.822 190.4C66.971 191.759 69.668 194.196 70.2074 198.64C70.7468 203.041 68.0929 207.183 62.5264 208.866L63.1521 213.914L58.2976 214.496V214.518Z" fill="#F2AC57"/>
<path d="M288.056 279.624C286.913 279.387 263.87 276.431 259.059 275.698C258.282 275.568 250.644 279.624 251.917 281.026C253.19 282.428 266.826 288.943 271.443 289.677C274.421 290.151 277.743 288.339 277.743 288.339C277.743 288.339 284.216 292.33 285.683 293.193C287.474 292.718 290.861 285.233 288.1 279.645L288.056 279.624Z" fill="url(#paint14_linear_1_29561)"/>
<path d="M258.455 275.827C256.189 276.841 245.962 282.062 245.574 282.191C245.186 282.32 242.855 290.345 242.855 290.345C242.855 290.345 245.035 290.345 246.674 289.461C250.364 287.455 250.989 286.376 257.592 283.636C260.44 280.961 259.318 281.609 260.871 280.293C262.835 278.653 260.699 274.792 258.433 275.827H258.455Z" fill="url(#paint15_linear_1_29561)"/>
<path d="M249.091 288.9C248.271 290.13 245.25 297.81 245.164 298.435C245.099 299.061 248.638 302.189 249.673 301.024C250.989 299.535 252.759 295.048 253.039 293.409C253.514 290.755 249.911 287.692 249.091 288.922V288.9Z" fill="url(#paint16_linear_1_29561)"/>
<path d="M253.794 287.088C253.169 288.426 251.421 296.494 251.443 297.119C251.464 297.745 255.477 300.269 256.297 298.953C257.354 297.27 258.39 292.567 258.412 290.885C258.455 288.188 254.42 285.729 253.794 287.088Z" fill="url(#paint17_linear_1_29561)"/>
<path d="M259.232 286.527C258.606 287.865 256.772 295.911 256.794 296.537C256.794 297.162 260.785 299.73 261.627 298.414C262.684 296.753 263.784 292.05 263.806 290.367C263.87 287.671 259.857 285.19 259.232 286.527Z" fill="url(#paint18_linear_1_29561)"/>
<path d="M264.97 287.973C264.366 288.986 262.295 295.242 262.252 295.76C262.209 296.256 265.186 298.608 265.963 297.615C266.934 296.364 268.164 292.718 268.315 291.381C268.574 289.245 265.575 286.959 264.97 287.973Z" fill="url(#paint19_linear_1_29561)"/>
</g>
<defs>
<linearGradient id="paint0_linear_1_29561" x1="267.63" y1="290.989" x2="279.016" y2="280.76" gradientUnits="userSpaceOnUse">
<stop stop-color="#F7B59C"/>
<stop offset="1" stop-color="#F79480"/>
</linearGradient>
<linearGradient id="paint1_linear_1_29561" x1="509.66" y1="448.559" x2="365.966" y2="448.559" gradientUnits="userSpaceOnUse">
<stop stop-color="#454545"/>
<stop offset="1" stop-color="#2E2E2E"/>
</linearGradient>
<linearGradient id="paint2_linear_1_29561" x1="413.627" y1="364.555" x2="403.659" y2="364.555" gradientUnits="userSpaceOnUse">
<stop stop-color="#3D3D3D"/>
<stop offset="1" stop-color="#262626"/>
</linearGradient>
<linearGradient id="paint3_linear_1_29561" x1="410.649" y1="71.9446" x2="439.187" y2="159.316" gradientUnits="userSpaceOnUse">
<stop stop-color="#F7C3AF"/>
<stop offset="1" stop-color="#F79480"/>
</linearGradient>
<linearGradient id="paint4_linear_1_29561" x1="195" y1="357.5" x2="290" y2="356.495" gradientUnits="userSpaceOnUse">
<stop stop-color="#C21B17"/>
<stop offset="1" stop-color="#AA1B17"/>
</linearGradient>
<linearGradient id="paint5_linear_1_29561" x1="441.114" y1="354.394" x2="437.511" y2="354.394" gradientUnits="userSpaceOnUse">
<stop stop-color="#3D3D3D"/>
<stop offset="1" stop-color="#262626"/>
</linearGradient>
<linearGradient id="paint6_linear_1_29561" x1="408.297" y1="352.777" x2="396.172" y2="352.777" gradientUnits="userSpaceOnUse">
<stop stop-color="#3D3D3D"/>
<stop offset="1" stop-color="#262626"/>
</linearGradient>
<linearGradient id="paint7_linear_1_29561" x1="409.786" y1="352.733" x2="399.581" y2="352.733" gradientUnits="userSpaceOnUse">
<stop stop-color="#3D3D3D"/>
<stop offset="1" stop-color="#262626"/>
</linearGradient>
<linearGradient id="paint8_linear_1_29561" x1="430.11" y1="70.5855" x2="430.11" y2="110.495" gradientUnits="userSpaceOnUse">
<stop stop-color="#F7C3AF"/>
<stop offset="1" stop-color="#F79480"/>
</linearGradient>
<linearGradient id="paint9_linear_1_29561" x1="462.17" y1="345.628" x2="485.339" y2="334.035" gradientUnits="userSpaceOnUse">
<stop stop-color="#F7B59C"/>
<stop offset="1" stop-color="#F79480"/>
</linearGradient>
<linearGradient id="paint10_linear_1_29561" x1="461.68" y1="344.679" x2="485.131" y2="332.934" gradientUnits="userSpaceOnUse">
<stop stop-color="#F7B59C"/>
<stop offset="1" stop-color="#F79480"/>
</linearGradient>
<linearGradient id="paint11_linear_1_29561" x1="464.72" y1="350.749" x2="487.896" y2="339.136" gradientUnits="userSpaceOnUse">
<stop stop-color="#F7B59C"/>
<stop offset="1" stop-color="#F79480"/>
</linearGradient>
<linearGradient id="paint12_linear_1_29561" x1="466.371" y1="354.847" x2="489.547" y2="343.234" gradientUnits="userSpaceOnUse">
<stop stop-color="#F7B59C"/>
<stop offset="1" stop-color="#F79480"/>
</linearGradient>
<linearGradient id="paint13_linear_1_29561" x1="467.781" y1="362.374" x2="489.699" y2="350.512" gradientUnits="userSpaceOnUse">
<stop stop-color="#F7B59C"/>
<stop offset="1" stop-color="#F79480"/>
</linearGradient>
<linearGradient id="paint14_linear_1_29561" x1="270.625" y1="285.293" x2="285.155" y2="280.412" gradientUnits="userSpaceOnUse">
<stop stop-color="#F7B59C"/>
<stop offset="1" stop-color="#F79480"/>
</linearGradient>
<linearGradient id="paint15_linear_1_29561" x1="267.397" y1="278.017" x2="278.673" y2="274.211" gradientUnits="userSpaceOnUse">
<stop stop-color="#F7B59C"/>
<stop offset="1" stop-color="#F79480"/>
</linearGradient>
<linearGradient id="paint16_linear_1_29561" x1="254.159" y1="295.59" x2="259.514" y2="296.422" gradientUnits="userSpaceOnUse">
<stop stop-color="#F7B59C"/>
<stop offset="1" stop-color="#F79480"/>
</linearGradient>
<linearGradient id="paint17_linear_1_29561" x1="259.866" y1="293.301" x2="265.305" y2="293.274" gradientUnits="userSpaceOnUse">
<stop stop-color="#F7B59C"/>
<stop offset="1" stop-color="#F79480"/>
</linearGradient>
<linearGradient id="paint18_linear_1_29561" x1="265.26" y1="291.961" x2="270.678" y2="291.981" gradientUnits="userSpaceOnUse">
<stop stop-color="#F7B59C"/>
<stop offset="1" stop-color="#F79480"/>
</linearGradient>
<linearGradient id="paint19_linear_1_29561" x1="269.287" y1="293.434" x2="273.599" y2="293.867" gradientUnits="userSpaceOnUse">
<stop stop-color="#F7B59C"/>
<stop offset="1" stop-color="#F79480"/>
</linearGradient>
<clipPath id="clip0_1_29561">
<rect width="548" height="566" fill="white"/>
</clipPath>
</defs>
</svg>
