<svg xmlns="http://www.w3.org/2000/svg" width="420" height="663" viewBox="0 0 420 663" fill="none">
<path fill-rule="evenodd" clip-rule="evenodd" d="M209.66 625.13C325.45 625.13 419.31 633.48 419.31 643.77C419.31 654.06 325.45 662.41 209.66 662.41C93.8698 662.41 0.00976562 654.07 0.00976562 643.77C0.00976562 633.47 93.8698 625.13 209.66 625.13Z" fill="#E2E2F2"/>
<g clip-path="url(#clip0_1133_1483)">
<path d="M260.657 89.1834C251.868 73.6668 248.927 57.7743 249.084 51.3928C249.111 50.877 249.128 50.3613 249.146 49.8455C249.189 48.9626 249.242 48.4731 249.242 48.4731H249.172C249.181 21.7058 227.996 0 201.857 0C175.718 0 154.525 21.7058 154.525 48.4731C154.525 49.828 154.595 51.1743 154.7 52.503C154.752 59.4877 151.434 74.506 143.109 89.1834C132.762 107.436 131.659 126.721 152.205 134.483C152.205 134.483 152.31 134.518 152.459 134.571C154.393 135.287 156.494 135.908 158.814 136.415C159.357 136.529 159.882 136.616 160.416 136.721C174.273 139.982 208.571 144.851 241.083 137.123C242.361 136.922 243.657 136.704 244.97 136.415C248.612 135.62 251.737 134.553 254.442 133.259C254.459 133.259 254.485 133.242 254.503 133.242H254.494C271.976 124.789 270.488 106.536 260.666 89.1922L260.657 89.1834Z" fill="black"/>
<path d="M218.524 140.34C215.233 136.319 212.624 129.78 211.679 122.883C210.619 115.182 212.178 107.41 212.178 107.41H187.168C187.168 107.41 189.636 115.042 188.498 122.367C187.238 130.532 183.097 140.419 182.073 141.101C176.348 144.869 172.829 148.129 168.881 152.247C168.881 152.247 159.637 171.452 182.073 170.998C204.509 170.543 226.692 150.761 227.374 149.204C222.612 147.29 221.282 143.706 218.524 140.34Z" fill="url(#paint0_linear_1133_1483)"/>
<path d="M163.243 61.6292C163.243 61.6292 156.143 56.1219 150.908 62.6695C145.175 69.829 156.843 90.713 168.889 81.4118L163.243 61.6292Z" fill="#635646"/>
<path d="M164.522 77.7663C164.224 77.7663 163.944 77.6089 163.804 77.3292C159.794 69.5228 154.665 69.1556 154.455 69.1381C154.008 69.1119 153.667 68.736 153.684 68.2902C153.702 67.8444 154.052 67.4859 154.525 67.5209C154.778 67.5297 160.775 67.8793 165.248 76.5861C165.45 76.9795 165.292 77.469 164.898 77.6788C164.775 77.74 164.653 77.7663 164.53 77.7663H164.522Z" fill="#080400"/>
<path d="M239.847 61.6292C239.847 61.6292 246.947 56.1219 252.182 62.6695C257.916 69.829 246.247 90.713 234.201 81.4118L239.847 61.6292Z" fill="#635646"/>
<path d="M238.569 77.7665C238.446 77.7665 238.315 77.7403 238.201 77.6791C237.798 77.478 237.65 76.9885 237.851 76.5864C242.324 67.8796 248.321 67.5299 248.575 67.5212C248.977 67.5037 249.397 67.8446 249.415 68.2992C249.432 68.745 249.091 69.1209 248.645 69.1384C248.417 69.1471 243.305 69.5318 239.295 77.3294C239.155 77.6091 238.866 77.7665 238.578 77.7665H238.569Z" fill="#080400"/>
<path d="M201.707 88.8163C226.89 88.8163 247.306 68.9341 247.306 44.4081C247.306 19.8822 226.89 0 201.707 0C176.523 0 156.107 19.8822 156.107 44.4081C156.107 68.9341 176.523 88.8163 201.707 88.8163Z" fill="black"/>
<path d="M163.172 39.4428C163.172 39.4428 158.366 111.693 200.131 111.693C245.31 111.693 240.565 39.4428 240.565 39.4428C240.565 39.4428 240.312 8.56689 201.514 8.56689C165.956 8.56689 163.163 39.4428 163.163 39.4428H163.172Z" fill="url(#paint1_linear_1133_1483)"/>
<path d="M227.217 14.2139C227.217 14.2139 212.003 35.1504 243.946 56.0956C243.946 56.0956 244.515 21.3209 227.217 14.2139Z" fill="black"/>
<path d="M201.182 83.099H198.091C197.645 83.099 197.277 82.7406 197.277 82.2861C197.277 81.8315 197.636 81.4731 198.091 81.4731H201.182C201.462 81.4731 201.724 81.3594 201.908 81.1496C202.092 80.9398 202.18 80.6688 202.153 80.3978L201.435 73.5006C201.392 73.0548 201.716 72.6614 202.162 72.6089C202.608 72.5652 203.002 72.8887 203.055 73.3345L203.773 80.2318C203.852 80.9661 203.606 81.6916 203.116 82.2424C202.626 82.7843 201.917 83.099 201.182 83.099Z" fill="#080400"/>
<path d="M187.893 66.9807C188.31 65.2088 187.209 63.435 185.435 63.0187C183.661 62.6025 181.884 63.7014 181.468 65.4733C181.051 67.2452 182.151 69.0191 183.926 69.4353C185.7 69.8516 187.476 68.7526 187.893 66.9807Z" fill="black"/>
<path d="M220.898 66.5946C221.108 64.7866 219.811 63.1508 218 62.941C216.19 62.7312 214.552 64.0267 214.341 65.8347C214.131 67.6427 215.429 69.2785 217.239 69.4883C219.05 69.6982 220.688 68.4026 220.898 66.5946Z" fill="black"/>
<path d="M173.213 56.0959L193.942 54.1028C193.942 54.1028 191.964 48.377 183.017 49.3036C173.869 50.2565 173.213 56.0872 173.213 56.0872V56.0959Z" fill="black"/>
<path d="M228.94 56.0959L208.211 54.1028C208.211 54.1028 210.189 48.377 219.136 49.3036C228.284 50.2565 228.94 56.0872 228.94 56.0872V56.0959Z" fill="black"/>
<path d="M200.569 91.0017C193.749 91.0017 190.318 87.6012 190.151 87.4351C189.819 87.1029 189.828 86.5609 190.16 86.2287C190.493 85.8965 191.036 85.9053 191.359 86.2374C191.535 86.4123 195.64 90.4073 204.044 88.9911C204.508 88.9124 204.946 89.2271 205.024 89.6904C205.103 90.1537 204.788 90.5908 204.324 90.6695C202.967 90.8968 201.715 90.993 200.56 90.993L200.569 91.0017Z" fill="#080400"/>
<path d="M159.506 49.0502C159.506 49.0502 222.394 48.7268 232.47 17.6411C232.47 17.6411 216.853 -3.27792 187.974 5.31523C159.103 13.9084 159.506 49.0502 159.506 49.0502Z" fill="black"/>
<path d="M187.903 605.673C187.29 605.979 180.97 614.904 181.276 619.983C181.635 626.286 182.126 632.134 184.086 635.517C188.262 642.738 205.288 641.628 205.017 638.507C205.288 634.573 199.581 633.76 199.169 630.631C198.443 624.8 199.196 618.453 200.395 614.747C195.309 607.36 187.903 605.664 187.903 605.664V605.673Z" fill="#454545"/>
<path d="M190.556 596.992C188.542 600.725 186.879 604.65 185.575 608.68C185.242 609.703 184.936 610.743 184.936 611.818C184.936 612.719 185.154 613.602 185.408 614.467C187.448 621.53 193.252 633.437 196.998 632.528C198.898 632.064 198.04 622.09 199.441 616.784C200.806 611.626 206.89 601.18 206.076 600.437C202.759 597.403 199.257 594.571 195.598 591.975L190.556 596.992Z" fill="#756451"/>
<path d="M216.231 608.112L218.07 626.426C218.07 626.426 203.836 633.813 200.404 639.32C221.02 634.014 230.982 631.199 230.982 631.199L229.634 609.012L216.231 608.121V608.112Z" fill="#756451"/>
<path d="M217.212 626.977C217.212 626.977 192.788 636.47 197.41 642.17C200.623 646.13 231.664 634.704 231.664 634.704L230.981 631.199C212.467 636.155 210.917 636.339 208.965 634.302C207.013 632.257 217.212 626.977 217.212 626.977Z" fill="#454545"/>
<path d="M274.839 334.652C276.389 341.846 276.818 349.233 276.091 356.559C273.684 381.106 267.565 440.331 261.437 473.786C254.968 512.573 200.352 613.829 200.352 613.829L185.146 607.683C185.146 607.683 200.405 559.665 204.107 532.88C207.81 506.104 214.743 410.058 214.28 391.596C213.816 373.124 220.293 314.485 220.293 314.485L269.263 308.776L274.839 334.643V334.652Z" fill="url(#paint2_linear_1133_1483)"/>
<path d="M185.146 607.683L200.965 613.829C200.965 613.829 245.006 533.352 254.171 497.179C252.744 497.153 243.623 493.612 241.382 488.612C229.695 462.605 224.705 414.228 218.114 386.5C216.617 420.47 207.154 510.825 204.107 532.889C200.405 559.665 185.146 607.692 185.146 607.692V607.683Z" fill="#A51207"/>
<path d="M153.247 307.107C146.314 325.578 146.778 330.657 152.319 377.749C157.869 424.841 186.993 535.66 211.504 617.387C230.92 617.85 235.087 616.924 235.087 616.924C235.087 616.924 232.776 598.452 228.154 566.134C223.532 533.816 223.532 485.334 223.532 485.334C223.532 485.334 218.91 424.85 218.446 406.378C220.293 387.907 222.149 314.494 222.149 314.494L153.256 307.107H153.247Z" fill="#C1210D"/>
<path d="M239.026 248.24C237.538 232.05 255.422 183.577 246.975 137.272C238.282 133.207 222.647 131.966 222.647 131.966L200.071 144.65L181.933 133.216L155.986 144.248C155.986 144.248 158.542 176.898 164.679 195.641C170.815 214.383 182.616 232.758 182.309 245.373C182.003 257.987 168.426 274.089 157.728 293.304C170.457 309.878 202.75 329.346 212.23 328.979C221.711 328.62 270.26 309.878 269.262 308.794C257.996 281.293 240.357 262.664 239.035 248.249L239.026 248.24Z" fill="#E1EFFF"/>
<path d="M198.959 135.594L200.07 144.641L202.758 135.48L204.561 142.001L200.018 145.236L195.221 142.246L198.959 135.594Z" fill="#E6E6E6"/>
<path d="M198.959 135.594C198.959 135.594 195.405 147.85 189.364 145.918C183.324 143.986 176.732 135.48 176.732 135.48L183.569 124.833L198.959 135.594Z" fill="white"/>
<path d="M202.758 135.48C202.758 135.48 202.443 146.355 210.05 146.792C217.648 147.229 224.179 133.784 224.179 133.784L215.722 123.713L202.766 135.48H202.758Z" fill="white"/>
<path d="M155.986 144.239C155.986 144.239 139.388 147.718 141.034 194.032C141.034 208.832 131.291 244.14 130.748 254.63C130.205 265.129 152.09 276.161 156.108 249.787C160.126 223.413 165.781 198.403 165.51 188.446C165.239 178.489 161.501 149.615 155.986 144.23V144.239Z" fill="#E1EFFF"/>
<path d="M159.532 255.058C159.532 263.258 151.067 273.136 142.864 273.136C134.662 273.136 128 266.492 128 258.293C128 250.093 134.688 244.201 142.864 243.449C155.986 242.252 159.532 255.058 159.532 255.058Z" fill="#CFDDF1"/>
<path d="M246.974 137.272C246.974 137.272 269.796 141.94 268.176 184.993C268.877 207.844 281.929 234.174 284.178 258.302C284.555 262.314 262.714 258.328 261.103 254.359C253.583 235.818 247.167 203.019 245.547 194.111C243.928 185.212 241.372 151.469 246.965 137.263L246.974 137.272Z" fill="#E1EFFF"/>
<path d="M140.046 249.971C146.725 247.418 155.523 251.448 155.952 261.763C156.381 272.079 154.263 290.358 157.965 295.664C162.404 295.506 169.626 295.104 169.626 295.104L176.06 297.771C176.06 297.771 174.003 300.314 169.433 299.327C164.864 298.339 164.671 300.804 167.288 303.549L168.348 304.362L155.628 317.833C155.628 317.833 149.816 312.081 148.135 309.117C146.454 306.154 145.955 302.946 143.854 296.774C141.753 290.602 118.818 258.057 140.046 249.953V249.971Z" fill="#756451"/>
<path d="M272.44 375.825C272.099 375.843 271.862 375.773 271.748 375.624C271.127 374.846 272.659 372.853 276.222 368.815C277.876 366.944 278.883 364.531 279.487 362.486C279.557 361.996 279.776 358.053 281.413 355.938C283.032 355.938 281.246 370.624 279.793 372.827C276.064 378.483 271.6 379.855 270.978 379.077C270.575 378.57 271.083 377.556 272.44 375.817V375.825Z" fill="#6e533c"/>
<path d="M286.883 372.172C286.883 372.172 272.544 384.515 271.695 381.788C271.205 380.205 275.932 375.45 278.996 371.796C280.773 368.107 279.293 363.718 279.293 363.718C279.293 363.718 274.453 374.025 273.288 371.918C272.255 370.039 273.56 364.33 277.157 358.5C278.103 356.961 279.845 357.075 280.44 355.09C281 353.219 281.053 352.057 281.053 352.057C281.053 352.057 281.114 351.261 281.079 350.85C277.49 320.587 265.331 292.569 263.86 283.574C262.013 272.245 260.919 261.938 262.398 258.607C262.398 258.607 280.186 259.971 284.187 267.576C287.864 274.561 288.538 339.451 287.995 351.856C288.109 352.232 288.187 352.669 288.24 353.167C289.387 361.043 286.883 372.18 286.883 372.18V372.172Z" fill="#756451"/>
<path d="M259.002 248.694L260.919 261.929L285.824 268.328L286.944 251.579L259.002 248.694Z" fill="#CFDDF1"/>
<path d="M168.348 304.371L150.568 323.366L171.543 306.941L168.348 304.371Z" fill="url(#paint3_linear_1133_1483)"/>
<path d="M212.23 328.97C212.694 328.952 213.271 328.883 213.902 328.778C214.497 294.405 215.189 236.08 213.385 220.354C211.529 204.208 205.594 164.118 202.469 143.304L200.079 144.65L199.887 144.528C203.038 165.543 208.842 204.767 210.672 220.668C212.44 236.063 211.748 294.632 211.162 328.935C211.547 328.97 211.906 328.987 212.23 328.97Z" fill="#B6C7DD"/>
<path style="mix-blend-mode:multiply" d="M177.137 211.253C177.137 211.253 215.855 203.692 242.371 208.526C240.69 224.497 203.862 242.776 177.137 211.253Z" fill="url(#paint4_radial_1133_1483)"/>
<path d="M222.98 181.409H241.18C241.18 181.409 239.543 200.405 232.076 198.63C224.609 196.856 222.98 181.409 222.98 181.409Z" fill="#CFDDF1"/>
<path d="M290.001 353.29C290.001 356.026 288.836 358.237 287.392 358.237C285.947 358.237 284.783 356.026 284.783 353.29C284.783 350.553 285.947 348.342 287.392 348.342C288.836 348.342 290.001 350.553 290.001 353.29Z" fill="#303030"/>
<path d="M290 353.29C290 355.772 289.134 357.792 288.074 357.792C287.015 357.792 286.148 355.772 286.148 353.29C286.148 350.807 287.015 348.788 288.074 348.788C289.134 348.788 290 350.807 290 353.29Z" fill="#454545"/>
<path d="M285.414 351.262L281.002 351.821L280.73 353.989L285.256 354.54L285.414 351.262Z" fill="#EDEDED"/>
<path d="M288.556 355.982L287.541 353.132L288.198 351.227L288.513 351.331L287.891 353.124L288.872 355.868L288.556 355.982Z" fill="#7D7D7D"/>
</g>
<defs fill="#000000">
<linearGradient id="paint0_linear_1133_1483" x1="197.173" y1="154.021" x2="197.173" y2="102.183" gradientUnits="userSpaceOnUse" fill="#000000">
<stop stop-color="#7a6959" fill="#000000"/>
<stop offset="0.77" stop-color="#755431" fill="#000000"/>
</linearGradient>
<linearGradient id="paint1_linear_1133_1483" x1="201.856" y1="69.1123" x2="201.856" y2="104.193" gradientUnits="userSpaceOnUse" fill="#000000">
<stop offset="0.28" stop-color="#7a6959" fill="#000000"/>
<stop offset="1" stop-color="#6e533c" fill="#000000"/>
</linearGradient>
<linearGradient id="paint2_linear_1133_1483" x1="234.212" y1="340.806" x2="230.362" y2="496.794" gradientUnits="userSpaceOnUse" fill="#000000">
<stop stop-color="#C1210D" fill="#000000"/>
<stop offset="0.52" stop-color="#C1210D" fill="#000000"/>
<stop offset="1" stop-color="#9D1D06" fill="#000000"/>
</linearGradient>
<linearGradient id="paint3_linear_1133_1483" x1="157.843" y1="317.903" x2="130.237" y2="345.906" gradientUnits="userSpaceOnUse" fill="#000000">
<stop stop-color="#3D3D3D" fill="#000000"/>
<stop offset="1" stop-color="#2E2E2E" fill="#000000"/>
</linearGradient>
<radialGradient id="paint4_radial_1133_1483" cx="0" cy="0" r="1" gradientUnits="userSpaceOnUse" gradientTransform="translate(209.666 195.981) scale(32.6346 32.5893)" fill="#000000">
<stop stop-color="#DBDBDB" fill="#000000"/>
<stop offset="0.17" stop-color="#E3E3E3" fill="#000000"/>
<stop offset="0.67" stop-color="#F7F7F7" fill="#000000"/>
<stop offset="1" stop-color="white" fill="#000000"/>
</radialGradient>
<clipPath id="clip0_1133_1483" fill="#000000">
<rect width="162" height="643" fill="white" transform="translate(128)"/>
</clipPath>
</defs>
</svg>