<svg xmlns="http://www.w3.org/2000/svg" width="420" height="663" viewBox="0 0 420 663" fill="none">
<path fill-rule="evenodd" clip-rule="evenodd" d="M209.66 625.13C325.45 625.13 419.31 633.48 419.31 643.77C419.31 654.06 325.45 662.41 209.66 662.41C93.8698 662.41 0.00976562 654.07 0.00976562 643.77C0.00976562 633.47 93.8698 625.13 209.66 625.13Z" fill="#E2E2F2"/>
<g clip-path="url(#clip0_826_1471)">
<path d="M232.492 131.397C226.678 127.271 198.12 116.363 177.177 122.101C174.054 130.64 173.352 134.55 173.352 134.55L232.492 144.152V131.397Z" fill="#B8B8B8"/>
<path d="M237.866 142.062C228.055 134.478 210.217 125.794 197.877 125.596C185.538 125.398 180.903 125.776 168.384 134.541C155.864 143.314 206.797 189.659 206.797 189.659L247.586 175.057L237.866 142.053V142.062Z" fill="#401C00"/>
<path d="M286.215 642.217C286.215 642.217 241.511 641.74 241.511 642.217C241.511 642.695 242.366 640.731 242.366 640.731C242.366 640.731 257.207 628.129 258.935 627.841C260.654 627.553 263.489 630.3 264.614 630.751C265.739 631.201 283.92 638.38 284.784 639.146C285.648 639.911 286.224 642.208 286.224 642.208L286.215 642.217Z" fill="#454545"/>
<path d="M106.3 642.217C106.3 642.217 138.521 641.74 138.521 642.217C138.521 642.695 137.855 640.731 137.855 640.731C137.855 640.731 133.985 633.471 130.429 631.39C129.25 630.696 123.265 630.408 122.392 630.849C121.519 631.3 108.082 638.371 107.416 639.146C106.75 639.911 106.3 642.208 106.3 642.208V642.217Z" fill="#454545"/>
<path d="M265.586 161.969C272.265 167.104 294.927 186.209 298.059 189.686C301.182 193.163 312.01 213.908 315.106 222.222C318.202 230.536 330.01 255.037 329.668 268.594C329.317 282.151 323.296 300.896 305.898 307.778C288.51 314.66 275.136 293.275 271.491 268.423C267.845 243.57 258.998 156.907 265.595 161.969H265.586Z" fill="#E1EFFF"/>
<path d="M285.225 396.558C285.225 424.662 264.425 539.637 261.023 572.317C257.045 610.456 264.614 630.759 264.614 630.759C264.614 630.759 260.843 629.453 259.763 629.453C258.683 629.453 242.366 640.74 242.366 640.74C242.366 640.74 235.985 578.586 232.763 537.421C230.027 502.435 224.95 460.18 224.95 460.18C224.95 460.18 204.16 497.301 181.164 545.492C175.62 557.103 137.846 640.74 137.846 640.74L122.384 630.867C122.384 630.867 130.601 604.979 133.535 593.17C153.363 513.46 156.675 459.378 157.683 437.949C158.007 431.013 161.661 397.071 161.661 397.071C167.943 375.552 204.673 380.146 229.208 379.029C265.469 377.38 285.207 372.417 285.216 396.567L285.225 396.558Z" fill="url(#paint0_linear_826_1471)"/>
<path d="M242.51 393.622L238.415 433.994C238.415 433.994 223.862 432.724 236.156 397.081L242.51 393.622Z" fill="url(#paint1_linear_826_1471)"/>
<path d="M179.346 63.8389C179.346 63.8389 181.02 107.058 179.787 123.362C179.031 133.388 145.262 148.638 145.262 162.375C181.605 165.095 268.367 187.56 268.367 172.58C268.367 157.6 232.618 148.476 231.043 136.324C229.468 124.164 227.254 102.068 227.254 102.068L194.619 96.7712L179.355 63.8389H179.346Z" fill="url(#paint2_linear_826_1471)"/>
<path d="M243.941 150.016L215.878 139.207L168.591 141.45L241.475 233.437C241.475 233.437 246.191 170.275 243.941 150.016Z" fill="#F7F7F7"/>
<path d="M237.866 142.062C232.52 162.771 208.813 150.656 208.813 150.656L168.384 134.541C168.384 134.541 144.975 150.764 139.313 155.421C133.643 160.078 122.663 194.632 134.138 225.015C145.614 255.398 158.997 291.762 161.724 327.172C163.551 350.925 161.67 397.045 161.67 397.045C161.67 397.045 207.328 397.936 242.51 397.549C269.943 397.243 285.225 396.54 285.225 396.54C285.225 396.54 286.089 299.5 280.923 274.062C279.015 261.622 291.921 243.913 287.619 227.645C283.317 211.377 272.256 172.193 265.587 161.961L237.875 142.053L237.866 142.062Z" fill="#E1EFFF"/>
<path d="M161.67 397.107L161.058 402.845L285.225 404.17V396.603L161.67 397.107Z" fill="#707070"/>
<path d="M200.155 396.973H203.809L204.16 407.593H200.083L200.155 396.973Z" fill="url(#paint3_linear_826_1471)"/>
<path d="M269.375 396.621L268.412 405.998H272.057L272.813 396.558L269.375 396.621Z" fill="url(#paint4_linear_826_1471)"/>
<path d="M250.439 395.153H237.263L237.38 405.746L251.006 405.106V403.494L239.729 403.737L238.892 397.342L250.961 396.765L250.439 395.153Z" fill="url(#paint5_linear_826_1471)"/>
<path d="M246.541 399.467L235.579 399.26V400.269L246.541 401.512C246.541 401.512 247.891 400.566 246.541 399.467Z" fill="url(#paint6_linear_826_1471)"/>
<path d="M215.878 139.207L231.575 155.43L228.371 173.193C228.371 173.193 238.559 199.297 243.464 229.257C252.896 286.853 260.907 380.254 260.907 380.713C260.907 381.416 246.839 399.567 246.839 399.567L230.387 381.893C230.387 381.893 235.85 287.952 233.024 229.023C231.611 199.586 224.069 174.166 224.024 174.166C223.88 174.166 203.539 156.889 203.539 156.889L215.887 139.198L215.878 139.207Z" fill="url(#paint7_linear_826_1471)"/>
<path d="M187.429 215.07C187.429 215.07 181.228 216.79 182.722 229.014C184.216 241.246 190.489 243.273 190.489 243.273C190.489 243.273 198.706 237.301 196.357 227.167C194.017 217.034 187.429 215.07 187.429 215.07Z" fill="#ADADAD"/>
<path d="M187.581 216.304C187.581 216.304 183.45 215.854 181.695 215.764C179.94 215.673 170.049 220.258 170.049 220.258C170.049 220.258 170.49 244.174 183.783 246.903C184.98 245.552 186.465 243.273 187.437 241.589C189.381 241.418 190.119 240.958 190.119 240.958C190.119 240.958 195.654 224.492 187.563 216.304H187.581Z" fill="url(#paint8_linear_826_1471)"/>
<path d="M139.313 155.43C131.465 161.078 99.667 188.524 98.695 193.623C97.723 198.721 119.765 304.328 147.008 312.065C174.252 319.803 187.671 300.139 189.66 286.609C193.08 263.379 185.016 239.355 178.248 222.168C167.394 194.604 139.304 155.43 139.304 155.43H139.313Z" fill="#E1EFFF"/>
<path d="M288.501 252.2C288.501 252.2 288.492 234.626 274.677 231.266C261.896 232.428 196.726 240.814 185.772 244.489C168.384 250.317 148.682 256.407 142.4 273.927C134.219 296.743 142.868 312.3 154.577 313.588C167.052 314.957 200.362 313.768 235.517 300.392C270.671 287.015 288.51 252.218 288.51 252.218L288.501 252.2Z" fill="#E1EFFF"/>
<path d="M276.206 233.914C276.089 233.572 282.201 220.295 282.66 219.493C283.119 218.682 290.238 212.395 290.238 212.395L303.594 210.593C303.594 210.593 305.097 212.494 304.764 215.205C304.71 215.638 293.883 218.232 293.865 218.691C301.425 218.619 309.408 219.484 309.408 219.484C309.408 219.484 312.225 223.042 311.874 225.582C312.999 227.897 312.801 230.717 311.874 233.122L309.624 232.905C309.624 232.905 310.065 236.121 307.986 238.472C303.954 237.445 299.391 236.77 299.391 236.77C299.391 236.77 293.784 238.941 292.371 239.382C291.039 240.202 290.67 248.444 287.475 249.813C281.472 249.255 276.188 233.905 276.188 233.905L276.206 233.914Z" fill="url(#paint9_linear_826_1471)"/>
<path d="M306.006 242.625C271.751 220.691 229.684 215.763 187.419 215.07C191.973 217.043 197.949 228.239 190.479 243.273C236.182 270.134 256.685 311.128 298.833 309.084C332.782 307.435 326.158 255.524 306.015 242.625H306.006Z" fill="#EEF7FF"/>
<path d="M189.129 216.142L184.962 215.764C184.962 215.764 188.625 219.304 188.922 228.194C189.165 235.374 187.437 241.589 187.437 241.589L190.839 242.526C190.839 242.526 193.827 236.77 194.142 229.744C194.547 220.835 189.129 216.142 189.129 216.142Z" fill="#C2D8F0"/>
<path d="M215.878 139.207L232.996 156.898L244.553 147.07L232.492 131.397L215.878 139.207Z" fill="#CFDDF1"/>
<path d="M215.878 139.207C215.878 139.207 208.138 151.854 203.53 159.114C172.551 144.738 163.794 135.874 163.794 135.874L177.186 122.101C177.186 122.101 190.246 131.523 215.878 139.207Z" fill="#CFDDF1"/>
<path d="M179.184 309.769L182.46 307.859C183.477 309.607 184.035 310.615 185.133 312.687L181.047 313.138C179.976 311.12 180.183 311.489 179.184 309.778V309.769ZM172.271 299.257L175.304 296.978C176.565 298.662 177.825 300.455 179.049 302.319L175.88 304.4C174.701 302.608 173.486 300.878 172.28 299.257H172.271ZM164.045 289.862L166.682 287.123C168.212 288.6 169.733 290.204 171.2 291.879L168.338 294.374C166.943 292.771 165.503 291.258 164.045 289.853V289.862ZM154.316 282.241L156.305 279.007C158.141 280.133 159.959 281.412 161.723 282.799L159.374 285.781C157.727 284.484 156.026 283.295 154.316 282.241ZM143.147 277.242L144.209 273.594C146.315 274.206 148.412 274.981 150.446 275.891L148.889 279.35C147.017 278.512 145.082 277.791 143.147 277.233V277.242ZM119.674 272.99C121.861 272.468 122.338 272.378 124.462 272.116L124.921 275.882C122.941 276.125 122.941 276.008 120.889 276.494L119.665 272.981L119.674 272.99ZM131.059 275.512L131.077 271.711C133.309 271.711 135.541 271.882 137.702 272.188L137.17 275.945C135.172 275.656 133.12 275.512 131.059 275.503V275.512Z" fill="#C2D8F0"/>
<path d="M289.14 304.877L292.929 304.661C293.037 306.616 293.091 307.057 293.424 309.147L289.572 308.813C289.221 306.597 289.257 306.949 289.14 304.868V304.877ZM289.176 298.31C289.338 296.04 289.671 293.843 290.166 291.771L293.856 292.644C293.415 294.518 293.109 296.518 292.965 298.581L289.185 298.31H289.176ZM292.308 285.447C293.235 283.403 294.378 281.457 295.71 279.664L298.752 281.925C297.582 283.502 296.583 285.204 295.764 287.015L292.308 285.447ZM300.237 274.737C301.848 273.305 303.657 271.981 305.601 270.801L307.563 274.053C305.808 275.115 304.188 276.304 302.748 277.584L300.237 274.737ZM311.496 267.828C313.44 267.017 315.528 266.297 317.688 265.684L318.714 269.341C316.698 269.909 314.763 270.585 312.954 271.332L311.496 267.828ZM324.043 264.234C326.113 263.865 327.13 263.73 329.335 263.522L329.677 267.306C327.589 267.504 326.68 267.621 324.718 267.972L324.052 264.234H324.043Z" fill="#C2D8F0"/>
<path d="M173.352 68.2347C173.352 68.2347 166.151 62.6409 160.841 69.2886C155.027 76.5669 166.862 97.7891 179.076 88.34L173.352 68.2347Z" fill="#8a7362"/>
<path d="M174.648 84.6287C174.351 84.6287 174.063 84.4666 173.919 84.1784C169.815 76.1795 164.496 75.8552 164.442 75.8552C163.992 75.8372 163.641 75.4498 163.659 74.9995C163.677 74.5491 164.055 74.1888 164.514 74.2158C164.766 74.2248 170.85 74.5851 175.386 83.4307C175.593 83.8361 175.431 84.3315 175.026 84.5387C174.909 84.6017 174.774 84.6287 174.648 84.6287Z" fill="#522806"/>
<path d="M251.024 68.2347C251.024 68.2347 258.224 62.6409 263.534 69.2886C269.348 76.5669 257.513 97.7891 245.3 88.34L251.024 68.2347Z" fill="#8a7362"/>
<path d="M249.728 84.629C249.602 84.629 249.476 84.602 249.35 84.5389C248.945 84.3317 248.783 83.8363 248.99 83.431C253.526 74.5854 259.601 74.2251 259.862 74.2161C260.312 74.171 260.699 74.5493 260.717 74.9997C260.735 75.4501 260.384 75.8374 259.934 75.8555C259.7 75.8645 254.516 76.2518 250.457 84.1786C250.313 84.4669 250.025 84.629 249.728 84.629Z" fill="#522806"/>
<path d="M212.349 95.8616C237.884 95.8616 258.584 75.6568 258.584 50.7328C258.584 25.8089 237.884 5.604 212.349 5.604C186.815 5.604 166.115 25.8089 166.115 50.7328C166.115 75.6568 186.815 95.8616 212.349 95.8616Z" fill="black"/>
<path d="M173.28 45.6884C173.28 45.6884 166.062 119.057 210.757 119.102C259.907 119.156 251.762 45.6884 251.762 45.6884C251.762 45.6884 251.501 14.3145 212.17 14.3145C176.115 14.3145 173.28 45.6884 173.28 45.6884Z" fill="url(#paint10_linear_826_1471)"/>
<path d="M211.819 87.7003H208.687C208.237 87.7003 207.868 87.331 207.868 86.8806C207.868 86.4302 208.237 86.0609 208.687 86.0609H211.819C212.107 86.0609 212.368 85.9438 212.557 85.7366C212.746 85.5294 212.836 85.2502 212.809 84.9709L212.08 74.4139C212.053 73.9635 212.386 73.5671 212.845 73.5401C213.313 73.5131 213.691 73.8464 213.718 74.3058L214.447 84.8358C214.519 85.5474 214.276 86.2951 213.781 86.8446C213.286 87.394 212.566 87.7183 211.819 87.7183V87.7003Z" fill="#522806"/>
<path d="M198.426 70.5499C198.426 72.3965 196.932 73.8918 195.087 73.8918C193.242 73.8918 191.748 72.3965 191.748 70.5499C191.748 68.7033 193.242 67.208 195.087 67.208C196.932 67.208 198.426 68.7033 198.426 70.5499Z" fill="#2B232A"/>
<path d="M231.835 70.5499C231.835 72.3965 230.341 73.8918 228.496 73.8918C226.651 73.8918 225.157 72.3965 225.157 70.5499C225.157 68.7033 226.651 67.208 228.496 67.208C230.341 67.208 231.835 68.7033 231.835 70.5499Z" fill="#2B232A"/>
<path d="M211.198 95.6995C204.295 95.6995 200.839 92.2586 200.668 92.0874C200.353 91.7631 200.353 91.2407 200.677 90.9254C201.001 90.6101 201.523 90.6101 201.838 90.9254C202.009 91.0966 206.185 95.1771 214.735 93.7358C215.176 93.6548 215.608 93.961 215.68 94.4114C215.752 94.8618 215.455 95.2852 215.005 95.3572C213.637 95.5914 212.359 95.6905 211.189 95.6905L211.198 95.6995Z" fill="#522806"/>
<path d="M183.936 60.4433C187.032 59.4344 195.681 58.3535 202.684 58.4075C203.512 58.4075 203.98 57.5338 203.476 56.9303C201.955 55.1017 197.338 51.3995 190.614 52.8678C190.614 52.8678 185.673 54.3451 182.397 58.5246C182.181 58.8039 182.1 59.1552 182.172 59.4885C182.325 60.2361 183.162 60.6955 183.936 60.4343V60.4433Z" fill="#2B232A"/>
<path d="M238.639 60.4433C235.543 59.4344 226.894 58.3535 219.892 58.4075C219.064 58.4075 218.596 57.5338 219.1 56.9303C220.621 55.1017 225.238 51.3995 231.961 52.8678C231.961 52.8678 236.902 54.3451 240.178 58.5246C240.394 58.8039 240.475 59.1552 240.403 59.4885C240.25 60.2361 239.413 60.6955 238.639 60.4343V60.4433Z" fill="#2B232A"/>
<path d="M170.499 57.7676L177.897 46.1025C177.897 46.1025 178.41 30.9065 185.719 18.3677C185.719 18.3677 166.323 31.9874 170.499 57.7676Z" fill="black"/>
<path d="M253.139 57.7676L245.741 46.1025C245.741 46.1025 245.228 30.9065 237.92 18.3677C237.92 18.3677 257.315 31.9874 253.139 57.7676Z" fill="black"/>
<path d="M174.864 27.7449C174.864 27.7449 224.267 56.2184 252.59 19.9532C252.59 19.9532 206.113 -29.076 174.864 27.7449Z" fill="black"/>
</g>
<defs fill="#000000">
<linearGradient id="paint0_linear_826_1471" x1="201.352" y1="417.987" x2="205.751" y2="588.747" gradientUnits="userSpaceOnUse" fill="#000000">
<stop stop-color="#454545" fill="#000000"/>
<stop offset="1" stop-color="#2E2E2E" fill="#000000"/>
</linearGradient>
<linearGradient id="paint1_linear_826_1471" x1="231.224" y1="413.808" x2="242.51" y2="413.808" gradientUnits="userSpaceOnUse" fill="#000000">
<stop stop-color="#3D3D3D" fill="#000000"/>
<stop offset="1" stop-color="#262626" fill="#000000"/>
</linearGradient>
<linearGradient id="paint2_linear_826_1471" x1="234.589" y1="81.8994" x2="202.193" y2="180.996" gradientUnits="userSpaceOnUse" fill="#000000">
<stop stop-color="#877060" fill="#000000"/>
<stop offset="1" stop-color="#6b4028" fill="#000000"/>
</linearGradient>
<linearGradient id="paint3_linear_826_1471" x1="200.083" y1="402.287" x2="204.16" y2="402.287" gradientUnits="userSpaceOnUse" fill="#000000">
<stop stop-color="#3D3D3D" fill="#000000"/>
<stop offset="1" stop-color="#262626" fill="#000000"/>
</linearGradient>
<linearGradient id="paint4_linear_826_1471" x1="268.412" y1="401.278" x2="272.813" y2="401.278" gradientUnits="userSpaceOnUse" fill="#000000">
<stop stop-color="#3D3D3D" fill="#000000"/>
<stop offset="1" stop-color="#262626" fill="#000000"/>
</linearGradient>
<linearGradient id="paint5_linear_826_1471" x1="237.263" y1="400.449" x2="251.006" y2="400.449" gradientUnits="userSpaceOnUse" fill="#000000">
<stop stop-color="#3D3D3D" fill="#000000"/>
<stop offset="1" stop-color="#262626" fill="#000000"/>
</linearGradient>
<linearGradient id="paint6_linear_826_1471" x1="235.588" y1="400.386" x2="247.144" y2="400.386" gradientUnits="userSpaceOnUse" fill="#000000">
<stop stop-color="#3D3D3D" fill="#000000"/>
<stop offset="1" stop-color="#262626" fill="#000000"/>
</linearGradient>
<linearGradient id="paint7_linear_826_1471" x1="198.562" y1="145.422" x2="216.356" y2="212.955" gradientUnits="userSpaceOnUse" fill="#000000">
<stop stop-color="#C1210D" fill="#000000"/>
<stop offset="0.52" stop-color="#C1210D" fill="#000000"/>
<stop offset="1" stop-color="#9D1D06" fill="#000000"/>
</linearGradient>
<linearGradient id="paint8_linear_826_1471" x1="173.505" y1="236.049" x2="182.051" y2="229.876" gradientUnits="userSpaceOnUse" fill="#000000">
<stop stop-color="#8a6851" fill="#000000"/>
<stop offset="1" stop-color="#6b4028" fill="#000000"/>
</linearGradient>
<linearGradient id="paint9_linear_826_1471" x1="297.546" y1="226.825" x2="290.692" y2="233.233" gradientUnits="userSpaceOnUse" fill="#000000">
<stop stop-color="#8a6851" fill="#000000"/>
<stop offset="1" stop-color="#6b4028" fill="#000000"/>
</linearGradient>
<linearGradient id="paint10_linear_826_1471" x1="212.557" y1="80.3592" x2="212.557" y2="125.632" gradientUnits="userSpaceOnUse" fill="#000000">
<stop stop-color="#877060" fill="#000000"/>
<stop offset="1" stop-color="#6b4028" fill="#000000"/>
</linearGradient>
<clipPath id="clip0_826_1471" fill="#000000">
<rect width="231" height="642" fill="white" transform="translate(98.668 0.29834)"/>
</clipPath>
</defs>
</svg>