<svg width="139" height="107" viewBox="0 0 139 107" fill="none" xmlns="http://www.w3.org/2000/svg">
<g clip-path="url(#clip0_286_2072)">
<path d="M11.3301 75.7549H58.6609C64.9142 75.7549 69.9911 80.8231 69.9911 87.0657V107.003H0V87.0657C0 80.8231 5.07683 75.7549 11.3301 75.7549Z" fill="#0078C8"/>
<path d="M11.3301 75.7549H50.9238C57.1771 75.7549 62.2539 80.8231 62.2539 87.0657V107.003H0V87.0657C0 80.8231 5.07683 75.7549 11.3301 75.7549Z" fill="#3C87D0"/>
<path d="M16.6468 41.5966C16.6468 46.1605 13.5625 49.8602 9.76109 49.8602C5.95965 49.8602 2.1582 46.1605 2.1582 41.5966C2.1582 37.0328 5.95965 33.333 9.76109 33.333C13.5625 33.333 16.6468 37.0328 16.6468 41.5966Z" fill="#FFA78F"/>
<path d="M52.959 41.5966C52.959 46.1605 56.0432 49.8602 59.8447 49.8602C63.6461 49.8602 67.4476 46.1605 67.4476 41.5966C67.4476 37.0328 63.6461 33.333 59.8447 33.333C56.0432 33.333 52.959 37.0328 52.959 41.5966Z" fill="#FFA78F"/>
<path d="M45.0379 63.5131V77.0106C45.0379 82.5267 40.5582 86.9989 35.0326 86.9989C29.5071 86.9989 25.0273 82.5267 25.0273 77.0106V63.5131C25.0273 58.0005 29.5071 53.5283 35.0326 53.5283C37.7954 53.5283 40.2967 54.6464 42.1091 56.4521C43.918 58.2615 45.0379 60.7585 45.0379 63.5131Z" fill="#FFB09E"/>
<path d="M45.0379 63.5131V72.3022C42.0844 73.6036 38.8164 74.3266 35.3824 74.3266H34.2731C30.9945 74.3266 27.8714 73.6706 25.0273 72.4785V63.5131C25.0273 58.0005 29.5071 53.5283 35.0326 53.5283C37.7954 53.5283 40.2967 54.6464 42.1091 56.4521C43.918 58.2615 45.0379 60.7585 45.0379 63.5131Z" fill="#FFA78F"/>
<path d="M27.281 34.3274H5.882L4.76205 20.8898C4.15086 13.5609 9.94488 7.27588 17.3111 7.27588H27.2775V34.3274H27.281Z" fill="#868686"/>
<path d="M35.3824 13.0957H34.273C21.0459 13.0957 10.3232 23.8001 10.3232 37.0048V46.2665C10.3232 59.4711 21.0459 70.1755 34.273 70.1755H35.3824C48.6095 70.1755 59.3322 59.4711 59.3322 46.2665V37.0048C59.3322 23.8001 48.6095 13.0957 35.3824 13.0957Z" fill="#FFCEBF"/>
<path d="M50.4473 22.2198V33.118H24.1552C19.3786 33.118 15.1073 30.9665 12.2598 27.5807C15.9199 19.0632 24.3989 13.0991 34.2735 13.0991H35.3829C40.8201 13.0991 45.8333 14.9084 49.8538 17.9557C50.2389 19.31 50.4473 20.742 50.4473 22.2198Z" fill="#FFCEBF"/>
<path d="M35.3826 13.0957H34.2733C33.3265 13.0957 32.3902 13.1557 31.4717 13.265C43.3777 14.6511 52.6199 24.7487 52.6199 37.0048V46.263C52.6199 58.5226 43.3777 68.6202 31.4717 70.0027C32.3902 70.1085 33.3229 70.172 34.2733 70.172H35.3826C48.61 70.172 59.3324 59.4678 59.3324 46.263V37.0048C59.3324 23.7999 48.61 13.0957 35.3826 13.0957Z" fill="#FFB09E"/>
<path d="M26.2889 0H35.8172C51.666 0 64.5329 12.8451 64.5329 28.6669V35.1741H30.9135C22.3355 35.1741 15.3721 28.2225 15.3721 19.6591V10.8947C15.3721 4.8848 20.2652 0 26.2889 0Z" fill="#5A5A5A"/>
<path d="M50.4473 22.2198V33.118H24.1552C19.3786 33.118 15.1073 30.9665 12.2598 27.5807C15.9199 19.0632 24.3989 13.0991 34.2735 13.0991H35.3829C40.8201 13.0991 45.8333 14.9084 49.8538 17.9557C50.2389 19.31 50.4473 20.742 50.4473 22.2198Z" fill="#FFB09E"/>
<path d="M26.2889 0H30.0196C45.024 0 57.2056 12.1609 57.2056 27.1397V35.1741H30.9135C22.3355 35.1741 15.3721 28.2225 15.3721 19.6591V10.8947C15.3721 4.8848 20.2652 0 26.2889 0Z" fill="#868686"/>
<path d="M22.777 45.4374C23.9477 45.4374 24.8968 44.49 24.8968 43.3212C24.8968 42.1525 23.9477 41.2051 22.777 41.2051C21.6063 41.2051 20.6572 42.1525 20.6572 43.3212C20.6572 44.49 21.6063 45.4374 22.777 45.4374Z" fill="black"/>
<path d="M46.6842 45.4374C47.8549 45.4374 48.804 44.49 48.804 43.3212C48.804 42.1525 47.8549 41.2051 46.6842 41.2051C45.5135 41.2051 44.5645 42.1525 44.5645 43.3212C44.5645 44.49 45.5135 45.4374 46.6842 45.4374Z" fill="black"/>
<path d="M33.9197 49.8604H34.8277V54.4383C34.8277 57.1294 32.6408 59.3125 29.9451 59.3125H25.3594V58.4061C25.3594 53.6906 29.1961 49.8604 33.9197 49.8604Z" fill="#4E4E4E"/>
<path d="M44.2998 59.3159H39.714C37.0184 59.3159 34.8315 57.1327 34.8315 54.4417V49.8637H35.7395C40.463 49.8637 44.2998 53.694 44.2998 58.4095V59.3159Z" fill="#4E4E4E"/>
<path d="M122.597 75.4128H90.2881C81.3851 75.4128 74.3934 67.7099 75.1601 58.7515L76.2624 45.8923L79.2477 31.8023L79.283 31.6436L135.379 32.9908V38.6798C135.379 38.6798 136.149 43.8503 136.753 50.3892C136.919 52.2373 137.255 55.0342 137.651 58.0955C138.824 67.2761 131.758 75.4128 122.593 75.4128H122.597Z" fill="#4E4E4E"/>
<path d="M116.396 75.7549H90.4647C81.4557 75.7549 74.3828 68.0521 75.16 59.0937L76.2764 46.2345L78.0535 32.1162L129.331 33.333V39.0219C129.331 39.0219 130.111 44.1924 130.719 50.7313C130.892 52.5795 131.231 55.3763 131.627 58.4377C132.818 67.6183 125.667 75.7549 116.396 75.7549Z" fill="#5A5A5A"/>
<path d="M89.3839 75.7549H123.717C129.97 75.7549 135.047 80.8231 135.047 87.0657V107.003H78.0537V87.0657C78.0537 80.8231 83.1305 75.7549 89.3839 75.7549Z" fill="#F07281"/>
<path d="M89.3839 75.7549H117.414C123.668 75.7549 128.744 80.8231 128.744 87.0657V107.003H78.0537V87.0657C78.0537 80.8231 83.1305 75.7549 89.3839 75.7549Z" fill="#F58A97"/>
<path d="M88.2034 42.5912C88.2034 47.1551 85.1192 50.8548 81.3177 50.8548C77.5163 50.8548 73.7148 47.1551 73.7148 42.5912C73.7148 38.0274 77.5163 34.3276 81.3177 34.3276C85.1192 34.3276 88.2034 38.0274 88.2034 42.5912Z" fill="#FFA78F"/>
<path d="M124.512 42.5912C124.512 47.1551 127.596 50.8548 131.397 50.8548C135.199 50.8548 139 47.1551 139 42.5912C139 38.0274 135.199 34.3276 131.397 34.3276C127.596 34.3276 124.512 38.0274 124.512 42.5912Z" fill="#FFA78F"/>
<path d="M116.595 63.5131V77.0106C116.595 82.5267 112.115 86.9989 106.589 86.9989C101.064 86.9989 96.584 82.5267 96.584 77.0106V63.5131C96.584 58.0005 101.064 53.5283 106.589 53.5283C109.352 53.5283 111.853 54.6464 113.666 56.4521C115.475 58.2615 116.595 60.7585 116.595 63.5131Z" fill="#FFB09E"/>
<path d="M116.595 63.5131V72.3022C113.641 73.6036 110.373 74.3266 106.939 74.3266H105.83C102.551 74.3266 99.428 73.6706 96.584 72.4785V63.5131C96.584 58.0005 101.064 53.5283 106.589 53.5283C109.352 53.5283 111.853 54.6464 113.666 56.4521C115.475 58.2615 116.595 60.7585 116.595 63.5131Z" fill="#FFA78F"/>
<path d="M106.935 13.0957H105.826C92.5987 13.0957 81.876 23.8001 81.876 37.0048V46.2665C81.876 59.4711 92.5987 70.1755 105.826 70.1755H106.935C120.162 70.1755 130.885 59.4711 130.885 46.2665V37.0048C130.885 23.8001 120.162 13.0957 106.935 13.0957Z" fill="#FFCEBF"/>
<path d="M131.485 34.3242H123.921C112.058 34.3242 102.423 24.7063 102.423 12.8629V2.36318C118.463 2.36318 131.485 15.3634 131.485 31.3757V34.3242Z" fill="#FFB09E"/>
<path d="M106.938 13.0957H105.829C104.882 13.0957 103.946 13.1557 103.027 13.265C114.933 14.6511 124.176 24.7487 124.176 37.0048V46.263C124.176 58.5226 114.933 68.6202 103.027 70.0027C103.946 70.1085 104.879 70.172 105.829 70.172H106.938C120.166 70.172 130.888 59.4678 130.888 46.263V37.0048C130.888 23.7999 120.166 13.0957 106.938 13.0957Z" fill="#FFB09E"/>
<path d="M94.3297 45.4374C95.5004 45.4374 96.4495 44.49 96.4495 43.3212C96.4495 42.1525 95.5004 41.2051 94.3297 41.2051C93.159 41.2051 92.21 42.1525 92.21 43.3212C92.21 44.49 93.159 45.4374 94.3297 45.4374Z" fill="black"/>
<path d="M118.237 45.4374C119.408 45.4374 120.357 44.49 120.357 43.3212C120.357 42.1525 119.408 41.2051 118.237 41.2051C117.066 41.2051 116.117 42.1525 116.117 43.3212C116.117 44.49 117.066 45.4374 118.237 45.4374Z" fill="black"/>
<path d="M106.38 60.2118C102.31 60.2118 99 56.5932 99 52.1422C99 51.3628 99.6324 50.7314 100.413 50.7314C101.194 50.7314 101.826 51.3628 101.826 52.1422C101.826 55.0378 103.868 57.3903 106.38 57.3903C108.892 57.3903 110.934 55.0343 110.934 52.1422C110.934 51.3628 111.567 50.7314 112.347 50.7314C113.128 50.7314 113.761 51.3628 113.761 52.1422C113.761 56.5932 110.45 60.2118 106.38 60.2118Z" fill="#F74734"/>
<path d="M106.621 0V14.5733C106.621 26.4167 96.9862 36.0346 85.1226 36.0346H77.5586V29.0125C77.5586 13.0003 90.581 0 106.621 0Z" fill="#5A5A5A"/>
<path d="M135.683 36.0347H128.119C116.255 36.0347 106.621 26.4167 106.621 14.5733V2.67029e-05C122.66 2.67029e-05 135.683 13.0003 135.683 29.0126V36.0347Z" fill="#5A5A5A"/>
</g>
<defs>
<clipPath id="clip0_286_2072">
<rect width="139" height="107" fill="white"/>
</clipPath>
</defs>
</svg>
