<svg width="118" height="114" viewBox="0 0 118 114" fill="none" xmlns="http://www.w3.org/2000/svg">
<g clip-path="url(#clip0_205_2044)">
<path d="M52.3081 12.4478L23.8511 31.093V82.8706H86.5874V35.5256L52.3081 12.4478Z" fill="#C6E1EA"/>
<path d="M95.4873 31.093L58.9481 8.09863L52.3081 12.4477L86.5874 35.5255V82.8705H95.4873V31.093Z" fill="#A1C6D2"/>
<path d="M47.467 46.0126V82.9633H59.5486V44.4268H49.049C48.1777 44.4268 47.47 45.1362 47.47 46.0096L47.467 46.0126Z" fill="#0880AE"/>
<path d="M70.2921 44.4268H59.5486V82.9633H71.8711V46.0126C71.8711 45.1392 71.1633 44.4297 70.2921 44.4297V44.4268Z" fill="#0880AE"/>
<path d="M44.3507 2H30.6812C30.0226 2 29.4888 2.53517 29.4888 3.19532V6.05695C29.4888 6.71711 30.0226 7.25227 30.6812 7.25227H44.3507C45.0092 7.25227 45.5431 6.71711 45.5431 6.05695V3.19532C45.5431 2.53517 45.0092 2 44.3507 2Z" fill="#FF8F00"/>
<path d="M31.7874 6.94824V26.7471L37.4401 23.0061V6.94824H31.7874Z" fill="#FFB100"/>
<path d="M43.3219 6.94824H37.4402V23.0061L43.3219 19.1161V6.94824Z" fill="#FF8F00"/>
<path d="M104.604 40.8854C103.959 40.8854 103.305 40.7006 102.728 40.3161L59.3672 11.3779L16.5984 39.6663C15.0343 40.7006 12.929 40.2684 11.8972 38.7005C10.8653 37.1325 11.2965 35.0221 12.8606 33.9877L59.3821 3.21631L106.486 34.6525C108.047 35.6928 108.47 37.8062 107.432 39.3682C106.778 40.3519 105.701 40.8854 104.604 40.8854Z" fill="#C0232C"/>
<path d="M101.916 86.707H17.4191C15.8134 86.707 14.511 85.4014 14.511 83.7918C14.511 82.1821 15.8134 80.8765 17.4191 80.8765H101.916C103.522 80.8765 104.824 82.1821 104.824 83.7918C104.824 85.4014 103.522 86.707 101.916 86.707Z" fill="#275872"/>
<path d="M7.97799 89.3032H7.79065C5.75754 89.3032 4.10938 90.9554 4.10938 92.9935V93.3095C4.10938 95.3476 5.75754 96.9998 7.79065 96.9998H7.97799C10.0111 96.9998 11.6593 95.3476 11.6593 93.3095V92.9935C11.6593 90.9554 10.0111 89.3032 7.97799 89.3032Z" fill="#37556B"/>
<path d="M53.7622 88.5435H53.5748C51.5417 88.5435 49.8936 90.1957 49.8936 92.2338V93.3069C49.8936 95.345 51.5417 96.9972 53.5748 96.9972H53.7622C55.7953 96.9972 57.4434 95.345 57.4434 93.3069V92.2338C57.4434 90.1957 55.7953 88.5435 53.7622 88.5435Z" fill="#37556B"/>
<path d="M54.2706 65.2508C54.2706 65.2508 55.7395 65.0391 55.7871 64.0286C55.8346 63.0181 56.2361 62.8154 56.923 62.8154C57.6099 62.8154 61.1484 62.8482 61.1484 64.4519C61.1484 66.0556 57.6693 66.7174 54.6541 66.8396L54.2676 65.2508H54.2706Z" fill="#37556B"/>
<path d="M6.88084 65.2508C6.88084 65.2508 5.41189 65.0391 5.36432 64.0286C5.31674 63.0181 4.91531 62.8154 4.22841 62.8154C3.54152 62.8154 0 62.8512 0 64.4549C0 66.0586 3.47907 66.7204 6.49427 66.8426L6.88084 65.2538V65.2508Z" fill="#37556B"/>
<path d="M4.8677 68.6013C4.8677 68.6013 1.55217 73.6359 1.4927 78.1728C1.4362 82.7097 2.20339 86.5699 2.60482 88.0693C3.00625 89.5686 3.00625 91.8549 8.31704 91.8549C13.6278 91.8549 54.1546 91.5867 54.1546 91.5867C54.1546 91.5867 58.3325 92.1053 58.9866 86.2241C59.6379 80.3429 59.6765 79.6901 59.5992 78.2116C59.5219 76.733 59.2543 73.8506 57.2412 70.351C55.2281 66.8515 51.1453 58.3024 50.1105 56.5526C49.5129 55.5451 48.6892 54.5554 48.0974 53.8997C47.6395 53.3929 47.0151 53.071 46.3371 52.9994C43.7828 52.7222 36.8544 52.0366 30.6902 52.0366C24.526 52.0366 17.1515 52.7669 14.4872 53.0561C13.7914 53.1306 13.1521 53.4674 12.6971 54.004C11.9061 54.934 10.6424 56.6033 9.62244 58.8032C8.01076 62.2818 4.8677 68.6042 4.8677 68.6042V68.6013Z" fill="#FF6F53"/>
<path d="M8.68876 65.4834L52.424 65.2211L47.8417 55.116C47.5414 54.4512 46.8842 54.019 46.1557 54.0071L30.4374 53.709L14.9422 54.168C14.2196 54.1889 13.5714 54.6211 13.274 55.2829L8.68579 65.4834H8.68876Z" fill="#37556B"/>
<path d="M40.39 77.1118H20.146V79.5829H40.39V77.1118Z" fill="#37556B"/>
<path d="M41.0649 84.1226H20.0507C19.021 84.1226 18.1863 84.9593 18.1863 85.9916V87.8009C18.1863 88.8332 19.021 89.6699 20.0507 89.6699H41.0649C42.0946 89.6699 42.9293 88.8332 42.9293 87.8009V85.9916C42.9293 84.9593 42.0946 84.1226 41.0649 84.1226Z" fill="#37556B"/>
<path d="M15.5665 75.0611L17.2169 77.7737C17.7194 78.5994 17.1277 79.6546 16.1642 79.6546H7.7639C7.27326 79.6546 6.80046 79.4728 6.44066 79.1389C5.6378 78.3967 4.30861 76.9599 4.30861 75.5976C4.30861 73.6422 4.15101 73.2279 4.15101 73.2279C4.15101 73.2279 4.03802 71.9491 5.87568 72.2889C7.40112 72.5691 12.8546 73.9403 14.6626 74.3964C15.0372 74.4917 15.3614 74.7302 15.5636 75.0611H15.5665Z" fill="#E1E6E9"/>
<path d="M8.51333 77.9554C9.61528 77.9554 10.5086 77.0599 10.5086 75.9552C10.5086 74.8506 9.61528 73.9551 8.51333 73.9551C7.41138 73.9551 6.51807 74.8506 6.51807 75.9552C6.51807 77.0599 7.41138 77.9554 8.51333 77.9554Z" fill="#BDBEC1"/>
<path d="M8.4241 89.1335C9.92348 89.1335 11.139 87.915 11.139 86.412C11.139 84.9089 9.92348 83.6904 8.4241 83.6904C6.92472 83.6904 5.70923 84.9089 5.70923 86.412C5.70923 87.915 6.92472 89.1335 8.4241 89.1335Z" fill="#EBF0F3"/>
<path d="M12.8072 79.0312C13.6677 79.0312 14.3653 78.3318 14.3653 77.4692C14.3653 76.6065 13.6677 75.9072 12.8072 75.9072C11.9466 75.9072 11.249 76.6065 11.249 77.4692C11.249 78.3318 11.9466 79.0312 12.8072 79.0312Z" fill="#BDBEC1"/>
<path d="M45.5907 75.0611L43.9403 77.7737C43.4378 78.5994 44.0295 79.6546 44.993 79.6546H53.3933C53.8839 79.6546 54.3567 79.4728 54.7165 79.1389C55.5194 78.3967 56.8486 76.9599 56.8486 75.5976C56.8486 73.6422 57.0062 73.2279 57.0062 73.2279C57.0062 73.2279 57.1192 71.9491 55.2815 72.2889C53.7561 72.5691 48.3026 73.9403 46.4946 74.3964C46.12 74.4917 45.7958 74.7302 45.5936 75.0611H45.5907Z" fill="#E1E6E9"/>
<path d="M52.6439 77.9554C53.7459 77.9554 54.6392 77.0599 54.6392 75.9552C54.6392 74.8506 53.7459 73.9551 52.6439 73.9551C51.542 73.9551 50.6487 74.8506 50.6487 75.9552C50.6487 77.0599 51.542 77.9554 52.6439 77.9554Z" fill="#BDBEC1"/>
<path d="M52.7332 89.1335C54.2326 89.1335 55.448 87.915 55.448 86.412C55.448 84.9089 54.2326 83.6904 52.7332 83.6904C51.2338 83.6904 50.0183 84.9089 50.0183 86.412C50.0183 87.915 51.2338 89.1335 52.7332 89.1335Z" fill="#EBF0F3"/>
<path d="M48.3501 79.0312C49.2107 79.0312 49.9083 78.3318 49.9083 77.4692C49.9083 76.6065 49.2107 75.9072 48.3501 75.9072C47.4896 75.9072 46.792 76.6065 46.792 77.4692C46.792 78.3318 47.4896 79.0312 48.3501 79.0312Z" fill="#BDBEC1"/>
</g>
<path d="M113.615 76.0381H45.1854C42.7638 76.0381 40.8008 78.0078 40.8008 80.4376V108.27C40.8008 110.7 42.7638 112.67 45.1854 112.67H113.615C116.037 112.67 118 110.7 118 108.27V80.4376C118 78.0078 116.037 76.0381 113.615 76.0381Z" fill="#AA1B17"/>
<path d="M104.019 76.0381H44.7831C42.3615 76.0381 40.3984 78.0078 40.3984 80.4376V108.27C40.3984 110.7 42.3615 112.67 44.7831 112.67H104.019C106.441 112.67 108.404 110.7 108.404 108.27V80.4376C108.404 78.0078 106.441 76.0381 104.019 76.0381Z" fill="#C21B17"/>
<path d="M88.791 67.4805H69.6028V76.0379H88.791V67.4805Z" fill="#FFB700"/>
<path d="M88.791 58.9888H69.6028V67.4804H88.791V58.9888Z" fill="#FFE563"/>
<path d="M88.791 42.0103H69.6028V50.5019H88.791V42.0103Z" fill="#FFE563"/>
<path d="M88.791 50.502H69.6028V58.9936H88.791V50.502Z" fill="#FFB700"/>
<path d="M107.983 67.4805H88.7949V76.0379H107.983V67.4805Z" fill="#FFE563"/>
<path d="M107.983 58.9893H88.7949V67.4809H107.983V58.9893Z" fill="#FFB700"/>
<path d="M47.25 104V86.15H50.85V101.05H57.225V104H47.25ZM62.0473 95.075C62.0473 96.275 62.0723 97.3 62.1223 98.15C62.1889 98.9833 62.3056 99.6667 62.4723 100.2C62.6556 100.717 62.9056 101.1 63.2223 101.35C63.5556 101.583 63.9889 101.7 64.5223 101.7C65.0556 101.7 65.4806 101.583 65.7973 101.35C66.1306 101.1 66.3806 100.717 66.5473 100.2C66.7306 99.6667 66.8473 98.9833 66.8973 98.15C66.9639 97.3 66.9973 96.275 66.9973 95.075C66.9973 93.875 66.9639 92.8583 66.8973 92.025C66.8473 91.1917 66.7306 90.5083 66.5473 89.975C66.3806 89.4417 66.1306 89.0583 65.7973 88.825C65.4806 88.575 65.0556 88.45 64.5223 88.45C63.9889 88.45 63.5556 88.575 63.2223 88.825C62.9056 89.0583 62.6556 89.4417 62.4723 89.975C62.3056 90.5083 62.1889 91.1917 62.1223 92.025C62.0723 92.8583 62.0473 93.875 62.0473 95.075ZM58.4473 95.075C58.4473 93.725 58.5056 92.4833 58.6223 91.35C58.7556 90.2 59.0306 89.2167 59.4473 88.4C59.8806 87.5833 60.4973 86.95 61.2973 86.5C62.0973 86.0333 63.1723 85.8 64.5223 85.8C65.8723 85.8 66.9473 86.0333 67.7473 86.5C68.5473 86.95 69.1556 87.5833 69.5723 88.4C70.0056 89.2167 70.2806 90.2 70.3973 91.35C70.5306 92.4833 70.5973 93.725 70.5973 95.075C70.5973 96.4417 70.5306 97.6917 70.3973 98.825C70.2806 99.9583 70.0056 100.933 69.5723 101.75C69.1556 102.567 68.5473 103.192 67.7473 103.625C66.9473 104.058 65.8723 104.275 64.5223 104.275C63.1723 104.275 62.0973 104.058 61.2973 103.625C60.4973 103.192 59.8806 102.567 59.4473 101.75C59.0306 100.933 58.7556 99.9583 58.6223 98.825C58.5056 97.6917 58.4473 96.4417 58.4473 95.075ZM80.1639 97.275L78.4389 89.25H78.3889L76.6639 97.275H80.1639ZM80.6389 86.15L85.3639 104H81.6139L80.7889 100.225H76.0389L75.2139 104H71.4639L76.1889 86.15H80.6389ZM90.7555 86.15L95.1055 98.375H95.1555V86.15H98.4555V104H94.3555L89.9555 91.5H89.9055V104H86.6055V86.15H90.7555ZM103.861 98.425V98.95C103.861 99.3667 103.894 99.75 103.961 100.1C104.028 100.433 104.153 100.717 104.336 100.95C104.519 101.183 104.761 101.367 105.061 101.5C105.378 101.633 105.769 101.7 106.236 101.7C106.786 101.7 107.278 101.525 107.711 101.175C108.161 100.808 108.386 100.25 108.386 99.5C108.386 99.1 108.328 98.7583 108.211 98.475C108.111 98.175 107.936 97.9083 107.686 97.675C107.436 97.4417 107.103 97.2333 106.686 97.05C106.286 96.85 105.786 96.65 105.186 96.45C104.386 96.1833 103.694 95.8917 103.111 95.575C102.528 95.2583 102.036 94.8917 101.636 94.475C101.253 94.0417 100.969 93.55 100.786 93C100.603 92.4333 100.511 91.7833 100.511 91.05C100.511 89.2833 101.003 87.9667 101.986 87.1C102.969 86.2333 104.319 85.8 106.036 85.8C106.836 85.8 107.569 85.8917 108.236 86.075C108.919 86.2417 109.503 86.525 109.986 86.925C110.486 87.3083 110.869 87.8083 111.136 88.425C111.419 89.025 111.561 89.75 111.561 90.6V91.1H108.111C108.111 90.25 107.961 89.6 107.661 89.15C107.361 88.6833 106.861 88.45 106.161 88.45C105.761 88.45 105.428 88.5083 105.161 88.625C104.894 88.7417 104.678 88.9 104.511 89.1C104.361 89.2833 104.253 89.5 104.186 89.75C104.136 90 104.111 90.2583 104.111 90.525C104.111 91.075 104.228 91.5417 104.461 91.925C104.694 92.2917 105.194 92.6333 105.961 92.95L108.736 94.15C109.419 94.45 109.978 94.7667 110.411 95.1C110.844 95.4167 111.186 95.7667 111.436 96.15C111.703 96.5167 111.886 96.925 111.986 97.375C112.086 97.825 112.136 98.325 112.136 98.875C112.136 100.758 111.586 102.133 110.486 103C109.403 103.85 107.886 104.275 105.936 104.275C103.903 104.275 102.444 103.833 101.561 102.95C100.694 102.067 100.261 100.8 100.261 99.15V98.425H103.861Z" fill="white"/>
<defs>
<clipPath id="clip0_205_2044">
<rect width="108" height="95" fill="white" transform="translate(0 2)"/>
</clipPath>
</defs>
</svg>
