<svg width="89" height="103" viewBox="0 0 89 103" fill="none" xmlns="http://www.w3.org/2000/svg">
<g clip-path="url(#clip0_205_2072)">
<path d="M13.3017 75.2153H5.24731V90.6354H13.3017V75.2153Z" fill="#14A38B"/>
<path d="M30.0876 56.9302H22.0332V90.6351H30.0876V56.9302Z" fill="#14A38B"/>
<path d="M46.6013 51.9004H38.5469V90.6391H46.6013V51.9004Z" fill="#14A38B"/>
<path d="M62.8669 39.4966H54.8125V90.6351H62.8669V39.4966Z" fill="#14A38B"/>
<path d="M79.5153 28.2397H71.4609V90.6352H79.5153V28.2397Z" fill="#14A38B"/>
<path d="M88.9997 83.3778C88.9997 92.9906 82.1997 100.986 73.2236 102.666C72.0763 102.887 70.8983 103 69.6898 103C59.0271 103 50.3799 94.2111 50.3799 83.3739C50.3799 72.5368 59.0271 63.748 69.6898 63.748C70.8945 63.748 72.0763 63.8608 73.2236 64.0823C82.1997 65.7654 88.9997 73.7612 88.9997 83.3701V83.3778Z" fill="#FECE85"/>
<path d="M88.9996 83.378C88.9996 92.9908 82.1996 100.987 73.2235 102.666C64.2474 100.987 57.4551 92.9869 57.4551 83.378C57.4551 73.7692 64.2474 65.7696 73.2235 64.0903C82.1996 65.7734 88.9996 73.7692 88.9996 83.378Z" fill="#FFE177"/>
<path d="M76.8653 87.0162C76.8653 82.7249 73.473 81.4227 70.5358 80.7735L70.291 80.7152C68.3482 80.2488 67.7018 79.9767 67.7018 79.2887C67.7018 78.4374 68.7918 77.6328 69.9468 77.6328C71.1018 77.6328 71.8361 77.9088 72.4748 78.1847C72.9988 78.4063 73.5571 78.624 74.0964 78.624C75.4158 78.624 76.3375 77.3801 76.3375 76.2606C76.3375 75.2889 75.8442 74.492 74.9187 73.9984C74.0428 73.5669 73.0714 73.252 72.0197 73.0655V72.2958C72.0197 70.9625 71.163 70.0996 69.8321 70.0996C68.5776 70.0996 67.7018 71.0131 67.7018 72.323V73.2404C64.8181 74.1461 62.7988 76.6532 62.7988 79.4597C62.7988 83.9104 67.3232 84.9522 69.2546 85.3953C71.4881 85.9045 71.9394 86.4487 71.9394 87.1445C71.9202 88.3611 70.7002 88.9053 69.4993 88.9053C68.1761 88.9053 67.2658 88.5127 66.4818 88.089L66.2868 88.0035C65.9005 87.8519 65.4148 87.6576 64.822 87.6576C63.5752 87.6576 62.5234 88.8043 62.5234 90.1647C62.5234 90.8566 62.8065 91.8401 64.1336 92.5631C65.0782 93.115 66.3212 93.496 67.7056 93.6631V94.5533C67.7056 95.836 68.5623 96.6639 69.8933 96.6639C71.2242 96.6639 72.1076 95.801 72.1076 94.3978L72.0923 93.4144C75.064 92.5242 76.873 90.1375 76.873 87.0201L76.8653 87.0162Z" fill="#FECE85"/>
<path d="M81.2857 0H66.439C65.3835 0 64.5268 0.870707 64.5268 1.94354C64.5268 3.01638 65.3835 3.88709 66.439 3.88709H76.3904L52.1354 27.9365L44.3411 20.1312C43.5953 19.3849 42.3982 19.3849 41.6524 20.1312L0.565795 61.482C-0.183808 62.2361 -0.191457 63.4683 0.554321 64.2302C0.929123 64.615 1.41866 64.8055 1.91202 64.8055C2.40538 64.8055 2.88344 64.6189 3.25824 64.2419L42.9986 24.2476L50.7853 32.0451C51.5273 32.7876 52.7167 32.7915 53.4625 32.0529L79.3735 6.35927V16.9671C79.3735 18.04 80.2302 18.9107 81.2857 18.9107C82.3413 18.9107 83.198 18.04 83.198 16.9671V1.94354C83.198 0.870707 82.3413 0 81.2857 0Z" fill="#0880AE"/>
</g>
<defs>
<clipPath id="clip0_205_2072">
<rect width="89" height="103" fill="white"/>
</clipPath>
</defs>
</svg>
