<svg width="112" height="106" viewBox="0 0 112 106" fill="none" xmlns="http://www.w3.org/2000/svg">
<g clip-path="url(#clip0_205_1934)">
<path d="M54.2023 1.94159C51.3287 3.16824 48.4379 4.3526 45.5557 5.56657C45.3166 5.66385 19.6117 17.647 10.2051 22.1518C9.42367 22.5283 9.00095 23.1416 8.93263 24.0214C8.69351 27.2276 8.42878 30.4254 8.28787 32.1935C8.25798 42.5185 9.10343 51.2912 11.3451 59.9117C13.5868 68.5194 17.0754 76.5603 22.3701 83.7722C29.5222 93.522 38.9715 100.256 50.2783 104.537C52.9043 105.531 54.181 106.017 55.4961 106V1.66665C55.0691 1.66242 54.6464 1.75125 54.2023 1.94159Z" fill="#A0A0A0"/>
<path d="M102.615 32.0326C102.606 31.4573 102.589 30.8778 102.538 30.3026C102.376 28.5176 102.175 26.3604 102.021 24.2074C101.944 23.1499 101.445 22.5154 100.51 22.0332C86.2352 14.6479 71.5937 8.04934 56.7216 1.93298C56.3031 1.75956 55.8975 1.67073 55.4961 1.6665V106C56.7344 105.983 58.0025 105.518 60.462 104.604C77.6484 98.2297 89.5145 86.4623 96.3806 69.674C99.0664 63.122 100.732 56.2992 101.68 49.3031C101.919 47.535 102.299 43.6266 102.312 43.4743C102.448 41.6893 102.696 36.88 102.615 32.0326Z" fill="#707070"/>
<path d="M112 14.479C111.283 15.5661 110.143 15.5745 109.216 15.5449C108.858 16.522 108.614 17.4018 108.204 18.1928C108.076 18.4381 107.5 18.565 107.128 18.5608C106.086 18.5481 105.749 17.9009 105.536 15.6253C104.336 15.3673 102.444 15.8495 102.547 13.7726C102.636 11.9453 104.297 12.3471 105.531 12.2456C105.728 10.9471 105.267 9.15361 107.325 9.24243C109.152 9.3228 108.828 10.9428 108.93 12.2414C110.109 12.2837 111.364 12.1018 111.996 13.3919V14.4748L112 14.479Z" fill="black"/>
<path d="M92.8195 30.2559C92.7555 29.283 92.2773 28.6866 91.419 28.2467C80.0824 22.3841 68.4554 17.1349 56.6277 12.3213C55.9701 12.0548 55.0094 12.0591 54.3476 12.3213C50.2399 13.9837 46.1237 15.6544 42.1014 17.5156C34.6163 20.9883 27.1994 24.5963 19.7484 28.1367C18.8346 28.5724 18.2283 29.1477 18.1087 30.2305C17.2804 37.8189 17.5067 45.3776 18.809 52.894C19.2616 55.5165 19.7826 58.1517 20.5938 60.6939C21.2386 62.72 22.8313 67.0471 22.9338 67.2882C29.0184 81.6316 39.6206 91.0134 54.6038 95.5732C55.0991 95.7212 55.7054 95.772 56.1879 95.6282C61.1367 94.1647 65.808 92.0751 70.1078 89.2284C79.6554 82.8963 85.8596 74.0729 89.4975 63.3883C92.1919 55.4827 93.2807 47.3233 93.4643 38.999C93.2465 36.0804 93.016 33.1702 92.8195 30.2516V30.2559Z" fill="#FFCE00"/>
<path d="M23.2839 26.4536C22.1054 27.0162 20.9269 27.583 19.7484 28.1413C18.8346 28.577 18.2283 29.1523 18.1087 30.2351C17.2804 37.8234 17.5067 45.3822 18.809 52.8986C19.2616 55.5211 19.7826 58.1563 20.5938 60.6985C21.2386 62.7246 22.8313 67.0517 22.9338 67.2928C27.2336 77.4317 33.7964 85.092 42.5669 90.3201C18.92 62.5977 22.6434 30.7807 23.2839 26.4536Z" fill="#F14440"/>
<path d="M54.3475 12.3261C50.2399 13.9884 46.1237 15.6592 42.1014 17.5203C35.8033 20.4432 29.5478 23.459 23.2838 26.4538C22.6434 30.7809 18.9157 62.5978 42.5668 90.3202C46.2005 92.4902 50.2142 94.2413 54.6037 95.5779C54.8813 95.6625 55.1887 95.7091 55.4919 95.7133V12.123C55.0862 12.123 54.6763 12.1907 54.3475 12.3261Z" fill="#C21B17"/>
<path d="M92.8198 30.2559C92.7558 29.2831 92.2775 28.6866 91.4193 28.2467C80.0827 22.3842 68.4557 17.1349 56.628 12.3214C56.2992 12.1902 55.8978 12.1226 55.4922 12.1226V95.7128C55.7356 95.717 55.9747 95.6959 56.1882 95.6325C61.137 94.1689 65.8083 92.0794 70.1081 89.2327C79.6557 82.9006 85.8599 74.0771 89.4978 63.3925C92.1922 55.487 93.281 47.3276 93.4646 39.0032C93.2468 36.0847 93.0162 33.1745 92.8198 30.2559Z" fill="#AA1B17"/>
<path d="M20.5473 6.30658C20.2698 8.7472 19.9495 9.29708 18.8479 9.32246C17.7334 9.35207 17.4132 8.8318 17.0588 6.31927C15.8419 6.17545 14.1851 6.55614 14.0613 4.59772C13.9973 3.54026 14.7573 3.15534 17.11 2.92693C17.2979 1.71719 16.8538 -0.131251 18.9546 0.00410462C20.7138 0.114081 20.368 1.7045 20.5089 2.95231C21.7685 3.08766 23.5405 2.74928 23.5021 4.70347C23.4679 6.51384 21.8155 6.20929 20.5473 6.30235V6.30658Z" fill="black"/>
<path d="M6.43087 17.1692C6.26008 18.4551 6.69988 20.1682 4.71864 20.147C2.78436 20.1259 3.20708 18.4086 2.99359 17.1734C1.72542 17.0423 0.132741 17.3934 0.00464353 15.473C-0.0679451 14.3987 0.70064 14.001 3.0064 13.7896C3.18573 12.5798 2.81852 10.816 4.78695 10.8456C6.6401 10.8752 6.29424 12.5164 6.40098 13.7642C7.68623 14.0053 9.54365 13.5527 9.41982 15.6507C9.31307 17.4357 7.70331 17.0212 6.43087 17.165V17.1692Z" fill="black"/>
<path d="M9.94922 85.3582C8.2626 85.3582 7.46839 84.859 7.4385 83.7762C7.40435 82.6553 8.24125 82.1054 9.97911 82.1054C10.1627 82.1054 10.3421 82.1012 10.5257 82.1054C11.7084 82.1519 12.4429 82.7864 12.4343 83.7466C12.4258 84.7025 11.6871 85.3158 10.4958 85.3539C10.3122 85.3581 10.1328 85.3539 9.94922 85.3539V85.3582Z" fill="black"/>
<path d="M9.87276 92.0544C9.54398 92.0544 9.2152 92.0924 8.89495 92.0459C8.02389 91.919 7.50296 91.3734 7.46453 90.5274C7.42183 89.673 7.90433 89.0554 8.76258 88.9116C9.43296 88.7974 10.1418 88.8016 10.825 88.8524C11.7942 88.9243 12.4304 89.5968 12.439 90.4428C12.4475 91.3268 11.7601 91.9952 10.7481 92.0671C10.4577 92.0882 10.1674 92.0671 9.87703 92.0671V92.0459L9.87276 92.0544Z" fill="black"/>
<path d="M9.88477 98.7796C9.55599 98.7796 9.2272 98.8135 8.90696 98.7712C8.03163 98.657 7.5107 98.1113 7.46373 97.2696C7.41249 96.4152 7.88645 95.7891 8.74897 95.6453C9.45778 95.5269 10.2007 95.5269 10.9181 95.5946C11.8617 95.6834 12.4766 96.4278 12.4339 97.2653C12.3869 98.1155 11.7336 98.7204 10.7644 98.7923C10.474 98.8135 10.1837 98.7923 9.89331 98.7923V98.7754L9.88477 98.7796Z" fill="black"/>
<path d="M75.0867 43.1193C75.0867 44.1091 74.7067 45.1031 73.9466 45.8603L54.5612 65.2499L52.866 66.9503H52.8575C52.6824 67.0983 52.533 67.2718 52.375 67.4367L52.3451 67.4706L52.1828 67.6313C50.445 69.226 48.1691 69.2852 46.491 67.6525C43.1562 64.4166 39.8598 61.1512 36.5934 57.8519C34.9537 56.198 34.9879 53.7405 36.5507 52.222C38.0579 50.7584 40.526 50.7754 42.1613 52.3319C44.0017 54.0831 45.7737 55.9019 47.5927 57.6742C48.8907 58.9474 49.7447 58.9474 51.0428 57.6742C52.3835 56.363 53.6987 55.0221 55.0223 53.6982L68.353 40.3784C69.8902 38.843 72.3924 38.8387 73.9338 40.3657C74.7024 41.1271 75.0867 42.1253 75.0867 43.1236V43.1193Z" fill="white"/>
</g>
<defs>
<clipPath id="clip0_205_1934">
<rect width="112" height="106" fill="white"/>
</clipPath>
</defs>
</svg>
