<svg width="120" height="66" viewBox="0 0 120 66" fill="none" xmlns="http://www.w3.org/2000/svg">
<g clip-path="url(#clip0_203_4927)">
<path d="M120 44.1596V50.5121C120 54.7512 116.564 58.1871 112.328 58.1871H7.67598C3.43634 58.1871 0 54.7512 0 50.5121V37.2553C0 36.5089 0.101427 35.7787 0.296166 35.081C1.18872 31.8277 4.03678 29.3167 7.52992 29.3167H7.68815C13.0475 28.2133 16.4108 26.6799 18.3704 22.3435C24.0381 9.77222 38.5787 0 55.8821 0C73.1855 0 88.8255 10.6363 93.3207 21.3942C95.1545 25.7834 97.893 27.978 103.017 28.2944L104.672 28.6108C109.395 28.6108 113.854 31.1948 116.734 34.9553C118.458 37.2066 119.615 39.884 119.919 42.6789C119.976 43.1738 120 43.6647 120 44.1636V44.1596Z" fill="#C21B17"/>
<path d="M119.801 52.2684C119.006 55.6597 115.959 58.1869 112.328 58.1869H7.67598C3.43634 58.1869 0 54.751 0 50.5119V37.2551C0 36.5087 0.101427 35.7786 0.296166 35.0808C1.04672 32.3467 3.17669 30.1359 5.91115 29.499V32.0465C5.91115 43.2142 14.9665 52.2684 26.1356 52.2684H78.2649C79.3076 48.4634 82.7926 45.6644 86.9308 45.6644C90.2171 45.6644 90.9149 49.6073 92.4566 52.2684H119.805H119.801Z" fill="#AA1B17"/>
<path d="M87.0162 25.3779L59.9434 25.244V5.76855C61.976 5.91053 63.8868 6.1661 65.6801 6.5393C74.5448 8.36474 80.5695 12.9162 84.4481 19.719C85.442 21.4593 86.294 23.3496 87.0162 25.3738V25.3779Z" fill="#79BBCF"/>
<path d="M84.4439 19.7188L73.7333 19.666C69.2746 19.6458 65.6719 16.0233 65.6719 11.5692V6.53906C74.5366 8.36451 80.5613 12.916 84.4399 19.7188H84.4439Z" fill="#A3D0E2"/>
<path d="M52.2554 5.74023V25.2035L25.0527 25.0697C28.907 16.6158 33.1872 11.3869 39.4675 8.51491C43.0012 6.89635 47.1719 6.02419 52.2554 5.74429V5.74023Z" fill="#79BBCF"/>
<path d="M52.2548 5.74023V19.7272L32.501 19.6298C34.6066 15.0054 36.8461 11.3464 39.4629 8.51086C42.9966 6.89229 47.1673 6.02014 52.2508 5.74023H52.2548Z" fill="#A3D0E2"/>
<path d="M74.4147 16.0355C74.0699 16.0355 73.725 15.9422 73.4086 15.7515L69.6233 13.4474C68.7105 12.8916 68.4224 11.699 68.9783 10.7863C69.5341 9.87357 70.7269 9.58556 71.6397 10.1413L75.4249 12.4454C76.3378 13.0012 76.6258 14.1938 76.07 15.1065C75.7049 15.7028 75.0679 16.0355 74.4147 16.0355Z" fill="white"/>
<path d="M27.7261 32.8663H22.4073C21.4052 32.8663 20.5938 32.055 20.5938 31.053C20.5938 30.0511 21.4052 29.2397 22.4073 29.2397H27.7261C28.7282 29.2397 29.5396 30.0511 29.5396 31.053C29.5396 32.055 28.7282 32.8663 27.7261 32.8663Z" fill="#A9C1D8"/>
<path d="M64.6128 32.8663H59.294C58.2919 32.8663 57.4805 32.055 57.4805 31.053C57.4805 30.0511 58.2919 29.2397 59.294 29.2397H64.6128C65.6149 29.2397 66.4263 30.0511 66.4263 31.053C66.4263 32.055 65.6149 32.8663 64.6128 32.8663Z" fill="#A9C1D8"/>
<path d="M7.65163 35.0812L5.74075 42.7278H0V37.2515C0 36.5051 0.101427 35.7749 0.296166 35.0771H7.65163V35.0812Z" fill="#F2AC57"/>
<path d="M38.672 54.3295C38.672 55.9805 38.3271 57.5504 37.7105 58.9743C35.9132 63.1079 31.7952 66.0043 26.9917 66.0043C20.545 66.0043 15.3154 60.7794 15.3154 54.3295C15.3154 49.5752 18.1554 45.4863 22.2327 43.6649C23.6852 43.0158 25.2958 42.6548 26.9917 42.6548C33.4424 42.6548 38.6679 47.8837 38.6679 54.3295H38.672Z" fill="#5C6972"/>
<path d="M38.6721 54.3295C38.6721 55.9805 38.3273 57.5504 37.7106 58.9743C36.2581 59.6233 34.6475 59.9843 32.9516 59.9843C26.505 59.9843 21.2754 54.7555 21.2754 48.3096C21.2754 46.6586 21.6202 45.0887 22.2369 43.6649C23.6893 43.0158 25.3 42.6548 26.9959 42.6548C33.4466 42.6548 38.6721 47.8837 38.6721 54.3295Z" fill="#79838B"/>
<path d="M26.9953 58.0615C29.059 58.0615 30.7319 56.3888 30.7319 54.3254C30.7319 52.2621 29.059 50.5894 26.9953 50.5894C24.9317 50.5894 23.2588 52.2621 23.2588 54.3254C23.2588 56.3888 24.9317 58.0615 26.9953 58.0615Z" fill="#F2F2F2"/>
<path d="M104.308 54.3295C104.308 55.9805 103.963 57.5504 103.346 58.9743C101.549 63.1079 97.431 66.0043 92.6274 66.0043C86.1807 66.0043 80.9512 60.7794 80.9512 54.3295C80.9512 49.5752 83.7911 45.4863 87.8685 43.6649C89.3209 43.0158 90.9316 42.6548 92.6274 42.6548C99.0782 42.6548 104.304 47.8837 104.304 54.3295H104.308Z" fill="#5C6972"/>
<path d="M104.307 54.3295C104.307 55.9805 103.962 57.5504 103.345 58.9743C101.893 59.6233 100.282 59.9843 98.5864 59.9843C92.1397 59.9843 86.9102 54.7555 86.9102 48.3096C86.9102 46.6586 87.255 45.0887 87.8717 43.6649C89.3241 43.0158 90.9348 42.6548 92.6306 42.6548C99.0814 42.6548 104.307 47.8837 104.307 54.3295Z" fill="#79838B"/>
<path d="M92.6311 58.0615C94.6947 58.0615 96.3677 56.3888 96.3677 54.3254C96.3677 52.2621 94.6947 50.5894 92.6311 50.5894C90.5674 50.5894 88.8945 52.2621 88.8945 54.3254C88.8945 56.3888 90.5674 58.0615 92.6311 58.0615Z" fill="#F2F2F2"/>
<path d="M119.919 42.6748H115.934C113.8 42.6748 111.873 41.8108 110.474 40.4113C109.078 39.0158 108.214 37.0849 108.214 34.9512H116.73C118.454 37.2026 119.61 39.8799 119.914 42.6748H119.919Z" fill="#F2AC57"/>
</g>
<defs>
<clipPath id="clip0_203_4927">
<rect width="120" height="66" fill="white"/>
</clipPath>
</defs>
</svg>
