<svg width="100" height="122" viewBox="0 0 100 122" fill="none" xmlns="http://www.w3.org/2000/svg">
<g id="ICON" clip-path="url(#clip0_336_1836)">
<path id="Vector" d="M82.4298 24.8481C86.0962 24.8481 89.0684 21.8749 89.0684 18.2072C89.0684 14.5396 86.0962 11.5664 82.4298 11.5664C78.7635 11.5664 75.7913 14.5396 75.7913 18.2072C75.7913 21.8749 78.7635 24.8481 82.4298 24.8481Z" fill="#FFD31D"/>
<path id="Vector_2" d="M82.523 6.68107C81.6106 6.68107 80.8718 5.94203 80.8718 5.02933V1.65174C80.8718 0.739048 81.6106 0 82.523 0C83.4354 0 84.1742 0.739048 84.1742 1.65174V5.02933C84.1742 5.94203 83.4354 6.68107 82.523 6.68107Z" fill="#FCB013"/>
<path id="Vector_3" d="M82.523 35.1503C81.6106 35.1503 80.8718 34.4113 80.8718 33.4986V30.121C80.8718 29.2083 81.6106 28.4692 82.523 28.4692C83.4354 28.4692 84.1742 29.2083 84.1742 30.121V33.4986C84.1742 34.4113 83.4354 35.1503 82.523 35.1503Z" fill="#FCB013"/>
<path id="Vector_4" d="M98.3489 19.3211H94.9725C94.0601 19.3211 93.3213 18.582 93.3213 17.6693C93.3213 16.7566 94.0601 16.0176 94.9725 16.0176H98.3489C99.2613 16.0176 100 16.7566 100 17.6693C100 18.582 99.2613 19.3211 98.3489 19.3211Z" fill="#FCB013"/>
<path id="Vector_5" d="M69.8872 19.3211H66.5108C65.5984 19.3211 64.8596 18.582 64.8596 17.6693C64.8596 16.7566 65.5984 16.0176 66.5108 16.0176H69.8872C70.7996 16.0176 71.5384 16.7566 71.5384 17.6693C71.5384 18.582 70.7996 19.3211 69.8872 19.3211Z" fill="#FCB013"/>
<path id="Vector_6" d="M93.6196 30.5529C93.1962 30.5529 92.7749 30.392 92.4532 30.0701L90.0653 27.6815C89.4196 27.0356 89.4196 25.9916 90.0653 25.3457C90.7109 24.6999 91.7546 24.6999 92.4002 25.3457L94.7881 27.7344C95.4337 28.3803 95.4337 29.4243 94.7881 30.0701C94.4663 30.392 94.0429 30.5529 93.6217 30.5529H93.6196Z" fill="#FCB013"/>
<path id="Vector_7" d="M73.4943 10.4228C73.0709 10.4228 72.6497 10.2618 72.3279 9.93994L69.9401 7.55127C69.2944 6.9054 69.2944 5.86142 69.9401 5.21554C70.5857 4.57179 71.6293 4.56967 72.275 5.21554L74.6628 7.60421C75.3085 8.25009 75.3085 9.29407 74.6628 9.93994C74.3411 10.2618 73.9177 10.4228 73.4964 10.4228H73.4943Z" fill="#FCB013"/>
<path id="Vector_8" d="M71.1065 30.5529C70.6831 30.5529 70.2618 30.392 69.9401 30.0701C69.2944 29.4243 69.2944 28.3803 69.9401 27.7344L72.3279 25.3457C72.9736 24.6999 74.0172 24.6999 74.6628 25.3457C75.3085 25.9916 75.3085 27.0356 74.6628 27.6815L72.275 30.0701C71.9532 30.392 71.5298 30.5529 71.1086 30.5529H71.1065Z" fill="#FCB013"/>
<path id="Vector_9" d="M91.2317 10.4231C90.8083 10.4231 90.3871 10.2621 90.0653 9.94025C89.4196 9.29437 89.4196 8.25039 90.0653 7.60452L92.4532 5.21585C93.0988 4.56998 94.1424 4.56998 94.7881 5.21585C95.4337 5.86172 95.4337 6.90571 94.7881 7.55158L92.4002 9.94025C92.0785 10.2621 91.6551 10.4231 91.2338 10.4231H91.2317Z" fill="#FCB013"/>
<path id="Vector_10" d="M58.8433 119.634C57.535 119.634 56.339 118.762 55.9834 117.438L37.9517 50.3228C37.5262 48.741 38.4639 47.1146 40.0431 46.689C41.6245 46.2634 43.2502 47.2015 43.6757 48.7812L61.7074 115.897C62.1329 117.479 61.1952 119.105 59.616 119.531C59.3577 119.601 59.0994 119.632 58.8454 119.632L58.8433 119.634Z" fill="#C2C2C2"/>
<path id="Vector_11" d="M28.2097 11.1494C8.08433 17.7415 -2.99549 42.2339 0.706957 56.7395C1.08588 58.2197 1.52196 59.6661 2.0406 61.0658C2.46821 62.222 3.70448 62.8637 4.89417 62.5418L25.2206 57.0296C23.3175 50.2935 21.806 38.0749 21.4864 28.103C21.2472 20.6469 25.3667 14.4868 28.2097 11.1494Z" fill="#C0232C"/>
<path id="Vector_12" d="M79.9889 39.9423C79.8619 39.2202 79.7137 38.5002 79.5337 37.7802C75.2915 20.6657 55.4244 7.05151 35.0684 9.63076C40.6781 12.2312 45.6401 18.5396 49.2007 24.2084C52.4946 29.4538 56.6416 41.9117 58.5617 47.9892L78.2699 42.6465C79.4554 42.3246 80.2006 41.1536 79.9889 39.9423Z" fill="#C0232C"/>
<path id="Vector_13" d="M35.0685 9.62891C33.6523 9.8089 32.234 10.0651 30.8178 10.4061C29.9329 10.6199 29.0629 10.8698 28.2098 11.1494C25.3668 14.4888 21.2473 20.6469 21.4865 28.103C21.8062 38.0748 23.3176 50.2935 25.2207 57.0296L58.5618 47.9895C56.6418 41.9119 52.4948 29.454 49.2009 24.2087C45.6403 18.5398 40.6804 12.2315 35.0685 9.63102V9.62891Z" fill="#B3222A"/>
<path id="Vector_14" d="M44.8506 73.729H76.4368" stroke="#946240" stroke-width="6" stroke-miterlimit="10" stroke-linecap="round"/>
<path id="Vector_15" d="M50.5938 73.7417L52.3063 85.7592" stroke="#946240" stroke-width="6" stroke-miterlimit="10" stroke-linecap="round"/>
<path id="Vector_16" d="M32.1599 111.365C32.1599 111.365 38.7943 118.823 61.1614 118.823C83.5285 118.823 90.1628 111.439 90.1628 111.439" stroke="#946240" stroke-width="6" stroke-miterlimit="10" stroke-linecap="round"/>
<path id="Vector_17" d="M50.797 96.5249L44.3108 114.573" stroke="#946240" stroke-width="6" stroke-miterlimit="10" stroke-linecap="round"/>
<path id="Vector_18" d="M71.5234 96.002L78.0096 114.05" stroke="#946240" stroke-width="6" stroke-miterlimit="10" stroke-linecap="round"/>
<path id="Vector_19" d="M43.1318 92.9843V88.4166C43.1318 86.3455 44.8105 84.6663 46.8808 84.6663H70.4376C71.0261 84.6663 71.5489 84.2893 71.7352 83.7324L82.3642 52.0614C82.9124 50.4266 84.661 49.5223 86.3122 50.0179L90.836 51.3795L77.1862 92.9355L43.1296 92.9843H43.1318Z" fill="#EBBC52"/>
<path id="Vector_20" d="M93.7509 51.6445L79.826 92.8321C79.3095 94.361 77.8763 95.3902 76.2633 95.3902H42.666" stroke="#946240" stroke-width="10" stroke-miterlimit="10" stroke-linecap="round"/>
</g>
<defs>
<clipPath id="clip0_336_1836">
<rect width="100" height="122" fill="white"/>
</clipPath>
</defs>
</svg>
