<svg width="176" height="297" viewBox="0 0 176 297" fill="none" xmlns="http://www.w3.org/2000/svg">
<g style="mix-blend-mode:multiply">
<path fill-rule="evenodd" clip-rule="evenodd" d="M88 265C136.603 265 176 272.167 176 281C176 289.833 136.603 297 88 297C39.3975 297 0 289.841 0 281C0 272.159 39.3975 265 88 265Z" fill="#E2E2F2"/>
</g>
<g clip-path="url(#clip0_1526_1343)">
<path d="M123.16 217.8C120.03 242.32 97.13 280 97.13 280H94.07L94.12 217.18L123.16 217.79V217.8Z" fill="url(#paint0_linear_1526_1343)"/>
<path d="M54.54 218.48C58.86 242.73 84.15 280.01 84.15 280.01H87.33L84.49 217.88L54.55 218.49L54.54 218.48Z" fill="url(#paint1_linear_1526_1343)"/>
<path d="M28.36 232.97C28.36 232.97 32.85 107.88 86.03 102.16C139.21 96.4398 150.07 223.01 150.49 225.39C120.2 254.27 61.03 253.79 28.37 232.97H28.36Z" fill="#398DA5"/>
<path d="M127.56 135.63C125.06 136.61 122.29 137.83 119.21 138.89C107.24 143.02 100.8 150.4 104.46 155.66C109.48 162.84 118.99 166.28 129.55 155.77C131.13 154.2 132.73 152.64 134.22 151.11C132.44 143.98 129.99 138.2 127.55 135.63H127.56Z" fill="#347F91"/>
<path d="M131.53 134.56C127.73 130.16 110.52 126.38 109.4 128.89C108.27 131.41 109.15 135.01 110.47 135.18C111.79 135.35 133.02 136.28 131.53 134.55V134.56Z" fill="#347F91"/>
<path d="M113.85 149.49C110.6 152.67 92.47 149.37 89.34 145.08C87.43 142.46 88.48 135.72 92.72 136.01C94.67 136.14 98.53 139.68 102.5 142.44C108.66 146.7 117.96 145.46 113.84 149.49H113.85Z" fill="#347F91"/>
<path d="M115.01 153.78C113.94 158.2 96.82 165.02 91.89 163.04C88.88 161.83 86.2 155.57 89.95 153.56C91.67 152.64 96.82 153.6 101.65 153.82C109.13 154.17 116.36 148.19 115.01 153.78Z" fill="#347F91"/>
<path d="M83.53 177.39C83.53 177.39 48.8 191.67 45.04 154.5L65.92 142.81L83.53 177.4V177.39Z" fill="#347F91"/>
<path d="M138.96 222.72C138.78 220.67 136.97 219.15 134.92 219.33C132.87 219.51 131.35 221.31 131.53 223.36C131.7 225.41 133.51 226.93 135.56 226.75C137.61 226.57 139.13 224.77 138.95 222.72H138.96Z" fill="#C1210D"/>
<path d="M136.63 216.45C136.54 215.38 135.59 214.58 134.52 214.68C133.45 214.78 132.65 215.72 132.74 216.79C132.83 217.87 133.94 220.51 135.01 220.41C136.09 220.32 136.72 217.52 136.63 216.45Z" fill="#C1210D"/>
<path d="M133.88 229.96C133.97 231.03 134.92 231.83 135.99 231.73C137.06 231.64 137.86 230.69 137.76 229.62C137.67 228.54 136.56 225.9 135.49 226C134.42 226.09 133.78 228.88 133.87 229.96H133.88Z" fill="#C1210D"/>
<path d="M142.01 224.58C143.08 224.49 143.88 223.54 143.79 222.47C143.7 221.4 142.75 220.6 141.68 220.69C140.6 220.78 137.96 221.89 138.06 222.96C138.15 224.03 140.94 224.67 142.02 224.58H142.01Z" fill="#C1210D"/>
<path d="M128.5 221.83C127.43 221.92 126.63 222.87 126.73 223.94C126.82 225.01 127.77 225.81 128.84 225.71C129.92 225.62 132.55 224.51 132.46 223.44C132.37 222.37 129.58 221.73 128.5 221.82V221.83Z" fill="#C1210D"/>
<path d="M139.06 228.95C139.89 229.65 141.12 229.53 141.81 228.71C142.51 227.89 142.4 226.66 141.57 225.96C140.75 225.27 138.1 224.18 137.4 225.01C136.71 225.83 138.23 228.26 139.06 228.95Z" fill="#C1210D"/>
<path d="M131.45 217.46C130.63 216.76 129.39 216.87 128.7 217.7C128.01 218.52 128.11 219.75 128.94 220.45C129.77 221.14 132.42 222.23 133.11 221.4C133.8 220.57 132.28 218.15 131.45 217.46Z" fill="#C1210D"/>
<path d="M129.51 227.01C128.81 227.84 128.92 229.06 129.75 229.76C130.57 230.45 131.81 230.35 132.5 229.52C133.19 228.7 134.28 226.05 133.45 225.35C132.63 224.66 130.2 226.18 129.51 227.01Z" fill="#C1210D"/>
<path d="M141.01 219.4C141.7 218.57 141.59 217.35 140.77 216.65C139.95 215.96 138.72 216.06 138.02 216.89C137.33 217.71 136.24 220.36 137.06 221.06C137.89 221.75 140.31 220.23 141 219.4H141.01Z" fill="#C1210D"/>
<path d="M44.29 223.24C44.68 221.29 43.73 219.2 42.17 218.57C40.62 217.94 39.03 219.01 38.65 220.96C38.26 222.91 39.21 225.01 40.76 225.63C42.32 226.26 43.89 225.19 44.29 223.24Z" fill="#C1210D"/>
<path d="M44.17 216.59C44.38 215.57 43.88 214.47 43.06 214.15C42.25 213.82 41.42 214.38 41.21 215.4C41.01 216.42 41.15 219.27 41.96 219.6C42.77 219.93 43.95 217.61 44.16 216.59H44.17Z" fill="#C1210D"/>
<path d="M38.71 227.93C38.51 228.95 39 230.05 39.82 230.38C40.63 230.71 41.46 230.15 41.67 229.13C41.88 228.11 41.73 225.26 40.91 224.93C40.1 224.6 38.92 226.92 38.71 227.94V227.93Z" fill="#C1210D"/>
<path d="M46.07 226.13C46.89 226.46 47.71 225.9 47.91 224.88C48.11 223.86 47.62 222.76 46.81 222.44C45.99 222.11 43.76 222.11 43.56 223.13C43.35 224.15 45.25 225.81 46.07 226.14V226.13Z" fill="#C1210D"/>
<path d="M36.81 218.4C35.99 218.07 35.17 218.63 34.97 219.66C34.76 220.68 35.26 221.77 36.07 222.1C36.89 222.43 39.12 222.43 39.32 221.41C39.53 220.39 37.63 218.73 36.81 218.4Z" fill="#C1210D"/>
<path d="M42.78 229.01C43.21 229.97 44.15 230.34 44.87 229.85C45.59 229.36 45.83 228.19 45.39 227.23C44.96 226.28 43.28 224.26 42.56 224.74C41.84 225.23 42.35 228.04 42.78 229V229.01Z" fill="#C1210D"/>
<path d="M40.09 215.52C39.66 214.56 38.72 214.19 38 214.68C37.28 215.17 37.04 216.34 37.48 217.3C37.91 218.26 39.59 220.27 40.31 219.79C41.03 219.3 40.53 216.49 40.09 215.53V215.52Z" fill="#C1210D"/>
<path d="M36.23 223.54C35.5 224.03 35.27 225.2 35.7 226.15C36.13 227.11 37.07 227.48 37.79 226.99C38.51 226.5 39.98 224.49 39.55 223.53C39.12 222.57 36.94 223.04 36.22 223.53L36.23 223.54Z" fill="#C1210D"/>
<path d="M46.64 220.99C47.36 220.5 47.6 219.33 47.16 218.37C46.73 217.41 45.79 217.03 45.07 217.53C44.34 218.02 42.87 220.03 43.3 220.99C43.73 221.95 45.91 221.48 46.63 220.99H46.64Z" fill="#C1210D"/>
<path d="M56.49 184.2C56.82 182.29 55.63 180.51 53.83 180.22C52.04 179.93 50.31 181.23 49.99 183.14C49.66 185.04 50.85 186.83 52.64 187.12C54.43 187.42 56.15 186.11 56.49 184.2Z" fill="#C1210D"/>
<path d="M55.97 177.99C56.14 176.99 55.52 176.06 54.58 175.9C53.64 175.75 52.74 176.43 52.57 177.43C52.4 178.43 52.73 181.08 53.66 181.23C54.6 181.39 55.8 178.98 55.97 177.99Z" fill="#C1210D"/>
<path d="M50.44 189.67C50.27 190.67 50.89 191.6 51.83 191.76C52.77 191.91 53.67 191.23 53.84 190.23C54.01 189.23 53.69 186.58 52.75 186.43C51.81 186.27 50.61 188.67 50.44 189.67Z" fill="#C1210D"/>
<path d="M58.66 186.58C59.6 186.73 60.5 186.05 60.67 185.05C60.85 184.06 60.22 183.12 59.29 182.97C58.36 182.82 55.83 183.24 55.66 184.23C55.49 185.23 57.73 186.43 58.67 186.58H58.66Z" fill="#C1210D"/>
<path d="M47.76 181.08C46.82 180.93 45.92 181.61 45.75 182.61C45.57 183.61 46.19 184.54 47.13 184.69C48.07 184.85 50.59 184.43 50.76 183.43C50.93 182.44 48.7 181.23 47.76 181.08Z" fill="#C1210D"/>
<path d="M55.11 189.9C55.65 190.72 56.73 190.89 57.52 190.3C58.31 189.7 58.51 188.56 57.96 187.75C57.42 186.94 55.41 185.36 54.62 185.95C53.83 186.55 54.57 189.09 55.11 189.9Z" fill="#C1210D"/>
<path d="M51.3 177.75C50.76 176.94 49.68 176.76 48.89 177.36C48.11 177.96 47.9 179.1 48.45 179.91C48.99 180.73 51.01 182.3 51.79 181.71C52.58 181.11 51.84 178.57 51.3 177.75Z" fill="#C1210D"/>
<path d="M47.4 186.01C46.61 186.61 46.41 187.75 46.96 188.56C47.5 189.38 48.58 189.55 49.37 188.95C50.15 188.35 51.71 186.19 51.16 185.37C50.62 184.55 48.19 185.41 47.4 186V186.01Z" fill="#C1210D"/>
<path d="M59.01 181.64C59.8 181.04 60 179.9 59.46 179.08C58.91 178.27 57.84 178.09 57.05 178.69C56.26 179.29 54.72 181.46 55.25 182.27C55.8 183.09 58.23 182.23 59.01 181.64Z" fill="#C1210D"/>
<path d="M92.18 223.59C92.57 221.5 91.17 219.52 89.11 219.16C87.07 218.81 85.14 220.18 84.77 222.22C84.4 224.25 85.73 226.22 87.75 226.62C89.8 227.03 91.8 225.68 92.19 223.59H92.18Z" fill="#C1210D"/>
<path d="M91.58 216.75C91.78 215.66 91.06 214.64 89.97 214.47C88.89 214.31 87.87 215.05 87.67 216.12C87.47 217.2 87.84 220.07 88.92 220.25C89.99 220.44 91.38 217.84 91.59 216.75H91.58Z" fill="#C1210D"/>
<path d="M85.27 229.24C85.08 230.31 85.77 231.35 86.83 231.58C87.9 231.81 88.93 231.13 89.13 230.05C89.33 228.97 88.96 226.07 87.88 225.86C86.82 225.65 85.46 228.18 85.27 229.24Z" fill="#C1210D"/>
<path d="M94.75 226.3C95.87 226.52 96.96 225.79 97.16 224.69C97.37 223.59 96.62 222.52 95.5 222.32C94.38 222.12 91.42 222.5 91.21 223.59C91.01 224.68 93.63 226.09 94.75 226.31V226.3Z" fill="#C1210D"/>
<path d="M82.32 219.96C81.29 219.78 80.32 220.49 80.13 221.53C79.94 222.57 80.6 223.58 81.62 223.78C82.65 223.98 85.44 223.62 85.63 222.55C85.83 221.48 83.35 220.14 82.32 219.96Z" fill="#C1210D"/>
<path d="M90.57 229.77C91.21 230.7 92.46 230.96 93.39 230.36C94.32 229.74 94.56 228.49 93.91 227.56C93.27 226.63 90.92 224.81 90.01 225.42C89.1 226.04 89.95 228.85 90.57 229.77Z" fill="#C1210D"/>
<path d="M86.25 216.46C85.64 215.58 84.44 215.39 83.57 216.02C82.71 216.64 82.48 217.86 83.08 218.73C83.68 219.61 85.91 221.34 86.79 220.72C87.68 220.09 86.86 217.33 86.25 216.45V216.46Z" fill="#C1210D"/>
<path d="M81.92 225.19C81.06 225.79 80.84 226.99 81.43 227.88C82.02 228.78 83.21 229.02 84.07 228.43C84.94 227.83 86.68 225.57 86.08 224.67C85.47 223.77 82.79 224.59 81.92 225.19Z" fill="#C1210D"/>
<path d="M95.17 220.84C96.12 220.19 96.35 218.92 95.7 218.01C95.05 217.1 93.78 216.89 92.85 217.54C91.93 218.19 90.13 220.53 90.75 221.43C91.38 222.34 94.24 221.47 95.17 220.84Z" fill="#C1210D"/>
<path d="M133.3 177.93C133.23 175.67 131.64 173.86 129.8 173.89C127.98 173.92 126.58 175.73 126.66 177.94C126.74 180.14 128.26 181.94 130.08 181.96C131.92 181.99 133.37 180.19 133.3 177.93Z" fill="#C1210D"/>
<path d="M131.45 170.88C131.41 169.7 130.59 168.77 129.62 168.8C128.66 168.84 127.93 169.81 127.97 170.98C128.01 172.14 128.89 175.08 129.84 175.07C130.8 175.07 131.49 172.07 131.45 170.88Z" fill="#C1210D"/>
<path d="M128.46 185.2C128.5 186.36 129.3 187.32 130.26 187.35C131.22 187.38 131.97 186.47 131.94 185.3C131.9 184.13 131.01 181.16 130.05 181.15C129.09 181.14 128.42 184.05 128.47 185.2H128.46Z" fill="#C1210D"/>
<path d="M136.03 180.27C137.04 180.27 137.83 179.31 137.79 178.11C137.76 176.91 136.9 175.94 135.89 175.95C134.89 175.95 132.41 176.94 132.45 178.12C132.49 179.3 135.02 180.27 136.02 180.28L136.03 180.27Z" fill="#C1210D"/>
<path d="M124.11 176.04C123.19 176.04 122.49 176.98 122.54 178.11C122.58 179.24 123.35 180.17 124.26 180.18C125.18 180.18 127.51 179.27 127.47 178.11C127.43 176.95 125.04 176.03 124.11 176.04Z" fill="#C1210D"/>
<path d="M133.12 184.72C133.85 185.57 134.98 185.6 135.66 184.78C136.34 183.96 136.3 182.59 135.56 181.74C134.83 180.89 132.45 179.44 131.79 180.26C131.13 181.08 132.41 183.87 133.12 184.71V184.72Z" fill="#C1210D"/>
<path d="M126.81 171.61C126.12 170.81 125.05 170.84 124.42 171.68C123.8 172.5 123.85 173.81 124.53 174.62C125.22 175.42 127.47 176.8 128.11 175.99C128.76 175.16 127.51 172.43 126.81 171.62V171.61Z" fill="#C1210D"/>
<path d="M124.79 181.61C124.16 182.41 124.22 183.7 124.89 184.52C125.57 185.34 126.64 185.37 127.27 184.58C127.91 183.78 128.96 181.08 128.26 180.25C127.56 179.43 125.41 180.81 124.79 181.61Z" fill="#C1210D"/>
<path d="M135.33 174.46C136.02 173.6 135.98 172.22 135.23 171.39C134.5 170.57 133.36 170.59 132.69 171.46C132.02 172.32 130.94 175.12 131.65 175.94C132.37 176.77 134.66 175.3 135.33 174.46Z" fill="#C1210D"/>
<path d="M97.36 181.31C97.27 179.04 95.28 177.2 92.96 177.18C90.68 177.16 88.92 178.93 89.03 181.14C89.13 183.34 91.04 185.18 93.31 185.26C95.62 185.34 97.44 183.58 97.36 181.32V181.31Z" fill="#C1210D"/>
<path d="M95.04 174.21C94.99 173.03 93.96 172.07 92.74 172.08C91.54 172.09 90.61 173.04 90.66 174.21C90.71 175.37 91.81 178.34 93.01 178.35C94.22 178.37 95.08 175.4 95.03 174.21H95.04Z" fill="#C1210D"/>
<path d="M91.29 188.45C91.34 189.61 92.35 190.59 93.54 190.65C94.74 190.71 95.69 189.81 95.64 188.64C95.58 187.47 94.48 184.48 93.27 184.44C92.07 184.4 91.23 187.3 91.28 188.45H91.29Z" fill="#C1210D"/>
<path d="M100.79 183.73C102.05 183.77 103.04 182.82 103 181.62C102.96 180.42 101.88 179.42 100.62 179.4C99.36 179.38 96.26 180.29 96.31 181.47C96.36 182.65 99.53 183.7 100.79 183.73Z" fill="#C1210D"/>
<path d="M85.83 179.17C84.68 179.15 83.8 180.06 83.86 181.2C83.91 182.33 84.88 183.28 86.02 183.32C87.18 183.35 90.09 182.5 90.04 181.34C89.99 180.18 86.99 179.2 85.83 179.17Z" fill="#C1210D"/>
<path d="M97.14 188.1C98.05 188.97 99.48 189.03 100.32 188.23C101.17 187.43 101.12 186.06 100.19 185.19C99.27 184.32 96.29 182.8 95.46 183.6C94.64 184.41 96.23 187.22 97.13 188.09L97.14 188.1Z" fill="#C1210D"/>
<path d="M89.21 174.81C88.34 173.99 87 173.99 86.22 174.81C85.44 175.62 85.5 176.93 86.36 177.75C87.22 178.57 90.05 180.02 90.85 179.21C91.66 178.4 90.09 175.63 89.22 174.81H89.21Z" fill="#C1210D"/>
<path d="M86.68 184.75C85.89 185.53 85.96 186.83 86.81 187.67C87.66 188.51 89 188.57 89.79 187.79C90.59 187.01 91.91 184.33 91.03 183.49C90.16 182.65 87.46 183.97 86.68 184.75Z" fill="#C1210D"/>
<path d="M99.9 177.9C100.77 177.06 100.71 175.68 99.78 174.83C98.86 173.98 97.44 173.98 96.59 174.83C95.75 175.67 94.39 178.44 95.28 179.28C96.19 180.13 99.05 178.73 99.9 177.9Z" fill="#C1210D"/>
<path d="M104.43 122.88C103.77 120.76 101.58 119.31 99.58 119.62C97.6 119.93 96.55 121.85 97.2 123.91C97.85 125.96 99.97 127.43 101.95 127.17C103.96 126.91 105.09 124.99 104.43 122.88Z" fill="#C1210D"/>
<path d="M100.61 116.53C100.27 115.43 99.13 114.67 98.08 114.86C97.05 115.04 96.49 116.07 96.83 117.16C97.17 118.25 98.88 120.87 99.92 120.72C100.97 120.56 100.95 117.64 100.6 116.53H100.61Z" fill="#C1210D"/>
<path d="M101.03 130.47C101.37 131.55 102.49 132.33 103.54 132.21C104.6 132.09 105.18 131.11 104.84 130.02C104.49 128.93 102.77 126.27 101.72 126.41C100.67 126.54 100.69 129.39 101.03 130.47Z" fill="#C1210D"/>
<path d="M108.02 124.66C109.12 124.51 109.73 123.48 109.38 122.36C109.03 121.24 107.85 120.46 106.76 120.62C105.67 120.79 103.23 122.09 103.57 123.19C103.92 124.29 106.92 124.82 108.02 124.67V124.66Z" fill="#C1210D"/>
<path d="M93.93 122.53C92.93 122.68 92.41 123.66 92.75 124.72C93.08 125.78 94.16 126.53 95.15 126.4C96.16 126.26 98.45 125.04 98.12 123.96C97.78 122.88 94.94 122.38 93.93 122.53Z" fill="#C1210D"/>
<path d="M105.98 129.3C106.99 129.99 108.24 129.84 108.76 128.97C109.29 128.09 108.9 126.81 107.87 126.13C106.86 125.44 103.9 124.45 103.38 125.32C102.88 126.2 104.98 128.62 105.97 129.3H105.98Z" fill="#C1210D"/>
<path d="M95.74 117.94C94.78 117.29 93.63 117.49 93.16 118.37C92.7 119.24 93.08 120.47 94.03 121.12C94.99 121.77 97.8 122.72 98.28 121.85C98.77 120.97 96.7 118.59 95.74 117.94Z" fill="#C1210D"/>
<path d="M96.1 127.66C95.62 128.51 96.01 129.72 96.96 130.38C97.92 131.05 99.08 130.92 99.57 130.07C100.06 129.22 100.51 126.51 99.54 125.84C98.57 125.17 96.58 126.8 96.11 127.65L96.1 127.66Z" fill="#C1210D"/>
<path d="M105.76 119.31C106.29 118.39 105.89 117.11 104.87 116.44C103.85 115.78 102.63 115.98 102.11 116.9C101.6 117.81 101.14 120.62 102.12 121.28C103.12 121.95 105.24 120.22 105.75 119.32L105.76 119.31Z" fill="#C1210D"/>
<path d="M72.82 140.93C67.73 150.15 52.77 165.16 47.2 157.64C41.63 150.12 57.23 119.49 61.96 117.82C66.69 116.15 81.73 124.78 72.82 140.93Z" fill="url(#paint2_linear_1526_1343)"/>
<path d="M97.1 87.2598H79.11V103.98C84.53 107.46 91.67 107.46 97.1 103.98V87.2598Z" fill="url(#paint3_linear_1526_1343)"/>
<path d="M98.38 103.64C103.02 102.32 137.61 87.16 148.03 106.95C158.55 126.94 135.33 156.11 134.18 157.47L130.78 154.58C130.78 154.58 144.83 122.45 134.89 115.59C128.07 110.88 119.05 119.72 119.05 119.72C111.9 111.79 107.31 107.62 98.39 103.65L98.38 103.64Z" fill="url(#paint4_linear_1526_1343)"/>
<path d="M112.37 141.29C109.21 144.56 91 141.82 87.74 137.63C85.75 135.07 86.59 128.31 90.85 128.46C92.8 128.53 96.77 131.96 100.82 134.59C107.1 138.66 116.36 137.14 112.37 141.29Z" fill="#69B75C"/>
<path d="M90.85 128.47C86.6 128.31 85.75 135.07 87.74 137.64C88.1 138.11 88.67 138.55 89.36 138.97C90.52 137.92 91.53 136.5 92.2 134.78C92.95 132.86 93.14 130.92 92.88 129.22C92.08 128.78 91.38 128.49 90.84 128.47H90.85Z" fill="#82CE72"/>
<path d="M105.3 148.23C101.77 143.04 108 135.53 119.87 131.04C129.5 127.4 136.38 122.2 140.95 127.51C145.96 133.33 137.71 140.66 130.15 148.15C119.43 158.77 110.13 155.33 105.29 148.22L105.3 148.23Z" fill="#69B75C"/>
<path d="M108.13 144.5C105.65 140.86 110.02 135.6 118.35 132.46C125.1 129.91 129.92 126.27 133.13 129.99C136.64 134.07 130.86 139.2 125.56 144.45C118.05 151.89 111.53 149.48 108.14 144.5H108.13Z" fill="#82CE72"/>
<path d="M92.91 282.52H105.82L106.52 280.98L99.49 275.97L94.22 275.05L92.97 279.53L92.91 282.52Z" fill="#454545"/>
<path d="M88.47 282.52H74.67L73.92 280.98L81.43 275.97L87.07 275.05L88.41 279.53L88.47 282.52Z" fill="#454545"/>
<path d="M114.92 151.38C113.18 155.58 95.2 159.72 90.64 157.01C87.85 155.35 86.17 148.75 90.19 147.34C92.03 146.69 96.98 148.42 101.72 149.38C109.06 150.87 117.13 146.06 114.93 151.38H114.92Z" fill="#69B75C"/>
<path d="M90.19 147.33C86.17 148.74 87.85 155.34 90.64 157C91.15 157.3 91.84 157.5 92.64 157.65C93.34 156.25 93.76 154.55 93.76 152.71C93.76 150.64 93.22 148.77 92.36 147.29C91.45 147.17 90.7 147.16 90.19 147.34V147.33Z" fill="#82CE72"/>
<path d="M141.25 130.32C145.23 136.3 145.4 160.21 142.35 161.22C139.3 162.23 135.52 160.33 135.63 158.52C135.75 156.71 139.68 127.97 141.25 130.32Z" fill="#69B75C"/>
<path d="M137.72 126.34C133.2 122.17 113.12 119.26 111.88 121.81C110.64 124.36 111.75 127.89 113.29 128C114.83 128.11 139.5 127.97 137.72 126.34Z" fill="#69B75C"/>
<path d="M158.23 131.77C162.35 126.79 160.21 118.23 153.46 112.64C146.71 107.05 137.89 106.55 133.77 111.53C129.65 116.5 128.71 124.89 135.46 130.48C142.21 136.07 154.1 136.75 158.22 131.77H158.23Z" fill="#69B75C"/>
<path d="M147.85 107.21C147.44 102.85 144.62 99.5402 141.55 99.8202C138.47 100.1 136.31 103.86 136.72 108.23C137.13 112.59 139.95 115.9 143.02 115.62C146.09 115.34 148.26 111.58 147.85 107.21Z" fill="#69B75C"/>
<path d="M161.21 129.69C165.49 128.78 168.45 125.6 167.82 122.58C167.18 119.56 163.2 117.85 158.91 118.75C154.62 119.66 151.66 122.84 152.3 125.87C152.93 128.89 156.92 130.6 161.21 129.7V129.69Z" fill="#69B75C"/>
<path d="M165.37 122.91C164.93 120.78 162.12 119.57 159.1 120.21C158.98 120.23 158.87 120.28 158.75 120.31C159.62 121.62 159.82 123.65 159.11 125.69C158.8 126.58 158.34 127.34 157.81 127.98C158.69 128.14 159.66 128.15 160.67 127.94C163.7 127.3 165.81 125.05 165.37 122.91Z" fill="#82CE72"/>
<path d="M142.69 102.08C144.85 102.38 146.23 105.06 145.77 108.08C145.76 108.2 145.72 108.31 145.69 108.42C144.33 107.65 142.28 107.58 140.3 108.4C139.43 108.76 138.7 109.26 138.09 109.82C137.87 108.96 137.81 108.01 137.96 107C138.42 103.98 140.53 101.77 142.69 102.07V102.08Z" fill="#82CE72"/>
<path d="M76.02 104.17C75.88 106.12 78.67 114.47 81.87 114.33C85.07 114.19 88.97 106.53 88.97 106.53L78.53 101.94L76.02 104.17Z" fill="#C1210D"/>
<path d="M100.49 102.92C100.63 104.87 99.26 113.49 95.99 113.35C92.72 113.21 87.71 106.28 87.71 106.28L97.45 102.09L100.49 102.92Z" fill="#C1210D"/>
<path d="M165.66 62.5701L158.32 61.1501L164.24 58.7801L158.56 37.2401C144.83 38.6601 134.42 52.3901 134.42 52.3901C130.87 37.0101 116.59 7.82012 107.83 4.50012C99.08 1.19012 94.11 7.10012 94.11 7.10012C94.11 7.10012 93.64 1.89012 85.59 0.24012C66.53 -3.67988 33.84 40.5501 33.84 40.5501C26.27 29.1901 9.93999 24.4601 9.93999 24.4601L1.87999 35.3501L9.93 40.5501L1.63999 38.6601C-1.91 49.5501 1.39999 60.2001 1.39999 60.2001L9.68 60.9101L3.99999 63.0401C4.23999 73.4501 12.28 80.5501 12.28 80.5501C26.48 76.5301 33.34 67.3001 33.34 67.3001C38.31 81.5001 57.01 91.9101 66.24 94.2801L98.19 95.2201C123.51 91.9101 134.4 75.3401 134.4 75.3401C137.71 82.9101 152.62 86.4601 152.62 86.4601L159.96 76.9901L155.94 74.6201L161.86 75.3301L165.65 62.5501L165.66 62.5701Z" fill="black"/>
<path d="M131.81 61.1502C131.81 38.8002 111.26 19.4902 85.9 19.4902C60.54 19.4902 41.41 35.7202 41.41 58.0702C41.41 80.4202 51.49 98.4102 83.28 98.4102C115.07 98.4102 131.82 83.5002 131.82 61.1502H131.81Z" fill="url(#paint5_linear_1526_1343)"/>
<path d="M48.51 83.86C41.7 85.9 30.06 79.38 32.05 72.13C34.38 63.65 48.91 74.77 48.51 83.86Z" fill="url(#paint6_linear_1526_1343)"/>
<path d="M123.86 82.7802C131.11 84.3002 143.19 76.8002 140.87 69.6402C138.17 61.2702 123.18 73.6402 123.86 82.7802Z" fill="url(#paint7_linear_1526_1343)"/>
<path d="M123.07 80.7801C123.07 80.7801 135.46 56.9701 125.44 36.6401C125.44 36.6401 134.88 49.7101 134.77 59.0601C134.64 69.5901 123.07 80.7801 123.07 80.7801Z" fill="black"/>
<path d="M48.73 80.7801C48.73 80.7801 36.63 56.9701 46.42 36.6401C46.42 36.6401 37.2 49.7101 37.31 59.0601C37.44 69.5901 48.73 80.7801 48.73 80.7801Z" fill="black"/>
<path d="M134.11 146.96C136.05 146.49 137.21 145.87 137.08 145.16C136.95 144.45 135.79 145.07 133.98 145.29C132.29 145.49 131.53 145.67 131.31 144.91C131.19 144.54 132.36 144.29 133.97 143.57C135.76 142.77 136.68 141.83 136.41 141.23C136 140.35 135.43 141.34 133.19 141.93C130.04 142.76 129.8 143.61 127.55 142.77C125.27 141.91 130.93 136.49 129.04 136.52C127.78 136.55 121.74 143 119.45 146.59C111.82 151.3 91.14 163.43 87.75 158.86C83.57 153.24 81.3 125.18 74.58 118.64C69.42 113.62 60.95 114.41 58.23 122.97C55.51 131.53 62.34 169.94 78.54 177.29C92.48 183.62 116.96 157.3 123.51 149.85C124.96 149.62 126.74 149.44 128.88 149.75C129.64 149.69 130.78 149.66 131.88 149.6C133.72 149.51 135.5 148.71 135.38 148C135.27 147.42 133.97 148.03 132.67 148.08C131.47 148.13 131.06 148.18 131.03 147.89C131 147.69 132.53 147.37 134.13 146.96H134.11Z" fill="url(#paint8_linear_1526_1343)"/>
<path d="M133 162.89C132.74 163.65 132.41 164.82 132.07 165.93C131.51 167.79 130.26 169.42 129.61 169.12C129.07 168.86 130.01 167.68 130.39 166.36C130.75 165.14 130.91 164.73 130.64 164.62C130.46 164.54 129.75 166.02 128.93 167.56C127.97 169.43 127.07 170.47 126.41 170.14C125.76 169.82 126.67 168.79 127.34 166.98C127.97 165.29 128.35 164.56 127.67 164.14C127.34 163.92 126.8 165.05 125.68 166.53C124.44 168.16 123.29 168.86 122.78 168.43C122.04 167.78 123.14 167.45 124.3 165.3C125.93 162.28 126.81 162.25 126.59 159.72C126.36 157.15 119.63 161.57 120.15 159.63C120.59 158.05 132.32 151.54 134.46 151.98C137.94 153.62 133.76 156.04 132.98 162.89H133Z" fill="url(#paint9_linear_1526_1343)"/>
<path d="M145.49 130.47C148.18 128.2 147.65 123.77 144.29 120.58C140.94 117.4 136.04 116.66 133.34 118.93C130.65 121.2 131.18 125.63 134.53 128.81C137.88 131.99 142.78 132.74 145.48 130.46L145.49 130.47Z" fill="#82CE72"/>
<path d="M142.5 123.41C143.58 122.51 143.36 120.74 142 119.46C140.64 118.18 138.66 117.88 137.58 118.79C136.5 119.69 136.72 121.46 138.08 122.74C139.44 124.02 141.42 124.32 142.5 123.41Z" fill="#707070"/>
<path d="M142.02 114.53C142.51 113.91 142.43 113.02 141.86 112.55C141.29 112.08 140.43 112.2 139.95 112.82C139.46 113.44 139.53 114.33 140.11 114.8C140.68 115.27 141.54 115.15 142.02 114.53Z" fill="#707070"/>
<path d="M151.39 124.98C151.88 124.36 151.81 123.48 151.23 123C150.66 122.53 149.81 122.65 149.32 123.27C148.83 123.89 148.9 124.78 149.47 125.25C150.04 125.72 150.9 125.6 151.38 124.98H151.39Z" fill="#707070"/>
<path d="M65.1 76.1999L64.22 76.2399C64.22 76.2399 86.09 89.7699 111.65 74.3999L110.52 74.4399C90.13 84.1099 72.35 79.1099 65.1 76.1999Z" fill="#FF6058"/>
<path d="M84.7 74.1501H88.07C88.56 74.1501 88.95 73.7601 88.95 73.2701C88.95 72.7801 88.56 72.3901 88.07 72.3901H84.7C84.39 72.3901 84.11 72.2601 83.91 72.0401C83.71 71.8101 83.61 71.5201 83.64 71.2201L84.42 63.6901C84.47 63.2001 84.12 62.7701 83.63 62.7201C83.15 62.6701 82.71 63.0201 82.66 63.5101L81.88 71.0401C81.8 71.8401 82.06 72.6301 82.59 73.2301C83.13 73.8201 83.89 74.1701 84.69 74.1701L84.7 74.1501Z" fill="#F48073"/>
<path d="M103.5 63.1712C105.431 62.7177 106.628 60.7855 106.174 58.8553C105.721 56.9251 103.789 55.728 101.858 56.1814C99.9283 56.6349 98.7312 58.5671 99.1846 60.4973C99.638 62.4275 101.57 63.6246 103.5 63.1712Z" fill="#2B232A"/>
<path d="M67.1998 63.2583C69.1693 63.0297 70.5806 61.2478 70.352 59.2784C70.1235 57.3089 68.3416 55.8976 66.3721 56.1262C64.4026 56.3547 62.9913 58.1366 63.2199 60.1061C63.4485 62.0756 65.2304 63.4869 67.1998 63.2583Z" fill="#2B232A"/>
<path d="M115.17 48.6498L92.58 46.4798C92.58 46.4798 94.74 40.2398 104.48 41.2498C114.45 42.2898 115.17 48.6498 115.17 48.6498Z" fill="#2B232A"/>
<path d="M54.46 48.6498L77.05 46.4798C77.05 46.4798 74.89 40.2398 65.15 41.2498C55.18 42.2898 54.46 48.6498 54.46 48.6498Z" fill="#2B232A"/>
</g>
<defs>
<linearGradient id="paint0_linear_1526_1343" x1="94.06" y1="248.6" x2="123.16" y2="248.6" gradientUnits="userSpaceOnUse">
<stop stop-color="#F7C3AF"/>
<stop offset="1" stop-color="#F79480"/>
</linearGradient>
<linearGradient id="paint1_linear_1526_1343" x1="54.54" y1="248.94" x2="87.32" y2="248.94" gradientUnits="userSpaceOnUse">
<stop stop-color="#F7C3AF"/>
<stop offset="1" stop-color="#F79480"/>
</linearGradient>
<linearGradient id="paint2_linear_1526_1343" x1="46.01" y1="138.64" x2="75.58" y2="138.64" gradientUnits="userSpaceOnUse">
<stop stop-color="#F7C3AF"/>
<stop offset="1" stop-color="#F79480"/>
</linearGradient>
<linearGradient id="paint3_linear_1526_1343" x1="88.98" y1="104.33" x2="88.56" y2="100.1" gradientUnits="userSpaceOnUse">
<stop stop-color="#F7C3AF"/>
<stop offset="1" stop-color="#F79480"/>
</linearGradient>
<linearGradient id="paint4_linear_1526_1343" x1="98.38" y1="127.16" x2="150.76" y2="127.16" gradientUnits="userSpaceOnUse">
<stop stop-color="#F7C3AF"/>
<stop offset="1" stop-color="#F79480"/>
</linearGradient>
<linearGradient id="paint5_linear_1526_1343" x1="90.11" y1="38.1002" x2="77.82" y2="114.15" gradientUnits="userSpaceOnUse">
<stop stop-color="#F7C3AF"/>
<stop offset="1" stop-color="#F79480"/>
</linearGradient>
<linearGradient id="paint6_linear_1526_1343" x1="31.83" y1="76.67" x2="48.52" y2="76.67" gradientUnits="userSpaceOnUse">
<stop stop-color="#F7C3AF"/>
<stop offset="1" stop-color="#F79480"/>
</linearGradient>
<linearGradient id="paint7_linear_1526_1343" x1="123.84" y1="74.9202" x2="141.16" y2="74.9202" gradientUnits="userSpaceOnUse">
<stop stop-color="#F7C3AF"/>
<stop offset="1" stop-color="#F79480"/>
</linearGradient>
<linearGradient id="paint8_linear_1526_1343" x1="57.63" y1="146.89" x2="137.08" y2="146.89" gradientUnits="userSpaceOnUse">
<stop stop-color="#F7C3AF"/>
<stop offset="1" stop-color="#F79480"/>
</linearGradient>
<linearGradient id="paint9_linear_1526_1343" x1="120.14" y1="161.08" x2="135.84" y2="161.08" gradientUnits="userSpaceOnUse">
<stop stop-color="#F7C3AF"/>
<stop offset="1" stop-color="#F79480"/>
</linearGradient>
<clipPath id="clip0_1526_1343">
<rect width="167.9" height="282.52" fill="white"/>
</clipPath>
</defs>
</svg>
