<svg width="381" height="541" viewBox="0 0 381 541" fill="none" xmlns="http://www.w3.org/2000/svg">
<g clip-path="url(#clip0_1415_1491)">
<path d="M18.9744 335.329C15.4516 298.471 28.8139 288.689 36.0316 272.48C56.0054 244.888 82.5415 212.659 88.4894 203.008C61.6174 176.598 46.1824 171.559 46.1824 171.559C46.1824 171.559 -17.5895 251.511 4.72736 326.359C4.76832 326.49 12.3548 333.884 18.9663 335.337L18.9744 335.329Z" fill="url(#paint0_linear_1415_1491)"/>
<path d="M187.006 529.498V533.33C187.006 533.33 187.277 533.33 191.381 534.972C195.486 536.613 210.249 539.625 212.707 536.892C215.165 534.151 207.816 533.347 205.677 532.37C203.457 531.361 200.655 527.684 199.836 526.313C196.551 526.863 187.006 529.49 187.006 529.49V529.498Z" fill="#454545"/>
<path d="M134.246 526.453L134.418 533.109C134.418 533.109 134.147 533.109 130.043 534.75C125.938 536.392 111.175 539.403 108.717 536.671C106.259 533.929 113.608 533.125 115.746 532.148C117.967 531.139 120.769 527.462 121.588 526.092C124.873 526.642 134.246 526.453 134.246 526.453Z" fill="#454545"/>
<path d="M239.522 338.021C237.678 338.308 233.467 368.354 233.017 370.627C230.755 381.936 221.301 450.136 220.572 454.806C219.982 458.597 205.645 506.083 201.311 526.51C195.674 530.696 187.08 531.04 187.08 531.04C187.08 531.04 185.745 453.394 169.761 403.282C164.993 402.33 153.384 396.446 143.749 404.399C135.081 411.563 129.535 461.142 134.557 527.955C132.14 533.281 121.014 533.765 117.147 531.344C104.088 508.086 67.3276 407.304 74.5863 328.804C189.177 345.76 239.481 338.021 239.53 338.012L239.522 338.021Z" fill="#398DA5"/>
<path d="M104.219 483.859C101.147 483.063 98.2224 480.149 95.6089 476.407C103.736 502.316 112.166 522.481 117.147 531.353C121.014 533.774 132.14 533.289 134.557 527.963C131.46 486.764 132.378 452.131 135.573 429.939C131.55 447.395 120.367 488.028 104.219 483.851V483.859Z" fill="#347F91"/>
<path d="M205.858 459.599C188.325 450.817 169.761 403.291 169.761 403.291C185.745 453.402 187.08 531.049 187.08 531.049C187.08 531.049 195.674 530.704 201.311 526.518C205.645 506.091 219.982 458.606 220.572 454.814C220.588 454.724 220.605 454.601 220.621 454.461C217.237 459.861 212.461 463.103 205.858 459.599Z" fill="#347F91"/>
<path d="M101.278 116.481C109.258 111.754 135.622 93.469 163.55 95.2828C191.479 97.0965 212.748 109.153 212.748 109.153C204.768 178.198 192.798 224.707 181.55 237.428C127.863 198.912 101.278 116.481 101.278 116.481Z" fill="#CFDDF1"/>
<path d="M292.692 214.793C283.107 191.387 265.681 146.757 224.037 117.048C218.483 132.264 217.205 147.561 222.645 162.728C224.168 166.987 226.159 171.058 228.035 175.178C235.835 192.273 241.75 210.23 245.633 228.613C245.814 229.483 246.117 230.493 246.961 230.772C247.46 230.936 248.001 230.772 248.501 230.624C251.36 229.746 254.26 228.991 257.193 228.367C256.849 225.519 256.423 224.239 256.423 224.239C256.423 224.239 280.362 214.432 292.7 214.793H292.692Z" fill="#B5BBC0"/>
<path d="M292.692 214.793C283.107 191.387 265.509 146.412 223.866 116.703C218.311 131.919 217.205 147.561 222.637 162.728C224.16 166.987 226.151 171.058 228.027 175.178C235.827 192.273 241.742 210.23 245.625 228.613C245.806 229.483 246.109 230.493 246.953 230.772C247.452 230.936 247.993 230.772 248.493 230.624C251.352 229.746 254.252 228.991 257.185 228.367C256.841 225.519 256.415 224.239 256.415 224.239C256.415 224.239 280.354 214.432 292.692 214.793Z" fill="#CFDDF1"/>
<path d="M91.1846 196.803C92.8395 162.367 78.4941 140.561 74.8648 136.121C54.1291 152.724 40.7422 169.622 24.2012 205.889L69.9082 226.603L66.6393 238.954C66.6393 238.954 66.5902 239.972 66.5246 241.811C75.2253 242.221 89.3495 235.056 91.1928 196.795L91.1846 196.803Z" fill="#BCC5D1"/>
<path d="M91.1846 196.803C92.8395 162.367 78.4941 140.561 74.8648 136.121C54.1291 152.724 40.7422 169.622 24.2012 205.889L69.9082 226.603L66.6393 238.954C66.6393 238.954 66.5902 239.972 66.5246 241.811C75.2253 242.221 89.3495 235.056 91.1928 196.795L91.1846 196.803Z" fill="#CFDDF1"/>
<path d="M256.447 147.906C243.568 131.402 226.749 115.776 204.489 104.746C203.121 130.507 207.086 178.838 188.063 204.058C190.521 221.178 121.669 141.94 110.495 110.474C98.5251 117.253 83.7701 127.38 68.9986 141.874C116.926 228.047 66.8767 238.962 66.8767 238.962C66.8767 238.962 60.552 278.586 74.2993 368.132C111.429 374.328 144.502 375.953 161.551 376.323C178.6 376.684 227.937 372.326 232.648 369.421C241.717 342.896 247.517 301.106 254.047 269.123C260.577 237.149 256.587 225.15 256.587 225.15C256.587 225.15 253.252 186.274 256.431 147.906H256.447Z" fill="url(#paint1_linear_1415_1491)"/>
<path d="M65.4106 143.638C65.4106 143.638 84.6553 160.471 83.9343 202.622C83.664 218.346 79.7397 235.836 66.6395 238.962C66.361 252.988 66.1152 254.687 66.1152 254.687C66.1152 254.687 91.1357 253.423 97.354 212.068C101.196 186.487 93.6672 145.953 78.9122 132.633C71.0554 138.788 65.4106 143.638 65.4106 143.638Z" fill="#E23023"/>
<path d="M188.063 212.708C211.101 171.6 213.256 143.474 207.628 106.321C202.606 103.465 201.86 103.958 196.363 101.89C199.05 122.982 201.958 151.854 183.041 189.639C167.246 171.69 141.128 156.622 119.261 106.051C114.886 108.234 113.616 108.422 108.234 111.771C116.107 135.899 145.986 187.021 188.063 212.708Z" fill="#E23023"/>
<path d="M71.7842 352.744C72.7018 359.86 72.9312 361.928 74.3075 368.813C111.306 374.263 144.511 377.332 161.56 377.767C198.894 378.719 228.265 373.959 232.984 371.054C234.294 365.202 235.786 359.137 237.416 352.58C189.857 367.763 102.646 357.332 71.7842 352.744Z" fill="#E23023"/>
<path d="M149.336 123.58C135.925 117.154 119.499 107.421 115.05 85.8858C115.05 85.8858 99.9755 79.8619 99.2709 69.9314C98.5663 60.0092 104.596 61.3716 104.596 61.3716C104.596 61.3716 93.6917 43.8333 99.5822 37.5549C105.465 31.2848 107.07 37.7519 107.07 37.7519C107.07 37.7519 106.136 29.7419 108.873 25.6056C110.47 23.2009 114.247 24.3007 114.247 24.3007C114.247 24.3007 106.546 19.713 113.412 15.6177C120.285 11.5306 130.477 10.2667 130.477 10.2667C130.477 10.2667 124.111 5.76111 138.792 1.37859C153.474 -3.00394 152.695 4.4562 152.695 4.4562C152.695 4.4562 162.641 0.426578 166.639 0.656374C170.646 0.902583 172.063 15.4946 172.063 15.4946C172.063 15.4946 176.364 11.6291 181.935 19.9592C187.498 28.2975 193.471 50.6615 184.016 60.2308C174.562 69.7919 149.345 123.572 149.345 123.572L149.336 123.58Z" fill="#707070"/>
<path d="M115.697 36.1599C110.61 38.6548 108.766 30.2755 109.176 25.2856C109.078 25.4005 108.963 25.4744 108.873 25.6057C106.128 29.742 107.07 37.752 107.07 37.752C107.07 37.752 105.465 31.2849 99.5822 37.5551C93.6917 43.8334 104.596 61.3717 104.596 61.3717C104.596 61.3717 98.5663 60.0094 99.2709 69.9316C99.9755 79.862 115.05 85.8859 115.05 85.8859C119.507 107.421 135.925 117.155 149.336 123.581C149.336 123.581 161.322 98.0323 171.866 79.0085C141.529 14.6248 134.434 26.9927 115.697 36.1599Z" fill="#707070"/>
<path d="M205.825 123.581C205.825 123.581 207.652 99.7803 201.483 80.0425C199.951 75.1758 191.562 71.138 190.792 66.0004C190.03 60.8628 193.61 58.0068 192.987 52.8528C191.865 43.3491 162.83 19.5817 152.54 19.5079C143.593 19.4668 126.217 37.0872 126.381 47.3377C127.208 97.7614 141.414 115.817 148.181 121.217C152.22 124.434 166.541 136.285 205.817 123.572L205.825 123.581Z" fill="url(#paint2_linear_1415_1491)"/>
<path d="M146.903 94.298C141.234 89.7186 128.945 74.8393 130.518 36.4307C127.986 40.329 126.356 44.2601 126.421 47.4937C127.429 98.6395 136.507 121.939 143.306 127.43C147.362 130.704 177.871 146.683 217.139 133.921C217.139 133.921 207.357 109.235 204.465 92.55C168.499 103.055 150.811 97.4413 146.911 94.298H146.903Z" fill="#707070"/>
<path d="M137.039 103.958C130.632 109.957 113.469 106.051 113.723 94.6839C113.96 83.3172 120.375 86.2061 126.692 88.7092C132.992 91.2123 137.039 103.958 137.039 103.958Z" fill="url(#paint3_linear_1415_1491)"/>
<path d="M136.883 110.466C136.883 110.466 152.237 117.631 154.612 107.774C156.988 97.901 142.43 90.8512 139.71 84.737C128.846 60.3294 136.113 29.4876 124.824 33.4434C113.543 37.3992 123.39 84.261 123.39 84.261C123.39 84.261 131.779 95.1434 136.875 110.466H136.883Z" fill="#707070"/>
<path d="M163.542 109.735C176.954 103.244 175.84 96.8749 180.706 91.8358C186.326 86.0335 198.468 83.8833 202.507 86.9363C206.546 89.9893 214.64 101.758 219.13 99.0498C219.13 99.0498 205.677 103.531 197.427 98.6723C189.177 93.8137 184.909 112.624 163.542 109.735Z" fill="#545454"/>
<path d="M193.102 50.2023C193.143 49.1518 192.7 48.1505 191.881 47.4447C191.07 46.7471 189.956 46.4107 188.825 46.5338L179.51 47.5432C179.142 47.576 178.806 47.7812 178.625 48.0767C178.429 48.3721 178.396 48.725 178.535 49.0451L179.961 52.2951C180.436 53.3784 181.64 54.0185 182.918 53.8544L190.767 52.8449C192.045 52.6808 193.028 51.6713 193.086 50.4731V50.2023H193.102Z" fill="#707070"/>
<path d="M149.705 59.7386C149.066 58.844 149.14 57.7278 149.91 56.6609C150.68 55.6022 152.073 54.6995 153.728 54.1988L167.475 49.9805C168.016 49.8163 168.581 49.8081 169.023 49.964C169.466 50.12 169.703 50.4072 169.679 50.7683L169.433 54.3876C169.351 55.6022 168.008 56.8251 166.107 57.3749L154.44 60.7808C152.54 61.3389 150.598 60.986 149.869 59.9766L149.705 59.7386Z" fill="#707070"/>
<path d="M189.178 64.8599C188.735 61.7658 186.9 59.4843 185.081 59.7633C183.262 60.0424 182.132 62.7753 182.566 65.8611C183.017 68.9551 184.844 71.2367 186.662 70.9659C188.481 70.6868 189.612 67.9539 189.178 64.8599Z" fill="#2B232A"/>
<path d="M168.36 69.9889C168.106 66.862 166.418 64.4902 164.583 64.679C162.748 64.8677 161.47 67.5432 161.724 70.6537C161.978 73.7723 163.665 76.1441 165.5 75.9554C167.336 75.7748 168.614 73.1075 168.36 69.9889Z" fill="#2B232A"/>
<path d="M128.142 101.848C127.839 101.848 127.552 101.684 127.404 101.397C123.267 93.3213 117.901 93.0012 117.844 92.993C117.385 92.9766 117.033 92.5826 117.049 92.1313C117.065 91.6717 117.45 91.3106 117.909 91.3352C118.171 91.3434 124.299 91.7045 128.871 100.634C129.076 101.044 128.92 101.545 128.51 101.75C128.388 101.815 128.256 101.84 128.134 101.84L128.142 101.848Z" fill="#F48073"/>
<path d="M186.629 84.4334L183.828 85.9106C183.426 86.124 182.918 85.9681 182.705 85.5659C182.492 85.1638 182.648 84.655 183.049 84.4416L185.851 82.9643C186.105 82.833 186.285 82.6032 186.351 82.3242C186.425 82.0451 186.375 81.7579 186.212 81.5199L180.591 72.4348C180.354 72.0408 180.469 71.532 180.862 71.294C181.271 71.0478 181.763 71.1709 182.001 71.5648L187.604 80.6253C188.006 81.2244 188.137 82.0041 187.957 82.7345C187.768 83.465 187.285 84.0887 186.621 84.4334H186.629Z" fill="#F48073"/>
<path d="M197.534 104.245C191.381 107.495 186.67 106.059 186.441 105.985C186.007 105.845 185.761 105.378 185.9 104.943C186.04 104.508 186.507 104.27 186.941 104.401C187.178 104.475 192.815 106.149 199.771 100.831C200.131 100.552 200.655 100.618 200.934 100.987C201.212 101.356 201.139 101.873 200.778 102.152C199.664 103.006 198.574 103.695 197.534 104.245Z" fill="#F48073"/>
<path d="M190.996 82.5786L208.168 79.0989L207.463 68.397L192.512 71.9342L192.479 71.7782L181.288 74.3142L181.329 74.4948L161.076 78.8937L123.005 86.9037L126.683 88.7174L161.47 80.6254L163.428 89.2263L181.992 84.6222L182.59 75.4304L188.047 74.1993L190.98 82.5868L190.996 82.5786ZM206.013 69.9235L206.57 78.2536L192.036 81.2245L189.292 73.9121L192.79 73.1242L192.774 73.0503L206.021 69.9235H206.013ZM180.542 83.8261L164.829 87.6998L162.993 79.6652L181.271 75.693L180.534 83.8343L180.542 83.8261Z" fill="#2B232A"/>
<path d="M33.5571 337.766C34.3272 336.034 15.951 330.249 16.0493 320.326C14.124 318.701 8.79874 310.724 5.33323 305.98C5.40697 308.237 -0.786707 341.156 20.4242 353.269C24.3649 356.051 25.6101 355.575 26.2656 355.034L25.2169 353.425C25.2169 353.425 26.8309 355.386 28.4612 354.041C30.0915 352.695 27.7239 349.157 27.7239 349.157C27.7239 349.157 30.7388 352.153 32.0414 351.078C33.344 350.003 25.2333 338.267 25.2333 338.267C25.2333 338.267 32.7869 339.498 33.5489 337.774L33.5571 337.766Z" fill="url(#paint4_linear_1415_1491)"/>
</g>
<g clip-path="url(#clip1_1415_1491)">
<path d="M249.557 265.891L227.953 271.028C227.699 272.462 219.397 306.313 226.381 359.455C225.381 366.305 227.548 375.998 227.548 375.998C227.548 375.998 239.969 386.735 240.707 384.354C240.866 383.852 240.414 382.976 239.66 381.924C240.517 382.243 241.144 382.243 241.334 382.004C241.684 381.566 241.247 380.682 240.064 379.168C240.358 379.176 240.564 379.121 240.668 378.993C241.033 378.531 240.525 377.575 239.207 375.919C239.247 375.879 239.287 375.831 239.318 375.767C240.207 374.127 238.445 369.722 237.342 363.876C237.04 362.291 236.445 360.777 235.572 359.423C234.707 358.077 234.096 357.273 234.096 357.273C234.096 357.273 236.747 316.922 245.041 282.793L249.549 265.875L249.557 265.891Z" fill="url(#paint5_linear_1415_1491)"/>
<path d="M370.103 271.036L348.499 265.899L353.007 282.816C361.301 316.946 363.952 357.297 363.952 357.297C363.952 357.297 363.348 358.101 362.475 359.447C361.602 360.801 360.999 362.315 360.705 363.9C359.61 369.746 357.84 374.15 358.729 375.791C358.761 375.855 358.801 375.903 358.84 375.943C357.531 377.591 357.015 378.555 357.38 379.017C357.475 379.136 357.689 379.2 357.983 379.192C356.801 380.706 356.364 381.59 356.713 382.028C356.904 382.267 357.531 382.267 358.388 381.948C357.634 383.007 357.182 383.876 357.34 384.377C358.078 386.759 370.5 376.022 370.5 376.022C370.5 376.022 372.666 366.329 371.666 359.479C378.659 306.337 370.357 272.486 370.095 271.052L370.103 271.036Z" fill="url(#paint6_linear_1415_1491)"/>
<path d="M307.877 530.502L308.346 537.559C312.56 540.498 326.505 542.848 330.839 538.969C327.672 536.381 323.227 536.381 313.386 530.972C308.933 531.092 307.877 530.502 307.877 530.502Z" fill="#454545"/>
<path d="M335.315 436.938C335.315 436.938 324.418 500.769 314.227 531.45C317.393 532.86 319.846 534.27 319.846 534.27C319.846 534.27 312.814 536.739 308.25 534.27C306.139 513.816 302.274 454.923 302.98 436.229C323.362 434.819 335.315 436.938 335.315 436.938Z" fill="url(#paint7_linear_1415_1491)"/>
<path d="M288.956 530.502L288.487 537.559C284.273 540.498 270.328 542.848 265.994 538.969C269.161 536.381 273.606 536.381 283.447 530.972C287.9 531.092 288.956 530.502 288.956 530.502Z" fill="#454545"/>
<path d="M297.71 434.819C262.772 435.512 262.224 434.501 262.216 434.469C262.224 434.532 277.352 511.538 282.701 531.45C279.543 532.86 277.082 534.269 277.082 534.269C277.082 534.269 284.114 536.739 288.678 534.269C288.98 531.37 289.313 527.698 289.662 523.477C291.607 502.163 291.384 467.205 297.71 434.811V434.819Z" fill="url(#paint8_linear_1415_1491)"/>
<path d="M243.938 329.73C243.231 349.125 238.668 393.561 260.105 455.632C278.027 458.101 321.957 462.33 338.823 453.513C345.498 405.548 361.317 368.87 342.339 296.221C256.589 292.343 251.668 291.283 251.668 291.283C251.668 291.283 244.636 310.327 243.938 329.722V329.73Z" fill="url(#paint9_linear_1415_1491)"/>
<path d="M350.292 262.235C345.022 218.515 342.681 201.693 332.132 187.587C325.688 180.244 318.83 176.468 309.973 174.35C309.663 175.345 309.258 176.293 308.75 177.106C307.33 179.36 305.234 180.156 302.631 179.973C300.02 179.79 297.162 179.415 295.115 177.615C294.21 176.819 293.019 175.345 292.575 173.888C283.63 175.632 267.74 184.616 265.074 187.293C248.089 204.338 241.049 261.972 243.096 351.601C243.096 351.601 257.192 362.298 291.392 365.978C325.553 369.65 346.459 356.619 351.125 353.051C351.125 353.051 355.856 308.368 350.292 262.235Z" fill="#CFDDF1"/>
<path d="M295.964 154.087L293.139 174.907C293.139 174.907 293.258 180.021 301.949 180.021C310.147 179.822 309.663 175.027 309.663 175.027L307.433 154.087H295.964Z" fill="url(#paint10_linear_1415_1491)"/>
<path d="M291.242 174.406C265.296 178.125 235.318 205.198 220 277.846C230.437 282.753 243.763 282.968 243.763 282.968C243.763 282.968 235.747 313.179 233.993 344.919C240.318 351.602 262.304 354.947 274.63 354.278C278.495 320.777 282.821 226.56 287.035 209.627C261.558 199.344 285.622 175.465 291.242 174.406Z" fill="#69B75C"/>
<path d="M312.473 174.907C312.473 174.907 341.585 193.051 316.592 210.295C317.648 242.745 329.251 355.95 329.251 355.95C349.554 354.549 363.896 345.588 363.896 345.588L355.348 281.765C364.832 282.115 375.73 279.646 381 272.247C379.246 263.43 361.65 190.757 312.473 174.907Z" fill="#69B75C"/>
<path d="M342.379 219.328C342.379 219.328 348.689 248.344 355.634 282.004C356.808 253.593 355.26 240.196 342.379 219.328Z" fill="#62A355"/>
<path d="M258.923 219.328C258.923 219.328 252.613 248.344 245.668 282.004C244.493 253.593 246.041 240.196 258.923 219.328Z" fill="#62A355"/>
<path d="M263.002 118.046C263.002 118.046 255.938 112.542 250.724 119.081C245.017 126.242 256.629 147.126 268.613 137.823L262.994 118.046H263.002Z" fill="#FFC2B3"/>
<path d="M264.272 134.183C263.978 134.183 263.701 134.024 263.558 133.745C259.566 125.939 254.47 125.573 254.256 125.557C253.811 125.533 253.47 125.151 253.494 124.713C253.518 124.267 253.867 123.908 254.335 123.94C254.589 123.948 260.55 124.306 265.002 133.004C265.209 133.402 265.05 133.888 264.653 134.095C264.534 134.159 264.407 134.183 264.288 134.183H264.272Z" fill="#F48073"/>
<path d="M339.228 118.046C339.228 118.046 346.292 112.542 351.506 119.081C357.213 126.242 345.601 147.126 333.617 137.823L339.236 118.046H339.228Z" fill="#FFC2B3"/>
<path d="M337.958 134.182C337.831 134.182 337.712 134.151 337.593 134.095C337.196 133.888 337.038 133.402 337.244 133.004C341.696 124.298 347.657 123.947 347.911 123.939C348.316 123.924 348.729 124.266 348.752 124.712C348.768 125.158 348.427 125.532 347.983 125.556C347.752 125.572 342.665 125.947 338.68 133.744C338.538 134.023 338.252 134.182 337.966 134.182H337.958Z" fill="#F48073"/>
<path d="M332.855 102.236C332.855 102.236 351.681 146.791 328.307 155.545C323.275 157.425 311.266 161.327 311.266 161.327C311.266 161.327 308.099 165.079 301.528 167.421C295.924 165.541 291.138 161.327 291.138 161.327C291.138 161.327 273.034 159.734 266.629 153.195C261.272 147.723 258.43 136.23 261.351 102.936C263.296 78.0778 271.82 63.7728 291.622 62.6816C311.425 61.5904 326.68 64.402 332.847 102.236H332.855Z" fill="url(#paint11_linear_1415_1491)"/>
<path d="M300.75 139.519H297.67C297.226 139.519 296.861 139.161 296.861 138.707C296.861 138.253 297.218 137.894 297.67 137.894H300.75C301.028 137.894 301.29 137.783 301.472 137.568C301.663 137.361 301.742 137.09 301.718 136.811L301.004 129.914C300.956 129.467 301.282 129.069 301.726 129.021C302.171 128.982 302.567 129.3 302.615 129.746L303.329 136.644C303.409 137.377 303.171 138.109 302.679 138.651C302.187 139.193 301.488 139.511 300.758 139.511L300.75 139.519Z" fill="#F48073"/>
<path d="M287.524 123.405C287.938 121.637 286.845 119.866 285.082 119.451C283.32 119.035 281.556 120.132 281.142 121.901C280.728 123.669 281.821 125.44 283.583 125.855C285.346 126.271 287.11 125.174 287.524 123.405Z" fill="#2B232A"/>
<path d="M320.372 123.015C320.58 121.211 319.292 119.578 317.493 119.368C315.695 119.159 314.068 120.452 313.859 122.257C313.651 124.061 314.939 125.694 316.738 125.904C318.536 126.113 320.163 124.82 320.372 123.015Z" fill="#2B232A"/>
<path d="M272.923 112.518L293.551 110.527C293.551 110.527 291.583 104.808 282.686 105.732C273.582 106.68 272.923 112.518 272.923 112.518Z" fill="#2B232A"/>
<path d="M328.37 112.518L307.742 110.527C307.742 110.527 309.711 104.808 318.608 105.732C327.711 106.68 328.37 112.518 328.37 112.518Z" fill="#2B232A"/>
<path d="M300.139 147.42C293.353 147.42 289.94 144.019 289.773 143.852C289.448 143.517 289.448 142.976 289.781 142.649C290.115 142.323 290.646 142.323 290.98 142.657C291.146 142.832 295.234 146.831 303.599 145.413C304.06 145.333 304.496 145.644 304.576 146.106C304.655 146.568 304.345 147.006 303.885 147.086C302.536 147.317 301.29 147.412 300.139 147.412V147.42Z" fill="#FF6058"/>
<path d="M281.09 56.1578C281.09 56.1578 283.114 37.9181 306.687 44.3936C320.061 48.0734 318.418 61.4306 318.418 61.4306L281.083 56.1499L281.09 56.1578Z" fill="#545454"/>
<path d="M294.043 59.7183C294.043 59.7183 288.106 75.8473 303.052 78.3085C305.401 82.4901 317.425 91.9126 324.108 85.0867C324.68 90.7736 324.981 103.366 331.442 102.355C331.95 109.611 329.974 113.776 334.68 118.516C335.609 125.142 336.895 126.711 342.141 126.066C339.077 122.402 340.204 116.707 340.958 116.604C343.935 116.174 345.474 115.322 345.228 110.742C344.855 103.964 345.99 51.4029 300.099 50.7498C254.208 50.0967 247.89 97.8624 255.041 120.148C259.899 124.266 261.819 133.251 258.629 134.7C261.264 135.433 267.264 129.308 265.359 125.931C266.034 124.696 269.367 123.565 267.74 120.993C266.113 118.412 261.224 110.997 266.097 106.465C270.971 101.933 276.733 98.6908 272.915 96.1898C269.09 93.6888 269.177 79.0652 279.836 74.7482C290.495 70.4391 293.567 63.9477 294.043 59.7183Z" fill="#707070"/>
<path d="M330.371 125.15L330.347 124.776L330.013 124.601C329.878 124.529 326.688 122.848 320.981 122.617C316.235 122.418 311.203 123.279 306.028 125.15L305.536 125.334L305.766 127.396C301.115 125.166 297.313 126.361 295.416 127.317L295.456 125.652L294.948 125.517C291.781 124.672 288.662 124.187 285.67 124.059C276.304 123.669 271.217 126.934 271.003 127.07L270.685 127.277L270.701 127.651C270.701 127.795 270.852 131.148 273.828 137.098L274.05 137.544L274.542 137.448C279.773 136.461 294.416 135.951 294.567 135.943L295.194 135.919L295.377 128.838C296.67 128.018 300.687 126.05 305.941 128.981L306.679 135.545L307.306 135.513C307.425 135.513 319.307 134.876 325.537 135.13C326.251 135.162 326.87 135.202 327.378 135.25L327.878 135.298L328.061 134.828C330.513 128.639 330.363 125.286 330.355 125.142L330.371 125.15ZM274.812 136.054C272.725 131.769 272.209 128.973 272.082 127.994C273.344 127.309 278.043 125.079 285.63 125.397C288.361 125.509 291.21 125.939 294.107 126.68L293.908 134.645C291.099 134.748 279.86 135.218 274.812 136.054ZM327.021 133.88C326.601 133.848 326.124 133.816 325.608 133.8C320.148 133.577 310.425 134.023 307.877 134.151L306.98 126.234C311.822 124.537 316.513 123.772 320.934 123.956C325.267 124.131 328.085 125.198 329.037 125.62C328.997 126.608 328.728 129.443 327.021 133.888V133.88Z" fill="#2B232A"/>
</g>
<defs>
<linearGradient id="paint0_linear_1415_1491" x1="0.000174062" y1="253.44" x2="88.4976" y2="253.44" gradientUnits="userSpaceOnUse">
<stop stop-color="#F7B59C"/>
<stop offset="1" stop-color="#F79480"/>
</linearGradient>
<linearGradient id="paint1_linear_1415_1491" x1="136.801" y1="94.2161" x2="186.477" y2="377.984" gradientUnits="userSpaceOnUse">
<stop stop-color="#C1210D"/>
<stop offset="0.52" stop-color="#C1210D"/>
<stop offset="1" stop-color="#9D1D06"/>
</linearGradient>
<linearGradient id="paint2_linear_1415_1491" x1="126.381" y1="74.4208" x2="206.079" y2="74.4208" gradientUnits="userSpaceOnUse">
<stop stop-color="#F7C3AF"/>
<stop offset="1" stop-color="#F79480"/>
</linearGradient>
<linearGradient id="paint3_linear_1415_1491" x1="113.714" y1="96.5961" x2="137.039" y2="96.5961" gradientUnits="userSpaceOnUse">
<stop stop-color="#F7C3AF"/>
<stop offset="1" stop-color="#F79480"/>
</linearGradient>
<linearGradient id="paint4_linear_1415_1491" x1="4.54674" y1="330.716" x2="33.5816" y2="330.716" gradientUnits="userSpaceOnUse">
<stop stop-color="#F7B59C"/>
<stop offset="1" stop-color="#F79480"/>
</linearGradient>
<linearGradient id="paint5_linear_1415_1491" x1="211.293" y1="278.866" x2="257.165" y2="349.184" gradientUnits="userSpaceOnUse">
<stop stop-color="#F7B59C"/>
<stop offset="1" stop-color="#F79480"/>
</linearGradient>
<linearGradient id="paint6_linear_1415_1491" x1="329.633" y1="275.075" x2="376.924" y2="347.586" gradientUnits="userSpaceOnUse">
<stop stop-color="#F7B59C"/>
<stop offset="1" stop-color="#F79480"/>
</linearGradient>
<linearGradient id="paint7_linear_1415_1491" x1="319.687" y1="456.341" x2="323.62" y2="537.406" gradientUnits="userSpaceOnUse">
<stop stop-color="#F7B59C"/>
<stop offset="1" stop-color="#F79480"/>
</linearGradient>
<linearGradient id="paint8_linear_1415_1491" x1="280.947" y1="455.002" x2="284.968" y2="537.892" gradientUnits="userSpaceOnUse">
<stop stop-color="#F7B59C"/>
<stop offset="1" stop-color="#F79480"/>
</linearGradient>
<linearGradient id="paint9_linear_1415_1491" x1="243.057" y1="375.066" x2="351.364" y2="375.066" gradientUnits="userSpaceOnUse">
<stop stop-color="#C1210D"/>
<stop offset="0.52" stop-color="#C1210D"/>
<stop offset="1" stop-color="#9D1D06"/>
</linearGradient>
<linearGradient id="paint10_linear_1415_1491" x1="300.949" y1="157.305" x2="301.964" y2="196.444" gradientUnits="userSpaceOnUse">
<stop stop-color="#F7B59C"/>
<stop offset="1" stop-color="#F79480"/>
</linearGradient>
<linearGradient id="paint11_linear_1415_1491" x1="300.686" y1="119.503" x2="296.282" y2="173.487" gradientUnits="userSpaceOnUse">
<stop stop-color="#F7C3AF"/>
<stop offset="1" stop-color="#F79480"/>
</linearGradient>
<clipPath id="clip0_1415_1491">
<rect width="300" height="538" fill="white"/>
</clipPath>
<clipPath id="clip1_1415_1491">
<rect width="161" height="498" fill="white" transform="translate(220 43)"/>
</clipPath>
</defs>
</svg>
