<svg width="204" height="567" viewBox="0 0 204 567" fill="none" xmlns="http://www.w3.org/2000/svg">
<g clip-path="url(#clip0_1_27443)">
<path d="M118.183 115.783C113.048 112.14 87.8282 102.506 69.3326 107.573C66.5746 115.115 65.9546 118.568 65.9546 118.568L118.183 127.048V115.783Z" fill="#B8B8B8"/>
<path d="M122.928 125.203C114.264 118.504 98.5108 110.835 87.6137 110.66C76.7166 110.485 72.6233 110.819 61.5673 118.56C50.5112 126.309 95.4904 167.239 95.4904 167.239L131.512 154.344L122.928 125.195V125.203Z" fill="#401C00"/>
<path d="M165.626 566.928C165.626 566.928 126.147 566.507 126.147 566.928C126.147 567.35 126.902 565.616 126.902 565.616C126.902 565.616 140.009 554.486 141.535 554.232C143.053 553.977 145.557 556.403 146.55 556.801C147.544 557.199 163.599 563.539 164.362 564.216C165.125 564.892 165.634 566.92 165.634 566.92L165.626 566.928Z" fill="#454545"/>
<path d="M6.74023 566.929C6.74023 566.929 35.195 566.507 35.195 566.929C35.195 567.35 34.6068 565.616 34.6068 565.616C34.6068 565.616 31.1891 559.204 28.0495 557.366C27.0083 556.754 21.7227 556.499 20.9517 556.889C20.1807 557.287 8.31399 563.532 7.72582 564.216C7.13765 564.892 6.74023 566.921 6.74023 566.921V566.929Z" fill="#454545"/>
<path d="M147.408 142.784C153.306 147.319 173.32 164.192 176.086 167.263C178.844 170.334 188.405 188.655 191.14 195.998C193.874 203.341 204.302 224.98 204 236.953C203.69 248.926 198.373 265.481 183.009 271.559C167.653 277.637 155.841 258.751 152.622 236.802C149.403 214.853 141.59 138.313 147.416 142.784H147.408Z" fill="#E1EFFF"/>
<path d="M164.752 349.968C164.752 374.789 146.383 476.332 143.379 505.194C139.866 538.878 146.55 556.809 146.55 556.809C146.55 556.809 143.22 555.656 142.266 555.656C141.312 555.656 126.902 565.624 126.902 565.624C126.902 565.624 121.267 510.731 118.421 474.375C116.005 443.476 111.522 406.157 111.522 406.157C111.522 406.157 93.1617 438.941 72.8539 481.503C67.9578 491.758 34.599 565.624 34.599 565.624L20.9438 556.905C20.9438 556.905 28.2006 534.041 30.7917 523.611C48.3018 453.213 51.2267 405.449 52.1169 386.523C52.4031 380.397 55.63 350.421 55.63 350.421C61.1779 331.416 93.6148 335.473 115.282 334.486C147.305 333.031 164.736 328.647 164.744 349.976L164.752 349.968Z" fill="url(#paint0_linear_1_27443)"/>
<path d="M127.029 347.374L123.413 383.03C123.413 383.03 110.56 381.909 121.418 350.429L127.029 347.374Z" fill="url(#paint1_linear_1_27443)"/>
<path d="M71.248 56.1177C71.248 56.1177 72.7264 94.2879 71.6375 108.687C70.9698 117.542 41.1479 131.01 41.1479 143.142C73.243 145.545 149.864 165.386 149.864 152.156C149.864 138.926 118.294 130.867 116.903 120.135C115.512 109.395 113.557 89.8806 113.557 89.8806L84.7362 85.2028L71.256 56.1177H71.248Z" fill="url(#paint2_linear_1_27443)"/>
<path d="M128.293 132.227L103.51 122.681L61.75 124.662L126.115 205.903C126.115 205.903 130.28 150.119 128.293 132.227Z" fill="#F7F7F7"/>
<path d="M122.928 125.203C118.206 143.492 97.2707 132.792 97.2707 132.792L61.5671 118.56C61.5671 118.56 40.8937 132.888 35.8943 137.001C30.8869 141.114 21.19 171.631 31.324 198.464C41.4581 225.298 53.2771 257.414 55.6854 288.687C57.2989 309.666 55.6377 350.397 55.6377 350.397C55.6377 350.397 95.9593 351.185 127.029 350.843C151.255 350.572 164.751 349.952 164.751 349.952C164.751 349.952 165.514 264.248 160.952 241.782C159.267 230.795 170.665 215.155 166.866 200.787C163.066 186.42 153.298 151.814 147.408 142.776L122.936 125.195L122.928 125.203Z" fill="#E1EFFF"/>
<path d="M55.6376 350.453L55.0972 355.52L164.751 356.69V350.007L55.6376 350.453Z" fill="#707070"/>
<path d="M89.6246 350.333H92.8516L93.1616 359.713H89.561L89.6246 350.333Z" fill="url(#paint3_linear_1_27443)"/>
<path d="M150.755 350.023L149.904 358.305H153.123L153.791 349.968L150.755 350.023Z" fill="url(#paint4_linear_1_27443)"/>
<path d="M134.031 348.727H122.395L122.498 358.082L134.532 357.517V356.093L124.573 356.308L123.834 350.66L134.492 350.151L134.031 348.727Z" fill="url(#paint5_linear_1_27443)"/>
<path d="M130.59 352.537L120.909 352.354V353.245L130.59 354.343C130.59 354.343 131.782 353.508 130.59 352.537Z" fill="url(#paint6_linear_1_27443)"/>
<path d="M103.51 122.681L117.372 137.009L114.543 152.697C114.543 152.697 123.54 175.752 127.872 202.211C136.202 253.078 143.275 335.568 143.275 335.974C143.275 336.595 130.852 352.625 130.852 352.625L116.323 337.016C116.323 337.016 121.148 254.049 118.652 202.004C117.404 176.006 110.743 153.556 110.704 153.556C110.576 153.556 92.6133 138.297 92.6133 138.297L103.518 122.673L103.51 122.681Z" fill="url(#paint7_linear_1_27443)"/>
<path d="M78.3855 189.682C78.3855 189.682 72.9092 191.201 74.2286 201.997C75.548 212.8 81.0879 214.59 81.0879 214.59C81.0879 214.59 88.3447 209.316 86.2702 200.366C84.2037 191.416 78.3855 189.682 78.3855 189.682Z" fill="#ADADAD"/>
<path d="M78.5208 190.771C78.5208 190.771 74.8726 190.374 73.3226 190.294C71.7727 190.215 63.0376 194.264 63.0376 194.264C63.0376 194.264 63.4271 215.386 75.1666 217.796C76.2238 216.603 77.5352 214.59 78.3936 213.102C80.1105 212.951 80.7622 212.546 80.7622 212.546C80.7622 212.546 85.6504 198.003 78.5049 190.771H78.5208Z" fill="url(#paint8_linear_1_27443)"/>
<path d="M35.8944 137.009C28.9635 141.997 0.882337 166.237 0.0239246 170.74C-0.834487 175.243 18.6308 268.512 42.6902 275.346C66.7496 282.18 78.6004 264.813 80.357 252.864C83.3773 232.347 76.2557 211.13 70.2786 195.951C60.693 171.607 35.8865 137.009 35.8865 137.009H35.8944Z" fill="#E1EFFF"/>
<path d="M167.645 222.474C167.645 222.474 167.637 206.953 155.436 203.985C144.15 205.012 86.5965 212.418 76.9234 215.664C61.5674 220.811 44.1686 226.189 38.6208 241.662C31.3958 261.813 39.0341 275.552 49.3748 276.69C60.391 277.899 89.8075 276.849 120.853 265.035C151.899 253.222 167.653 222.49 167.653 222.49L167.645 222.474Z" fill="#E1EFFF"/>
<path d="M156.787 206.324C156.684 206.022 162.081 194.296 162.486 193.588C162.892 192.872 169.179 187.319 169.179 187.319L180.974 185.728C180.974 185.728 182.301 187.406 182.007 189.801C181.96 190.183 172.398 192.474 172.382 192.879C179.058 192.816 186.108 193.58 186.108 193.58C186.108 193.58 188.596 196.722 188.286 198.965C189.28 201.01 189.105 203.5 188.286 205.624L186.299 205.433C186.299 205.433 186.689 208.273 184.853 210.35C181.292 209.443 177.262 208.846 177.262 208.846C177.262 208.846 172.31 210.763 171.062 211.153C169.886 211.877 169.56 219.156 166.739 220.366C161.437 219.872 156.771 206.316 156.771 206.316L156.787 206.324Z" fill="url(#paint9_linear_1_27443)"/>
<path d="M183.104 214.017C152.853 194.646 115.703 190.294 78.3779 189.682C82.3997 191.424 87.6774 201.312 81.0803 214.59C121.442 238.313 139.548 274.518 176.769 272.713C206.75 271.257 200.9 225.41 183.112 214.017H183.104Z" fill="#EEF7FF"/>
<path d="M79.8881 190.628L76.208 190.294C76.208 190.294 79.443 193.42 79.7052 201.272C79.9198 207.613 78.3938 213.102 78.3938 213.102L81.3982 213.93C81.3982 213.93 84.037 208.846 84.3152 202.641C84.6729 194.773 79.8881 190.628 79.8881 190.628Z" fill="#C2D8F0"/>
<path d="M103.51 122.681L118.628 138.305L128.833 129.626L118.183 115.783L103.51 122.681Z" fill="#CFDDF1"/>
<path d="M103.51 122.681C103.51 122.681 96.6747 133.85 92.6052 140.262C65.2473 127.565 57.5137 119.737 57.5137 119.737L69.3407 107.573C69.3407 107.573 80.8736 115.895 103.51 122.681Z" fill="#CFDDF1"/>
<path d="M71.1053 273.317L73.9985 271.63C74.8966 273.174 75.3894 274.065 76.3591 275.894L72.7506 276.292C71.8047 274.51 71.9875 274.836 71.1053 273.325V273.317ZM65.001 264.033L67.6796 262.02C68.7923 263.508 69.9051 265.091 70.9861 266.738L68.1883 268.575C67.1471 266.992 66.074 265.465 65.009 264.033H65.001ZM57.7363 255.735L60.0652 253.317C61.4164 254.622 62.7596 256.038 64.0552 257.517L61.5276 259.721C60.2957 258.305 59.0239 256.968 57.7363 255.727V255.735ZM49.1443 249.005L50.9008 246.149C52.5223 247.143 54.1278 248.273 55.6857 249.498L53.6112 252.131C52.1566 250.986 50.6544 249.936 49.1443 249.005ZM39.2805 244.59L40.2184 241.368C42.0782 241.909 43.9302 242.593 45.7265 243.396L44.3515 246.451C42.6982 245.711 40.9893 245.075 39.2805 244.582V244.59ZM18.5514 240.835C20.4828 240.373 20.9041 240.294 22.7799 240.063L23.1852 243.388C21.4366 243.603 21.4366 243.5 19.6244 243.929L18.5435 240.827L18.5514 240.835ZM28.606 243.062L28.6218 239.705C30.593 239.705 32.5642 239.856 34.4718 240.127L34.0028 243.444C32.2383 243.19 30.4261 243.062 28.606 243.054V243.062Z" fill="#C2D8F0"/>
<path d="M168.209 268.997L171.555 268.806C171.651 270.532 171.698 270.922 171.992 272.768L168.59 272.474C168.281 270.517 168.312 270.827 168.209 268.989V268.997ZM168.241 263.198C168.384 261.193 168.678 259.252 169.115 257.422L172.374 258.194C171.984 259.848 171.714 261.614 171.587 263.436L168.249 263.198H168.241ZM171.007 251.837C171.825 250.031 172.835 248.313 174.011 246.73L176.698 248.727C175.664 250.119 174.782 251.622 174.059 253.221L171.007 251.837ZM178.009 242.378C179.432 241.113 181.03 239.944 182.746 238.902L184.479 241.774C182.929 242.712 181.498 243.762 180.227 244.892L178.009 242.378ZM187.952 236.276C189.669 235.56 191.513 234.924 193.421 234.383L194.327 237.613C192.547 238.114 190.838 238.711 189.24 239.371L187.952 236.276ZM199.032 233.102C200.86 232.776 201.759 232.657 203.706 232.474L204.008 235.815C202.164 235.99 201.361 236.093 199.628 236.404L199.04 233.102H199.032Z" fill="#C2D8F0"/>
<path d="M65.9548 60C65.9548 60 59.5962 55.0597 54.9067 60.9308C49.7721 67.3588 60.2241 86.1018 71.0099 77.7566L65.9548 60Z" fill="#FFC2B3"/>
<path d="M67.099 74.479C66.8367 74.479 66.5823 74.3358 66.4552 74.0812C62.8307 67.0168 58.1333 66.7304 58.0856 66.7304C57.6882 66.7145 57.3782 66.3724 57.3941 65.9746C57.41 65.5769 57.7439 65.2586 58.1492 65.2825C58.3718 65.2905 63.7448 65.6087 67.7507 73.4209C67.9335 73.7789 67.7905 74.2165 67.4328 74.3994C67.3295 74.4551 67.2102 74.479 67.099 74.479Z" fill="#F48073"/>
<path d="M134.548 60C134.548 60 140.907 55.0597 145.596 60.9308C150.731 67.3588 140.279 86.1018 129.493 77.7566L134.548 60Z" fill="#FFC2B3"/>
<path d="M133.404 74.479C133.292 74.479 133.181 74.4551 133.07 74.3995C132.712 74.2165 132.569 73.7789 132.752 73.4209C136.758 65.6087 142.123 65.2905 142.353 65.2825C142.751 65.2427 143.093 65.5769 143.109 65.9746C143.124 66.3724 142.814 66.7145 142.417 66.7304C142.21 66.7384 137.632 67.0805 134.047 74.0812C133.92 74.3358 133.666 74.479 133.404 74.479Z" fill="#F48073"/>
<path d="M100.395 84.399C122.945 84.399 141.225 66.5546 141.225 44.5423C141.225 22.53 122.945 4.68555 100.395 4.68555C77.8448 4.68555 59.5645 22.53 59.5645 44.5423C59.5645 66.5546 77.8448 84.399 100.395 84.399Z" fill="black"/>
<path d="M65.8912 40.0877C65.8912 40.0877 59.5167 104.885 98.9877 104.925C142.393 104.972 135.2 40.0877 135.2 40.0877C135.2 40.0877 134.969 12.3789 100.236 12.3789C68.3949 12.3789 65.8912 40.0877 65.8912 40.0877Z" fill="url(#paint10_linear_1_27443)"/>
<path d="M99.9253 77.1914H97.1593C96.7619 77.1914 96.436 76.8652 96.436 76.4674C96.436 76.0697 96.7619 75.7435 97.1593 75.7435H99.9253C100.18 75.7435 100.41 75.6401 100.577 75.4571C100.744 75.2741 100.823 75.0275 100.8 74.7809L100.156 65.4571C100.132 65.0593 100.426 64.7093 100.831 64.6854C101.245 64.6616 101.579 64.9559 101.602 65.3617L102.246 74.6616C102.31 75.29 102.095 75.9503 101.658 76.4356C101.221 76.9209 100.585 77.2073 99.9253 77.2073V77.1914Z" fill="#F48073"/>
<path d="M88.0983 62.0442C88.0983 63.6751 86.7789 64.9957 85.1495 64.9957C83.5201 64.9957 82.2007 63.6751 82.2007 62.0442C82.2007 60.4134 83.5201 59.0928 85.1495 59.0928C86.7789 59.0928 88.0983 60.4134 88.0983 62.0442Z" fill="#2B232A"/>
<path d="M117.602 62.0442C117.602 63.6751 116.283 64.9957 114.653 64.9957C113.024 64.9957 111.705 63.6751 111.705 62.0442C111.705 60.4134 113.024 59.0928 114.653 59.0928C116.283 59.0928 117.602 60.4134 117.602 62.0442Z" fill="#2B232A"/>
<path d="M99.3772 84.2563C93.2809 84.2563 90.2288 81.2173 90.0778 81.0661C89.7996 80.7797 89.7996 80.3183 90.0857 80.0399C90.3719 79.7614 90.8329 79.7614 91.111 80.0399C91.2621 80.191 94.9501 83.7949 102.501 82.522C102.89 82.4504 103.272 82.7209 103.335 83.1186C103.399 83.5164 103.137 83.8903 102.739 83.954C101.531 84.1608 100.403 84.2483 99.3693 84.2483L99.3772 84.2563Z" fill="#F48073"/>
<path d="M75.3017 53.1186C78.0359 52.2276 85.6742 51.2729 91.8579 51.3207C92.5892 51.3207 93.0025 50.549 92.5574 50.016C91.2141 48.401 87.1367 45.1313 81.1993 46.4281C81.1993 46.4281 76.8357 47.7328 73.9426 51.4241C73.7518 51.6707 73.6803 51.981 73.7438 52.2753C73.879 52.9356 74.6182 53.3414 75.3017 53.1106V53.1186Z" fill="#2B232A"/>
<path d="M123.611 53.1186C120.877 52.2276 113.239 51.2729 107.055 51.3207C106.324 51.3207 105.911 50.549 106.356 50.016C107.699 48.401 111.776 45.1313 117.714 46.4281C117.714 46.4281 122.077 47.7328 124.971 51.4241C125.161 51.6707 125.233 51.981 125.169 52.2753C125.034 52.9356 124.295 53.3414 123.611 53.1106V53.1186Z" fill="#2B232A"/>
<path d="M63.4353 50.7556L69.9688 40.4533C69.9688 40.4533 70.4218 27.0325 76.8758 15.9585C76.8758 15.9585 59.7473 27.9871 63.4353 50.7556Z" fill="black"/>
<path d="M136.416 50.7556L129.883 40.4533C129.883 40.4533 129.43 27.0325 122.976 15.9585C122.976 15.9585 140.104 27.9871 136.416 50.7556Z" fill="black"/>
<path d="M67.29 24.2403C67.29 24.2403 110.918 49.3875 135.931 17.3589C135.931 17.3589 94.8864 -25.9426 67.29 24.2403Z" fill="black"/>
</g>
<defs>
<linearGradient id="paint0_linear_1_27443" x1="90.6819" y1="368.894" x2="94.5676" y2="519.705" gradientUnits="userSpaceOnUse">
<stop stop-color="#454545"/>
<stop offset="1" stop-color="#2E2E2E"/>
</linearGradient>
<linearGradient id="paint1_linear_1_27443" x1="117.062" y1="365.202" x2="127.029" y2="365.202" gradientUnits="userSpaceOnUse">
<stop stop-color="#3D3D3D"/>
<stop offset="1" stop-color="#262626"/>
</linearGradient>
<linearGradient id="paint2_linear_1_27443" x1="120.034" y1="72.0683" x2="91.4217" y2="159.587" gradientUnits="userSpaceOnUse">
<stop stop-color="#F7C3AF"/>
<stop offset="1" stop-color="#F79480"/>
</linearGradient>
<linearGradient id="paint3_linear_1_27443" x1="89.561" y1="355.027" x2="93.1616" y2="355.027" gradientUnits="userSpaceOnUse">
<stop stop-color="#3D3D3D"/>
<stop offset="1" stop-color="#262626"/>
</linearGradient>
<linearGradient id="paint4_linear_1_27443" x1="149.904" y1="354.136" x2="153.791" y2="354.136" gradientUnits="userSpaceOnUse">
<stop stop-color="#3D3D3D"/>
<stop offset="1" stop-color="#262626"/>
</linearGradient>
<linearGradient id="paint5_linear_1_27443" x1="122.395" y1="353.404" x2="134.532" y2="353.404" gradientUnits="userSpaceOnUse">
<stop stop-color="#3D3D3D"/>
<stop offset="1" stop-color="#262626"/>
</linearGradient>
<linearGradient id="paint6_linear_1_27443" x1="120.917" y1="353.349" x2="131.122" y2="353.349" gradientUnits="userSpaceOnUse">
<stop stop-color="#3D3D3D"/>
<stop offset="1" stop-color="#262626"/>
</linearGradient>
<linearGradient id="paint7_linear_1_27443" x1="88.2179" y1="128.17" x2="103.934" y2="187.813" gradientUnits="userSpaceOnUse">
<stop stop-color="#C1210D"/>
<stop offset="0.52" stop-color="#C1210D"/>
<stop offset="1" stop-color="#9D1D06"/>
</linearGradient>
<linearGradient id="paint8_linear_1_27443" x1="66.0897" y1="208.21" x2="73.6373" y2="202.759" gradientUnits="userSpaceOnUse">
<stop stop-color="#F7B59C"/>
<stop offset="1" stop-color="#F79480"/>
</linearGradient>
<linearGradient id="paint9_linear_1_27443" x1="175.633" y1="200.063" x2="169.579" y2="205.722" gradientUnits="userSpaceOnUse">
<stop stop-color="#F7B59C"/>
<stop offset="1" stop-color="#F79480"/>
</linearGradient>
<linearGradient id="paint10_linear_1_27443" x1="100.577" y1="70.7082" x2="100.577" y2="110.692" gradientUnits="userSpaceOnUse">
<stop stop-color="#F7C3AF"/>
<stop offset="1" stop-color="#F79480"/>
</linearGradient>
<clipPath id="clip0_1_27443">
<rect width="204" height="567" fill="white"/>
</clipPath>
</defs>
</svg>
