<svg width="238" height="586" viewBox="0 0 238 586" fill="none" xmlns="http://www.w3.org/2000/svg">
<g style="mix-blend-mode:multiply">
<path fill-rule="evenodd" clip-rule="evenodd" d="M119 554C184.724 554 238 561.167 238 570C238 578.833 184.724 586 119 586C53.2761 586 0 578.841 0 570C0 561.159 53.2761 554 119 554Z" fill="#E2E2F2"/>
</g>
<g clip-path="url(#clip0_1526_1341)">
<path d="M152.183 115.783C147.048 112.14 121.828 102.506 103.333 107.573C100.575 115.115 99.9547 118.568 99.9547 118.568L152.183 127.048V115.783Z" fill="#B8B8B8"/>
<path d="M156.928 125.203C148.264 118.504 132.511 110.835 121.614 110.66C110.717 110.485 106.623 110.819 95.5672 118.56C84.5112 126.309 129.49 167.239 129.49 167.239L165.512 154.344L156.928 125.195V125.203Z" fill="#401C00"/>
<path d="M199.626 566.928C199.626 566.928 160.147 566.507 160.147 566.928C160.147 567.35 160.902 565.616 160.902 565.616C160.902 565.616 174.009 554.486 175.535 554.232C177.053 553.977 179.556 556.403 180.55 556.801C181.544 557.199 197.599 563.539 198.362 564.216C199.125 564.892 199.634 566.92 199.634 566.92L199.626 566.928Z" fill="#454545"/>
<path d="M40.7401 566.929C40.7401 566.929 69.1949 566.507 69.1949 566.929C69.1949 567.35 68.6067 565.616 68.6067 565.616C68.6067 565.616 65.189 559.204 62.0494 557.366C61.0082 556.754 55.7226 556.499 54.9516 556.889C54.1806 557.287 42.3139 563.532 41.7257 564.216C41.1375 564.892 40.7401 566.921 40.7401 566.921V566.929Z" fill="#454545"/>
<path d="M181.408 142.784C187.306 147.319 207.32 164.192 210.086 167.263C212.844 170.334 222.406 188.655 225.14 195.998C227.874 203.341 238.302 224.98 238 236.953C237.69 248.926 232.373 265.481 217.009 271.559C201.653 277.637 189.842 258.751 186.622 236.802C183.403 214.853 175.59 138.313 181.416 142.784H181.408Z" fill="#E1EFFF"/>
<path d="M198.751 349.968C198.751 374.789 180.383 476.332 177.379 505.194C173.866 538.878 180.55 556.809 180.55 556.809C180.55 556.809 177.22 555.656 176.266 555.656C175.312 555.656 160.902 565.624 160.902 565.624C160.902 565.624 155.267 510.731 152.421 474.375C150.005 443.476 145.522 406.157 145.522 406.157C145.522 406.157 127.162 438.941 106.854 481.503C101.958 491.758 68.5988 565.624 68.5988 565.624L54.9437 556.905C54.9437 556.905 62.2004 534.041 64.7916 523.611C82.3016 453.213 85.2265 405.449 86.1167 386.523C86.4029 380.397 89.6299 350.421 89.6299 350.421C95.1777 331.416 127.615 335.473 149.282 334.486C181.305 333.031 198.736 328.647 198.744 349.976L198.751 349.968Z" fill="url(#paint0_linear_1526_1341)"/>
<path d="M161.029 347.374L157.413 383.03C157.413 383.03 144.56 381.909 155.418 350.429L161.029 347.374Z" fill="url(#paint1_linear_1526_1341)"/>
<path d="M105.248 56.1177C105.248 56.1177 106.727 94.2879 105.638 108.687C104.97 117.542 75.1481 131.01 75.1481 143.142C107.243 145.545 183.864 165.386 183.864 152.156C183.864 138.926 152.294 130.867 150.903 120.135C149.512 109.395 147.557 89.8806 147.557 89.8806L118.736 85.2028L105.256 56.1177H105.248Z" fill="url(#paint2_linear_1526_1341)"/>
<path d="M162.293 132.227L137.51 122.681L95.75 124.662L160.115 205.903C160.115 205.903 164.28 150.119 162.293 132.227Z" fill="#F7F7F7"/>
<path d="M156.928 125.203C152.206 143.492 131.271 132.792 131.271 132.792L95.5672 118.56C95.5672 118.56 74.8938 132.888 69.8943 137.001C64.8869 141.114 55.1901 171.631 65.3241 198.464C75.4581 225.298 87.2772 257.414 89.6855 288.687C91.299 309.666 89.6378 350.397 89.6378 350.397C89.6378 350.397 129.959 351.185 161.029 350.843C185.255 350.572 198.751 349.952 198.751 349.952C198.751 349.952 199.515 264.248 194.952 241.782C193.267 230.795 204.665 215.155 200.866 200.787C197.066 186.42 187.298 151.814 181.408 142.776L156.936 125.195L156.928 125.203Z" fill="#E1EFFF"/>
<path d="M89.6378 350.453L89.0973 355.52L198.751 356.69V350.007L89.6378 350.453Z" fill="#707070"/>
<path d="M123.625 350.333H126.852L127.162 359.713H123.561L123.625 350.333Z" fill="url(#paint3_linear_1526_1341)"/>
<path d="M184.755 350.023L183.904 358.305H187.123L187.791 349.968L184.755 350.023Z" fill="url(#paint4_linear_1526_1341)"/>
<path d="M168.031 348.727H156.395L156.499 358.082L168.532 357.517V356.093L158.573 356.308L157.834 350.66L168.492 350.151L168.031 348.727Z" fill="url(#paint5_linear_1526_1341)"/>
<path d="M164.59 352.537L154.909 352.354V353.245L164.59 354.343C164.59 354.343 165.782 353.508 164.59 352.537Z" fill="url(#paint6_linear_1526_1341)"/>
<path d="M137.51 122.681L151.372 137.009L148.542 152.697C148.542 152.697 157.54 175.752 161.872 202.211C170.201 253.078 177.275 335.568 177.275 335.974C177.275 336.595 164.852 352.625 164.852 352.625L150.323 337.016C150.323 337.016 155.147 254.049 152.652 202.004C151.404 176.006 144.743 153.556 144.703 153.556C144.576 153.556 126.613 138.297 126.613 138.297L137.518 122.673L137.51 122.681Z" fill="url(#paint7_linear_1526_1341)"/>
<path d="M112.386 189.682C112.386 189.682 106.909 191.201 108.229 201.997C109.548 212.8 115.088 214.59 115.088 214.59C115.088 214.59 122.345 209.316 120.27 200.366C118.204 191.416 112.386 189.682 112.386 189.682Z" fill="#ADADAD"/>
<path d="M112.521 190.771C112.521 190.771 108.873 190.374 107.323 190.294C105.773 190.215 97.0376 194.264 97.0376 194.264C97.0376 194.264 97.4271 215.386 109.167 217.796C110.224 216.603 111.535 214.59 112.394 213.102C114.11 212.951 114.762 212.546 114.762 212.546C114.762 212.546 119.65 198.003 112.505 190.771H112.521Z" fill="url(#paint8_linear_1526_1341)"/>
<path d="M69.8943 137.009C62.9635 141.997 34.8823 166.237 34.0238 170.74C33.1654 175.243 52.6307 268.512 76.6901 275.346C100.749 282.18 112.6 264.813 114.357 252.864C117.377 232.347 110.256 211.13 104.279 195.951C94.6929 171.607 69.8864 137.009 69.8864 137.009H69.8943Z" fill="#E1EFFF"/>
<path d="M201.645 222.474C201.645 222.474 201.637 206.953 189.436 203.985C178.15 205.012 120.596 212.418 110.923 215.664C95.5672 220.811 78.1685 226.189 72.6206 241.662C65.3956 261.813 73.0339 275.552 83.3746 276.69C94.3909 277.899 123.807 276.849 154.853 265.035C185.899 253.222 201.653 222.49 201.653 222.49L201.645 222.474Z" fill="#E1EFFF"/>
<path d="M190.787 206.324C190.684 206.022 196.081 194.296 196.486 193.588C196.892 192.872 203.179 187.319 203.179 187.319L214.974 185.728C214.974 185.728 216.301 187.406 216.007 189.801C215.959 190.183 206.398 192.474 206.382 192.879C213.058 192.816 220.108 193.58 220.108 193.58C220.108 193.58 222.596 196.722 222.286 198.965C223.28 201.01 223.105 203.5 222.286 205.624L220.299 205.433C220.299 205.433 220.689 208.273 218.853 210.35C215.292 209.443 211.262 208.846 211.262 208.846C211.262 208.846 206.31 210.763 205.062 211.153C203.886 211.877 203.56 219.156 200.739 220.366C195.437 219.872 190.771 206.316 190.771 206.316L190.787 206.324Z" fill="url(#paint9_linear_1526_1341)"/>
<path d="M217.104 214.017C186.853 194.646 149.703 190.294 112.378 189.682C116.4 191.424 121.677 201.312 115.08 214.59C155.441 238.313 173.548 274.518 210.769 272.713C240.75 271.257 234.9 225.41 217.112 214.017H217.104Z" fill="#EEF7FF"/>
<path d="M113.888 190.628L110.208 190.294C110.208 190.294 113.443 193.42 113.705 201.272C113.92 207.613 112.394 213.102 112.394 213.102L115.398 213.93C115.398 213.93 118.037 208.846 118.315 202.641C118.673 194.773 113.888 190.628 113.888 190.628Z" fill="#C2D8F0"/>
<path d="M137.51 122.681L152.628 138.305L162.833 129.626L152.183 115.783L137.51 122.681Z" fill="#CFDDF1"/>
<path d="M137.51 122.681C137.51 122.681 130.675 133.85 126.605 140.262C99.2473 127.565 91.5136 119.737 91.5136 119.737L103.341 107.573C103.341 107.573 114.874 115.895 137.51 122.681Z" fill="#CFDDF1"/>
<path d="M105.105 273.317L107.998 271.63C108.896 273.174 109.389 274.065 110.359 275.894L106.75 276.292C105.805 274.51 105.987 274.836 105.105 273.325V273.317ZM99.0009 264.033L101.679 262.02C102.792 263.508 103.905 265.091 104.986 266.738L102.188 268.575C101.147 266.992 100.074 265.465 99.0088 264.033H99.0009ZM91.7361 255.735L94.065 253.317C95.4162 254.622 96.7594 256.038 98.055 257.517L95.5275 259.721C94.2955 258.305 93.0238 256.968 91.7361 255.727V255.735ZM83.1441 249.005L84.9006 246.149C86.5221 247.143 88.1276 248.273 89.6855 249.498L87.611 252.131C86.1565 250.986 84.6543 249.936 83.1441 249.005ZM73.2803 244.59L74.2182 241.368C76.0781 241.909 77.93 242.593 79.7263 243.396L78.3513 246.451C76.698 245.711 74.9892 245.075 73.2803 244.582V244.59ZM52.5512 240.835C54.4827 240.373 54.9039 240.294 56.7797 240.063L57.1851 243.388C55.4365 243.603 55.4365 243.5 53.6243 243.929L52.5433 240.827L52.5512 240.835ZM62.6058 243.062L62.6217 239.705C64.5928 239.705 66.564 239.856 68.4716 240.127L68.0027 243.444C66.2381 243.19 64.4259 243.062 62.6058 243.054V243.062Z" fill="#C2D8F0"/>
<path d="M202.209 268.997L205.555 268.806C205.651 270.532 205.698 270.922 205.992 272.768L202.591 272.474C202.281 270.517 202.312 270.827 202.209 268.989V268.997ZM202.241 263.198C202.384 261.193 202.678 259.252 203.115 257.422L206.374 258.194C205.984 259.848 205.714 261.614 205.587 263.436L202.249 263.198H202.241ZM205.007 251.837C205.825 250.031 206.835 248.313 208.011 246.73L210.698 248.727C209.664 250.119 208.782 251.622 208.059 253.221L205.007 251.837ZM212.009 242.378C213.432 241.113 215.03 239.944 216.746 238.902L218.479 241.774C216.929 242.712 215.498 243.762 214.227 244.892L212.009 242.378ZM221.952 236.276C223.669 235.56 225.513 234.924 227.421 234.383L228.327 237.613C226.547 238.114 224.838 238.711 223.24 239.371L221.952 236.276ZM233.032 233.102C234.86 232.776 235.759 232.657 237.706 232.474L238.008 235.815C236.164 235.99 235.361 236.093 233.628 236.404L233.04 233.102H233.032Z" fill="#C2D8F0"/>
<path d="M99.9546 60C99.9546 60 93.596 55.0597 88.9066 60.9308C83.772 67.3588 94.2239 86.1018 105.01 77.7566L99.9546 60Z" fill="#FFC2B3"/>
<path d="M101.099 74.479C100.837 74.479 100.583 74.3358 100.455 74.0812C96.831 67.0168 92.1336 66.7304 92.0859 66.7304C91.6885 66.7145 91.3785 66.3724 91.3944 65.9746C91.4103 65.5769 91.7441 65.2586 92.1495 65.2825C92.372 65.2905 97.745 65.6087 101.751 73.4209C101.934 73.7789 101.791 74.2165 101.433 74.3994C101.33 74.4551 101.21 74.479 101.099 74.479Z" fill="#F48073"/>
<path d="M168.548 60C168.548 60 174.907 55.0597 179.596 60.9308C184.731 67.3588 174.279 86.1018 163.493 77.7566L168.548 60Z" fill="#FFC2B3"/>
<path d="M167.404 74.479C167.292 74.479 167.181 74.4551 167.07 74.3995C166.712 74.2165 166.569 73.7789 166.752 73.4209C170.758 65.6087 176.123 65.2905 176.353 65.2825C176.751 65.2427 177.093 65.5769 177.108 65.9746C177.124 66.3724 176.814 66.7145 176.417 66.7304C176.21 66.7384 171.632 67.0805 168.047 74.0812C167.92 74.3358 167.666 74.479 167.404 74.479Z" fill="#F48073"/>
<path d="M134.394 84.399C156.944 84.399 175.225 66.5546 175.225 44.5423C175.225 22.53 156.944 4.68555 134.394 4.68555C111.845 4.68555 93.5642 22.53 93.5642 44.5423C93.5642 66.5546 111.845 84.399 134.394 84.399Z" fill="black"/>
<path d="M99.8911 40.0877C99.8911 40.0877 93.5166 104.885 132.988 104.925C176.393 104.972 169.2 40.0877 169.2 40.0877C169.2 40.0877 168.969 12.3789 134.235 12.3789C102.395 12.3789 99.8911 40.0877 99.8911 40.0877Z" fill="url(#paint10_linear_1526_1341)"/>
<path d="M133.926 77.1914H131.16C130.762 77.1914 130.436 76.8652 130.436 76.4674C130.436 76.0697 130.762 75.7435 131.16 75.7435H133.926C134.18 75.7435 134.41 75.6401 134.577 75.4571C134.744 75.2741 134.824 75.0275 134.8 74.7809L134.156 65.4571C134.132 65.0593 134.426 64.7093 134.832 64.6854C135.245 64.6616 135.579 64.9559 135.603 65.3617L136.246 74.6616C136.31 75.29 136.095 75.9503 135.658 76.4356C135.221 76.9209 134.585 77.2073 133.926 77.2073V77.1914Z" fill="#F48073"/>
<path d="M122.098 62.0442C122.098 63.6751 120.779 64.9957 119.15 64.9957C117.52 64.9957 116.201 63.6751 116.201 62.0442C116.201 60.4134 117.52 59.0928 119.15 59.0928C120.779 59.0928 122.098 60.4134 122.098 62.0442Z" fill="#2B232A"/>
<path d="M151.602 62.0442C151.602 63.6751 150.283 64.9957 148.654 64.9957C147.024 64.9957 145.705 63.6751 145.705 62.0442C145.705 60.4134 147.024 59.0928 148.654 59.0928C150.283 59.0928 151.602 60.4134 151.602 62.0442Z" fill="#2B232A"/>
<path d="M133.377 84.2563C127.281 84.2563 124.229 81.2173 124.078 81.0661C123.799 80.7797 123.799 80.3183 124.086 80.0399C124.372 79.7614 124.833 79.7614 125.111 80.0399C125.262 80.191 128.95 83.7949 136.501 82.522C136.89 82.4504 137.272 82.7209 137.335 83.1186C137.399 83.5164 137.137 83.8903 136.739 83.954C135.531 84.1608 134.402 84.2483 133.369 84.2483L133.377 84.2563Z" fill="#F48073"/>
<path d="M109.302 53.1186C112.036 52.2276 119.674 51.2729 125.858 51.3207C126.589 51.3207 127.003 50.549 126.557 50.016C125.214 48.401 121.137 45.1313 115.199 46.4281C115.199 46.4281 110.836 47.7328 107.943 51.4241C107.752 51.6707 107.68 51.981 107.744 52.2753C107.879 52.9356 108.618 53.3414 109.302 53.1106V53.1186Z" fill="#2B232A"/>
<path d="M157.611 53.1186C154.877 52.2276 147.239 51.2729 141.055 51.3207C140.324 51.3207 139.911 50.549 140.356 50.016C141.699 48.401 145.776 45.1313 151.714 46.4281C151.714 46.4281 156.077 47.7328 158.97 51.4241C159.161 51.6707 159.233 51.981 159.169 52.2753C159.034 52.9356 158.295 53.3414 157.611 53.1106V53.1186Z" fill="#2B232A"/>
<path d="M97.435 50.7556L103.969 40.4533C103.969 40.4533 104.422 27.0325 110.876 15.9585C110.876 15.9585 93.7471 27.9871 97.435 50.7556Z" fill="black"/>
<path d="M170.416 50.7556L163.882 40.4533C163.882 40.4533 163.429 27.0325 156.975 15.9585C156.975 15.9585 174.104 27.9871 170.416 50.7556Z" fill="black"/>
<path d="M101.29 24.2403C101.29 24.2403 144.918 49.3875 169.931 17.3589C169.931 17.3589 128.886 -25.9426 101.29 24.2403Z" fill="black"/>
</g>
<defs>
<linearGradient id="paint0_linear_1526_1341" x1="124.682" y1="368.894" x2="128.567" y2="519.705" gradientUnits="userSpaceOnUse">
<stop stop-color="#454545"/>
<stop offset="1" stop-color="#2E2E2E"/>
</linearGradient>
<linearGradient id="paint1_linear_1526_1341" x1="151.062" y1="365.202" x2="161.029" y2="365.202" gradientUnits="userSpaceOnUse">
<stop stop-color="#3D3D3D"/>
<stop offset="1" stop-color="#262626"/>
</linearGradient>
<linearGradient id="paint2_linear_1526_1341" x1="154.035" y1="72.0683" x2="125.422" y2="159.587" gradientUnits="userSpaceOnUse">
<stop stop-color="#F7C3AF"/>
<stop offset="1" stop-color="#F79480"/>
</linearGradient>
<linearGradient id="paint3_linear_1526_1341" x1="123.561" y1="355.027" x2="127.162" y2="355.027" gradientUnits="userSpaceOnUse">
<stop stop-color="#3D3D3D"/>
<stop offset="1" stop-color="#262626"/>
</linearGradient>
<linearGradient id="paint4_linear_1526_1341" x1="183.904" y1="354.136" x2="187.791" y2="354.136" gradientUnits="userSpaceOnUse">
<stop stop-color="#3D3D3D"/>
<stop offset="1" stop-color="#262626"/>
</linearGradient>
<linearGradient id="paint5_linear_1526_1341" x1="156.395" y1="353.404" x2="168.532" y2="353.404" gradientUnits="userSpaceOnUse">
<stop stop-color="#3D3D3D"/>
<stop offset="1" stop-color="#262626"/>
</linearGradient>
<linearGradient id="paint6_linear_1526_1341" x1="154.917" y1="353.349" x2="165.122" y2="353.349" gradientUnits="userSpaceOnUse">
<stop stop-color="#3D3D3D"/>
<stop offset="1" stop-color="#262626"/>
</linearGradient>
<linearGradient id="paint7_linear_1526_1341" x1="122.218" y1="128.17" x2="137.934" y2="187.813" gradientUnits="userSpaceOnUse">
<stop stop-color="#C1210D"/>
<stop offset="0.52" stop-color="#C1210D"/>
<stop offset="1" stop-color="#9D1D06"/>
</linearGradient>
<linearGradient id="paint8_linear_1526_1341" x1="100.09" y1="208.21" x2="107.637" y2="202.759" gradientUnits="userSpaceOnUse">
<stop stop-color="#F7B59C"/>
<stop offset="1" stop-color="#F79480"/>
</linearGradient>
<linearGradient id="paint9_linear_1526_1341" x1="209.633" y1="200.063" x2="203.579" y2="205.722" gradientUnits="userSpaceOnUse">
<stop stop-color="#F7B59C"/>
<stop offset="1" stop-color="#F79480"/>
</linearGradient>
<linearGradient id="paint10_linear_1526_1341" x1="134.577" y1="70.7082" x2="134.577" y2="110.692" gradientUnits="userSpaceOnUse">
<stop stop-color="#F7C3AF"/>
<stop offset="1" stop-color="#F79480"/>
</linearGradient>
<clipPath id="clip0_1526_1341">
<rect width="204" height="567" fill="white" transform="translate(34)"/>
</clipPath>
</defs>
</svg>
