<svg width="232" height="643" viewBox="0 0 232 643" fill="none" xmlns="http://www.w3.org/2000/svg">
<g clip-path="url(#clip0_203_2824)">
<path d="M134.492 131.397C128.678 127.271 100.12 116.363 79.1767 122.101C76.0536 130.64 75.3516 134.55 75.3516 134.55L134.492 144.152V131.397Z" fill="#B8B8B8"/>
<path d="M139.866 142.062C130.055 134.478 112.217 125.794 99.8775 125.596C87.5381 125.398 82.903 125.776 70.3837 134.541C57.8644 143.314 108.797 189.659 108.797 189.659L149.586 175.057L139.866 142.053V142.062Z" fill="#401C00"/>
<path d="M188.215 642.217C188.215 642.217 143.511 641.74 143.511 642.217C143.511 642.695 144.366 640.731 144.366 640.731C144.366 640.731 159.207 628.129 160.935 627.841C162.654 627.553 165.489 630.3 166.614 630.751C167.739 631.201 185.92 638.38 186.784 639.146C187.648 639.911 188.224 642.208 188.224 642.208L188.215 642.217Z" fill="#454545"/>
<path d="M8.2998 642.217C8.2998 642.217 40.5206 641.74 40.5206 642.217C40.5206 642.695 39.8546 640.731 39.8546 640.731C39.8546 640.731 35.9845 633.471 32.4294 631.39C31.2504 630.696 25.2652 630.408 24.3922 630.849C23.5192 631.3 10.0819 638.371 9.41583 639.146C8.74982 639.911 8.2998 642.208 8.2998 642.208V642.217Z" fill="#454545"/>
<path d="M167.586 161.969C174.265 167.104 196.927 186.209 200.059 189.686C203.182 193.163 214.01 213.908 217.106 222.222C220.202 230.536 232.01 255.037 231.668 268.594C231.317 282.151 225.296 300.896 207.898 307.778C190.51 314.66 177.136 293.275 173.491 268.423C169.845 243.57 160.998 156.907 167.595 161.969H167.586Z" fill="#E1EFFF"/>
<path d="M187.225 396.558C187.225 424.662 166.425 539.637 163.023 572.317C159.045 610.456 166.614 630.759 166.614 630.759C166.614 630.759 162.843 629.453 161.763 629.453C160.683 629.453 144.366 640.74 144.366 640.74C144.366 640.74 137.985 578.586 134.763 537.421C132.027 502.435 126.95 460.18 126.95 460.18C126.95 460.18 106.16 497.301 83.1643 545.492C77.6202 557.103 39.8462 640.74 39.8462 640.74L24.3838 630.867C24.3838 630.867 32.601 604.979 35.5351 593.17C55.3626 513.46 58.6747 459.378 59.6827 437.949C60.0067 431.013 63.6608 397.071 63.6608 397.071C69.943 375.552 106.673 380.146 131.208 379.029C167.469 377.38 187.207 372.417 187.216 396.567L187.225 396.558Z" fill="url(#paint0_linear_203_2824)"/>
<path d="M144.51 393.622L140.415 433.994C140.415 433.994 125.862 432.724 138.156 397.081L144.51 393.622Z" fill="url(#paint1_linear_203_2824)"/>
<path d="M81.3456 63.8389C81.3456 63.8389 83.0196 107.058 81.7866 123.362C81.0306 133.388 47.2617 148.638 47.2617 162.375C83.6047 165.095 170.367 187.56 170.367 172.58C170.367 157.6 134.618 148.476 133.043 136.324C131.468 124.164 129.254 102.068 129.254 102.068L96.619 96.7712L81.3546 63.8389H81.3456Z" fill="url(#paint2_linear_203_2824)"/>
<path d="M145.941 150.016L117.878 139.207L70.5908 141.45L143.475 233.437C143.475 233.437 148.191 170.275 145.941 150.016Z" fill="#F7F7F7"/>
<path d="M139.866 142.062C134.52 162.771 110.813 150.656 110.813 150.656L70.3842 134.541C70.3842 134.541 46.9745 150.764 41.3134 155.421C35.6433 160.078 24.663 194.632 36.1383 225.015C47.6136 255.398 60.9969 291.762 63.724 327.172C65.551 350.925 63.67 397.045 63.67 397.045C63.67 397.045 109.328 397.936 144.51 397.549C171.943 397.243 187.225 396.54 187.225 396.54C187.225 396.54 188.089 299.5 182.923 274.062C181.015 261.622 193.921 243.913 189.619 227.645C185.317 211.377 174.256 172.193 167.587 161.961L139.875 142.053L139.866 142.062Z" fill="#E1EFFF"/>
<path d="M63.6696 397.107L63.0576 402.845L187.225 404.17V396.603L63.6696 397.107Z" fill="#707070"/>
<path d="M102.155 396.973H105.809L106.16 407.593H102.083L102.155 396.973Z" fill="url(#paint3_linear_203_2824)"/>
<path d="M171.375 396.621L170.412 405.998H174.057L174.813 396.558L171.375 396.621Z" fill="url(#paint4_linear_203_2824)"/>
<path d="M152.439 395.153H139.263L139.38 405.746L153.006 405.106V403.494L141.729 403.737L140.892 397.342L152.961 396.765L152.439 395.153Z" fill="url(#paint5_linear_203_2824)"/>
<path d="M148.541 399.467L137.579 399.26V400.269L148.541 401.512C148.541 401.512 149.891 400.566 148.541 399.467Z" fill="url(#paint6_linear_203_2824)"/>
<path d="M117.878 139.207L133.575 155.43L130.371 173.193C130.371 173.193 140.559 199.297 145.464 229.257C154.896 286.853 162.907 380.254 162.907 380.713C162.907 381.416 148.839 399.567 148.839 399.567L132.387 381.893C132.387 381.893 137.85 287.952 135.024 229.023C133.611 199.586 126.069 174.166 126.024 174.166C125.88 174.166 105.539 156.889 105.539 156.889L117.887 139.198L117.878 139.207Z" fill="url(#paint7_linear_203_2824)"/>
<path d="M89.4287 215.07C89.4287 215.07 83.2275 216.79 84.7216 229.014C86.2156 241.246 92.4888 243.273 92.4888 243.273C92.4888 243.273 100.706 237.301 98.3569 227.167C96.0169 217.034 89.4287 215.07 89.4287 215.07Z" fill="#ADADAD"/>
<path d="M89.5813 216.304C89.5813 216.304 85.4502 215.854 83.6951 215.764C81.9401 215.673 72.0488 220.258 72.0488 220.258C72.0488 220.258 72.4898 244.174 85.7832 246.903C86.9802 245.552 88.4653 243.273 89.4373 241.589C91.3813 241.418 92.1194 240.958 92.1194 240.958C92.1194 240.958 97.6545 224.492 89.5633 216.304H89.5813Z" fill="url(#paint8_linear_203_2824)"/>
<path d="M41.3131 155.43C33.4649 161.078 1.66705 188.524 0.695024 193.623C-0.277001 198.721 21.7646 304.328 49.0083 312.065C76.252 319.803 89.6713 300.139 91.6604 286.609C95.0805 263.379 87.0163 239.355 80.2481 222.168C69.3938 194.604 41.3041 155.43 41.3041 155.43H41.3131Z" fill="#E1EFFF"/>
<path d="M190.501 252.2C190.501 252.2 190.492 234.626 176.677 231.266C163.896 232.428 98.7256 240.814 87.7723 244.489C70.3838 250.317 50.6823 256.407 44.4002 273.927C36.2189 296.743 44.8682 312.3 56.5775 313.588C69.0518 314.957 102.362 313.768 137.517 300.392C172.671 287.015 190.51 252.218 190.51 252.218L190.501 252.2Z" fill="#E1EFFF"/>
<path d="M178.206 233.914C178.089 233.572 184.201 220.295 184.66 219.493C185.119 218.682 192.238 212.395 192.238 212.395L205.594 210.593C205.594 210.593 207.097 212.494 206.764 215.205C206.71 215.638 195.883 218.232 195.865 218.691C203.425 218.619 211.408 219.484 211.408 219.484C211.408 219.484 214.225 223.042 213.874 225.582C214.999 227.897 214.801 230.717 213.874 233.122L211.624 232.905C211.624 232.905 212.065 236.121 209.986 238.472C205.954 237.445 201.391 236.77 201.391 236.77C201.391 236.77 195.784 238.941 194.371 239.382C193.039 240.202 192.67 248.444 189.475 249.813C183.472 249.255 178.188 233.905 178.188 233.905L178.206 233.914Z" fill="url(#paint9_linear_203_2824)"/>
<path d="M208.006 242.625C173.751 220.691 131.684 215.763 89.4189 215.07C93.9731 217.043 99.9492 228.239 92.479 243.273C138.182 270.134 158.685 311.128 200.833 309.084C234.782 307.435 228.158 255.524 208.015 242.625H208.006Z" fill="#EEF7FF"/>
<path d="M91.129 216.142L86.9619 215.764C86.9619 215.764 90.625 219.304 90.922 228.194C91.165 235.374 89.437 241.589 89.437 241.589L92.8391 242.526C92.8391 242.526 95.8271 236.77 96.1422 229.744C96.5472 220.835 91.129 216.142 91.129 216.142Z" fill="#C2D8F0"/>
<path d="M117.878 139.207L134.996 156.898L146.553 147.07L134.492 131.397L117.878 139.207Z" fill="#CFDDF1"/>
<path d="M117.878 139.207C117.878 139.207 110.138 151.854 105.53 159.114C74.5512 144.738 65.7939 135.874 65.7939 135.874L79.1863 122.101C79.1863 122.101 92.2456 131.523 117.878 139.207Z" fill="#CFDDF1"/>
<path d="M81.1836 309.769L84.4597 307.859C85.4767 309.607 86.0347 310.615 87.1327 312.687L83.0466 313.138C81.9756 311.12 82.1826 311.489 81.1836 309.778V309.769ZM74.2714 299.257L77.3045 296.978C78.5645 298.662 79.8245 300.455 81.0486 302.319L77.8805 304.4C76.7015 302.608 75.4864 300.878 74.2804 299.257H74.2714ZM66.0452 289.862L68.6823 287.123C70.2123 288.6 71.7333 290.204 73.2004 291.879L70.3383 294.374C68.9433 292.771 67.5032 291.258 66.0452 289.853V289.862ZM56.3159 282.241L58.305 279.007C60.141 280.133 61.9591 281.412 63.7231 282.799L61.3741 285.781C59.727 284.484 58.026 283.295 56.3159 282.241ZM45.1466 277.242L46.2087 273.594C48.3147 274.206 50.4118 274.981 52.4458 275.891L50.8888 279.35C49.0168 278.512 47.0817 277.791 45.1466 277.233V277.242ZM21.674 272.99C23.8611 272.468 24.3381 272.378 26.4622 272.116L26.9212 275.882C24.9411 276.125 24.9411 276.008 22.8891 276.494L21.665 272.981L21.674 272.99ZM33.0593 275.512L33.0773 271.711C35.3094 271.711 37.5414 271.882 39.7015 272.188L39.1705 275.945C37.1724 275.656 35.1204 275.512 33.0593 275.503V275.512Z" fill="#C2D8F0"/>
<path d="M191.14 304.877L194.929 304.661C195.037 306.616 195.091 307.057 195.424 309.147L191.572 308.813C191.221 306.597 191.257 306.949 191.14 304.868V304.877ZM191.176 298.31C191.338 296.04 191.671 293.843 192.166 291.771L195.856 292.644C195.415 294.518 195.109 296.518 194.965 298.581L191.185 298.31H191.176ZM194.308 285.447C195.235 283.403 196.378 281.457 197.71 279.664L200.752 281.925C199.582 283.502 198.583 285.204 197.764 287.015L194.308 285.447ZM202.237 274.737C203.848 273.305 205.657 271.981 207.601 270.801L209.563 274.053C207.808 275.115 206.188 276.304 204.748 277.584L202.237 274.737ZM213.496 267.828C215.44 267.017 217.528 266.297 219.688 265.684L220.714 269.341C218.698 269.909 216.763 270.585 214.954 271.332L213.496 267.828ZM226.043 264.234C228.113 263.865 229.13 263.73 231.335 263.522L231.677 267.306C229.589 267.504 228.68 267.621 226.718 267.972L226.052 264.234H226.043Z" fill="#C2D8F0"/>
<path d="M75.3516 68.2347C75.3516 68.2347 68.1514 62.6409 62.8413 69.2886C57.0271 76.5669 68.8624 97.7891 81.0757 88.34L75.3516 68.2347Z" fill="#FFC2B3"/>
<path d="M76.6481 84.6287C76.3511 84.6287 76.0631 84.4666 75.9191 84.1784C71.815 76.1795 66.4959 75.8552 66.4419 75.8552C65.9919 75.8372 65.6409 75.4498 65.6589 74.9995C65.6769 74.5491 66.0549 74.1888 66.5139 74.2158C66.7659 74.2248 72.8501 74.5851 77.3862 83.4307C77.5932 83.8361 77.4312 84.3315 77.0262 84.5387C76.9092 84.6017 76.7742 84.6287 76.6481 84.6287Z" fill="#F48073"/>
<path d="M153.024 68.2347C153.024 68.2347 160.224 62.6409 165.534 69.2886C171.348 76.5669 159.513 97.7891 147.3 88.34L153.024 68.2347Z" fill="#FFC2B3"/>
<path d="M151.728 84.629C151.602 84.629 151.476 84.602 151.35 84.5389C150.945 84.3317 150.783 83.8363 150.99 83.431C155.526 74.5854 161.601 74.2251 161.862 74.2161C162.312 74.171 162.699 74.5493 162.717 74.9997C162.735 75.4501 162.384 75.8374 161.934 75.8555C161.7 75.8645 156.516 76.2518 152.457 84.1786C152.313 84.4669 152.025 84.629 151.728 84.629Z" fill="#F48073"/>
<path d="M114.349 95.8616C139.884 95.8616 160.584 75.6568 160.584 50.7328C160.584 25.8089 139.884 5.604 114.349 5.604C88.815 5.604 68.1152 25.8089 68.1152 50.7328C68.1152 75.6568 88.815 95.8616 114.349 95.8616Z" fill="black"/>
<path d="M75.2798 45.6884C75.2798 45.6884 68.0617 119.057 112.757 119.102C161.907 119.156 153.762 45.6884 153.762 45.6884C153.762 45.6884 153.501 14.3145 114.17 14.3145C78.1149 14.3145 75.2798 45.6884 75.2798 45.6884Z" fill="url(#paint10_linear_203_2824)"/>
<path d="M113.819 87.7003H110.687C110.237 87.7003 109.868 87.331 109.868 86.8806C109.868 86.4302 110.237 86.0609 110.687 86.0609H113.819C114.107 86.0609 114.368 85.9438 114.557 85.7366C114.746 85.5294 114.836 85.2502 114.809 84.9709L114.08 74.4139C114.053 73.9635 114.386 73.5671 114.845 73.5401C115.313 73.5131 115.691 73.8464 115.718 74.3058L116.447 84.8358C116.519 85.5474 116.276 86.2951 115.781 86.8446C115.286 87.394 114.566 87.7183 113.819 87.7183V87.7003Z" fill="#F48073"/>
<path d="M100.426 70.5499C100.426 72.3965 98.9322 73.8918 97.0871 73.8918C95.2421 73.8918 93.748 72.3965 93.748 70.5499C93.748 68.7033 95.2421 67.208 97.0871 67.208C98.9322 67.208 100.426 68.7033 100.426 70.5499Z" fill="#2B232A"/>
<path d="M133.835 70.5499C133.835 72.3965 132.341 73.8918 130.496 73.8918C128.651 73.8918 127.157 72.3965 127.157 70.5499C127.157 68.7033 128.651 67.208 130.496 67.208C132.341 67.208 133.835 68.7033 133.835 70.5499Z" fill="#2B232A"/>
<path d="M113.198 95.6995C106.295 95.6995 102.839 92.2586 102.668 92.0874C102.353 91.7631 102.353 91.2407 102.677 90.9254C103.001 90.6101 103.523 90.6101 103.838 90.9254C104.009 91.0966 108.185 95.1771 116.735 93.7358C117.176 93.6548 117.608 93.961 117.68 94.4114C117.752 94.8618 117.455 95.2852 117.005 95.3572C115.637 95.5914 114.359 95.6905 113.189 95.6905L113.198 95.6995Z" fill="#F48073"/>
<path d="M85.9362 60.4433C89.0323 59.4344 97.6815 58.3535 104.684 58.4075C105.512 58.4075 105.98 57.5338 105.476 56.9303C103.955 55.1017 99.3375 51.3995 92.6144 52.8678C92.6144 52.8678 87.6732 54.3451 84.3971 58.5246C84.1811 58.8039 84.1001 59.1552 84.1721 59.4885C84.3251 60.2361 85.1622 60.6955 85.9362 60.4343V60.4433Z" fill="#2B232A"/>
<path d="M140.639 60.4433C137.543 59.4344 128.894 58.3535 121.892 58.4075C121.064 58.4075 120.596 57.5338 121.1 56.9303C122.621 55.1017 127.238 51.3995 133.961 52.8678C133.961 52.8678 138.902 54.3451 142.178 58.5246C142.394 58.8039 142.475 59.1552 142.403 59.4885C142.25 60.2361 141.413 60.6955 140.639 60.4343V60.4433Z" fill="#2B232A"/>
<path d="M72.4993 57.7676L79.8975 46.1025C79.8975 46.1025 80.4105 30.9065 87.7187 18.3677C87.7187 18.3677 68.3232 31.9874 72.4993 57.7676Z" fill="black"/>
<path d="M155.139 57.7676L147.741 46.1025C147.741 46.1025 147.228 30.9065 139.92 18.3677C139.92 18.3677 159.315 31.9874 155.139 57.7676Z" fill="black"/>
<path d="M76.8643 27.7449C76.8643 27.7449 126.267 56.2184 154.59 19.9532C154.59 19.9532 108.113 -29.076 76.8643 27.7449Z" fill="black"/>
</g>
<defs>
<linearGradient id="paint0_linear_203_2824" x1="103.352" y1="417.987" x2="107.751" y2="588.747" gradientUnits="userSpaceOnUse">
<stop stop-color="#454545"/>
<stop offset="1" stop-color="#2E2E2E"/>
</linearGradient>
<linearGradient id="paint1_linear_203_2824" x1="133.224" y1="413.808" x2="144.51" y2="413.808" gradientUnits="userSpaceOnUse">
<stop stop-color="#3D3D3D"/>
<stop offset="1" stop-color="#262626"/>
</linearGradient>
<linearGradient id="paint2_linear_203_2824" x1="136.589" y1="81.8994" x2="104.193" y2="180.996" gradientUnits="userSpaceOnUse">
<stop stop-color="#F7C3AF"/>
<stop offset="1" stop-color="#F79480"/>
</linearGradient>
<linearGradient id="paint3_linear_203_2824" x1="102.083" y1="402.287" x2="106.16" y2="402.287" gradientUnits="userSpaceOnUse">
<stop stop-color="#3D3D3D"/>
<stop offset="1" stop-color="#262626"/>
</linearGradient>
<linearGradient id="paint4_linear_203_2824" x1="170.412" y1="401.278" x2="174.813" y2="401.278" gradientUnits="userSpaceOnUse">
<stop stop-color="#3D3D3D"/>
<stop offset="1" stop-color="#262626"/>
</linearGradient>
<linearGradient id="paint5_linear_203_2824" x1="139.263" y1="400.449" x2="153.006" y2="400.449" gradientUnits="userSpaceOnUse">
<stop stop-color="#3D3D3D"/>
<stop offset="1" stop-color="#262626"/>
</linearGradient>
<linearGradient id="paint6_linear_203_2824" x1="137.588" y1="400.386" x2="149.144" y2="400.386" gradientUnits="userSpaceOnUse">
<stop stop-color="#3D3D3D"/>
<stop offset="1" stop-color="#262626"/>
</linearGradient>
<linearGradient id="paint7_linear_203_2824" x1="100.562" y1="145.422" x2="118.356" y2="212.955" gradientUnits="userSpaceOnUse">
<stop stop-color="#C1210D"/>
<stop offset="0.52" stop-color="#C1210D"/>
<stop offset="1" stop-color="#9D1D06"/>
</linearGradient>
<linearGradient id="paint8_linear_203_2824" x1="75.5049" y1="236.049" x2="84.051" y2="229.876" gradientUnits="userSpaceOnUse">
<stop stop-color="#F7B59C"/>
<stop offset="1" stop-color="#F79480"/>
</linearGradient>
<linearGradient id="paint9_linear_203_2824" x1="199.546" y1="226.825" x2="192.692" y2="233.233" gradientUnits="userSpaceOnUse">
<stop stop-color="#F7B59C"/>
<stop offset="1" stop-color="#F79480"/>
</linearGradient>
<linearGradient id="paint10_linear_203_2824" x1="114.557" y1="80.3592" x2="114.557" y2="125.632" gradientUnits="userSpaceOnUse">
<stop stop-color="#F7C3AF"/>
<stop offset="1" stop-color="#F79480"/>
</linearGradient>
<clipPath id="clip0_203_2824">
<rect width="231" height="642" fill="white" transform="translate(0.667969 0.29834)"/>
</clipPath>
</defs>
</svg>
