<svg width="168" height="284" viewBox="0 0 168 284" fill="none" xmlns="http://www.w3.org/2000/svg">
<g clip-path="url(#clip0_203_4212)">
<path d="M123.16 218.502C120.03 243.022 97.1303 280.702 97.1303 280.702H94.0703L94.1203 217.882L123.16 218.492V218.502Z" fill="url(#paint0_linear_203_4212)"/>
<path d="M54.54 219.182C58.86 243.432 84.15 280.712 84.15 280.712H87.33L84.49 218.582L54.55 219.192L54.54 219.182Z" fill="url(#paint1_linear_203_4212)"/>
<path d="M28.3604 233.672C28.3604 233.672 32.8503 108.582 86.0303 102.862C139.21 97.1417 150.07 223.712 150.49 226.092C120.2 254.972 61.0303 254.492 28.3704 233.672H28.3604Z" fill="#398DA5"/>
<path d="M127.56 136.332C125.06 137.312 122.29 138.532 119.21 139.592C107.24 143.722 100.8 151.102 104.46 156.362C109.48 163.542 118.99 166.982 129.55 156.472C131.13 154.902 132.73 153.342 134.22 151.812C132.44 144.682 129.99 138.902 127.55 136.332H127.56Z" fill="#347F91"/>
<path d="M131.53 135.262C127.73 130.862 110.52 127.082 109.4 129.592C108.27 132.112 109.15 135.712 110.47 135.882C111.79 136.052 133.02 136.982 131.53 135.252V135.262Z" fill="#347F91"/>
<path d="M113.85 150.192C110.6 153.372 92.4696 150.072 89.3396 145.782C87.4296 143.162 88.4796 136.422 92.7196 136.712C94.6696 136.842 98.5296 140.382 102.5 143.142C108.66 147.402 117.96 146.162 113.84 150.192H113.85Z" fill="#347F91"/>
<path d="M115.01 154.482C113.94 158.902 96.8203 165.722 91.8903 163.742C88.8803 162.532 86.2003 156.272 89.9503 154.262C91.6703 153.342 96.8203 154.302 101.65 154.522C109.13 154.872 116.36 148.892 115.01 154.482Z" fill="#347F91"/>
<path d="M83.53 178.092C83.53 178.092 48.8 192.372 45.04 155.202L65.92 143.512L83.53 178.102V178.092Z" fill="#347F91"/>
<path d="M138.96 223.422C138.78 221.372 136.97 219.852 134.92 220.032C132.87 220.212 131.35 222.012 131.53 224.062C131.7 226.112 133.51 227.632 135.56 227.452C137.61 227.272 139.13 225.472 138.95 223.422H138.96Z" fill="#C1210D"/>
<path d="M136.63 217.152C136.54 216.082 135.59 215.282 134.52 215.382C133.45 215.482 132.65 216.422 132.74 217.492C132.83 218.572 133.94 221.212 135.01 221.112C136.09 221.022 136.72 218.222 136.63 217.152Z" fill="#C1210D"/>
<path d="M133.88 230.662C133.97 231.732 134.92 232.532 135.99 232.432C137.06 232.342 137.86 231.392 137.76 230.322C137.67 229.242 136.56 226.602 135.49 226.702C134.42 226.792 133.78 229.582 133.87 230.662H133.88Z" fill="#C1210D"/>
<path d="M142.01 225.282C143.08 225.192 143.88 224.242 143.79 223.172C143.7 222.102 142.75 221.302 141.68 221.392C140.6 221.482 137.96 222.592 138.06 223.662C138.15 224.732 140.94 225.372 142.02 225.282H142.01Z" fill="#C1210D"/>
<path d="M128.5 222.532C127.43 222.622 126.63 223.572 126.73 224.642C126.82 225.712 127.77 226.512 128.84 226.412C129.92 226.322 132.55 225.212 132.46 224.142C132.37 223.072 129.58 222.432 128.5 222.522V222.532Z" fill="#C1210D"/>
<path d="M139.06 229.652C139.89 230.352 141.12 230.232 141.81 229.412C142.51 228.592 142.4 227.362 141.57 226.662C140.75 225.972 138.1 224.882 137.4 225.712C136.71 226.532 138.23 228.962 139.06 229.652Z" fill="#C1210D"/>
<path d="M131.45 218.162C130.63 217.462 129.39 217.572 128.7 218.402C128.01 219.222 128.11 220.452 128.94 221.152C129.77 221.842 132.42 222.932 133.11 222.102C133.8 221.272 132.28 218.852 131.45 218.162Z" fill="#C1210D"/>
<path d="M129.51 227.712C128.81 228.542 128.92 229.762 129.75 230.462C130.57 231.152 131.81 231.052 132.5 230.222C133.19 229.402 134.28 226.752 133.45 226.052C132.63 225.362 130.2 226.882 129.51 227.712Z" fill="#C1210D"/>
<path d="M141.01 220.102C141.7 219.272 141.59 218.052 140.77 217.352C139.95 216.662 138.72 216.762 138.02 217.592C137.33 218.412 136.24 221.062 137.06 221.762C137.89 222.452 140.31 220.932 141 220.102H141.01Z" fill="#C1210D"/>
<path d="M44.2901 223.942C44.6801 221.992 43.7301 219.902 42.1701 219.272C40.6201 218.642 39.0301 219.712 38.6501 221.662C38.2601 223.612 39.2101 225.712 40.7601 226.332C42.3201 226.962 43.8901 225.892 44.2901 223.942Z" fill="#C1210D"/>
<path d="M44.1702 217.292C44.3802 216.272 43.8802 215.172 43.0602 214.852C42.2502 214.522 41.4202 215.082 41.2102 216.102C41.0102 217.122 41.1502 219.972 41.9602 220.302C42.7702 220.632 43.9502 218.312 44.1602 217.292H44.1702Z" fill="#C1210D"/>
<path d="M38.7097 228.632C38.5097 229.652 38.9997 230.752 39.8197 231.082C40.6297 231.412 41.4597 230.852 41.6697 229.832C41.8797 228.812 41.7297 225.962 40.9097 225.632C40.0997 225.302 38.9197 227.622 38.7097 228.642V228.632Z" fill="#C1210D"/>
<path d="M46.07 226.832C46.89 227.162 47.71 226.602 47.91 225.582C48.11 224.562 47.62 223.462 46.81 223.142C45.99 222.812 43.76 222.812 43.56 223.832C43.35 224.852 45.25 226.512 46.07 226.842V226.832Z" fill="#C1210D"/>
<path d="M36.8098 219.102C35.9898 218.772 35.1698 219.332 34.9698 220.362C34.7598 221.382 35.2598 222.472 36.0698 222.802C36.8898 223.132 39.1198 223.132 39.3198 222.112C39.5298 221.092 37.6298 219.432 36.8098 219.102Z" fill="#C1210D"/>
<path d="M42.7797 229.712C43.2097 230.672 44.1497 231.042 44.8697 230.552C45.5897 230.062 45.8297 228.892 45.3897 227.932C44.9597 226.982 43.2797 224.962 42.5597 225.442C41.8397 225.932 42.3497 228.742 42.7797 229.702V229.712Z" fill="#C1210D"/>
<path d="M40.0896 216.222C39.6596 215.262 38.7196 214.892 37.9996 215.382C37.2796 215.872 37.0396 217.042 37.4796 218.002C37.9096 218.962 39.5896 220.972 40.3096 220.492C41.0296 220.002 40.5296 217.192 40.0896 216.232V216.222Z" fill="#C1210D"/>
<path d="M36.2304 224.242C35.5004 224.732 35.2704 225.902 35.7004 226.852C36.1304 227.812 37.0704 228.182 37.7904 227.692C38.5104 227.202 39.9804 225.192 39.5504 224.232C39.1204 223.272 36.9404 223.742 36.2204 224.232L36.2304 224.242Z" fill="#C1210D"/>
<path d="M46.64 221.692C47.36 221.202 47.6 220.032 47.16 219.072C46.73 218.112 45.79 217.732 45.07 218.232C44.34 218.722 42.87 220.732 43.3 221.692C43.73 222.652 45.91 222.182 46.63 221.692H46.64Z" fill="#C1210D"/>
<path d="M56.4895 184.902C56.8195 182.992 55.6295 181.212 53.8295 180.922C52.0395 180.632 50.3095 181.932 49.9895 183.842C49.6595 185.742 50.8495 187.532 52.6395 187.822C54.4295 188.122 56.1495 186.812 56.4895 184.902Z" fill="#C1210D"/>
<path d="M55.9702 178.692C56.1402 177.692 55.5202 176.762 54.5802 176.602C53.6402 176.452 52.7402 177.132 52.5702 178.132C52.4002 179.132 52.7302 181.782 53.6602 181.932C54.6002 182.092 55.8002 179.682 55.9702 178.692Z" fill="#C1210D"/>
<path d="M50.4402 190.372C50.2702 191.372 50.8902 192.302 51.8302 192.462C52.7702 192.612 53.6702 191.932 53.8402 190.932C54.0102 189.932 53.6902 187.282 52.7502 187.132C51.8102 186.972 50.6102 189.372 50.4402 190.372Z" fill="#C1210D"/>
<path d="M58.6596 187.282C59.5996 187.432 60.4996 186.752 60.6696 185.752C60.8496 184.762 60.2196 183.822 59.2896 183.672C58.3596 183.522 55.8296 183.942 55.6596 184.932C55.4896 185.932 57.7296 187.132 58.6696 187.282H58.6596Z" fill="#C1210D"/>
<path d="M47.7598 181.782C46.8198 181.632 45.9198 182.312 45.7498 183.312C45.5698 184.312 46.1898 185.242 47.1298 185.392C48.0698 185.552 50.5898 185.132 50.7598 184.132C50.9298 183.142 48.6998 181.932 47.7598 181.782Z" fill="#C1210D"/>
<path d="M55.1096 190.602C55.6496 191.422 56.7296 191.592 57.5196 191.002C58.3096 190.402 58.5096 189.262 57.9596 188.452C57.4196 187.642 55.4096 186.062 54.6196 186.652C53.8296 187.252 54.5696 189.792 55.1096 190.602Z" fill="#C1210D"/>
<path d="M51.2998 178.452C50.7598 177.642 49.6798 177.462 48.8898 178.062C48.1098 178.662 47.8998 179.802 48.4498 180.612C48.9898 181.432 51.0098 183.002 51.7898 182.412C52.5798 181.812 51.8398 179.272 51.2998 178.452Z" fill="#C1210D"/>
<path d="M47.4003 186.712C46.6103 187.312 46.4103 188.452 46.9603 189.262C47.5003 190.082 48.5803 190.252 49.3703 189.652C50.1503 189.052 51.7103 186.892 51.1603 186.072C50.6203 185.252 48.1903 186.112 47.4003 186.702V186.712Z" fill="#C1210D"/>
<path d="M59.0102 182.342C59.8002 181.742 60.0002 180.602 59.4602 179.782C58.9102 178.972 57.8402 178.792 57.0502 179.392C56.2602 179.992 54.7202 182.162 55.2502 182.972C55.8002 183.792 58.2302 182.932 59.0102 182.342Z" fill="#C1210D"/>
<path d="M92.1798 224.292C92.5698 222.202 91.1698 220.222 89.1098 219.862C87.0698 219.512 85.1398 220.882 84.7698 222.922C84.3998 224.952 85.7298 226.922 87.7498 227.322C89.7998 227.732 91.7998 226.382 92.1898 224.292H92.1798Z" fill="#C1210D"/>
<path d="M91.5801 217.452C91.7801 216.362 91.0601 215.342 89.9701 215.172C88.8901 215.012 87.8701 215.752 87.6701 216.822C87.4701 217.902 87.8401 220.772 88.9201 220.952C89.9901 221.142 91.3801 218.542 91.5901 217.452H91.5801Z" fill="#C1210D"/>
<path d="M85.2697 229.942C85.0797 231.012 85.7697 232.052 86.8297 232.282C87.8997 232.512 88.9297 231.832 89.1297 230.752C89.3297 229.672 88.9597 226.772 87.8797 226.562C86.8197 226.352 85.4597 228.882 85.2697 229.942Z" fill="#C1210D"/>
<path d="M94.7501 227.002C95.8701 227.222 96.9601 226.492 97.1601 225.392C97.3701 224.292 96.6201 223.222 95.5001 223.022C94.3801 222.822 91.4201 223.202 91.2101 224.292C91.0101 225.382 93.6301 226.792 94.7501 227.012V227.002Z" fill="#C1210D"/>
<path d="M82.3202 220.662C81.2902 220.482 80.3202 221.192 80.1302 222.232C79.9402 223.272 80.6002 224.282 81.6202 224.482C82.6502 224.682 85.4402 224.322 85.6302 223.252C85.8302 222.182 83.3502 220.842 82.3202 220.662Z" fill="#C1210D"/>
<path d="M90.5696 230.472C91.2096 231.402 92.4596 231.662 93.3896 231.062C94.3196 230.442 94.5596 229.192 93.9096 228.262C93.2696 227.332 90.9196 225.512 90.0096 226.122C89.0996 226.742 89.9496 229.552 90.5696 230.472Z" fill="#C1210D"/>
<path d="M86.2496 217.162C85.6396 216.282 84.4396 216.092 83.5696 216.722C82.7096 217.342 82.4796 218.562 83.0796 219.432C83.6796 220.312 85.9096 222.042 86.7896 221.422C87.6796 220.792 86.8596 218.032 86.2496 217.152V217.162Z" fill="#C1210D"/>
<path d="M81.9197 225.892C81.0597 226.492 80.8397 227.692 81.4297 228.582C82.0197 229.482 83.2097 229.722 84.0697 229.132C84.9397 228.532 86.6797 226.272 86.0797 225.372C85.4697 224.472 82.7897 225.292 81.9197 225.892Z" fill="#C1210D"/>
<path d="M95.1702 221.542C96.1202 220.892 96.3502 219.622 95.7002 218.712C95.0502 217.802 93.7802 217.592 92.8502 218.242C91.9302 218.892 90.1302 221.232 90.7502 222.132C91.3802 223.042 94.2402 222.172 95.1702 221.542Z" fill="#C1210D"/>
<path d="M133.3 178.632C133.23 176.372 131.64 174.562 129.8 174.592C127.98 174.622 126.58 176.432 126.66 178.642C126.74 180.842 128.26 182.642 130.08 182.662C131.92 182.692 133.37 180.892 133.3 178.632Z" fill="#C1210D"/>
<path d="M131.45 171.582C131.41 170.402 130.59 169.472 129.62 169.502C128.66 169.542 127.93 170.512 127.97 171.682C128.01 172.842 128.89 175.782 129.84 175.772C130.8 175.772 131.49 172.772 131.45 171.582Z" fill="#C1210D"/>
<path d="M128.46 185.902C128.5 187.062 129.3 188.022 130.26 188.052C131.22 188.082 131.97 187.172 131.94 186.002C131.9 184.832 131.01 181.862 130.05 181.852C129.09 181.842 128.42 184.752 128.47 185.902H128.46Z" fill="#C1210D"/>
<path d="M136.03 180.972C137.04 180.972 137.83 180.012 137.79 178.812C137.76 177.612 136.9 176.642 135.89 176.652C134.89 176.652 132.41 177.642 132.45 178.822C132.49 180.002 135.02 180.972 136.02 180.982L136.03 180.972Z" fill="#C1210D"/>
<path d="M124.11 176.742C123.19 176.742 122.49 177.682 122.54 178.812C122.58 179.942 123.35 180.872 124.26 180.882C125.18 180.882 127.51 179.972 127.47 178.812C127.43 177.652 125.04 176.732 124.11 176.742Z" fill="#C1210D"/>
<path d="M133.12 185.422C133.85 186.272 134.98 186.302 135.66 185.482C136.34 184.662 136.3 183.292 135.56 182.442C134.83 181.592 132.45 180.142 131.79 180.962C131.13 181.782 132.41 184.572 133.12 185.412V185.422Z" fill="#C1210D"/>
<path d="M126.81 172.312C126.12 171.512 125.05 171.542 124.42 172.382C123.8 173.202 123.85 174.512 124.53 175.322C125.22 176.122 127.47 177.502 128.11 176.692C128.76 175.862 127.51 173.132 126.81 172.322V172.312Z" fill="#C1210D"/>
<path d="M124.79 182.312C124.16 183.112 124.22 184.402 124.89 185.222C125.57 186.042 126.64 186.072 127.27 185.282C127.91 184.482 128.96 181.782 128.26 180.952C127.56 180.132 125.41 181.512 124.79 182.312Z" fill="#C1210D"/>
<path d="M135.33 175.162C136.02 174.302 135.98 172.922 135.23 172.092C134.5 171.272 133.36 171.292 132.69 172.162C132.02 173.022 130.94 175.822 131.65 176.642C132.37 177.472 134.66 176.002 135.33 175.162Z" fill="#C1210D"/>
<path d="M97.3603 182.012C97.2703 179.742 95.2803 177.902 92.9603 177.882C90.6803 177.862 88.9203 179.632 89.0303 181.842C89.1303 184.042 91.0403 185.882 93.3103 185.962C95.6203 186.042 97.4403 184.282 97.3603 182.022V182.012Z" fill="#C1210D"/>
<path d="M95.0401 174.912C94.9901 173.732 93.9601 172.772 92.7401 172.782C91.5401 172.792 90.6101 173.742 90.6601 174.912C90.7101 176.072 91.8101 179.042 93.0101 179.052C94.2201 179.072 95.0801 176.102 95.0301 174.912H95.0401Z" fill="#C1210D"/>
<path d="M91.2904 189.152C91.3404 190.312 92.3504 191.292 93.5404 191.352C94.7404 191.412 95.6904 190.512 95.6404 189.342C95.5804 188.172 94.4804 185.182 93.2704 185.142C92.0704 185.102 91.2304 188.002 91.2804 189.152H91.2904Z" fill="#C1210D"/>
<path d="M100.79 184.432C102.05 184.472 103.04 183.522 103 182.322C102.96 181.122 101.88 180.122 100.62 180.102C99.3602 180.082 96.2602 180.992 96.3102 182.172C96.3602 183.352 99.5302 184.402 100.79 184.432Z" fill="#C1210D"/>
<path d="M85.8303 179.872C84.6803 179.852 83.8003 180.762 83.8603 181.902C83.9103 183.032 84.8803 183.982 86.0203 184.022C87.1803 184.052 90.0903 183.202 90.0403 182.042C89.9903 180.882 86.9903 179.902 85.8303 179.872Z" fill="#C1210D"/>
<path d="M97.1402 188.802C98.0502 189.672 99.4802 189.732 100.32 188.932C101.17 188.132 101.12 186.762 100.19 185.892C99.2702 185.022 96.2902 183.502 95.4602 184.302C94.6402 185.112 96.2302 187.922 97.1302 188.792L97.1402 188.802Z" fill="#C1210D"/>
<path d="M89.2101 175.512C88.3401 174.692 87.0001 174.692 86.2201 175.512C85.4401 176.322 85.5001 177.632 86.3601 178.452C87.2201 179.272 90.0501 180.722 90.8501 179.912C91.6601 179.102 90.0901 176.332 89.2201 175.512H89.2101Z" fill="#C1210D"/>
<path d="M86.6802 185.452C85.8902 186.232 85.9602 187.532 86.8102 188.372C87.6602 189.212 89.0002 189.272 89.7902 188.492C90.5902 187.712 91.9102 185.032 91.0302 184.192C90.1602 183.352 87.4602 184.672 86.6802 185.452Z" fill="#C1210D"/>
<path d="M99.9 178.602C100.77 177.762 100.71 176.382 99.78 175.532C98.86 174.682 97.44 174.682 96.59 175.532C95.75 176.372 94.39 179.142 95.28 179.982C96.19 180.832 99.05 179.432 99.9 178.602Z" fill="#C1210D"/>
<path d="M104.43 123.582C103.77 121.462 101.58 120.012 99.58 120.322C97.6 120.632 96.55 122.552 97.2 124.612C97.85 126.662 99.97 128.132 101.95 127.872C103.96 127.612 105.09 125.692 104.43 123.582Z" fill="#C1210D"/>
<path d="M100.61 117.232C100.27 116.132 99.1299 115.372 98.0799 115.562C97.0499 115.742 96.4899 116.772 96.8299 117.862C97.1699 118.952 98.8799 121.572 99.9199 121.422C100.97 121.262 100.95 118.342 100.6 117.232H100.61Z" fill="#C1210D"/>
<path d="M101.03 131.172C101.37 132.252 102.49 133.032 103.54 132.912C104.6 132.792 105.18 131.812 104.84 130.722C104.49 129.632 102.77 126.972 101.72 127.112C100.67 127.242 100.69 130.092 101.03 131.172Z" fill="#C1210D"/>
<path d="M108.02 125.362C109.12 125.212 109.73 124.182 109.38 123.062C109.03 121.942 107.85 121.162 106.76 121.322C105.67 121.492 103.23 122.792 103.57 123.892C103.92 124.992 106.92 125.522 108.02 125.372V125.362Z" fill="#C1210D"/>
<path d="M93.9304 123.232C92.9304 123.382 92.4104 124.362 92.7504 125.422C93.0804 126.482 94.1604 127.232 95.1504 127.102C96.1604 126.962 98.4504 125.742 98.1204 124.662C97.7804 123.582 94.9404 123.082 93.9304 123.232Z" fill="#C1210D"/>
<path d="M105.98 130.002C106.99 130.692 108.24 130.542 108.76 129.672C109.29 128.792 108.9 127.512 107.87 126.832C106.86 126.142 103.9 125.152 103.38 126.022C102.88 126.902 104.98 129.322 105.97 130.002H105.98Z" fill="#C1210D"/>
<path d="M95.7397 118.642C94.7797 117.992 93.6297 118.192 93.1597 119.072C92.6997 119.942 93.0797 121.172 94.0297 121.822C94.9897 122.472 97.7997 123.422 98.2797 122.552C98.7697 121.672 96.6997 119.292 95.7397 118.642Z" fill="#C1210D"/>
<path d="M96.1002 128.362C95.6202 129.212 96.0102 130.422 96.9602 131.082C97.9202 131.752 99.0802 131.622 99.5702 130.772C100.06 129.922 100.51 127.212 99.5402 126.542C98.5702 125.872 96.5802 127.502 96.1102 128.352L96.1002 128.362Z" fill="#C1210D"/>
<path d="M105.76 120.012C106.29 119.092 105.89 117.812 104.87 117.142C103.85 116.482 102.63 116.682 102.11 117.602C101.6 118.512 101.14 121.322 102.12 121.982C103.12 122.652 105.24 120.922 105.75 120.022L105.76 120.012Z" fill="#C1210D"/>
<path d="M72.8205 141.632C67.7305 150.852 52.7705 165.862 47.2005 158.342C41.6305 150.822 57.2305 120.192 61.9605 118.522C66.6905 116.852 81.7305 125.482 72.8205 141.632Z" fill="url(#paint2_linear_203_4212)"/>
<path d="M97.1003 87.9617H79.1104V104.682C84.5304 108.162 91.6703 108.162 97.1003 104.682V87.9617Z" fill="url(#paint3_linear_203_4212)"/>
<path d="M98.3799 104.342C103.02 103.022 137.61 87.8617 148.03 107.652C158.55 127.642 135.33 156.812 134.18 158.172L130.78 155.282C130.78 155.282 144.83 123.152 134.89 116.292C128.07 111.582 119.05 120.422 119.05 120.422C111.9 112.492 107.31 108.322 98.3899 104.352L98.3799 104.342Z" fill="url(#paint4_linear_203_4212)"/>
<path d="M112.37 141.992C109.21 145.262 91 142.522 87.74 138.332C85.75 135.772 86.59 129.012 90.85 129.162C92.8 129.232 96.77 132.662 100.82 135.292C107.1 139.362 116.36 137.842 112.37 141.992Z" fill="#69B75C"/>
<path d="M90.8497 129.172C86.5997 129.012 85.7497 135.772 87.7397 138.342C88.0997 138.812 88.6697 139.252 89.3597 139.672C90.5197 138.622 91.5297 137.202 92.1997 135.482C92.9497 133.562 93.1397 131.622 92.8797 129.922C92.0797 129.482 91.3797 129.192 90.8397 129.172H90.8497Z" fill="#82CE72"/>
<path d="M105.3 148.932C101.77 143.742 108 136.232 119.87 131.742C129.5 128.102 136.38 122.902 140.95 128.212C145.96 134.032 137.71 141.362 130.15 148.852C119.43 159.472 110.13 156.032 105.29 148.922L105.3 148.932Z" fill="#69B75C"/>
<path d="M108.13 145.202C105.65 141.562 110.02 136.302 118.35 133.162C125.1 130.612 129.92 126.972 133.13 130.692C136.64 134.772 130.86 139.902 125.56 145.152C118.05 152.592 111.53 150.182 108.14 145.202H108.13Z" fill="#82CE72"/>
<path d="M92.9102 283.222H105.82L106.52 281.682L99.4902 276.672L94.2202 275.752L92.9702 280.232L92.9102 283.222Z" fill="#454545"/>
<path d="M88.4699 283.222H74.6699L73.9199 281.682L81.4299 276.672L87.0699 275.752L88.4099 280.232L88.4699 283.222Z" fill="#454545"/>
<path d="M114.92 152.082C113.18 156.282 95.1999 160.422 90.6399 157.712C87.8499 156.052 86.17 149.452 90.19 148.042C92.03 147.392 96.98 149.122 101.72 150.082C109.06 151.572 117.13 146.762 114.93 152.082H114.92Z" fill="#69B75C"/>
<path d="M90.19 148.032C86.17 149.442 87.8499 156.042 90.6399 157.702C91.1499 158.002 91.8399 158.202 92.6399 158.352C93.3399 156.952 93.76 155.252 93.76 153.412C93.76 151.342 93.22 149.472 92.36 147.992C91.45 147.872 90.7 147.862 90.19 148.042V148.032Z" fill="#82CE72"/>
<path d="M141.25 131.022C145.23 137.002 145.4 160.912 142.35 161.922C139.3 162.932 135.52 161.032 135.63 159.222C135.75 157.412 139.68 128.672 141.25 131.022Z" fill="#69B75C"/>
<path d="M137.72 127.042C133.2 122.872 113.12 119.962 111.88 122.512C110.64 125.062 111.75 128.592 113.29 128.702C114.83 128.812 139.5 128.672 137.72 127.042Z" fill="#69B75C"/>
<path d="M158.23 132.472C162.35 127.492 160.21 118.932 153.46 113.342C146.71 107.752 137.89 107.252 133.77 112.232C129.65 117.202 128.71 125.592 135.46 131.182C142.21 136.772 154.1 137.452 158.22 132.472H158.23Z" fill="#69B75C"/>
<path d="M147.85 107.912C147.44 103.552 144.62 100.242 141.55 100.522C138.47 100.802 136.31 104.562 136.72 108.932C137.13 113.292 139.95 116.602 143.02 116.322C146.09 116.042 148.26 112.282 147.85 107.912Z" fill="#69B75C"/>
<path d="M161.21 130.392C165.49 129.482 168.45 126.302 167.82 123.282C167.18 120.262 163.2 118.552 158.91 119.452C154.62 120.362 151.66 123.542 152.3 126.572C152.93 129.592 156.92 131.302 161.21 130.402V130.392Z" fill="#69B75C"/>
<path d="M165.37 123.612C164.93 121.482 162.12 120.272 159.1 120.912C158.98 120.932 158.87 120.982 158.75 121.012C159.62 122.322 159.82 124.352 159.11 126.392C158.8 127.282 158.34 128.042 157.81 128.682C158.69 128.842 159.66 128.852 160.67 128.642C163.7 128.002 165.81 125.752 165.37 123.612Z" fill="#82CE72"/>
<path d="M142.69 102.782C144.85 103.082 146.23 105.762 145.77 108.782C145.76 108.902 145.72 109.012 145.69 109.122C144.33 108.352 142.28 108.282 140.3 109.102C139.43 109.462 138.7 109.962 138.09 110.522C137.87 109.662 137.81 108.712 137.96 107.702C138.42 104.682 140.53 102.472 142.69 102.772V102.782Z" fill="#82CE72"/>
<path d="M76.0197 104.872C75.8797 106.822 78.6697 115.172 81.8697 115.032C85.0697 114.892 88.9697 107.232 88.9697 107.232L78.5297 102.642L76.0197 104.872Z" fill="#C1210D"/>
<path d="M100.49 103.622C100.63 105.572 99.26 114.192 95.99 114.052C92.72 113.912 87.71 106.982 87.71 106.982L97.45 102.792L100.49 103.622Z" fill="#C1210D"/>
<path d="M165.66 63.2717L158.32 61.8517L164.24 59.4817L158.56 37.9417C144.83 39.3617 134.42 53.0917 134.42 53.0917C130.87 37.7117 116.59 8.52166 107.83 5.20166C99.0796 1.89166 94.1096 7.80166 94.1096 7.80166C94.1096 7.80166 93.6396 2.59166 85.5896 0.941658C66.5296 -2.97834 33.8396 41.2517 33.8396 41.2517C26.2696 29.8917 9.93957 25.1617 9.93957 25.1617L1.87957 36.0517L9.92957 41.2517L1.63957 39.3617C-1.91043 50.2517 1.39957 60.9017 1.39957 60.9017L9.67957 61.6117L3.99957 63.7417C4.23957 74.1517 12.2796 81.2517 12.2796 81.2517C26.4796 77.2317 33.3396 68.0017 33.3396 68.0017C38.3096 82.2017 57.0096 92.6117 66.2396 94.9817L98.1896 95.9217C123.51 92.6117 134.4 76.0417 134.4 76.0417C137.71 83.6117 152.62 87.1617 152.62 87.1617L159.96 77.6917L155.94 75.3217L161.86 76.0317L165.65 63.2517L165.66 63.2717Z" fill="black"/>
<path d="M131.81 61.8517C131.81 39.5017 111.26 20.1917 85.9002 20.1917C60.5402 20.1917 41.4102 36.4217 41.4102 58.7717C41.4102 81.1217 51.4902 99.1117 83.2802 99.1117C115.07 99.1117 131.82 84.2017 131.82 61.8517H131.81Z" fill="url(#paint5_linear_203_4212)"/>
<path d="M48.5099 84.5616C41.6999 86.6017 30.0599 80.0816 32.0499 72.8316C34.3799 64.3516 48.9099 75.4716 48.5099 84.5616Z" fill="url(#paint6_linear_203_4212)"/>
<path d="M123.86 83.4816C131.11 85.0016 143.19 77.5016 140.87 70.3416C138.17 61.9716 123.18 74.3416 123.86 83.4816Z" fill="url(#paint7_linear_203_4212)"/>
<path d="M123.07 81.4817C123.07 81.4817 135.46 57.6717 125.44 37.3417C125.44 37.3417 134.88 50.4117 134.77 59.7617C134.64 70.2917 123.07 81.4817 123.07 81.4817Z" fill="black"/>
<path d="M48.7296 81.4817C48.7296 81.4817 36.6296 57.6717 46.4196 37.3417C46.4196 37.3417 37.1996 50.4117 37.3096 59.7617C37.4396 70.2917 48.7296 81.4817 48.7296 81.4817Z" fill="black"/>
<path d="M134.11 147.662C136.05 147.192 137.21 146.572 137.08 145.862C136.95 145.152 135.79 145.772 133.98 145.992C132.29 146.192 131.53 146.372 131.31 145.612C131.19 145.242 132.36 144.992 133.97 144.272C135.76 143.472 136.68 142.532 136.41 141.932C136 141.052 135.43 142.042 133.19 142.632C130.04 143.462 129.8 144.312 127.55 143.472C125.27 142.612 130.93 137.192 129.04 137.222C127.78 137.252 121.74 143.702 119.45 147.292C111.82 152.002 91.14 164.132 87.75 159.562C83.57 153.942 81.3 125.882 74.58 119.342C69.42 114.322 60.95 115.112 58.23 123.672C55.51 132.232 62.34 170.642 78.54 177.992C92.48 184.322 116.96 158.002 123.51 150.552C124.96 150.322 126.74 150.142 128.88 150.452C129.64 150.392 130.78 150.362 131.88 150.302C133.72 150.212 135.5 149.412 135.38 148.702C135.27 148.122 133.97 148.732 132.67 148.782C131.47 148.832 131.06 148.882 131.03 148.592C131 148.392 132.53 148.072 134.13 147.662H134.11Z" fill="url(#paint8_linear_203_4212)"/>
<path d="M133 163.592C132.74 164.352 132.41 165.522 132.07 166.632C131.51 168.492 130.26 170.122 129.61 169.822C129.07 169.562 130.01 168.382 130.39 167.062C130.75 165.842 130.91 165.432 130.64 165.322C130.46 165.242 129.75 166.722 128.93 168.262C127.97 170.132 127.07 171.172 126.41 170.842C125.76 170.522 126.67 169.492 127.34 167.682C127.97 165.992 128.35 165.262 127.67 164.842C127.34 164.622 126.8 165.752 125.68 167.232C124.44 168.862 123.29 169.562 122.78 169.132C122.04 168.482 123.14 168.152 124.3 166.002C125.93 162.982 126.81 162.952 126.59 160.422C126.36 157.852 119.63 162.272 120.15 160.332C120.59 158.752 132.32 152.242 134.46 152.682C137.94 154.322 133.76 156.742 132.98 163.592H133Z" fill="url(#paint9_linear_203_4212)"/>
<path d="M145.49 131.172C148.18 128.902 147.65 124.472 144.29 121.282C140.94 118.102 136.04 117.362 133.34 119.632C130.65 121.902 131.18 126.332 134.53 129.512C137.88 132.692 142.78 133.442 145.48 131.162L145.49 131.172Z" fill="#82CE72"/>
<path d="M142.5 124.112C143.58 123.212 143.36 121.442 142 120.162C140.64 118.882 138.66 118.582 137.58 119.492C136.5 120.392 136.72 122.162 138.08 123.442C139.44 124.722 141.42 125.022 142.5 124.112Z" fill="#707070"/>
<path d="M142.02 115.232C142.51 114.612 142.43 113.722 141.86 113.252C141.29 112.782 140.43 112.902 139.95 113.522C139.46 114.142 139.53 115.032 140.11 115.502C140.68 115.972 141.54 115.852 142.02 115.232Z" fill="#707070"/>
<path d="M151.39 125.682C151.88 125.062 151.81 124.182 151.23 123.702C150.66 123.232 149.81 123.352 149.32 123.972C148.83 124.592 148.9 125.482 149.47 125.952C150.04 126.422 150.9 126.302 151.38 125.682H151.39Z" fill="#707070"/>
<path d="M65.0997 76.9016L64.2197 76.9417C64.2197 76.9417 86.0897 90.4717 111.65 75.1017L110.52 75.1417C90.1297 84.8117 72.3497 79.8116 65.0997 76.9016Z" fill="#FF6058"/>
<path d="M84.7004 74.8517H88.0704C88.5604 74.8517 88.9504 74.4616 88.9504 73.9716C88.9504 73.4816 88.5604 73.0917 88.0704 73.0917H84.7004C84.3904 73.0917 84.1105 72.9617 83.9105 72.7417C83.7105 72.5117 83.6104 72.2217 83.6404 71.9217L84.4204 64.3917C84.4704 63.9017 84.1204 63.4717 83.6304 63.4217C83.1504 63.3717 82.7105 63.7217 82.6605 64.2117L81.8804 71.7417C81.8004 72.5417 82.0604 73.3317 82.5904 73.9317C83.1304 74.5217 83.8905 74.8717 84.6904 74.8717L84.7004 74.8517Z" fill="#F48073"/>
<path d="M103.5 63.8727C105.43 63.4193 106.627 61.487 106.174 59.5569C105.721 57.6267 103.788 56.4296 101.858 56.883C99.928 57.3364 98.7309 59.2687 99.1843 61.1989C99.6377 63.129 101.57 64.3261 103.5 63.8727Z" fill="#2B232A"/>
<path d="M67.1995 63.9599C69.1689 63.7314 70.5802 61.9495 70.3517 59.98C70.1231 58.0105 68.3412 56.5992 66.3717 56.8278C64.4022 57.0564 62.991 58.8383 63.2195 60.8077C63.4481 62.7772 65.23 64.1885 67.1995 63.9599Z" fill="#2B232A"/>
<path d="M115.17 49.3517L92.5801 47.1817C92.5801 47.1817 94.7401 40.9417 104.48 41.9517C114.45 42.9917 115.17 49.3517 115.17 49.3517Z" fill="#2B232A"/>
<path d="M54.46 49.3517L77.05 47.1817C77.05 47.1817 74.89 40.9417 65.15 41.9517C55.18 42.9917 54.46 49.3517 54.46 49.3517Z" fill="#2B232A"/>
</g>
<defs>
<linearGradient id="paint0_linear_203_4212" x1="94.0603" y1="249.302" x2="123.16" y2="249.302" gradientUnits="userSpaceOnUse">
<stop stop-color="#F7C3AF"/>
<stop offset="1" stop-color="#F79480"/>
</linearGradient>
<linearGradient id="paint1_linear_203_4212" x1="54.54" y1="249.642" x2="87.32" y2="249.642" gradientUnits="userSpaceOnUse">
<stop stop-color="#F7C3AF"/>
<stop offset="1" stop-color="#F79480"/>
</linearGradient>
<linearGradient id="paint2_linear_203_4212" x1="46.0105" y1="139.342" x2="75.5805" y2="139.342" gradientUnits="userSpaceOnUse">
<stop stop-color="#F7C3AF"/>
<stop offset="1" stop-color="#F79480"/>
</linearGradient>
<linearGradient id="paint3_linear_203_4212" x1="88.9804" y1="105.032" x2="88.5604" y2="100.802" gradientUnits="userSpaceOnUse">
<stop stop-color="#F7C3AF"/>
<stop offset="1" stop-color="#F79480"/>
</linearGradient>
<linearGradient id="paint4_linear_203_4212" x1="98.3799" y1="127.862" x2="150.76" y2="127.862" gradientUnits="userSpaceOnUse">
<stop stop-color="#F7C3AF"/>
<stop offset="1" stop-color="#F79480"/>
</linearGradient>
<linearGradient id="paint5_linear_203_4212" x1="90.1102" y1="38.8017" x2="77.8202" y2="114.852" gradientUnits="userSpaceOnUse">
<stop stop-color="#F7C3AF"/>
<stop offset="1" stop-color="#F79480"/>
</linearGradient>
<linearGradient id="paint6_linear_203_4212" x1="31.8299" y1="77.3716" x2="48.5199" y2="77.3716" gradientUnits="userSpaceOnUse">
<stop stop-color="#F7C3AF"/>
<stop offset="1" stop-color="#F79480"/>
</linearGradient>
<linearGradient id="paint7_linear_203_4212" x1="123.84" y1="75.6216" x2="141.16" y2="75.6216" gradientUnits="userSpaceOnUse">
<stop stop-color="#F7C3AF"/>
<stop offset="1" stop-color="#F79480"/>
</linearGradient>
<linearGradient id="paint8_linear_203_4212" x1="57.63" y1="147.592" x2="137.08" y2="147.592" gradientUnits="userSpaceOnUse">
<stop stop-color="#F7C3AF"/>
<stop offset="1" stop-color="#F79480"/>
</linearGradient>
<linearGradient id="paint9_linear_203_4212" x1="120.14" y1="161.782" x2="135.84" y2="161.782" gradientUnits="userSpaceOnUse">
<stop stop-color="#F7C3AF"/>
<stop offset="1" stop-color="#F79480"/>
</linearGradient>
<clipPath id="clip0_203_4212">
<rect width="167.9" height="282.52" fill="white" transform="translate(0 0.70166)"/>
</clipPath>
</defs>
</svg>
