<svg width="163" height="647" viewBox="0 0 163 647" fill="none" xmlns="http://www.w3.org/2000/svg">
<path d="M132.884 89.4603C124.08 73.8955 121.134 57.9536 121.292 51.5524C121.318 51.035 121.336 50.5176 121.353 50.0003C121.397 49.1146 121.45 48.6235 121.45 48.6235H121.379C121.388 21.7732 100.159 0 73.9748 0C47.7908 0 26.5701 21.7732 26.5701 48.6235C26.5701 49.9827 26.6402 51.3331 26.7455 52.666C26.7981 59.6724 23.4747 74.7373 15.1354 89.4603C4.77061 107.77 3.66574 127.114 24.2463 134.901C24.2463 134.901 24.3516 134.936 24.5006 134.988C26.4385 135.707 28.5431 136.33 30.8668 136.839C31.4105 136.953 31.9366 137.04 32.4715 137.146C46.3527 140.416 80.7093 145.301 113.277 137.549C114.557 137.347 115.855 137.128 117.17 136.839C120.818 136.041 123.949 134.971 126.658 133.673C126.676 133.673 126.702 133.656 126.72 133.656H126.711C144.222 125.176 142.732 106.867 132.893 89.4691L132.884 89.4603Z" fill="black"/>
<path d="M90.6711 140.776C87.3739 136.742 84.7608 130.183 83.8138 123.265C82.7527 115.539 84.3136 107.744 84.3136 107.744H59.2608C59.2608 107.744 61.7337 115.399 60.5937 122.747C59.331 130.937 55.1833 140.855 54.1573 141.539C48.4225 145.318 44.8974 148.589 40.9426 152.719C40.9426 152.719 31.6827 171.985 54.1573 171.529C76.632 171.073 98.8524 151.229 99.5364 149.668C94.7661 147.747 93.4333 144.152 90.6711 140.776Z" fill="url(#paint0_linear_203_1384)"/>
<path d="M35.3053 61.8205C35.3053 61.8205 28.1938 56.2961 22.95 62.864C17.2063 70.0457 28.8953 90.9946 40.9613 81.6645L35.3053 61.8205Z" fill="#FFC2B3"/>
<path d="M36.5851 78.008C36.2869 78.008 36.0063 77.8502 35.866 77.5696C31.8499 69.739 26.7113 69.3707 26.5008 69.3531C26.0536 69.3268 25.7116 68.9498 25.7292 68.5025C25.7467 68.0553 26.0975 67.6958 26.571 67.7309C26.8253 67.7397 32.832 68.0904 37.3129 76.8242C37.5146 77.2188 37.3567 77.7099 36.9621 77.9203C36.8394 77.9817 36.7166 78.008 36.5938 78.008H36.5851Z" fill="#F48073"/>
<path d="M112.041 61.821C112.041 61.821 119.152 56.2966 124.396 62.8645C130.14 70.0462 118.451 90.9951 106.385 81.665L112.041 61.821Z" fill="#FFC2B3"/>
<path d="M110.76 78.0083C110.637 78.0083 110.505 77.982 110.391 77.9206C109.988 77.7189 109.839 77.2278 110.041 76.8245C114.522 68.0906 120.528 67.7399 120.782 67.7311C121.186 67.7136 121.607 68.0556 121.624 68.5115C121.642 68.9588 121.3 69.3358 120.853 69.3534C120.625 69.3621 115.504 69.748 111.487 77.5698C111.347 77.8504 111.058 78.0083 110.768 78.0083H110.76Z" fill="#F48073"/>
<path d="M73.8354 89.092C99.0622 89.092 119.513 69.1481 119.513 44.546C119.513 19.9439 99.0622 0 73.8354 0C48.6086 0 28.1582 19.9439 28.1582 44.546C28.1582 69.1481 48.6086 89.092 73.8354 89.092Z" fill="black"/>
<path d="M35.2271 39.565C35.2271 39.565 30.413 112.04 72.2494 112.04C117.506 112.04 112.753 39.565 112.753 39.565C112.753 39.565 112.499 8.59326 73.6349 8.59326C38.0156 8.59326 35.2183 39.565 35.2183 39.565H35.2271Z" fill="url(#paint1_linear_203_1384)"/>
<path d="M99.389 14.2578C99.389 14.2578 84.1487 35.2593 116.146 56.2696C116.146 56.2696 116.716 21.3869 99.389 14.2578Z" fill="black"/>
<path d="M73.3094 83.3572H70.2139C69.7667 83.3572 69.3984 82.9977 69.3984 82.5417C69.3984 82.0857 69.758 81.7262 70.2139 81.7262H73.3094C73.59 81.7262 73.853 81.6122 74.0372 81.4018C74.2213 81.1913 74.309 80.9195 74.2827 80.6476L73.5637 73.729C73.5198 73.2818 73.8443 72.8871 74.2915 72.8345C74.7387 72.7907 75.1333 73.1151 75.1859 73.5624L75.9049 80.481C75.9839 81.2176 75.7383 81.9454 75.2473 82.4979C74.7562 83.0415 74.0459 83.3572 73.3094 83.3572Z" fill="#F48073"/>
<path d="M60.0265 67.2C60.4441 65.4226 59.3417 63.6433 57.5643 63.2257C55.7869 62.8082 54.0076 63.9106 53.59 65.688C53.1725 67.4654 54.2748 69.2447 56.0522 69.6623C57.8296 70.0798 59.609 68.9774 60.0265 67.2Z" fill="black"/>
<path d="M93.0523 66.8021C93.2628 64.9885 91.9632 63.3477 90.1496 63.1372C88.336 62.9267 86.6951 64.2263 86.4846 66.0399C86.2741 67.8535 87.5737 69.4944 89.3873 69.7048C91.201 69.9153 92.8418 68.6157 93.0523 66.8021Z" fill="black"/>
<path d="M45.293 56.2702L66.0577 54.2709C66.0577 54.2709 64.0759 48.5272 55.1141 49.4567C45.9506 50.4126 45.293 56.2614 45.293 56.2614V56.2702Z" fill="black"/>
<path d="M101.107 56.2702L80.3418 54.2709C80.3418 54.2709 82.3236 48.5272 91.2854 49.4567C100.449 50.4126 101.107 56.2614 101.107 56.2614V56.2702Z" fill="black"/>
<path d="M72.6962 91.2844C65.8652 91.2844 62.4278 87.8733 62.2612 87.7067C61.928 87.3734 61.9368 86.8298 62.27 86.4965C62.6032 86.1633 63.1469 86.1721 63.4713 86.5053C63.6467 86.6807 67.7593 90.6881 76.1775 89.2675C76.6422 89.1886 77.0806 89.5043 77.1596 89.969C77.2385 90.4338 76.9228 90.8722 76.458 90.9511C75.0989 91.1791 73.8449 91.2756 72.6874 91.2756L72.6962 91.2844Z" fill="#F48073"/>
<path d="M31.5511 49.2022C31.5511 49.2022 94.5468 48.8778 104.64 17.6956C104.64 17.6956 88.9961 -3.2884 60.0675 5.33143C31.1477 13.96 31.5511 49.2022 31.5511 49.2022Z" fill="black"/>
<path d="M60.0043 607.553C59.3905 607.86 53.0594 616.813 53.3663 621.908C53.7258 628.23 54.2168 634.097 56.1811 637.49C60.3638 644.733 77.4194 643.62 77.1475 640.489C77.4194 636.543 71.702 635.728 71.2899 632.588C70.5621 626.74 71.3162 620.373 72.5175 616.655C67.4228 609.246 60.0043 607.544 60.0043 607.544V607.553Z" fill="#454545"/>
<path d="M62.6609 598.846C60.644 602.59 58.978 606.527 57.6714 610.57C57.3382 611.596 57.0312 612.639 57.0312 613.718C57.0312 614.621 57.2505 615.507 57.5048 616.375C59.5479 623.46 65.3617 635.403 69.1148 634.491C71.0176 634.027 70.1583 624.021 71.5613 618.699C72.9293 613.525 79.0236 603.046 78.2081 602.301C74.8847 599.258 71.3772 596.417 67.7118 593.812L62.6609 598.846Z" fill="#FECCB2"/>
<path d="M88.3815 610L90.223 628.371C90.223 628.371 75.9648 635.781 72.5273 641.305C93.1781 635.982 103.157 633.159 103.157 633.159L101.807 610.903L88.3815 610.009V610Z" fill="#FECCB2"/>
<path d="M89.3539 628.923C89.3539 628.923 64.8886 638.446 69.5186 644.164C72.7368 648.136 103.831 636.675 103.831 636.675L103.147 633.159C84.6011 638.131 83.049 638.315 81.0936 636.272C79.1381 634.22 89.3539 628.923 89.3539 628.923Z" fill="#454545"/>
<path d="M147.088 335.691C148.64 342.908 149.07 350.318 148.342 357.666C145.931 382.289 139.801 441.698 133.663 475.257C127.183 514.165 72.4738 615.735 72.4738 615.735L57.2422 609.57C57.2422 609.57 72.5264 561.403 76.2356 534.535C79.9449 507.676 86.8898 411.332 86.4251 392.812C85.9603 374.283 92.4493 315.461 92.4493 315.461L141.503 309.735L147.088 335.683V335.691Z" fill="url(#paint2_linear_203_1384)"/>
<path d="M57.2422 609.57L73.0876 615.734C73.0876 615.734 117.204 535.008 126.385 498.722C124.956 498.696 115.818 495.145 113.574 490.129C101.867 464.041 96.8688 415.514 90.2659 387.699C88.7664 421.775 79.2872 512.411 76.2356 534.543C72.5264 561.402 57.2422 609.579 57.2422 609.579V609.57Z" fill="#A51207"/>
<path d="M25.289 308.06C18.344 326.589 18.8088 331.683 24.3595 378.922C29.919 426.16 59.0931 537.323 83.646 619.303C103.095 619.768 107.269 618.839 107.269 618.839C107.269 618.839 104.954 600.31 100.324 567.891C95.6945 535.473 95.6945 486.84 95.6945 486.84C95.6945 486.84 91.0645 426.168 90.5997 407.64C92.45 389.111 94.309 315.47 94.309 315.47L25.2977 308.06H25.289Z" fill="#C1210D"/>
<path d="M111.215 249.01C109.724 232.77 127.639 184.147 119.177 137.698C110.47 133.62 94.8084 132.375 94.8084 132.375L72.1934 145.099L54.0242 133.629L28.0332 144.695C28.0332 144.695 30.5937 177.447 36.7407 196.248C42.8877 215.048 54.7082 233.48 54.4013 246.134C54.0944 258.787 40.4938 274.94 29.7782 294.214C42.5282 310.84 74.8767 330.368 84.3734 330C93.8701 329.64 142.502 310.84 141.503 309.752C130.217 282.165 112.548 263.479 111.224 249.019L111.215 249.01Z" fill="#CFDDF1"/>
<path d="M71.0802 136.014L72.1939 145.09L74.886 135.9L76.6924 142.442L72.1413 145.686L67.3359 142.687L71.0802 136.014Z" fill="#E6E6E6"/>
<path d="M71.0806 136.014C71.0806 136.014 67.5205 148.308 61.4699 146.37C55.4194 144.432 48.8164 135.9 48.8164 135.9L55.6649 125.219L71.0806 136.014Z" fill="white"/>
<path d="M74.8847 135.9C74.8847 135.9 74.569 146.809 82.1891 147.247C89.8005 147.685 96.3422 134.199 96.3422 134.199L87.8714 124.097L74.8934 135.9H74.8847Z" fill="white"/>
<path d="M28.0348 144.687C28.0348 144.687 11.409 148.177 13.0575 194.635C13.0575 209.48 3.29775 244.898 2.75408 255.421C2.21041 265.952 24.1327 277.018 28.1576 250.563C32.1825 224.107 37.8472 199.019 37.5754 189.031C37.3035 179.044 33.5592 150.08 28.0348 144.678V144.687Z" fill="#CFDDF1"/>
<path d="M31.5856 255.85C31.5856 264.075 23.1061 273.984 14.8896 273.984C6.67314 273.984 0 267.32 0 259.094C0 250.869 6.69945 244.959 14.8896 244.205C28.0342 243.003 31.5856 255.85 31.5856 255.85Z" fill="#B6C7DD"/>
<path d="M119.177 137.698C119.177 137.698 142.038 142.38 140.416 185.567C141.117 208.489 154.192 234.901 156.445 259.103C156.822 263.128 134.944 259.129 133.33 255.148C125.798 236.55 119.37 203.649 117.748 194.713C116.126 185.786 113.565 151.938 119.169 137.689L119.177 137.698Z" fill="#CFDDF1"/>
<path d="M12.0654 250.746C18.756 248.186 27.5688 252.228 27.9985 262.576C28.4282 272.923 26.3061 291.259 30.0153 296.581C34.4611 296.424 41.6955 296.02 41.6955 296.02L48.1406 298.695C48.1406 298.695 46.0799 301.246 41.5026 300.256C36.9252 299.265 36.7323 301.738 39.3542 304.491L40.4152 305.306L27.674 318.819C27.674 318.819 21.8515 313.049 20.1678 310.077C18.4842 307.104 17.9844 303.886 15.8799 297.695C13.7753 291.504 -9.1992 258.858 12.0654 250.729V250.746Z" fill="#FECCB2"/>
<path d="M144.679 376.992C144.337 377.01 144.1 376.94 143.986 376.791C143.364 376.01 144.898 374.011 148.467 369.96C150.124 368.083 151.133 365.663 151.738 363.611C151.808 363.12 152.027 359.165 153.667 357.043C155.289 357.043 153.5 371.775 152.045 373.984C148.309 379.658 143.837 381.035 143.215 380.254C142.811 379.746 143.32 378.728 144.679 376.983V376.992Z" fill="#F79480"/>
<path d="M159.155 373.327C159.155 373.327 144.791 385.709 143.941 382.973C143.45 381.386 148.185 376.615 151.254 372.95C153.034 369.249 151.552 364.847 151.552 364.847C151.552 364.847 146.703 375.186 145.537 373.073C144.502 371.187 145.808 365.461 149.412 359.612C150.359 358.069 152.104 358.183 152.701 356.193C153.262 354.316 153.315 353.15 153.315 353.15C153.315 353.15 153.376 352.352 153.341 351.94C149.746 321.582 137.566 293.477 136.092 284.454C134.242 273.09 133.146 262.751 134.628 259.41C134.628 259.41 152.447 260.778 156.454 268.407C160.137 275.413 160.812 340.505 160.268 352.948C160.382 353.325 160.461 353.764 160.514 354.263C161.663 362.164 159.155 373.336 159.155 373.336V373.327Z" fill="#FECCB2"/>
<path d="M131.227 249.466L133.138 262.742L158.094 269.161L159.208 252.36L131.227 249.466Z" fill="#B6C7DD"/>
<path d="M40.416 305.315L22.5977 324.37L43.6079 307.893L40.416 305.315Z" fill="url(#paint3_linear_203_1384)"/>
<path d="M84.3661 329.991C84.8309 329.974 85.4096 329.904 86.041 329.798C86.6373 295.319 87.33 236.813 85.5236 221.038C83.6646 204.841 77.7193 164.627 74.5888 143.749L72.1949 145.099L72.002 144.976C75.1588 166.057 80.9725 205.403 82.8052 221.353C84.5766 236.795 83.8838 295.547 83.2963 329.956C83.6821 329.991 84.0417 330.009 84.3661 329.991Z" fill="#B6C7DD"/>
<path style="mix-blend-mode:multiply" d="M49.2188 211.909C49.2188 211.909 88.0036 204.324 114.565 209.173C112.881 225.194 75.9902 243.53 49.2188 211.909Z" fill="url(#paint4_radial_203_1384)"/>
<path d="M95.1348 181.972H113.365C113.365 181.972 111.726 201.027 104.246 199.247C96.7658 197.467 95.1348 181.972 95.1348 181.972Z" fill="#B6C7DD"/>
<path d="M162.279 354.387C162.279 357.131 161.113 359.35 159.666 359.35C158.219 359.35 157.053 357.131 157.053 354.387C157.053 351.642 158.219 349.423 159.666 349.423C161.113 349.423 162.279 351.642 162.279 354.387Z" fill="#303030"/>
<path d="M162.278 354.386C162.278 356.876 161.41 358.902 160.349 358.902C159.288 358.902 158.42 356.876 158.42 354.386C158.42 351.896 159.288 349.87 160.349 349.87C161.41 349.87 162.278 351.896 162.278 354.386Z" fill="#454545"/>
<path d="M157.684 352.352L153.255 352.913L152.992 355.088L157.526 355.64L157.684 352.352Z" fill="#EDEDED"/>
<path d="M160.824 357.087L159.807 354.229L160.464 352.317L160.789 352.422L160.166 354.22L161.14 356.973L160.824 357.087Z" fill="#7D7D7D"/>
<defs>
<linearGradient id="paint0_linear_203_1384" x1="69.2925" y1="154.499" x2="69.2925" y2="102.5" gradientUnits="userSpaceOnUse">
<stop stop-color="#F7C3AF"/>
<stop offset="0.77" stop-color="#F07C68"/>
</linearGradient>
<linearGradient id="paint1_linear_203_1384" x1="73.9856" y1="69.3266" x2="73.9856" y2="104.516" gradientUnits="userSpaceOnUse">
<stop offset="0.28" stop-color="#F7C3AF"/>
<stop offset="1" stop-color="#F79480"/>
</linearGradient>
<linearGradient id="paint2_linear_203_1384" x1="106.392" y1="341.865" x2="102.525" y2="498.337" gradientUnits="userSpaceOnUse">
<stop stop-color="#C1210D"/>
<stop offset="0.52" stop-color="#C1210D"/>
<stop offset="1" stop-color="#9D1D06"/>
</linearGradient>
<linearGradient id="paint3_linear_203_1384" x1="29.8934" y1="-0.000206448" x2="2.19239" y2="346.941" gradientUnits="userSpaceOnUse">
<stop stop-color="#3D3D3D"/>
<stop offset="1" stop-color="#2E2E2E"/>
</linearGradient>
<radialGradient id="paint4_radial_203_1384" cx="0" cy="0" r="1" gradientUnits="userSpaceOnUse" gradientTransform="translate(81.804 0.43845) scale(0.438445)">
<stop stop-color="#DBDBDB"/>
<stop offset="0.17" stop-color="#E3E3E3"/>
<stop offset="0.67" stop-color="#F7F7F7"/>
<stop offset="1" stop-color="white"/>
</radialGradient>
</defs>
</svg>
