<svg width="749" height="862" viewBox="0 0 749 862" fill="none" xmlns="http://www.w3.org/2000/svg">
<path fill-rule="evenodd" clip-rule="evenodd" d="M534.75 493.38C532.37 506.69 526.22 516.38 519.59 524.12C512.98 531.83 505.06 538.15 496.12 544.1C488.07 549.45 478.54 555.02 469.02 559.38C466.78 560.4 464.03 561.23 461.38 562.33C456.19 564.48 452.6 565.8 446.42 567.97C445.44 568.32 443.93 568.83 442.62 569.3C439.26 570.48 439.05 569.9 437.87 573.23C428.73 599.1 421.62 627.86 414.24 655.54C415.64 654.26 416.13 652.32 416.98 650.75C422.44 640.52 428.44 629.47 434.12 618.76C434.54 617.96 434.93 616.76 435.36 616.2C436.33 614.93 438.75 613.21 440.77 611.75C445.96 608.03 452.55 603.53 457.69 600.31C465.95 595.13 474.04 591.12 482.1 587.11C499.32 578.54 517.64 571.96 537.62 569.75C536.01 574.71 533.02 578.64 529.97 582.08C520.97 592.25 509.14 598.69 495.66 603.99C480.23 610.06 464.04 613.56 444.82 615.59C442.26 615.86 438.34 615.75 437.15 616.42C436.15 616.98 434.89 619.75 433.7 622.03C427.69 633.5 422.46 643.67 416.78 654.66C415.5 657.14 413.36 660.58 412.31 663.47C411 667.08 410.58 671.08 409.62 674.93C406.93 685.8 403.98 697.11 401.67 708.41C402.48 708.39 403.26 707.76 403.95 707.19C404.66 706.6 405.27 705.68 406.04 705.04C407.57 703.77 409.51 702.81 410.75 701.41C412.53 699.4 413.94 696.86 415.54 694.76C432.89 672.08 454.32 652.48 478.55 638.1C486.35 633.48 494.38 629.54 503.4 626.17C504.51 625.76 505.59 624.89 506.87 625.11C504.89 638.41 498.42 648.13 491.71 655.84C484.92 663.63 477.01 670.12 468.54 675.86C452.45 686.76 434.91 694.31 415.38 700.79C414.15 701.19 412.54 701.6 411.57 702.11C409.7 703.12 408.1 705.45 406.04 707.45C404.19 709.24 401.26 711.12 400.51 712.79C400.18 713.52 400 715.32 399.71 716.63C395.69 734.6 392.52 754.08 388.58 772.41C385.08 788.73 381.69 806.64 378.47 824.99C378.1 827.1 378.58 831.06 375.39 830.04C373.6 829.47 374.2 828.46 374.78 825.42C380 798.12 384.85 773.11 390.43 746.31C390.84 744.31 391.44 742.33 391.46 740.69C391.47 739.55 390.97 737.41 390.59 735.73C390.21 734.07 389.84 732.26 389.38 731.03C388.64 729.07 386.85 727.1 385.31 725.06C375.21 711.7 366.64 697.28 360.12 680.95C353.08 663.32 347.06 639.39 358.81 616C360.26 615.77 360.38 617.64 360.92 618.39C361.59 619.33 362.4 620.18 362.99 621.08C363.92 622.49 364.83 623.83 365.77 625.38C380.01 648.87 388.47 678.94 389.93 712.65C390.05 715.32 390.38 718.12 390.38 720.88C390.38 723.77 389.89 726.72 390.16 729.63C390.4 732.19 391.5 734.29 391.92 737.12C393 735.07 393.24 732.65 393.69 730.39C396.98 714.24 400.24 697.52 404.23 681.5C408.03 666.27 411.35 649.57 416.11 633.99C416.81 631.7 418.12 629.42 418.11 627.89C418.11 626.68 417.4 625.82 416.45 624.34C414.69 621.62 414.01 620.77 411.11 618.81C404.63 614.43 397.79 609.74 391.73 604.81C375.02 591.23 359.35 575.48 349.92 555.83C345.46 546.54 342.08 535.64 343.31 522.59C348.25 525.24 352.36 528.96 356.57 532.47C377 549.49 392.83 571.9 405.03 595.64C406.91 599.29 408.84 602.84 410.57 606.64C411.13 607.87 411.36 609.2 411.89 610.44C412.42 611.66 413.36 612.83 413.85 614.02C415.34 617.64 415.71 622.33 419.1 624.99C422.82 612.14 426.22 600.09 430.61 587.42C431.21 585.68 432.3 583.98 432.45 582.51C432.62 580.88 431.79 578.09 431.21 575.69C430.66 573.41 430.22 570.84 429.63 569.13C429.09 567.56 428.06 566.15 427.19 564.58C421.53 554.37 416.42 543.15 412.42 531.19C407.75 517.22 404.38 502.9 405.94 485.25C412.28 488.91 416.64 494.15 420.15 499.49C429.2 513.3 432.84 531.98 431.63 553.64C431.38 558.03 430.05 562.58 430.16 567.38C430.21 569.46 431.23 571.54 431.77 573.64C432.27 575.59 432.89 577.6 433.08 579.87C435.11 576.45 436.03 572.13 438.37 569.35C441 566.23 444.29 562.06 447.01 558.66C463.48 538.13 482.93 520.59 504.78 507.39C509.3 504.66 513.76 502.04 518.48 499.77C521.98 498.09 525.68 496.5 529.37 495.12C531.15 494.45 532.67 493.83 534.74 493.39L534.75 493.38Z" fill="url(#paint0_radial_384_1715)"/>
<path fill-rule="evenodd" clip-rule="evenodd" d="M294.52 628.58C307.99 637.74 319.55 648.43 329.39 660.93C332.53 664.92 336.11 668.9 339.02 673.07C339.43 673.66 339.58 674.45 339.98 675.01C342.39 678.36 344.93 682.3 347.31 686.25C349.29 689.53 351.34 692.84 353.27 696.4C355.88 701.24 358.73 706.84 361.21 712.26C362.61 715.32 364.34 719.51 365.82 723.45C366.26 724.62 367.96 727.55 368.14 728.9C368.26 729.76 368.05 731.09 368.02 732.21C367.11 762.75 366.45 793.64 366.06 824.89C366.04 826.36 366.77 829.98 365.07 830.21C362.75 830.53 363.6 826.98 363.64 824.88C363.96 809.96 364.44 794.66 364.86 780.24C365.31 764.4 365.49 748.9 366.2 732.28C366.25 731.14 366.34 729.43 366.29 729.26C365.88 727.96 361.6 725.61 359.94 724.51C354.42 720.84 349.2 717.1 344.16 713.09C340.36 710.06 336.17 706.82 332.39 703.4C331.46 702.56 330.88 701.47 330.02 700.67C329.04 699.76 327.91 699.05 327.01 698.17C325.29 696.46 323.73 694.58 321.97 692.68C321.14 691.78 320.04 691.09 319.26 690.21C317.66 688.4 316.16 686.19 314.59 684.16C310.19 678.46 305.6 672.29 302.15 665.6C299.81 661.07 297.96 656.3 296.43 651.24C294.51 644.85 292.97 638.03 294.51 628.59L294.52 628.58Z" fill="url(#paint1_radial_384_1715)"/>
<path fill-rule="evenodd" clip-rule="evenodd" d="M497.97 689.34C496.81 702.38 489.18 712.8 482.77 720.37C469.35 736.23 451.86 746.81 432.21 755.62C429.92 756.65 427.45 757.86 424.82 758.91C418.85 761.29 412.9 763.65 406.06 765.88C404.63 766.34 402.23 766.58 402 766.87C401.51 767.47 400.64 773.61 400.33 775.13C396.76 792.55 394.25 807.26 390.56 825.03C390.46 825.52 389.8 827.57 389.47 828.83C389.61 828.28 389.7 832.39 387.85 831.95C386.16 831.55 387.44 830.01 387.68 828.6C390.24 813.43 394.04 797.77 397.13 783.5C397.73 780.75 398.24 777.98 398.8 775.24C399.39 772.37 399.55 769.31 400.47 766.98C401.21 765.11 403.44 762.64 405.26 760.33C409.98 754.37 415.92 747.78 420.85 742.67C435.11 727.9 451.33 713.86 468.63 703.12C477.67 697.52 487.08 693.4 497.02 689.53C497 689.53 498.19 688.65 497.95 689.35L497.97 689.34Z" fill="url(#paint2_radial_384_1715)"/>
<path fill-rule="evenodd" clip-rule="evenodd" d="M292.861 688.3C293.121 688.28 293.131 688.45 293.121 688.64C299.011 690.75 304.271 693.51 308.991 697.05C309.561 697.48 309.951 698.26 310.581 698.77C311.881 699.81 313.241 700.61 314.441 701.69C317.931 704.81 320.851 708.27 324.011 712.01C325.071 713.27 326.291 714.18 327.201 715.45C336.021 727.74 343.301 742.36 348.001 758.39C348.461 759.97 349.101 761.57 349.511 763.12C351.241 769.66 352.391 776.54 353.531 783.62C354.041 786.81 354.911 790.29 355.201 794.13C355.811 802.02 355.691 807.34 356.191 816.96C356.271 818.5 356.851 822.91 356.611 825.49C356.461 826.98 356.651 827.11 355.781 827.2C353.281 827.44 354.131 821.59 354.061 819.41C353.811 811.02 353.411 805.36 352.961 797.47C352.871 795.97 353.291 794.16 352.941 792.93C352.681 792 351.771 791.12 350.601 789.9C348.211 787.4 345.311 784.63 342.851 781.94C339.111 777.84 336.231 773.81 333.441 770.43C320.851 755.23 309.851 738.57 301.841 719.74C299.871 715.11 297.941 710.13 296.461 705.12C294.901 699.84 293.551 694.42 292.871 688.31L292.861 688.3Z" fill="url(#paint3_radial_384_1715)"/>
<mask id="mask0_384_1715" style="mask-type:luminance" maskUnits="userSpaceOnUse" x="343" y="485" width="195" height="346">
<path d="M534.75 493.38C532.37 506.69 526.22 516.38 519.59 524.12C512.98 531.83 505.06 538.15 496.12 544.1C488.07 549.45 478.54 555.02 469.02 559.38C466.78 560.4 464.03 561.23 461.38 562.33C456.19 564.48 452.6 565.8 446.42 567.97C445.44 568.32 443.93 568.83 442.62 569.3C439.26 570.48 439.05 569.9 437.87 573.23C428.73 599.1 421.62 627.86 414.24 655.54C415.64 654.26 416.13 652.32 416.98 650.75C422.44 640.52 428.44 629.47 434.12 618.76C434.54 617.96 434.93 616.76 435.36 616.2C436.33 614.93 438.75 613.21 440.77 611.75C445.96 608.03 452.55 603.53 457.69 600.31C465.95 595.13 474.04 591.12 482.1 587.11C499.32 578.54 517.64 571.96 537.62 569.75C536.01 574.71 533.02 578.64 529.97 582.08C520.97 592.25 509.14 598.69 495.66 603.99C480.23 610.06 464.04 613.56 444.82 615.59C442.26 615.86 438.34 615.75 437.15 616.42C436.15 616.98 434.89 619.75 433.7 622.03C427.69 633.5 422.46 643.67 416.78 654.66C415.5 657.14 413.36 660.58 412.31 663.47C411 667.08 410.58 671.08 409.62 674.93C406.93 685.8 403.98 697.11 401.67 708.41C402.48 708.39 403.26 707.76 403.95 707.19C404.66 706.6 405.27 705.68 406.04 705.04C407.57 703.77 409.51 702.81 410.75 701.41C412.53 699.4 413.94 696.86 415.54 694.76C432.89 672.08 454.32 652.48 478.55 638.1C486.35 633.48 494.38 629.54 503.4 626.17C504.51 625.76 505.59 624.89 506.87 625.11C504.89 638.41 498.42 648.13 491.71 655.84C484.92 663.63 477.01 670.12 468.54 675.86C452.45 686.76 434.91 694.31 415.38 700.79C414.15 701.19 412.54 701.6 411.57 702.11C409.7 703.12 408.1 705.45 406.04 707.45C404.19 709.24 401.26 711.12 400.51 712.79C400.18 713.52 400 715.32 399.71 716.63C395.69 734.6 392.52 754.08 388.58 772.41C385.08 788.73 381.69 806.64 378.47 824.99C378.1 827.1 378.58 831.06 375.39 830.04C373.6 829.47 374.2 828.46 374.78 825.42C380 798.12 384.85 773.11 390.43 746.31C390.84 744.31 391.44 742.33 391.46 740.69C391.47 739.55 390.97 737.41 390.59 735.73C390.21 734.07 389.84 732.26 389.38 731.03C388.64 729.07 386.85 727.1 385.31 725.06C375.21 711.7 366.64 697.28 360.12 680.95C353.08 663.32 347.06 639.39 358.81 616C360.26 615.77 360.38 617.64 360.92 618.39C361.59 619.33 362.4 620.18 362.99 621.08C363.92 622.49 364.83 623.83 365.77 625.38C380.01 648.87 388.47 678.94 389.93 712.65C390.05 715.32 390.38 718.12 390.38 720.88C390.38 723.77 389.89 726.72 390.16 729.63C390.4 732.19 391.5 734.29 391.92 737.12C393 735.07 393.24 732.65 393.69 730.39C396.98 714.24 400.24 697.52 404.23 681.5C408.03 666.27 411.35 649.57 416.11 633.99C416.81 631.7 418.12 629.42 418.11 627.89C418.11 626.68 417.4 625.82 416.45 624.34C414.69 621.62 414.01 620.77 411.11 618.81C404.63 614.43 397.79 609.74 391.73 604.81C375.02 591.23 359.35 575.48 349.92 555.83C345.46 546.54 342.08 535.64 343.31 522.59C348.25 525.24 352.36 528.96 356.57 532.47C377 549.49 392.83 571.9 405.03 595.64C406.91 599.29 408.84 602.84 410.57 606.64C411.13 607.87 411.36 609.2 411.89 610.44C412.42 611.66 413.36 612.83 413.85 614.02C415.34 617.64 415.71 622.33 419.1 624.99C422.82 612.14 426.22 600.09 430.61 587.42C431.21 585.68 432.3 583.98 432.45 582.51C432.62 580.88 431.79 578.09 431.21 575.69C430.66 573.41 430.22 570.84 429.63 569.13C429.09 567.56 428.06 566.15 427.19 564.58C421.53 554.37 416.42 543.15 412.42 531.19C407.75 517.22 404.38 502.9 405.94 485.25C412.28 488.91 416.64 494.15 420.15 499.49C429.2 513.3 432.84 531.98 431.63 553.64C431.38 558.03 430.05 562.58 430.16 567.38C430.21 569.46 431.23 571.54 431.77 573.64C432.27 575.59 432.89 577.6 433.08 579.87C435.11 576.45 436.03 572.13 438.37 569.35C441 566.23 444.29 562.06 447.01 558.66C463.48 538.13 482.93 520.59 504.78 507.39C509.3 504.66 513.76 502.04 518.48 499.77C521.98 498.09 525.68 496.5 529.37 495.12C531.15 494.45 532.67 493.83 534.74 493.39L534.75 493.38Z" fill="white"/>
</mask>
<g mask="url(#mask0_384_1715)">
<g style="mix-blend-mode:soft-light" opacity="0.5">
<path fill-rule="evenodd" clip-rule="evenodd" d="M543.67 492.5C545.34 492.48 547.37 492.86 547.31 494.79C547.27 496.13 545.72 496.63 544.21 497.72C540.43 500.44 538.38 502.87 535.5 506.59C533.18 509.59 530.62 513.32 528.82 518.44C528.17 520.31 527.18 522.71 527.57 523.43C527.86 523.97 529.55 522.74 531.11 521.77C532.73 520.77 534.04 519.95 534.73 519.51C537.44 517.78 540.19 515.5 543.27 516.68C543.82 516.9 545.43 518.24 545.6 519.71C546.17 524.48 540.57 526.43 537.53 528.36C535.21 529.82 532.69 531.61 529.95 533.13C529.06 533.63 527.58 534.1 527.38 534.31C526.59 535.13 526.68 536.41 526.1 537.17C525.65 537.76 524.81 538.53 524.08 538.73C523.23 538.96 521.05 538.12 519.91 538.19C518.61 538.27 516.38 539.49 514.5 540.22C512.7 540.92 510.8 541.77 509.39 542.29C499.03 546.1 487.85 549.02 478.47 554.34C472.96 557.47 467.43 561.8 461.89 565.52C460.19 566.66 458.44 567.74 456.29 569.04C454.8 569.94 451.95 571.18 451.44 571.44C450.53 571.9 441.96 576.75 441.35 572.25C441.04 569.98 447.37 566.54 449.53 565.13C455.6 561.18 459.41 557.91 464.92 553.79C465.23 553.56 465.59 553.24 465.93 553.01C468.18 551.5 471.23 549.52 473.84 547.98C479.19 544.81 485.13 542.04 491.26 539.63C498.08 536.95 504.92 534.86 512.26 531.74C514.04 530.98 516.84 529.81 517.11 529.34C518.23 527.41 517.7 523.75 518.07 521.9C520.11 511.82 527.56 502.13 534.63 496.79C536.66 495.25 540.25 492.55 543.66 492.51L543.67 492.5Z" fill="black"/>
</g>
<g style="mix-blend-mode:soft-light" opacity="0.5">
<path fill-rule="evenodd" clip-rule="evenodd" d="M429.92 517.79C430.52 517.99 431.37 516.6 432.68 517.54C433.92 518.44 433.63 521.94 433.8 525.25C434.04 529.93 435.38 535.25 432.93 539.06C432.78 539.29 431.9 540.37 431.96 539.54C431.87 540.67 433.49 542.57 434.14 543.76C434.6 544.62 436.29 546.36 435.35 548.46C435.13 548.96 433.78 549.95 432.74 549.94C430.84 549.91 429.71 547.91 428.44 545.75C425.44 540.64 423.14 534.73 423.56 527.26C423.92 520.74 425.25 514.13 424.79 508.35C424.67 506.88 424.33 505.38 424.14 504.03C423.85 502 423.02 498.98 425.13 498.71C427.63 498.39 428.76 504.78 429.19 507.1C429.87 510.7 430.13 512.35 429.93 517.79H429.92Z" fill="black"/>
</g>
<g style="mix-blend-mode:soft-light" opacity="0.5">
<path fill-rule="evenodd" clip-rule="evenodd" d="M342.271 516.77C344.471 516.13 344.711 522.08 344.961 524.08C345.561 528.82 345.881 531.21 347.151 535.26C349.581 543.02 353.781 550.46 358.951 556.46C364.701 563.14 371.941 569.58 378.201 576.2C379.801 577.9 381.271 579.65 382.691 581.32C383.451 582.21 384.411 582.88 385.101 583.75C385.841 584.67 386.141 585.71 386.841 586.7C388.061 588.44 389.731 590.27 390.951 592.38C391.531 593.37 391.801 594.54 392.351 595.59C394.281 599.27 396.341 603.94 398.631 607.9C399.021 608.57 399.451 609.23 399.851 610.18C399.951 610.41 400.321 610.7 400.371 610.85C400.601 611.58 400.471 613.33 400.811 614.54C400.901 614.88 401.341 615.35 401.551 615.85C402.791 618.9 404.241 622.17 405.761 625.47C406.271 626.57 407.831 629.32 408.041 631.21C408.421 634.5 407.221 636.34 405.531 636.64C401.681 637.31 399.081 630.51 398.111 628.42C397.381 626.84 396.521 624.81 395.791 622.97C395.011 621.03 394.641 618.96 393.761 617.56C393.031 616.4 391.601 615.38 390.571 614.12C385.991 608.51 381.391 602.09 376.531 596.26C375.101 594.55 373.941 592.67 372.381 590.88C366.331 583.92 359.191 576.17 354.491 567.69C352.671 564.41 350.831 561.06 350.391 557.17C350.101 554.61 349.341 553.12 348.181 550.83C344.751 544.07 341.831 538.02 340.781 528.38C340.431 525.2 339.591 517.55 342.281 516.77H342.271Z" fill="black"/>
</g>
<g style="mix-blend-mode:soft-light" opacity="0.5">
<path fill-rule="evenodd" clip-rule="evenodd" d="M521.12 557.09C521.38 557.07 521.39 557.25 521.38 557.43C519.78 564.39 515.55 569 511.75 573.44C510.35 575.08 508.87 576.9 507.15 578.6C503.31 582.39 498.44 586.11 492.63 587.93C491.08 588.41 488.1 589.26 484.92 589.05C481.16 588.8 475.8 586.28 479.5 584.11C480.3 583.64 480.18 583.94 481.37 583.74C482.59 583.54 484.76 583.7 485.32 583.64C495.06 582.67 503.02 573.73 509.37 566.16C510.42 564.91 511.7 563.83 512.85 562.67C514.06 561.45 515.03 560.04 516.33 559.18C517.56 558.36 519.21 557.99 521.14 557.07L521.12 557.09Z" fill="black"/>
</g>
<g style="mix-blend-mode:soft-light" opacity="0.5">
<path fill-rule="evenodd" clip-rule="evenodd" d="M464.51 615.79C459.06 616.69 452.91 617.9 447.92 620.01C446.56 620.59 440.72 624.88 438.82 622.47C437.16 620.36 439.67 617.82 441.42 616.45C444.94 613.68 444.35 614.57 447.28 613.27C452.03 611.16 456.24 610.14 460.51 609.23C470.87 607.01 481.11 607.5 490.09 605.17C494.75 603.96 499.13 602.16 503.1 600.49C512.07 596.73 518.62 593.21 526.46 588.37C529.36 586.58 531.8 585.3 535.23 583.75C536.21 583.31 540.59 580.48 542.27 583.15C543.57 585.22 540.89 587.84 539.34 589.43C535.2 593.68 532.7 595.38 527.57 598.51C525.86 599.55 524.24 600.71 522.31 601.77C517.38 604.47 510.98 607.48 505.26 609.56C496.54 612.73 486.13 615.25 473.92 615.51C471.99 615.55 468.99 615.24 468.78 615.45C468.36 615.88 467.94 620.67 467.18 623.12C465.14 629.75 462.43 636.35 459.92 641.86C456.42 649.57 451.92 657.7 447.99 663.93C443.78 670.61 439.53 676.56 433.17 682.6C430.07 685.54 428.42 686.8 424.35 689.94C421.65 692.02 416.71 696.98 413.79 694.33C410.48 691.31 417.84 685.21 418.71 684.37C424.69 678.58 429.23 674.25 434.19 667.6C436.56 664.43 439.01 661.29 440.86 658.17C448.98 644.41 455.55 627.82 464.49 615.81L464.51 615.79Z" fill="black"/>
</g>
<g style="mix-blend-mode:soft-light" opacity="0.5">
<path fill-rule="evenodd" clip-rule="evenodd" d="M406.041 585.54C409.041 585.38 406.861 590.3 406.751 594.11C406.561 601.43 411.441 605.88 415.181 610.94C416.081 612.16 417.731 614.33 416.691 615.68C416.411 616.05 416.251 616.91 415.901 617.09C413.851 618.17 411.681 615.99 409.961 613.9C405.451 608.43 399.881 601.59 402.271 591.41C402.721 589.47 404.221 585.64 406.051 585.54H406.041Z" fill="black"/>
</g>
<g style="mix-blend-mode:soft-light" opacity="0.5">
<path fill-rule="evenodd" clip-rule="evenodd" d="M533.121 628.27C533.651 628.29 536.961 628.5 537.251 629.1C537.641 629.89 535.451 632.75 534.891 633.34C533.731 634.57 530.291 636.55 528.621 637.37C520.571 641.34 514.661 644.28 507.721 649.2C497.841 656.21 489.371 663.87 481.301 673.34C479.001 676.03 476.411 678.94 473.441 682.62C472.331 684 468.201 691.72 464.021 689.88C459.961 688.09 465.421 680.58 466.671 678.72C468.001 676.74 469.011 675.71 470.301 674.04C483.371 657.11 498.641 644.01 517.571 633.82C521.061 631.94 524.541 629.82 527.901 628.8C529.421 628.34 531.371 628.2 533.111 628.26L533.121 628.27Z" fill="black"/>
</g>
<g style="mix-blend-mode:soft-light" opacity="0.5">
<path fill-rule="evenodd" clip-rule="evenodd" d="M356.661 607.02C361.431 606.25 358.161 616.6 357.691 620.17C356.791 626.98 357.431 632.97 358.281 639.02C359.091 644.74 360.571 650.43 362.581 655.01C364.551 659.52 367.401 663.94 369.901 668.67C377.191 682.49 382.791 695.63 383.831 715.57C384.221 723.08 383.871 731.26 383.401 740.03C383.171 744.31 382.341 751.14 378.071 750.84C372.831 750.48 373.821 742.72 374.141 736.71C374.241 734.9 374.981 731.51 374.611 730.72C374.271 730 373.081 730.06 372.051 729.48C371.251 729.03 370.361 728.28 370.121 728.02C367.661 725.46 365.631 716.85 363.861 710.87C360.221 698.65 356.611 687.92 353.011 675.27C352.141 672.19 351.351 669.19 350.881 665.91C350.391 662.43 349.811 658.63 350.441 655.26C350.611 654.36 350.751 653.27 351.091 652.62C351.381 652.04 352.421 651.58 352.511 650.99C352.671 649.99 351.431 647.94 351.041 645.96C350.691 644.17 350.711 642.02 350.541 640.45C349.791 633.46 349.591 625.38 351.791 616.7C352.631 613.38 354.241 607.43 356.671 607.04L356.661 607.02Z" fill="black"/>
</g>
<g style="mix-blend-mode:soft-light" opacity="0.5">
<path fill-rule="evenodd" clip-rule="evenodd" d="M373.76 624.66C376.51 624.12 375.8 628.23 375.67 630.96C375.36 637.62 376.36 642.18 378.77 646.8C379.2 647.63 379.48 648.63 379.95 649.38C381.12 651.22 382.39 652.03 383.4 653.16C384.3 654.17 385.36 655.42 386.85 656.93C387.64 657.73 389.44 659.4 390.3 660.71C390.64 661.23 392.43 664.75 391.13 665.96C390.34 666.7 387.94 666.14 386.11 665.01C384.76 664.18 383.29 662.54 382.59 661.83C374.95 654.14 367.65 644.48 371.02 629.46C371.47 627.46 372.18 624.97 373.76 624.67V624.66Z" fill="black"/>
</g>
<path style="mix-blend-mode:soft-light" opacity="0.7" fill-rule="evenodd" clip-rule="evenodd" d="M732.14 370.14C713.84 511.99 584.01 612.16 442.16 593.86C300.3 575.56 200.14 445.73 218.44 303.87C236.74 162.02 366.57 61.86 508.43 80.16C650.28 98.46 750.45 228.29 732.15 370.14H732.14Z" fill="url(#paint4_radial_384_1715)"/>
</g>
<mask id="mask1_384_1715" style="mask-type:luminance" maskUnits="userSpaceOnUse" x="293" y="628" width="76" height="203">
<path d="M294.52 628.58C307.99 637.74 319.55 648.43 329.39 660.93C332.53 664.92 336.11 668.9 339.02 673.07C339.43 673.66 339.58 674.45 339.98 675.01C342.39 678.36 344.93 682.3 347.31 686.25C349.29 689.53 351.34 692.84 353.27 696.4C355.88 701.24 358.73 706.84 361.21 712.26C362.61 715.32 364.34 719.51 365.82 723.45C366.26 724.62 367.96 727.55 368.14 728.9C368.26 729.76 368.05 731.09 368.02 732.21C367.11 762.75 366.45 793.64 366.06 824.89C366.04 826.36 366.77 829.98 365.07 830.21C362.75 830.53 363.6 826.98 363.64 824.88C363.96 809.96 364.44 794.66 364.86 780.24C365.31 764.4 365.49 748.9 366.2 732.28C366.25 731.14 366.34 729.43 366.29 729.26C365.88 727.96 361.6 725.61 359.94 724.51C354.42 720.84 349.2 717.1 344.16 713.09C340.36 710.06 336.17 706.82 332.39 703.4C331.46 702.56 330.88 701.47 330.02 700.67C329.04 699.76 327.91 699.05 327.01 698.17C325.29 696.46 323.73 694.58 321.97 692.68C321.14 691.78 320.04 691.09 319.26 690.21C317.66 688.4 316.16 686.19 314.59 684.16C310.19 678.46 305.6 672.29 302.15 665.6C299.81 661.07 297.96 656.3 296.43 651.24C294.51 644.85 292.97 638.03 294.51 628.59L294.52 628.58Z" fill="white"/>
</mask>
<g mask="url(#mask1_384_1715)">
<g style="mix-blend-mode:soft-light" opacity="0.5">
<path fill-rule="evenodd" clip-rule="evenodd" d="M313.19 685.87C311.62 688.01 310.59 688.83 308.9 688.64C306.01 688.32 305.61 686.2 306.02 682.82C306.17 681.57 306.95 680.04 306.86 678.69C306.61 675.1 283.26 658.87 284.13 655.92C284.48 654.73 254.22 602.38 279.49 616.74C304.76 631.1 339.93 695.93 344.07 702.26C347.43 707.38 351.11 713.92 354.47 720.25C355.7 722.57 357.26 725.11 356.6 727.18C356.2 728.45 354.59 729.74 352.39 729.36C350.21 728.98 349.37 726.98 348.39 725.21C348.11 724.71 348.03 723.99 347.69 723.61C347 722.82 345.65 722.43 344.91 721.74C344.11 721 343.47 720.09 342.8 719.35C338.5 714.62 334.73 710.39 330.12 705C327.37 701.79 324.79 698.45 322 695.17C321.64 694.75 320.96 694.51 320.63 694.09C319.77 693.02 318.82 691.62 317.78 690.39C317.44 690 316.83 689.77 316.4 689.31C316.01 688.89 316.04 688.33 315.66 688C314.92 687.36 313.06 687.45 313.21 685.87H313.19Z" fill="black"/>
</g>
</g>
<mask id="mask2_384_1715" style="mask-type:luminance" maskUnits="userSpaceOnUse" x="386" y="689" width="112" height="143">
<path d="M497.97 689.34C496.81 702.38 489.18 712.8 482.77 720.37C469.35 736.23 451.86 746.81 432.21 755.62C429.92 756.65 427.45 757.86 424.82 758.91C418.85 761.29 412.9 763.65 406.06 765.88C404.63 766.34 402.23 766.58 402 766.87C401.51 767.47 400.64 773.61 400.33 775.13C396.76 792.55 394.25 807.26 390.56 825.03C390.46 825.52 389.8 827.57 389.47 828.83C389.61 828.28 389.7 832.39 387.85 831.95C386.16 831.55 387.44 830.01 387.68 828.6C390.24 813.43 394.04 797.77 397.13 783.5C397.73 780.75 398.24 777.98 398.8 775.24C399.39 772.37 399.55 769.31 400.47 766.98C401.21 765.11 403.44 762.64 405.26 760.33C409.98 754.37 415.92 747.78 420.85 742.67C435.11 727.9 451.33 713.86 468.63 703.12C477.67 697.52 487.08 693.4 497.02 689.53C497 689.53 498.19 688.65 497.95 689.35L497.97 689.34Z" fill="white"/>
</mask>
<g mask="url(#mask2_384_1715)">
<g style="mix-blend-mode:soft-light" opacity="0.5">
<path fill-rule="evenodd" clip-rule="evenodd" d="M487.891 720.82C495.021 718.99 501.441 717.14 508.961 714.76C513.001 713.48 517.191 711.83 522.151 711.02C523.801 710.75 525.631 710.23 528.521 710.93C532.091 711.8 531.571 713.03 529.061 716.15C526.521 719.31 521.511 721.7 518.491 722.96C512.661 725.39 506.741 726.86 501.451 728.33C495.591 729.96 489.781 731.64 484.151 733.36C479.861 734.67 475.891 735.98 471.511 737.48C470.471 737.83 469.591 738.08 468.341 738.58C460.861 741.63 453.971 743.95 447.531 747.4C446.911 747.73 446.481 748.35 445.851 748.7C445.281 749.02 444.531 749.02 443.951 749.36C441.751 750.68 439.691 752.55 437.271 754.25C436.071 755.09 434.791 755.57 433.651 756.51C431.131 758.57 428.361 761.22 425.761 763.66C425.521 763.89 425.021 763.91 424.791 764.14C422.891 766.02 421.121 767.68 418.211 770.56C416.451 772.3 414.071 775.76 411.261 775.11C407.271 774.19 409.591 768.73 411.181 766.32C412.321 764.59 415.211 761.13 416.951 759.19C426.491 748.52 436.711 741.41 449.401 735.22C450.741 734.57 451.951 733.61 453.321 733C456.141 731.75 459.231 730.98 461.941 729.57C464.481 728.25 467.011 726.15 469.601 724.2C472.041 722.35 474.411 720.53 476.701 718.45C481.441 714.13 485.841 709.18 489.121 704.31C492.651 699.08 496.351 693.53 501.021 689.5C503.261 687.57 506.161 685.98 508.931 684.47C512.031 682.77 515.431 680.4 519.111 680.64C522.701 680.87 524.531 682.8 524.681 684.38C525.161 689.32 518.001 691.59 515.071 693.13C510.661 695.45 507.641 697.64 504.731 700.57C498.641 706.71 494.321 713.86 487.891 720.8V720.82Z" fill="black"/>
</g>
</g>
<mask id="mask3_384_1715" style="mask-type:luminance" maskUnits="userSpaceOnUse" x="292" y="688" width="65" height="140">
<path d="M292.861 688.3C293.121 688.28 293.131 688.45 293.121 688.64C299.011 690.75 304.271 693.51 308.991 697.05C309.561 697.48 309.951 698.26 310.581 698.77C311.881 699.81 313.241 700.61 314.441 701.69C317.931 704.81 320.851 708.27 324.011 712.01C325.071 713.27 326.291 714.18 327.201 715.45C336.021 727.74 343.301 742.36 348.001 758.39C348.461 759.97 349.101 761.57 349.511 763.12C351.241 769.66 352.391 776.54 353.531 783.62C354.041 786.81 354.911 790.29 355.201 794.13C355.811 802.02 355.691 807.34 356.191 816.96C356.271 818.5 356.851 822.91 356.611 825.49C356.461 826.98 356.651 827.11 355.781 827.2C353.281 827.44 354.131 821.59 354.061 819.41C353.811 811.02 353.411 805.36 352.961 797.47C352.871 795.97 353.291 794.16 352.941 792.93C352.681 792 351.771 791.12 350.601 789.9C348.211 787.4 345.311 784.63 342.851 781.94C339.111 777.84 336.231 773.81 333.441 770.43C320.851 755.23 309.851 738.57 301.841 719.74C299.871 715.11 297.941 710.13 296.461 705.12C294.901 699.84 293.551 694.42 292.871 688.31L292.861 688.3Z" fill="white"/>
</mask>
<g mask="url(#mask3_384_1715)">
<g style="mix-blend-mode:soft-light" opacity="0.5">
<path fill-rule="evenodd" clip-rule="evenodd" d="M308.222 747.89C307.742 755.34 308.822 765.91 306.292 774.58C305.512 777.25 304.252 778.79 302.512 780.45C300.672 778.89 299.202 777.44 298.362 775.07C296.002 768.41 295.902 759.76 296.002 751.15C296.202 734.6 271.842 714.93 275.912 698.84C277.142 693.97 282.902 682.76 287.452 683.13C288.132 683.19 289.942 684.08 290.312 684.41C304.662 699.78 311.292 727.81 312.312 730.25C313.512 733.12 314.992 736.79 316.522 739.87C322.042 751.02 328.002 761.94 331.352 775.08C331.772 776.72 331.812 778.48 332.192 780.33C333.052 784.59 334.612 790.94 334.402 796.05C334.112 803 329.922 808.91 325.282 803.35C324.882 802.87 324.602 802.33 324.282 801.71C322.182 797.64 321.702 791.13 320.882 785.83C318.702 771.84 314.012 758.76 308.222 747.87V747.89Z" fill="black"/>
</g>
</g>
<path fill-rule="evenodd" clip-rule="evenodd" d="M160.07 600.74C160.41 598.6 161.07 596.98 160.94 594.94C160.88 593.88 160.35 592.83 160.07 591.75C158.23 584.39 157.46 574.81 158.91 566.21C160.41 557.32 163.86 549.94 167.32 542.12C169.81 536.51 172.05 530.97 175.16 525.58C176.12 523.92 177.34 522.35 178.35 520.65C181.86 514.75 185.59 509 189.38 503.24C189.92 502.41 190.03 501.19 191.12 500.92C194.57 510.01 193.76 519.79 192.86 528.78C191.95 537.86 190.54 546.79 187.34 554.31C182.69 565.28 175.67 573.37 169.06 582.75C168.01 584.24 166.84 585.78 165.87 587.39C164.9 588.98 163.71 590.82 163.26 592.32C162.71 594.13 162.73 596.64 162.39 598.99C162.03 601.49 161.41 603.91 161.52 605.66C161.62 607.15 162.21 608.63 162.68 610.3C165.48 620.18 168.17 631.76 171.1 641.93C174.6 654.11 178.3 665.19 181.84 676.75C182.95 672.73 181.37 668.31 180.97 663.98C178.79 640.23 187.39 623.53 195.48 608.26C198.79 602.02 202.1 595.92 205.63 590.27C208.32 585.97 211.64 582.24 214.63 578.08C215.1 577.43 215.6 576.7 216.08 576.05C216.42 575.59 216.66 574.52 217.53 574.6C216.76 585.96 215.72 596.26 214.63 606.23C213.53 616.28 212.05 625.97 209.12 634.96C204.14 650.21 194.85 660.22 186.78 672.68C184.99 675.45 183.53 677.05 183.01 680.81C182.46 684.81 183.68 689.35 184.46 693.58C186.19 702.84 188.16 713.21 189.97 722.31C194.14 701.86 202.25 684.31 210.57 667.75C214.8 659.33 219.04 651.18 223.63 643.08C227.03 637.07 230.25 631.11 233.49 624.8C234 623.82 234.68 622.8 235.23 621.9C235.81 620.94 236.18 619.76 237.26 619.29C242.41 631.21 241.05 649.73 238.42 663.98C237.15 670.87 235.7 677.06 233.2 682.84C229.84 690.63 225.67 698 220.43 704.31C220.23 704.54 220.04 704.6 219.85 704.89C219.43 705.53 218.52 706.72 217.82 707.5C214.36 711.37 209.58 715.52 205.05 718.82C202.99 720.32 201.59 721.33 199.25 722.3C197.75 722.92 195.9 723.06 194.32 723.75C192.9 724.37 191.1 725.6 190.84 726.65C190.54 727.85 191.52 731.14 192 733.61C194.26 745.26 196.43 755.75 199.26 766.98C203.57 784.11 208.11 801.45 212.9 818.35C214.05 822.41 215.36 826.72 215.51 831.12C213.78 830.12 213.77 827.38 213.19 825.32C212.07 821.34 210.55 817.4 209.42 813.42C208.81 811.29 208.58 809.13 207.97 807.04C205.58 798.9 203.11 790.72 201 782.37C196.75 765.51 192.73 748.28 189.39 730.72C188.72 731 188.27 732.2 187.94 733.04C186.95 735.57 186.22 738.64 185.33 741.45C184.16 745.12 182.8 748.89 182.71 753.35C182.59 760.35 184.33 767.5 185.61 774.53C188.04 787.88 190.85 800.91 194.02 814C195.61 820.54 197.39 827.27 197.22 834.02C195.56 833.25 195.66 830.92 195.48 829.67C195.22 827.91 195.24 826.1 194.9 824.45C194.31 821.6 193.41 818.37 192.58 814.88C189.64 802.57 186.27 789.85 183.87 776.58C182.98 771.65 181.95 766.59 181.26 761.49C181.02 759.71 181.14 757.93 180.68 756.27C180.18 754.46 178.67 752.48 177.2 750.18C176.14 748.5 175.02 746.7 174.01 744.96C172.33 742.06 168.67 739.36 165.02 737.41C162.25 735.94 159.68 734.51 157.18 734.22C154.53 733.91 151.82 734.4 149.35 734.22C141.41 733.65 133.86 730.22 127.87 726.96C121.41 723.44 116.16 719 111.91 714.19C110.76 712.88 109.4 711.75 108.43 710.42C107.37 708.97 106.5 707.55 105.53 706.07C99.9305 697.53 94.8205 688.76 89.5705 679.08C108.32 687.43 126.09 697.83 142.39 708.68C146.04 711.11 149.35 713.69 152.84 716.52C156.41 719.41 160.26 722.83 163.58 726.39C167.49 730.58 170.68 736.28 174.03 741.48C174.58 742.34 174.85 742.97 175.48 744.09C176.92 746.64 178.85 750.01 180.7 752.8C181.68 743.7 184.33 736.87 187.37 729.29C187.75 728.33 188.47 727.03 188.53 726.39C188.69 724.7 187.51 721.08 187.08 718.85C186.52 715.96 186.15 713.06 185.63 711.3C184.7 708.11 182.73 704.09 181.28 700.85C180.24 698.53 178.94 695.92 177.8 693.31C177.43 692.45 177.28 691.26 176.93 690.7C175.89 689.05 173.5 687.77 171.42 686.35C167.5 683.68 163.49 681.28 158.07 679.96C155.37 679.31 152.44 679.12 149.65 678.51C139.26 676.24 128.46 672.32 121.21 667.77C112.15 662.09 106.53 655.42 101.19 648.33C98.2805 644.46 95.6004 640.69 93.6504 636.14C91.8404 631.92 89.8605 627.49 88.1404 622.22C97.8904 626.1 107.33 630.34 116.58 635.28C120.86 637.56 126.19 640.46 130.8 643.12C144.93 651.25 158 661.91 168.52 674.17C172.09 678.33 174.93 682.44 177.22 687.52C179.42 692.37 181.65 697.38 183.6 702.9C183.95 701.13 183.33 699.35 183.02 697.68C182.05 692.43 181.15 686.76 180.12 681.43C178.76 674.42 176.71 668.05 174.61 661.7C173.51 658.4 172.71 655.17 171.42 652.12C168.49 645.23 163.95 638.47 159.52 632.39C158.64 631.18 157.77 629.83 156.9 628.91C155.55 627.47 152.77 625.57 150.81 624.27C148.58 622.79 146.03 621.3 143.85 620.5C138.36 618.48 131.34 618.93 125.28 617.88C106.94 614.72 91.4304 611.01 77.4004 602.79C70.5104 598.76 64.8604 594.52 59.1204 589.44C57.2404 587.77 55.2204 586.26 53.6104 584.51C51.9304 582.69 50.5605 580.64 48.9705 578.71C46.7105 575.96 43.9604 573.39 41.4204 570.58C40.7804 569.87 40.0204 569.35 39.3904 568.55C38.2704 567.12 36.6605 565.37 35.3305 563.62C35.0905 563.3 34.2104 562.74 34.7504 562.17C49.0304 567.3 64.8604 568.8 79.1504 572.32C93.2204 575.79 104.89 580.03 115.43 587.12C116.08 587.56 116.55 588.14 117.17 588.57C118.58 589.55 120.24 590.23 121.52 591.18C122.82 592.14 123.77 593.36 125 594.37C125.27 594.59 125.87 594.7 126.16 594.95C126.76 595.47 127.15 596.03 127.9 596.69C129.22 597.84 131.02 599.11 132.54 600.46C137.27 604.66 141.9 609.15 146.18 613.81C148.36 616.18 150.7 618.38 152.85 620.78C159.13 627.76 164.86 635.69 169.97 644.29C169.66 642.11 168.8 640.03 168.23 637.91C165.23 626.77 161.92 615.56 158.94 603.96C158.37 601.73 157.65 599.35 157.2 596.99C156.73 594.58 156.63 592.08 155.75 590.02C155.08 588.47 153.76 586.86 152.56 585.38C150.14 582.42 146.87 580.21 144.14 577.26C140.98 573.84 138.02 569.17 135.15 565.07C125.3 551 113.67 535.77 111.64 513.13C111.13 507.46 110.73 501.06 111.06 494.85C111.2 492.34 111.82 489.38 112.22 486.44C112.48 484.53 112.72 476.83 114.83 477.44C116.51 477.93 116.4 478.84 117.15 480.64C120.61 488.88 123.76 500.24 126.44 508.21C130.13 519.21 134.25 529.07 138.34 538.39C142.72 548.37 147.2 558.17 150.53 568.28C154.03 578.91 157.21 589.65 160.1 600.78L160.07 600.74Z" fill="url(#paint5_radial_384_1715)"/>
<path fill-rule="evenodd" clip-rule="evenodd" d="M225.65 832.89C225.57 822.47 225.81 812.94 225.07 803.29C224.65 797.84 222.99 793.29 222.17 787.91C220.41 776.37 215.74 764.78 216.66 751.06C217.67 736.01 229.28 727.31 238.71 720.3C244.01 716.37 249.17 712.87 253.8 708.98C256.76 706.5 259.75 703.88 262.8 701.15C264.41 699.7 265.96 698.09 268.02 696.8C269.1 696.12 270.34 695.94 270.63 697.67C270.88 699.22 269.46 702.8 268.89 704.35C268.26 706.04 267.53 707.15 267.15 708.12C266.47 709.82 266.72 709.98 265.7 712.18C263.14 717.7 260.17 722.24 257.58 726.4C254.65 731.1 251.73 735.43 248.29 739.46C247.4 740.49 246.61 741.56 245.68 742.65C243.41 745.3 240.43 748.68 238.71 752.22C234.19 761.57 233.28 775.62 230.01 786.47C229.44 788.34 228.75 790.07 228.27 791.98C227.81 793.81 227.03 795.83 226.82 797.49C226.46 800.37 227.01 803.57 227.11 806.78C227.33 813.76 228.21 822.51 227.11 829.71C226.96 830.69 227.27 832.72 225.66 832.9L225.65 832.89Z" fill="url(#paint6_radial_384_1715)"/>
<path fill-rule="evenodd" clip-rule="evenodd" d="M79.9807 731.32C83.6707 731.71 87.3607 734.19 91.0107 736.25C100.471 741.61 110.481 746.75 121.191 751.34C133.111 756.45 152.231 763.14 158.911 774.26C160.291 776.56 161.221 779.47 162.391 782.1C162.951 783.35 163.571 784.57 164.131 785.87C166.751 791.94 169.531 798.51 172.541 805.02C173.141 806.31 173.731 807.74 174.281 809.08C176.811 815.2 180.081 821.71 183.271 827.65C183.821 828.67 185.491 831.37 186.171 833.16C186.091 832.96 187.341 837.03 185.011 834.32C184.311 833.5 182.861 830.19 182.401 829.39C181.031 827 179.511 824.68 178.631 823C174.871 815.83 172.671 809.9 168.761 803.27C168.561 802.92 168.271 802.49 167.891 801.82C166.041 798.6 163.891 795.57 161.501 791.95C160.261 790.07 158.931 787.33 157.441 786.73C155.401 785.91 151.991 786.35 149.611 786.15C132.501 784.73 119.581 777.7 108.701 769.32C99.6807 762.37 91.7207 753.73 85.4807 742.91C84.5407 741.29 83.5607 739.49 82.5807 737.69C81.4507 735.62 80.2507 734 79.9707 731.31L79.9807 731.32Z" fill="url(#paint7_radial_384_1715)"/>
<mask id="mask4_384_1715" style="mask-type:luminance" maskUnits="userSpaceOnUse" x="34" y="477" width="207" height="358">
<path d="M160.07 600.74C160.41 598.6 161.07 596.98 160.94 594.94C160.88 593.88 160.35 592.83 160.07 591.75C158.23 584.39 157.46 574.81 158.91 566.21C160.41 557.32 163.86 549.94 167.32 542.12C169.81 536.51 172.05 530.97 175.16 525.58C176.12 523.92 177.34 522.35 178.35 520.65C181.86 514.75 185.59 509 189.38 503.24C189.92 502.41 190.03 501.19 191.12 500.92C194.57 510.01 193.76 519.79 192.86 528.78C191.95 537.86 190.54 546.79 187.34 554.31C182.69 565.28 175.67 573.37 169.06 582.75C168.01 584.24 166.84 585.78 165.87 587.39C164.9 588.98 163.71 590.82 163.26 592.32C162.71 594.13 162.73 596.64 162.39 598.99C162.03 601.49 161.41 603.91 161.52 605.66C161.62 607.15 162.21 608.63 162.68 610.3C165.48 620.18 168.17 631.76 171.1 641.93C174.6 654.11 178.3 665.19 181.84 676.75C182.95 672.73 181.37 668.31 180.97 663.98C178.79 640.23 187.39 623.53 195.48 608.26C198.79 602.02 202.1 595.92 205.63 590.27C208.32 585.97 211.64 582.24 214.63 578.08C215.1 577.43 215.6 576.7 216.08 576.05C216.42 575.59 216.66 574.52 217.53 574.6C216.76 585.96 215.72 596.26 214.63 606.23C213.53 616.28 212.05 625.97 209.12 634.96C204.14 650.21 194.85 660.22 186.78 672.68C184.99 675.45 183.53 677.05 183.01 680.81C182.46 684.81 183.68 689.35 184.46 693.58C186.19 702.84 188.16 713.21 189.97 722.31C194.14 701.86 202.25 684.31 210.57 667.75C214.8 659.33 219.04 651.18 223.63 643.08C227.03 637.07 230.25 631.11 233.49 624.8C234 623.82 234.68 622.8 235.23 621.9C235.81 620.94 236.18 619.76 237.26 619.29C242.41 631.21 241.05 649.73 238.42 663.98C237.15 670.87 235.7 677.06 233.2 682.84C229.84 690.63 225.67 698 220.43 704.31C220.23 704.54 220.04 704.6 219.85 704.89C219.43 705.53 218.52 706.72 217.82 707.5C214.36 711.37 209.58 715.52 205.05 718.82C202.99 720.32 201.59 721.33 199.25 722.3C197.75 722.92 195.9 723.06 194.32 723.75C192.9 724.37 191.1 725.6 190.84 726.65C190.54 727.85 191.52 731.14 192 733.61C194.26 745.26 196.43 755.75 199.26 766.98C203.57 784.11 208.11 801.45 212.9 818.35C214.05 822.41 215.36 826.72 215.51 831.12C213.78 830.12 213.77 827.38 213.19 825.32C212.07 821.34 210.55 817.4 209.42 813.42C208.81 811.29 208.58 809.13 207.97 807.04C205.58 798.9 203.11 790.72 201 782.37C196.75 765.51 192.73 748.28 189.39 730.72C188.72 731 188.27 732.2 187.94 733.04C186.95 735.57 186.22 738.64 185.33 741.45C184.16 745.12 182.8 748.89 182.71 753.35C182.59 760.35 184.33 767.5 185.61 774.53C188.04 787.88 190.85 800.91 194.02 814C195.61 820.54 197.39 827.27 197.22 834.02C195.56 833.25 195.66 830.92 195.48 829.67C195.22 827.91 195.24 826.1 194.9 824.45C194.31 821.6 193.41 818.37 192.58 814.88C189.64 802.57 186.27 789.85 183.87 776.58C182.98 771.65 181.95 766.59 181.26 761.49C181.02 759.71 181.14 757.93 180.68 756.27C180.18 754.46 178.67 752.48 177.2 750.18C176.14 748.5 175.02 746.7 174.01 744.96C172.33 742.06 168.67 739.36 165.02 737.41C162.25 735.94 159.68 734.51 157.18 734.22C154.53 733.91 151.82 734.4 149.35 734.22C141.41 733.65 133.86 730.22 127.87 726.96C121.41 723.44 116.16 719 111.91 714.19C110.76 712.88 109.4 711.75 108.43 710.42C107.37 708.97 106.5 707.55 105.53 706.07C99.9305 697.53 94.8205 688.76 89.5705 679.08C108.32 687.43 126.09 697.83 142.39 708.68C146.04 711.11 149.35 713.69 152.84 716.52C156.41 719.41 160.26 722.83 163.58 726.39C167.49 730.58 170.68 736.28 174.03 741.48C174.58 742.34 174.85 742.97 175.48 744.09C176.92 746.64 178.85 750.01 180.7 752.8C181.68 743.7 184.33 736.87 187.37 729.29C187.75 728.33 188.47 727.03 188.53 726.39C188.69 724.7 187.51 721.08 187.08 718.85C186.52 715.96 186.15 713.06 185.63 711.3C184.7 708.11 182.73 704.09 181.28 700.85C180.24 698.53 178.94 695.92 177.8 693.31C177.43 692.45 177.28 691.26 176.93 690.7C175.89 689.05 173.5 687.77 171.42 686.35C167.5 683.68 163.49 681.28 158.07 679.96C155.37 679.31 152.44 679.12 149.65 678.51C139.26 676.24 128.46 672.32 121.21 667.77C112.15 662.09 106.53 655.42 101.19 648.33C98.2805 644.46 95.6004 640.69 93.6504 636.14C91.8404 631.92 89.8605 627.49 88.1404 622.22C97.8904 626.1 107.33 630.34 116.58 635.28C120.86 637.56 126.19 640.46 130.8 643.12C144.93 651.25 158 661.91 168.52 674.17C172.09 678.33 174.93 682.44 177.22 687.52C179.42 692.37 181.65 697.38 183.6 702.9C183.95 701.13 183.33 699.35 183.02 697.68C182.05 692.43 181.15 686.76 180.12 681.43C178.76 674.42 176.71 668.05 174.61 661.7C173.51 658.4 172.71 655.17 171.42 652.12C168.49 645.23 163.95 638.47 159.52 632.39C158.64 631.18 157.77 629.83 156.9 628.91C155.55 627.47 152.77 625.57 150.81 624.27C148.58 622.79 146.03 621.3 143.85 620.5C138.36 618.48 131.34 618.93 125.28 617.88C106.94 614.72 91.4304 611.01 77.4004 602.79C70.5104 598.76 64.8604 594.52 59.1204 589.44C57.2404 587.77 55.2204 586.26 53.6104 584.51C51.9304 582.69 50.5605 580.64 48.9705 578.71C46.7105 575.96 43.9604 573.39 41.4204 570.58C40.7804 569.87 40.0204 569.35 39.3904 568.55C38.2704 567.12 36.6605 565.37 35.3305 563.62C35.0905 563.3 34.2104 562.74 34.7504 562.17C49.0304 567.3 64.8604 568.8 79.1504 572.32C93.2204 575.79 104.89 580.03 115.43 587.12C116.08 587.56 116.55 588.14 117.17 588.57C118.58 589.55 120.24 590.23 121.52 591.18C122.82 592.14 123.77 593.36 125 594.37C125.27 594.59 125.87 594.7 126.16 594.95C126.76 595.47 127.15 596.03 127.9 596.69C129.22 597.84 131.02 599.11 132.54 600.46C137.27 604.66 141.9 609.15 146.18 613.81C148.36 616.18 150.7 618.38 152.85 620.78C159.13 627.76 164.86 635.69 169.97 644.29C169.66 642.11 168.8 640.03 168.23 637.91C165.23 626.77 161.92 615.56 158.94 603.96C158.37 601.73 157.65 599.35 157.2 596.99C156.73 594.58 156.63 592.08 155.75 590.02C155.08 588.47 153.76 586.86 152.56 585.38C150.14 582.42 146.87 580.21 144.14 577.26C140.98 573.84 138.02 569.17 135.15 565.07C125.3 551 113.67 535.77 111.64 513.13C111.13 507.46 110.73 501.06 111.06 494.85C111.2 492.34 111.82 489.38 112.22 486.44C112.48 484.53 112.72 476.83 114.83 477.44C116.51 477.93 116.4 478.84 117.15 480.64C120.61 488.88 123.76 500.24 126.44 508.21C130.13 519.21 134.25 529.07 138.34 538.39C142.72 548.37 147.2 558.17 150.53 568.28C154.03 578.91 157.21 589.65 160.1 600.78L160.07 600.74Z" fill="white"/>
</mask>
<g mask="url(#mask4_384_1715)">
<g style="mix-blend-mode:soft-light" opacity="0.5">
<path fill-rule="evenodd" clip-rule="evenodd" d="M210.971 493.67C211.221 493.62 211.241 493.78 211.261 493.96C212.841 499.08 211.411 505.74 210.101 511.66C206.471 527.98 201.131 543.81 192.691 555.48C188.961 560.64 184.461 564.78 180.211 569.7C178.581 571.59 177.131 573.91 175.571 576.38C174.301 578.39 172.911 580.08 172.091 582.47C171.011 585.63 170.661 591.43 168.321 591.46C165.531 591.51 165.961 586.43 166.281 584.21C167.431 576.38 173.151 568.98 177.601 563.61C182.331 557.9 187.561 552.35 191.241 545.62C195.231 538.31 198.141 530.29 200.231 522.98C202.061 516.58 203.471 510.35 205.451 504.41C206.121 502.4 206.591 500.33 207.491 498.61C208.471 496.73 210.131 495.32 210.971 493.68V493.67Z" fill="black"/>
</g>
<g style="mix-blend-mode:soft-light" opacity="0.5">
<path fill-rule="evenodd" clip-rule="evenodd" d="M183.11 497.74C183.36 497.69 183.38 497.85 183.4 498.03C185.23 503.51 182.96 510.75 181.37 516.02C179.2 523.19 176.67 530.31 172.96 536.04C171.38 538.49 169.86 540.54 167.74 543.01C166.38 544.59 164.41 546.98 162.81 546.2C160.95 545.3 162.71 541.57 163.39 540.4C163.72 539.82 165.88 536.89 166.58 535.76C168.73 532.27 170.36 529.02 171.8 525.31C173.41 521.19 174.73 517.17 175.86 513.41C177.14 509.17 178.1 504.95 179.92 501.8C180.88 500.14 182.42 499.26 183.11 497.74Z" fill="black"/>
</g>
<g style="mix-blend-mode:soft-light" opacity="0.5">
<path fill-rule="evenodd" clip-rule="evenodd" d="M108.53 509.05C109.63 509.05 110.13 510.88 110.56 511.95C113.05 518.13 116.63 522.66 121.01 527.62C129.91 537.7 138.03 549.64 143.06 565.34C144.22 568.96 145.13 572.47 146.25 576.95C146.67 578.62 147.26 579.36 147.7 583.04C148.11 586.45 147.39 587.63 145.96 587.97C140.84 589.2 140.92 579.36 139.57 576.65C138.88 576.6 138.38 577.49 136.67 576.94C134.34 576.19 131.69 569.99 130 566.2C126.24 557.79 123.47 550.81 119.55 542.11C117.57 537.73 115.09 533.59 114.33 530.21C114 528.74 114.3 527.35 114.04 526.44C113.43 524.28 111.57 522.44 110.56 520.35C109.37 517.91 106.83 512.58 108.53 509.03V509.05Z" fill="black"/>
</g>
<g style="mix-blend-mode:soft-light" opacity="0.5">
<path fill-rule="evenodd" clip-rule="evenodd" d="M55.1397 567.38C55.5997 566.23 55.8997 564.5 57.1697 564.18C58.4697 563.86 60.4498 565.7 62.0998 565.92C66.9798 566.58 73.3498 566.85 78.3498 567.95C80.0498 568.32 81.6398 569.24 82.9897 569.4C85.1297 569.65 87.5298 569.03 89.9598 568.82C96.3198 568.28 106.2 567.29 110.85 570.85C111.76 571.54 113.34 573.35 113.17 574.04C112.59 576.42 105.89 575.12 102.73 574.91C91.7497 574.16 80.5997 576.94 71.9697 576.94C63.3397 576.94 55.7898 574.33 50.4898 570.56C48.7198 569.3 46.3097 567.34 44.6797 565.34C43.7597 564.2 42.0297 562.45 43.2297 561.57C43.5197 561.35 43.8697 560.74 44.6797 560.99C47.6697 561.91 52.2798 566.31 55.1298 567.37L55.1397 567.38Z" fill="black"/>
</g>
<g style="mix-blend-mode:soft-light" opacity="0.5">
<path fill-rule="evenodd" clip-rule="evenodd" d="M210.969 628.32C217.659 617.02 221.189 600.61 225.189 585.95C226.399 581.49 227.059 577.36 230.409 574.63C230.659 574.42 231.129 573.78 231.569 574.05C234.899 579.04 230.979 591.16 229.539 596.97C227.079 606.86 224.769 615.13 221.119 623.38C219.859 626.22 218.959 629.04 217.639 631.51C217.329 632.08 216.839 632.59 216.479 633.25C215.609 634.84 214.469 636.97 213.279 638.76C212.559 639.86 211.799 641.08 210.959 642.24C210.149 643.36 208.849 644.29 208.349 645.43C207.969 646.31 207.759 648.01 207.479 648.91C206.009 653.74 203.759 659.58 200.799 663.71C199.609 665.37 197.469 667.55 195.289 666.61C193.599 665.88 195.119 664.8 196.109 662.94C194.849 663.46 194.459 666.17 193.919 666.85C192.679 668.4 192.539 667.81 191.039 670.04C190.769 670.44 189.789 671.01 189.389 671.53C188.999 672.03 187.929 672.52 187.899 672.69C187.669 674.31 191.139 678.76 188.319 680.55C186.399 681.76 184.519 677.91 183.969 676.78C181.149 670.96 179.409 664.15 177.869 657.34C175.719 647.8 173.759 635.93 174.389 626.58C174.659 622.47 176.079 618.54 177.289 615.84C180.059 622.9 179.879 631.65 180.769 639.93C181.659 648.17 183.529 656 184.829 663.14C186.019 662.6 186.159 661.27 186.859 660.24C188.649 657.61 191.169 654.82 193.529 652.12C195.749 649.58 198.249 647.09 200.499 644.28C202.189 642.17 202.769 640.77 203.399 637.03C204.169 632.5 204.699 627.31 205.429 622.81C207.459 610.37 211.669 600.62 214.999 588.86C216.189 584.67 217.279 579.96 218.199 575.51C218.599 573.53 218.469 570.41 220.519 570.87C224.109 571.68 221.299 583.01 220.809 585.38C219.399 592.19 218.729 594.77 217.329 599.6C214.509 609.31 211.459 617.16 210.949 628.33L210.969 628.32Z" fill="black"/>
</g>
<g style="mix-blend-mode:soft-light" opacity="0.5">
<path fill-rule="evenodd" clip-rule="evenodd" d="M140.74 613.23C140.84 611.93 139.68 610.82 139 609.46C137.67 606.82 136.35 604.78 135.23 601.33C134.79 599.99 133.8 597.98 135.23 597.27C138.76 595.5 144.54 606.64 145.68 608.59C146.87 610.64 148.38 613.39 149.45 615.56C150.15 616.97 152.02 617.54 153.24 618.98C153.72 619.55 155.44 618.28 154.47 621.07C154.58 620.75 155.12 621.88 156.13 622.23C157.15 622.58 158.99 625.72 159.9 627.45C160.86 629.26 162.23 631.95 162.51 633.83C162.69 635.02 162.32 636.05 162.51 637.02C162.91 639.07 164.84 641.4 165.41 643.69C166.25 647.1 165.65 651.16 163.67 651.53C161.41 651.94 159.46 648.24 158.74 646.89C157.62 644.82 156.94 642.11 155.84 640.22C155.05 638.86 153.35 636.97 151.78 635.28C145.58 628.64 137.25 623.83 125.95 621.06C123.84 620.54 121.89 620.21 120.14 619.03C119.49 618.59 119.25 618.26 118.69 618.16C117.12 617.88 114.32 618.88 112.31 619.03C110.31 619.18 107.53 619.13 105.34 619.03C104.2 618.98 102.6 618.48 101.86 618.74C100.91 619.07 101.07 620.08 100.41 620.77C96.5403 624.77 92.9403 618.12 89.6703 615.26C86.8303 612.76 82.7103 610.26 78.9303 607.42C77.1803 606.1 75.4303 604.7 73.7103 603.36C71.8103 601.88 69.6703 600.5 68.4903 599.3C67.5703 598.36 67.0703 596.77 66.4603 596.4C65.1103 595.58 61.9903 595.78 60.0803 595.24C59.2703 595.01 54.4503 593.01 56.6003 591.47C59.3303 589.52 67.9603 591.27 70.8203 592.05C72.6603 592.56 74.5603 593.11 76.0403 593.79C79.2203 595.25 81.8703 597.35 84.4503 599.3C85.7003 600.25 87.2603 601.08 88.5103 602.2C89.7603 603.31 90.8903 604.57 91.9903 605.68C93.2703 606.97 95.3303 609.33 96.9203 611.2C98.1703 612.67 97.9903 612.85 100.4 613.23C113.19 615.26 128.59 608.33 140.74 613.23Z" fill="black"/>
</g>
<g style="mix-blend-mode:soft-light" opacity="0.5">
<path fill-rule="evenodd" clip-rule="evenodd" d="M197.33 590.89C200.29 597.3 198.96 608.5 196.46 615.27C195.08 618.99 192.41 623.13 189.5 623.68C187.46 624.07 185.48 623.45 185.15 622.52C184.28 620.13 187.94 619.09 188.92 617.88C189.15 617.6 189.85 616.56 190.08 616.14C192.5 611.75 193.05 600.02 195.59 594.08C196 593.12 196.76 592.54 197.04 591.76C197.17 591.4 196.87 590.89 197.33 590.89Z" fill="black"/>
</g>
<g style="mix-blend-mode:soft-light" opacity="0.5">
<path fill-rule="evenodd" clip-rule="evenodd" d="M149.739 684.91C148.869 684.53 149.359 685.77 148.869 686.07C148.669 686.19 147.379 686.33 147.129 686.36C145.229 686.6 142.099 685.34 139.869 684.04C137.809 682.83 135.839 681.08 134.359 679.98C124.769 672.85 117.279 666.3 108.529 657.93C106.839 656.32 104.499 654.42 103.889 653C103.709 652.59 103.749 650.96 103.599 650.68C103.229 649.95 102.139 649.05 101.279 648.36C100.559 647.77 99.7294 646.95 98.9594 646.04C98.4894 645.48 98.2094 644.8 97.7994 644.3C96.8594 643.15 95.6894 642.26 94.8994 641.11C92.2794 637.34 90.5794 633.5 88.5194 629.5C88.3694 629.21 87.8294 628.98 87.6494 628.63C87.1994 627.76 86.9294 626.58 86.4894 625.43C85.8394 623.76 83.9494 620.49 86.7794 619.92C89.0194 619.46 91.1094 624.32 91.9994 625.72C96.2494 632.36 100.729 639.82 106.219 644.58C110.189 648.03 114.749 650.78 119.859 652.99C129.799 657.29 141.029 661.03 150.619 666.05C153.709 667.67 157.269 669.68 159.909 672.15C160.319 672.54 161.579 673.07 162.229 673.6C166.549 677.13 170.189 681.82 173.839 686.66C175.619 689.02 176.829 690.1 178.479 693.04C179.649 695.14 180.939 700.06 178.479 700.87C174.899 702.05 171.459 694.78 169.769 692.46C169.089 691.51 167.569 689.64 167.159 689.56C167.459 689.62 165.309 689.95 164.839 690.14C164.019 690.47 164.319 692.08 162.809 692.46C160.269 693.11 157.359 690.54 155.549 689.27C153.239 687.65 151.429 686.23 149.749 684.91H149.739Z" fill="black"/>
</g>
<g style="mix-blend-mode:soft-light" opacity="0.5">
<path fill-rule="evenodd" clip-rule="evenodd" d="M240.57 650.95C246.34 651.65 242.64 660.31 242.31 664.3C242.91 664.5 243.25 663.51 243.47 663.14C244.47 661.42 245.35 659.41 246.37 657.34C247.51 655.04 249.01 651.07 252.46 651.82C257.18 652.84 253.01 660.33 251.88 662.56C251.32 663.67 250.78 664.89 250.14 666.04C249.4 667.37 248.31 668.6 248.11 669.23C247.95 669.75 248.19 670.88 248.11 671.55C247.48 676.77 244.36 681.75 241.73 685.77C240.51 687.62 239.29 689.42 237.95 690.99C236.53 692.66 234.68 693.96 233.6 695.63C232.84 696.8 232.32 698.5 231.57 699.98C229.96 703.15 225.46 712.55 221.12 709.85C220.5 709.47 220.15 708.69 219.96 708.69C219.1 708.68 216.55 711.26 214.74 712.75C210.12 716.56 207.42 719.85 203.13 723.78C202.73 724.14 202.13 724.26 201.68 724.65C200.79 725.42 201.05 725.73 199.65 726.1C199.62 726.1 198.45 726.31 198.78 726.1C197.5 726.92 197.55 728.45 196.17 728.42C192.92 728.36 193.93 721.85 194.72 719.71C196.03 716.18 199.32 712.52 202.85 709.26C211.37 701.4 220.46 693.54 228.39 684.31C229.2 683.36 230.19 682.65 230.42 681.99C231.06 680.17 230.72 677.54 230.71 675.02C230.7 672.54 230.56 669.82 230.71 667.19C231.14 659.45 234.42 651.66 236.51 644.55C237.65 640.69 239.08 635.44 239.41 630.91C239.69 627.07 239.25 623.7 239.41 621.04C239.43 620.77 238.91 620.26 240.57 620.17C242.82 620.05 243.63 626.84 243.76 628.59C244.4 637.45 242.71 643.99 240.57 650.93V650.95Z" fill="black"/>
</g>
<g style="mix-blend-mode:soft-light" opacity="0.5">
<path fill-rule="evenodd" clip-rule="evenodd" d="M164.539 713.93C158.869 717.75 146.789 714.1 140.449 712.19C134.679 710.45 128.459 708.14 123.619 705.52C116.149 701.48 110.759 695.4 105.629 688.11C104.609 686.65 99.4394 679.69 103.019 679.69C105.659 679.69 109.089 684.52 109.979 685.5C115.839 691.85 122.509 693.01 132.309 697.16C138.379 699.74 142.619 705.64 148.289 706.97C153.699 708.24 160.319 708.76 163.669 712.48C163.979 712.83 165.089 713.13 164.539 713.93Z" fill="black"/>
</g>
<g style="mix-blend-mode:soft-light" opacity="0.5">
<path fill-rule="evenodd" clip-rule="evenodd" d="M152.349 731.05C152.349 731.05 152.459 730.78 152.639 730.76C159.009 729.91 166.419 733.88 169.179 736.56C171.079 738.41 173.859 742.44 175.269 745.56C176.619 748.53 179.019 755.19 174.689 755.71C171.499 756.09 170.919 752.17 169.759 749.04C168.349 745.26 165.009 740.07 161.629 738.01C159.659 736.81 156.179 735.6 152.639 735.98C151.179 736.14 149.879 736.92 147.699 737.72C145.709 738.46 144.029 739.43 143.059 737.43C141.889 735.02 148.989 731.51 150.899 731.05C151.349 730.94 151.879 731.12 152.349 731.05Z" fill="black"/>
</g>
<path style="mix-blend-mode:soft-light" opacity="0.7" d="M319.321 678.896C417.077 581.14 417.077 422.646 319.321 324.89C221.565 227.134 63.0715 227.134 -34.6845 324.89C-132.441 422.646 -132.441 581.14 -34.6845 678.896C63.0715 776.652 221.565 776.652 319.321 678.896Z" fill="url(#paint8_radial_384_1715)"/>
</g>
<mask id="mask5_384_1715" style="mask-type:luminance" maskUnits="userSpaceOnUse" x="79" y="731" width="108" height="105">
<path d="M79.9807 731.32C83.6707 731.71 87.3607 734.19 91.0107 736.25C100.471 741.61 110.481 746.75 121.191 751.34C133.111 756.45 152.231 763.14 158.911 774.26C160.291 776.56 161.221 779.47 162.391 782.1C162.951 783.35 163.571 784.57 164.131 785.87C166.751 791.94 169.531 798.51 172.541 805.02C173.141 806.31 173.731 807.74 174.281 809.08C176.811 815.2 180.081 821.71 183.271 827.65C183.821 828.67 185.491 831.37 186.171 833.16C186.091 832.96 187.341 837.03 185.011 834.32C184.311 833.5 182.861 830.19 182.401 829.39C181.031 827 179.511 824.68 178.631 823C174.871 815.83 172.671 809.9 168.761 803.27C168.561 802.92 168.271 802.49 167.891 801.82C166.041 798.6 163.891 795.57 161.501 791.95C160.261 790.07 158.931 787.33 157.441 786.73C155.401 785.91 151.991 786.35 149.611 786.15C132.501 784.73 119.581 777.7 108.701 769.32C99.6807 762.37 91.7207 753.73 85.4807 742.91C84.5407 741.29 83.5607 739.49 82.5807 737.69C81.4507 735.62 80.2507 734 79.9707 731.31L79.9807 731.32Z" fill="white"/>
</mask>
<g mask="url(#mask5_384_1715)">
<g style="mix-blend-mode:soft-light" opacity="0.5">
<path fill-rule="evenodd" clip-rule="evenodd" d="M79.2199 737.72C80.4699 736.47 82.3999 739.4 82.6999 739.75C84.7099 742.04 87.7999 745.87 90.2499 747.58C92.9699 749.49 96.4699 750.55 99.5399 752.22C100.92 752.97 102.24 754.14 103.6 755.12C106.7 757.34 108.83 759.3 111.43 762.37C112.46 763.58 113.67 765 114.63 766.43C116.41 769.12 120.47 772.48 123.91 774.27C130.27 777.56 138.68 779.05 144.22 784.42C144.06 784.26 144.26 785.36 145.09 785.29C145.23 785.28 146.55 783.52 146.83 783.26C149.1 781.17 152.49 781.15 155.54 783.26C157.97 784.95 159.63 787.96 160.76 791.39C161.27 792.93 162.87 798.63 159.6 799.23C155.47 799.97 154.94 792.53 153.22 789.65C152.68 788.75 151.65 786.64 150.61 787.04C149.64 787.42 149.33 789.63 149.74 792.26C149.98 793.83 151.75 796.31 151.48 798.64C151.37 799.56 150.9 801.19 149.74 801.54C148.12 802.03 146.5 800.13 145.68 799.22C144.01 797.35 144.38 797.88 143.07 795.73C140.01 790.72 138.49 788.07 133.2 785.58C127.98 783.11 122.2 781.82 117.24 778.32C114.04 776.06 109.18 773.72 106.46 770.13C105.4 768.74 97.3699 769.68 96.1599 768.24C93.5699 765.18 96.2399 759.42 92.3899 757.21C86.9699 754.1 84.4099 750.44 81.2699 744.94C80.6599 743.87 77.7499 739.17 79.2399 737.68L79.2199 737.72Z" fill="black"/>
</g>
</g>
<mask id="mask6_384_1715" style="mask-type:luminance" maskUnits="userSpaceOnUse" x="216" y="696" width="55" height="137">
<path d="M225.65 832.89C225.57 822.47 225.81 812.94 225.07 803.29C224.65 797.84 222.99 793.29 222.17 787.91C220.41 776.37 215.74 764.78 216.66 751.06C217.67 736.01 229.28 727.31 238.71 720.3C244.01 716.37 249.17 712.87 253.8 708.98C256.76 706.5 259.75 703.88 262.8 701.15C264.41 699.7 265.96 698.09 268.02 696.8C269.1 696.12 270.34 695.94 270.63 697.67C270.88 699.22 269.46 702.8 268.89 704.35C268.26 706.04 267.53 707.15 267.15 708.12C266.47 709.82 266.72 709.98 265.7 712.18C263.14 717.7 260.17 722.24 257.58 726.4C254.65 731.1 251.73 735.43 248.29 739.46C247.4 740.49 246.61 741.56 245.68 742.65C243.41 745.3 240.43 748.68 238.71 752.22C234.19 761.57 233.28 775.62 230.01 786.47C229.44 788.34 228.75 790.07 228.27 791.98C227.81 793.81 227.03 795.83 226.82 797.49C226.46 800.37 227.01 803.57 227.11 806.78C227.33 813.76 228.21 822.51 227.11 829.71C226.96 830.69 227.27 832.72 225.66 832.9L225.65 832.89Z" fill="white"/>
</mask>
<g mask="url(#mask6_384_1715)">
<g style="mix-blend-mode:soft-light" opacity="0.5">
<path fill-rule="evenodd" clip-rule="evenodd" d="M294.541 640.8C294.871 640.86 294.701 641.09 294.541 641.09C292.271 646.88 287.801 651.4 284.101 656.76C280.671 661.72 277.751 667.36 275.681 674.17C272.241 685.54 271.001 699.12 269.881 713.93C269.761 715.49 269.041 719.26 269.301 719.73C269.811 720.65 271.021 719.35 271.911 720.6C272.341 723.93 269.621 724.39 269.011 726.98C268.561 728.91 268.871 731.75 269.011 733.95C269.191 736.93 270.201 739.96 269.881 742.07C269.591 743.98 268.301 746.03 265.241 745.55C262.531 745.13 262.121 742.9 261.761 739.75C261.601 738.29 262.151 735.8 261.471 735.11C260.971 734.61 257.781 737.57 257.701 738.01C257.611 738.49 258.681 740.86 259.151 742.07C259.701 743.5 260.171 744.88 260.601 746.13C261.061 747.46 262.051 748.97 262.051 750.19C262.051 752.39 260.371 754.84 257.411 753.38C256.891 753.12 256.681 751.97 255.961 751.64C255.691 751.52 254.951 751.75 254.511 751.64C252.891 751.22 252.381 750.41 251.321 747.87C250.681 746.34 250.631 744.39 250.161 744.1C249.051 743.4 247.031 746.16 246.391 746.71C244.871 748.02 243.441 748.97 242.621 749.9C238.631 754.45 236.301 759 235.651 767.31C235.301 771.76 235.001 778.89 233.911 783.85C233.371 786.3 233.311 787.81 231.881 787.91C229.711 788.06 229.681 785.27 229.561 780.94C229.441 776.56 229.531 770.02 229.851 765.27C230.591 754.2 235.541 748.72 241.751 742.64C242.361 742.03 243.351 740.82 244.651 739.74C245.291 739.21 247.761 737.7 247.841 737.42C247.971 736.95 246.651 733.55 246.101 731.62C244.651 726.6 242.411 718.71 242.041 713.92C241.701 709.53 242.241 702.7 246.391 705.21C246.681 705.39 247.051 705.26 247.261 705.5C247.421 705.69 247.321 706.28 247.551 706.37C248.211 706.65 249.521 705.74 250.451 706.95C251.071 707.75 251.081 710.92 251.321 713.33C251.871 718.98 253.061 722.77 254.511 727.84C254.851 729.02 254.871 730.59 255.091 730.74C255.841 731.28 255.721 730.77 256.541 730.16C257.391 729.52 260.101 727.53 260.311 726.68C260.511 725.87 259.761 722.73 259.441 720.3C258.121 710.03 257.701 701.59 257.701 689.83C257.701 685.04 257.371 681.19 259.441 680.55C265.251 678.74 263.891 691.25 264.661 695.06C267.861 670.21 275.411 649.71 294.551 640.8H294.541Z" fill="black"/>
</g>
</g>
<path fill-rule="evenodd" clip-rule="evenodd" d="M279.66 805.13C395.45 805.13 489.31 813.48 489.31 823.77C489.31 834.06 395.45 842.41 279.66 842.41C163.87 842.41 70.0098 834.07 70.0098 823.77C70.0098 813.47 163.87 805.13 279.66 805.13Z" fill="#E2E2F2"/>
<g clip-path="url(#clip0_384_1715)">
<path d="M329.657 269.183C320.868 253.667 317.927 237.774 318.084 231.393C318.111 230.877 318.128 230.361 318.146 229.846C318.189 228.963 318.242 228.473 318.242 228.473H318.172C318.181 201.706 296.996 180 270.857 180C244.718 180 223.525 201.706 223.525 228.473C223.525 229.828 223.595 231.174 223.7 232.503C223.752 239.488 220.434 254.506 212.109 269.183C201.762 287.436 200.659 306.721 221.205 314.483C221.205 314.483 221.31 314.518 221.459 314.571C223.393 315.287 225.494 315.908 227.814 316.415C228.357 316.529 228.882 316.616 229.416 316.721C243.273 319.982 277.571 324.851 310.083 317.123C311.361 316.922 312.657 316.704 313.97 316.415C317.612 315.62 320.737 314.553 323.442 313.259C323.459 313.259 323.485 313.242 323.503 313.242H323.494C340.976 304.789 339.488 286.536 329.666 269.192L329.657 269.183Z" fill="black"/>
<path d="M287.524 320.34C284.233 316.319 281.624 309.78 280.679 302.883C279.619 295.182 281.178 287.41 281.178 287.41H256.168C256.168 287.41 258.636 295.042 257.498 302.367C256.238 310.532 252.097 320.419 251.073 321.101C245.348 324.869 241.829 328.129 237.881 332.247C237.881 332.247 228.637 351.452 251.073 350.998C273.509 350.543 295.692 330.761 296.374 329.204C291.612 327.29 290.282 323.706 287.524 320.34Z" fill="url(#paint9_linear_384_1715)"/>
<path d="M232.243 241.629C232.243 241.629 225.143 236.122 219.908 242.669C214.175 249.829 225.843 270.713 237.889 261.412L232.243 241.629Z" fill="#FFC2B3"/>
<path d="M233.522 257.766C233.224 257.766 232.944 257.609 232.804 257.329C228.794 249.523 223.665 249.156 223.455 249.138C223.008 249.112 222.667 248.736 222.684 248.29C222.702 247.844 223.052 247.486 223.525 247.521C223.778 247.53 229.775 247.879 234.248 256.586C234.45 256.979 234.292 257.469 233.898 257.679C233.775 257.74 233.653 257.766 233.53 257.766H233.522Z" fill="#F48073"/>
<path d="M308.847 241.629C308.847 241.629 315.947 236.122 321.182 242.669C326.916 249.829 315.247 270.713 303.201 261.412L308.847 241.629Z" fill="#FFC2B3"/>
<path d="M307.569 257.766C307.446 257.766 307.315 257.74 307.201 257.679C306.798 257.478 306.65 256.988 306.851 256.586C311.324 247.88 317.321 247.53 317.575 247.521C317.977 247.504 318.397 247.845 318.415 248.299C318.432 248.745 318.091 249.121 317.645 249.138C317.417 249.147 312.305 249.532 308.295 257.329C308.155 257.609 307.866 257.766 307.578 257.766H307.569Z" fill="#F48073"/>
<path d="M270.707 268.816C295.89 268.816 316.306 248.934 316.306 224.408C316.306 199.882 295.89 180 270.707 180C245.523 180 225.107 199.882 225.107 224.408C225.107 248.934 245.523 268.816 270.707 268.816Z" fill="black"/>
<path d="M232.172 219.443C232.172 219.443 227.366 291.693 269.131 291.693C314.31 291.693 309.565 219.443 309.565 219.443C309.565 219.443 309.312 188.567 270.514 188.567C234.956 188.567 232.163 219.443 232.163 219.443H232.172Z" fill="url(#paint10_linear_384_1715)"/>
<path d="M296.217 194.214C296.217 194.214 281.003 215.15 312.946 236.096C312.946 236.096 313.515 201.321 296.217 194.214Z" fill="black"/>
<path d="M270.182 263.099H267.091C266.645 263.099 266.277 262.741 266.277 262.286C266.277 261.831 266.636 261.473 267.091 261.473H270.182C270.462 261.473 270.724 261.359 270.908 261.15C271.092 260.94 271.18 260.669 271.153 260.398L270.435 253.501C270.392 253.055 270.716 252.661 271.162 252.609C271.608 252.565 272.002 252.889 272.055 253.335L272.773 260.232C272.852 260.966 272.606 261.692 272.116 262.242C271.626 262.784 270.917 263.099 270.182 263.099Z" fill="#F48073"/>
<path d="M256.893 246.981C257.31 245.209 256.209 243.435 254.435 243.019C252.661 242.602 250.884 243.701 250.468 245.473C250.051 247.245 251.151 249.019 252.926 249.435C254.7 249.852 256.476 248.753 256.893 246.981Z" fill="black"/>
<path d="M289.898 246.595C290.108 244.787 288.811 243.151 287 242.941C285.19 242.731 283.552 244.027 283.341 245.835C283.131 247.643 284.429 249.279 286.239 249.488C288.05 249.698 289.688 248.403 289.898 246.595Z" fill="black"/>
<path d="M242.213 236.096L262.942 234.103C262.942 234.103 260.964 228.377 252.017 229.304C242.869 230.256 242.213 236.087 242.213 236.087V236.096Z" fill="black"/>
<path d="M297.94 236.096L277.211 234.103C277.211 234.103 279.189 228.377 288.136 229.304C297.284 230.256 297.94 236.087 297.94 236.087V236.096Z" fill="black"/>
<path d="M269.569 271.002C262.749 271.002 259.318 267.601 259.151 267.435C258.819 267.103 258.828 266.561 259.16 266.229C259.493 265.897 260.036 265.905 260.359 266.237C260.535 266.412 264.64 270.407 273.044 268.991C273.508 268.912 273.946 269.227 274.024 269.69C274.103 270.154 273.788 270.591 273.324 270.67C271.967 270.897 270.715 270.993 269.56 270.993L269.569 271.002Z" fill="#F48073"/>
<path d="M228.506 229.05C228.506 229.05 291.394 228.727 301.47 197.641C301.47 197.641 285.853 176.722 256.974 185.315C228.103 193.908 228.506 229.05 228.506 229.05Z" fill="black"/>
<path d="M256.903 785.673C256.29 785.979 249.97 794.904 250.276 799.983C250.635 806.286 251.126 812.134 253.086 815.517C257.262 822.738 274.288 821.628 274.017 818.507C274.288 814.573 268.581 813.76 268.169 810.631C267.443 804.8 268.196 798.453 269.395 794.747C264.309 787.36 256.903 785.664 256.903 785.664V785.673Z" fill="#454545"/>
<path d="M259.556 776.992C257.542 780.725 255.879 784.65 254.575 788.68C254.242 789.703 253.936 790.743 253.936 791.818C253.936 792.719 254.154 793.602 254.408 794.467C256.448 801.53 262.252 813.437 265.998 812.528C267.898 812.064 267.04 802.09 268.441 796.784C269.806 791.626 275.89 781.18 275.076 780.437C271.759 777.403 268.257 774.571 264.598 771.975L259.556 776.992Z" fill="#FECCB2"/>
<path d="M285.231 788.112L287.07 806.426C287.07 806.426 272.836 813.813 269.404 819.32C290.02 814.014 299.982 811.199 299.982 811.199L298.634 789.012L285.231 788.121V788.112Z" fill="#FECCB2"/>
<path d="M286.212 806.977C286.212 806.977 261.788 816.47 266.41 822.17C269.623 826.13 300.664 814.704 300.664 814.704L299.981 811.199C281.467 816.155 279.917 816.339 277.965 814.302C276.013 812.257 286.212 806.977 286.212 806.977Z" fill="#454545"/>
<path d="M343.839 514.652C345.389 521.846 345.818 529.233 345.091 536.559C342.684 561.106 336.565 620.331 330.437 653.786C323.968 692.573 269.352 793.829 269.352 793.829L254.146 787.683C254.146 787.683 269.405 739.665 273.107 712.88C276.81 686.104 283.743 590.058 283.28 571.596C282.816 553.124 289.293 494.485 289.293 494.485L338.263 488.776L343.839 514.643V514.652Z" fill="url(#paint11_linear_384_1715)"/>
<path d="M254.146 787.683L269.965 793.829C269.965 793.829 314.006 713.352 323.171 677.179C321.744 677.153 312.623 673.612 310.382 668.612C298.695 642.605 293.705 594.228 287.114 566.5C285.617 600.47 276.154 690.825 273.107 712.889C269.405 739.665 254.146 787.692 254.146 787.692V787.683Z" fill="#A51207"/>
<path d="M222.247 487.107C215.314 505.578 215.778 510.657 221.319 557.749C226.869 604.841 255.993 715.66 280.504 797.387C299.92 797.85 304.087 796.924 304.087 796.924C304.087 796.924 301.776 778.452 297.154 746.134C292.532 713.816 292.532 665.334 292.532 665.334C292.532 665.334 287.91 604.85 287.446 586.378C289.293 567.907 291.149 494.494 291.149 494.494L222.256 487.107H222.247Z" fill="#C1210D"/>
<path d="M308.026 428.24C306.538 412.05 324.422 363.577 315.975 317.272C307.282 313.207 291.647 311.966 291.647 311.966L269.071 324.65L250.933 313.216L224.986 324.248C224.986 324.248 227.542 356.898 233.679 375.641C239.815 394.383 251.616 412.758 251.309 425.373C251.003 437.987 237.426 454.089 226.728 473.304C239.457 489.878 271.75 509.346 281.23 508.979C290.711 508.62 339.26 489.878 338.262 488.794C326.996 461.293 309.357 442.664 308.035 428.249L308.026 428.24Z" fill="#E1EFFF"/>
<path d="M267.959 315.594L269.07 324.641L271.758 315.48L273.561 322.001L269.018 325.236L264.221 322.246L267.959 315.594Z" fill="#E6E6E6"/>
<path d="M267.959 315.594C267.959 315.594 264.405 327.85 258.364 325.918C252.324 323.986 245.732 315.48 245.732 315.48L252.569 304.833L267.959 315.594Z" fill="white"/>
<path d="M271.758 315.48C271.758 315.48 271.443 326.355 279.05 326.792C286.648 327.229 293.179 313.784 293.179 313.784L284.722 303.713L271.766 315.48H271.758Z" fill="white"/>
<path d="M224.986 324.239C224.986 324.239 208.388 327.718 210.034 374.032C210.034 388.832 200.291 424.14 199.748 434.63C199.205 445.129 221.09 456.161 225.108 429.787C229.126 403.413 234.781 378.403 234.51 368.446C234.239 358.489 230.501 329.615 224.986 324.23V324.239Z" fill="#E1EFFF"/>
<path d="M228.532 435.058C228.532 443.258 220.067 453.136 211.864 453.136C203.662 453.136 197 446.492 197 438.293C197 430.093 203.688 424.201 211.864 423.449C224.986 422.252 228.532 435.058 228.532 435.058Z" fill="#CFDDF1"/>
<path d="M315.974 317.272C315.974 317.272 338.796 321.94 337.176 364.993C337.877 387.844 350.929 414.174 353.178 438.302C353.555 442.314 331.714 438.328 330.103 434.359C322.583 415.818 316.167 383.019 314.547 374.111C312.928 365.212 310.372 331.469 315.965 317.263L315.974 317.272Z" fill="#E1EFFF"/>
<path d="M209.046 429.971C215.725 427.418 224.523 431.448 224.952 441.763C225.381 452.079 223.263 470.358 226.965 475.664C231.404 475.506 238.626 475.104 238.626 475.104L245.06 477.771C245.06 477.771 243.003 480.314 238.433 479.327C233.864 478.339 233.671 480.804 236.288 483.549L237.348 484.362L224.628 497.833C224.628 497.833 218.816 492.081 217.135 489.117C215.454 486.154 214.955 482.946 212.854 476.774C210.753 470.602 187.818 438.057 209.046 429.953V429.971Z" fill="#FECCB2"/>
<path d="M341.44 555.825C341.099 555.843 340.862 555.773 340.748 555.624C340.127 554.846 341.659 552.853 345.222 548.815C346.876 546.944 347.883 544.531 348.487 542.486C348.557 541.996 348.776 538.053 350.413 535.938C352.032 535.938 350.246 550.624 348.793 552.827C345.064 558.483 340.6 559.855 339.978 559.077C339.575 558.57 340.083 557.556 341.44 555.817V555.825Z" fill="#F79480"/>
<path d="M355.883 552.172C355.883 552.172 341.544 564.515 340.695 561.788C340.205 560.205 344.932 555.45 347.996 551.796C349.773 548.107 348.293 543.718 348.293 543.718C348.293 543.718 343.453 554.025 342.288 551.918C341.255 550.039 342.56 544.33 346.157 538.5C347.103 536.961 348.845 537.075 349.44 535.09C350 533.219 350.053 532.057 350.053 532.057C350.053 532.057 350.114 531.261 350.079 530.85C346.49 500.587 334.331 472.569 332.86 463.574C331.013 452.245 329.919 441.938 331.398 438.607C331.398 438.607 349.186 439.971 353.187 447.576C356.864 454.561 357.538 519.451 356.995 531.856C357.109 532.232 357.187 532.669 357.24 533.167C358.387 541.043 355.883 552.18 355.883 552.18V552.172Z" fill="#FECCB2"/>
<path d="M328.002 428.694L329.919 441.929L354.824 448.328L355.944 431.579L328.002 428.694Z" fill="#CFDDF1"/>
<path d="M237.348 484.371L219.568 503.366L240.543 486.941L237.348 484.371Z" fill="url(#paint12_linear_384_1715)"/>
<path d="M281.23 508.97C281.694 508.952 282.271 508.883 282.902 508.778C283.497 474.405 284.189 416.08 282.385 400.354C280.529 384.208 274.594 344.118 271.469 323.304L269.079 324.65L268.887 324.528C272.038 345.543 277.842 384.767 279.672 400.668C281.44 416.063 280.748 474.632 280.162 508.935C280.547 508.97 280.906 508.987 281.23 508.97Z" fill="#B6C7DD"/>
<path style="mix-blend-mode:multiply" d="M246.137 391.253C246.137 391.253 284.855 383.692 311.371 388.526C309.69 404.497 272.862 422.776 246.137 391.253Z" fill="url(#paint13_radial_384_1715)"/>
<path d="M291.98 361.409H310.18C310.18 361.409 308.543 380.405 301.076 378.63C293.609 376.856 291.98 361.409 291.98 361.409Z" fill="#CFDDF1"/>
<path d="M359.001 533.29C359.001 536.026 357.836 538.237 356.392 538.237C354.947 538.237 353.783 536.026 353.783 533.29C353.783 530.553 354.947 528.342 356.392 528.342C357.836 528.342 359.001 530.553 359.001 533.29Z" fill="#303030"/>
<path d="M359 533.29C359 535.772 358.134 537.792 357.074 537.792C356.015 537.792 355.148 535.772 355.148 533.29C355.148 530.807 356.015 528.788 357.074 528.788C358.134 528.788 359 530.807 359 533.29Z" fill="#454545"/>
<path d="M354.414 531.262L350.002 531.821L349.73 533.989L354.256 534.54L354.414 531.262Z" fill="#EDEDED"/>
<path d="M357.556 535.982L356.541 533.132L357.198 531.227L357.513 531.331L356.891 533.124L357.872 535.868L357.556 535.982Z" fill="#7D7D7D"/>
</g>
<defs>
<radialGradient id="paint0_radial_384_1715" cx="0" cy="0" r="1" gradientUnits="userSpaceOnUse" gradientTransform="translate(374.558 827.615) rotate(7.35) scale(181.52 181.52)">
<stop stop-color="#A1B8C0"/>
<stop offset="1" stop-color="#31896A"/>
</radialGradient>
<radialGradient id="paint1_radial_384_1715" cx="0" cy="0" r="1" gradientUnits="userSpaceOnUse" gradientTransform="translate(374.548 827.614) rotate(7.35) scale(181.51 181.51)">
<stop stop-color="#A1B8C0"/>
<stop offset="1" stop-color="#31896A"/>
</radialGradient>
<radialGradient id="paint2_radial_384_1715" cx="0" cy="0" r="1" gradientUnits="userSpaceOnUse" gradientTransform="translate(374.549 827.614) rotate(7.35) scale(181.53 181.53)">
<stop stop-color="#A1B8C0"/>
<stop offset="1" stop-color="#31896A"/>
</radialGradient>
<radialGradient id="paint3_radial_384_1715" cx="0" cy="0" r="1" gradientUnits="userSpaceOnUse" gradientTransform="translate(374.55 827.614) rotate(7.35) scale(181.51 181.51)">
<stop stop-color="#A1B8C0"/>
<stop offset="1" stop-color="#31896A"/>
</radialGradient>
<radialGradient id="paint4_radial_384_1715" cx="0" cy="0" r="1" gradientUnits="userSpaceOnUse" gradientTransform="translate(475.282 336.989) rotate(7.35) scale(258.98 258.98)">
<stop/>
<stop offset="1" stop-color="#808080"/>
</radialGradient>
<radialGradient id="paint5_radial_384_1715" cx="0" cy="0" r="1" gradientUnits="userSpaceOnUse" gradientTransform="translate(121.21 486.19) scale(367.15 367.15)">
<stop stop-color="#ABC35F"/>
<stop offset="0.22" stop-color="#AAC263"/>
<stop offset="0.45" stop-color="#A9C06F"/>
<stop offset="0.67" stop-color="#A7BD83"/>
<stop offset="0.9" stop-color="#A5BAA0"/>
<stop offset="1" stop-color="#A4B8AF"/>
</radialGradient>
<radialGradient id="paint6_radial_384_1715" cx="0" cy="0" r="1" gradientUnits="userSpaceOnUse" gradientTransform="translate(121.21 486.2) scale(367.15 367.15)">
<stop stop-color="#ABC35F"/>
<stop offset="0.22" stop-color="#AAC263"/>
<stop offset="0.45" stop-color="#A9C06F"/>
<stop offset="0.67" stop-color="#A7BD83"/>
<stop offset="0.9" stop-color="#A5BAA0"/>
<stop offset="1" stop-color="#A4B8AF"/>
</radialGradient>
<radialGradient id="paint7_radial_384_1715" cx="0" cy="0" r="1" gradientUnits="userSpaceOnUse" gradientTransform="translate(121.211 486.19) scale(367.15 367.15)">
<stop stop-color="#ABC35F"/>
<stop offset="0.22" stop-color="#AAC263"/>
<stop offset="0.45" stop-color="#A9C06F"/>
<stop offset="0.67" stop-color="#A7BD83"/>
<stop offset="0.9" stop-color="#A5BAA0"/>
<stop offset="1" stop-color="#A4B8AF"/>
</radialGradient>
<radialGradient id="paint8_radial_384_1715" cx="0" cy="0" r="1" gradientUnits="userSpaceOnUse" gradientTransform="translate(142.316 501.893) scale(250.32)">
<stop/>
<stop offset="1" stop-color="#808080"/>
</radialGradient>
<linearGradient id="paint9_linear_384_1715" x1="266.173" y1="334.021" x2="266.173" y2="282.183" gradientUnits="userSpaceOnUse">
<stop stop-color="#F7C3AF"/>
<stop offset="0.77" stop-color="#F07C68"/>
</linearGradient>
<linearGradient id="paint10_linear_384_1715" x1="270.856" y1="249.112" x2="270.856" y2="284.193" gradientUnits="userSpaceOnUse">
<stop offset="0.28" stop-color="#F7C3AF"/>
<stop offset="1" stop-color="#F79480"/>
</linearGradient>
<linearGradient id="paint11_linear_384_1715" x1="303.212" y1="520.806" x2="299.362" y2="676.794" gradientUnits="userSpaceOnUse">
<stop stop-color="#C1210D"/>
<stop offset="0.52" stop-color="#C1210D"/>
<stop offset="1" stop-color="#9D1D06"/>
</linearGradient>
<linearGradient id="paint12_linear_384_1715" x1="226.843" y1="497.903" x2="199.237" y2="525.906" gradientUnits="userSpaceOnUse">
<stop stop-color="#3D3D3D"/>
<stop offset="1" stop-color="#2E2E2E"/>
</linearGradient>
<radialGradient id="paint13_radial_384_1715" cx="0" cy="0" r="1" gradientUnits="userSpaceOnUse" gradientTransform="translate(278.666 375.981) scale(32.6346 32.5893)">
<stop stop-color="#DBDBDB"/>
<stop offset="0.17" stop-color="#E3E3E3"/>
<stop offset="0.67" stop-color="#F7F7F7"/>
<stop offset="1" stop-color="white"/>
</radialGradient>
<clipPath id="clip0_384_1715">
<rect width="162" height="643" fill="white" transform="translate(197 180)"/>
</clipPath>
</defs>
</svg>
