<svg width="232" height="643" viewBox="0 0 232 643" fill="none" xmlns="http://www.w3.org/2000/svg">
<g clip-path="url(#clip0_203_1690)">
<path d="M134.492 131.397C128.678 127.271 100.12 116.363 79.1767 122.101C76.0536 130.64 75.3516 134.55 75.3516 134.55L134.492 144.152V131.397Z" fill="#B8B8B8"/>
<path d="M139.866 142.062C130.056 134.478 112.218 125.794 99.8784 125.596C87.5391 125.398 82.904 125.776 70.3847 134.541C57.8653 143.314 108.798 189.659 108.798 189.659L149.587 175.057L139.866 142.053V142.062Z" fill="#401C00"/>
<path d="M188.214 642.217C188.214 642.217 143.51 641.74 143.51 642.217C143.51 642.695 144.365 640.731 144.365 640.731C144.365 640.731 159.206 628.129 160.934 627.841C162.653 627.553 165.488 630.3 166.613 630.751C167.738 631.201 185.919 638.38 186.783 639.146C187.647 639.911 188.223 642.208 188.223 642.208L188.214 642.217Z" fill="#454545"/>
<path d="M8.30078 642.217C8.30078 642.217 40.5216 641.74 40.5216 642.217C40.5216 642.695 39.8556 640.731 39.8556 640.731C39.8556 640.731 35.9855 633.471 32.4304 631.39C31.2514 630.696 25.2662 630.408 24.3932 630.849C23.5202 631.3 10.0828 638.371 9.41681 639.146C8.75079 639.911 8.30078 642.208 8.30078 642.208V642.217Z" fill="#454545"/>
<path d="M167.586 161.969C174.265 167.104 196.927 186.209 200.059 189.686C203.182 193.163 214.01 213.908 217.106 222.222C220.202 230.536 232.01 255.037 231.668 268.594C231.317 282.151 225.296 300.896 207.898 307.778C190.51 314.66 177.136 293.275 173.491 268.423C169.845 243.57 160.998 156.907 167.595 161.969H167.586Z" fill="#E1EFFF"/>
<path d="M187.224 396.558C187.224 424.662 166.424 539.637 163.022 572.317C159.044 610.456 166.613 630.759 166.613 630.759C166.613 630.759 162.842 629.453 161.762 629.453C160.682 629.453 144.365 640.74 144.365 640.74C144.365 640.74 137.984 578.586 134.762 537.421C132.026 502.435 126.949 460.18 126.949 460.18C126.949 460.18 106.159 497.301 83.1633 545.492C77.6192 557.103 39.8452 640.74 39.8452 640.74L24.3828 630.867C24.3828 630.867 32.6 604.979 35.5341 593.17C55.3616 513.46 58.6737 459.378 59.6817 437.949C60.0057 431.013 63.6598 397.071 63.6598 397.071C69.942 375.552 106.672 380.146 131.207 379.029C167.469 377.38 187.206 372.417 187.215 396.567L187.224 396.558Z" fill="url(#paint0_linear_203_1690)"/>
<path d="M144.509 393.622L140.414 433.994C140.414 433.994 125.861 432.724 138.155 397.081L144.509 393.622Z" fill="url(#paint1_linear_203_1690)"/>
<path d="M81.3456 63.8389C81.3456 63.8389 83.0196 107.058 81.7866 123.362C81.0306 133.388 47.2617 148.638 47.2617 162.375C83.6047 165.095 170.367 187.56 170.367 172.58C170.367 157.6 134.618 148.476 133.043 136.324C131.468 124.164 129.254 102.068 129.254 102.068L96.619 96.7712L81.3546 63.8389H81.3456Z" fill="url(#paint2_linear_203_1690)"/>
<path d="M145.94 150.016L117.877 139.207L70.5898 141.45L143.474 233.437C143.474 233.437 148.19 170.275 145.94 150.016Z" fill="#F7F7F7"/>
<path d="M139.865 142.062C134.519 162.771 110.812 150.656 110.812 150.656L70.3832 134.541C70.3832 134.541 46.9736 150.764 41.3124 155.421C35.6423 160.078 24.662 194.632 36.1373 225.015C47.6126 255.398 60.9959 291.762 63.723 327.172C65.55 350.925 63.669 397.045 63.669 397.045C63.669 397.045 109.327 397.936 144.509 397.549C171.942 397.243 187.224 396.54 187.224 396.54C187.224 396.54 188.088 299.5 182.922 274.062C181.014 261.622 193.92 243.913 189.618 227.645C185.316 211.377 174.255 172.193 167.586 161.961L139.874 142.053L139.865 142.062Z" fill="#E1EFFF"/>
<path d="M63.6687 397.107L63.0566 402.845L187.224 404.17V396.603L63.6687 397.107Z" fill="#707070"/>
<path d="M102.154 396.973H105.808L106.159 407.593H102.082L102.154 396.973Z" fill="url(#paint3_linear_203_1690)"/>
<path d="M171.375 396.621L170.412 405.998H174.057L174.813 396.558L171.375 396.621Z" fill="url(#paint4_linear_203_1690)"/>
<path d="M152.438 395.153H139.262L139.379 405.746L153.005 405.106V403.494L141.728 403.737L140.891 397.342L152.96 396.765L152.438 395.153Z" fill="url(#paint5_linear_203_1690)"/>
<path d="M148.542 399.467L137.58 399.26V400.269L148.542 401.512C148.542 401.512 149.892 400.566 148.542 399.467Z" fill="url(#paint6_linear_203_1690)"/>
<path d="M117.878 139.207L133.575 155.43L130.371 173.193C130.371 173.193 140.559 199.297 145.464 229.257C154.896 286.853 162.907 380.254 162.907 380.713C162.907 381.416 148.839 399.567 148.839 399.567L132.387 381.893C132.387 381.893 137.85 287.952 135.024 229.023C133.611 199.586 126.069 174.166 126.024 174.166C125.88 174.166 105.539 156.889 105.539 156.889L117.887 139.198L117.878 139.207Z" fill="url(#paint7_linear_203_1690)"/>
<path d="M89.4277 215.07C89.4277 215.07 83.2266 216.79 84.7206 229.014C86.2146 241.246 92.4878 243.273 92.4878 243.273C92.4878 243.273 100.705 237.301 98.3559 227.167C96.0159 217.034 89.4277 215.07 89.4277 215.07Z" fill="#ADADAD"/>
<path d="M89.5813 216.304C89.5813 216.304 85.4502 215.854 83.6951 215.764C81.9401 215.673 72.0488 220.258 72.0488 220.258C72.0488 220.258 72.4898 244.174 85.7832 246.903C86.9802 245.552 88.4653 243.273 89.4373 241.589C91.3813 241.418 92.1194 240.958 92.1194 240.958C92.1194 240.958 97.6545 224.492 89.5633 216.304H89.5813Z" fill="url(#paint8_linear_203_1690)"/>
<path d="M41.3131 155.43C33.4649 161.078 1.66705 188.524 0.695024 193.623C-0.277001 198.721 21.7646 304.328 49.0083 312.065C76.252 319.803 89.6713 300.139 91.6604 286.609C95.0805 263.379 87.0163 239.355 80.2481 222.168C69.3938 194.604 41.3041 155.43 41.3041 155.43H41.3131Z" fill="#E1EFFF"/>
<path d="M190.5 252.2C190.5 252.2 190.491 234.626 176.676 231.266C163.895 232.428 98.7246 240.814 87.7713 244.489C70.3829 250.317 50.6813 256.407 44.3992 273.927C36.218 296.743 44.8672 312.3 56.5765 313.588C69.0508 314.957 102.361 313.768 137.516 300.392C172.671 287.015 190.509 252.218 190.509 252.218L190.5 252.2Z" fill="#E1EFFF"/>
<path d="M178.207 233.914C178.09 233.572 184.202 220.295 184.661 219.493C185.12 218.682 192.239 212.395 192.239 212.395L205.595 210.593C205.595 210.593 207.098 212.494 206.765 215.205C206.711 215.638 195.884 218.232 195.866 218.691C203.426 218.619 211.409 219.484 211.409 219.484C211.409 219.484 214.226 223.042 213.875 225.582C215 227.897 214.802 230.717 213.875 233.122L211.625 232.905C211.625 232.905 212.066 236.121 209.987 238.472C205.955 237.445 201.392 236.77 201.392 236.77C201.392 236.77 195.785 238.941 194.372 239.382C193.04 240.202 192.671 248.444 189.476 249.813C183.473 249.255 178.189 233.905 178.189 233.905L178.207 233.914Z" fill="url(#paint9_linear_203_1690)"/>
<path d="M208.007 242.625C173.752 220.691 131.685 215.763 89.4199 215.07C93.974 217.043 99.9502 228.239 92.48 243.273C138.183 270.134 158.686 311.128 200.834 309.084C234.783 307.435 228.159 255.524 208.016 242.625H208.007Z" fill="#EEF7FF"/>
<path d="M91.13 216.142L86.9629 215.764C86.9629 215.764 90.626 219.304 90.923 228.194C91.166 235.374 89.438 241.589 89.438 241.589L92.84 242.526C92.84 242.526 95.8281 236.77 96.1431 229.744C96.5481 220.835 91.13 216.142 91.13 216.142Z" fill="#C2D8F0"/>
<path d="M117.879 139.207L134.997 156.898L146.554 147.07L134.493 131.397L117.879 139.207Z" fill="#CFDDF1"/>
<path d="M117.877 139.207C117.877 139.207 110.137 151.854 105.529 159.114C74.5502 144.738 65.793 135.874 65.793 135.874L79.1853 122.101C79.1853 122.101 92.2446 131.523 117.877 139.207Z" fill="#CFDDF1"/>
<path d="M81.1846 309.769L84.4606 307.859C85.4777 309.607 86.0357 310.615 87.1337 312.687L83.0476 313.138C81.9766 311.12 82.1836 311.489 81.1846 309.778V309.769ZM74.2724 299.257L77.3055 296.978C78.5655 298.662 79.8255 300.455 81.0496 302.319L77.8815 304.4C76.7024 302.608 75.4874 300.878 74.2814 299.257H74.2724ZM66.0462 289.862L68.6832 287.123C70.2133 288.6 71.7343 290.204 73.2013 291.879L70.3393 294.374C68.9442 292.771 67.5042 291.258 66.0462 289.853V289.862ZM56.3169 282.241L58.306 279.007C60.142 280.133 61.9601 281.412 63.7241 282.799L61.375 285.781C59.728 284.484 58.027 283.295 56.3169 282.241ZM45.1476 277.242L46.2097 273.594C48.3157 274.206 50.4128 274.981 52.4468 275.891L50.8898 279.35C49.0177 278.512 47.0827 277.791 45.1476 277.233V277.242ZM21.675 272.99C23.8621 272.468 24.3391 272.378 26.4631 272.116L26.9222 275.882C24.9421 276.125 24.9421 276.008 22.89 276.494L21.666 272.981L21.675 272.99ZM33.0603 275.512L33.0783 271.711C35.3104 271.711 37.5424 271.882 39.7025 272.188L39.1715 275.945C37.1734 275.656 35.1214 275.512 33.0603 275.503V275.512Z" fill="#C2D8F0"/>
<path d="M191.141 304.877L194.93 304.661C195.038 306.616 195.092 307.057 195.425 309.147L191.573 308.813C191.222 306.597 191.258 306.949 191.141 304.868V304.877ZM191.177 298.31C191.339 296.04 191.672 293.843 192.167 291.771L195.857 292.644C195.416 294.518 195.11 296.518 194.966 298.581L191.186 298.31H191.177ZM194.309 285.447C195.236 283.403 196.379 281.457 197.711 279.664L200.753 281.925C199.583 283.502 198.584 285.204 197.765 287.015L194.309 285.447ZM202.238 274.737C203.849 273.305 205.658 271.981 207.602 270.801L209.564 274.053C207.809 275.115 206.189 276.304 204.749 277.584L202.238 274.737ZM213.497 267.828C215.441 267.017 217.529 266.297 219.689 265.684L220.715 269.341C218.699 269.909 216.764 270.585 214.955 271.332L213.497 267.828ZM226.044 264.234C228.114 263.865 229.131 263.73 231.336 263.522L231.678 267.306C229.59 267.504 228.681 267.621 226.719 267.972L226.053 264.234H226.044Z" fill="#C2D8F0"/>
<path d="M75.3516 68.2347C75.3516 68.2347 68.1514 62.6409 62.8413 69.2886C57.0271 76.5669 68.8624 97.7891 81.0757 88.34L75.3516 68.2347Z" fill="#FFC2B3"/>
<path d="M76.6481 84.6287C76.3511 84.6287 76.0631 84.4666 75.9191 84.1784C71.815 76.1795 66.4959 75.8552 66.4419 75.8552C65.9919 75.8372 65.6409 75.4498 65.6589 74.9995C65.6769 74.5491 66.0549 74.1888 66.5139 74.2158C66.7659 74.2248 72.8501 74.5851 77.3862 83.4307C77.5932 83.8361 77.4312 84.3315 77.0262 84.5387C76.9092 84.6017 76.7742 84.6287 76.6481 84.6287Z" fill="#F48073"/>
<path d="M153.023 68.2347C153.023 68.2347 160.223 62.6409 165.533 69.2886C171.347 76.5669 159.512 97.7891 147.299 88.34L153.023 68.2347Z" fill="#FFC2B3"/>
<path d="M151.728 84.629C151.602 84.629 151.476 84.602 151.35 84.5389C150.945 84.3317 150.783 83.8363 150.99 83.431C155.527 74.5854 161.602 74.2251 161.863 74.2161C162.313 74.171 162.7 74.5493 162.718 74.9997C162.736 75.4501 162.385 75.8374 161.935 75.8555C161.701 75.8645 156.517 76.2518 152.458 84.1786C152.314 84.4669 152.026 84.629 151.728 84.629Z" fill="#F48073"/>
<path d="M114.349 95.8616C139.884 95.8616 160.584 75.6568 160.584 50.7328C160.584 25.8089 139.884 5.604 114.349 5.604C88.815 5.604 68.1152 25.8089 68.1152 50.7328C68.1152 75.6568 88.815 95.8616 114.349 95.8616Z" fill="black"/>
<path d="M75.2798 45.6884C75.2798 45.6884 68.0617 119.057 112.757 119.102C161.907 119.156 153.762 45.6884 153.762 45.6884C153.762 45.6884 153.501 14.3145 114.17 14.3145C78.1149 14.3145 75.2798 45.6884 75.2798 45.6884Z" fill="url(#paint10_linear_203_1690)"/>
<path d="M113.818 87.7003H110.686C110.236 87.7003 109.867 87.331 109.867 86.8806C109.867 86.4302 110.236 86.0609 110.686 86.0609H113.818C114.106 86.0609 114.367 85.9438 114.556 85.7366C114.745 85.5294 114.835 85.2502 114.808 84.9709L114.079 74.4139C114.052 73.9635 114.385 73.5671 114.844 73.5401C115.312 73.5131 115.69 73.8464 115.717 74.3058L116.446 84.8358C116.518 85.5474 116.275 86.2951 115.78 86.8446C115.285 87.394 114.565 87.7183 113.818 87.7183V87.7003Z" fill="#F48073"/>
<path d="M100.426 70.5499C100.426 72.3965 98.9322 73.8918 97.0871 73.8918C95.2421 73.8918 93.748 72.3965 93.748 70.5499C93.748 68.7033 95.2421 67.208 97.0871 67.208C98.9322 67.208 100.426 68.7033 100.426 70.5499Z" fill="#2B232A"/>
<path d="M133.836 70.5499C133.836 72.3965 132.342 73.8918 130.497 73.8918C128.652 73.8918 127.158 72.3965 127.158 70.5499C127.158 68.7033 128.652 67.208 130.497 67.208C132.342 67.208 133.836 68.7033 133.836 70.5499Z" fill="#2B232A"/>
<path d="M113.197 95.6995C106.294 95.6995 102.838 92.2586 102.667 92.0874C102.352 91.7631 102.352 91.2407 102.676 90.9254C103 90.6101 103.522 90.6101 103.837 90.9254C104.008 91.0966 108.184 95.1771 116.734 93.7358C117.175 93.6548 117.607 93.961 117.679 94.4114C117.751 94.8618 117.454 95.2852 117.004 95.3572C115.636 95.5914 114.358 95.6905 113.188 95.6905L113.197 95.6995Z" fill="#F48073"/>
<path d="M85.9362 60.4433C89.0323 59.4344 97.6815 58.3535 104.684 58.4075C105.512 58.4075 105.98 57.5338 105.476 56.9303C103.955 55.1017 99.3375 51.3995 92.6144 52.8678C92.6144 52.8678 87.6732 54.3451 84.3971 58.5246C84.1811 58.8039 84.1001 59.1552 84.1721 59.4885C84.3251 60.2361 85.1622 60.6955 85.9362 60.4343V60.4433Z" fill="#2B232A"/>
<path d="M140.64 60.4433C137.544 59.4344 128.895 58.3535 121.893 58.4075C121.065 58.4075 120.597 57.5338 121.101 56.9303C122.622 55.1017 127.239 51.3995 133.962 52.8678C133.962 52.8678 138.903 54.3451 142.179 58.5246C142.395 58.8039 142.476 59.1552 142.404 59.4885C142.251 60.2361 141.414 60.6955 140.64 60.4343V60.4433Z" fill="#2B232A"/>
<path d="M72.4993 57.7676L79.8975 46.1025C79.8975 46.1025 80.4105 30.9065 87.7187 18.3677C87.7187 18.3677 68.3232 31.9874 72.4993 57.7676Z" fill="black"/>
<path d="M155.139 57.7676L147.741 46.1025C147.741 46.1025 147.228 30.9065 139.92 18.3677C139.92 18.3677 159.315 31.9874 155.139 57.7676Z" fill="black"/>
<path d="M76.8633 27.7449C76.8633 27.7449 126.266 56.2184 154.589 19.9532C154.589 19.9532 108.112 -29.076 76.8633 27.7449Z" fill="black"/>
</g>
<defs>
<linearGradient id="paint0_linear_203_1690" x1="103.351" y1="417.987" x2="107.75" y2="588.747" gradientUnits="userSpaceOnUse">
<stop stop-color="#454545"/>
<stop offset="1" stop-color="#2E2E2E"/>
</linearGradient>
<linearGradient id="paint1_linear_203_1690" x1="133.223" y1="413.808" x2="144.509" y2="413.808" gradientUnits="userSpaceOnUse">
<stop stop-color="#3D3D3D"/>
<stop offset="1" stop-color="#262626"/>
</linearGradient>
<linearGradient id="paint2_linear_203_1690" x1="136.589" y1="81.8994" x2="104.193" y2="180.996" gradientUnits="userSpaceOnUse">
<stop stop-color="#F7C3AF"/>
<stop offset="1" stop-color="#F79480"/>
</linearGradient>
<linearGradient id="paint3_linear_203_1690" x1="102.082" y1="402.287" x2="106.159" y2="402.287" gradientUnits="userSpaceOnUse">
<stop stop-color="#3D3D3D"/>
<stop offset="1" stop-color="#262626"/>
</linearGradient>
<linearGradient id="paint4_linear_203_1690" x1="170.412" y1="401.278" x2="174.813" y2="401.278" gradientUnits="userSpaceOnUse">
<stop stop-color="#3D3D3D"/>
<stop offset="1" stop-color="#262626"/>
</linearGradient>
<linearGradient id="paint5_linear_203_1690" x1="139.262" y1="400.449" x2="153.005" y2="400.449" gradientUnits="userSpaceOnUse">
<stop stop-color="#3D3D3D"/>
<stop offset="1" stop-color="#262626"/>
</linearGradient>
<linearGradient id="paint6_linear_203_1690" x1="137.589" y1="400.386" x2="149.145" y2="400.386" gradientUnits="userSpaceOnUse">
<stop stop-color="#3D3D3D"/>
<stop offset="1" stop-color="#262626"/>
</linearGradient>
<linearGradient id="paint7_linear_203_1690" x1="100.562" y1="145.422" x2="118.356" y2="212.955" gradientUnits="userSpaceOnUse">
<stop stop-color="#C1210D"/>
<stop offset="0.52" stop-color="#C1210D"/>
<stop offset="1" stop-color="#9D1D06"/>
</linearGradient>
<linearGradient id="paint8_linear_203_1690" x1="75.5049" y1="236.049" x2="84.051" y2="229.876" gradientUnits="userSpaceOnUse">
<stop stop-color="#F7B59C"/>
<stop offset="1" stop-color="#F79480"/>
</linearGradient>
<linearGradient id="paint9_linear_203_1690" x1="199.547" y1="226.825" x2="192.692" y2="233.233" gradientUnits="userSpaceOnUse">
<stop stop-color="#F7B59C"/>
<stop offset="1" stop-color="#F79480"/>
</linearGradient>
<linearGradient id="paint10_linear_203_1690" x1="114.557" y1="80.3592" x2="114.557" y2="125.632" gradientUnits="userSpaceOnUse">
<stop stop-color="#F7C3AF"/>
<stop offset="1" stop-color="#F79480"/>
</linearGradient>
<clipPath id="clip0_203_1690">
<rect width="231" height="642" fill="white" transform="translate(0.667969 0.29834)"/>
</clipPath>
</defs>
</svg>
