<svg width="605" height="636" viewBox="0 0 605 636" fill="none" xmlns="http://www.w3.org/2000/svg">
<path fill-rule="evenodd" clip-rule="evenodd" d="M302.5 595C469.571 595 605 604.183 605 615.5C605 626.817 469.571 636 302.5 636C135.429 636 0 626.828 0 615.5C0 604.172 135.429 595 302.5 595Z" fill="#E2E2F2"/>
<g clip-path="url(#clip0_829_1472)">
<path d="M-24.1793 384.568C-28.2306 342.299 -12.864 331.08 -4.56355 312.491C18.4063 280.847 48.9229 243.886 55.7629 232.817C24.8601 202.529 7.10981 196.75 7.10981 196.75C7.10981 196.75 -66.2279 288.443 -40.5635 374.281C-40.5164 374.432 -31.792 382.912 -24.1887 384.578L-24.1793 384.568Z" fill="url(#paint0_linear_829_1472)"/>
<path d="M169.058 607.249V611.644C169.058 611.644 169.369 611.644 174.089 613.527C178.809 615.409 195.787 618.864 198.613 615.729C201.44 612.586 192.988 611.663 190.529 610.543C187.976 609.386 184.754 605.169 183.812 603.597C180.034 604.228 169.058 607.24 169.058 607.24V607.249Z" fill="#454545"/>
<path d="M108.382 603.757L108.58 611.39C108.58 611.39 108.269 611.39 103.549 613.273C98.8287 615.155 81.851 618.61 79.0245 615.475C76.198 612.332 84.6492 611.409 87.1082 610.289C89.6615 609.132 92.8837 604.915 93.8258 603.343C97.6039 603.974 108.382 603.757 108.382 603.757Z" fill="#454545"/>
<path d="M229.45 387.656C227.33 387.985 222.487 422.443 221.969 425.05C219.369 438.02 208.496 516.234 207.658 521.59C206.979 525.938 190.491 580.396 185.507 603.823C179.025 608.623 169.142 609.019 169.142 609.019C169.142 609.019 167.606 519.971 149.225 462.501C143.741 461.409 130.391 454.66 119.311 463.781C109.343 471.997 102.965 528.856 108.74 605.48C105.961 611.588 93.1663 612.143 88.7194 609.367C73.7013 582.693 31.4266 467.113 39.7742 377.086C171.554 396.531 229.403 387.656 229.459 387.646L229.45 387.656Z" fill="#398DA5"/>
<path d="M73.8523 554.908C70.3192 553.996 66.9557 550.654 63.9502 546.362C73.2964 576.076 82.9913 599.202 88.7196 609.376C93.1666 612.153 105.961 611.597 108.74 605.489C105.179 558.24 106.234 518.521 109.909 493.071C105.283 513.091 92.4223 559.69 73.8523 554.899V554.908Z" fill="#347F91"/>
<path d="M190.736 527.086C170.574 517.015 149.225 462.51 149.225 462.51C167.606 519.98 169.142 609.028 169.142 609.028C169.142 609.028 179.025 608.633 185.507 603.833C190.491 580.406 206.979 525.947 207.657 521.599C207.676 521.496 207.695 521.354 207.714 521.194C203.823 527.388 198.33 531.105 190.736 527.086Z" fill="#347F91"/>
<path d="M70.4697 133.586C79.6464 128.164 109.965 107.194 142.083 109.274C174.201 111.354 198.66 125.181 198.66 125.181C189.483 204.365 175.718 257.703 162.783 272.292C101.043 228.121 70.4697 133.586 70.4697 133.586Z" fill="#CFDDF1"/>
<path d="M290.596 246.333C279.573 219.49 259.533 168.307 211.643 134.235C205.255 151.685 203.785 169.229 210.041 186.623C211.794 191.508 214.083 196.176 216.241 200.901C225.21 220.506 232.012 241.1 236.478 262.183C236.685 263.181 237.034 264.339 238.004 264.659C238.579 264.847 239.201 264.659 239.776 264.489C243.064 263.482 246.399 262.616 249.772 261.901C249.376 258.635 248.886 257.167 248.886 257.167C248.886 257.167 276.416 245.919 290.605 246.333H290.596Z" fill="#B5BBC0"/>
<path d="M290.596 246.333C279.572 219.49 259.335 167.912 211.445 133.84C205.057 151.29 203.785 169.229 210.032 186.623C211.784 191.508 214.074 196.176 216.231 200.901C225.2 220.506 232.003 241.1 236.469 262.183C236.676 263.181 237.025 264.339 237.995 264.659C238.57 264.847 239.192 264.659 239.766 264.489C243.054 263.482 246.39 262.616 249.763 261.901C249.367 258.635 248.877 257.166 248.877 257.166C248.877 257.166 276.407 245.919 290.596 246.333Z" fill="#CFDDF1"/>
<path d="M58.862 225.702C60.7652 186.209 44.268 161.201 40.0942 156.109C16.2481 175.15 0.853256 194.529 -18.1689 236.121L34.3941 259.877L30.6349 274.042C30.6349 274.042 30.5784 275.209 30.503 277.318C40.5087 277.788 56.7516 269.572 58.8714 225.692L58.862 225.702Z" fill="#BCC5D1"/>
<path d="M58.862 225.702C60.7652 186.209 44.268 161.201 40.0942 156.109C16.2481 175.15 0.853256 194.529 -18.1689 236.121L34.3941 259.877L30.6349 274.042C30.6349 274.042 30.5784 275.209 30.503 277.318C40.5087 277.788 56.7516 269.572 58.8714 225.692L58.862 225.702Z" fill="#CFDDF1"/>
<path d="M248.915 169.625C234.104 150.697 214.762 132.776 189.163 120.126C187.59 149.671 192.15 205.099 170.273 234.022C173.099 253.656 93.9202 162.782 81.0691 126.696C67.3042 134.47 50.3359 146.085 33.3487 162.707C88.4651 261.534 30.9085 274.052 30.9085 274.052C30.9085 274.052 23.6351 319.493 39.4445 422.189C82.1432 429.295 120.178 431.158 139.785 431.582C159.391 431.996 216.128 426.998 221.545 423.666C231.975 393.246 238.645 345.32 246.154 308.641C253.663 271.972 249.075 258.211 249.075 258.211C249.075 258.211 245.24 213.626 248.896 169.625H248.915Z" fill="url(#paint1_linear_829_1472)"/>
<path d="M29.2217 164.73C29.2217 164.73 51.353 184.035 50.5239 232.375C50.213 250.409 45.7001 270.466 30.6349 274.052C30.3146 290.137 30.0319 292.085 30.0319 292.085C30.0319 292.085 58.8055 290.636 65.9565 243.208C70.3752 213.871 61.7168 167.385 44.7485 152.109C35.7132 159.168 29.2217 164.73 29.2217 164.73Z" fill="#E23023"/>
<path d="M170.273 243.942C196.766 196.797 199.244 164.542 192.772 121.934C186.996 118.658 186.139 119.223 179.817 116.851C182.907 141.04 186.252 174.152 164.497 217.485C146.333 196.901 116.296 179.62 91.1502 121.623C86.1191 124.127 84.6587 124.343 78.4688 128.183C87.5229 155.855 121.883 214.483 170.273 243.942Z" fill="#E23023"/>
<path d="M36.5518 404.541C37.607 412.701 37.8708 415.073 39.4536 422.97C82.0015 429.219 120.187 432.74 139.794 433.238C182.728 434.33 216.504 428.871 221.931 425.539C223.439 418.828 225.153 411.873 227.028 404.353C172.336 421.765 72.0429 409.802 36.5518 404.541Z" fill="#E23023"/>
<path d="M125.737 141.727C110.314 134.358 91.4233 123.195 86.3074 98.4975C86.3074 98.4975 68.9716 91.589 68.1614 80.2004C67.3511 68.8212 74.2854 70.3836 74.2854 70.3836C74.2854 70.3836 61.7453 50.27 68.5194 43.0697C75.2841 35.8789 77.1308 43.2956 77.1308 43.2956C77.1308 43.2956 76.0567 34.1094 79.2035 29.3657C81.0407 26.608 85.3841 27.8692 85.3841 27.8692C85.3841 27.8692 76.5278 22.6078 84.4231 17.9112C92.3278 13.224 104.048 11.7745 104.048 11.7745C104.048 11.7745 96.7277 6.60728 113.611 1.58122C130.495 -3.44483 129.6 5.11076 129.6 5.11076C129.6 5.11076 141.037 0.489422 145.635 0.75296C150.242 1.03532 151.872 17.77 151.872 17.77C151.872 17.77 156.819 13.3369 163.225 22.8902C169.623 32.4529 176.491 58.1008 165.618 69.0753C154.746 80.0404 125.746 141.718 125.746 141.718L125.737 141.727Z" fill="#707070"/>
<path d="M87.0517 41.4697C81.2009 44.3309 79.081 34.7212 79.5521 28.9986C79.439 29.1304 79.3071 29.2151 79.2035 29.3657C76.0473 34.1094 77.1308 43.2956 77.1308 43.2956C77.1308 43.2956 75.2841 35.8789 68.5194 43.0697C61.7453 50.27 74.2854 70.3836 74.2854 70.3836C74.2854 70.3836 67.3511 68.8212 68.1614 80.2004C68.9716 91.589 86.3074 98.4975 86.3074 98.4975C91.4327 123.195 110.314 134.358 125.737 141.727C125.737 141.727 139.521 112.427 151.646 90.6102C116.758 16.7723 108.599 30.9564 87.0517 41.4697Z" fill="#707070"/>
<path d="M190.698 141.727C190.698 141.727 192.799 114.432 185.705 91.7961C183.943 86.2147 174.295 81.584 173.41 75.692C172.534 69.8 176.651 66.5246 175.935 60.6139C174.644 49.7147 141.254 22.4572 129.42 22.3725C119.132 22.3255 99.1488 42.5332 99.3373 54.2889C100.289 112.117 116.626 132.823 124.408 139.017C129.053 142.706 145.522 156.297 190.689 141.718L190.698 141.727Z" fill="url(#paint2_linear_829_1472)"/>
<path d="M122.939 108.145C116.419 102.893 102.287 85.8288 104.096 41.7803C101.185 46.251 99.3096 50.7594 99.385 54.4678C100.544 113.124 110.983 139.845 118.803 146.141C123.467 149.897 158.553 168.222 203.71 153.586C203.71 153.586 192.461 125.275 189.135 106.14C147.774 118.188 127.433 111.75 122.948 108.145H122.939Z" fill="#707070"/>
<path d="M111.595 119.223C104.228 126.103 84.4895 121.623 84.7815 108.587C85.0548 95.5515 92.4319 98.8646 99.6959 101.735C106.941 104.606 111.595 119.223 111.595 119.223Z" fill="url(#paint3_linear_829_1472)"/>
<path d="M111.416 126.687C111.416 126.687 129.072 134.903 131.804 123.6C134.536 112.277 117.794 104.192 114.666 97.1798C102.173 69.1883 110.53 33.8176 97.5472 38.3543C84.5736 42.8909 95.8984 96.6339 95.8984 96.6339C95.8984 96.6339 105.546 109.114 111.406 126.687H111.416Z" fill="#707070"/>
<path d="M142.074 125.849C157.497 118.404 156.216 111.1 161.812 105.321C168.276 98.6669 182.238 96.201 186.883 99.7023C191.528 103.204 200.837 116.7 206 113.594C206 113.594 190.529 118.733 181.042 113.162C171.554 107.59 166.646 129.162 142.074 125.849Z" fill="#545454"/>
<path d="M176.067 57.5737C176.114 56.369 175.606 55.2207 174.663 54.4113C173.731 53.6112 172.449 53.2253 171.149 53.3665L160.437 54.5242C160.013 54.5619 159.627 54.7972 159.419 55.136C159.193 55.4748 159.155 55.8796 159.316 56.2466L160.955 59.9738C161.501 61.2162 162.886 61.9504 164.356 61.7621L173.382 60.6044C174.852 60.4162 175.982 59.2585 176.048 57.8843V57.5737H176.067Z" fill="#707070"/>
<path d="M126.161 68.5106C125.426 67.4847 125.511 66.2046 126.396 64.9811C127.282 63.7669 128.884 62.7316 130.787 62.1574L146.596 57.3196C147.218 57.1314 147.868 57.122 148.377 57.3008C148.886 57.4796 149.159 57.809 149.131 58.2232L148.848 62.3739C148.754 63.7669 147.209 65.1693 145.023 65.7999L131.607 69.7059C129.421 70.3459 127.188 69.9412 126.349 68.7835L126.161 68.5106Z" fill="#707070"/>
<path d="M171.554 74.3837C171.045 70.8354 168.935 68.2188 166.843 68.5388C164.751 68.8588 163.451 71.9931 163.951 75.532C164.469 79.0804 166.57 81.6969 168.661 81.3863C170.753 81.0663 172.053 77.9321 171.554 74.3837Z" fill="#2B232A"/>
<path d="M147.614 80.2663C147.322 76.6803 145.381 73.9602 143.27 74.1767C141.16 74.3931 139.69 77.4615 139.982 81.0287C140.274 84.6053 142.215 87.3254 144.326 87.1089C146.436 86.9018 147.906 83.8429 147.614 80.2663Z" fill="#2B232A"/>
<path d="M101.363 116.804C101.014 116.804 100.685 116.616 100.515 116.286C95.7571 107.025 89.5859 106.658 89.52 106.648C88.9924 106.63 88.5873 106.178 88.6061 105.66C88.6249 105.133 89.0678 104.719 89.5954 104.747C89.8969 104.757 96.9442 105.171 102.201 115.411C102.437 115.882 102.258 116.456 101.787 116.691C101.646 116.766 101.495 116.795 101.354 116.795L101.363 116.804Z" fill="#F48073"/>
<path d="M168.624 96.8316L165.402 98.5257C164.941 98.7705 164.356 98.5916 164.111 98.1304C163.867 97.6692 164.046 97.0857 164.507 96.841L167.729 95.1468C168.021 94.9962 168.229 94.7327 168.304 94.4127C168.389 94.0926 168.332 93.7632 168.144 93.4903L161.681 83.0711C161.407 82.6193 161.539 82.0358 161.992 81.7628C162.463 81.4805 163.028 81.6216 163.301 82.0734L169.746 92.4644C170.207 93.1514 170.358 94.0456 170.151 94.8833C169.934 95.7209 169.378 96.4363 168.615 96.8316H168.624Z" fill="#F48073"/>
<path d="M181.164 119.552C174.088 123.28 168.671 121.632 168.407 121.548C167.908 121.388 167.625 120.851 167.785 120.352C167.945 119.854 168.482 119.581 168.982 119.731C169.255 119.816 175.737 121.736 183.736 115.637C184.15 115.317 184.753 115.392 185.074 115.816C185.394 116.239 185.309 116.832 184.895 117.152C183.613 118.131 182.36 118.922 181.164 119.552Z" fill="#F48073"/>
<path d="M173.646 94.7044L193.394 90.7137L192.583 78.4403L175.389 82.497L175.351 82.3181L162.481 85.2265L162.528 85.4335L139.238 90.4784L95.4561 99.6646L99.6864 101.745L139.69 92.4644L141.942 102.328L163.292 97.048L163.979 86.5065L170.254 85.0947L173.627 94.7138L173.646 94.7044ZM190.916 80.191L191.556 89.7443L174.842 93.1514L171.686 84.7653L175.709 83.8617L175.69 83.777L190.925 80.191H190.916ZM161.624 96.1351L143.553 100.578L141.443 91.3631L162.462 86.8077L161.615 96.1445L161.624 96.1351Z" fill="#2B232A"/>
</g>
<defs>
<linearGradient id="paint0_linear_829_1472" x1="-45.9997" y1="290.655" x2="55.7724" y2="290.655" gradientUnits="userSpaceOnUse">
<stop stop-color="#F7B59C"/>
<stop offset="1" stop-color="#F79480"/>
</linearGradient>
<linearGradient id="paint1_linear_829_1472" x1="111.322" y1="108.051" x2="168.145" y2="433.54" gradientUnits="userSpaceOnUse">
<stop stop-color="#C1210D"/>
<stop offset="0.52" stop-color="#C1210D"/>
<stop offset="1" stop-color="#9D1D06"/>
</linearGradient>
<linearGradient id="paint2_linear_829_1472" x1="99.3373" y1="85.3488" x2="190.991" y2="85.3488" gradientUnits="userSpaceOnUse">
<stop stop-color="#F7C3AF"/>
<stop offset="1" stop-color="#F79480"/>
</linearGradient>
<linearGradient id="paint3_linear_829_1472" x1="84.7721" y1="110.78" x2="111.595" y2="110.78" gradientUnits="userSpaceOnUse">
<stop stop-color="#F7C3AF"/>
<stop offset="1" stop-color="#F79480"/>
</linearGradient>
<clipPath id="clip0_829_1472">
<rect width="345" height="617" fill="white" transform="translate(-46)"/>
</clipPath>
</defs>
</svg>
