<svg width="202" height="616" viewBox="0 0 202 616" fill="none" xmlns="http://www.w3.org/2000/svg">
<g clip-path="url(#clip0_203_4094)">
<path d="M145.586 76.3605C138.062 63.0812 135.548 49.4695 135.686 44.0026C135.714 43.5594 135.723 43.1161 135.733 42.6729C135.77 41.9156 135.816 41.5001 135.816 41.5001H135.76C135.76 18.5799 117.625 0 95.255 0C72.8856 0 54.7497 18.5799 54.7497 41.5001C54.7497 42.6636 54.8051 43.8087 54.8976 44.9538C54.9345 50.9286 52.0968 63.7923 44.9792 76.3605C36.1238 91.9946 35.181 108.497 52.7623 115.146C52.7623 115.146 52.8547 115.183 52.9749 115.219C54.6295 115.829 56.432 116.365 58.4194 116.799C58.8815 116.9 59.3345 116.974 59.7874 117.057C71.6469 119.846 101.005 124.011 128.828 117.399C129.928 117.233 131.028 117.039 132.155 116.789C135.271 116.115 137.951 115.192 140.262 114.084C140.281 114.084 140.299 114.074 140.318 114.065C155.283 106.835 154.007 91.1912 145.596 76.342L145.586 76.3605Z" fill="black"/>
<path d="M199.726 201.304C197.591 205.044 189.956 205.552 182.625 199.199C168.464 186.935 139.486 149.341 133.181 140.448C123.624 126.947 116.654 102.291 126.35 102.042C136.047 101.792 206.594 189.262 199.726 201.304Z" fill="#69B75C"/>
<path d="M184.419 198.755C170.257 186.492 141.279 148.898 134.975 140.005C126.129 127.492 122.838 128.194 132.368 141.658C138.663 150.551 168.455 186.935 182.616 199.208C188.005 203.871 193.551 204.822 196.962 203.52C193.57 203.973 188.939 202.671 184.419 198.755Z" fill="#62A355"/>
<path d="M54.8149 233.376C58.6787 236.238 66.5081 236.017 70.7139 226.487C77.7298 210.594 82.1574 179.492 83.849 170.119C86.5481 155.131 86.5481 119.763 77.5541 123.06C72.3777 124.953 64.8812 157.495 59.0208 187.212C54.6948 209.163 46.7176 227.373 54.8242 233.366L54.8149 233.376Z" fill="#69B75C"/>
<path d="M80.8909 123.891C81.4362 134.695 76.38 148.372 73.4128 165.492C67.9961 196.807 62.5239 223.255 56.3954 222.193C54.6021 221.888 53.2895 219.404 52.4576 215.267C50.7475 223.809 50.5997 230.254 54.8055 233.376C58.6693 236.238 66.4986 236.017 70.7044 226.487C77.7203 210.594 82.148 179.492 83.8396 170.119C86.1505 157.292 86.4832 129.552 80.8816 123.891H80.8909Z" fill="#62A355"/>
<path d="M198.108 206.632C202.998 200.26 203.312 191.839 198.82 187.822C194.318 183.805 186.72 185.707 181.83 192.069C176.94 198.441 176.626 206.863 181.118 210.88C185.62 214.897 193.227 212.995 198.108 206.623V206.632Z" fill="url(#paint0_linear_203_4094)"/>
<path d="M67.9217 220.447C66.2209 212.986 60.4806 207.916 55.1101 209.144C49.7396 210.372 46.7631 217.409 48.4639 224.88C50.1648 232.341 55.905 237.402 61.2755 236.183C66.6461 234.955 69.6225 227.918 67.9217 220.456V220.447Z" fill="url(#paint1_linear_203_4094)"/>
<path d="M62.209 212.459C55.3502 204.813 26.7598 155.113 19.1246 141.778C19.6885 139.746 18.3389 135.933 19.9381 129.635C19.9935 128.434 20.1691 126.541 20.3078 124.666C20.5666 121.37 19.633 117.898 18.4406 118.11C17.4608 118.295 18.2372 120.834 18.0893 123.226C17.9599 125.341 17.9784 126.042 17.5347 126.098C17.2204 126.153 16.9524 123.475 16.5364 120.511C16.0373 116.669 15.1406 114.222 13.902 114.49C12.6634 114.73 13.6247 117.168 13.7911 120.733C13.9482 123.854 14.1608 125.184 12.9591 125.553C12.3676 125.747 12.0625 123.697 10.9903 120.696C9.71465 117.15 8.10627 115.201 7.07099 115.737C5.56428 116.549 7.28359 117.759 8.29114 122.118C9.576 127.668 10.8701 128.074 9.54827 131.629C8.29114 134.991 -0.314635 126.061 0.00889071 129.219C0.286198 131.648 13.5877 143.08 16.5734 143.486C24.6061 163.433 43.6848 224.649 53.5292 231.372C64.0115 238.528 70.1399 221.297 62.209 212.459Z" fill="url(#paint2_linear_203_4094)"/>
<path d="M116.552 473.474C115.951 463.464 106.347 416.922 106.347 416.922L114.546 289.171L70.9535 254.329C40.9581 286.724 65.5552 359.778 73.9484 405.138C82.3508 450.498 118.355 589.525 122.551 612.5H127.358C120.758 587.761 117.153 483.484 116.561 473.474H116.552Z" fill="#1963A4"/>
<path d="M82.3511 472.532C82.6007 474.314 135.474 545.651 156.623 598.704L160.413 597.014C160.413 597.014 146.391 503.255 109.943 465.939C109.943 465.939 150.615 371.358 145.67 315.609C145.67 315.609 105.063 278.182 104.619 279.53C104.166 280.878 80.5486 459.493 82.3511 472.532Z" fill="#2071B7"/>
<path d="M146.076 325.887C146.076 322.35 145.965 318.906 145.679 315.609C145.679 315.609 105.072 278.182 104.628 279.53C104.6 279.595 104.526 280.13 104.388 281.054L72.3772 255.474L70.8705 254.43C69.6965 255.705 68.6335 257.062 67.626 258.457C72.2015 268.218 88.6274 292.606 146.076 325.887Z" fill="url(#paint3_linear_203_4094)"/>
<path d="M145.735 316.256C146.188 288.386 114.907 257.33 127.506 185.393L82.5086 180.443C82.5086 180.443 89.0623 218.148 80.7061 237.993C76.3524 248.336 70.0575 253.581 68.5508 256.277C76.5003 274.257 145.735 316.246 145.735 316.246V316.256Z" fill="#69B75C"/>
<path d="M83.9221 225.619C89.5422 220.798 95.8186 218.092 102.446 218.092C109.86 218.092 117.698 222.83 124.982 230.642C123.993 217.566 125.592 202.089 128.615 184.82L80.918 180.028C80.918 180.028 86.8616 205.598 83.9129 225.628L83.9221 225.619Z" fill="#62A355"/>
<path d="M74.6417 190.74C76.8047 194.48 132.451 197.315 135.15 195.292C137.849 193.27 131.776 104.701 127.053 102.226C122.329 99.7516 78.5795 120.169 76.5551 123.761C74.5308 127.354 72.5989 187.194 74.6417 190.74Z" fill="#69B75C"/>
<path d="M101.319 117.602L95.6895 119.634L97.492 142.785L103.343 142.332L101.319 117.602Z" fill="url(#paint4_linear_203_4094)"/>
<path d="M113.78 105.357C104.185 108.94 91.7337 114.693 83.9229 118.923C94.1278 122.847 103.039 123.401 113.78 105.357Z" fill="url(#paint5_linear_203_4094)"/>
<path d="M108.816 107.896C98.6939 100.26 106.717 74.8922 106.717 74.8922L81.7412 79.3894C88.0453 91.7545 89.4134 111.812 87.6109 116.983C96.8175 120.659 102.327 116.679 108.816 107.896Z" fill="url(#paint6_linear_203_4094)"/>
<path d="M129.022 616H108.751L108.89 614.384L112.559 612.482L121.119 606.378L126.295 605.851L129.022 616Z" fill="#454545"/>
<path d="M167.105 599.23L155.745 616L154.479 614.984L155.847 605.851L155.662 596.321L160.043 593.477L167.105 599.23Z" fill="#454545"/>
<path d="M150.217 289.272C148.858 281.321 151.437 277.286 149.45 275.799C161.226 258.577 199.633 211.213 199.541 199.651C199.439 187.295 182.061 191.275 179.381 202.421C176.949 212.515 150.633 266.352 145.688 276.446C141.121 279.53 132.571 287.666 132.257 289.688C131.785 292.883 140.04 283.852 140.983 287.25C141.981 290.833 140.789 291.249 139.31 296.863C138.154 301.277 136.537 302.487 137.849 303.318C138.755 303.863 140.317 301.887 141.657 298.313C142.794 295.275 143.192 293.206 143.71 293.4C144.773 293.77 144.504 295.127 144.181 298.276C143.82 301.887 142.822 304.343 143.922 304.592C145.031 304.86 145.974 302.376 146.64 298.507C147.185 295.515 147.583 292.8 147.86 292.855C148.257 292.911 148.202 293.622 148.193 295.755C148.193 298.174 147.352 300.742 148.22 300.926C149.274 301.139 150.309 297.639 150.272 294.305C150.254 292.412 150.199 290.501 150.217 289.282V289.272Z" fill="url(#paint7_linear_203_4094)"/>
<path d="M62.2096 52.7662C62.2096 52.7662 56.1366 48.0474 51.6535 53.6527C46.7451 59.7845 56.7374 77.6718 67.044 69.7024L62.2096 52.7662Z" fill="#FFC2B3"/>
<path d="M63.2999 66.5811C63.0504 66.5811 62.8008 66.4426 62.6806 66.2025C59.242 59.5167 54.8605 59.2027 54.6757 59.1935C54.2967 59.175 54.0009 58.8518 54.0194 58.4639C54.0379 58.0853 54.3337 57.7713 54.7404 57.8083C54.953 57.8083 60.0832 58.1223 63.9193 65.5745C64.0949 65.9162 63.9562 66.3318 63.6235 66.5072C63.5218 66.5626 63.4109 66.5811 63.3092 66.5811H63.2999Z" fill="#F48073"/>
<path d="M127.774 52.7662C127.774 52.7662 133.847 48.0474 138.33 53.6527C143.238 59.7845 133.246 77.6718 122.939 69.7024L127.774 52.7662Z" fill="#FFC2B3"/>
<path d="M126.683 66.5811C126.572 66.5811 126.471 66.5534 126.369 66.5072C126.027 66.3318 125.898 65.9162 126.073 65.5745C129.9 58.1223 135.03 57.8175 135.252 57.8083C135.594 57.7898 135.955 58.0853 135.973 58.4732C135.992 58.8518 135.696 59.175 135.317 59.1935C135.123 59.2027 130.741 59.5259 127.312 66.2025C127.192 66.4426 126.942 66.5811 126.693 66.5811H126.683Z" fill="#F48073"/>
<path d="M95.126 76.0373C116.68 76.0373 134.152 59.0158 134.152 38.0186C134.152 17.0215 116.68 0 95.126 0C73.5723 0 56.0996 17.0215 56.0996 38.0186C56.0996 59.0158 73.5723 76.0373 95.126 76.0373Z" fill="black"/>
<path d="M62.1449 33.7708C62.1449 33.7708 58.0315 95.633 93.7857 95.633C132.452 95.633 128.394 33.7708 128.394 33.7708C128.394 33.7708 128.172 7.33223 94.9689 7.33223C64.5297 7.33223 62.1449 33.7708 62.1449 33.7708Z" fill="url(#paint8_linear_203_4094)"/>
<path d="M116.959 12.1711C116.959 12.1711 103.935 30.1046 131.278 48.0289C131.278 48.0289 131.768 18.2567 116.959 12.1711Z" fill="black"/>
<path d="M94.6817 71.1522H92.038C91.659 71.1522 91.3447 70.8383 91.3447 70.4596C91.3447 70.081 91.659 69.767 92.038 69.767H94.6817C94.922 69.767 95.1438 69.6655 95.301 69.49C95.4581 69.3146 95.5321 69.0837 95.5136 68.8436L94.8943 62.9335C94.8573 62.5549 95.1346 62.2132 95.5136 62.1762C95.8926 62.1393 96.2346 62.4163 96.2716 62.795L96.8909 68.7051C96.9556 69.333 96.7522 69.961 96.327 70.4227C95.9018 70.8937 95.301 71.1615 94.6724 71.1615L94.6817 71.1522Z" fill="#F48073"/>
<path d="M83.3058 57.3453C83.6619 55.831 82.7217 54.3151 81.2059 53.9593C79.6902 53.6036 78.1727 54.5428 77.8166 56.0571C77.4605 57.5714 78.4007 59.0874 79.9165 59.4431C81.4322 59.7988 82.9497 58.8596 83.3058 57.3453Z" fill="#2B232A"/>
<path d="M111.555 57.0275C111.734 55.4823 110.626 54.0844 109.079 53.905C107.533 53.7257 106.133 54.8329 105.954 56.3781C105.774 57.9232 106.883 59.3212 108.429 59.5005C109.976 59.6799 111.375 58.5726 111.555 57.0275Z" fill="#2B232A"/>
<path d="M70.7412 48.0289L88.4889 46.3205C88.4889 46.3205 86.7973 41.417 79.1436 42.2111C71.3143 43.0238 70.7505 48.0197 70.7505 48.0197L70.7412 48.0289Z" fill="#2B232A"/>
<path d="M118.438 48.0289L100.69 46.3205C100.69 46.3205 102.382 41.417 110.036 42.2111C117.865 43.0238 118.429 48.0197 118.429 48.0197L118.438 48.0289Z" fill="#2B232A"/>
<path d="M94.1553 77.9211C88.3134 77.9211 85.3832 75.0123 85.2445 74.8645C84.958 74.5782 84.9672 74.1165 85.2538 73.8395C85.5403 73.5624 86.0025 73.5624 86.2798 73.8395C86.4277 73.9872 89.9403 77.4132 97.1318 76.2035C97.5292 76.1389 97.9082 76.4067 97.9729 76.8038C98.0376 77.2009 97.7696 77.5795 97.3721 77.6441C96.2167 77.838 95.1352 77.9211 94.1461 77.9211H94.1553Z" fill="#FF6058"/>
<path d="M59.011 41.9987C59.011 41.9987 112.836 41.7217 121.461 15.1077C121.461 15.1077 108.094 -2.80731 83.3771 4.55263C58.669 11.9126 59.011 41.9987 59.011 41.9987Z" fill="black"/>
<path d="M77.2114 70.5612C68.809 70.5612 61.9688 63.7276 61.9688 55.3334C61.9688 46.9392 68.809 40.1057 77.2114 40.1057C85.6138 40.1057 92.4541 46.9392 92.4541 55.3334C92.4541 63.7276 85.6138 70.5612 77.2114 70.5612ZM77.2114 41.5647C69.6132 41.5647 63.4292 47.7426 63.4292 55.3334C63.4292 62.9242 69.6132 69.1021 77.2114 69.1021C84.8096 69.1021 90.9936 62.9242 90.9936 55.3334C90.9936 47.7426 84.8096 41.5647 77.2114 41.5647Z" fill="#FFFFF9"/>
<path opacity="0.15" d="M81.3486 69.2317C89.0304 66.9468 93.4036 58.8734 91.1165 51.1991C88.8294 43.5249 80.748 39.1559 73.0663 41.4408C65.3845 43.7257 61.0113 51.7991 63.2984 59.4734C65.5855 67.1476 73.6669 71.5166 81.3486 69.2317Z" fill="#FFFFF9"/>
<path opacity="0.15" d="M126.718 57.7564C128.059 49.862 122.74 42.3765 114.838 41.0371C106.936 39.6976 99.4433 45.0113 98.1025 52.9057C96.7617 60.8 102.081 68.2855 109.983 69.625C117.885 70.9644 125.378 65.6507 126.718 57.7564Z" fill="#FFFFF9"/>
<path d="M112.412 70.5612C104.009 70.5612 97.1689 63.7276 97.1689 55.3334C97.1689 46.9392 104.009 40.1057 112.412 40.1057C120.814 40.1057 127.654 46.9392 127.654 55.3334C127.654 63.7276 120.814 70.5612 112.412 70.5612ZM112.412 41.5647C104.813 41.5647 98.6294 47.7426 98.6294 55.3334C98.6294 62.9242 104.813 69.1021 112.412 69.1021C120.01 69.1021 126.194 62.9242 126.194 55.3334C126.194 47.7426 120.01 41.5647 112.412 41.5647Z" fill="#FFFFF9"/>
<path d="M91.5664 59.2397L90.7715 58.0207C90.9286 57.9191 94.7647 55.472 98.6655 58.0207L97.8706 59.2397C94.774 57.2173 91.6958 59.1565 91.5664 59.2397Z" fill="#FFFFF9"/>
</g>
<defs>
<linearGradient id="paint0_linear_203_4094" x1="177.948" y1="199.346" x2="202" y2="199.346" gradientUnits="userSpaceOnUse">
<stop stop-color="#C1210D"/>
<stop offset="0.52" stop-color="#C1210D"/>
<stop offset="1" stop-color="#9D1D06"/>
</linearGradient>
<linearGradient id="paint1_linear_203_4094" x1="47.9833" y1="222.654" x2="68.4023" y2="222.654" gradientUnits="userSpaceOnUse">
<stop stop-color="#C1210D"/>
<stop offset="0.52" stop-color="#C1210D"/>
<stop offset="1" stop-color="#9D1D06"/>
</linearGradient>
<linearGradient id="paint2_linear_203_4094" x1="-0.000352873" y1="173.776" x2="65.8232" y2="173.776" gradientUnits="userSpaceOnUse">
<stop stop-color="#F7C3AF"/>
<stop offset="1" stop-color="#F79480"/>
</linearGradient>
<linearGradient id="paint3_linear_203_4094" x1="67.626" y1="290.159" x2="146.076" y2="290.159" gradientUnits="userSpaceOnUse">
<stop stop-color="#C1210D"/>
<stop offset="0.52" stop-color="#C1210D"/>
<stop offset="1" stop-color="#9D1D06"/>
</linearGradient>
<linearGradient id="paint4_linear_203_4094" x1="95.6895" y1="130.189" x2="103.343" y2="130.189" gradientUnits="userSpaceOnUse">
<stop stop-color="#C1210D"/>
<stop offset="0.52" stop-color="#C1210D"/>
<stop offset="1" stop-color="#9D1D06"/>
</linearGradient>
<linearGradient id="paint5_linear_203_4094" x1="83.9229" y1="113.253" x2="113.78" y2="113.253" gradientUnits="userSpaceOnUse">
<stop stop-color="#C1210D"/>
<stop offset="0.52" stop-color="#C1210D"/>
<stop offset="1" stop-color="#9D1D06"/>
</linearGradient>
<linearGradient id="paint6_linear_203_4094" x1="98.0746" y1="111.683" x2="96.903" y2="101.118" gradientUnits="userSpaceOnUse">
<stop stop-color="#F7C3AF"/>
<stop offset="1" stop-color="#F79480"/>
</linearGradient>
<linearGradient id="paint7_linear_203_4094" x1="132.229" y1="248.326" x2="199.541" y2="248.326" gradientUnits="userSpaceOnUse">
<stop stop-color="#F7C3AF"/>
<stop offset="1" stop-color="#F79480"/>
</linearGradient>
<linearGradient id="paint8_linear_203_4094" x1="95.2554" y1="59.7568" x2="95.2554" y2="131.158" gradientUnits="userSpaceOnUse">
<stop stop-color="#F7C3AF"/>
<stop offset="1" stop-color="#F79480"/>
</linearGradient>
<clipPath id="clip0_203_4094">
<rect width="202" height="616" fill="white"/>
</clipPath>
</defs>
</svg>
