<svg width="335" height="623" viewBox="0 0 335 623" fill="none" xmlns="http://www.w3.org/2000/svg">
<path fill-rule="evenodd" clip-rule="evenodd" d="M167.5 586C260.01 586 335 594.287 335 604.5C335 614.713 260.01 623 167.5 623C74.9895 623 0 614.723 0 604.5C0 594.277 74.9895 586 167.5 586Z" fill="#E2E2F2"/>
<g clip-path="url(#clip0_831_1473)">
<path d="M148.586 76.3605C141.062 63.0812 138.548 49.4695 138.686 44.0026C138.714 43.5594 138.723 43.1161 138.733 42.6729C138.77 41.9156 138.816 41.5001 138.816 41.5001H138.76C138.76 18.5799 120.625 0 98.255 0C75.8856 0 57.7497 18.5799 57.7497 41.5001C57.7497 42.6636 57.8051 43.8087 57.8976 44.9538C57.9345 50.9286 55.0968 63.7923 47.9792 76.3605C39.1238 91.9946 38.181 108.497 55.7623 115.146C55.7623 115.146 55.8547 115.183 55.9749 115.219C57.6295 115.829 59.432 116.365 61.4194 116.799C61.8815 116.9 62.3345 116.974 62.7874 117.057C74.6469 119.846 104.005 124.011 131.828 117.399C132.928 117.233 134.028 117.039 135.155 116.789C138.271 116.115 140.951 115.192 143.262 114.084C143.281 114.084 143.299 114.074 143.318 114.065C158.283 106.835 157.007 91.1912 148.596 76.342L148.586 76.3605Z" fill="black"/>
<path d="M202.726 201.304C200.591 205.044 192.956 205.552 185.625 199.199C171.464 186.935 142.486 149.341 136.181 140.448C126.624 126.947 119.654 102.291 129.35 102.042C139.047 101.792 209.594 189.262 202.726 201.304Z" fill="#69B75C"/>
<path d="M187.419 198.755C173.257 186.492 144.279 148.898 137.975 140.005C129.129 127.492 125.838 128.194 135.368 141.658C141.663 150.551 171.455 186.935 185.616 199.208C191.005 203.871 196.551 204.822 199.962 203.52C196.57 203.973 191.939 202.671 187.419 198.755Z" fill="#62A355"/>
<path d="M57.8149 233.376C61.6787 236.238 69.5081 236.017 73.7139 226.487C80.7298 210.594 85.1574 179.492 86.849 170.119C89.5481 155.131 89.5481 119.763 80.5541 123.06C75.3777 124.953 67.8812 157.495 62.0208 187.212C57.6948 209.163 49.7176 227.373 57.8242 233.366L57.8149 233.376Z" fill="#69B75C"/>
<path d="M83.8909 123.891C84.4362 134.695 79.38 148.372 76.4128 165.492C70.9961 196.807 65.5239 223.255 59.3954 222.193C57.6021 221.888 56.2895 219.404 55.4576 215.267C53.7475 223.809 53.5997 230.254 57.8055 233.376C61.6693 236.238 69.4986 236.017 73.7044 226.487C80.7203 210.594 85.148 179.492 86.8396 170.119C89.1505 157.292 89.4832 129.552 83.8816 123.891H83.8909Z" fill="#62A355"/>
<path d="M201.108 206.632C205.998 200.26 206.312 191.839 201.82 187.822C197.318 183.805 189.72 185.707 184.83 192.069C179.94 198.441 179.626 206.863 184.118 210.88C188.62 214.897 196.227 212.995 201.108 206.623V206.632Z" fill="url(#paint0_linear_831_1473)"/>
<path d="M70.9217 220.447C69.2209 212.986 63.4806 207.916 58.1101 209.144C52.7396 210.372 49.7631 217.409 51.4639 224.88C53.1648 232.341 58.905 237.402 64.2755 236.183C69.6461 234.955 72.6225 227.918 70.9217 220.456V220.447Z" fill="url(#paint1_linear_831_1473)"/>
<path d="M65.209 212.459C58.3502 204.813 29.7598 155.113 22.1246 141.778C22.6885 139.746 21.3389 135.933 22.9381 129.635C22.9935 128.434 23.1691 126.541 23.3078 124.666C23.5666 121.37 22.633 117.898 21.4406 118.11C20.4608 118.295 21.2372 120.834 21.0893 123.226C20.9599 125.341 20.9784 126.042 20.5347 126.098C20.2204 126.153 19.9524 123.475 19.5364 120.511C19.0373 116.669 18.1406 114.222 16.902 114.49C15.6634 114.73 16.6247 117.168 16.7911 120.733C16.9482 123.854 17.1608 125.184 15.9591 125.553C15.3676 125.747 15.0625 123.697 13.9903 120.696C12.7147 117.15 11.1063 115.201 10.071 115.737C8.56428 116.549 10.2836 117.759 11.2911 122.118C12.576 127.668 13.8701 128.074 12.5483 131.629C11.2911 134.991 2.68537 126.061 3.00889 129.219C3.2862 131.648 16.5877 143.08 19.5734 143.486C27.6061 163.433 46.6848 224.649 56.5292 231.372C67.0115 238.528 73.1399 221.297 65.209 212.459Z" fill="url(#paint2_linear_831_1473)"/>
<path d="M119.552 473.474C118.951 463.464 109.347 416.922 109.347 416.922L117.546 289.171L73.9535 254.329C43.9581 286.724 68.5552 359.778 76.9484 405.138C85.3508 450.498 121.355 589.525 125.551 612.5H130.358C123.758 587.761 120.153 483.484 119.561 473.474H119.552Z" fill="#1963A4"/>
<path d="M85.3511 472.532C85.6007 474.314 138.474 545.651 159.623 598.704L163.413 597.014C163.413 597.014 149.391 503.255 112.943 465.939C112.943 465.939 153.615 371.358 148.67 315.609C148.67 315.609 108.063 278.182 107.619 279.53C107.166 280.878 83.5486 459.493 85.3511 472.532Z" fill="#2071B7"/>
<path d="M149.076 325.887C149.076 322.35 148.965 318.906 148.679 315.609C148.679 315.609 108.072 278.182 107.628 279.53C107.6 279.595 107.526 280.13 107.388 281.054L75.3772 255.474L73.8705 254.43C72.6965 255.705 71.6335 257.062 70.626 258.457C75.2015 268.218 91.6274 292.606 149.076 325.887Z" fill="url(#paint3_linear_831_1473)"/>
<path d="M148.735 316.256C149.188 288.386 117.907 257.33 130.506 185.393L85.5086 180.443C85.5086 180.443 92.0623 218.148 83.7061 237.993C79.3524 248.336 73.0575 253.581 71.5508 256.277C79.5003 274.257 148.735 316.246 148.735 316.246V316.256Z" fill="#69B75C"/>
<path d="M86.9221 225.619C92.5422 220.798 98.8186 218.092 105.446 218.092C112.86 218.092 120.698 222.83 127.982 230.642C126.993 217.566 128.592 202.089 131.615 184.82L83.918 180.028C83.918 180.028 89.8616 205.598 86.9129 225.628L86.9221 225.619Z" fill="#62A355"/>
<path d="M77.6417 190.74C79.8047 194.48 135.451 197.315 138.15 195.292C140.849 193.27 134.776 104.701 130.053 102.226C125.329 99.7516 81.5795 120.169 79.5551 123.761C77.5308 127.354 75.5989 187.194 77.6417 190.74Z" fill="#69B75C"/>
<path d="M104.319 117.602L98.6895 119.634L100.492 142.785L106.343 142.332L104.319 117.602Z" fill="url(#paint4_linear_831_1473)"/>
<path d="M116.78 105.357C107.185 108.94 94.7337 114.693 86.9229 118.923C97.1278 122.847 106.039 123.401 116.78 105.357Z" fill="url(#paint5_linear_831_1473)"/>
<path d="M111.816 107.896C101.694 100.26 109.717 74.8922 109.717 74.8922L84.7412 79.3894C91.0453 91.7545 92.4134 111.812 90.6109 116.983C99.8175 120.659 105.327 116.679 111.816 107.896Z" fill="url(#paint6_linear_831_1473)"/>
<path d="M132.022 616H111.751L111.89 614.384L115.559 612.482L124.119 606.378L129.295 605.851L132.022 616Z" fill="#454545"/>
<path d="M170.105 599.23L158.745 616L157.479 614.984L158.847 605.851L158.662 596.321L163.043 593.477L170.105 599.23Z" fill="#454545"/>
<path d="M153.217 289.272C151.858 281.321 154.437 277.286 152.45 275.799C164.226 258.577 202.633 211.213 202.541 199.651C202.439 187.295 185.061 191.275 182.381 202.421C179.949 212.515 153.633 266.352 148.688 276.446C144.121 279.53 135.571 287.666 135.257 289.688C134.785 292.883 143.04 283.852 143.983 287.25C144.981 290.833 143.789 291.249 142.31 296.863C141.154 301.277 139.537 302.487 140.849 303.318C141.755 303.863 143.317 301.887 144.657 298.313C145.794 295.275 146.192 293.206 146.71 293.4C147.773 293.77 147.504 295.127 147.181 298.276C146.82 301.887 145.822 304.343 146.922 304.592C148.031 304.86 148.974 302.376 149.64 298.507C150.185 295.515 150.583 292.8 150.86 292.855C151.257 292.911 151.202 293.622 151.193 295.755C151.193 298.174 150.352 300.742 151.22 300.926C152.274 301.139 153.309 297.639 153.272 294.305C153.254 292.412 153.199 290.501 153.217 289.282V289.272Z" fill="url(#paint7_linear_831_1473)"/>
<path d="M65.2096 52.7662C65.2096 52.7662 59.1366 48.0474 54.6535 53.6527C49.7451 59.7845 59.7374 77.6718 70.044 69.7024L65.2096 52.7662Z" fill="#FFC2B3"/>
<path d="M66.2999 66.5811C66.0504 66.5811 65.8008 66.4426 65.6806 66.2025C62.242 59.5167 57.8605 59.2027 57.6757 59.1935C57.2967 59.175 57.0009 58.8518 57.0194 58.4639C57.0379 58.0853 57.3337 57.7713 57.7404 57.8083C57.953 57.8083 63.0832 58.1223 66.9193 65.5745C67.0949 65.9162 66.9562 66.3318 66.6235 66.5072C66.5218 66.5626 66.4109 66.5811 66.3092 66.5811H66.2999Z" fill="#F48073"/>
<path d="M130.774 52.7662C130.774 52.7662 136.847 48.0474 141.33 53.6527C146.238 59.7845 136.246 77.6718 125.939 69.7024L130.774 52.7662Z" fill="#FFC2B3"/>
<path d="M129.683 66.5811C129.572 66.5811 129.471 66.5534 129.369 66.5072C129.027 66.3318 128.898 65.9162 129.073 65.5745C132.9 58.1223 138.03 57.8175 138.252 57.8083C138.594 57.7898 138.955 58.0853 138.973 58.4732C138.992 58.8518 138.696 59.175 138.317 59.1935C138.123 59.2027 133.741 59.5259 130.312 66.2025C130.192 66.4426 129.942 66.5811 129.693 66.5811H129.683Z" fill="#F48073"/>
<path d="M98.126 76.0373C119.68 76.0373 137.152 59.0158 137.152 38.0186C137.152 17.0215 119.68 0 98.126 0C76.5723 0 59.0996 17.0215 59.0996 38.0186C59.0996 59.0158 76.5723 76.0373 98.126 76.0373Z" fill="black"/>
<path d="M65.1449 33.7708C65.1449 33.7708 61.0315 95.633 96.7857 95.633C135.452 95.633 131.394 33.7708 131.394 33.7708C131.394 33.7708 131.172 7.33223 97.9689 7.33223C67.5297 7.33223 65.1449 33.7708 65.1449 33.7708Z" fill="url(#paint8_linear_831_1473)"/>
<path d="M119.959 12.1711C119.959 12.1711 106.935 30.1046 134.278 48.0289C134.278 48.0289 134.768 18.2567 119.959 12.1711Z" fill="black"/>
<path d="M97.6817 71.1522H95.038C94.659 71.1522 94.3447 70.8383 94.3447 70.4596C94.3447 70.081 94.659 69.767 95.038 69.767H97.6817C97.922 69.767 98.1438 69.6655 98.301 69.49C98.4581 69.3146 98.5321 69.0837 98.5136 68.8436L97.8943 62.9335C97.8573 62.5549 98.1346 62.2132 98.5136 62.1762C98.8926 62.1393 99.2346 62.4163 99.2716 62.795L99.8909 68.7051C99.9556 69.333 99.7522 69.961 99.327 70.4227C98.9018 70.8937 98.301 71.1615 97.6724 71.1615L97.6817 71.1522Z" fill="#F48073"/>
<path d="M86.3058 57.3453C86.6619 55.831 85.7217 54.3151 84.2059 53.9593C82.6902 53.6036 81.1727 54.5428 80.8166 56.0571C80.4605 57.5714 81.4007 59.0874 82.9165 59.4431C84.4322 59.7988 85.9497 58.8596 86.3058 57.3453Z" fill="#2B232A"/>
<path d="M114.555 57.0275C114.734 55.4823 113.626 54.0844 112.079 53.905C110.533 53.7257 109.133 54.8329 108.954 56.3781C108.774 57.9232 109.883 59.3212 111.429 59.5005C112.976 59.6799 114.375 58.5726 114.555 57.0275Z" fill="#2B232A"/>
<path d="M73.7412 48.0289L91.4889 46.3205C91.4889 46.3205 89.7973 41.417 82.1436 42.2111C74.3143 43.0238 73.7505 48.0197 73.7505 48.0197L73.7412 48.0289Z" fill="#2B232A"/>
<path d="M121.438 48.0289L103.69 46.3205C103.69 46.3205 105.382 41.417 113.036 42.2111C120.865 43.0238 121.429 48.0197 121.429 48.0197L121.438 48.0289Z" fill="#2B232A"/>
<path d="M97.1553 77.9211C91.3134 77.9211 88.3832 75.0123 88.2445 74.8645C87.958 74.5782 87.9672 74.1165 88.2538 73.8395C88.5403 73.5624 89.0025 73.5624 89.2798 73.8395C89.4277 73.9872 92.9403 77.4132 100.132 76.2035C100.529 76.1389 100.908 76.4067 100.973 76.8038C101.038 77.2009 100.77 77.5795 100.372 77.6441C99.2167 77.838 98.1352 77.9211 97.1461 77.9211H97.1553Z" fill="#FF6058"/>
<path d="M62.011 41.9987C62.011 41.9987 115.836 41.7217 124.461 15.1077C124.461 15.1077 111.094 -2.80731 86.3771 4.55263C61.669 11.9126 62.011 41.9987 62.011 41.9987Z" fill="black"/>
<path d="M80.2114 70.5612C71.809 70.5612 64.9688 63.7276 64.9688 55.3334C64.9688 46.9392 71.809 40.1057 80.2114 40.1057C88.6138 40.1057 95.4541 46.9392 95.4541 55.3334C95.4541 63.7276 88.6138 70.5612 80.2114 70.5612ZM80.2114 41.5647C72.6132 41.5647 66.4292 47.7426 66.4292 55.3334C66.4292 62.9242 72.6132 69.1021 80.2114 69.1021C87.8096 69.1021 93.9936 62.9242 93.9936 55.3334C93.9936 47.7426 87.8096 41.5647 80.2114 41.5647Z" fill="#FFFFF9"/>
<path opacity="0.15" d="M84.3486 69.2317C92.0304 66.9468 96.4036 58.8734 94.1165 51.1991C91.8294 43.5249 83.748 39.1559 76.0663 41.4408C68.3845 43.7257 64.0113 51.7991 66.2984 59.4734C68.5855 67.1476 76.6669 71.5166 84.3486 69.2317Z" fill="#FFFFF9"/>
<path opacity="0.15" d="M129.718 57.7564C131.059 49.862 125.74 42.3765 117.838 41.0371C109.936 39.6976 102.443 45.0113 101.103 52.9057C99.7617 60.8 105.081 68.2855 112.983 69.625C120.885 70.9644 128.378 65.6507 129.718 57.7564Z" fill="#FFFFF9"/>
<path d="M115.412 70.5612C107.009 70.5612 100.169 63.7276 100.169 55.3334C100.169 46.9392 107.009 40.1057 115.412 40.1057C123.814 40.1057 130.654 46.9392 130.654 55.3334C130.654 63.7276 123.814 70.5612 115.412 70.5612ZM115.412 41.5647C107.813 41.5647 101.629 47.7426 101.629 55.3334C101.629 62.9242 107.813 69.1021 115.412 69.1021C123.01 69.1021 129.194 62.9242 129.194 55.3334C129.194 47.7426 123.01 41.5647 115.412 41.5647Z" fill="#FFFFF9"/>
<path d="M94.5664 59.2397L93.7715 58.0207C93.9286 57.9191 97.7647 55.472 101.666 58.0207L100.871 59.2397C97.774 57.2173 94.6958 59.1565 94.5664 59.2397Z" fill="#FFFFF9"/>
</g>
<defs>
<linearGradient id="paint0_linear_831_1473" x1="180.948" y1="199.346" x2="205" y2="199.346" gradientUnits="userSpaceOnUse">
<stop stop-color="#C1210D"/>
<stop offset="0.52" stop-color="#C1210D"/>
<stop offset="1" stop-color="#9D1D06"/>
</linearGradient>
<linearGradient id="paint1_linear_831_1473" x1="50.9833" y1="222.654" x2="71.4023" y2="222.654" gradientUnits="userSpaceOnUse">
<stop stop-color="#C1210D"/>
<stop offset="0.52" stop-color="#C1210D"/>
<stop offset="1" stop-color="#9D1D06"/>
</linearGradient>
<linearGradient id="paint2_linear_831_1473" x1="2.99965" y1="173.776" x2="68.8232" y2="173.776" gradientUnits="userSpaceOnUse">
<stop stop-color="#F7C3AF"/>
<stop offset="1" stop-color="#F79480"/>
</linearGradient>
<linearGradient id="paint3_linear_831_1473" x1="70.626" y1="290.159" x2="149.076" y2="290.159" gradientUnits="userSpaceOnUse">
<stop stop-color="#C1210D"/>
<stop offset="0.52" stop-color="#C1210D"/>
<stop offset="1" stop-color="#9D1D06"/>
</linearGradient>
<linearGradient id="paint4_linear_831_1473" x1="98.6895" y1="130.189" x2="106.343" y2="130.189" gradientUnits="userSpaceOnUse">
<stop stop-color="#C1210D"/>
<stop offset="0.52" stop-color="#C1210D"/>
<stop offset="1" stop-color="#9D1D06"/>
</linearGradient>
<linearGradient id="paint5_linear_831_1473" x1="86.9229" y1="113.253" x2="116.78" y2="113.253" gradientUnits="userSpaceOnUse">
<stop stop-color="#C1210D"/>
<stop offset="0.52" stop-color="#C1210D"/>
<stop offset="1" stop-color="#9D1D06"/>
</linearGradient>
<linearGradient id="paint6_linear_831_1473" x1="101.075" y1="111.683" x2="99.903" y2="101.118" gradientUnits="userSpaceOnUse">
<stop stop-color="#F7C3AF"/>
<stop offset="1" stop-color="#F79480"/>
</linearGradient>
<linearGradient id="paint7_linear_831_1473" x1="135.229" y1="248.326" x2="202.541" y2="248.326" gradientUnits="userSpaceOnUse">
<stop stop-color="#F7C3AF"/>
<stop offset="1" stop-color="#F79480"/>
</linearGradient>
<linearGradient id="paint8_linear_831_1473" x1="98.2554" y1="59.7568" x2="98.2554" y2="131.158" gradientUnits="userSpaceOnUse">
<stop stop-color="#F7C3AF"/>
<stop offset="1" stop-color="#F79480"/>
</linearGradient>
<clipPath id="clip0_831_1473">
<rect width="202" height="616" fill="white" transform="translate(3)"/>
</clipPath>
</defs>
</svg>
