<svg width="107" height="107" viewBox="0 0 107 107" fill="none" xmlns="http://www.w3.org/2000/svg">
<g clip-path="url(#clip0_203_4970)">
<path d="M99.3585 71.1528H69.332V100.124H99.3585V71.1528Z" fill="#A9C1D8"/>
<path d="M99.3579 33.4438H67.8428V76.7973H99.3579V33.4438Z" fill="#A9C1D8"/>
<path d="M99.252 79.8311H68.6758V91.9578H99.252V79.8311Z" stroke="#398DA5" stroke-width="3" stroke-miterlimit="10"/>
<path d="M105.266 63.291H68.7607V66.3671H105.266V63.291Z" fill="#398DA5"/>
<path d="M104.839 49.6621H87.0342V63.291H104.839V49.6621Z" fill="#F2AC57"/>
<path d="M87.2126 49.6621H69.332V63.291H87.2126V49.6621Z" fill="#F2AC57"/>
<path d="M104.674 49.5776H69.374V63.2911H104.674V49.5776Z" stroke="#398DA5" stroke-width="3" stroke-miterlimit="10"/>
<path d="M69.3355 57.3506H7.80664V100.12H69.3355V57.3506Z" fill="#C2D8F0"/>
<path d="M69.3573 57.2363H7.77344V62.4619H69.3573V57.2363Z" fill="#A9C1D8"/>
<path d="M78.9231 0H0V57.3504H78.9231V0Z" fill="#C2D8F0"/>
<path d="M78.2758 9.12256H7.80664V43.9585H78.2758V9.12256Z" fill="#F2AC57"/>
<path d="M78.8808 43.5903H7.17676V48.8159H78.8808V43.5903Z" fill="#398DA5"/>
<path d="M33.4857 66.604H16.6709V100.12H33.4857V66.604Z" fill="#C21B17"/>
<path d="M107 100.12H1.84375V107H107V100.12Z" fill="#398DA5"/>
<path d="M107.005 21.6685H78.0693V33.444H107.005V21.6685Z" fill="#398DA5"/>
<path d="M98.6093 80.4658H69.3525V91.3528H98.6093V80.4658Z" fill="#F2AC57"/>
<path d="M68.799 69.3462H39.4111V87.3629H68.799V69.3462Z" fill="#F2AC57"/>
<path d="M30.6223 79.9663C30.6223 79.0853 29.9085 78.3711 29.028 78.3711C28.1474 78.3711 27.4336 79.0853 27.4336 79.9663V86.4697C27.4336 87.3507 28.1474 88.0649 29.028 88.0649C29.9085 88.0649 30.6223 87.3507 30.6223 86.4697V79.9663Z" fill="#C2D8F0"/>
<path d="M78.2758 9.12256H7.80664V43.9585H78.2758V9.12256Z" stroke="#398DA5" stroke-width="3" stroke-miterlimit="10"/>
<path d="M26.9854 9.12695V43.9629" stroke="#398DA5" stroke-width="3" stroke-miterlimit="10"/>
<path d="M44.0801 9.12695V43.9629" stroke="#398DA5" stroke-width="3" stroke-miterlimit="10"/>
<path d="M49.1797 70.1836V87.7222" stroke="#398DA5" stroke-width="3" stroke-miterlimit="10"/>
<path d="M59.5498 70.1836V87.7222" stroke="#398DA5" stroke-width="3" stroke-miterlimit="10"/>
<path d="M79.1133 79.7085V91.8607" stroke="#398DA5" stroke-width="3" stroke-miterlimit="10"/>
<path d="M89.4199 79.7085V91.8607" stroke="#398DA5" stroke-width="3" stroke-miterlimit="10"/>
<path d="M61.1777 9.12695V43.9629" stroke="#398DA5" stroke-width="3" stroke-miterlimit="10"/>
<path d="M68.8111 69.6294H39.4951V87.2695H68.8111V69.6294Z" stroke="#398DA5" stroke-width="3" stroke-miterlimit="10"/>
<path d="M87.0215 49.2349V63.0161" stroke="#398DA5" stroke-width="3" stroke-miterlimit="10"/>
</g>
<defs>
<clipPath id="clip0_203_4970">
<rect width="107" height="107" fill="white"/>
</clipPath>
</defs>
</svg>
