<svg width="624" height="428" viewBox="0 0 624 428" fill="none" xmlns="http://www.w3.org/2000/svg">
<g clip-path="url(#clip0_3373_7515)">
<mask id="mask0_3373_7515" style="mask-type:luminance" maskUnits="userSpaceOnUse" x="266" y="131" width="78" height="106">
<path d="M322.203 135.429C317.854 137.716 313.84 138.944 310.394 139.569C310.394 139.569 308.175 140.183 304.495 140.149C300.827 140.183 298.608 139.58 298.608 139.58C295.151 138.944 291.136 137.716 286.788 135.429C284.847 134.413 282.874 133.275 280.9 132.036V163.106C280.9 169.266 268.924 172.692 268.924 172.692C268.523 173.072 268.199 173.474 267.909 173.898H267.185C267.185 173.898 267.24 174.288 267.329 174.969C266.382 177.29 266.917 180.114 268.411 183.205C269.448 190.928 270.887 200.905 271.545 202.68C272.626 205.626 289.731 238.303 306.369 235.97C322.994 233.638 338.238 197.847 340.869 188.518C341.761 185.37 342.196 182.926 342.363 181.051C343.49 177.748 343.255 174.846 340.958 172.692C340.958 172.692 328.971 169.266 328.971 163.106V131.467C326.719 132.94 324.433 134.246 322.203 135.429Z" fill="white"/>
</mask>
<g mask="url(#mask0_3373_7515)">
<path d="M343.489 131.467H266.37V238.292H343.489V131.467Z" fill="url(#paint0_linear_3373_7515)"/>
</g>
<g style="mix-blend-mode:multiply" opacity="0.2">
<mask id="mask1_3373_7515" style="mask-type:luminance" maskUnits="userSpaceOnUse" x="279" y="131" width="48" height="21">
<path d="M326.407 131.366H279.785V151.544H326.407V131.366Z" fill="white"/>
</mask>
<g mask="url(#mask1_3373_7515)">
<mask id="mask2_3373_7515" style="mask-type:luminance" maskUnits="userSpaceOnUse" x="279" y="131" width="48" height="21">
<path d="M326.407 131.366H279.785V151.544H326.407V131.366Z" fill="white"/>
</mask>
<g mask="url(#mask2_3373_7515)">
<path d="M326.418 139.558V131.366C324.232 132.784 322.013 134.067 319.85 135.216C315.635 137.437 311.743 138.62 308.398 139.223C308.398 139.223 306.246 139.814 302.678 139.781C299.11 139.814 296.957 139.234 296.957 139.234C293.612 138.62 289.709 137.426 285.494 135.216C283.61 134.223 281.692 133.118 279.785 131.924V151.019C295.63 153.285 311.643 148.106 326.407 139.569" fill="#ECB699"/>
</g>
</g>
</g>
<mask id="mask3_3373_7515" style="mask-type:luminance" maskUnits="userSpaceOnUse" x="347" y="63" width="16" height="33">
<path d="M352.377 64.1487C349.813 64.8629 348.552 66.5816 347.973 67.3628C348.017 67.5748 348.04 67.798 348.073 68.0212C349.679 77.9873 350.303 87.6966 350.437 95.4864C353.124 96.5243 357.139 95.7207 360.517 87.6854C364.732 77.6301 363.049 64.9076 356.637 63.9701C356.001 63.8808 355.41 63.8362 354.864 63.8362C353.927 63.8362 353.102 63.9589 352.388 64.1598" fill="white"/>
</mask>
<g mask="url(#mask3_3373_7515)">
<path d="M364.732 63.825H347.973V96.5242H364.732V63.825Z" fill="url(#paint1_linear_3373_7515)"/>
</g>
<mask id="mask4_3373_7515" style="mask-type:luminance" maskUnits="userSpaceOnUse" x="246" y="63" width="16" height="33">
<path d="M252.42 63.9254C246.009 64.8628 244.325 77.5854 248.54 87.6407C251.908 95.6537 255.911 96.4795 258.598 95.4416C258.732 87.9308 259.312 78.6344 260.795 69.0479C260.884 68.4675 260.973 67.8872 261.062 67.3069C260.36 66.3471 258.665 64.0704 254.918 63.8138C254.673 63.8026 254.428 63.7803 254.16 63.7803C253.614 63.7803 253.034 63.8249 252.409 63.9142" fill="white"/>
</mask>
<g mask="url(#mask4_3373_7515)">
<path d="M261.062 63.7915H244.313V96.4796H261.062V63.7915Z" fill="url(#paint2_linear_3373_7515)"/>
</g>
<path d="M252.889 49.1606C253.257 55.7339 254.394 61.3252 254.919 63.8139C258.665 64.0817 260.36 66.3473 261.051 67.307C261.431 65.075 261.843 62.843 262.312 60.6221C262.312 60.6221 263.07 56.3143 263.817 54.3389C264.519 51.694 265.322 49.1048 266.214 46.5603C265.601 46.8393 264.988 47.1183 264.33 47.3973C264.33 47.3973 258.832 48.6249 252.878 49.1606" fill="#161616"/>
<path d="M343.322 48.078C344.002 50.1314 344.638 52.2184 345.207 54.3388C345.943 56.303 346.701 60.6108 346.701 60.6108C347.18 62.8652 347.593 65.1195 347.972 67.3627C348.552 66.5703 349.812 64.8517 352.377 64.1374C352.912 61.6599 354.284 55.1423 354.562 47.5981L351.239 47.5423C351.161 47.453 348.262 47.944 343.333 48.078" fill="#161616"/>
<path d="M365.513 0.859401C364.119 1.31697 360.695 2.24326 353.035 4.08469C334.614 8.53759 318.735 -0.959705 291.181 0.0781897C268.991 0.915201 263.761 13.7605 262.557 18.7491C253.648 25.5903 252.298 38.6365 252.889 49.1606C258.844 48.6137 264.341 47.3973 264.341 47.3973C264.988 47.1182 265.612 46.8392 266.226 46.5602C271.5 31.561 280.22 18.8942 294.515 15.1667C295.519 14.8989 296.511 14.698 297.504 14.5418C300.526 13.9837 304.852 13.582 309.625 14.2069C311.933 14.4525 315.958 15.1779 320.14 17.2425C320.33 17.3318 320.519 17.4322 320.72 17.5215C320.82 17.5773 320.909 17.6331 321.01 17.6889C331.96 23.3025 338.929 34.8867 343.334 48.1003C348.262 47.9664 351.15 47.4754 351.24 47.5647L354.563 47.6205C354.563 47.3638 354.585 47.0959 354.596 46.8392C374.489 33.1123 366.516 4.19629 365.524 0.870561" fill="#161616"/>
<mask id="mask5_3373_7515" style="mask-type:luminance" maskUnits="userSpaceOnUse" x="261" y="13" width="87" height="102">
<path d="M297.515 14.5307C296.523 14.6981 295.53 14.899 294.527 15.1668C277.812 19.5304 268.702 36.0921 263.84 54.339C263.104 56.3032 262.334 60.6221 262.334 60.6221C261.866 62.8095 261.465 65.0081 261.097 67.1731C262.535 80.9448 264.866 101.658 266.159 105.173C266.494 106.1 267.308 107.071 268.412 108.053C272.002 110.441 276.998 113.499 280.209 114.369C285.695 115.843 286.822 111.691 287.803 107.986C288.784 104.27 291.315 100.129 297.649 99.5264C298.173 99.4818 298.675 99.4483 299.166 99.4148C299.277 99.4037 299.366 99.3925 299.467 99.3814C303.001 99.1135 311.443 98.7787 315.2 100.598C318.836 102.149 320.519 105.274 321.289 108.131C322.27 111.847 323.396 115.999 328.871 114.515C332.094 113.633 337.09 110.575 340.68 108.198C341.795 107.216 342.598 106.245 342.933 105.319C344.226 101.814 346.545 81.2349 347.984 67.4745V67.441C347.984 67.441 347.984 67.3852 347.973 67.3517C347.605 65.1085 347.192 62.8542 346.702 60.5998C346.702 60.5998 345.943 56.292 345.207 54.3166C341.003 38.592 333.655 24.1507 321.01 17.6555C320.91 17.5997 320.82 17.5439 320.72 17.4881C320.531 17.3989 320.341 17.2984 320.14 17.2091C315.959 15.1445 311.933 14.4191 309.625 14.1736C307.93 13.9504 306.28 13.8611 304.73 13.8611C301.942 13.8611 299.456 14.1624 297.504 14.5084" fill="white"/>
</mask>
<g mask="url(#mask5_3373_7515)">
<path d="M347.984 13.8833H261.086V116.01H347.984V13.8833Z" fill="url(#paint3_linear_3373_7515)"/>
</g>
<path d="M260.795 69.048C259.312 78.6346 258.732 87.931 258.598 95.4418C258.576 95.9998 258.576 96.5466 258.576 97.0823C258.386 116.534 273.518 128.398 286.81 135.417C291.159 137.716 295.173 138.944 298.619 139.558C298.619 139.558 300.838 140.172 304.517 140.127C308.186 140.161 310.405 139.569 310.405 139.569C313.862 138.933 317.876 137.705 322.225 135.417C335.506 128.409 350.648 116.546 350.459 97.0823C350.459 96.5578 350.448 96.0221 350.436 95.4753C350.303 87.6855 349.678 77.9873 348.072 68.0101C348.039 67.8204 348.017 67.6418 347.983 67.4521C346.545 81.2126 344.225 101.814 342.932 105.319C342.586 106.245 341.783 107.216 340.668 108.198C337.078 110.586 332.082 113.644 328.86 114.514C323.385 115.999 322.247 111.847 321.277 108.142C320.519 105.274 318.824 102.16 315.189 100.609C311.42 98.7898 302.99 99.1246 299.444 99.3925C299.343 99.3925 299.254 99.4036 299.143 99.4148C298.652 99.4483 298.15 99.4817 297.626 99.5264C291.304 100.129 288.772 104.281 287.78 107.986C286.799 111.691 285.672 115.854 280.186 114.369C276.975 113.499 271.979 110.441 268.389 108.053C267.274 107.071 266.471 106.1 266.136 105.173C264.843 101.658 262.512 80.9447 261.074 67.1731C261.074 67.2177 261.063 67.2624 261.051 67.307C260.962 67.8873 260.873 68.4677 260.784 69.048" fill="#161616"/>
<path d="M323.931 13.95C323.831 13.8942 323.374 15.0661 320.709 17.5104C321.701 15.0661 321.601 9.55273 319.471 12.834C315.289 10.7694 312.301 11.4055 309.993 11.16C305.22 10.535 300.76 10.6134 297.727 11.1603C296.734 11.3277 290.367 11.4616 289.364 11.7183C278.77 8.92794 261.487 29.887 266.215 46.5491C282.372 39.1053 283.175 29.887 283.175 29.887C308.22 46.5937 332.83 48.2898 344.56 47.9885C343.445 31.8063 335.238 19.1615 322.259 16.7401" fill="#161616"/>
<path d="M290.892 109.939C290.892 109.939 294.694 116.267 303.146 116.267C303.146 116.267 312.58 116.746 317.018 110.318L317.185 110.05C302.488 115.921 290.903 109.939 290.903 109.939" fill="white"/>
<g style="mix-blend-mode:multiply" opacity="0.2">
<mask id="mask6_3373_7515" style="mask-type:luminance" maskUnits="userSpaceOnUse" x="280" y="131" width="49" height="22">
<path d="M328.96 131.478H280.878V152.291H328.96V131.478Z" fill="white"/>
</mask>
<g mask="url(#mask6_3373_7515)">
<mask id="mask7_3373_7515" style="mask-type:luminance" maskUnits="userSpaceOnUse" x="280" y="131" width="49" height="22">
<path d="M328.96 131.478H280.878V152.291H328.96V131.478Z" fill="white"/>
</mask>
<g mask="url(#mask7_3373_7515)">
<path d="M328.96 139.926V131.478C326.708 132.94 324.422 134.268 322.18 135.44C317.832 137.727 313.817 138.955 310.361 139.58C310.361 139.58 308.142 140.194 304.462 140.16C300.782 140.194 298.563 139.591 298.563 139.591C295.106 138.955 291.092 137.727 286.743 135.44C284.803 134.413 282.829 133.275 280.855 132.047V151.733C297.203 154.077 313.717 148.731 328.938 139.926" fill="#ECB699"/>
</g>
</g>
</g>
<path d="M309.826 95.1739C309.391 95.1739 309 94.8837 308.878 94.4484C308.733 93.9239 309.045 93.3882 309.569 93.2543C310.773 92.9307 313.583 91.6249 314.085 89.8393C314.431 88.6117 312.691 84.5829 311.164 81.0339C310.216 78.8242 309.235 76.5476 308.454 74.3713C306.101 67.7757 309.424 61.9724 309.569 61.7269C309.848 61.2582 310.439 61.1019 310.907 61.3809C311.376 61.6488 311.532 62.2514 311.264 62.7201C311.231 62.7759 308.264 67.9989 310.305 73.724C311.063 75.8445 312.022 78.0877 312.959 80.2639C315.156 85.3529 316.471 88.5671 315.959 90.375C315.167 93.1985 311.442 94.7721 310.071 95.1404C309.982 95.1627 309.904 95.1739 309.814 95.1739" fill="#DE9279"/>
<path d="M330.042 73.2553C330.042 75.253 328.425 76.8823 326.418 76.8823C324.41 76.8823 322.805 75.253 322.805 73.2553C322.805 71.2576 324.433 69.6394 326.418 69.6394C328.402 69.6394 330.042 71.2688 330.042 73.2553Z" fill="#231F20"/>
<path d="M287.825 73.4784C287.825 75.4761 286.219 77.1055 284.201 77.1055C282.182 77.1055 280.588 75.4761 280.588 73.4784C280.588 71.4808 282.216 69.8625 284.201 69.8625C286.186 69.8625 287.825 71.4919 287.825 73.4784Z" fill="#231F20"/>
<path d="M208.386 597.481C217.363 507.854 234.702 379.01 234.702 379.01C234.702 379.01 283.967 379.49 308.588 379.49C340.925 379.49 375.626 377.091 375.626 377.091C375.626 377.091 392.219 509.149 401.195 598.776C410.049 687.187 419.984 799.826 419.984 801.389C419.984 801.389 407.707 802.002 400.013 802.672C381.726 700.378 303.826 474.351 305.321 482.654C304.217 487.732 305.321 482.654 304.06 488.636C271.567 572.092 242.296 719.719 226.228 810.25C212.546 809.402 197.682 803.096 197.682 803.096C197.682 803.096 199.388 687.109 208.364 597.481H208.386Z" fill="url(#paint4_linear_3373_7515)"/>
<path style="mix-blend-mode:multiply" opacity="0.27" d="M320.742 397.67L315.613 448.259C315.613 448.259 297.381 446.674 312.78 402L320.742 397.67Z" fill="url(#paint5_linear_3373_7515)"/>
<path d="M231.914 394.924L231.056 407.513L379.228 409.243L377.912 394.4L231.914 394.924Z" fill="#707070"/>
<path d="M270.385 394.802H274.956L275.402 408.105H270.284L270.385 394.802Z" fill="url(#paint6_linear_3373_7515)"/>
<path d="M365.468 394.378L364.253 409.075H368.825L369.773 394.277L365.468 394.378Z" fill="url(#paint7_linear_3373_7515)"/>
<path d="M322.671 394.657H306.156L306.312 409.176L323.373 408.306V406.096L309.245 406.42L308.197 397.67L323.329 396.878L322.671 394.657Z" fill="url(#paint8_linear_3373_7515)"/>
<path d="M317.798 400.571L304.061 400.292V401.665L317.798 403.373C317.798 403.373 319.493 402.078 317.798 400.571Z" fill="url(#paint9_linear_3373_7515)"/>
<path d="M354.361 178.35L319.203 164.802L259.947 167.614L351.272 282.876C351.272 282.876 357.182 203.729 354.361 178.35Z" fill="#F7F7F7"/>
<path d="M346.411 166.376C315.534 172.447 304.874 166.833 304.874 166.833L271.489 162.001C271.489 162.001 206.992 188.663 199.9 194.499C192.797 200.336 227.387 229.263 230.409 252.242C235.761 292.988 241.883 297.898 238.783 340.273C235.561 384.267 231.123 395.572 231.123 395.572L378.302 393.942C378.302 393.942 374.634 372.761 368.88 320.62C366.482 305.03 379.25 252.532 387.468 233.113C396.891 210.849 418.334 208.204 409.982 195.392L346.411 166.376Z" fill="#E1EFFF"/>
<path d="M303.983 165.851L318.568 184.578L308.588 209.365C308.588 209.365 310.383 241.606 313.071 279.562C318.356 354.235 325.325 401.252 325.325 401.833C325.325 402.714 307.696 425.459 307.696 425.459L287.078 403.317C287.078 403.317 295.564 353.13 298.708 279.272C300.392 239.787 303.191 210.592 303.135 210.592C302.957 210.592 290.033 185.415 290.033 185.415L303.983 165.84V165.851Z" fill="url(#paint10_linear_3373_7515)"/>
<path d="M304.127 165.315C304.127 165.315 296.444 180.638 291.995 189.734C262.088 171.721 257.305 168.496 257.305 168.496L279.361 148.698C279.361 148.698 279.383 155.695 304.127 165.327V165.315Z" fill="#CFDDF1"/>
<path d="M304.584 164.791C304.584 164.791 312.055 180.638 316.505 189.734C346.411 171.721 347.392 167.313 347.392 167.313L329.339 150.048C329.339 150.048 329.328 155.16 304.573 164.791H304.584Z" fill="#CFDDF1"/>
<path d="M587.336 281.761C585.774 282.352 572.092 289.807 569.695 290.923C567.286 292.05 565.513 294.226 565.023 295.32C564.688 296.068 562.703 300.644 561.477 303.456C560.217 305.855 558.99 307.887 558.265 308.087C557.608 308.277 553.671 307.797 549.389 307.273C548.285 310.252 547.36 313.277 546.323 316.279C545.197 319.538 544.104 323.209 542.788 326.479C550.583 327.841 561.499 329.481 561.499 329.481C561.499 329.481 580.143 332.294 589.978 332.428C592.119 332.606 594.115 332.707 595.576 332.763C599.546 332.919 613.741 333.354 613.741 333.354C613.741 333.354 614.611 332.238 612.737 329.928C610.63 327.327 605.511 327.216 603.382 327.037C602.49 326.959 600.304 326.714 597.829 326.345C597.929 326.323 598.029 326.312 598.13 326.29C602.612 325.497 618.424 321.346 618.424 321.346C618.424 321.346 619.996 319.928 616.618 318.098C613.239 316.279 607.92 317.629 605.489 317.953C604.575 318.076 602.456 318.31 599.947 318.477C600.338 318.377 600.717 318.288 601.073 318.198C606.08 316.971 623.632 311.089 623.632 311.089C623.632 311.089 625.304 309.36 621.346 307.552C617.387 305.744 611.477 307.686 608.756 308.221C606.571 308.657 598.286 310.052 592.688 310.096C594.974 309.583 597.059 309.047 598.631 308.623C603.616 307.295 621.067 301.101 621.067 301.101C621.067 301.101 622.706 299.349 618.725 297.608C614.733 295.867 608.857 297.92 606.147 298.512C603.437 299.103 591.238 301.38 586.566 300.487C584.247 300.052 583.087 298.914 582.519 297.865C582.452 297.697 582.385 297.53 582.34 297.351C581.515 294.271 587.614 288.457 588.741 285.934C589.755 283.658 589.064 281.616 587.771 281.66C587.626 281.66 587.481 281.694 587.325 281.761" fill="url(#paint11_linear_3373_7515)"/>
<path d="M556.013 318.199C552.601 319.08 547.583 325.397 550.805 327.528C554.028 329.66 579.931 333.544 585.641 333.946C591.35 334.336 613.484 333.678 613.941 333.399C615.09 332.696 613.986 330.553 613.986 330.553C612.391 327.763 606.671 327.06 601.252 326.357C595.832 325.642 578.816 318.902 570.498 316.647C568.323 316.056 566.294 315.888 564.476 315.944C559.369 316.123 556.013 318.21 556.013 318.21" fill="url(#paint12_linear_3373_7515)"/>
<path d="M378.659 247.287C378.659 247.287 406.48 342.84 435.685 350.965C464.889 359.1 535.317 337.226 535.317 337.226C543.167 327.305 540.402 303.768 540.402 303.768L453.771 303.657C453.771 303.657 443.033 281.917 430.901 246.628C416.605 205.068 407.395 194.633 407.395 194.633L378.659 247.276V247.287Z" fill="#E1EFFF"/>
<path d="M540.413 303.768L553.125 305.911C553.125 305.911 557.318 323.711 552.166 339.28L535.696 336.579C535.696 336.579 542.9 321.033 540.413 303.757" fill="white"/>
<path d="M416.605 318.667L416.984 321.915C415.312 322.104 414.933 322.171 413.148 322.562L413.238 319.236C415.133 318.823 414.821 318.868 416.605 318.667ZM422.248 318.366C424.21 318.388 426.117 318.567 427.923 318.89L427.355 322.116C425.727 321.825 423.987 321.669 422.203 321.647L422.248 318.377V318.366ZM433.465 320.419C435.272 321.122 437 322.004 438.606 323.064L436.81 325.798C435.405 324.872 433.878 324.091 432.283 323.477L433.465 320.419ZM443.077 326.714C444.393 328.03 445.62 329.526 446.724 331.144L444.025 332.997C443.021 331.535 441.918 330.207 440.747 329.024L443.066 326.714H443.077ZM449.578 336.066C450.37 337.706 451.095 339.458 451.73 341.289L448.641 342.36C448.05 340.653 447.381 339.012 446.634 337.494L449.578 336.066ZM453.291 346.69C453.715 348.454 453.882 349.324 454.161 351.21L450.927 351.69C450.66 349.893 450.504 349.123 450.102 347.449L453.28 346.69H453.291Z" fill="#C2D8F0"/>
<path d="M41.9714 214.029C43.3653 214.945 55.1071 225.19 57.2035 226.808C59.311 228.426 60.571 230.948 60.8163 232.109C60.9836 232.901 61.9314 237.812 62.5113 240.814C63.2138 243.425 64.6857 243.548 65.3436 243.905C65.9346 244.24 77.4534 246.55 81.3338 249.653C83.8093 251.639 75.1898 263.882 75.7584 267.353C67.8525 266.984 56.8466 266.225 56.8466 266.225C56.8466 266.225 38.0352 264.92 28.412 262.911C26.2822 262.621 24.3085 262.286 22.8812 262.018C18.9673 261.315 5.02877 258.648 5.02877 258.648C5.02877 258.648 4.42663 257.375 6.746 255.512C9.36644 253.425 14.3843 254.429 16.503 254.731C17.3839 254.842 19.5806 255.088 22.0784 255.266C21.978 255.222 21.8888 255.188 21.7996 255.143C17.5957 253.402 3.06623 245.914 3.06623 245.914C3.06623 245.914 1.83964 244.184 5.53056 243.135C9.22148 242.086 14.1278 244.564 16.4249 245.401C17.2947 245.713 19.313 246.405 21.7216 247.119C21.3536 246.941 21.0079 246.762 20.6845 246.606C16.0681 244.318 0.200466 234.765 0.200466 234.765C0.200466 234.765 -1.05958 232.723 3.20004 231.808C7.45965 230.904 12.812 234.073 15.3433 235.2C17.3839 236.093 25.156 239.263 30.6311 240.512C28.5124 239.519 26.5945 238.537 25.1449 237.778C20.5619 235.401 4.87266 225.569 4.87266 225.569C4.87266 225.569 3.64607 223.504 7.91683 222.679C12.1876 221.853 17.4842 225.123 20.0043 226.294C22.5133 227.466 33.9317 232.332 38.6931 232.477C41.0459 232.555 42.4286 231.696 43.2203 230.803C43.3207 230.658 43.4211 230.502 43.4991 230.334C44.971 227.511 40.2765 220.513 39.719 217.802C39.2172 215.357 40.3434 213.516 41.5923 213.84C41.7261 213.873 41.8711 213.94 42.0049 214.029" fill="url(#paint13_linear_3373_7515)"/>
<path d="M64.6631 256.405C67.8076 258.001 71.3312 265.266 67.7295 266.65C64.1278 268.034 37.9903 266.192 32.3368 265.344C26.6722 264.485 5.21801 259.039 4.82774 258.659C3.85761 257.722 5.39643 255.869 5.39643 255.869C7.55969 253.492 13.3024 254.05 18.744 254.541C24.1856 255.021 42.261 252.142 50.8695 251.74C53.1219 251.639 55.1403 251.907 56.8909 252.365C61.8307 253.648 64.6631 256.416 64.6631 256.416" fill="url(#paint14_linear_3373_7515)"/>
<path d="M235.082 248.068C235.082 248.068 198.752 342.862 170.262 353.208C141.638 363.598 81.3117 281.381 81.3117 281.381C70.1052 274.808 83.7761 248.403 83.7761 248.403L153.658 303.668C153.658 303.668 164.397 281.928 176.529 246.639C190.824 205.079 200.035 194.644 200.035 194.644L235.082 248.068Z" fill="#E1EFFF"/>
<path d="M94.4699 249.575L81.4457 241.919C81.4457 241.919 64.4518 266.917 64.5522 283.323L81.0554 285.834L94.4699 249.575Z" fill="white"/>
<path d="M195.329 316.915L195.418 320.241C193.634 319.85 193.255 319.783 191.583 319.593L191.962 316.346C193.746 316.547 193.445 316.502 195.329 316.915ZM186.353 319.314C184.569 319.337 182.84 319.493 181.201 319.783L180.632 316.558C182.439 316.234 184.346 316.067 186.308 316.033L186.353 319.303V319.314ZM176.272 321.156C174.678 321.77 173.161 322.551 171.745 323.477L169.95 320.743C171.556 319.694 173.284 318.801 175.09 318.098L176.272 321.156ZM167.809 326.702C166.638 327.885 165.534 329.213 164.531 330.675L161.832 328.823C162.947 327.205 164.174 325.709 165.478 324.392L167.798 326.702H167.809ZM161.932 335.184C161.197 336.702 160.516 338.342 159.925 340.05L156.837 338.978C157.472 337.148 158.197 335.385 158.989 333.756L161.932 335.184ZM158.453 345.139C158.052 346.813 157.907 347.583 157.628 349.38L154.395 348.9C154.673 347.014 154.852 346.143 155.264 344.38L158.442 345.139H158.453Z" fill="#C2D8F0"/>
</g>
<defs>
<linearGradient id="paint0_linear_3373_7515" x1="316.352" y1="229.029" x2="316.352" y2="113.003" gradientUnits="userSpaceOnUse">
<stop stop-color="#FBDCCC"/>
<stop offset="0.19" stop-color="#FAD9C7"/>
<stop offset="0.4" stop-color="#F9D0BA"/>
<stop offset="0.62" stop-color="#F8C2A4"/>
<stop offset="0.85" stop-color="#F5AE86"/>
<stop offset="1" stop-color="#F49E6D"/>
</linearGradient>
<linearGradient id="paint1_linear_3373_7515" x1="368.326" y1="88.8045" x2="368.326" y2="56.7588" gradientUnits="userSpaceOnUse">
<stop stop-color="#FBDCCC"/>
<stop offset="0.19" stop-color="#FAD9C7"/>
<stop offset="0.4" stop-color="#F9D0BA"/>
<stop offset="0.62" stop-color="#F8C2A4"/>
<stop offset="0.85" stop-color="#F5AE86"/>
<stop offset="1" stop-color="#F49E6D"/>
</linearGradient>
<linearGradient id="paint2_linear_3373_7515" x1="256.983" y1="93.2887" x2="256.983" y2="61.3706" gradientUnits="userSpaceOnUse">
<stop stop-color="#FBDCCC"/>
<stop offset="0.19" stop-color="#FAD9C7"/>
<stop offset="0.4" stop-color="#F9D0BA"/>
<stop offset="0.62" stop-color="#F8C2A4"/>
<stop offset="0.85" stop-color="#F5AE86"/>
<stop offset="1" stop-color="#F49E6D"/>
</linearGradient>
<linearGradient id="paint3_linear_3373_7515" x1="292.98" y1="121.754" x2="292.98" y2="21.0615" gradientUnits="userSpaceOnUse">
<stop stop-color="#FBDCCC"/>
<stop offset="0.19" stop-color="#FAD9C7"/>
<stop offset="0.4" stop-color="#F9D0BA"/>
<stop offset="0.62" stop-color="#F8C2A4"/>
<stop offset="0.85" stop-color="#F5AE86"/>
<stop offset="1" stop-color="#F49E6D"/>
</linearGradient>
<linearGradient id="paint4_linear_3373_7515" x1="197.693" y1="593.665" x2="419.996" y2="593.665" gradientUnits="userSpaceOnUse">
<stop stop-color="#454545"/>
<stop offset="1" stop-color="#2E2E2E"/>
</linearGradient>
<linearGradient id="paint5_linear_3373_7515" x1="306.592" y1="422.959" x2="320.742" y2="422.959" gradientUnits="userSpaceOnUse">
<stop stop-color="#3D3D3D"/>
<stop offset="1" stop-color="#262626"/>
</linearGradient>
<linearGradient id="paint6_linear_3373_7515" x1="270.284" y1="401.453" x2="275.402" y2="401.453" gradientUnits="userSpaceOnUse">
<stop stop-color="#3D3D3D"/>
<stop offset="1" stop-color="#262626"/>
</linearGradient>
<linearGradient id="paint7_linear_3373_7515" x1="364.253" y1="401.676" x2="369.773" y2="401.676" gradientUnits="userSpaceOnUse">
<stop stop-color="#3D3D3D"/>
<stop offset="1" stop-color="#262626"/>
</linearGradient>
<linearGradient id="paint8_linear_3373_7515" x1="306.156" y1="401.922" x2="323.373" y2="401.922" gradientUnits="userSpaceOnUse">
<stop stop-color="#3D3D3D"/>
<stop offset="1" stop-color="#262626"/>
</linearGradient>
<linearGradient id="paint9_linear_3373_7515" x1="304.061" y1="401.833" x2="318.545" y2="401.833" gradientUnits="userSpaceOnUse">
<stop stop-color="#3D3D3D"/>
<stop offset="1" stop-color="#262626"/>
</linearGradient>
<linearGradient id="paint10_linear_3373_7515" x1="271.79" y1="175.94" x2="289.057" y2="241.477" gradientUnits="userSpaceOnUse">
<stop stop-color="#C1210D"/>
<stop offset="0.52" stop-color="#C1210D"/>
<stop offset="1" stop-color="#9D1D06"/>
</linearGradient>
<linearGradient id="paint11_linear_3373_7515" x1="542.799" y1="307.507" x2="624" y2="307.507" gradientUnits="userSpaceOnUse">
<stop stop-color="#FBDCCC"/>
<stop offset="0.2" stop-color="#FAD3BF"/>
<stop offset="0.56" stop-color="#F7BE9E"/>
<stop offset="1" stop-color="#F49E6D"/>
</linearGradient>
<linearGradient id="paint12_linear_3373_7515" x1="549.768" y1="324.995" x2="614.454" y2="324.995" gradientUnits="userSpaceOnUse">
<stop stop-color="#FBDCCC"/>
<stop offset="0.25" stop-color="#F9CAB1"/>
<stop offset="0.75" stop-color="#F5AA80"/>
<stop offset="1" stop-color="#F49E6D"/>
</linearGradient>
<linearGradient id="paint13_linear_3373_7515" x1="3.79815" y1="253.489" x2="78.3515" y2="235.908" gradientUnits="userSpaceOnUse">
<stop stop-color="#FBDCCC"/>
<stop offset="0.2" stop-color="#FAD3BF"/>
<stop offset="0.56" stop-color="#F7BE9E"/>
<stop offset="1" stop-color="#F49E6D"/>
</linearGradient>
<linearGradient id="paint14_linear_3373_7515" x1="6.83996" y1="267.895" x2="66.958" y2="253.718" gradientUnits="userSpaceOnUse">
<stop stop-color="#FBDCCC"/>
<stop offset="0.25" stop-color="#F9CAB1"/>
<stop offset="0.75" stop-color="#F5AA80"/>
<stop offset="1" stop-color="#F49E6D"/>
</linearGradient>
<clipPath id="clip0_3373_7515">
<rect width="624" height="847" fill="white"/>
</clipPath>
</defs>
</svg>
